<svg width="18" height="18" viewBox="0 0 18 18" fill="none" xmlns="http://www.w3.org/2000/svg">
<path fill-rule="evenodd" clip-rule="evenodd" d="M8.00723 7.87282L7.54985 8.27946L3.375 11.9911V13.8768H5.18006L5.89243 13.2374L4.97516 12.2328L5.80595 11.4742L6.7297 12.486L7.47305 11.8188L6.53508 10.7987L7.36322 10.0372L8.31036 11.0673L9.23879 10.234L9.70417 9.81636L10.3046 9.9911C10.6032 10.078 10.9202 10.125 11.25 10.125C13.114 10.125 14.625 8.61396 14.625 6.75C14.625 4.88604 13.114 3.375 11.25 3.375C9.38604 3.375 7.875 4.88604 7.875 6.75C7.875 6.9268 7.8885 7.09971 7.91433 7.26791L8.00723 7.87282ZM5.82462 14.8099L9.99022 11.0713C10.39 11.1876 10.8127 11.25 11.25 11.25C13.7353 11.25 15.75 9.23528 15.75 6.75C15.75 4.26472 13.7353 2.25 11.25 2.25C8.76472 2.25 6.75 4.26472 6.75 6.75C6.75 6.98417 6.76789 7.21416 6.80237 7.43869L2.50168 11.2622C2.34159 11.4045 2.25 11.6085 2.25 11.8227V14.2518C2.25 14.666 2.58579 15.0018 3 15.0018H5.32366C5.50859 15.0018 5.68699 14.9335 5.82462 14.8099ZM11.6284 7.50471C12.2516 7.50471 12.7568 6.99997 12.7568 6.37735C12.7568 5.75473 12.2516 5.25 11.6284 5.25C11.0052 5.25 10.5 5.75473 10.5 6.37735C10.5 6.99997 11.0052 7.50471 11.6284 7.50471Z" fill="#FBBF24"/>
</svg>
