<svg width="24" height="24" viewBox="0 0 24 24" fill="none" xmlns="http://www.w3.org/2000/svg">
<path fill-rule="evenodd" clip-rule="evenodd" d="M17.9694 6.15817L11.0446 1.66132C10.7134 1.44623 10.2866 1.44623 9.95538 1.66132L3.03056 6.15817L10.5 11.3144L17.9694 6.15817ZM2 7.26946V16.0006C2 16.829 2.67157 17.5006 3.5 17.5006H17.5C18.3284 17.5006 19 16.829 19 16.0006V7.26946L10.9261 12.843C10.6696 13.0201 10.3304 13.0201 10.0739 12.843L2 7.26946ZM0.5 6.55592C0.5 6.21729 0.671374 5.90166 0.955376 5.71724L9.13844 0.4033C9.96651 -0.134433 11.0335 -0.134433 11.8616 0.4033L20.0446 5.71724C20.3286 5.90166 20.5 6.21729 20.5 6.55592V16.0006C20.5 17.6575 19.1569 19.0006 17.5 19.0006H3.5C1.84315 19.0006 0.5 17.6575 0.5 16.0006V6.55592Z" fill="white"/>
</svg>
