<svg width="18" height="18" viewBox="0 0 18 18" fill="none" xmlns="http://www.w3.org/2000/svg">
<path fill-rule="evenodd" clip-rule="evenodd" d="M13.0341 12.375L12.5762 6.4883C12.4396 4.73114 10.9739 3.375 9.21141 3.375H8.78859C7.02613 3.375 5.56042 4.73114 5.42375 6.48829L4.9659 12.375L13.0341 12.375ZM4.30214 6.40105L3.8375 12.375L3 12.375V13.5L3.75 13.5H4.8784H6.09451C6.42754 14.7939 7.60212 15.75 9 15.75C10.3979 15.75 11.5725 14.7939 11.9055 13.5H13.1216H14.25H15V12.375H14.1625L13.6979 6.40106C13.5156 4.05819 11.5614 2.25 9.21141 2.25H8.78859C6.43865 2.25 4.48436 4.05819 4.30214 6.40105ZM10.719 13.5L7.28102 13.5C7.57035 14.1622 8.23113 14.625 9 14.625C9.76887 14.625 10.4296 14.1622 10.719 13.5Z" fill="#FBBF24"/>
</svg>
