<svg width="19" height="18" viewBox="0 0 19 18" fill="none" xmlns="http://www.w3.org/2000/svg">
<path d="M9.5 11.25C10.7426 11.25 11.75 10.2426 11.75 9C11.75 7.75736 10.7426 6.75 9.5 6.75C8.25736 6.75 7.25 7.75736 7.25 9C7.25 10.2426 8.25736 11.25 9.5 11.25Z" stroke="#FBBF24" stroke-width="1.125"/>
<path d="M10.8236 1.614C10.5483 1.5 10.1988 1.5 9.49985 1.5C8.80085 1.5 8.45135 1.5 8.1761 1.614C7.99399 1.68938 7.82851 1.79992 7.68914 1.93929C7.54977 2.07866 7.43923 2.24414 7.36385 2.42625C7.29485 2.5935 7.2671 2.78925 7.2566 3.0735C7.25172 3.27895 7.1948 3.4798 7.09118 3.65727C6.98756 3.83473 6.84062 3.98302 6.6641 4.08825C6.4847 4.18858 6.28279 4.24175 6.07725 4.2428C5.87171 4.24385 5.66926 4.19274 5.48885 4.09425C5.23685 3.96075 5.0546 3.88725 4.87385 3.86325C4.47959 3.8114 4.08087 3.91823 3.76535 4.16025C3.52985 4.3425 3.35435 4.64475 3.00485 5.25C2.65535 5.85525 2.47985 6.1575 2.4416 6.45375C2.41583 6.64909 2.42879 6.84759 2.47975 7.03792C2.53071 7.22825 2.61867 7.40667 2.7386 7.563C2.8496 7.707 3.00485 7.82775 3.2456 7.97925C3.60035 8.202 3.82835 8.5815 3.82835 9C3.82835 9.4185 3.60035 9.798 3.2456 10.02C3.00485 10.1722 2.84885 10.293 2.7386 10.437C2.61867 10.5933 2.53071 10.7718 2.47975 10.9621C2.42879 11.1524 2.41583 11.3509 2.4416 11.5463C2.4806 11.8418 2.65535 12.1448 3.0041 12.75C3.35435 13.3552 3.5291 13.6575 3.76535 13.8397C3.92168 13.9597 4.1001 14.0476 4.29043 14.0986C4.48076 14.1496 4.67926 14.1625 4.8746 14.1368C5.0546 14.1128 5.23685 14.0393 5.48885 13.9058C5.66926 13.8073 5.87171 13.7561 6.07725 13.7572C6.28279 13.7582 6.4847 13.8114 6.6641 13.9117C7.02635 14.1217 7.2416 14.508 7.2566 14.9265C7.2671 15.2115 7.2941 15.4065 7.36385 15.5737C7.43923 15.7559 7.54977 15.9213 7.68914 16.0607C7.82851 16.2001 7.99399 16.3106 8.1761 16.386C8.45135 16.5 8.80085 16.5 9.49985 16.5C10.1988 16.5 10.5483 16.5 10.8236 16.386C11.0057 16.3106 11.1712 16.2001 11.3106 16.0607C11.4499 15.9213 11.5605 15.7559 11.6358 15.5737C11.7048 15.4065 11.7326 15.2115 11.7431 14.9265C11.7581 14.508 11.9733 14.121 12.3356 13.9117C12.515 13.8114 12.7169 13.7582 12.9225 13.7572C13.128 13.7561 13.3304 13.8073 13.5108 13.9058C13.7628 14.0393 13.9451 14.1128 14.1251 14.1368C14.3204 14.1625 14.5189 14.1496 14.7093 14.0986C14.8996 14.0476 15.078 13.9597 15.2343 13.8397C15.4706 13.6582 15.6453 13.3552 15.9948 12.75C16.3443 12.1448 16.5198 11.8425 16.5581 11.5463C16.5839 11.3509 16.5709 11.1524 16.5199 10.9621C16.469 10.7718 16.381 10.5933 16.2611 10.437C16.1501 10.293 15.9948 10.1723 15.7541 10.0208C15.5785 9.9138 15.433 9.76405 15.3311 9.58553C15.2292 9.40701 15.1742 9.20555 15.1713 9C15.1713 8.5815 15.3993 8.202 15.7541 7.98C15.9948 7.82775 16.1508 7.707 16.2611 7.563C16.381 7.40667 16.469 7.22825 16.5199 7.03792C16.5709 6.84759 16.5839 6.64909 16.5581 6.45375C16.5191 6.15825 16.3443 5.85525 15.9956 5.25C15.6453 4.64475 15.4706 4.3425 15.2343 4.16025C15.078 4.04032 14.8996 3.95236 14.7093 3.9014C14.5189 3.85044 14.3204 3.83748 14.1251 3.86325C13.9451 3.88725 13.7628 3.96075 13.5101 4.09425C13.3298 4.19261 13.1275 4.24365 12.9221 4.2426C12.7167 4.24155 12.5149 4.18844 12.3356 4.08825C12.1591 3.98302 12.0121 3.83473 11.9085 3.65727C11.8049 3.4798 11.748 3.27895 11.7431 3.0735C11.7326 2.7885 11.7056 2.5935 11.6358 2.42625C11.5605 2.24414 11.4499 2.07866 11.3106 1.93929C11.1712 1.79992 11.0057 1.68938 10.8236 1.614Z" stroke="#FBBF24" stroke-width="1.125"/>
</svg>
