<svg viewBox="0 0 19 20" fill="none" xmlns="http://www.w3.org/2000/svg">
<path fill-rule="evenodd" clip-rule="evenodd" d="M10.5 0C12.9261 0 14.9486 1.72788 15.404 4.02015C15.4361 4.02337 15.4681 4.02697 15.5 4.03095C17.4732 4.277 19 5.96019 19 8V10C19 12.0398 17.4732 13.723 15.5 13.9691C15.4806 13.9715 15.4611 13.9738 15.4415 13.9759C15.1468 15.8892 13.7674 17.4446 11.9511 17.9945C11.7216 19.1384 10.7114 20 9.5 20C8.11929 20 7 18.8807 7 17.5C7 16.1193 8.11929 15 9.5 15C10.5127 15 11.3847 15.6021 11.7777 16.4678C13.0717 15.9602 13.9901 14.7042 14 13.2324V12.5V5.5L14 5C14 3.067 12.433 1.5 10.5 1.5H8.5C6.567 1.5 5 3.067 5 5V5.5V12.5V14H4C3.83067 14 3.6638 13.9895 3.5 13.9691C1.52684 13.723 0 12.0398 0 10V8C0 5.96019 1.52684 4.277 3.5 4.03095C3.53188 4.02697 3.56387 4.02337 3.59597 4.02015C4.05142 1.72788 6.07393 0 8.5 0H10.5ZM3.5 12.45C2.35888 12.2184 1.5 11.2095 1.5 10V8C1.5 6.79052 2.35888 5.78164 3.5 5.55001V12.45ZM9.5 18.5C10.0523 18.5 10.5 18.0523 10.5 17.5C10.5 16.9477 10.0523 16.5 9.5 16.5C8.94771 16.5 8.5 16.9477 8.5 17.5C8.5 18.0523 8.94771 18.5 9.5 18.5ZM17.5 8C17.5 6.79052 16.6411 5.78164 15.5 5.55001V12.45C16.6411 12.2184 17.5 11.2095 17.5 10V8Z"/>
</svg>
