<svg viewBox="0 0 16 19" fill="none" xmlns="http://www.w3.org/2000/svg">
<path opacity="0.75" fill-rule="evenodd" clip-rule="evenodd" d="M3.99782 2.83184C4.20421 1.4903 5.35852 0.5 6.71584 0.5H9.28416C10.6415 0.5 11.7958 1.49031 12.0022 2.83184L12.105 3.49996H13.4955H15L15 3.5H16V5H14.8833L14.0486 15.7326C13.9271 17.2945 12.6242 18.5 11.0576 18.5H4.94239C3.37576 18.5 2.07291 17.2945 1.95143 15.7326L1.11667 5H0V3.5H1L1 3.49996H2.50453H3.89503L3.99782 2.83184ZM10.5873 3.49996H5.41268L5.48037 3.05993C5.57419 2.45014 6.09887 2 6.71584 2H9.28416C9.90113 2 10.4258 2.45014 10.5196 3.05993L10.5873 3.49996ZM2.6212 5L3.44691 15.6163C3.50765 16.3972 4.15908 17 4.94239 17H11.0576C11.8409 17 12.4923 16.3972 12.5531 15.6163L13.3788 5L2.6212 5Z" fill="white"/>
</svg>
