<svg width="40" height="40" viewBox="0 0 40 40" fill="none" xmlns="http://www.w3.org/2000/svg">
    <path
        d="M19.5894 39C19.4817 38.9581 19.3725 38.9191 19.2671 38.8749C18.9488 38.7568 18.675 38.5445 18.4827 38.2669C18.2905 37.9892 18.1891 37.6597 18.1924 37.323C18.1612 35.9712 18.1865 34.618 18.1805 33.2648C18.1805 33.044 18.2511 32.9749 18.491 33.0021C21.6251 33.3511 24.7859 32.6346 27.4552 30.9702C30.1245 29.3058 32.1438 26.7922 33.182 23.8415C33.3261 23.4235 33.3261 23.4235 33.7866 23.4235H35.6433C36.0443 23.4235 36.0473 23.4287 35.9404 23.8003C35.387 25.8006 34.4341 27.6705 33.1382 29.2993C30.4884 32.7121 26.5795 34.943 22.2705 35.5018C21.7016 35.5835 21.7001 35.5754 21.7001 36.1398C21.7001 36.4599 21.7001 36.7822 21.7001 37.1045C21.7543 37.5312 21.645 37.9626 21.394 38.3135C21.1429 38.6644 20.7683 38.9093 20.344 39H19.5894ZM6.29753 15.6324C5.62021 15.6147 4.94213 15.6199 4.26406 15.6324C4.02195 15.6324 3.95956 15.5588 4.02343 15.3307C4.85688 12.2934 6.57307 9.56587 8.95858 7.48726C11.1666 5.53321 13.8676 4.20813 16.7746 3.65276C17.1348 3.58285 17.4987 3.52472 17.8626 3.48425C18.0981 3.45628 18.1983 3.37313 18.1827 3.12442C18.1605 2.76679 18.1827 2.40549 18.1753 2.0464C18.1082 1.59162 18.2164 1.12848 18.4785 0.749232C18.7405 0.369986 19.1372 0.102478 19.5894 0L20.3447 0C20.7691 0.0908626 21.1438 0.336127 21.3946 0.687349C21.6454 1.03857 21.7541 1.47021 21.6994 1.89702C21.6994 3.15459 21.6942 4.41362 21.7053 5.67266C21.7053 5.93094 21.6422 6.01189 21.3614 5.98687C19.0989 5.74969 16.8125 6.07859 14.7114 6.94347C12.8548 7.67423 11.1829 8.80029 9.81405 10.242C8.44519 11.6837 7.41281 13.4058 6.78994 15.2865C6.77202 15.3913 6.71452 15.4853 6.62912 15.5496C6.54373 15.6138 6.43685 15.6434 6.33021 15.6324H6.29753Z"
        fill="white" />
    <path
        d="M15.6435 35.9547C13.4233 35.3534 11.3526 34.2849 9.56606 32.8186C6.60916 30.4418 4.56844 27.0873 3.79978 23.3403C3.7112 22.9249 3.64645 22.5043 3.59583 22.0837C3.57201 21.8776 3.5013 21.793 3.29066 21.7968C2.83513 21.8059 2.37886 21.7968 1.92333 21.7968C1.4963 21.8439 1.06682 21.7334 0.713585 21.4854C0.360349 21.2375 0.107015 20.8687 0 20.4466L0 19.6311C0.0760293 19.4433 0.163021 19.2602 0.260514 19.0829C0.41196 18.8299 0.626729 18.6222 0.882977 18.4808C1.13923 18.3394 1.42781 18.2694 1.71939 18.2779C2.31485 18.2779 2.91552 18.2779 3.51321 18.2779C4.3022 18.2779 5.09192 18.2779 5.88016 18.2726C6.14514 18.2726 6.22479 18.3526 6.19129 18.6049C6.12305 19.2003 6.10338 19.8004 6.13249 20.399C6.18442 23.3703 7.21525 26.2383 9.06066 28.5461C10.7669 30.746 13.0892 32.3707 15.7224 33.2068C15.8113 33.2248 15.8902 33.2763 15.9431 33.351C15.996 33.4257 16.019 33.518 16.0074 33.6093C16.0074 34.2964 16.0074 34.9828 16.0074 35.6693C16.0074 35.9139 15.9926 36 15.875 36C15.7963 35.9942 15.7186 35.979 15.6435 35.9547ZM11.4008 24.1339C11.3595 23.9553 11.3368 23.7729 11.3331 23.5895C11.3356 20.3968 11.3356 17.2043 11.3331 14.0122C11.3319 13.6953 11.413 13.3838 11.5682 13.1088C11.7235 12.8339 11.9473 12.6053 12.2173 12.446C12.4872 12.2867 12.7938 12.2024 13.1061 12.2014C13.4184 12.2005 13.7254 12.2831 13.9963 12.4407C14.2787 12.6018 14.5099 12.8414 14.6626 13.1313C14.8153 13.4212 14.8832 13.7494 14.8582 14.0771C14.8582 17.0659 14.8552 20.0552 14.8493 23.045C14.8261 23.5056 14.9842 23.9568 15.2888 24.2991C15.5935 24.6415 16.0197 24.847 16.4738 24.8705C16.9278 24.8941 17.3725 24.7337 17.7099 24.4246C18.0474 24.1155 18.25 23.6831 18.2732 23.2225C18.2464 22.743 18.3141 22.2574 18.3282 21.7741C18.3766 21.3771 18.5645 21.011 18.8576 20.7433C19.1506 20.4755 19.529 20.3241 19.9233 20.3167C20.166 20.288 20.4118 20.3123 20.6445 20.388C20.8771 20.4637 21.091 20.589 21.2719 20.7555C21.4528 20.9221 21.5965 21.1259 21.6934 21.3535C21.7902 21.581 21.8379 21.8269 21.8333 22.0747C21.8549 22.4024 21.8429 22.7324 21.8474 23.0616C21.8399 23.2931 21.8785 23.5238 21.9608 23.7398C22.0432 23.9559 22.1676 24.1529 22.3266 24.3191C22.4856 24.4853 22.6761 24.6172 22.8865 24.7071C23.0969 24.797 23.3231 24.8429 23.5514 24.8421C23.7797 24.8414 24.0055 24.7939 24.2154 24.7027C24.4252 24.6114 24.6148 24.4782 24.7727 24.3109C24.9307 24.1437 25.0538 23.9459 25.1348 23.7293C25.2157 23.5127 25.2528 23.2818 25.2438 23.0503C25.252 21.0477 25.2438 19.0481 25.2438 17.0417C25.2438 16.0072 25.2438 14.9719 25.2438 13.9367C25.2285 13.5728 25.3279 13.2134 25.5276 12.9108C25.7273 12.6081 26.0169 12.3779 26.3543 12.2535C26.6154 12.1507 26.8967 12.112 27.1754 12.1403C27.454 12.1687 27.7222 12.2635 27.9579 12.4168C28.1937 12.5702 28.3904 12.7779 28.5321 13.0229C28.6738 13.268 28.7565 13.5436 28.7734 13.8272C28.7734 15.4884 28.7734 17.1543 28.7734 18.8178C28.7734 20.3084 28.7525 21.7975 28.7808 23.2882C28.7955 24.1838 28.5504 25.064 28.0759 25.8194C27.6873 26.4487 27.1759 26.9908 26.5732 27.4123C25.9705 27.8338 25.2893 28.1259 24.5712 28.2705C23.8532 28.4151 23.1136 28.4093 22.3979 28.2533C21.6822 28.0974 21.0055 27.7946 20.4094 27.3636C20.3271 27.2824 20.2172 27.2366 20.1024 27.2354C19.9877 27.2343 19.8769 27.278 19.7931 27.3576C18.8606 28.054 17.7341 28.4319 16.5761 28.4366C15.3558 28.438 14.1729 28.0098 13.229 27.2252C12.2851 26.4405 11.6387 25.348 11.4001 24.1339H11.4008ZM34.2345 21.7998C33.869 21.7998 33.8496 21.7598 33.8817 21.3935C34.2293 18.1427 33.3997 14.8745 31.5474 12.1984C29.7911 9.61274 27.2246 7.70548 24.265 6.78635C24.2186 6.78004 24.1739 6.76448 24.1334 6.74058C24.093 6.71668 24.0576 6.6849 24.0293 6.64708C24.001 6.60925 23.9804 6.56612 23.9686 6.52017C23.9568 6.47422 23.9541 6.42636 23.9606 6.37933C23.9754 5.67253 23.9732 4.96573 23.9606 4.2612C23.9561 4.01049 24.0394 3.95914 24.2717 4.02786C30.326 5.80896 34.2533 9.71398 36.0536 15.7429C36.2585 16.4379 36.3985 17.1508 36.4719 17.8724C36.4994 18.1329 36.5888 18.2741 36.888 18.2499C37.0904 18.2341 37.2951 18.2371 37.4998 18.2401C37.6249 18.2401 37.7507 18.2447 37.8764 18.2401C38.3362 18.1731 38.8044 18.277 39.1947 18.5326C39.5849 18.7882 39.8709 19.1784 40 19.6311V20.4466C39.8934 20.8692 39.6402 21.2387 39.2867 21.4871C38.9333 21.7355 38.5034 21.8463 38.0759 21.7991H35.3591L34.2345 21.7998ZM18.2188 16.4339C18.1891 15.576 18.1883 14.7129 18.2188 13.8559C18.2425 13.4015 18.4407 12.9746 18.7708 12.6667C19.101 12.3587 19.5368 12.1941 19.9851 12.2082C20.4419 12.2104 20.8799 12.3929 21.2062 12.7171C21.5326 13.0413 21.7217 13.4817 21.7335 13.945C21.7387 14.3512 21.7335 14.7567 21.7335 15.163C21.7335 15.5692 21.7335 15.9551 21.7335 16.35C21.7411 16.5852 21.7004 16.8193 21.614 17.0377C21.5277 17.256 21.3976 17.4538 21.2319 17.6184C21.0663 17.783 20.8687 17.911 20.6518 17.9941C20.4349 18.0772 20.2033 18.1137 19.9717 18.1012H19.9233C19.703 18.1074 19.4836 18.069 19.278 17.9882C19.0724 17.9074 18.8848 17.7858 18.7261 17.6306C18.5673 17.4753 18.4407 17.2895 18.3537 17.084C18.2666 16.8786 18.2207 16.6575 18.2188 16.4339Z"
        fill="#FBBF24" />
</svg>