<svg width="24" height="24" viewBox="0 0 24 24" fill="red" xmlns="http://www.w3.org/2000/svg">
<path d="M11.9998 4.5C12.4198 4.5 12.7498 4.83 12.7498 5.25L12.7498 18.75C12.7498 19.17 12.4198 19.5 11.9998 19.5C11.5798 19.5 11.2498 19.17 11.2498 18.75L11.2498 5.25C11.2498 4.83 11.5798 4.5 11.9998 4.5Z" fill="#169A6D"/>
<path d="M12 3.00063C12.0984 2.99943 12.1959 3.01883 12.2863 3.05758C12.3767 3.09633 12.458 3.15357 12.525 3.22563L17.775 8.47563C18.075 8.77563 18.075 9.24063 17.775 9.54063C17.475 9.84063 17.01 9.84063 16.71 9.54063L11.985 4.81563L7.26 9.54063C6.96 9.84063 6.495 9.84063 6.195 9.54063C5.895 9.24063 5.895 8.77563 6.195 8.47563L11.445 3.22563C11.595 3.07563 11.79 3.00063 11.97 3.00063L12 3.00063Z" fill="#169A6D"/>
</svg>
