<svg width="24" height="24" fill="none" xmlns="http://www.w3.org/2000/svg"><path opacity=".7" d="M22 12c0 5.523-4.477 10-10 10S2 17.523 2 12 6.477 2 12 2s10 4.477 10 10z" fill="#05F"/><path d="M10.986 14.088h1.764c0-.616.154-.98.658-1.414 1.4-1.204 1.806-1.89 1.806-3.01 0-1.582-1.204-2.66-3.234-2.66-2.002 0-3.248 1.428-3.248 2.828 0 .42.07.742.196 1.008l1.61-.336a1.483 1.483 0 01-.098-.518c0-.868.728-1.386 1.582-1.386.854 0 1.456.462 1.456 1.19 0 .714-.364 1.204-1.288 1.946s-1.204 1.274-1.204 2.128v.224zM10.944 17h1.848v-1.932h-1.848V17z" fill="#fff"/></svg>