<svg width="26" height="27" viewBox="0 0 26 27" fill="none" xmlns="http://www.w3.org/2000/svg">
<path d="M8.51087 1.99757C8.98861 1.84477 9.5619 1.65378 9.77211 1.61558C9.98232 1.55828 11.0525 1.52008 12.1608 1.50098C13.2692 1.50098 14.5495 1.57738 15.0273 1.69198C15.505 1.78747 16.5178 2.18857 17.3013 2.58967C18.1804 3.02896 19.1741 3.73566 19.9003 4.44235C20.55 5.07265 21.3908 6.10404 21.773 6.73434C22.1552 7.36463 22.5756 8.31962 22.7094 8.83532C22.9558 9.78518 23.2946 10.5938 23.3591 11.6048C23.4738 13.1328 23.3225 13.3795 23.0343 13.6676C22.7461 13.9556 22.3807 14.0453 22.1361 13.9159C21.8915 13.7865 21.7157 13.553 21.7157 12.9418C21.7157 11.8922 21.2847 10.3126 20.9513 9.31282C20.7411 8.68252 20.4927 8.05223 20.378 7.93763C20.2825 7.80393 19.8429 7.23093 19.4225 6.69614C19.0021 6.14224 18.2568 5.37825 17.7409 5.01535C17.244 4.65245 16.7472 4.36595 16.6516 4.36595C16.5561 4.36595 16.3267 4.23226 16.1739 4.06036C16.021 3.88846 15.3139 3.64016 14.5878 3.48736C13.8807 3.33456 12.8106 3.20086 12.2182 3.20086C11.6066 3.20086 10.5938 3.33456 9.96321 3.46826C9.33258 3.62106 8.30066 4.04126 7.67004 4.40415C7.03941 4.78615 6.12215 5.49285 5.62529 6.00854C5.14755 6.50514 4.47871 7.38373 4.15384 7.93763C3.82898 8.47242 3.42767 9.46562 3.2748 10.115C3.12192 10.7835 2.98815 11.834 2.98815 12.4643C2.98815 13.0946 3.12192 14.1642 3.29391 14.8518C3.44678 15.5394 3.63788 16.1315 3.71432 16.1888C3.79076 16.2461 4.02008 16.609 4.23028 17.0292C4.44049 17.4303 4.91823 18.1178 5.28132 18.538C5.6444 18.9582 6.40879 19.6458 6.94387 20.0469C7.49805 20.448 8.47265 20.9446 9.10327 21.1547C10.0746 21.4783 11.6823 21.9187 12.7341 21.9187C13.3456 21.9187 13.5701 22.0772 13.7087 22.3389C13.8473 22.6006 13.7359 22.9692 13.4901 23.2149C13.2443 23.4606 12.9252 23.6759 11.3964 23.5613C10.3961 23.4975 8.72107 22.9692 8.72107 22.9692C8.72107 22.9692 7.45983 22.4917 6.71455 22.0715C5.96927 21.6322 4.8609 20.7536 4.23028 20.1042C3.52322 19.3784 2.81616 18.3852 2.37664 17.5067C1.97533 16.7236 1.55492 15.6158 1.44026 15.0428C1.30649 14.4125 1.26827 13.0946 1.3256 11.7958C1.38293 10.4015 1.53581 9.25552 1.74602 8.64432C1.93711 8.12863 2.14732 7.65113 2.20465 7.59383C2.26198 7.53653 2.52952 7.07813 2.79705 6.58154C3.06459 6.06584 3.82898 5.11085 4.51693 4.48055C5.20488 3.83116 6.10304 3.12446 6.52345 2.91437C6.94387 2.70427 7.36428 2.47507 7.45983 2.41777C7.55538 2.36047 8.03312 2.16947 8.51087 1.99757Z" fill="#9F9FB7"/>
<path d="M8.56772 7.51735C8.72773 7.40532 9.19834 7.05896 9.67608 6.84886C10.4214 6.48596 10.8938 6.3961 12.5372 6.4534C13.8558 6.4916 14.5491 6.65786 14.9695 6.88706C15.3135 7.05896 16.0205 7.61285 16.5365 8.10945C17.0524 8.62515 17.6257 9.37004 17.7786 9.79024C17.9506 10.2104 18.1035 10.7643 18.1035 11.0317C18.1035 11.2991 17.9697 11.6429 17.7977 11.7957C17.5493 12.0058 17.3582 12.044 16.9951 11.8912C16.6702 11.7575 16.4027 11.4328 16.2307 10.9362C16.097 10.516 15.6001 9.80934 15.1606 9.37004C14.7211 8.93074 14.0522 8.47235 13.6891 8.37685C13.326 8.26225 12.6572 8.16675 12.2177 8.16675C11.759 8.16675 11.0329 8.31955 10.5933 8.49145C10.1538 8.68244 9.5232 9.10264 9.21745 9.42734C8.89258 9.73294 8.47217 10.3632 8.30018 10.8025C8.10908 11.2418 7.9562 11.9676 7.9562 12.4069C7.9562 12.8653 8.05175 13.5338 8.16641 13.8967C8.28107 14.2596 8.7397 14.9281 9.17923 15.3674C9.59964 15.8258 10.3258 16.3224 10.7653 16.4752C11.2813 16.6471 11.6253 16.9145 11.6826 17.1437C11.7399 17.3538 11.7399 17.6976 11.6826 17.9077C11.6062 18.1942 11.4342 18.2897 10.9755 18.2897C10.6316 18.2897 10.0009 18.156 9.58053 17.9841C9.16012 17.8122 8.37662 17.2201 7.86066 16.6853C7.24914 16.055 6.7714 15.3674 6.56119 14.7562C6.3701 14.2023 6.23633 13.2473 6.23633 12.4642C6.23633 11.7193 6.33188 10.8216 6.42743 10.4587C6.54208 10.0958 6.92428 9.33184 7.28736 8.77794C7.68075 8.19851 7.96584 7.97674 8.56772 7.51735Z" fill="#9F9FB7"/>
<path fill-rule="evenodd" clip-rule="evenodd" d="M13.1166 11.8528C13.4797 11.9101 14.5116 12.2157 15.4098 12.5404C16.308 12.8842 17.2826 13.2662 17.6074 13.3999C17.9323 13.5336 18.6585 13.8201 19.2318 14.0111C19.805 14.2021 20.321 14.4313 20.3783 14.4886C20.4357 14.5459 21.0854 14.7942 21.8116 15.0425C22.5377 15.2908 23.6079 15.6919 24.1621 15.9402C25.0602 16.3413 25.1749 16.4559 25.2704 17.1053C25.3469 17.5828 25.2704 17.9457 25.0793 18.2513C24.8691 18.5187 24.3149 18.8052 23.3786 19.0726C22.6333 19.2827 21.7542 19.5692 21.4294 19.7219C21.1045 19.8556 20.665 20.0275 20.4166 20.0848C20.1872 20.1421 19.9388 20.3904 19.8815 20.6387C19.8242 20.8679 19.6522 21.3072 19.5184 21.6319C19.3655 21.9566 19.0789 22.8352 18.8687 23.5992C18.6011 24.516 18.3145 25.0699 18.0278 25.28C17.7412 25.471 17.3781 25.5474 16.8813 25.471C16.2506 25.3755 16.136 25.2609 15.7347 24.3632C15.4862 23.8093 15.0849 22.7397 14.8365 22.0139C14.5881 21.2881 14.2823 20.505 14.1677 20.2949C14.0339 20.0848 13.7664 19.4355 13.5944 18.8625C13.4033 18.2895 13.1931 17.7165 13.1166 17.621C13.0402 17.5255 12.7727 16.8188 12.5433 16.093C12.2949 15.3672 11.9892 14.5459 11.8363 14.2785C11.7025 14.0111 11.5687 13.5527 11.5496 13.2471C11.5305 12.8651 11.6643 12.5213 11.9892 12.2157C12.3522 11.8719 12.6007 11.7764 13.1166 11.8528ZM14.2823 15.4245C14.5116 15.9975 14.8938 17.0289 15.1614 17.7165C15.4098 18.4041 15.7347 19.2063 15.8684 19.531C16.0213 19.8556 16.3271 20.7151 16.5755 21.4791C16.8239 22.224 17.0723 22.8161 17.1297 22.797C17.187 22.7588 17.2826 22.4914 17.359 22.1858C17.4163 21.8802 17.5883 21.3836 17.7221 21.0589C17.8558 20.7342 18.0852 20.1039 18.2572 19.6265C18.5247 18.8816 18.6776 18.7288 19.4228 18.4614C19.9006 18.2895 20.5312 18.0603 20.8561 17.9266C21.1809 17.7929 21.6778 17.621 21.9836 17.5637C22.2893 17.4873 22.5568 17.3918 22.5951 17.3345C22.6142 17.2772 22.0218 17.0289 21.2765 16.7806C20.5121 16.5323 19.6522 16.2267 19.3273 16.0739C19.0024 15.9402 18.1998 15.6155 17.5119 15.3672C16.8239 15.0998 15.792 14.7178 15.2187 14.4886C14.6454 14.2594 14.1103 14.0875 14.0148 14.0875C13.9384 14.0875 13.881 14.1448 13.881 14.2403C13.881 14.3167 14.053 14.8515 14.2823 15.4245Z" fill="#9F9FB7"/>
</svg>
