<svg width="45" height="45" viewBox="0 0 45 45" fill="none" xmlns="http://www.w3.org/2000/svg">
<path d="M38.1922 8.98456C38.1922 8.98456 44.9902 16.9286 44.9902 31.2383V34.239C44.9902 34.239 36.4053 39.8837 33.789 39.8837L31.2508 36.1603C32.8283 35.4475 34.9802 34.2103 34.9802 34.2103L34.1939 33.5961C34.1939 33.5961 29.1641 35.9474 22.991 35.9474C16.818 35.9474 11.7882 33.5961 11.7882 33.5961L11.0019 34.2103C11.0019 34.2103 13.1538 35.4475 14.7313 36.1603L12.1931 39.8837C9.57512 39.8837 0.990234 34.239 0.990234 34.239V31.2383C0.990234 16.9286 7.78823 8.98456 7.78823 8.98456C7.78823 8.98456 12.4384 6.71389 16.7325 6.11621L18.0647 8.66476C18.0647 8.66476 20.1824 8.16985 22.9902 8.16985C25.7981 8.16985 27.9158 8.66476 27.9158 8.66476L29.248 6.11621C33.5421 6.71389 38.1922 8.98456 38.1922 8.98456ZM15.665 29.1477C17.8292 29.1477 19.5827 27.1598 19.5827 24.7075C19.5827 22.2551 17.8284 20.2672 15.665 20.2672C13.5017 20.2672 11.7474 22.2551 11.7474 24.7075C11.7474 27.1598 13.5009 29.1477 15.665 29.1477ZM30.3154 29.1477C32.4796 29.1477 34.233 27.1598 34.233 24.7075C34.233 22.2551 32.4788 20.2672 30.3154 20.2672C28.1513 20.2672 26.3978 22.2551 26.3978 24.7075C26.3978 27.1598 28.1513 29.1477 30.3154 29.1477Z" fill="#DCDCDE"/>
</svg>
