<svg width="63" height="62" viewBox="0 0 24 24" fill="none" xmlns="http://www.w3.org/2000/svg">
    <path
        d="M11.3203 3.40318C8.63903 3.71725 6.40309 5.07193 4.91715 7.27975C4.09215 8.51256 3.63277 9.82037 3.51559 11.2876C3.3984 12.7735 3.70309 14.2219 4.44371 15.7219L4.79527 16.4297L4.54684 18.0001C4.40621 18.8626 4.2984 19.6501 4.30309 19.7485C4.30777 19.9829 4.50465 20.311 4.70621 20.4329C5.03902 20.6391 5.3109 20.5782 7.43902 19.8235L8.34371 19.5047L8.91559 19.7344C11.9109 20.9297 14.9859 20.4516 17.4187 18.4079C18.7453 17.2969 19.7671 15.661 20.2218 13.9407C20.5921 12.5157 20.5781 10.9172 20.1796 9.53912C19.3687 6.73599 16.8797 4.35475 14.0109 3.62818C13.1812 3.41725 12.0281 3.3235 11.3203 3.40318ZM13.5234 4.54693C16.0312 5.07662 18.2015 6.95162 19.0546 9.32818C19.4062 10.3172 19.5562 11.4422 19.4625 12.4501C19.3921 13.2047 19.3078 13.6079 19.0781 14.3016C18.2625 16.7672 16.3031 18.5907 13.8281 19.1907C13.0875 19.3688 12.5109 19.4251 11.7 19.3922C10.6359 19.3501 9.7734 19.1438 8.86402 18.7219C8.62028 18.6094 8.39527 18.5157 8.36246 18.5157C8.32965 18.5157 7.63121 18.7454 6.81559 19.0313C5.99527 19.3126 5.32027 19.5376 5.31559 19.5329C5.30621 19.5282 5.41871 18.7922 5.56402 17.9063L5.82184 16.2891L5.71871 16.1016C4.98746 14.7985 4.68746 13.9266 4.54684 12.7266C4.07809 8.61568 6.95152 5.0485 11.2031 4.45318C11.7093 4.38287 12.989 4.43443 13.5234 4.54693Z"
        fill="#9F9FB7" />
    <path
        d="M8.17965 11.3157C7.61246 11.5688 7.61715 12.4407 8.18903 12.6844C8.39528 12.7735 8.6109 12.7641 8.84528 12.6563C9.11246 12.5391 9.23434 12.3329 9.23434 12.0001C9.23434 11.6672 9.11246 11.461 8.84528 11.3438C8.61559 11.236 8.37652 11.2266 8.17965 11.3157Z"
        fill="#9F9FB7" />
    <path
        d="M11.639 11.3485C11.3812 11.4751 11.2265 11.7704 11.264 12.0797C11.2875 12.3094 11.3906 12.4782 11.5968 12.6282C11.7797 12.7641 12.2203 12.7641 12.4031 12.6282C12.6093 12.4782 12.7125 12.3094 12.7359 12.0797C12.8062 11.4751 12.1968 11.0719 11.639 11.3485Z"
        fill="#9F9FB7" />
    <path
        d="M15.1546 11.3438C14.8875 11.461 14.7656 11.6672 14.7656 12.0001C14.7656 12.3329 14.8875 12.5391 15.1546 12.6563C15.7781 12.9422 16.3875 12.4501 16.214 11.7985C16.0921 11.3251 15.6281 11.1282 15.1546 11.3438Z"
        fill="#9F9FB7" />
    <path
        d="M11.3203 3.40318C8.63903 3.71725 6.40309 5.07193 4.91715 7.27975C4.09215 8.51256 3.63277 9.82037 3.51559 11.2876C3.3984 12.7735 3.70309 14.2219 4.44371 15.7219L4.79527 16.4297L4.54684 18.0001C4.40621 18.8626 4.2984 19.6501 4.30309 19.7485C4.30777 19.9829 4.50465 20.311 4.70621 20.4329C5.03902 20.6391 5.3109 20.5782 7.43902 19.8235L8.34371 19.5047L8.91559 19.7344C11.9109 20.9297 14.9859 20.4516 17.4187 18.4079C18.7453 17.2969 19.7671 15.661 20.2218 13.9407C20.5921 12.5157 20.5781 10.9172 20.1796 9.53912C19.3687 6.73599 16.8797 4.35475 14.0109 3.62818C13.1812 3.41725 12.0281 3.3235 11.3203 3.40318ZM13.5234 4.54693C16.0312 5.07662 18.2015 6.95162 19.0546 9.32818C19.4062 10.3172 19.5562 11.4422 19.4625 12.4501C19.3921 13.2047 19.3078 13.6079 19.0781 14.3016C18.2625 16.7672 16.3031 18.5907 13.8281 19.1907C13.0875 19.3688 12.5109 19.4251 11.7 19.3922C10.6359 19.3501 9.7734 19.1438 8.86402 18.7219C8.62028 18.6094 8.39527 18.5157 8.36246 18.5157C8.32965 18.5157 7.63121 18.7454 6.81559 19.0313C5.99527 19.3126 5.32027 19.5376 5.31559 19.5329C5.30621 19.5282 5.41871 18.7922 5.56402 17.9063L5.82184 16.2891L5.71871 16.1016C4.98746 14.7985 4.68746 13.9266 4.54684 12.7266C4.07809 8.61568 6.95152 5.0485 11.2031 4.45318C11.7093 4.38287 12.989 4.43443 13.5234 4.54693Z"
        stroke="#9F9FB7" />
    <path
        d="M8.17965 11.3157C7.61246 11.5688 7.61715 12.4407 8.18903 12.6844C8.39528 12.7735 8.6109 12.7641 8.84528 12.6563C9.11246 12.5391 9.23434 12.3329 9.23434 12.0001C9.23434 11.6672 9.11246 11.461 8.84528 11.3438C8.61559 11.236 8.37652 11.2266 8.17965 11.3157Z"
        stroke="#9F9FB7" />
    <path
        d="M11.639 11.3485C11.3812 11.4751 11.2265 11.7704 11.264 12.0797C11.2875 12.3094 11.3906 12.4782 11.5968 12.6282C11.7797 12.7641 12.2203 12.7641 12.4031 12.6282C12.6093 12.4782 12.7125 12.3094 12.7359 12.0797C12.8062 11.4751 12.1968 11.0719 11.639 11.3485Z"
        stroke="#9F9FB7" />
    <path
        d="M15.1546 11.3438C14.8875 11.461 14.7656 11.6672 14.7656 12.0001C14.7656 12.3329 14.8875 12.5391 15.1546 12.6563C15.7781 12.9422 16.3875 12.4501 16.214 11.7985C16.0921 11.3251 15.6281 11.1282 15.1546 11.3438Z"
        stroke="#9F9FB7" />
</svg>