<svg width="154" height="26" viewBox="0 0 154 26" fill="none" xmlns="http://www.w3.org/2000/svg">
<path d="M26 9.55335H16.0665L13.0085 0L9.93271 9.55335L0 9.53475L8.03324 15.4458L4.95749 25L12.9907 19.0889L21.024 25L17.966 15.4466L26 9.55335Z" fill="#00B67A"/>
<path d="M18.5714 17.85L17.8903 15.625L13 19.375L18.5714 17.85Z" fill="#005128"/>
<path d="M58 9.55335H48.0665L45.0085 0L41.9327 9.55335L32 9.53475L40.0332 15.4458L36.9575 25L44.9907 19.0889L53.024 25L49.966 15.4466L58 9.55335Z" fill="#00B67A"/>
<path d="M50.5714 17.85L49.8903 15.625L45 19.375L50.5714 17.85Z" fill="#005128"/>
<path d="M90 9.55335H80.0665L77.0085 0L73.9327 9.55335L64 9.53475L72.0332 15.4458L68.9575 25L76.9907 19.0889L85.024 25L81.966 15.4466L90 9.55335Z" fill="#00B67A"/>
<path d="M82.5714 17.85L81.8903 15.625L77 19.375L82.5714 17.85Z" fill="#005128"/>
<path d="M122 9.55335H112.066L109.008 0L105.933 9.55335L96 9.53475L104.033 15.4458L100.957 25L108.991 19.0889L117.024 25L113.966 15.4466L122 9.55335Z" fill="#00B67A"/>
<path d="M114.571 17.85L113.89 15.625L109 19.375L114.571 17.85Z" fill="#005128"/>
<path d="M154 9.55335H144.066L141.008 0L137.933 9.55335L128 9.53475L136.033 15.4458L132.957 25L140.991 19.0889L149.024 25L145.966 15.4466L154 9.55335Z" fill="#00B67A"/>
<path d="M146.571 17.85L145.89 15.625L141 19.375L146.571 17.85Z" fill="#005128"/>
</svg>
