<svg width="21" height="20" viewBox="0 0 21 20" fill="none" xmlns="http://www.w3.org/2000/svg">
<path d="M8.76293 0.00878906H9.85589C10.0453 0.0512124 10.2387 0.0757381 10.4333 0.0820008C11.746 0.251177 12.9944 0.721615 14.0683 1.45185C15.3337 2.2925 16.3268 3.44658 16.9376 4.78607C17.8608 6.73872 17.9281 8.95525 17.125 10.9544C16.8228 11.7466 16.3815 12.4854 15.8193 13.1401C15.7331 13.2407 15.7256 13.3024 15.8315 13.3933C15.9946 13.5388 16.1418 13.7002 16.3002 13.8555C17.7256 15.2856 19.151 16.7157 20.5764 18.1459C20.7419 18.2896 20.8595 18.4755 20.9147 18.681C20.97 18.8865 20.9605 19.1026 20.8876 19.3031C20.8224 19.4763 20.7125 19.6315 20.5677 19.7547C20.4228 19.8779 20.2477 19.9653 20.058 20.0088H19.6531C19.3183 19.8839 19.0247 19.6779 18.802 19.4116C17.2866 17.8827 15.769 16.3579 14.2492 14.8372C14.1555 14.742 14.0908 14.7023 13.954 14.7914C12.5782 15.6871 10.9429 16.1629 9.27002 16.1544C7.59709 16.1459 5.96743 15.6534 4.60203 14.7437C3.31575 13.8974 2.30587 12.7302 1.68594 11.3733C1.01252 9.94483 0.794973 8.36289 1.05979 6.82012C1.31344 5.20198 2.09151 3.69691 3.28785 2.51033C4.46299 1.30854 6.01194 0.487282 7.7131 0.164032C8.0571 0.0908202 8.41329 0.0775903 8.76293 0.00878906ZM9.34033 2.11781C8.07983 2.08186 6.83658 2.40044 5.76948 3.03284C4.70239 3.66525 3.85995 4.58274 3.34984 5.66802C2.83974 6.75331 2.68513 7.9571 2.90582 9.12549C3.12652 10.2939 3.71246 11.3738 4.58875 12.2272C5.46505 13.0806 6.59188 13.6687 7.8252 13.9163C9.05852 14.164 10.3423 14.0599 11.5124 13.6174C12.6825 13.1749 13.6859 12.4141 14.3941 11.4322C15.1024 10.4503 15.4834 9.29198 15.4884 8.10529C15.5143 6.54466 14.8815 5.03805 13.7289 3.91569C12.5762 2.79334 10.9987 2.14681 9.34033 2.11781Z" fill="#ECECEC"/>
</svg>
