<svg width="25" height="26" viewBox="0 0 25 26" fill="none" xmlns="http://www.w3.org/2000/svg">
<path d="M2.70239 21.3338C1.11537 19.3846 0.182798 17.0001 0.0330972 14.5088C0.0330972 14.4397 0.011584 14.3707 0 14.3008V13.0569C0.0149899 12.9948 0.0260435 12.9318 0.0330972 12.8684C0.0546751 12.4349 0.107208 12.0035 0.190309 11.5773C0.536291 9.53181 1.40994 7.60739 2.728 5.98741C4.04606 4.36743 5.76462 3.10587 7.71993 2.32294C9.14073 1.71755 10.6724 1.4032 12.2212 1.39912C12.3866 1.39912 12.4338 1.34875 12.4247 1.19031C12.4106 0.918125 12.4247 0.645125 12.4156 0.377812C12.4045 0.240856 12.4488 0.10512 12.5389 0L12.7366 0C13.5398 0.645125 14.3416 1.29106 15.142 1.93781C15.2154 1.98049 15.2764 2.04104 15.3191 2.11361C15.3617 2.18618 15.3846 2.26832 15.3855 2.35211C15.3865 2.4359 15.3654 2.5185 15.3243 2.59195C15.2832 2.6654 15.2236 2.72722 15.1511 2.77144C14.4241 3.38569 13.694 3.9975 12.9609 4.60687C12.9308 4.63183 12.8993 4.65516 12.8666 4.67675C12.6473 4.82137 12.4735 4.74419 12.4603 4.48744C12.4454 4.19575 12.4388 3.90325 12.4504 3.614C12.457 3.42306 12.409 3.35969 12.2021 3.37025C10.6804 3.4031 9.18504 3.76686 7.82367 4.43533C6.46231 5.1038 5.26882 6.06035 4.32912 7.23612C2.72202 9.15846 1.89827 11.5979 2.01728 14.0822C2.10804 16.4042 2.9927 18.6284 4.52856 20.3961C6.06441 22.1639 8.16192 23.372 10.4827 23.8257C12.9167 24.3025 15.4441 23.9073 17.6069 22.7118C17.7219 22.6383 17.8509 22.5886 17.9862 22.5657C18.1214 22.5429 18.2599 22.5474 18.3933 22.5789C18.5267 22.6104 18.6521 22.6684 18.762 22.7491C18.8718 22.8299 18.9636 22.9318 19.032 23.0487C19.1003 23.1655 19.1436 23.2948 19.1593 23.4287C19.1749 23.5625 19.1626 23.6981 19.1231 23.8271C19.0836 23.9561 19.0177 24.0759 18.9294 24.179C18.8411 24.2822 18.7324 24.3666 18.6097 24.427C17.6133 24.9783 16.5441 25.3917 15.4324 25.6555C14.4643 25.8834 13.4724 25.999 12.4768 26C10.5939 26.0012 8.73528 25.5818 7.04182 24.7733C5.34837 23.9649 3.86444 22.7887 2.70239 21.3338ZM20.2952 22.5062C20.1512 22.4418 20.0247 22.3449 19.9259 22.2235C19.8272 22.1021 19.7589 21.9595 19.7267 21.8074C19.6944 21.6552 19.6992 21.4977 19.7404 21.3477C19.7817 21.1977 19.8584 21.0593 19.9643 20.9438C20.1223 20.7716 20.2812 20.5977 20.445 20.4311C20.6206 20.2349 20.8683 20.1152 21.1337 20.0984C21.3991 20.0816 21.6605 20.1689 21.8603 20.3413C22.0601 20.5137 22.182 20.757 22.1992 21.0176C22.2163 21.2783 22.1273 21.5349 21.9517 21.7311C21.7786 21.9431 21.5909 22.1432 21.3899 22.3299C21.2141 22.5029 20.9768 22.6023 20.728 22.607C20.5781 22.604 20.4306 22.5696 20.2952 22.5062ZM14.5272 21.3939L6.32902 18.6477C6.07086 18.5607 6.03032 18.4803 6.1172 18.2268C6.21318 17.9457 6.30999 17.6646 6.41011 17.3834C6.48458 17.1771 6.57559 17.1234 6.78659 17.2063C6.95207 17.2754 7.00834 17.2201 7.05799 17.0666C7.2061 16.6042 7.37489 16.1484 7.52797 15.6853C7.61669 15.3716 7.79305 15.0885 8.03711 14.8681C8.28116 14.6477 8.58317 14.4987 8.90895 14.4381C9.67763 14.2691 10.4447 14.0969 11.2142 13.9327C11.2735 13.9229 11.329 13.8973 11.3746 13.8588C11.4202 13.8203 11.4543 13.7703 11.4732 13.7142C11.5347 13.6038 11.5558 13.4761 11.5329 13.3523C11.51 13.2285 11.4445 13.1162 11.3474 13.0341C10.8261 12.4589 10.3479 11.8479 9.83402 11.2669C9.6582 11.0852 9.53767 10.8587 9.48606 10.6132C9.43444 10.3677 9.4538 10.1128 9.54193 9.87756C9.76038 9.22756 9.97964 8.57756 10.2097 7.92756C10.261 7.78456 10.2395 7.72687 10.0897 7.68381C9.85305 7.61394 9.81581 7.52131 9.89277 7.29056C9.9904 7.00212 10.0872 6.7145 10.1898 6.42687C10.2626 6.22294 10.3553 6.17825 10.5679 6.24975C13.3261 7.17058 16.0842 8.09358 18.8423 9.01875C19.0508 9.08781 19.0996 9.18531 19.0317 9.39087C18.9333 9.685 18.8315 9.97831 18.7272 10.2724C18.6528 10.4804 18.5618 10.5316 18.3516 10.4496C18.1861 10.3846 18.1323 10.4317 18.0819 10.5893C17.8998 11.1418 17.6996 11.6902 17.5142 12.2419C17.4239 12.5561 17.246 12.8392 17.0005 13.0593C16.755 13.2794 16.4518 13.4277 16.125 13.4875C15.3621 13.6541 14.6008 13.8271 13.838 13.9864C13.7757 13.9975 13.7178 14.0251 13.6704 14.0662C13.623 14.1073 13.5879 14.1603 13.569 14.2196C13.5105 14.3285 13.4913 14.4538 13.5148 14.5749C13.5382 14.6959 13.6029 14.8056 13.6981 14.8858C14.226 15.4708 14.7159 16.0899 15.2347 16.6822C15.4012 16.859 15.5148 17.0775 15.5632 17.3135C15.6115 17.5496 15.5926 17.7942 15.5085 18.0204C15.3199 18.5995 15.1241 19.1755 14.9211 19.7486C14.8756 19.8794 14.902 19.9282 15.0303 19.968C15.2934 20.0492 15.3249 20.1305 15.2371 20.3881C15.1387 20.6765 15.0386 20.9641 14.9409 21.2517C14.9273 21.3065 14.8955 21.3552 14.8506 21.3902C14.8056 21.4252 14.7501 21.4446 14.6927 21.4451C14.6406 21.4289 14.5826 21.4142 14.5272 21.3956V21.3939ZM10.9924 8.16725C10.793 8.77662 10.5886 9.386 10.3661 9.98562C10.3032 10.1269 10.2854 10.2835 10.315 10.4349C10.3445 10.5863 10.42 10.7254 10.5315 10.8339C11.1463 11.5253 11.7321 12.2419 12.3329 12.9464C12.3961 13.0126 12.4389 13.0951 12.4562 13.1843C12.4735 13.2735 12.4646 13.3657 12.4305 13.4501C12.3273 13.7367 12.2286 14.0243 12.1343 14.313C12.1082 14.4031 12.056 14.4838 11.984 14.5453C11.912 14.6067 11.8233 14.6463 11.7288 14.6591C10.8559 14.8444 9.99123 15.0442 9.11581 15.2279C8.92678 15.2588 8.75069 15.3421 8.60833 15.4681C8.46597 15.5941 8.36328 15.7574 8.31237 15.9388C8.15433 16.4198 7.98636 16.8951 7.81591 17.3696C7.77123 17.4956 7.79605 17.5419 7.92596 17.5857C9.92614 18.2504 11.9255 18.9185 13.924 19.5902L14.0291 19.6259C14.1118 19.6259 14.1118 19.5682 14.1292 19.5203C14.3228 18.9581 14.5131 18.3934 14.7084 17.8319C14.7536 17.7175 14.7641 17.5927 14.7385 17.4726C14.713 17.3525 14.6525 17.2422 14.5644 17.1551C13.9439 16.4434 13.3423 15.7154 12.7267 14.9996C12.6558 14.9271 12.6081 14.8359 12.5896 14.7371C12.571 14.6383 12.5825 14.5363 12.6225 14.4438C12.7168 14.2001 12.8128 13.9474 12.8823 13.6922C12.9082 13.576 12.9706 13.4707 13.0607 13.3911C13.1508 13.3115 13.2641 13.2617 13.3845 13.2486C14.2268 13.0772 15.0634 12.8814 15.9032 12.7034C16.1021 12.6718 16.2874 12.5842 16.4366 12.4512C16.5858 12.3182 16.6926 12.1456 16.7439 11.9543C16.8846 11.5099 17.0467 11.0719 17.1957 10.6291C17.2486 10.4715 17.3885 10.2919 17.3281 10.1595C17.2619 10.0141 17.0236 10.0181 16.8597 9.96287C14.9793 9.33021 13.0982 8.69917 11.2167 8.06975C11.1814 8.05618 11.1443 8.04796 11.1066 8.04537C11.0561 8.04375 11.0222 8.07706 10.9924 8.16725ZM21.9824 18.1066C22.075 17.8579 22.1818 17.6142 22.2984 17.3753C22.41 17.1529 22.603 16.9801 22.8388 16.8915C23.0746 16.8029 23.3358 16.805 23.57 16.8975C23.8043 16.99 23.9943 17.1659 24.102 17.3901C24.2098 17.6143 24.2273 17.8702 24.1511 18.1066C24.0557 18.3813 23.9398 18.6488 23.8044 18.9069C23.7328 19.0555 23.6217 19.1824 23.4827 19.2741C23.3438 19.3657 23.1822 19.4188 23.015 19.4277C22.8474 19.4394 22.6794 19.4101 22.5261 19.3425C22.3728 19.2748 22.239 19.1709 22.1367 19.04C22.0343 18.909 21.9667 18.7552 21.9398 18.5924C21.9128 18.4295 21.9275 18.2625 21.9824 18.1066ZM23.8515 15.7105C23.5925 15.6911 23.3517 15.5723 23.1813 15.3797C23.0109 15.1872 22.9247 14.9364 22.9414 14.6819C22.9496 14.443 22.967 14.2041 22.9844 13.9652C22.999 13.7376 23.0945 13.5222 23.2541 13.3566C23.4137 13.1909 23.6275 13.0854 23.8581 13.0585C24.0988 13.0304 24.3417 13.0882 24.5426 13.2214C24.7434 13.3546 24.8887 13.5543 24.952 13.7841C24.9669 13.8409 24.9835 13.8954 25 13.9466V14.1806C24.9634 14.4032 24.9408 14.6279 24.9321 14.8533C24.902 15.0893 24.7855 15.3065 24.6043 15.4644C24.4232 15.6222 24.1897 15.71 23.9475 15.7113C23.9161 15.7135 23.8841 15.7129 23.8515 15.7097V15.7105ZM22.7692 11.4042C22.6089 11.0303 22.4958 10.6385 22.4325 10.2375C22.4281 10.0079 22.5059 9.78417 22.6522 9.60509C22.7985 9.42601 23.0042 9.30297 23.2333 9.25737C23.4625 9.21177 23.7006 9.24649 23.9064 9.3555C24.1122 9.46451 24.2725 9.6409 24.3596 9.854C24.4705 10.137 24.5536 10.4297 24.6078 10.7282C24.649 10.9555 24.6067 11.1897 24.4885 11.3892C24.3703 11.5887 24.1839 11.7406 23.9624 11.8178C23.7449 11.8959 23.5064 11.8973 23.288 11.8217C23.0696 11.7461 22.8847 11.5982 22.7651 11.4034L22.7692 11.4042ZM21.2526 7.99175C21.0871 7.78212 20.929 7.56681 20.7818 7.34175C20.6477 7.13866 20.5949 6.89399 20.6337 6.65497C20.6726 6.41594 20.8002 6.19951 20.9919 6.04744C21.1802 5.89158 21.4212 5.81091 21.6672 5.82145C21.9132 5.83198 22.1462 5.93295 22.32 6.10431C22.5628 6.35992 22.7713 6.64498 22.9405 6.95256C23.0069 7.07132 23.0392 7.20555 23.034 7.34094C23.0402 7.47375 23.0188 7.60641 22.9713 7.7309C22.9237 7.85538 22.851 7.9691 22.7574 8.06518C22.6638 8.16126 22.5513 8.2377 22.4268 8.28988C22.3022 8.34206 22.1682 8.36889 22.0328 8.36875C21.8826 8.36947 21.7342 8.33646 21.599 8.27225C21.4638 8.20804 21.3453 8.11432 21.2526 7.99825V7.99175ZM18.8249 5.44375C18.585 5.29775 18.353 5.13965 18.1298 4.97006C17.9682 4.84161 17.8513 4.66702 17.7952 4.47044C17.7391 4.27386 17.7466 4.06501 17.8166 3.8728C17.8867 3.68059 18.0159 3.51451 18.1863 3.39755C18.3567 3.28058 18.5599 3.21852 18.7678 3.21994C18.7876 3.21994 18.8067 3.21994 18.8274 3.21994C19.4223 3.36132 19.9384 3.7236 20.2671 4.23069C20.3483 4.42477 20.3642 4.63924 20.3125 4.84283C20.2609 5.04642 20.1444 5.22849 19.98 5.3625C19.8011 5.51233 19.5738 5.59497 19.3387 5.59569C19.1563 5.59378 18.9781 5.54109 18.8249 5.44375Z" fill="white"/>
</svg>
