<svg width="21" height="26" viewBox="0 0 21 26" fill="none" xmlns="http://www.w3.org/2000/svg">
<path d="M8.46092 25.5022L8.41869 25.4789L2.45701 21.8621C1.71343 21.4696 1.09047 20.8748 0.656897 20.1434C0.223328 19.4121 -0.00398406 18.5725 5.28478e-05 17.7175V4.32122C-0.000849377 3.97224 0.110268 3.63258 0.316381 3.35428C0.522495 3.07598 0.812237 2.87439 1.14122 2.78038L10.2559 0.0314315H10.2649C10.4192 -0.0104772 10.5816 -0.0104772 10.7359 0.0314315L10.7546 0.03641L19.8588 2.78038C20.1878 2.87439 20.4775 3.07598 20.6836 3.35428C20.8897 3.63258 21.0008 3.97224 20.9999 4.32122V17.7175C21.0043 18.5726 20.7771 19.4122 20.3435 20.1437C19.9099 20.8751 19.2867 21.4698 18.543 21.8621L12.5602 25.4905L12.5391 25.5013C11.9073 25.8291 11.2086 26 10.5 26C9.79136 26 9.09274 25.83 8.46092 25.5022ZM1.52946 4.25069C1.51436 4.25501 1.50105 4.26422 1.49153 4.27695C1.48201 4.28967 1.47679 4.30521 1.47666 4.32122V17.7175C1.47387 18.2956 1.62829 18.8632 1.92272 19.3569C2.21714 19.8506 2.63999 20.2511 3.14415 20.5137L3.18638 20.537L9.14644 24.1522C9.56702 24.3662 10.0305 24.4777 10.5004 24.4777C10.9703 24.4777 11.4338 24.3662 11.8544 24.1522L17.8347 20.5253L17.855 20.5146C18.3594 20.2521 18.7825 19.8517 19.0771 19.3579C19.3716 18.8642 19.5261 18.2965 19.5233 17.7183V4.32122C19.5232 4.30521 19.518 4.28967 19.5085 4.27695C19.4989 4.26422 19.4856 4.25501 19.4705 4.25069L19.4519 4.24571L10.5004 1.54572L1.52946 4.25069ZM4.17648 12.471C4.18946 11.196 4.57142 9.95342 5.27428 8.89973C5.97713 7.84605 6.96944 7.02836 8.12627 6.54964C9.28309 6.07092 10.5527 5.95257 11.7752 6.20948C12.9978 6.46639 14.1186 7.08709 14.9965 7.99341C15.8744 8.89973 16.4702 10.0512 16.7089 11.3027C16.9476 12.5542 16.8184 13.8499 16.3377 15.0267C15.857 16.2034 15.0463 17.2085 14.0075 17.9154C12.9688 18.6224 11.7485 18.9995 10.5004 18.9994C8.81475 18.9889 7.20205 18.2956 6.01628 17.0716C4.8305 15.8476 4.16853 14.193 4.17566 12.471H4.17648ZM5.65309 12.471C5.66319 13.4483 5.9561 14.4007 6.49496 15.2083C7.03382 16.0159 7.79452 16.6425 8.68129 17.0094C9.56805 17.3762 10.5412 17.4668 11.4783 17.2698C12.4154 17.0728 13.2744 16.5969 13.9473 15.9021C14.6202 15.2073 15.0768 14.3247 15.2597 13.3654C15.4426 12.406 15.3435 11.4129 14.975 10.5109C14.6064 9.60899 13.9849 8.83859 13.1887 8.29675C12.3925 7.75491 11.4571 7.46585 10.5004 7.46596C9.86036 7.46933 9.22723 7.60147 8.63719 7.85483C8.04714 8.10819 7.51172 8.47781 7.06152 8.94258C6.61132 9.40736 6.25515 9.95818 6.01335 10.5636C5.77155 11.169 5.64967 11.8171 5.65309 12.471ZM9.57935 14.6682H9.55904C9.54117 14.6682 9.52493 14.6632 9.50706 14.659L9.48188 14.6541L9.4364 14.6408L9.40878 14.6308L9.36817 14.6151L9.34056 14.6018C9.32756 14.596 9.31538 14.5902 9.30319 14.5827L9.27314 14.5644L9.23903 14.5429L9.20979 14.5213L9.17892 14.4956L9.15131 14.4707C9.14434 14.4648 9.13782 14.4585 9.13182 14.4516L7.81196 13.0908C7.67288 12.9473 7.59487 12.7534 7.59487 12.5515C7.59487 12.3495 7.67288 12.1557 7.81196 12.0121C7.88003 11.9411 7.96128 11.8847 8.05096 11.8462C8.14064 11.8077 8.23694 11.7879 8.33422 11.7879C8.4315 11.7879 8.5278 11.8077 8.61748 11.8462C8.70716 11.8847 8.78841 11.9411 8.85647 12.0121L9.66869 12.8527L12.1622 10.4721C12.233 10.4041 12.3164 10.3512 12.4074 10.3165C12.4985 10.2818 12.5954 10.266 12.6925 10.27C12.7896 10.274 12.885 10.2978 12.973 10.3399C13.061 10.382 13.1399 10.4416 13.2051 10.5153C13.3391 10.6641 13.41 10.8611 13.4024 11.0632C13.3948 11.2652 13.3093 11.4561 13.1645 11.5939L10.1528 14.4707C10.1471 14.4765 10.1398 14.4815 10.1341 14.4864L10.1065 14.5105L10.0764 14.5337L10.048 14.5537C10.0376 14.5608 10.0268 14.5671 10.0155 14.5727L9.98627 14.591L9.95134 14.6076C9.9416 14.6076 9.93185 14.6167 9.9221 14.6192C9.91236 14.6217 9.89692 14.6292 9.88393 14.6341C9.87093 14.6391 9.86525 14.6408 9.8555 14.6433C9.84575 14.6458 9.82707 14.6499 9.81327 14.6541L9.78809 14.6599L9.73936 14.6665H9.71986C9.69631 14.6665 9.67275 14.6665 9.65082 14.6665C9.62678 14.6685 9.60345 14.6691 9.57935 14.6682Z" fill="white"/>
</svg>
