<svg width="25" height="24" viewBox="0 0 25 24" fill="none" xmlns="http://www.w3.org/2000/svg">
<path d="M5.59758 23.9986C5.39869 23.9984 5.20242 23.9532 5.02319 23.8665C4.84397 23.7797 4.68637 23.6536 4.56206 23.4973C4.43774 23.3411 4.34986 23.1588 4.30491 22.9638C4.25996 22.7689 4.25908 22.5663 4.30234 22.371L5.91075 15.2737L0.454999 10.484C0.259082 10.3127 0.117597 10.0872 0.0481749 9.83561C-0.0212469 9.58399 -0.0155286 9.31735 0.064613 9.06898C0.144755 8.8206 0.295785 8.60147 0.49886 8.43887C0.701935 8.27628 0.948061 8.17742 1.20659 8.15463L8.42527 7.49835L11.2788 0.808663C11.3818 0.568524 11.5525 0.363984 11.7697 0.220283C11.9868 0.076582 12.2411 0 12.501 0C12.7609 0 13.0152 0.076582 13.2324 0.220283C13.4496 0.363984 13.6202 0.568524 13.7232 0.808663L16.5776 7.4992L23.7946 8.15548C24.0529 8.17864 24.2988 8.27769 24.5016 8.44034C24.7044 8.60298 24.8553 8.82202 24.9353 9.07023C25.0154 9.31844 25.0213 9.58487 24.9521 9.83638C24.8829 10.0879 24.7417 10.3134 24.5462 10.4848L19.0904 15.2746L20.6988 22.3718C20.7556 22.6268 20.7368 22.893 20.6448 23.1373C20.5528 23.3817 20.3916 23.5936 20.1811 23.7467C19.9706 23.8998 19.7202 23.9874 19.4607 23.9987C19.2012 24.0101 18.9442 23.9446 18.7213 23.8104L12.5014 20.082L6.27654 23.8104C6.07038 23.9338 5.83498 23.9991 5.59509 23.9995L5.59758 23.9986ZM12.5039 18.477C12.7438 18.4773 12.9792 18.5426 13.1854 18.666L19.0595 22.1844L17.5413 15.4863C17.4876 15.2523 17.4981 15.008 17.5716 14.7794C17.6452 14.5509 17.779 14.3468 17.9588 14.1889L23.1098 9.663L16.2945 9.04369C16.0552 9.02232 15.8261 8.93598 15.6316 8.79392C15.4372 8.65185 15.2847 8.45937 15.1905 8.23698L12.5006 1.92459L9.80737 8.23867C9.71325 8.46029 9.56105 8.65201 9.36704 8.79335C9.17303 8.9347 8.9445 9.02035 8.70587 9.04115L1.8897 9.66215L7.04067 14.1872C7.22082 14.3451 7.35485 14.5493 7.42841 14.7781C7.50197 15.0068 7.51228 15.2513 7.45823 15.4855L5.94166 22.1844L11.8158 18.666C12.022 18.5426 12.2574 18.4773 12.4973 18.477H12.5039Z" fill="white"/>
</svg>
