<svg width="92" height="28" viewBox="0 0 92 28" fill="none" xmlns="http://www.w3.org/2000/svg">
<path fill-rule="evenodd" clip-rule="evenodd" d="M20.4101 4.29884L13.4989 19.5439L8.85238 19.5492L4.91747 6.7799L4.59863 5.8178L4.62494 5.83145C4.64558 5.84199 4.66618 5.85293 4.68673 5.86356C5.39467 6.21929 8.53752 7.91914 10.4808 10.6729C10.7766 12.0734 11.0599 13.3456 11.4598 14.7179L15.7591 4.29883L20.4101 4.29884Z" fill="#272BC6"/>
<path fill-rule="evenodd" clip-rule="evenodd" d="M39.1071 14.5661C39.0747 17.7396 36.0817 19.7886 31.4675 19.7886C29.5009 19.7685 27.6042 19.4016 26.5742 18.9733L27.191 15.554L27.7582 15.8002C29.2029 16.3704 30.1345 16.5992 31.8924 16.5992C33.1554 16.5992 34.5058 16.1295 34.5153 15.1041C34.521 14.4349 33.9482 13.9599 32.2395 13.2118C30.576 12.4796 28.3705 11.2565 28.3986 9.06148C28.4197 6.09175 31.4791 4.02148 35.8165 4.02148C37.5152 4.02148 38.8755 4.35079 39.7475 4.66378L39.1523 7.97342L38.7543 7.79551C37.95 7.48781 36.9084 7.1893 35.4693 7.21051C33.755 7.21051 32.9562 7.89073 32.9562 8.5277C32.9506 9.23824 33.8878 9.71474 35.4201 10.42C37.9555 11.508 39.1295 12.8305 39.1071 14.5661Z" fill="#272BC6"/>
<path fill-rule="evenodd" clip-rule="evenodd" d="M51.0069 4.29884H47.6175C46.5651 4.29884 45.7764 4.57049 45.3192 5.56895L38.7988 19.564H43.4058C43.4058 19.564 44.1605 17.6823 44.3329 17.2687C44.8336 17.2687 49.315 17.2794 49.9541 17.2794C50.0813 17.8135 50.4833 19.564 50.4833 19.564H54.5571L51.0069 4.29884ZM45.594 14.1477C46.3828 12.2474 47.1738 10.3335 47.9251 8.4184C48.3571 10.3293 48.7989 12.2381 49.2374 14.1477H45.594Z" fill="#272BC6"/>
<path fill-rule="evenodd" clip-rule="evenodd" d="M22.186 4.2832H26.5741L23.8284 19.5591H19.4414L22.186 4.2832Z" fill="#272BC6"/>
<path fill-rule="evenodd" clip-rule="evenodd" d="M5.71619e-06 4.14844L7.425 4.15338C8.34051 4.1841 9.07848 4.461 9.33808 5.39122L10.4813 10.6731C8.53806 7.91935 5.3952 6.21951 4.68726 5.86378C4.66671 5.85315 4.6464 5.84241 4.62576 5.83186C4.50742 5.77031 4.38748 5.70951 4.2667 5.6501C2.9698 5.01178 1.53548 4.49992 5.71619e-06 4.14844Z" fill="#FAA841"/>
<g clip-path="url(#clip0_97_56404)">
<path d="M63.4671 27.9428V26.0821C63.4671 25.3685 63.051 24.9035 62.3681 24.9035C62.0095 24.9035 61.6257 25.0278 61.3582 25.4277C61.1501 25.0862 60.856 24.9035 60.4077 24.9035C60.241 24.896 60.0752 24.9318 59.9249 25.0075C59.7747 25.0833 59.6449 25.1968 59.5469 25.3378V24.9634H58.9824V27.9406H59.5469V26.2371C59.5469 25.713 59.8439 25.4621 60.26 25.4621C60.676 25.4621 60.9134 25.7414 60.9134 26.2371V27.9428H61.4779V26.2371C61.4779 25.713 61.7749 25.4621 62.191 25.4621C62.607 25.4621 62.8444 25.7414 62.8444 26.2371V27.9428H63.4671ZM72.7361 24.9964H71.696V24.0979H71.133V24.9964H70.539V25.5205H71.133V26.9192C71.133 27.6014 71.3704 28.005 72.0834 28.005C72.3535 27.9991 72.6182 27.9246 72.8545 27.7878L72.6759 27.2637C72.5156 27.3683 72.3297 27.4221 72.1408 27.4187C71.8438 27.4187 71.6953 27.2322 71.6953 26.9222V25.4966H72.7354V25.0001L72.7361 24.9964ZM78.0242 24.9035C77.8704 24.9 77.7184 24.9381 77.583 25.0142C77.4475 25.0903 77.3334 25.2018 77.2516 25.3378V24.9634H76.6871V27.9406H77.2516V26.2686C77.2516 25.7721 77.489 25.4621 77.8757 25.4621C78.0061 25.4677 78.1356 25.4885 78.2616 25.5243L78.4402 24.9657C78.304 24.9298 78.1645 24.909 78.0242 24.9035ZM70.0326 25.2135C69.7356 24.9964 69.3196 24.9035 68.8741 24.9035C68.1611 24.9035 67.7157 25.245 67.7157 25.8343C67.7157 26.3307 68.0428 26.6093 68.6661 26.7029L68.9631 26.7336C69.2902 26.7957 69.4982 26.92 69.4982 27.075C69.4982 27.2921 69.2608 27.4494 68.8146 27.4494C68.4739 27.4567 68.1403 27.3479 67.8642 27.1394L67.5672 27.6044C67.9832 27.9144 68.4882 27.9788 68.7866 27.9788C69.6187 27.9788 70.0642 27.5759 70.0642 27.0173C70.0642 26.4932 69.7055 26.2424 69.0836 26.1488L68.7866 26.1181C68.5191 26.0874 68.2845 25.9938 68.2845 25.8081C68.2845 25.5909 68.5219 25.4337 68.849 25.4337C69.2077 25.4337 69.562 25.5887 69.7407 25.6815L70.0326 25.2135ZM78.6482 26.4543C78.6482 27.3528 79.2127 28.005 80.1338 28.005C80.5498 28.005 80.8468 27.9121 81.1437 27.6635L80.8468 27.1985C80.6365 27.3763 80.3749 27.4747 80.1044 27.4778C79.6022 27.4778 79.2127 27.075 79.2127 26.4857C79.2127 25.8964 79.5972 25.4966 80.1044 25.4966C80.3749 25.4997 80.6365 25.5981 80.8468 25.7759L81.1437 25.3109C80.8468 25.063 80.5498 24.9694 80.1338 24.9694C79.2422 24.9073 78.6482 25.5587 78.6482 26.458V26.4543ZM74.6671 24.9035C73.8351 24.9035 73.2705 25.5235 73.2705 26.4543C73.2705 27.385 73.8645 28.005 74.726 28.005C75.1451 28.0142 75.5543 27.8719 75.8844 27.6021L75.5875 27.1678C75.3487 27.3609 75.0573 27.4695 74.7554 27.4778C74.3695 27.4778 73.9534 27.23 73.8946 26.7029H76.0042V26.455C76.0042 25.5243 75.4691 24.9043 74.6671 24.9043V24.9035ZM74.6377 25.4621C75.0538 25.4621 75.3507 25.7414 75.3801 26.2064H73.8358C73.9247 25.7721 74.1944 25.4621 74.6377 25.4621ZM66.9431 26.4543V24.9657H66.3786V25.3401C66.1706 25.0608 65.8765 24.9058 65.4576 24.9058C64.6556 24.9058 64.061 25.5572 64.061 26.4565C64.061 27.3558 64.6549 28.0072 65.4576 28.0072C65.8736 28.0072 66.1706 27.8522 66.3786 27.5729V27.9473H66.9431V26.4543ZM64.6556 26.4543C64.6556 25.8957 64.9827 25.4621 65.5473 25.4621C66.0824 25.4621 66.408 25.8964 66.408 26.4543C66.408 27.0435 66.0494 27.4464 65.5473 27.4464C64.9827 27.4771 64.6556 27.0121 64.6556 26.4543ZM86.6111 24.9035C86.4573 24.9 86.3053 24.9381 86.1699 25.0142C86.0345 25.0903 85.9203 25.2018 85.8385 25.3378V24.9634H85.274V27.9406H85.8378V26.2686C85.8378 25.7721 86.0753 25.4621 86.4619 25.4621C86.5924 25.4677 86.7218 25.4885 86.8478 25.5243L87.0264 24.9657C86.8902 24.9298 86.7508 24.909 86.6104 24.9035H86.6111ZM84.4125 26.4543V24.9657H83.848V25.3401C83.64 25.0608 83.3459 24.9058 82.927 24.9058C82.125 24.9058 81.5304 25.5572 81.5304 26.4565C81.5304 27.3558 82.1243 28.0072 82.927 28.0072C83.343 28.0072 83.64 27.8522 83.848 27.5729V27.9473H84.4125V26.4543ZM82.125 26.4543C82.125 25.8957 82.4521 25.4621 83.0166 25.4621C83.5518 25.4621 83.8774 25.8964 83.8774 26.4543C83.8774 27.0435 83.5188 27.4464 83.0166 27.4464C82.4521 27.4771 82.125 27.0121 82.125 26.4543ZM90.1467 26.4543V23.7871H89.5822V25.3378C89.3742 25.0585 89.0801 24.9035 88.6612 24.9035C87.8592 24.9035 87.2646 25.555 87.2646 26.4543C87.2646 27.3535 87.8585 28.005 88.6612 28.005C89.0772 28.005 89.3742 27.85 89.5822 27.5707V27.9451H90.1467V26.4543ZM87.8592 26.4543C87.8592 25.8957 88.1863 25.4621 88.7508 25.4621C89.2859 25.4621 89.6116 25.8964 89.6116 26.4543C89.6116 27.0435 89.2529 27.4464 88.7508 27.4464C88.1856 27.4778 87.8585 27.0128 87.8585 26.4543H87.8592Z" fill="#BFBEBE"/>
<path d="M79.6861 2.38867H69.377V19.9415H79.6861V2.38867Z" fill="#FF5F00"/>
<path d="M70.4181 11.1643C70.4185 9.4757 70.7848 7.80907 71.4896 6.28919C72.1944 4.76931 73.2195 3.43558 74.4881 2.38786C72.9105 1.09301 71.0156 0.287663 69.0202 0.063882C67.0247 -0.159899 65.0092 0.206917 63.2041 1.1224C61.3989 2.03788 59.8769 3.46508 58.8121 5.24086C57.7473 7.01664 57.1826 9.06933 57.1826 11.1643C57.1826 13.2593 57.7473 15.312 58.8121 17.0877C59.8769 18.8635 61.3989 20.2907 63.2041 21.2062C65.0092 22.1217 67.0247 22.4885 69.0202 22.2647C71.0156 22.0409 72.9105 21.2356 74.4881 19.9407C73.2195 18.893 72.1944 17.5593 71.4896 16.0394C70.7848 14.5195 70.4185 12.8529 70.4181 11.1643Z" fill="#EB001B"/>
<path d="M91.8087 11.1651C91.8101 13.2585 91.2471 15.3101 90.1841 17.0852C89.121 18.8603 87.6008 20.2873 85.7973 21.2029C83.9938 22.1185 81.9799 22.4858 79.9858 22.2627C77.9918 22.0396 76.0981 21.2352 74.5215 19.9415C75.7904 18.894 76.8157 17.5604 77.5206 16.0404C78.2255 14.5205 78.5916 12.8537 78.5916 11.1651C78.5916 9.47638 78.2255 7.80961 77.5206 6.28968C76.8157 4.76974 75.7904 3.43607 74.5215 2.38862C76.0981 1.09489 77.9918 0.290483 79.9858 0.0674117C81.9799 -0.15566 83.9938 0.211606 85.7973 1.1272C87.6008 2.0428 89.121 3.46977 90.1841 5.24489C91.2471 7.02001 91.8101 9.07161 91.8087 11.1651Z" fill="#F79E1B"/>
</g>
<defs>
<clipPath id="clip0_97_56404">
<rect width="34.611" height="28.0043" fill="white" transform="translate(57.1973)"/>
</clipPath>
</defs>
</svg>
