<svg width="66" height="28" viewBox="0 0 66 28" fill="none" xmlns="http://www.w3.org/2000/svg">
<path fill-rule="evenodd" clip-rule="evenodd" d="M66 14.4655C66 9.68031 63.7272 5.90327 59.3809 5.90327C55.0186 5.90327 52.3772 9.67951 52.3772 14.4273C52.3772 20.0541 55.4938 22.8952 59.9671 22.8952C62.1489 22.8952 63.7991 22.3911 65.0455 21.6805V17.9416C63.7991 18.5775 62.3692 18.9695 60.5539 18.9695C58.7755 18.9695 57.1988 18.3336 56.9971 16.1284H65.961C65.961 15.8845 65.9976 14.9135 65.9976 14.4647L66 14.4655ZM56.951 12.6905C56.951 10.578 58.2157 9.69979 59.3713 9.69979C60.4893 9.69979 61.6817 10.578 61.6817 12.6905H56.951ZM45.3099 5.90486C43.5132 5.90486 42.3592 6.76434 41.7162 7.36284L41.4771 6.20421H37.4361V28L42.0194 27.0097L42.0377 21.7194C42.6979 22.2056 43.6693 22.8968 45.2836 22.8968C48.5651 22.8968 51.5534 20.2136 51.5534 14.2793C51.5351 8.85819 48.5102 5.90406 45.3011 5.90406L45.3099 5.90486ZM44.2092 18.7848C43.1278 18.7848 42.4867 18.3922 42.0457 17.9066L42.0274 10.9707C42.5042 10.4283 43.1638 10.0552 44.2092 10.0552C45.8776 10.0552 47.0324 11.962 47.0324 14.4103C47.0324 16.9148 45.8959 18.7848 44.2092 18.7848ZM31.1303 4.80228L35.7319 3.79411V0L31.1303 0.990375V4.80228ZM31.1303 6.22289H35.7319V22.5789H31.1303V6.22289ZM26.1978 7.60514L25.9044 6.22289H21.944V22.5805H26.5273V11.4943C27.6086 10.0552 29.442 10.317 30.0107 10.5227V6.22369C29.4237 5.99927 27.28 5.58702 26.1978 7.60514ZM17.0314 2.15724L12.5583 3.13062L12.5398 18.1034C12.5398 20.8697 14.5751 22.9075 17.2883 22.9075C18.7916 22.9075 19.8912 22.6268 20.4966 22.2895V18.4946C19.9095 18.7385 17.0131 19.5972 17.0131 16.8309V10.2047H20.4966V6.22289H17.0115L17.0314 2.15724ZM4.63841 10.9618C4.63841 10.2323 5.22525 9.95342 6.19661 9.95342C7.78207 9.988 9.33828 10.3971 10.7423 11.1488V6.76514C9.22072 6.14716 7.71742 5.90565 6.19661 5.90565C2.47467 5.90565 0 7.8874 0 11.1959C0 16.3552 6.96706 15.5323 6.96706 17.7579C6.96706 18.6174 6.23321 18.8979 5.20694 18.8979C3.68534 18.8979 1.74181 18.262 0.201911 17.4017V21.8496C1.90692 22.5976 3.63103 22.9067 5.20694 22.9067C9.02059 22.9067 11.6427 20.9812 11.6427 17.6351C11.6244 12.0652 4.63841 13.0556 4.63841 10.9618Z" fill="#635BFF"/>
</svg>
