<svg width="109" height="23" viewBox="0 0 109 23" fill="none" xmlns="http://www.w3.org/2000/svg">
<mask id="mask0_97_56438" style="mask-type:luminance" maskUnits="userSpaceOnUse" x="0" y="0" width="109" height="23">
<path d="M108.79 0H0V23H108.79V0Z" fill="white"/>
</mask>
<g mask="url(#mask0_97_56438)">
<path d="M39.4179 9.11339C39.317 9.16952 39.1926 9.192 39.0785 9.16952C38.9658 9.14704 38.8532 9.09091 38.7903 9.001C38.4391 8.55157 37.9739 8.19193 37.434 7.9448C36.8941 7.69754 36.2797 7.57398 35.6769 7.59646C33.3038 7.59646 31.8363 9.28191 31.8363 11.6864C31.8363 14.0909 33.317 15.81 35.7017 15.81C36.3177 15.8213 36.9322 15.6976 37.4852 15.4391C38.0368 15.1807 38.502 14.7987 38.84 14.3381C38.9029 14.2482 39.0039 14.1919 39.1297 14.1695C39.2423 14.1471 39.3682 14.1583 39.4677 14.2144L40.5986 14.7987C40.6615 14.8212 40.7113 14.8661 40.761 14.9111C40.8122 14.9561 40.8371 15.0122 40.8488 15.0796C40.862 15.1359 40.862 15.2032 40.8488 15.2594C40.8371 15.3156 40.8122 15.383 40.7742 15.428C40.2211 16.1695 39.4677 16.7762 38.5898 17.1807C37.7105 17.5853 36.7186 17.7875 35.7266 17.765C31.9241 17.765 29.3506 15.2931 29.3506 11.6976C29.3506 8.10215 31.9241 5.66389 35.6769 5.66389C36.6557 5.64141 37.6228 5.83241 38.5021 6.2144C39.3799 6.6077 40.1333 7.18068 40.7112 7.88867C40.7493 7.9335 40.7742 7.98976 40.7991 8.04589C40.8122 8.10215 40.8122 8.15828 40.7991 8.22571C40.7859 8.28184 40.761 8.3381 40.723 8.39423C40.6864 8.45036 40.6352 8.48414 40.5854 8.51779L39.4179 9.11339Z" fill="#01D34C"/>
<path fill-rule="evenodd" clip-rule="evenodd" d="M47.7304 16.6171V17.1115C47.7304 17.1678 47.742 17.2239 47.7683 17.28C47.7932 17.3363 47.8313 17.3813 47.881 17.4149C47.9308 17.4599 47.9805 17.4823 48.0434 17.5048C48.1063 17.5273 48.1693 17.5385 48.2322 17.5273H49.4758C49.5372 17.5273 49.6001 17.516 49.6513 17.4936C49.7142 17.4712 49.764 17.4374 49.802 17.4037C49.8518 17.3588 49.8766 17.3138 49.9015 17.2689C49.9264 17.2127 49.9395 17.1565 49.9395 17.1115V11.5498C49.9395 9.53858 48.3448 8.70703 46.0727 8.70703C44.8057 8.70703 43.5504 8.98794 42.4194 9.52728C42.3068 9.58341 42.2321 9.67332 42.1941 9.77453C42.156 9.87562 42.1692 9.98801 42.219 10.0891L42.6213 10.8531C42.6462 10.9093 42.6842 10.9543 42.734 10.9879C42.7837 11.0217 42.8349 11.0554 42.8964 11.0666C42.9593 11.089 43.0222 11.089 43.0851 11.089C43.148 11.089 43.2109 11.0666 43.2607 11.0441C44.0639 10.6734 44.9564 10.4711 45.8591 10.4599C46.6506 10.4599 47.5796 10.6509 47.5796 11.3699C47.5796 12.1228 46.5628 12.2576 45.3075 12.415C45.2066 12.4261 45.1071 12.4374 45.0061 12.4486C43.7128 12.606 41.6045 12.9768 41.6045 15.0779C41.6045 16.7745 42.9724 17.7408 44.9432 17.7408C46.3111 17.7296 47.1407 17.3025 47.7304 16.6171ZM45.7845 13.7521C46.5379 13.6284 47.2153 13.5273 47.6045 13.2689V14.2576C47.6045 15.5498 46.5628 16.1116 45.445 16.1116C44.5409 16.1116 43.9264 15.7521 43.9264 14.988C43.9264 14.1565 44.6418 13.9431 45.4962 13.8082C45.5957 13.7857 45.6967 13.7632 45.7845 13.7521Z" fill="#01D34C"/>
<path d="M51.984 15.3367C52.0586 15.2579 52.1712 15.2018 52.297 15.1906C52.4229 15.1793 52.5487 15.2131 52.6365 15.2804C53.4265 15.8198 54.4068 16.1007 55.3973 16.0782C56.4273 16.0782 57.1808 15.7861 57.1808 15.0669C57.1808 14.4154 56.4902 14.2805 54.8077 14.0221C53.0257 13.7525 51.3182 13.2243 51.3182 11.4041C51.3182 9.50519 53.1515 8.70742 55.2349 8.70742C56.5399 8.68494 57.8201 9.06693 58.8633 9.77492C58.913 9.80857 58.9511 9.85353 58.9876 9.90966C59.014 9.96592 59.0388 10.0109 59.0388 10.0782C59.0388 10.1344 59.0388 10.1906 59.014 10.2468C58.9876 10.303 58.9628 10.3479 58.913 10.3929L58.3234 11.022C58.2473 11.1007 58.1347 11.1568 58.0088 11.1682C57.883 11.1793 57.7704 11.1457 57.6694 11.0894C56.9423 10.6063 56.0513 10.3591 55.1471 10.3704C54.2678 10.3704 53.5026 10.595 53.5026 11.2243C53.5026 11.9097 54.5824 12.0445 55.6621 12.213C57.9591 12.5726 59.428 13.1569 59.428 14.876C59.428 16.6738 57.8201 17.7861 55.2729 17.7861C53.8786 17.8198 52.5107 17.4266 51.4061 16.6625C51.3563 16.6288 51.3182 16.5839 51.2802 16.5276C51.2553 16.4828 51.2305 16.4265 51.2305 16.3704C51.2305 16.3141 51.2305 16.258 51.2553 16.2019C51.2802 16.1456 51.3051 16.1007 51.3431 16.0557L51.984 15.3367ZM60.834 17.1119V6.28046C60.834 6.22434 60.8457 6.16807 60.8706 6.11195C60.8969 6.05568 60.9335 6.01086 60.9716 5.97708C61.0213 5.93212 61.0725 5.90964 61.1223 5.88717C61.1852 5.86469 61.2481 5.85352 61.2978 5.85352H62.6658C62.9306 5.85352 63.1442 6.04451 63.1442 6.28046V9.97709C63.4822 9.57262 63.9342 9.24675 64.4361 9.02211C64.9511 8.79733 65.5158 8.69624 66.0806 8.70742C68.1025 8.70742 69.2949 9.99957 69.2949 11.8422V17.1119C69.2949 17.1682 69.2818 17.2243 69.2569 17.2693C69.232 17.3254 69.194 17.3703 69.1574 17.4041C69.1062 17.4491 69.0565 17.4716 69.0067 17.4939C68.9438 17.5164 68.8809 17.5277 68.8297 17.5277H67.4617C67.3359 17.5277 67.2115 17.4827 67.1237 17.4041C67.0345 17.3254 66.9847 17.2131 66.9847 17.1007V12.3141C66.9847 11.3928 66.6585 10.5614 65.3403 10.5614C64.0981 10.5614 63.1442 11.3478 63.1442 12.6513V17.1007C63.1442 17.2131 63.093 17.3254 63.0052 17.4041C62.9174 17.4827 62.7916 17.5277 62.6658 17.5277H61.2978C61.2349 17.5277 61.172 17.5164 61.1106 17.4939C61.0476 17.4716 60.9964 17.4378 60.9599 17.4041C60.9087 17.3592 60.8838 17.3142 60.8589 17.2693C60.8457 17.2243 60.834 17.1682 60.834 17.1119Z" fill="#01D34C"/>
<path fill-rule="evenodd" clip-rule="evenodd" d="M83.4068 14.6405L84.3988 17.2473C84.4236 17.3372 84.4866 17.4045 84.5626 17.4608C84.6372 17.5169 84.7382 17.5394 84.8377 17.5507H86.5334C86.608 17.5507 86.6841 17.5394 86.7587 17.5058C86.8216 17.472 86.8845 17.427 86.9343 17.3709C86.9855 17.3148 87.0103 17.2473 87.022 17.1799C87.0352 17.1125 87.022 17.045 86.9972 16.9776L82.529 6.14614C82.4909 6.06754 82.428 5.9888 82.3519 5.94384C82.2773 5.89902 82.1764 5.86523 82.0769 5.86523H79.8794C79.7784 5.86523 79.6906 5.88771 79.616 5.93267C79.5399 5.97762 79.4785 6.04506 79.4404 6.12366L74.9328 16.9664C74.9079 17.0339 74.8962 17.1013 74.9079 17.1686C74.9211 17.236 74.9459 17.3035 74.984 17.3597C75.0205 17.4158 75.0834 17.4608 75.1595 17.4944C75.2224 17.5282 75.297 17.5394 75.3731 17.5394H76.9796C77.0805 17.5394 77.18 17.5169 77.2561 17.4608C77.3307 17.4045 77.3936 17.3372 77.4317 17.2473L78.4236 14.6405H83.4068ZM79.0264 12.8204L80.9459 7.75285L82.7923 12.8204H79.0264ZM90.4251 10.0001V9.32591C90.4251 9.26978 90.4119 9.21352 90.3988 9.15739C90.3739 9.10126 90.3373 9.0563 90.2993 9.01135C90.2495 8.96639 90.1983 8.93261 90.1354 8.91013C90.0725 8.88779 90.0096 8.87648 89.9482 8.87648H88.5787C88.3154 8.87648 88.1018 9.06748 88.1018 9.30343V19.9439C88.1018 20.1798 88.3154 20.3708 88.5787 20.3708H89.9482C90.2115 20.3708 90.4251 20.1798 90.4251 19.9439V16.4158C90.7631 16.8429 91.2035 17.1799 91.7302 17.4045C92.2452 17.6293 92.8231 17.7417 93.3995 17.7192C96.0243 17.7192 97.7302 15.7529 97.7302 13.2024C97.7302 10.6517 96.036 8.70796 93.3995 8.70796C92.8231 8.68549 92.2452 8.79787 91.7302 9.02252C91.2152 9.236 90.7631 9.57317 90.4251 10.0001ZM95.2957 13.2024C95.2957 14.6855 94.529 15.9214 92.9226 15.9214C91.2912 15.9214 90.4368 14.6967 90.4368 13.2024C90.4368 11.7079 91.3278 10.517 92.9226 10.517C94.5173 10.517 95.2957 11.7192 95.2957 13.2024ZM101.484 10.0001V9.32591C101.484 9.26978 101.484 9.21352 101.46 9.15739C101.435 9.10126 101.397 9.0563 101.359 9.01135C101.309 8.96639 101.259 8.93261 101.196 8.91013C101.133 8.88779 101.07 8.87648 101.007 8.87648H99.6395C99.5137 8.87648 99.3878 8.92144 99.3001 9.00004C99.2123 9.07878 99.1625 9.19104 99.1625 9.30343V19.9439C99.1625 20.1798 99.3747 20.3708 99.6395 20.3708H101.007C101.271 20.3708 101.484 20.1798 101.484 19.9439V16.4158C101.824 16.8429 102.263 17.1799 102.789 17.4045C103.304 17.6293 103.882 17.7417 104.46 17.7192C107.095 17.7192 108.791 15.7529 108.791 13.2024C108.791 10.6517 107.095 8.70796 104.46 8.70796C103.882 8.68549 103.304 8.79787 102.789 9.02252C102.276 9.236 101.824 9.57317 101.484 10.0001ZM106.355 13.2024C106.355 14.6855 105.59 15.9214 103.982 15.9214C102.351 15.9214 101.498 14.6967 101.498 13.2024C101.498 11.7079 102.389 10.517 103.982 10.517C105.565 10.517 106.355 11.7192 106.355 13.2024Z" fill="#01D34C"/>
<path fill-rule="evenodd" clip-rule="evenodd" d="M16.7204 0C19.3071 0 20.5873 6.73859e-07 21.9933 0.393258C22.7467 0.640449 23.4241 1.02248 23.9889 1.52809C24.5536 2.03371 24.994 2.6404 25.2573 3.31461C25.6963 4.5618 25.6962 5.70791 25.6962 8.02248V14.9663C25.6962 17.2697 25.6963 18.427 25.2573 19.6742C24.9808 20.3484 24.5536 20.9551 23.9889 21.4607C23.4241 21.9664 22.7467 22.3596 21.9933 22.5955C20.6004 22.9888 19.3188 22.9888 16.7336 22.9888H8.95005C6.37653 22.9888 5.08318 22.9888 3.69034 22.5955C2.93687 22.3484 2.25948 21.9664 1.69328 21.4607C1.12854 20.9551 0.689622 20.3484 0.426271 19.6742C-0.000943337 18.427 -0.000976562 17.2922 -0.000976562 14.9663V8.0113C-0.000976562 5.70791 -0.00094979 4.55063 0.437969 3.30344C0.714487 2.62923 1.14171 2.02247 1.70645 1.51686C2.27119 1.01124 2.95003 0.617984 3.70204 0.382019C5.08317 0 6.37653 0 8.95005 0H16.7204Z" fill="#01D34C"/>
<path d="M13.4959 7.53989C14.7643 7.53989 15.9816 7.94436 16.9487 8.6747C17.0482 8.7533 17.174 8.79826 17.313 8.79826C17.4505 8.79826 17.5763 8.74213 17.6758 8.66339L18.6678 7.77585C18.719 7.73089 18.7556 7.67463 18.7804 7.6185C18.8068 7.56237 18.8185 7.49494 18.8185 7.43868C18.8185 7.37124 18.7936 7.31511 18.7687 7.25899C18.7439 7.20272 18.6927 7.1466 18.6429 7.11281C17.8646 6.51735 16.9604 6.06792 15.9948 5.78701L16.2962 4.47238C16.3079 4.40495 16.3079 4.33765 16.2962 4.27022C16.283 4.20278 16.2449 4.14652 16.1952 4.09039C16.1455 4.03426 16.0826 3.98931 16.0196 3.96683C15.9436 3.93305 15.8689 3.92188 15.7929 3.92188H13.885C13.7724 3.92188 13.6465 3.95553 13.5588 4.02296C13.471 4.09039 13.4081 4.1803 13.37 4.28139L13.1067 5.44998C10.558 5.56237 8.39853 6.68586 8.39853 9.00056C8.39853 11.0006 10.182 11.8545 12.065 12.4612C13.847 13.0567 14.7892 13.2702 14.7892 14.1129C14.7892 14.9443 13.847 15.4725 12.4541 15.4725C11.1111 15.495 9.80457 15.0342 8.82578 14.2028C8.72629 14.1129 8.60043 14.0679 8.46144 14.0679C8.32392 14.0679 8.19811 14.1129 8.09862 14.2028L7.03057 15.1353C6.98083 15.1803 6.9428 15.2252 6.91792 15.2815C6.89305 15.3376 6.87988 15.4051 6.87988 15.4612C6.87988 15.5286 6.89305 15.5847 6.91792 15.641C6.9428 15.6971 6.98083 15.7534 7.03057 15.787C7.89671 16.5174 8.9516 17.0342 10.106 17.2927L9.80453 18.5062C9.79283 18.5735 9.79283 18.6409 9.80453 18.7084C9.8177 18.7758 9.85574 18.8432 9.90548 18.8882C9.95523 18.9443 10.0182 18.9893 10.0811 19.0231C10.1572 19.0567 10.2318 19.0679 10.3079 19.0679H12.2274C12.3415 19.0679 12.4673 19.0342 12.5551 18.9668C12.6429 18.8994 12.7175 18.8095 12.7424 18.6972L13.0189 17.5399C16.0694 17.3713 17.9275 15.8994 17.9275 13.7534C17.9275 11.7759 16.0694 10.9443 13.8104 10.2589C12.5171 9.82081 11.3993 9.5399 11.3993 8.68587C11.4125 7.84315 12.4542 7.53989 13.4959 7.53989Z" fill="#FBFBFC"/>
</g>
</svg>
