<svg width="68" height="38" viewBox="0 0 68 38" fill="none" xmlns="http://www.w3.org/2000/svg">
<path d="M60.1835 6.64453H57.0299H42.4394H39.2857L37.1468 8.82699L30.2513 15.8838L28.1142 18.0663H24.9605H10.6354H7.48168L9.56681 15.8595L10.5556 14.8168L12.6407 12.6101H9.48704H5.42434H3.15368C1.41544 12.6101 0 13.9439 0 15.5443V21.2188V21.7524C0 23.3771 1.41544 24.6865 3.15368 24.6865H4.03487H37.1746H39.5528C41.2892 24.6865 43.6675 23.6923 44.8176 22.5041L50.3218 16.8296L60.1835 6.64453Z" fill="#016ECB"/>
<path d="M64.3784 0.0242859C66.1148 0.0242859 67.5321 1.35794 67.5321 2.9584V9.16644C67.5321 10.7912 66.1148 12.1007 64.3784 12.1007H62.668H58.0432H54.8914L57.0025 9.91827L58.0432 8.82696L60.1562 6.6445H39.2565L28.1128 18.042H7.34668L22.2321 2.76445L22.7942 2.18245C23.9704 0.994168 26.3486 0 28.085 0H28.8066H64.3784V0.0242859Z" fill="#FFDD00"/>
<path d="M67.5335 37.6853V36.788C67.5335 36.6667 67.4537 36.594 67.2664 36.594H66.6245C66.4371 36.594 66.3035 36.5697 66.2776 36.497C66.2238 36.4242 66.2238 36.2788 66.2238 36.0363V32.6413H67.2664C67.3461 32.6413 67.3999 32.617 67.4537 32.5686C67.5057 32.52 67.5335 32.4715 67.5335 32.3988V31.453C67.5335 31.3803 67.5057 31.3317 67.4537 31.2833C67.3999 31.2348 67.3461 31.2105 67.2664 31.2105H66.2238V29.9738C66.2238 29.9009 66.1959 29.8525 66.17 29.8283C66.1162 29.804 66.0624 29.7799 66.0104 29.7799H65.9826L64.4336 30.0222C64.352 30.0465 64.3 30.0708 64.2462 30.0951C64.1925 30.1435 64.1665 30.192 64.1665 30.2406V31.1862H63.1239C63.0441 31.1862 62.9903 31.2105 62.9365 31.2591C62.8827 31.3075 62.8568 31.356 62.8568 31.4287V32.2048C62.8568 32.2775 62.8827 32.3261 62.9365 32.3502C62.9903 32.3988 63.0441 32.4231 63.1239 32.4473L64.1665 32.5927V35.9877C64.1665 36.4001 64.2184 36.7396 64.3 37.0062C64.4058 37.273 64.5393 37.4671 64.7007 37.6125C64.8881 37.758 65.1014 37.855 65.3686 37.9036C65.6357 37.952 65.9566 37.9763 66.3036 37.9763C66.4909 37.9763 66.6505 37.9762 66.8119 37.952C66.9454 37.9278 67.1328 37.9036 67.3202 37.8793C67.4537 37.8793 67.5335 37.8066 67.5335 37.6853ZM61.9737 37.5641V36.5213C61.9737 36.4485 61.9478 36.4001 61.894 36.3758C61.8402 36.3515 61.7882 36.3272 61.7344 36.3272H61.7066C61.4673 36.3515 61.2261 36.3758 61.0128 36.3758C60.7976 36.4001 60.5045 36.4001 60.1297 36.4001C59.9962 36.4001 59.8366 36.3758 59.729 36.3272C59.5955 36.2788 59.4897 36.206 59.3821 36.109C59.2745 36.012 59.2226 35.8665 59.1688 35.6968C59.115 35.527 59.0872 35.3088 59.0872 35.042V34.0721C59.0872 33.8053 59.115 33.5871 59.1688 33.4172C59.2226 33.2476 59.3024 33.102 59.3821 33.0051C59.4897 32.9081 59.5955 32.8352 59.729 32.7868C59.8626 32.7383 59.9962 32.714 60.1297 32.714C60.5045 32.714 60.7976 32.714 61.0128 32.7383C61.2261 32.7625 61.4673 32.7625 61.7066 32.7868H61.7344C61.8142 32.7868 61.868 32.7625 61.894 32.7383C61.9478 32.714 61.9737 32.6656 61.9737 32.5927V31.55C61.9737 31.453 61.9478 31.4046 61.9218 31.3803C61.868 31.356 61.8142 31.3075 61.7066 31.2833C61.5192 31.2348 61.3059 31.2105 61.0128 31.1621C60.7178 31.1135 60.3969 31.1135 59.9962 31.1135C59.0872 31.1135 58.3674 31.356 57.8053 31.8653C57.271 32.3745 56.9761 33.102 56.9761 34.0721V35.042C56.9761 35.9877 57.2432 36.7396 57.8053 37.2487C58.3396 37.758 59.0872 38.0005 59.9962 38.0005C60.3709 38.0005 60.7178 37.9762 61.0128 37.952C61.3059 37.9036 61.5471 37.8793 61.7066 37.8307C61.8142 37.8066 61.868 37.7823 61.9218 37.7337C61.9737 37.7094 61.9737 37.6368 61.9737 37.5641ZM53.609 36.3272C53.4495 36.4001 53.2881 36.4485 53.1026 36.497C52.9152 36.5454 52.7278 36.5697 52.5405 36.5697C52.2733 36.5697 52.06 36.5455 51.9264 36.4728C51.7929 36.4001 51.7391 36.2545 51.7391 35.9877V35.8908C51.7391 35.7452 51.765 35.624 51.7929 35.527C51.8188 35.43 51.8986 35.333 51.9784 35.2602C52.06 35.1875 52.1936 35.1389 52.3271 35.0905C52.4607 35.0662 52.6481 35.042 52.8874 35.042H53.609V36.3272ZM55.6404 33.4901C55.6404 33.0535 55.5606 32.6899 55.427 32.3988C55.2935 32.1079 55.0801 31.8653 54.839 31.6712C54.5718 31.4773 54.2769 31.3317 53.904 31.2591C53.5292 31.1621 53.1026 31.1135 52.6481 31.1135C52.2196 31.1135 51.7929 31.1378 51.3922 31.1862C50.9896 31.2348 50.6705 31.2833 50.4293 31.356C50.2698 31.4046 50.1882 31.4773 50.1882 31.6228V32.5686C50.1882 32.6413 50.216 32.6899 50.242 32.7383C50.2958 32.7625 50.3496 32.7868 50.4034 32.7868H50.4553C50.5629 32.7868 50.6965 32.7625 50.8301 32.7625C50.9896 32.7625 51.151 32.7383 51.3384 32.7383C51.5257 32.7383 51.7391 32.714 51.9524 32.714C52.1658 32.714 52.3809 32.714 52.5665 32.714C52.8614 32.714 53.1026 32.7625 53.2621 32.8595C53.4217 32.9565 53.5293 33.1747 53.5293 33.5142V33.9265H52.8336C51.7391 33.9265 50.9098 34.0721 50.4293 34.3873C49.921 34.7025 49.6817 35.2118 49.6817 35.8908V35.9877C49.6817 36.3758 49.7337 36.691 49.8673 36.9335C50.0008 37.2003 50.1622 37.3943 50.3756 37.5641C50.5889 37.7095 50.8041 37.8307 51.0712 37.9036C51.3384 37.9762 51.6055 38.0005 51.8986 38.0005C52.2733 38.0005 52.6203 37.952 52.8874 37.855C53.1545 37.758 53.4216 37.6368 53.6888 37.4671V37.661C53.6888 37.7337 53.7166 37.7823 53.7704 37.8307C53.8242 37.8793 53.8762 37.9036 53.9578 37.9036H55.3992C55.4808 37.9036 55.5328 37.8793 55.5866 37.8307C55.6404 37.7823 55.6682 37.7337 55.6682 37.661V33.4901H55.6404ZM48.7728 37.6853V36.788C48.7728 36.6667 48.693 36.594 48.5056 36.594H47.8897C47.7042 36.594 47.5706 36.5697 47.5428 36.497C47.489 36.4242 47.489 36.2788 47.489 36.0363V32.6413H48.5316C48.6113 32.6413 48.6651 32.617 48.7189 32.5686C48.7727 32.52 48.7987 32.4715 48.7987 32.3988V31.453C48.7987 31.3803 48.7727 31.3317 48.7189 31.2833C48.6651 31.2348 48.6113 31.2105 48.5316 31.2105H47.489V29.9738C47.489 29.9009 47.463 29.8525 47.4352 29.8283C47.3833 29.804 47.3295 29.7799 47.2757 29.7799H47.2497L45.6988 30.0222C45.6191 30.0465 45.5653 30.0708 45.5115 30.0951C45.4577 30.1435 45.4317 30.192 45.4317 30.2406V31.1862H44.3891C44.3093 31.1862 44.2555 31.2105 44.2017 31.2591C44.1498 31.3075 44.122 31.356 44.122 31.4287V32.2048C44.122 32.2775 44.1498 32.3261 44.2017 32.3502C44.2555 32.3988 44.3093 32.4231 44.3891 32.4473L45.4317 32.5927V35.9877C45.4317 36.4001 45.4855 36.7396 45.5653 37.0062C45.6729 37.273 45.8064 37.4671 45.966 37.6125C46.1274 37.758 46.3667 37.855 46.6338 37.9036C46.9009 37.952 47.2219 37.9763 47.5706 37.9763C47.7561 37.9763 47.9175 37.9762 48.0771 37.952C48.2107 37.9278 48.398 37.9036 48.5854 37.8793C48.693 37.8793 48.7728 37.8066 48.7728 37.6853ZM43.161 37.661V33.781C43.161 33.4172 43.1332 33.0777 43.0534 32.7383C42.9996 32.4231 42.8661 32.132 42.7065 31.8895C42.5451 31.647 42.3058 31.453 42.0109 31.3317C41.7178 31.1862 41.343 31.1135 40.8625 31.1135C40.4618 31.1135 40.0871 31.1621 39.7662 31.2591C39.4453 31.356 39.1243 31.5016 38.7514 31.7441V31.453C38.7514 31.3803 38.7236 31.3317 38.6698 31.2833C38.616 31.2348 38.5641 31.2105 38.4825 31.2105H37.041C36.9594 31.2105 36.9075 31.2348 36.8537 31.2833C36.7999 31.3317 36.772 31.3803 36.772 31.453V37.661C36.772 37.7337 36.7999 37.7823 36.8537 37.8307C36.9075 37.8793 36.9594 37.9036 37.041 37.9036H38.59C38.6698 37.9036 38.7236 37.8793 38.7774 37.8307C38.8312 37.7823 38.8572 37.7337 38.8572 37.661V33.0777C39.0705 32.9808 39.2857 32.8838 39.499 32.8109C39.6864 32.7383 39.8997 32.714 40.0871 32.714C40.2745 32.714 40.434 32.7383 40.5676 32.7625C40.7012 32.7868 40.7809 32.8595 40.8625 32.9322C40.9423 33.0293 40.9683 33.1263 40.9961 33.2719C41.0221 33.4172 41.0221 33.5871 41.0221 33.781V37.661C41.0221 37.7337 41.048 37.7823 41.1018 37.8307C41.1556 37.8793 41.2095 37.9036 41.2892 37.9036H42.8401C42.9199 37.9036 42.9737 37.8793 43.0256 37.8307C43.1332 37.7823 43.161 37.7094 43.161 37.661ZM33.4328 34.9693C33.4328 35.915 33.0581 36.4001 32.2826 36.4001C31.9098 36.4001 31.6148 36.2788 31.4274 36.0363C31.2401 35.7938 31.1344 35.43 31.1344 34.9693V34.1448C31.1344 33.6597 31.2401 33.3203 31.4274 33.0777C31.6148 32.8352 31.9098 32.714 32.2826 32.714C33.0321 32.714 33.4328 33.199 33.4328 34.1448V34.9693ZM35.5161 34.1448C35.5161 33.684 35.4363 33.2476 35.3028 32.8838C35.1692 32.52 34.9559 32.2048 34.6887 31.938C34.4216 31.6712 34.0728 31.4773 33.6721 31.3317C33.2714 31.1862 32.8169 31.1135 32.2826 31.1135C31.7484 31.1135 31.2939 31.1862 30.8932 31.3317C30.4925 31.4773 30.1456 31.6712 29.8784 31.938C29.6113 32.2048 29.3961 32.52 29.2625 32.8838C29.129 33.2476 29.0492 33.684 29.0492 34.1448V34.9693C29.0492 35.43 29.129 35.8665 29.2625 36.2303C29.3961 36.594 29.6113 36.9092 29.8784 37.176C30.1456 37.4428 30.4925 37.6368 30.8932 37.7823C31.2939 37.9278 31.7484 38.0005 32.2826 38.0005C32.8169 38.0005 33.2714 37.9278 33.6721 37.7823C34.0728 37.6368 34.4216 37.4428 34.6887 37.176C34.9559 36.9092 35.1692 36.594 35.3028 36.2303C35.4363 35.8665 35.5161 35.43 35.5161 34.9693V34.1448ZM28.3554 37.5641V36.5213C28.3554 36.4485 28.3276 36.4001 28.2738 36.3758C28.2218 36.3515 28.168 36.3272 28.0882 36.3272H28.0604C27.8192 36.3515 27.5799 36.3758 27.3666 36.3758C27.1514 36.3758 26.8583 36.4001 26.4836 36.4001C26.35 36.4001 26.1905 36.3758 26.0829 36.3272C25.9493 36.2788 25.8417 36.206 25.736 36.109C25.6284 36.012 25.5746 35.8665 25.5226 35.6968C25.4688 35.527 25.441 35.3088 25.441 35.042V34.0721C25.441 33.8053 25.4688 33.5871 25.5226 33.4172C25.5746 33.2476 25.6562 33.102 25.736 33.0051C25.8417 32.9081 25.9493 32.8352 26.0829 32.7868C26.2164 32.7383 26.35 32.714 26.4836 32.714C26.8583 32.714 27.1514 32.714 27.3666 32.7383C27.5799 32.7625 27.8192 32.7625 28.0604 32.7868H28.0882C28.168 32.7868 28.2218 32.7625 28.2738 32.7383C28.3276 32.714 28.3554 32.6656 28.3554 32.5927V31.55C28.3554 31.453 28.3276 31.4046 28.3016 31.3803C28.2478 31.356 28.194 31.3075 28.0882 31.2833C27.9009 31.2348 27.6857 31.2105 27.3926 31.1621C27.0976 31.1135 26.7785 31.1135 26.3778 31.1135C25.4688 31.1135 24.7472 31.356 24.1851 31.8653C23.6508 32.3745 23.3577 33.102 23.3577 34.0721V35.042C23.3577 35.9877 23.6249 36.7396 24.1851 37.2487C24.7194 37.758 25.4688 38.0005 26.3778 38.0005C26.7507 38.0005 27.0976 37.9762 27.3926 37.952C27.6857 37.9036 27.9009 37.8793 28.0882 37.8307C28.194 37.8066 28.2478 37.7823 28.3016 37.7337C28.3554 37.7094 28.3554 37.6368 28.3554 37.5641ZM22.048 37.661V33.781C22.048 33.4172 22.0202 33.0777 21.9404 32.7383C21.8866 32.4231 21.753 32.132 21.5935 31.8895C21.4321 31.647 21.1928 31.453 20.8978 31.3317C20.6047 31.1862 20.23 31.1135 19.7495 31.1135C19.3488 31.1135 18.9741 31.1621 18.6531 31.2591C18.3322 31.356 18.0113 31.5016 17.6384 31.7441V31.453C17.6384 31.3803 17.6106 31.3317 17.5586 31.2833C17.5048 31.2348 17.451 31.2105 17.3713 31.2105H15.928C15.8482 31.2105 15.7944 31.2348 15.7406 31.2833C15.6868 31.3317 15.6609 31.3803 15.6609 31.453V37.661C15.6609 37.7337 15.6868 37.7823 15.7406 37.8307C15.7944 37.8793 15.8482 37.9036 15.928 37.9036H17.477C17.5586 37.9036 17.6106 37.8793 17.6644 37.8307C17.7182 37.7823 17.7442 37.7337 17.7442 37.661V33.0777C17.9593 32.9808 18.1727 32.8838 18.386 32.8109C18.5734 32.7383 18.7867 32.714 18.9741 32.714C19.1614 32.714 19.321 32.7383 19.4546 32.7625C19.5881 32.7868 19.6697 32.8595 19.7495 32.9322C19.8293 33.0293 19.8553 33.1263 19.8831 33.2719C19.9091 33.4172 19.9091 33.5871 19.9091 33.781V37.661C19.9091 37.7337 19.9369 37.7823 19.9888 37.8307C20.0426 37.8793 20.0964 37.9036 20.1762 37.9036H21.7271C21.8068 37.9036 21.8606 37.8793 21.9144 37.8307C21.9942 37.7823 22.048 37.7094 22.048 37.661ZM12.1065 36.3272C11.9451 36.4001 11.7855 36.4485 11.5982 36.497C11.4108 36.5454 11.2234 36.5697 11.036 36.5697C10.7689 36.5697 10.5556 36.5455 10.422 36.4728C10.2884 36.4001 10.2347 36.2545 10.2347 35.9877V35.8908C10.2347 35.7452 10.2625 35.624 10.2884 35.527C10.3163 35.43 10.3961 35.333 10.4758 35.2602C10.5556 35.1875 10.6892 35.1389 10.8227 35.0905C10.9563 35.0662 11.1436 35.042 11.3848 35.042H12.1065V36.3272ZM14.1638 33.4901C14.1638 33.0535 14.084 32.6899 13.9505 32.3988C13.8169 32.1079 13.6017 31.8653 13.3624 31.6712C13.0952 31.4773 12.8003 31.3317 12.4274 31.2591C12.0526 31.1621 11.6241 31.1135 11.1715 31.1135C10.743 31.1135 10.3163 31.1378 9.91371 31.1862C9.513 31.2348 9.19209 31.2833 8.95278 31.356C8.79138 31.4046 8.71161 31.4773 8.71161 31.6228V32.5686C8.71161 32.6413 8.73942 32.6899 8.76539 32.7383C8.81919 32.7625 8.87301 32.7868 8.92495 32.7868H8.97874C9.08633 32.7868 9.21989 32.7625 9.35346 32.7625C9.513 32.7625 9.67441 32.7383 9.88775 32.7383C10.0751 32.7383 10.2884 32.714 10.5018 32.714C10.717 32.714 10.9303 32.714 11.1177 32.714C11.4108 32.714 11.652 32.7625 11.8115 32.8595C11.9729 32.9565 12.0786 33.1747 12.0786 33.5142V33.9265H11.3848C10.2884 33.9265 9.46106 34.0721 8.97874 34.3873C8.49826 34.7025 8.23113 35.2118 8.23113 35.8908V35.9877C8.23113 36.3758 8.28492 36.691 8.41849 36.9335C8.55206 37.2003 8.71161 37.3943 8.92495 37.5641C9.14015 37.7095 9.35348 37.8307 9.62062 37.9036C9.88776 37.9762 10.1549 38.0005 10.4498 38.0005C10.8227 38.0005 11.1715 37.952 11.4386 37.855C11.7058 37.758 11.9729 37.6368 12.24 37.4671V37.661C12.24 37.7337 12.266 37.7823 12.3198 37.8307C12.3736 37.8793 12.4274 37.9036 12.5072 37.9036H13.9505C14.0302 37.9036 14.084 37.8793 14.1378 37.8307C14.1898 37.7823 14.2176 37.7337 14.2176 37.661V33.4901H14.1638ZM4.96985 35.333C4.96985 35.6482 4.83627 35.915 4.59696 36.0847C4.3558 36.2545 3.87532 36.3515 3.23345 36.3515H3.02011C2.91251 36.3515 2.80493 36.3515 2.69919 36.3515C2.59159 36.3515 2.48585 36.3515 2.37825 36.3515H2.1649V34.1691H3.60818C4.11462 34.1691 4.48936 34.266 4.67673 34.4843C4.8641 34.7025 4.96985 34.945 4.96985 35.2118V35.333ZM4.91604 31.8653C4.91604 31.9866 4.89006 32.1079 4.86409 32.2289C4.81029 32.3502 4.7565 32.4473 4.6489 32.52C4.54316 32.5927 4.40959 32.6656 4.24819 32.714C4.08865 32.7625 3.87531 32.7868 3.60818 32.7868H2.1649V30.774C2.21684 30.774 2.27064 30.774 2.35226 30.774C2.43203 30.774 2.53778 30.774 2.64538 30.774H2.9385H3.15368C3.82153 30.774 4.27601 30.8467 4.54315 30.9923C4.81029 31.1378 4.94386 31.3803 4.94386 31.6955V31.8653H4.91604ZM7.10879 35.2118C7.10879 34.7994 7.00119 34.46 6.78785 34.1691C6.57451 33.878 6.30736 33.6355 5.9586 33.4901C6.30736 33.3445 6.57452 33.102 6.76189 32.8109C6.9474 32.4957 7.05498 32.1563 7.05498 31.7925V31.5743C7.05498 31.1135 6.9474 30.7255 6.76189 30.4103C6.57452 30.0951 6.27955 29.8526 5.93264 29.6586C5.58574 29.4645 5.15721 29.3432 4.6489 29.2463C4.14246 29.1736 3.60818 29.125 2.99228 29.125C2.77894 29.125 2.5656 29.125 2.35226 29.125C2.13707 29.125 1.92375 29.1493 1.71041 29.1493C1.49707 29.1493 1.3097 29.1736 1.12233 29.1977C0.934969 29.222 0.801395 29.222 0.693799 29.2463C0.454489 29.2948 0.267133 29.3432 0.159537 29.4645C0.0537955 29.5615 0 29.7556 0 30.0222V37.1033C0 37.37 0.0537955 37.5398 0.159537 37.661C0.267133 37.758 0.454489 37.8307 0.693799 37.8793C0.827367 37.9036 0.988781 37.9278 1.14832 37.9278C1.33569 37.952 1.52306 37.952 1.73639 37.9763C1.94973 37.9763 2.16491 38.0005 2.37825 38.0005C2.59159 38.0005 2.83275 38.0005 3.04609 38.0005C3.60819 38.0005 4.14247 37.952 4.62295 37.8793C5.10342 37.8066 5.5579 37.661 5.90666 37.4671C6.27954 37.273 6.54668 37.0062 6.78785 36.6667C7.00119 36.3272 7.10879 35.8908 7.10879 35.3815V35.2118Z" fill="#016ECB"/>
</svg>
