<svg width="80" height="48" viewBox="0 0 80 48" fill="none" xmlns="http://www.w3.org/2000/svg">
<mask id="mask0_97_56481" style="mask-type:luminance" maskUnits="userSpaceOnUse" x="0" y="0" width="80" height="48">
<path d="M79.9484 0H0V47.3155H79.9484V0Z" fill="white"/>
</mask>
<g mask="url(#mask0_97_56481)">
<mask id="mask1_97_56481" style="mask-type:luminance" maskUnits="userSpaceOnUse" x="-1" y="0" width="81" height="48">
<path d="M79.9463 0H-0.00195312V47.3155H79.9463V0Z" fill="white"/>
</mask>
<g mask="url(#mask1_97_56481)">
<path d="M59.6233 24.1918H54.1144C53.5019 24.1918 53.0029 23.7467 53.0029 23.1882C53.0029 22.6313 53.5019 22.1405 54.1144 22.1405H62.4996V18.3691H54.1144C51.1878 18.3691 48.8047 20.5445 48.8047 23.2068C48.8047 25.869 51.1878 28.0456 54.1144 28.0456H59.5469C60.1594 28.0456 60.6584 28.489 60.6584 29.0458C60.6584 29.6027 60.1594 30.0139 59.5469 30.0139H47.8962C46.9058 31.7352 45.9451 33.211 43.9922 33.9489H59.6233C62.4996 33.9117 64.8547 31.6912 64.8547 29.0526C64.8547 26.414 62.4996 24.229 59.6233 24.1918Z" fill="#969696"/>
</g>
<mask id="mask2_97_56481" style="mask-type:luminance" maskUnits="userSpaceOnUse" x="-1" y="0" width="81" height="48">
<path d="M79.9463 0H-0.00195312V47.3155H79.9463V0Z" fill="white"/>
</mask>
<g mask="url(#mask2_97_56481)">
<path d="M38.5089 18.3691C33.8396 18.3691 30.0361 21.8579 30.0361 26.1432V26.3074V42.3132H34.2641V33.9489H38.4996C43.1688 33.9489 46.9574 30.415 46.9574 26.1297C46.9574 21.8426 43.1762 18.3691 38.5089 18.3691ZM38.5089 30.0139H34.2641V26.1297C34.2641 23.9582 36.1594 22.193 38.5089 22.193C40.8584 22.193 42.7685 23.9582 42.7685 26.1297C42.7685 28.2994 40.8584 30.0139 38.5089 30.0139Z" fill="#969696"/>
</g>
<mask id="mask3_97_56481" style="mask-type:luminance" maskUnits="userSpaceOnUse" x="-1" y="0" width="81" height="48">
<path d="M79.9463 0H-0.00195312V47.3155H79.9463V0Z" fill="white"/>
</mask>
<g mask="url(#mask3_97_56481)">
<path d="M16.6524 33.948C12.6572 33.948 9.29672 31.3518 8.3882 27.96C8.3882 27.96 8.12571 26.8379 8.12571 26.1C8.12571 25.3604 8.37331 24.2281 8.37331 24.2281C9.28928 20.8431 12.646 18.3234 16.6357 18.3234C21.3272 18.3234 25.1792 21.8011 25.1792 26.0814V27.9617H12.7111C13.4465 29.2751 14.9359 30.013 16.6524 30.013H27.8619L27.8768 18.9161C27.8768 17.2617 26.393 15.9082 24.5778 15.9082H8.69168C6.87835 15.9082 5.39453 17.2207 5.39453 18.8751V33.359C5.39453 35.0143 6.87835 36.4089 8.69168 36.4089H24.5778C26.2068 36.4089 27.564 35.3426 27.8265 33.948H16.6524Z" fill="#C8036F"/>
</g>
<mask id="mask4_97_56481" style="mask-type:luminance" maskUnits="userSpaceOnUse" x="-1" y="0" width="81" height="48">
<path d="M79.9463 0H-0.00195312V47.3155H79.9463V0Z" fill="white"/>
</mask>
<g mask="url(#mask4_97_56481)">
<path d="M16.6358 22.0059C14.9249 22.0059 13.4373 22.9604 12.6982 24.1909H20.5734C19.8342 22.9604 18.3467 22.0059 16.6358 22.0059Z" fill="#C8036F"/>
</g>
<mask id="mask5_97_56481" style="mask-type:luminance" maskUnits="userSpaceOnUse" x="-1" y="0" width="81" height="48">
<path d="M79.9463 0H-0.00195312V47.3155H79.9463V0Z" fill="white"/>
</mask>
<g mask="url(#mask5_97_56481)">
<path d="M23.8306 11.1978C23.8306 7.66276 20.6079 4.79688 16.6331 4.79688C12.7254 4.79688 9.54551 7.56899 9.44126 11.0232C9.4394 11.0377 9.44126 11.052 9.44126 11.067V12.9905C9.44126 13.2207 9.64792 13.4482 9.90484 13.4482H12.5541C12.8128 13.4482 13.0381 13.2207 13.0381 12.9905V11.1978C13.0381 9.43259 14.6504 7.99635 16.6369 7.99635C18.6215 7.99635 20.2337 9.43259 20.2337 11.1978V12.9905C20.2337 13.2207 20.4422 13.4482 20.701 13.4482H23.3503C23.6072 13.4482 23.8306 13.2207 23.8306 12.9905V11.1978Z" fill="#C8036F"/>
</g>
<mask id="mask6_97_56481" style="mask-type:luminance" maskUnits="userSpaceOnUse" x="-1" y="0" width="81" height="48">
<path d="M79.9463 0H-0.00195312V47.3155H79.9463V0Z" fill="white"/>
</mask>
<g mask="url(#mask6_97_56481)">
<path d="M43.2465 38.9505L42.8649 40.9273C42.6731 41.9259 41.9545 42.3829 40.9827 42.3829C40.1579 42.3829 39.5212 41.8937 39.7074 40.929L40.089 38.9505H40.6792L40.2957 40.9273C40.1802 41.5434 40.4819 41.8937 41.0571 41.8937C41.6473 41.8937 42.1518 41.5739 42.2747 40.929L42.6564 38.9505H43.2465ZM40.9287 38.3311C40.9287 38.4969 41.0683 38.5748 41.2173 38.5748C41.4016 38.5748 41.6045 38.4529 41.6045 38.2244C41.6045 38.0653 41.4872 37.9824 41.3327 37.9824C41.1428 37.9824 40.9287 38.0941 40.9287 38.3311ZM42.2058 38.3277C42.2058 38.4969 42.3492 38.5748 42.5037 38.5748C42.6675 38.5748 42.8854 38.4529 42.8854 38.2295C42.8854 38.0704 42.7587 37.9824 42.6154 37.9824C42.4236 37.9824 42.2058 38.0941 42.2058 38.3277Z" fill="#969696"/>
</g>
<mask id="mask7_97_56481" style="mask-type:luminance" maskUnits="userSpaceOnUse" x="-1" y="0" width="81" height="48">
<path d="M79.9463 0H-0.00195312V47.3155H79.9463V0Z" fill="white"/>
</mask>
<g mask="url(#mask7_97_56481)">
<path d="M44.6754 38.9512L44.4092 40.317C44.6382 40.0361 45.0962 39.8871 45.4145 39.8871C46.0736 39.8871 46.5316 40.2392 46.5316 40.8941C46.5316 41.8199 45.8241 42.3768 44.9193 42.3768C44.5693 42.3768 44.2714 42.2566 44.0908 41.957L43.9903 42.3141H43.4746L44.1281 38.9512H44.6754ZM44.2603 41.2563C44.2398 41.6524 44.5209 41.9096 44.9305 41.9096C45.4462 41.9096 45.9451 41.5457 45.9786 40.994C45.9991 40.5912 45.7124 40.3542 45.314 40.3542C44.802 40.3542 44.2919 40.7266 44.2603 41.2563Z" fill="#969696"/>
</g>
<mask id="mask8_97_56481" style="mask-type:luminance" maskUnits="userSpaceOnUse" x="-1" y="0" width="81" height="48">
<path d="M79.9463 0H-0.00195312V47.3155H79.9463V0Z" fill="white"/>
</mask>
<g mask="url(#mask8_97_56481)">
<path d="M47.6064 41.3294C47.584 41.6577 47.867 41.9251 48.3455 41.9251C48.6117 41.9251 48.9617 41.8303 49.1535 41.6662L49.4513 41.9793C49.1274 42.2501 48.6489 42.3855 48.245 42.3855C47.4891 42.3855 47.0479 41.9742 47.0479 41.3429C47.0479 40.5051 47.7702 39.8789 48.6955 39.8789C49.5407 39.8789 50.0192 40.346 49.7325 41.3294H47.6064ZM49.2857 40.9198C49.3285 40.5085 49.0622 40.3426 48.621 40.3426C48.2226 40.3426 47.8559 40.5085 47.6957 40.9198H49.2857Z" fill="#969696"/>
</g>
<mask id="mask9_97_56481" style="mask-type:luminance" maskUnits="userSpaceOnUse" x="-1" y="0" width="81" height="48">
<path d="M79.9463 0H-0.00195312V47.3155H79.9463V0Z" fill="white"/>
</mask>
<g mask="url(#mask9_97_56481)">
<path d="M51.1955 39.9336L51.1694 40.2501C51.4244 39.9437 51.7335 39.8828 52.0146 39.8828C52.2697 39.8828 52.4987 39.964 52.6197 40.0859L52.2902 40.5226C52.1747 40.4261 52.0574 40.377 51.8545 40.377C51.4766 40.377 51.1061 40.5835 51.0204 41.0252L50.771 42.3115H50.2236L50.6853 39.9336H51.1955Z" fill="#969696"/>
</g>
<mask id="mask10_97_56481" style="mask-type:luminance" maskUnits="userSpaceOnUse" x="-1" y="0" width="81" height="48">
<path d="M79.9463 0H-0.00195312V47.3155H79.9463V0Z" fill="white"/>
</mask>
<g mask="url(#mask10_97_56481)">
<path d="M55.2559 39.9355L55.5315 41.8176L56.5312 39.9355H57.1437L55.7716 42.3152H55.1275L54.8687 40.7462L54.4479 41.5248L53.9899 42.3152H53.3532L52.8896 39.9355H53.5077L53.7777 41.8176L54.783 39.9355H55.2559Z" fill="#969696"/>
</g>
<mask id="mask11_97_56481" style="mask-type:luminance" maskUnits="userSpaceOnUse" x="-1" y="0" width="81" height="48">
<path d="M79.9463 0H-0.00195312V47.3155H79.9463V0Z" fill="white"/>
</mask>
<g mask="url(#mask11_97_56481)">
<path d="M57.8477 41.3294C57.8272 41.6577 58.1083 41.9251 58.5868 41.9251C58.853 41.9251 59.203 41.8303 59.3948 41.6662L59.6927 41.9793C59.3687 42.2501 58.8903 42.3855 58.4863 42.3855C57.7323 42.3855 57.291 41.9742 57.291 41.3429C57.291 40.5051 58.0134 39.8789 58.9387 39.8789C59.7839 39.8789 60.2623 40.346 59.9756 41.3294H57.8477ZM59.5288 40.9198C59.5717 40.5085 59.3054 40.3426 58.8642 40.3426C58.4658 40.3426 58.099 40.5085 57.9389 40.9198H59.5288Z" fill="#969696"/>
</g>
<mask id="mask12_97_56481" style="mask-type:luminance" maskUnits="userSpaceOnUse" x="-1" y="0" width="81" height="48">
<path d="M79.9463 0H-0.00195312V47.3155H79.9463V0Z" fill="white"/>
</mask>
<g mask="url(#mask12_97_56481)">
<path d="M61.4739 39.935L61.0122 42.3147H60.4648L60.9266 39.935H61.4739ZM60.9898 39.2885C60.9898 39.4577 61.1295 39.5457 61.2784 39.5457C61.4907 39.5457 61.6861 39.4188 61.6861 39.1819C61.6861 39.0211 61.554 38.9297 61.4106 38.9297C61.2133 38.9297 60.9898 39.0465 60.9898 39.2885Z" fill="#969696"/>
</g>
<mask id="mask13_97_56481" style="mask-type:luminance" maskUnits="userSpaceOnUse" x="-1" y="0" width="81" height="48">
<path d="M79.9463 0H-0.00195312V47.3155H79.9463V0Z" fill="white"/>
</mask>
<g mask="url(#mask13_97_56481)">
<path d="M63.9058 40.523C63.7364 40.3486 63.5185 40.2996 63.2579 40.2996C62.8967 40.2996 62.6417 40.4113 62.6417 40.6194C62.6417 40.7938 62.8483 40.8682 63.1574 40.8919C63.6358 40.9309 64.2465 41.0764 64.1199 41.6908C64.0287 42.1376 63.539 42.3999 62.8595 42.3999C62.4332 42.3999 62.0254 42.3119 61.748 41.9582L62.1036 41.6045C62.301 41.8516 62.6473 41.9531 62.9544 41.9582C63.2151 41.9582 63.5241 41.8702 63.5707 41.6485C63.6191 41.4352 63.4124 41.3523 63.0289 41.3184C62.5821 41.2795 62.0943 41.1289 62.0943 40.6787C62.0943 40.0812 62.7999 39.873 63.3324 39.873C63.7364 39.873 64.0342 39.956 64.2781 40.1929L63.9058 40.523Z" fill="#969696"/>
</g>
<mask id="mask14_97_56481" style="mask-type:luminance" maskUnits="userSpaceOnUse" x="-1" y="0" width="81" height="48">
<path d="M79.9463 0H-0.00195312V47.3155H79.9463V0Z" fill="white"/>
</mask>
<g mask="url(#mask14_97_56481)">
<path d="M65.6334 39.9355L65.384 41.2167C65.3039 41.6246 65.5068 41.9056 65.963 41.9056C66.393 41.9056 66.7598 41.5806 66.8343 41.1829L67.0744 39.9355H67.6218L67.1601 42.3152H66.6648L66.7021 41.9699C66.393 42.2356 66.0914 42.3626 65.7247 42.3626C65.0805 42.3626 64.6989 41.9411 64.8366 41.2201L65.0861 39.9355H65.6334Z" fill="#969696"/>
</g>
<mask id="mask15_97_56481" style="mask-type:luminance" maskUnits="userSpaceOnUse" x="-1" y="0" width="81" height="48">
<path d="M79.9463 0H-0.00195312V47.3155H79.9463V0Z" fill="white"/>
</mask>
<g mask="url(#mask15_97_56481)">
<path d="M70.0245 42.3119L70.2758 41.0392C70.354 40.6279 70.2013 40.3554 69.7005 40.3554C69.2649 40.3554 68.8981 40.6753 68.8237 41.0663L68.5853 42.3119H68.0361L68.4997 39.934H68.9986L68.9614 40.2826C69.2649 40.0254 69.5795 39.8984 69.9183 39.8984C70.5569 39.8984 70.9721 40.3029 70.8287 41.0358L70.5774 42.3119H70.0245Z" fill="#969696"/>
</g>
<mask id="mask16_97_56481" style="mask-type:luminance" maskUnits="userSpaceOnUse" x="-1" y="0" width="81" height="48">
<path d="M79.9463 0H-0.00195312V47.3155H79.9463V0Z" fill="white"/>
</mask>
<g mask="url(#mask16_97_56481)">
<path d="M71.8796 42.6399C71.8442 42.9682 72.1197 43.1002 72.5833 43.1002C72.9873 43.1002 73.423 42.8954 73.5235 42.3725L73.6035 41.9629C73.3634 42.2692 72.9277 42.3894 72.6038 42.3894C71.9336 42.3894 71.4663 42.0255 71.4663 41.3654C71.4663 40.4261 72.2314 39.8828 73.0971 39.8828C73.4658 39.8828 73.7953 40.0419 73.9107 40.3127L74.002 39.9336H74.5344L74.0764 42.3826C73.907 43.2898 73.1679 43.5707 72.4921 43.5707C71.6841 43.5707 71.2373 43.2136 71.349 42.6399H71.8796ZM72.0341 41.269C72.0341 41.6768 72.3264 41.9239 72.7471 41.9239C73.8791 41.9239 74.1825 40.3381 73.0506 40.3381C72.5126 40.3381 72.0341 40.702 72.0341 41.269Z" fill="#969696"/>
</g>
</g>
</svg>
