<svg width="84" height="18" viewBox="0 0 84 18" fill="none" xmlns="http://www.w3.org/2000/svg">
<path d="M81.5875 12.6836C81.2718 12.6836 80.9599 12.7413 80.6685 12.8517C80.379 12.962 80.1138 13.1233 79.8915 13.3271C79.6692 13.5292 79.4937 13.7703 79.376 14.0352C79.2565 14.3001 79.1948 14.5819 79.1967 14.8689C79.1948 15.1542 79.2565 15.4377 79.376 15.7009C79.4937 15.9658 79.6692 16.2069 79.8915 16.409C80.1138 16.6127 80.379 16.774 80.6685 16.8844C80.9599 16.9948 81.2718 17.0525 81.5875 17.0525C82.9061 17.0525 83.9782 16.0745 83.9782 14.8689C83.9801 14.5819 83.9203 14.3001 83.8008 14.0352C83.6813 13.7703 83.5057 13.5292 83.2834 13.3271C83.0611 13.1233 82.7978 12.962 82.5064 12.8517C82.215 12.7413 81.9031 12.6836 81.5875 12.6836ZM73.7203 10.9957C73.7203 9.34359 72.1756 8.00557 70.2705 8.00557C68.3634 8.00557 66.8187 9.34529 66.8187 10.9957C66.8187 12.6462 68.3653 13.9842 70.2723 13.9842C72.1774 13.9842 73.7203 12.6462 73.7203 10.9957ZM73.7352 5.18179H77.5418V16.808H73.7352V16.0643C72.6239 16.7588 71.307 17.1289 69.9585 17.1289C66.2509 17.1289 63.2456 14.3833 63.2456 10.9957C63.2456 7.60824 66.2509 4.86257 69.9585 4.86257C71.3593 4.86257 72.6575 5.25481 73.7352 5.92721V5.18179ZM43.2527 6.6964V5.18348H39.3527V16.808H43.262V11.3795C43.262 9.54735 45.4324 8.56591 46.9398 8.56591H46.9846V5.18348C45.438 5.18348 44.0185 5.78967 43.2527 6.6964ZM33.5382 10.9957C33.5382 9.34359 31.9936 8.00557 30.0866 8.00557C28.1814 8.00557 26.6367 9.34529 26.6367 10.9957C26.6367 12.6462 28.1832 13.9842 30.0903 13.9842C31.9954 13.9842 33.5382 12.6462 33.5382 10.9957ZM33.5513 5.18179H37.3616V16.808H33.5513V16.0643C32.4755 16.735 31.1774 17.1289 29.7746 17.1289C26.0689 17.1289 23.0636 14.3833 23.0636 10.9957C23.0636 7.60824 26.0689 4.86257 29.7746 4.86257C31.1774 4.86257 32.4755 5.25481 33.5513 5.92721V5.18179ZM56.4786 4.87105C54.9582 4.87105 53.5181 5.30235 52.5524 6.49265V5.18348H48.7608V16.808H52.601V10.6986C52.601 8.93267 53.8973 8.06499 55.4587 8.06499C57.1323 8.06499 58.0961 8.98022 58.0961 10.6748V16.808H61.9008V9.41661C61.9008 6.71169 59.5455 4.87105 56.4786 4.87105ZM17.5162 16.808H21.5021V0.00406778H17.5162V16.808ZM0 16.8114H4.22307V0H0.00376205L0 16.8114ZM14.7706 0C14.7706 3.63882 13.2184 7.02582 10.4504 9.54226L16.2872 16.8114H11.0723L4.733 8.91229L6.36921 7.79162C7.70282 6.88319 8.78239 5.70646 9.52204 4.35384C10.2636 3.00087 10.6446 1.51003 10.6353 0H14.7669H14.7706Z" fill="#FBFBFC"/>
</svg>
