<svg width="65" height="52" viewBox="0 0 65 52" fill="none" xmlns="http://www.w3.org/2000/svg">
<mask id="mask0_97_56449" style="mask-type:luminance" maskUnits="userSpaceOnUse" x="0" y="0" width="65" height="52">
<path d="M64.0391 0H0V52H64.0391V0Z" fill="white"/>
</mask>
<g mask="url(#mask0_97_56449)">
<path d="M5.32812 4.82227V47.2052H32.6426C50.6609 47.2052 58.4747 38.0769 58.4747 25.9722C58.4747 13.9147 50.6609 4.82227 32.6426 4.82227H5.32812Z" fill="#FBFBFC"/>
<path d="M8.28125 7.49414H32.6472C49.1852 7.49414 55.5242 15.6641 55.5242 25.9702C55.5242 38.3285 46.6722 44.5295 32.6472 44.5295H8.28125V7.49414ZM10.6434 9.631V42.3938H32.6472C45.932 42.3938 53.1599 36.794 53.1599 25.9702C53.1599 14.8468 45.3245 9.63041 32.6472 9.63041L10.6434 9.631Z" fill="black"/>
<path d="M13.5947 28.3809H20.6386V39.7217H13.5947V28.3809Z" fill="black"/>
<path d="M17.116 26.6253C19.5336 26.6253 21.4937 24.8525 21.4937 22.6652C21.4937 20.4781 19.5336 18.7051 17.116 18.7051C14.6984 18.7051 12.7383 20.4781 12.7383 22.6652C12.7383 24.8525 14.6984 26.6253 17.116 26.6253Z" fill="black"/>
<path d="M35.4076 24.5198V26.3562H30.3885V18.9873H35.2471V20.8229H32.4178V21.6762H35.0932V23.5124H32.4178V24.5204L35.4076 24.5198ZM36.2856 26.3576L38.7416 18.9845H41.6289L44.084 26.3576H41.9719L41.5111 24.9315H38.8564L38.3949 26.3576H36.2856ZM39.4515 23.097H40.9204L40.2465 21.0143H40.1237L39.4515 23.097ZM45.1044 18.9853H47.1353V24.5204H50.1407C49.316 14.4768 40.5839 12.3066 32.6445 12.3066H24.1831V18.9892H25.4352C27.7187 18.9892 29.1364 20.3899 29.1364 22.6436C29.1364 24.9693 27.7528 26.3576 25.4352 26.3576H24.1831V39.7277H32.6452C45.5471 39.7277 50.0404 34.3067 50.1992 26.3562H45.1044V18.9853ZM24.1816 20.8249V24.5204H25.4352C26.3042 24.5204 27.1071 24.2931 27.1071 22.643C27.1071 21.0314 26.2138 20.8249 25.4352 20.8249H24.1816Z" fill="#D50172"/>
</g>
</svg>
