<svg width="83" height="32" viewBox="0 0 83 32" fill="none" xmlns="http://www.w3.org/2000/svg">
<path fill-rule="evenodd" clip-rule="evenodd" d="M0 5.74162C0 2.57079 2.85566 0 6.37723 0H75.8739C79.3955 0 82.2493 2.57079 82.2493 5.74162V26.2599C82.2493 29.4287 79.3955 32 75.8739 32H6.37723C2.85566 32 0 29.4287 0 26.2599V5.74162Z" fill="#000268"/>
<path fill-rule="evenodd" clip-rule="evenodd" d="M2.61816 5.93737V26.0645C2.61816 28.0455 4.40362 29.6522 6.60438 29.6522H43.0147V2.34961H6.60438C4.40362 2.34961 2.61816 3.95631 2.61816 5.93737ZM52.4233 15.9004C52.4233 17.1818 51.7226 18.0626 50.5628 18.0626C49.5383 18.0626 48.684 17.1818 48.684 16.0083C48.684 14.8038 49.4341 13.9082 50.5628 13.9082C51.7574 13.9082 52.4233 14.8349 52.4233 15.9004ZM45.6124 23.25H48.684V18.8798H48.7187C49.3005 19.8374 50.4603 20.1923 51.536 20.1923C54.1813 20.1923 55.5972 18.2164 55.5972 15.8384C55.5972 13.8934 54.249 11.7766 51.7903 11.7766C50.3926 11.7766 49.0956 12.2867 48.4791 13.4144H48.4443V11.9634H45.6124V23.25ZM59.792 17.4594C59.792 16.688 60.6098 16.3957 61.6525 16.3957C62.1135 16.3957 62.5581 16.4248 62.9496 16.4416C62.9496 17.3829 62.216 18.3405 61.0543 18.3405C60.3372 18.3405 59.792 18.0167 59.792 17.4594ZM65.9864 20.0075C65.851 19.3751 65.8162 18.7408 65.8162 18.1085V15.1128C65.8162 12.6579 63.8551 11.7766 61.583 11.7766C60.2695 11.7766 59.1261 11.9466 58.034 12.3487L58.087 14.2335C58.9377 13.8002 59.9292 13.6303 60.9189 13.6303C62.0257 13.6303 62.9313 13.9245 62.9496 15.0211C62.5581 14.9589 62.0093 14.9117 61.5153 14.9117C59.878 14.9117 56.9254 15.2059 56.9254 17.6604C56.9254 19.4062 58.495 20.1923 60.2531 20.1923C61.5153 20.1923 62.3697 19.7461 63.0685 18.7408H63.1032C63.1032 19.1592 63.1526 19.5743 63.1709 20.0075H65.9864ZM67.3675 23.25C68.0005 23.3743 68.6316 23.4368 69.2792 23.4368C72.0965 23.4368 72.7606 21.4752 73.6314 19.4519L76.8913 11.9634H73.8179L71.9922 17.2129H71.9575L70.0476 11.9634H66.7364L70.3385 20.1923C70.1153 20.9029 69.5354 21.3051 68.7835 21.3051C68.3554 21.3051 67.9822 21.2578 67.5724 21.1351L67.3675 23.25Z" fill="#FBFBFC"/>
<path fill-rule="evenodd" clip-rule="evenodd" d="M10.1184 15.917C10.1184 14.8206 10.7166 13.9087 11.8599 13.9087C13.2411 13.9087 13.821 14.9122 13.821 15.8078C13.821 17.0434 12.9502 17.8768 11.8599 17.8768C10.9379 17.8768 10.1184 17.1675 10.1184 15.917ZM16.7919 11.9639H14.0094V13.4148H13.9765C13.3271 12.4262 12.2679 11.7771 10.9544 11.7771C8.19018 11.7771 6.94434 13.5701 6.94434 15.9629C6.94434 18.341 8.46272 20.0079 10.9013 20.0079C12.1325 20.0079 13.1569 19.5748 13.8905 18.6333H13.9235V19.0666C13.9235 20.6408 12.9685 21.3974 11.194 21.3974C9.91343 21.3974 9.12862 21.1504 8.19015 20.734L8.03651 22.9271C8.7518 23.1592 9.96467 23.4373 11.4337 23.4373C15.0174 23.4373 16.7919 22.3713 16.7919 19.0666V11.9639ZM21.9838 8.61328H18.9104V10.6514H21.9838V8.61328ZM18.9122 20.0079H21.9838V11.9639H18.9122V20.0079ZM30.5361 11.8703C30.2288 11.8249 29.8538 11.7771 29.4952 11.7771C28.1652 11.7771 27.3969 12.4262 26.8682 13.4459H26.8335V11.9639H24.0345V20.0079H27.106V16.612C27.106 15.0364 27.9092 14.095 29.3434 14.095C29.702 14.095 30.0422 14.095 30.3825 14.1863L30.5361 11.8703ZM35.8267 18.2478C34.4089 18.2478 33.8291 17.1823 33.8291 15.994C33.8291 14.7895 34.4089 13.7239 35.8267 13.7239C37.2445 13.7239 37.8244 14.7895 37.8244 15.994C37.8244 17.1823 37.2445 18.2478 35.8267 18.2478ZM35.8267 20.1928C38.761 20.1928 40.9984 18.65 40.9984 15.994C40.9984 13.3218 38.761 11.7771 35.8267 11.7771C32.8905 11.7771 30.6569 13.3218 30.6569 15.994C30.6569 18.65 32.8905 20.1928 35.8267 20.1928Z" fill="#FF0007"/>
</svg>
