<svg width="98" height="20" viewBox="0 0 98 20" fill="none" xmlns="http://www.w3.org/2000/svg">
<path d="M60.4637 2.45791C59.9249 3.1019 59.0632 3.60972 58.203 3.53723C58.0949 2.66655 58.5163 1.74144 59.0106 1.16999C59.5481 0.507897 60.4908 0.0362714 61.2525 0C61.3429 0.906964 60.9931 1.79574 60.4637 2.45791ZM61.2443 3.7095C59.9964 3.63701 58.9295 4.42597 58.3367 4.42597C57.7357 4.42597 56.8295 3.74574 55.8436 3.76393C54.5606 3.78212 53.3667 4.51678 52.7117 5.68678C51.3666 8.02665 52.3619 11.4913 53.6625 13.396C54.2999 14.3393 55.063 15.3731 56.0678 15.3369C57.0186 15.3006 57.3953 14.7111 58.5433 14.7111C59.7007 14.7111 60.0329 15.3369 61.0377 15.3188C62.0776 15.3006 62.7326 14.3755 63.3701 13.4322C64.0967 12.362 64.3924 11.319 64.4113 11.2646C64.3924 11.2464 62.4018 10.4755 62.3829 8.15371C62.3653 6.2128 63.9535 5.28769 64.0251 5.23325C63.1284 3.89085 61.7278 3.74574 61.2443 3.7095ZM68.4481 1.0793V15.2191H70.6197V10.3848H73.6247C76.3703 10.3848 78.2989 8.48018 78.2989 5.72303C78.2989 2.96574 76.4054 1.0793 73.6962 1.0793H68.4481ZM70.6197 2.9295H73.1223C75.0063 2.9295 76.0826 3.94529 76.0826 5.73212C76.0826 7.51882 75.0062 8.54371 73.1128 8.54371H70.6197V2.9295ZM82.264 15.3278C83.628 15.3278 84.8935 14.6295 85.4675 13.5229H85.512V15.2191H87.5216V8.18086C87.5216 6.14018 85.9064 4.82506 83.4214 4.82506C81.1161 4.82506 79.4117 6.15837 79.3482 7.9904H81.3051C81.4658 7.11973 82.264 6.54837 83.3593 6.54837C84.6868 6.54837 85.431 7.17416 85.431 8.32597V9.10597L82.7218 9.26927C80.2004 9.42348 78.8377 10.4664 78.8377 12.2804C78.8377 14.1124 80.2463 15.3278 82.264 15.3278ZM82.8474 13.65C81.69 13.65 80.954 13.0876 80.954 12.226C80.954 11.3371 81.663 10.8202 83.0176 10.7386L85.431 10.5844V11.3824C85.431 12.7067 84.3195 13.65 82.8474 13.65ZM90.2038 19.0646C92.3214 19.0646 93.3181 18.2482 94.1878 15.7722L98.0004 4.96108H95.7936L93.237 13.3144H93.1925L90.6346 4.96108H88.3657L92.0432 15.2553L91.846 15.8811C91.5138 16.9422 90.9763 17.3504 90.0161 17.3504C89.8459 17.3504 89.5136 17.3322 89.3786 17.3142V19.0102C89.5042 19.0464 90.043 19.0646 90.2038 19.0646Z" fill="#FBFBFC"/>
<path d="M45.0631 4.98728L39.2207 18.27H37.4123L39.584 13.6219L35.7377 4.98577H37.6379L40.4213 11.6052H40.4578L43.1535 4.98577L45.0631 4.98728ZM20.7887 9.09469V14.4759H18.9519V1.19294H23.8112C24.9699 1.16305 26.0909 1.57154 26.9579 2.34148C27.8182 3.06016 28.2922 4.07636 28.2773 5.15086C28.2922 6.24107 27.8033 7.28567 26.9579 7.96741C26.1138 8.72315 25.0645 9.09469 23.8112 9.09469H20.7887ZM20.7819 2.83112V7.46358H23.8557C24.5337 7.48645 25.1954 7.23454 25.6708 6.78184C26.1449 6.35215 26.4055 5.76577 26.4055 5.15803C26.4055 4.54312 26.1435 3.95688 25.6708 3.53408C25.1819 3.06016 24.5256 2.80824 23.8557 2.8296L20.7819 2.83112ZM31.9562 4.98728C33.1217 4.98728 34.0468 5.32023 34.7248 5.98061C35.4014 6.64099 35.7377 7.54475 35.7377 8.69325V14.1855H34.2224V12.9473H34.1562C33.4998 13.9635 32.6328 14.4744 31.5483 14.4744C30.6151 14.4744 29.8426 14.1855 29.216 13.5991C28.6028 13.0512 28.2625 12.2498 28.276 11.4202C28.276 10.5008 28.6029 9.76775 29.266 9.21844C29.9223 8.67768 30.8042 8.40289 31.9035 8.40289C32.8435 8.40289 33.6147 8.58796 34.2197 8.95082V8.56523C34.2265 8.00159 33.986 7.46082 33.5701 7.08226C33.1555 6.68937 32.6085 6.46736 32.0399 6.47452C31.1594 6.47452 30.4598 6.86728 29.9426 7.65293L28.5502 6.73347C29.3159 5.56939 30.4517 4.98439 31.9522 4.98439L31.9562 4.98728ZM29.9102 11.4585C29.9034 11.8884 30.0992 12.2883 30.4342 12.5487C30.784 12.8377 31.2215 12.9943 31.6658 12.9857C32.3289 12.9857 32.9691 12.7039 33.4431 12.2073C33.9455 11.7333 34.2305 11.0658 34.2305 10.3685C33.7349 9.95283 33.0501 9.74501 32.1682 9.74501C31.52 9.74501 30.9879 9.90873 30.5584 10.2346C30.129 10.5676 29.9102 10.9704 29.9102 11.4585ZM7.91541 2.25792C9.79535 2.23515 5.36168 2.21232 6.75273 3.51021L7.91541 4.20301C7.1213 3.45443 8.99448 4.18027 7.91541 4.20301C5.97875 4.21018 4.2663 5.47113 3.63965 7.33128C3.31958 8.27197 2.38106 9.45861 2.70114 10.4007C3.32778 12.2608 6.1666 14.5278 8.10326 14.535C9.13101 14.535 11.4701 13.6166 12.1548 13.1569C12.949 12.6231 13.6382 11.1866 13.8043 10.2374H10.5098L10.8043 9.02258L14.8559 9.71163C14.945 10.2225 15.2218 8.43706 15.2218 8.95509C15.2218 11.2679 14.3912 13.2248 12.9556 14.5441C11.6955 15.7011 9.96956 16.3743 7.91405 16.3743C5.05093 16.3887 2.4282 14.7733 1.11009 12.1929C0.0310128 10.0511 0.0310128 7.51622 1.11009 5.37287C2.4282 2.79267 5.24824 2.11788 8.10326 2.13212L7.91541 2.25792Z" fill="#FBFBFC"/>
<path d="M15.891 9.19359C15.891 8.69459 15.8436 8.22086 15.7625 7.75977H8.11816V10.6085H12.495C12.2989 11.5433 11.7238 12.3328 10.8715 12.8697V14.7647H13.4827C15.0116 13.4445 15.891 11.4991 15.891 9.19359Z" fill="#4285F4"/>
<path d="M8.11725 16.602C10.3091 16.602 12.1423 15.9198 13.4818 14.7639L10.8706 12.869C10.1399 13.3238 9.21316 13.6017 8.11725 13.6017C5.99984 13.6017 4.20715 12.2689 3.56449 10.4688H0.87207V12.4205C2.20475 14.8965 4.94452 16.602 8.11725 16.602Z" fill="#34A853"/>
<path d="M3.56509 10.4697C3.39597 10.0149 3.30802 9.52853 3.30802 9.02322C3.30802 8.51791 3.40273 8.03155 3.56509 7.57677V5.625H0.872668C0.317948 6.64826 0 7.79784 0 9.02322C0 10.2486 0.317948 11.3982 0.872668 12.4214L3.56509 10.4697Z" fill="#FBBC05"/>
<path d="M8.11725 4.44365C9.31463 4.44365 10.3835 4.82895 11.2291 5.5806L13.5427 3.42039C12.1423 2.19501 10.3091 1.44336 8.11725 1.44336C4.94452 1.44336 2.20475 3.14879 0.87207 5.62482L3.56449 7.57659C4.20715 5.77641 5.99984 4.44365 8.11725 4.44365Z" fill="#EA4335"/>
</svg>
