<svg width="90" height="31" viewBox="0 0 90 31" fill="none" xmlns="http://www.w3.org/2000/svg">
<mask id="mask0_97_56459" style="mask-type:luminance" maskUnits="userSpaceOnUse" x="0" y="0" width="90" height="31">
<path d="M89.4086 0H0V31H89.4086V0Z" fill="white"/>
</mask>
<g mask="url(#mask0_97_56459)">
<path fill-rule="evenodd" clip-rule="evenodd" d="M83.0704 30.2419H0.851562L6.32736 0.769531H88.5591L83.0704 30.2419Z" fill="#2E3235"/>
<path fill-rule="evenodd" clip-rule="evenodd" d="M27.0693 17.9379C25.6668 17.9379 24.6842 17.1142 24.6842 15.8261C24.6842 14.3963 25.9063 13.0636 27.6681 13.0636C29.0705 13.0636 30.0532 13.9293 30.0532 15.2187C30.0647 16.638 28.8311 17.9379 27.0693 17.9379ZM27.8961 10.5938C24.2051 10.5938 21.4131 13.0308 21.4131 15.9441C21.4131 18.5872 23.7145 20.4066 26.8542 20.4066C30.5451 20.4066 33.3372 17.8947 33.3372 14.98C33.3242 12.3486 31.0358 10.5938 27.8961 10.5938Z" fill="#E5E5E0"/>
<path fill-rule="evenodd" clip-rule="evenodd" d="M49.3126 17.9379C47.9101 17.9379 46.9276 17.1142 46.9276 15.8261C46.9276 14.3963 48.1497 13.0636 49.9115 13.0636C51.314 13.0636 52.2965 13.9293 52.2965 15.2187C52.2965 16.638 51.0729 17.9379 49.3126 17.9379ZM50.1264 10.5938C46.4355 10.5938 43.6436 13.0308 43.6436 15.9441C43.6436 18.5872 45.945 20.4066 49.0847 20.4066C52.7756 20.4066 55.5676 17.8947 55.5676 14.98C55.5676 12.3486 53.2662 10.5938 50.1264 10.5938Z" fill="#E5E5E0"/>
<path fill-rule="evenodd" clip-rule="evenodd" d="M61.1743 15.2413H60.6953L61.0546 13.2698H61.486C62.5047 13.2698 63.0559 13.5505 63.0559 14.1473C63.0559 14.8832 62.2767 15.2413 61.1743 15.2413ZM66.4236 13.6922C66.4236 11.9265 64.8898 10.7891 62.1209 10.7891H58.2035L56.4893 20.2127H59.7848L60.3245 17.2443H60.4804L62.2291 20.2127H66.0037L63.5839 16.9203C65.3573 16.3668 66.4236 15.1652 66.4236 13.6922Z" fill="#E5E5E0"/>
<path fill-rule="evenodd" clip-rule="evenodd" d="M17.6393 14.5471C16.3927 13.9844 16.1055 13.8323 16.1055 13.5292C16.1055 13.1502 16.5962 12.9665 17.2916 12.9665C18.0823 12.9665 19.2929 13.0413 20.4674 14.0487C20.7546 13.2367 21.2336 12.511 21.8569 11.8719C20.1918 11.027 18.658 10.5938 17.244 10.5938C14.4275 10.5938 12.8215 11.9477 12.8215 13.5725C12.8215 14.9695 13.996 15.7067 15.3985 16.3455C16.6452 16.9305 16.9684 17.1037 16.9684 17.4605C16.9684 17.8396 16.4403 18.0573 15.7462 18.0573C14.5356 18.0573 13.1447 17.3739 12.318 16.6813L11.8389 19.3021C12.7017 19.8544 13.9369 20.4289 15.7939 20.4289C18.6941 20.4289 20.264 19.1185 20.264 17.429C20.2395 16.0425 19.2337 15.2843 17.6393 14.5471Z" fill="#E5E5E0"/>
<path fill-rule="evenodd" clip-rule="evenodd" d="M42.0028 14.9255H38.1431L38.4432 13.2793H42.5771C43.1168 12.2828 43.9435 11.4379 44.9738 10.7988H38.2037C36.706 10.7988 35.4232 11.7195 35.1952 12.9658L33.8779 20.2222H37.1735L37.7117 17.2538H41.6306L41.9177 15.6404C41.9307 15.4017 41.9538 15.1642 42.0028 14.9255Z" fill="#E5E5E0"/>
<path fill-rule="evenodd" clip-rule="evenodd" d="M66.4961 10.7891C67.3705 11.3956 67.9217 12.2405 68.03 13.2698H70.7858L69.5161 20.2022H72.8117L74.0814 13.2698H77.1374L77.5934 10.7891H66.4961Z" fill="#E5E5E0"/>
</g>
</svg>
