<svg width="84" height="33" viewBox="0 0 84 33" fill="none" xmlns="http://www.w3.org/2000/svg">
<path fill-rule="evenodd" clip-rule="evenodd" d="M6.85141 18.3321C4.59404 18.3321 1.97678 19.3832 0.559582 20.4745L1.85789 23.1239C2.99608 22.1114 4.83497 21.2535 6.49312 21.2535C8.07043 21.2535 8.9296 21.7605 8.9296 22.7931C8.9296 23.4933 8.35101 23.8442 7.27147 23.9802C3.19584 24.4872 0 25.5785 0 28.636C0 31.052 1.77707 32.5328 4.53379 32.5328C6.51216 32.5328 8.27016 31.4616 9.10875 30.058V32.1432H12.7849V23.3959C12.7849 19.7928 10.2089 18.3321 6.85141 18.3321ZM5.47381 29.7273C4.4339 29.7273 3.91552 29.2404 3.91552 28.4227C3.91552 26.9032 5.65295 26.3962 8.82975 26.0654C8.85036 28.0919 7.43157 29.7273 5.47381 29.7273ZM47.4476 20.9815V18.7216H43.7714V32.1432H47.7076V25.6759C47.7076 22.5983 49.6051 21.7018 50.943 21.7018C51.463 21.7018 52.1621 21.8579 52.6218 22.1887L53.3415 18.6428C52.7423 18.3893 52.1018 18.3321 51.5835 18.3321C49.5655 18.3321 48.2862 19.2085 47.4476 20.9815ZM71.6018 18.3321C69.5235 18.3321 67.9652 19.5393 67.1457 20.6893C66.3863 19.1884 64.809 18.3321 62.8909 18.3321C60.8127 18.3321 59.3749 19.462 58.6948 20.7465V18.7216H54.8998V32.1432H58.8359V25.2276C58.8359 22.7529 60.1739 21.5658 61.4119 21.5658C62.5311 21.5658 63.5694 22.266 63.5694 24.0977V32.1432H67.5261V25.2276C67.5261 22.7142 68.8245 21.5658 70.1228 21.5658C71.1611 21.5658 72.2612 22.3062 72.2612 24.0776V32.1432H76.1958V22.8704C76.1958 19.8515 74.1191 18.3321 71.6018 18.3321ZM26.6906 17.7277V18.7216H20.7174V17.3567C20.7174 15.5847 21.7557 15.0783 22.6546 15.0783C23.1745 15.0783 23.853 15.1952 24.4126 15.5068L25.6316 12.7991C24.9119 12.3899 23.7341 12.0197 22.1552 12.0197C19.6379 12.0197 16.7813 13.4029 16.7813 17.7478V18.7401H14.5033V21.7018H16.7813V32.1432H20.7174V21.6817H26.6906V32.1432H30.6267V21.6817H34.2014V18.7216H30.6267V17.3567C30.6267 15.5847 31.665 15.0783 32.5639 15.0783C33.5626 15.0783 34.3219 15.5068 34.3219 15.5068L35.5409 12.7991C35.5409 12.7991 34.3013 12.0197 32.0645 12.0197C29.5678 12.0003 26.6906 13.3834 26.6906 17.7277ZM36.5396 18.7216H40.4758V32.1432H36.5396V18.7216Z" fill="#FBFBFC"/>
<path fill-rule="evenodd" clip-rule="evenodd" d="M59.4733 0C48.8443 0 39.3757 7.1883 36.6982 16.4411H40.5535C42.7919 9.5454 50.4026 3.50651 59.4733 3.50651C70.5017 3.50651 80.0116 11.6883 80.0116 24.4279C80.0116 27.2922 79.6311 29.8627 78.9114 32.1427H82.6478L82.6875 32.0252C83.3073 29.668 83.6069 27.1175 83.6069 24.4279C83.6069 10.2272 72.9985 0 59.4733 0Z" fill="#4A4AF4"/>
</svg>
