<svg width="99" height="28" viewBox="0 0 99 28" fill="none" xmlns="http://www.w3.org/2000/svg">
<path d="M60.576 2.07219H61.8244V2.7849H60.576V3.91998H59.7262V2.7849H58.4717V2.07219H59.7262V0.930502H60.576V2.07219ZM65.7697 2.94328H66.4593V3.69561H65.7697V4.77784H64.7891V3.69561H62.2769V2.85089L64.6953 0.079192H65.7697V2.94328ZM64.8107 2.94328V1.03609L63.1482 2.94328H64.8107ZM67.4398 4.83731C67.2705 4.83731 67.1259 4.78665 67.0043 4.68548C66.8888 4.57996 66.8303 4.4501 66.8303 4.29617C66.8303 4.14657 66.8888 4.02117 67.0043 3.91998C67.1259 3.8188 67.2705 3.7682 67.4398 3.7682C67.5999 3.7682 67.737 3.821 67.854 3.92658C67.9694 4.02777 68.0279 4.15091 68.0279 4.29617C68.0279 4.4501 67.9694 4.57996 67.854 4.68548C67.737 4.78665 67.5999 4.83731 67.4398 4.83731ZM71.5961 0.33657C72.1425 0.714925 72.4166 1.39905 72.4166 2.38894C72.4166 3.18966 72.2426 3.81 71.8932 4.24999C71.5499 4.68996 71.0511 4.90994 70.3984 4.90994C69.8858 4.90994 69.4626 4.79547 69.1286 4.56667C68.7991 4.33353 68.6005 4.01238 68.5328 3.60322H69.4472C69.5395 4.01678 69.8536 4.22354 70.3908 4.22354C70.7541 4.22354 71.025 4.09381 71.2035 3.8342C71.3836 3.57462 71.4822 3.16547 71.5022 2.60673C71.2113 2.99828 70.7802 3.19406 70.2091 3.19406C69.6673 3.19406 69.2394 3.04228 68.9253 2.73871C68.6098 2.43954 68.4528 2.07219 68.4528 1.63662C68.4528 1.14828 68.6329 0.752316 68.99 0.448745C69.3486 0.149582 69.8104 0 70.3769 0C70.8557 0 71.262 0.11219 71.5961 0.33657ZM69.6719 2.26355C69.8566 2.43074 70.0906 2.51434 70.3769 2.51434C70.6617 2.51434 70.8973 2.43074 71.0805 2.26355C71.2606 2.10078 71.3498 1.8852 71.3498 1.61682C71.3498 1.35285 71.2606 1.13728 71.0805 0.970091C70.9019 0.802919 70.6679 0.719319 70.3769 0.719319C70.0906 0.719319 69.8566 0.805116 69.6719 0.976696C69.4933 1.14388 69.404 1.35726 69.404 1.61682C69.404 1.8852 69.4933 2.10078 69.6719 2.26355ZM76.0479 0.33657C76.5959 0.714925 76.8683 1.39905 76.8683 2.38894C76.8683 3.18966 76.6944 3.81 76.3465 4.24999C76.0016 4.68996 75.5045 4.90994 74.8502 4.90994C74.3376 4.90994 73.9143 4.79547 73.5803 4.56667C73.2509 4.33353 73.0523 4.01238 72.9846 3.60322H73.899C73.9913 4.01678 74.3053 4.22354 74.8425 4.22354C75.2058 4.22354 75.4767 4.09381 75.6568 3.8342C75.8354 3.57462 75.9339 3.16547 75.9539 2.60673C75.663 2.99828 75.2335 3.19406 74.6624 3.19406C74.119 3.19406 73.6912 3.04228 73.3771 2.73871C73.0616 2.43954 72.9046 2.07219 72.9046 1.63662C72.9046 1.14828 73.0847 0.752316 73.4418 0.448745C73.8005 0.149582 74.2623 0 74.8287 0C75.3075 0 75.7138 0.11219 76.0479 0.33657ZM74.1252 2.26355C74.3084 2.43074 74.544 2.51434 74.8287 2.51434C75.1135 2.51434 75.349 2.43074 75.5322 2.26355C75.7123 2.10078 75.8015 1.8852 75.8015 1.61682C75.8015 1.35285 75.7123 1.13728 75.5322 0.970091C75.3536 0.802919 75.1197 0.719319 74.8287 0.719319C74.544 0.719319 74.3084 0.805116 74.1252 0.976696C73.9451 1.14388 73.8558 1.35726 73.8558 1.61682C73.8558 1.8852 73.9451 2.10078 74.1252 2.26355ZM79.8377 1.44524C79.8377 1.8984 79.7315 2.24816 79.5191 2.49454C79.3051 2.74092 78.991 2.86409 78.5754 2.86409C78.1583 2.86409 77.8443 2.74092 77.6318 2.49454C77.4179 2.24816 77.3116 1.8984 77.3116 1.44524C77.3116 0.983301 77.4179 0.631338 77.6318 0.389355C77.8443 0.142991 78.1583 0.0198017 78.5754 0.0198017C78.991 0.0198017 79.3051 0.142991 79.5191 0.389355C79.7315 0.631338 79.8377 0.983301 79.8377 1.44524ZM79.3882 4.77784H78.7278L81.4863 0.079192H82.1467L79.3882 4.77784ZM78.0305 1.44524C78.0305 2.03919 78.2121 2.33616 78.5754 2.33616C78.9372 2.33616 79.1188 2.03919 79.1188 1.44524C79.1188 0.846916 78.9372 0.547739 78.5754 0.547739C78.2121 0.547739 78.0305 0.846916 78.0305 1.44524ZM83.5614 3.41844C83.5614 3.87159 83.4552 4.2213 83.2428 4.46773C83.0303 4.71417 82.7147 4.83731 82.2991 4.83731C81.8819 4.83731 81.5679 4.71417 81.3555 4.46773C81.1415 4.2213 81.0353 3.87159 81.0353 3.41844C81.0353 2.95649 81.1415 2.60452 81.3555 2.36255C81.5679 2.11617 81.8819 1.99299 82.2991 1.99299C82.7147 1.99299 83.0303 2.11617 83.2428 2.36255C83.4552 2.60452 83.5614 2.95649 83.5614 3.41844ZM82.2991 4.30932C82.6624 4.30932 82.8425 4.01238 82.8425 3.41844C82.8425 2.82009 82.6624 2.52093 82.2991 2.52093C81.9312 2.52093 81.7464 2.82009 81.7464 3.41844C81.7464 4.01238 81.9312 4.30932 82.2991 4.30932Z" fill="white"/>
<path d="M89.3496 0.0800781V0.878588H86.6772V1.98727H89.1094V2.75279H86.6772V4.77872H85.6982V0.0800781H89.3496ZM93.2795 3.13555V3.33354H90.4779C90.5117 3.6239 90.6102 3.84388 90.7749 3.99347C90.9443 4.13864 91.169 4.21127 91.4507 4.21127C91.8664 4.21127 92.1527 4.04846 92.3067 3.72289H93.1856C93.0886 4.07046 92.8854 4.34757 92.576 4.5544C92.2651 4.75675 91.8879 4.85793 91.443 4.85793C90.8858 4.85793 90.4363 4.69518 90.093 4.36968C89.7497 4.04405 89.5774 3.6129 89.5774 3.07616C89.5774 2.53942 89.7467 2.10827 90.0853 1.7827C90.4286 1.45713 90.8766 1.29435 91.4292 1.29435C91.9942 1.29435 92.4451 1.46373 92.7792 1.8025C93.1132 2.14126 93.2795 2.58562 93.2795 3.13555ZM91.4215 1.94108C90.8843 1.94108 90.5718 2.21165 90.4856 2.75279H92.3651C92.3266 2.50202 92.225 2.30404 92.0603 2.15885C91.8956 2.01367 91.6832 1.94108 91.4215 1.94108ZM97.4049 3.13555V3.33354H94.6033C94.6371 3.6239 94.7373 3.84388 94.9004 3.99347C95.0698 4.13864 95.296 4.21127 95.5762 4.21127C95.9918 4.21127 96.2781 4.04846 96.4321 3.72289H97.311C97.214 4.07046 97.0109 4.34757 96.7014 4.5544C96.392 4.75675 96.0149 4.85793 95.5685 4.85793C95.0128 4.85793 94.5617 4.69518 94.2184 4.36968C93.8752 4.04405 93.7028 3.6129 93.7028 3.07616C93.7028 2.53942 93.8722 2.10827 94.2108 1.7827C94.5556 1.45713 95.002 1.29435 95.5546 1.29435C96.1211 1.29435 96.5706 1.46373 96.9047 1.8025C97.2387 2.14126 97.4049 2.58562 97.4049 3.13555ZM95.5469 1.94108C95.0097 1.94108 94.6972 2.21165 94.611 2.75279H96.4905C96.452 2.50202 96.3504 2.30404 96.1857 2.15885C96.021 2.01367 95.8086 1.94108 95.5469 1.94108Z" fill="#009BE1"/>
<path d="M94.9471 9.66425L92.5982 22.9161C92.5674 23.0997 92.7044 23.2728 92.9091 23.3046C92.9291 23.3081 92.9522 23.3081 92.9722 23.3081H95.7553C95.9585 23.3081 96.1325 23.1774 96.1633 22.9974L98.5138 9.74556C98.5446 9.56195 98.4077 9.38885 98.2029 9.35708C98.1829 9.35358 98.1598 9.35358 98.1398 9.35358H95.3567C95.152 9.35009 94.9749 9.48065 94.9471 9.66425ZM91.9762 13.5308H89.3347C89.1346 13.5273 88.9576 13.6613 88.9253 13.8415L88.8391 14.3287C88.8391 14.3287 86.7887 12.3337 83.1605 13.6826C81.0777 14.4559 80.0787 16.0483 79.6538 17.2171C79.6538 17.2171 78.3039 20.7693 81.358 22.7219C81.358 22.7219 84.1919 24.6004 87.3798 22.6055L87.3244 22.9161C87.2967 23.068 87.3875 23.2128 87.5399 23.2763C87.5923 23.2975 87.6461 23.3081 87.7015 23.3081H90.343C90.5478 23.3116 90.7202 23.1774 90.7525 22.9974L92.3581 13.9228C92.3781 13.8238 92.3426 13.725 92.2718 13.6472C92.1933 13.5732 92.0871 13.5308 91.9762 13.5308ZM88.091 18.5483C87.9894 19.1839 87.6307 19.7595 87.0874 20.1761C86.5409 20.5927 85.8436 20.8152 85.1278 20.8082C84.8491 20.8117 84.5644 20.7728 84.2981 20.6986C83.1559 20.3738 82.5062 19.3993 82.6956 18.34C82.7972 17.7043 83.1559 17.1288 83.7039 16.7122C84.2504 16.2956 84.9462 16.0696 85.6635 16.0766C85.9421 16.0731 86.2253 16.112 86.4932 16.186C87.6354 16.5144 88.2803 17.489 88.091 18.5483ZM73.9937 18.799C75.4268 18.799 76.8122 18.3435 77.8975 17.5138C78.9842 16.6874 79.7 15.5364 79.9248 14.2758C80.3851 11.6522 78.0822 9.36058 74.8204 9.36058H69.562C69.3572 9.36058 69.1833 9.49128 69.1525 9.67139L66.7989 22.9233C66.7712 23.0751 66.862 23.2198 67.0159 23.2833C67.0667 23.3046 67.1221 23.3151 67.176 23.3151H69.9591C70.1639 23.3151 70.3378 23.1845 70.3686 23.0044L71.0567 19.1133C71.089 18.9332 71.2614 18.799 71.4661 18.8026L73.9937 18.799ZM76.3197 14.1558C76.1458 15.1268 75.3037 15.8401 73.6951 15.8401H71.6323L72.2573 12.309H74.2801C75.9502 12.3126 76.4921 13.1882 76.3197 14.1558Z" fill="#009BE1"/>
<path d="M63.6264 13.7551L60.443 18.5431L58.8252 13.7904C58.7744 13.635 58.6127 13.5291 58.4311 13.5291H55.5588C55.4048 13.5256 55.2709 13.628 55.2509 13.7621C55.2432 13.8045 55.2508 13.8504 55.2678 13.8928L58.1632 21.8976L55.5433 25.6687C55.4525 25.7958 55.491 25.9618 55.6326 26.0429C55.6372 26.0466 55.6418 26.0501 55.6495 26.0501C55.6957 26.0747 55.7512 26.0888 55.8066 26.0853H58.9037C59.0853 26.0853 59.2501 26.0007 59.344 25.863L67.4332 13.9458C67.4917 13.861 67.4963 13.7551 67.4409 13.6668C67.3855 13.5785 67.2793 13.5256 67.1684 13.5291H64.0758C63.8865 13.5326 63.7218 13.6174 63.6264 13.7551ZM53.9286 13.5291H51.2886C51.0838 13.5291 50.9099 13.6598 50.8791 13.8399L50.7929 14.3272C50.7929 14.3272 48.741 12.3321 45.1082 13.6809C43.027 14.4542 42.0264 16.0468 41.6016 17.2155C41.6016 17.2155 40.2515 20.7676 43.3025 22.7203C43.3025 22.7203 46.1365 24.5988 49.3245 22.6038L49.269 22.9146C49.2413 23.0664 49.3321 23.2111 49.4861 23.2746C49.5369 23.2959 49.5923 23.3064 49.6462 23.3064H52.2877C52.4893 23.3064 52.6663 23.1758 52.6971 22.9957L54.3026 13.9211C54.3303 13.7692 54.2395 13.6209 54.0872 13.5609C54.0348 13.5397 53.9809 13.5291 53.9286 13.5291ZM50.0402 18.5466C49.9386 19.1788 49.5799 19.7578 49.0335 20.1709C48.4855 20.5875 47.7897 20.8135 47.0724 20.8065C46.7938 20.81 46.5136 20.7713 46.2427 20.6971C45.1051 20.3722 44.4509 19.3976 44.6402 18.3384C44.7433 17.7028 45.1051 17.1237 45.6515 16.7105C46.1995 16.2939 46.8999 16.0714 47.6157 16.0785C47.8959 16.075 48.1792 16.1138 48.447 16.188C49.5877 16.5128 50.2326 17.4874 50.0402 18.5466ZM35.9429 18.7974C37.3714 18.7974 38.7522 18.3419 39.8421 17.5086C40.9289 16.6824 41.6446 15.5347 41.8663 14.2706C42.3297 11.6471 40.0237 9.35554 36.7603 9.35554H31.5035C31.2988 9.3519 31.1248 9.4861 31.094 9.66621L28.7481 22.9146C28.7204 23.0664 28.8112 23.2146 28.9636 23.2746C29.0159 23.2959 29.0698 23.3064 29.1253 23.3064H31.9083C32.1131 23.3064 32.2855 23.1758 32.3178 22.9957L33.0059 19.1046C33.0382 18.9245 33.2106 18.7903 33.4154 18.7938L35.9429 18.7974ZM38.2719 14.1541C38.0995 15.1251 37.2576 15.8384 35.6474 15.8384H33.5847L34.2112 12.3074H36.2339C37.9025 12.3109 38.4459 13.1867 38.2719 14.1541Z" fill="white"/>
<path d="M6.28153 16.9136L5.15474 23.3399L4.44661 27.3688C4.39581 27.6655 4.62058 27.9444 4.95462 27.9938C4.98541 27.9974 5.01779 28.0009 5.04857 28.0009H8.95686C9.32784 28.0009 9.63881 27.7608 9.69731 27.4325L10.7286 21.5744C10.7871 21.2496 11.0981 21.0095 11.4691 21.006H13.7704C17.3955 21.006 20.4696 18.6332 21.033 15.4199C21.4302 13.1389 20.151 11.0627 17.962 10.0352C17.959 10.2788 17.9343 10.5189 17.8912 10.7591C17.3293 13.9722 14.2553 16.345 10.6348 16.345H7.03269C6.65555 16.3485 6.34002 16.5887 6.28153 16.9136Z" fill="#009BE1"/>
<path d="M5.15214 23.3393H0.606471C0.272435 23.3393 0 23.0957 0 22.7955C0 22.7673 0.00462553 22.7391 0.0077042 22.7109L3.07407 5.26765C3.13257 4.94285 3.44354 4.70272 3.81452 4.69922H11.6312C15.3302 4.69922 18.0225 7.11444 17.9594 10.0416C17.0389 9.60733 15.9568 9.36005 14.7715 9.36005H8.24932C7.87988 9.36005 7.56896 9.60019 7.51047 9.92863L6.28203 16.92L5.15214 23.3393Z" fill="white"/>
</svg>
