<svg width="58" height="50" viewBox="0 0 58 50" fill="none" xmlns="http://www.w3.org/2000/svg">
<path d="M7.56897 5.61538V44.3846H30.1118C44.9824 44.3846 51.431 36.0346 51.431 24.9621C51.431 13.9325 44.9824 5.61538 30.1118 5.61538H7.56897Z" fill="#6D6D91"/>
<path d="M9.39655 7.46154H29.6623C43.4173 7.46154 48.6897 14.9959 48.6897 24.5002C48.6897 35.8969 41.3271 41.6154 29.6623 41.6154H9.39655V7.46154ZM11.3612 9.43217V39.646H29.6623C40.7115 39.646 46.7232 34.4817 46.7232 24.5002C46.7232 14.2422 40.2064 9.43157 29.6623 9.43157L11.3612 9.43217Z" fill="black"/>
<path d="M13.9655 26.8462H19.4483V37H13.9655V26.8462Z" fill="black"/>
<path d="M17.6207 25.9231C19.6394 25.9231 21.2759 24.27 21.2759 22.2308C21.2759 20.1916 19.6394 18.5385 17.6207 18.5385C15.602 18.5385 13.9655 20.1916 13.9655 22.2308C13.9655 24.27 15.602 25.9231 17.6207 25.9231Z" fill="black"/>
<path d="M32.566 23.1775V24.8466H28.3354V18.1489H32.4309V19.8174H30.0459V20.5928H32.3012V22.2619H30.0459V23.1781L32.566 23.1775ZM33.3062 24.8478L35.3765 18.1465H37.8102L39.8798 24.8478H38.0993L37.7109 23.5516H35.4733L35.0843 24.8478H33.3062ZM35.9749 21.8843H37.213L36.6451 19.9913H36.5416L35.9749 21.8843ZM40.7399 18.1471H42.4517V23.1781H44.9852C44.29 14.0494 36.9294 12.0769 30.2371 12.0769H23.1047V18.1506H24.1602C26.085 18.1506 27.2799 19.4237 27.2799 21.4722C27.2799 23.586 26.1136 24.8478 24.1602 24.8478H23.1047V37H30.2377C41.1131 37 44.9006 32.0729 45.0345 24.8466H40.7399V18.1471ZM23.1034 19.8191V23.1781H24.1602C24.8925 23.1781 25.5694 22.9715 25.5694 21.4716C25.5694 20.0068 24.8164 19.8191 24.1602 19.8191H23.1034Z" fill="#272742"/>
</svg>
