<svg width="140" height="50" viewBox="0 0 140 50" fill="none" xmlns="http://www.w3.org/2000/svg">
<path d="M128.498 15.4387L125.536 34.143C125.496 34.4021 125.67 34.6463 125.928 34.6912C125.953 34.6962 125.982 34.6962 126.007 34.6962H129.516C129.774 34.6962 129.992 34.5118 130.032 34.2576L132.994 15.5533C133.034 15.2941 132.86 15.0499 132.602 15.0051C132.577 15.0001 132.548 15.0001 132.523 15.0001H129.014C128.756 14.9951 128.533 15.1795 128.498 15.4387ZM124.752 20.896H121.422C121.169 20.891 120.945 21.0804 120.906 21.3345L120.796 22.0223C120.796 22.0223 118.211 19.2064 113.635 21.1103C111.01 22.2017 109.75 24.4494 109.214 26.0991C109.214 26.0991 107.512 31.1128 111.363 33.8689C111.363 33.8689 114.936 36.5203 118.955 33.7044L118.886 34.143C118.851 34.3573 118.965 34.5616 119.159 34.6513C119.223 34.6812 119.293 34.6962 119.362 34.6962H122.692C122.95 34.7012 123.169 34.5118 123.208 34.2576L125.233 21.4492C125.258 21.3096 125.213 21.1701 125.124 21.0604C125.025 20.9558 124.891 20.896 124.752 20.896ZM119.854 27.978C119.725 28.8751 119.273 29.6874 118.588 30.2755C117.898 30.8636 117.02 31.1776 116.117 31.1676C115.764 31.1726 115.407 31.1178 115.07 31.0131C113.631 30.5546 112.812 29.1791 113.05 27.6839C113.179 26.7868 113.631 25.9745 114.32 25.3864C115.01 24.7983 115.888 24.4793 116.792 24.4893C117.144 24.4843 117.501 24.5391 117.839 24.6438C119.278 25.1073 120.092 26.4828 119.854 27.978ZM102.078 28.3318C103.884 28.3318 105.631 27.6889 107.001 26.5177C108.37 25.3515 109.273 23.7268 109.556 21.9476C110.137 18.2446 107.234 15.0101 103.12 15.0101H96.4899C96.2318 15.0101 96.0135 15.1945 95.9738 15.4486L93.0062 34.1529C92.9715 34.3672 93.0856 34.5716 93.2791 34.6613C93.3436 34.6912 93.4131 34.7061 93.4826 34.7061H96.9911C97.2492 34.7061 97.4675 34.5217 97.5072 34.2676L98.3757 28.7754C98.4154 28.5212 98.6337 28.3318 98.8918 28.3368L102.078 28.3318ZM105.011 21.7781C104.792 23.1487 103.73 24.1554 101.701 24.1554H99.1002L99.8892 19.1716H102.44C104.544 19.1765 105.229 20.4125 105.011 21.7781Z" fill="#6D6D91"/>
<path d="M89.1264 21.0484L85.0988 27.6307L83.0526 21.097C82.9879 20.8834 82.7837 20.7378 82.5547 20.7378H78.9203C78.7262 20.7329 78.5569 20.8737 78.532 21.0581C78.5221 21.1164 78.532 21.1795 78.5519 21.2377L82.2162 32.2422L78.9004 37.4265C78.7859 37.6012 78.8357 37.8294 79.0149 37.941C79.0199 37.9459 79.0249 37.9507 79.0349 37.9507C79.0946 37.9847 79.1643 38.0041 79.234 37.9993H83.1521C83.3811 37.9993 83.5903 37.8828 83.7097 37.6935L93.9407 21.3105C94.0154 21.194 94.0204 21.0484 93.9507 20.9271C93.881 20.8057 93.7466 20.7329 93.6072 20.7378H89.694C89.455 20.7426 89.2459 20.8591 89.1264 21.0484ZM76.8592 20.7378H73.5186C73.2597 20.7378 73.0406 20.9174 73.0008 21.1649L72.8913 21.8348C72.8913 21.8348 70.2974 19.0922 65.7022 20.9465C63.0685 22.0096 61.804 24.1988 61.2663 25.8055C61.2663 25.8055 59.5586 30.6888 63.417 33.3732C63.417 33.3732 67.0016 35.9557 71.0343 33.213L70.9646 33.6402C70.9297 33.8489 71.0442 34.048 71.2384 34.1353C71.3031 34.1645 71.3728 34.179 71.4425 34.179H74.7831C75.037 34.179 75.2611 33.9994 75.3009 33.7518L77.3322 21.2766C77.367 21.0678 77.2525 20.864 77.0584 20.7814C76.9936 20.7523 76.9239 20.7378 76.8592 20.7378ZM71.9404 27.6356C71.8109 28.5045 71.3579 29.3005 70.6658 29.8685C69.9738 30.4413 69.0926 30.752 68.1865 30.7422C67.833 30.7471 67.4795 30.6937 67.136 30.5918C65.6972 30.1452 64.8708 28.8054 65.1097 27.3492C65.2392 26.4754 65.6972 25.6793 66.3892 25.1114C67.0813 24.5386 67.9675 24.2328 68.8736 24.2425C69.227 24.2376 69.5855 24.291 69.924 24.393C71.3678 24.8395 72.1843 26.1793 71.9404 27.6356ZM54.1071 27.9802C55.9143 27.9802 57.6618 27.354 59.0409 26.2084C60.4149 25.0725 61.321 23.4949 61.5998 21.7571C62.1873 18.1505 59.2699 15.0001 55.1426 15.0001H48.4912C48.2323 14.9952 48.0133 15.1797 47.9734 15.4273L45.0062 33.6402C44.9714 33.8489 45.0859 34.0528 45.28 34.1353C45.3448 34.1645 45.4145 34.179 45.4842 34.179H49.004C49.2629 34.179 49.482 33.9994 49.5218 33.7518L50.393 28.4025C50.4329 28.155 50.6519 27.9705 50.9108 27.9754L54.1071 27.9802ZM57.0544 21.5969C56.8353 22.9318 55.7699 23.9124 53.7337 23.9124H51.1249L51.9165 19.0582H54.4755C56.5864 19.0631 57.2734 20.2669 57.0544 21.5969Z" fill="#272742"/>
<path d="M31.2926 15.1968C31.3715 11.1243 27.9987 8 23.3635 8H13.7775C13.3139 8 12.9244 8.33405 12.8504 8.79091L9.0091 32.7049C8.945 33.1176 9.22607 33.5057 9.64521 33.5745C9.68466 33.5794 9.72411 33.5843 9.76356 33.5843H15.4442L14.5566 39.1207C14.4925 39.5333 14.7735 39.9214 15.1927 39.9902C15.2321 39.9951 15.2716 40 15.311 40H19.9364C20.1583 40 20.3604 39.9214 20.5281 39.774C20.6957 39.6316 20.7253 39.4301 20.7599 39.2091L22.1159 31.2459C22.1504 31.0249 22.2638 30.7399 22.4315 30.5975C22.5991 30.455 22.7471 30.3715 22.9739 30.3715H25.8043C30.3459 30.3715 34.197 27.1587 34.8972 22.6835C35.4002 19.5149 34.0343 16.6263 31.2926 15.1968Z" fill="#272742"/>
<path d="M16.3204 25.5715L14.0092 40.1205C13.9447 40.5332 14.2274 40.9214 14.649 40.9902C14.6886 40.9951 14.7283 41 14.768 41H19.6929C20.1592 41 20.551 40.6659 20.6254 40.2089L21.9248 32.0574C21.9992 31.6053 22.391 31.2712 22.8572 31.2663H25.7586C30.3265 31.2663 34.2 27.9644 34.9092 23.4931C35.4102 20.319 33.7983 17.4298 31.0407 16C31.0357 16.339 31.006 16.6732 30.9514 17.0073C30.2422 21.4786 26.3687 24.7805 21.8058 24.7805H17.2677C16.7915 24.7854 16.3948 25.1195 16.3204 25.5715Z" fill="#6D6D91"/>
<path d="M14.5977 34H8.7762C8.34778 34 8 33.6602 8 33.2415C8 33.2021 8.00504 33.1627 8.01008 33.1233L11.9364 8.79295C12.012 8.33984 12.4102 8.00493 12.884 8H22.8939C27.6317 8 31.0793 11.3688 30.9986 15.4518C29.8192 14.846 28.4331 14.5012 26.916 14.5012H18.5643C18.0906 14.5012 17.6924 14.8361 17.6168 15.2942L14.5977 34Z" fill="#272742"/>
</svg>
