<svg width="153" height="50" viewBox="0 0 153 50" fill="none" xmlns="http://www.w3.org/2000/svg">
<path d="M56.1224 21.1321C55.9915 21.2156 55.8279 21.2491 55.6807 21.2156C55.5334 21.1822 55.3861 21.0987 55.3043 20.965C54.8462 20.2967 54.2408 19.762 53.5372 19.3944C52.8337 19.0268 52.0319 18.8431 51.2465 18.8765C48.1541 18.8765 46.2397 21.3827 46.2397 24.9583C46.2397 28.5339 48.1704 31.0902 51.2792 31.0902C52.081 31.107 52.8827 30.9232 53.6027 30.5389C54.3226 30.1546 54.928 29.5865 55.3698 28.9015C55.4516 28.7678 55.5825 28.6842 55.7461 28.6508C55.8934 28.6174 56.057 28.6341 56.1879 28.7177L57.6605 29.5865C57.7423 29.6199 57.8077 29.6867 57.8732 29.7536C57.9386 29.8204 57.9714 29.904 57.9877 30.0042C58.0041 30.0877 58.0041 30.188 57.9877 30.2715C57.9714 30.3551 57.9386 30.4553 57.8896 30.5222C57.1696 31.6249 56.1879 32.5272 55.0425 33.1287C53.8972 33.7302 52.6046 34.0309 51.312 33.9975C46.3542 33.9975 43 30.3217 43 24.975C43 19.6283 46.3542 16.0026 51.2465 16.0026C52.5228 15.9692 53.7827 16.2533 54.928 16.8213C56.0734 17.4061 57.0551 18.2583 57.8077 19.3109C57.8568 19.3777 57.8896 19.4613 57.9223 19.5448C57.9386 19.6283 57.9386 19.7119 57.9223 19.8121C57.9059 19.8957 57.8732 19.9792 57.8241 20.0628C57.775 20.1463 57.7096 20.1964 57.6441 20.2466L56.1224 21.1321Z" fill="#6D6D91"/>
<path fill-rule="evenodd" clip-rule="evenodd" d="M67.0843 32.3831V33.0945C67.0843 33.1754 67.1009 33.2562 67.134 33.3371C67.1672 33.4179 67.2169 33.4826 67.2831 33.5311C67.3494 33.5958 67.4157 33.6281 67.4985 33.6604C67.5813 33.6928 67.6642 33.709 67.747 33.6928H69.3871C69.4699 33.6928 69.5527 33.6766 69.619 33.6443C69.7018 33.6119 69.7681 33.5634 69.8178 33.5149C69.884 33.4502 69.9172 33.3856 69.9503 33.3209C69.9834 33.2401 70 33.1592 70 33.0945V25.0908C70 22.1965 67.8961 21 64.8976 21C63.2244 21 61.5678 21.4042 60.0768 22.1803C59.9277 22.2612 59.8283 22.3905 59.7786 22.5361C59.7289 22.6816 59.7455 22.8433 59.8117 22.9888L60.3419 24.0883C60.375 24.1692 60.4247 24.2338 60.491 24.2823C60.5572 24.3308 60.6235 24.3794 60.7063 24.3955C60.7892 24.4279 60.872 24.4279 60.9548 24.4279C61.0377 24.4279 61.1205 24.3955 61.1867 24.3632C62.247 23.8296 63.4232 23.5386 64.616 23.5224C65.6596 23.5224 66.8855 23.7973 66.8855 24.8321C66.8855 25.9154 65.5437 26.1095 63.887 26.3358C63.7545 26.352 63.622 26.3682 63.4895 26.3843C61.7831 26.6107 59 27.1443 59 30.1679C59 32.6095 60.8057 34 63.4066 34C65.2123 33.9838 66.3057 33.3694 67.0843 32.3831ZM64.5166 28.26C65.5105 28.0821 66.4051 27.9366 66.9187 27.5647V28.9876C66.9187 30.847 65.5437 31.6555 64.0693 31.6555C62.8765 31.6555 62.0648 31.1381 62.0648 30.0386C62.0648 28.842 63.009 28.5348 64.1355 28.3408C64.2681 28.3085 64.4006 28.2761 64.5166 28.26Z" fill="#6D6D91"/>
<path d="M73.0007 31.3027C73.1008 31.1841 73.2509 31.0993 73.4176 31.0824C73.5844 31.0654 73.7512 31.1163 73.868 31.218C74.9187 32.0314 76.2196 32.455 77.5372 32.4211C78.9048 32.4211 79.9055 31.9805 79.9055 30.896C79.9055 29.9131 78.9882 29.7097 76.7533 29.32C74.385 28.9133 72.1167 28.1168 72.1167 25.3715C72.1167 22.5076 74.5518 21.3044 77.3204 21.3044C79.0549 21.2705 80.7561 21.8466 82.1404 22.9143C82.2071 22.9651 82.2571 23.0329 82.3072 23.1176C82.3405 23.2023 82.3739 23.2701 82.3739 23.3718C82.3739 23.4565 82.3739 23.5413 82.3405 23.626C82.3072 23.7107 82.2738 23.7785 82.2071 23.8463L81.4232 24.7953C81.3231 24.9139 81.173 24.9987 81.0063 25.0156C80.8395 25.0326 80.6894 24.9817 80.5559 24.897C79.5886 24.1683 78.4044 23.7955 77.2036 23.8124C76.0361 23.8124 75.0188 24.1513 75.0188 25.1003C75.0188 26.1341 76.4531 26.3374 77.8874 26.5916C80.9395 27.1339 82.8909 28.0151 82.8909 30.6079C82.8909 33.3193 80.7561 34.997 77.3704 34.997C75.5191 35.0478 73.7012 34.4547 72.2335 33.3024C72.1668 33.2515 72.1167 33.1837 72.0667 33.099C72.0334 33.0312 72 32.9465 72 32.8617C72 32.777 72 32.6923 72.0334 32.6076C72.0667 32.5228 72.1001 32.455 72.1501 32.3873L73.0007 31.3027ZM84.7589 33.9802V17.644C84.7589 17.5592 84.7755 17.4745 84.8089 17.3898C84.8422 17.305 84.8923 17.2372 84.9423 17.1864C85.009 17.1186 85.0757 17.0847 85.1425 17.0508C85.2258 17.0169 85.3092 17 85.376 17H87.1939C87.5441 17 87.8277 17.2881 87.8277 17.644V23.2193C88.278 22.6092 88.8784 22.1178 89.5455 21.7789C90.2293 21.4399 90.9799 21.2874 91.7304 21.3044C94.4156 21.3044 96 23.2532 96 26.0324V33.9802C96 34.0649 95.9833 34.1497 95.95 34.2175C95.9166 34.3022 95.8666 34.37 95.8165 34.4208C95.7498 34.4886 95.6831 34.5225 95.6164 34.5564C95.533 34.5903 95.4496 34.6072 95.3829 34.6072H93.565C93.3982 34.6072 93.2314 34.5394 93.1147 34.4208C92.9979 34.3022 92.9312 34.1327 92.9312 33.9633V26.7441C92.9312 25.3545 92.4976 24.1005 90.7464 24.1005C89.0952 24.1005 87.8277 25.2867 87.8277 27.2525V33.9633C87.8277 34.1327 87.7609 34.3022 87.6442 34.4208C87.5275 34.5394 87.3607 34.6072 87.1939 34.6072H85.376C85.2926 34.6072 85.2092 34.5903 85.1258 34.5564C85.0424 34.5225 84.9757 34.4716 84.9256 34.4208C84.8589 34.353 84.8256 34.2852 84.7922 34.2175C84.7755 34.1497 84.7589 34.0649 84.7589 33.9802Z" fill="#6D6D91"/>
<path fill-rule="evenodd" clip-rule="evenodd" d="M115.292 29.7041L116.609 33.4779C116.643 33.6081 116.726 33.7057 116.826 33.787C116.926 33.8683 117.059 33.9009 117.193 33.9171H119.443C119.543 33.9171 119.643 33.9009 119.743 33.8521C119.827 33.8033 119.91 33.7382 119.977 33.6569C120.043 33.5755 120.077 33.4779 120.093 33.3803C120.11 33.2827 120.093 33.1851 120.06 33.0875L114.125 17.4067C114.075 17.2928 113.992 17.1789 113.892 17.1139C113.792 17.0488 113.659 17 113.525 17H110.608C110.475 17 110.358 17.0325 110.258 17.0976C110.158 17.1627 110.075 17.2603 110.025 17.3741L104.04 33.0713C104.007 33.1689 103.99 33.2665 104.007 33.3641C104.023 33.4617 104.057 33.5593 104.107 33.6406C104.157 33.7219 104.24 33.787 104.34 33.8358C104.423 33.8846 104.523 33.9009 104.623 33.9009H106.757C106.891 33.9009 107.024 33.8683 107.124 33.787C107.224 33.7057 107.307 33.6081 107.357 33.4779L108.674 29.7041H115.292ZM109.474 27.0689L112.025 19.7328L114.476 27.0689H109.474ZM124.611 22.9861V22.0101C124.611 21.9287 124.595 21.8474 124.578 21.7661C124.544 21.6847 124.494 21.6197 124.444 21.5546C124.378 21.4895 124.311 21.4407 124.228 21.4082C124.144 21.3757 124.061 21.3594 123.978 21.3594H122.161C121.811 21.3594 121.527 21.6359 121.527 21.9775V37.3819C121.527 37.7235 121.811 38 122.161 38H123.978C124.328 38 124.611 37.7235 124.611 37.3819V32.2742C125.061 32.8923 125.645 33.3803 126.345 33.7057C127.028 34.031 127.795 34.1936 128.562 34.1611C132.046 34.1611 134.313 31.3145 134.313 27.622C134.313 23.9295 132.063 21.1154 128.562 21.1154C127.795 21.0829 127.028 21.2455 126.345 21.5709C125.661 21.8799 125.061 22.3679 124.611 22.9861ZM131.079 27.622C131.079 29.7692 130.062 31.5585 127.929 31.5585C125.761 31.5585 124.628 29.7854 124.628 27.622C124.628 25.4586 125.811 23.7343 127.929 23.7343C130.046 23.7343 131.079 25.4748 131.079 27.622ZM139.298 22.9861V22.0101C139.298 21.9287 139.298 21.8474 139.264 21.7661C139.231 21.6847 139.181 21.6197 139.131 21.5546C139.064 21.4895 138.998 21.4407 138.914 21.4082C138.831 21.3757 138.748 21.3594 138.664 21.3594H136.847C136.681 21.3594 136.514 21.4245 136.397 21.5383C136.28 21.6522 136.214 21.8149 136.214 21.9775V37.3819C136.214 37.7235 136.497 38 136.847 38H138.664C139.014 38 139.298 37.7235 139.298 37.3819V32.2742C139.748 32.8923 140.331 33.3803 141.032 33.7057C141.715 34.031 142.482 34.1936 143.249 34.1611C146.749 34.1611 149 31.3145 149 27.622C149 23.9295 146.749 21.1154 143.249 21.1154C142.482 21.0829 141.715 21.2455 141.032 21.5709C140.348 21.8799 139.748 22.3679 139.298 22.9861ZM145.766 27.622C145.766 29.7692 144.749 31.5585 142.615 31.5585C140.448 31.5585 139.314 29.7854 139.314 27.622C139.314 25.4586 140.498 23.7343 142.615 23.7343C144.716 23.7343 145.766 25.4748 145.766 27.622Z" fill="#6D6D91"/>
<path fill-rule="evenodd" clip-rule="evenodd" d="M26.1241 8C29.5457 8 31.2399 8 33.1001 8.58162C34.0967 8.94721 34.9937 9.51222 35.7411 10.26C36.4885 11.0078 37.0699 11.9052 37.4187 12.9022C38 14.7468 38 16.4418 38 19.8651V30.1349C38 33.5415 38 35.2532 37.4187 37.0978C37.0532 38.0948 36.4885 38.9922 35.7411 39.74C34.9937 40.4878 34.0967 41.0694 33.1001 41.4184C31.2565 42 29.5623 42 26.1407 42H15.8427C12.4377 42 10.7269 42 8.88324 41.4184C7.88666 41.0528 6.98974 40.4878 6.24231 39.74C5.49487 38.9922 4.91353 38.0948 4.56473 37.0978C4 35.2532 4 33.5748 4 30.1349V19.8485C4 16.4418 4 14.7302 4.58134 12.8856C4.94675 11.8886 5.51148 10.9912 6.25892 10.2434C7.00635 9.4956 7.90327 8.91398 8.89985 8.565C10.7269 8 12.4377 8 15.8427 8H26.1241Z" fill="#272742"/>
<path d="M21.8665 19.2552C23.5657 19.2552 25.1977 19.8427 26.4932 20.9036C26.6278 21.0178 26.796 21.0831 26.9811 21.0831C27.1661 21.0831 27.3344 21.0015 27.469 20.8872L28.7981 19.5979C28.8654 19.5326 28.9159 19.451 28.9495 19.3694C28.9832 19.2878 29 19.1899 29 19.1083C29 19.0104 28.9664 18.9288 28.9327 18.8472C28.8991 18.7656 28.8318 18.684 28.7645 18.635C27.7213 17.77 26.51 17.1172 25.2145 16.7092L25.6183 14.7997C25.6351 14.7018 25.6351 14.6039 25.6183 14.5059C25.6015 14.408 25.551 14.3264 25.4837 14.2448C25.4164 14.1632 25.3323 14.0979 25.2482 14.0653C25.1472 14.0163 25.0463 14 24.9453 14H22.388C22.2366 14 22.0683 14.049 21.9506 14.1469C21.8328 14.2448 21.7487 14.3754 21.6982 14.5223L21.3449 16.2196C17.9295 16.3828 15.0358 18.0148 15.0358 21.3769C15.0358 24.2819 17.4248 25.5223 19.9485 26.4036C22.3375 27.2685 23.5994 27.5786 23.5994 28.8027C23.5994 30.0104 22.3375 30.7774 20.47 30.7774C18.6698 30.8101 16.9201 30.141 15.6078 28.9332C15.4732 28.8027 15.3049 28.7374 15.1199 28.7374C14.9348 28.7374 14.7666 28.8027 14.632 28.9332L13.2019 30.2878C13.1346 30.3531 13.0841 30.4184 13.0505 30.5C13.0168 30.5816 13 30.6795 13 30.7611C13 30.8591 13.0168 30.9407 13.0505 31.0223C13.0841 31.1039 13.1346 31.1855 13.2019 31.2344C14.3628 32.2953 15.776 33.046 17.3239 33.4214L16.9201 35.184C16.9033 35.2819 16.9033 35.3798 16.9201 35.4777C16.9369 35.5757 16.9874 35.6736 17.0547 35.7389C17.122 35.8205 17.2061 35.8858 17.2902 35.9347C17.3912 35.9837 17.4921 36 17.5931 36H20.1672C20.3186 36 20.4869 35.951 20.6046 35.8531C20.7224 35.7552 20.8233 35.6246 20.857 35.4614L21.2271 33.7804C25.3155 33.5356 27.8055 31.3976 27.8055 28.2804C27.8055 25.408 25.3155 24.2003 22.2871 23.2047C20.5542 22.5683 19.0568 22.1602 19.0568 20.9199C19.0736 19.6958 20.47 19.2552 21.8665 19.2552Z" fill="#6D6D91"/>
</svg>
