<svg width="15" height="16" viewBox="0 0 15 16" fill="none" xmlns="http://www.w3.org/2000/svg">
<path d="M5.92298 3.92292V6.75415C5.92298 7.64822 6.62682 8.37036 7.49824 8.37036C8.34732 8.37036 9.05116 7.64822 9.07351 6.75415V3.92292C9.07351 3.02885 8.36967 2.28379 7.49824 2.28379C6.62682 2.29526 5.92298 3.04032 5.92298 3.92292Z" fill="white"/>
<path d="M12.548 1.02292C11.5761 1.02292 10.9057 1.72213 10.0567 2.16917C10.012 2.19209 9.93376 2.21502 9.86673 2.23794V6.75415C9.84438 8.09526 8.78303 9.18419 7.49824 9.18419C6.19111 9.18419 5.12976 8.07233 5.12976 6.7083V2.21502L4.93984 2.14625C4.09076 1.72213 3.44278 1 2.44846 1C0.78382 1 -0.433937 2.78814 0.147012 4.42727C0.392798 5.14941 0.895541 5.53913 1.47649 5.94032C2.18033 6.41028 2.82831 7.00632 3.36457 7.68261C4.13544 8.70277 4.67171 9.91779 4.91749 11.1787C5.04039 11.7747 5.10742 12.5885 5.16328 13.1387C5.28617 14.434 6.13525 15.5 7.50942 15.5C8.88358 15.5 9.73266 14.434 9.85555 13.1387C9.90024 12.5656 9.97845 11.7747 10.1013 11.1787C10.3471 9.91779 10.8722 8.70277 11.6543 7.68261C12.1905 6.9834 12.8162 6.42174 13.5423 5.94032C14.1233 5.53913 14.626 5.14941 14.8718 4.42727C15.4081 2.81107 14.1903 1.02292 12.548 1.02292Z" fill="white"/>
</svg>
