<svg viewBox="0 0 20 19" fill="none" xmlns="http://www.w3.org/2000/svg">
<path d="M7.89731 3.83004V7.53992C7.89731 8.71146 8.83576 9.65771 9.99766 9.65771C11.1298 9.65771 12.0682 8.71146 12.098 7.53992V3.83004C12.098 2.6585 11.1596 1.68221 9.99766 1.68221C8.83576 1.69723 7.89731 2.67352 7.89731 3.83004Z" fill="#FFBE20"/>
<path d="M16.7307 0.0300391C15.4347 0.0300391 14.541 0.946245 13.4089 1.53202C13.3493 1.56205 13.245 1.5921 13.1556 1.62213V7.53992C13.1258 9.29723 11.7107 10.7241 9.99766 10.7241C8.25481 10.7241 6.83968 9.26719 6.83968 7.47984V1.59209L6.58645 1.50198C5.45434 0.946245 4.59037 0 3.26461 0C1.04509 0 -0.578582 2.34308 0.196016 4.49091C0.52373 5.43715 1.19405 5.94783 1.96865 6.47352C2.90711 7.08933 3.77108 7.87036 4.48609 8.75652C5.51393 10.0933 6.22894 11.6854 6.55666 13.3376C6.72051 14.1186 6.80989 15.185 6.88437 15.9059C7.04823 17.6032 8.18033 19 10.0126 19C11.8448 19 12.9769 17.6032 13.1407 15.9059C13.2003 15.1549 13.3046 14.1186 13.4685 13.3376C13.7962 11.6854 14.4963 10.0933 15.539 8.75652C16.254 7.84032 17.0882 7.10435 18.0565 6.47352C18.8311 5.94783 19.5014 5.43715 19.8291 4.49091C20.5441 2.37312 18.9204 0.0300391 16.7307 0.0300391Z" fill="#FFBE20"/>
</svg>
