<svg width="30" height="30" viewBox="0 0 30 30" fill="#6d6d91" xmlns="http://www.w3.org/2000/svg">
<path d="M15.5996 18.532V11.4654H17.5996V18.532H15.5996Z" fill="#6d6d91"/>
<path d="M12.3996 18.532V11.4654H14.3996V18.532H12.3996Z" fill="#6d6d91"/>
<path d="M26.0663 15.7587L26.1063 13.5454L26.133 11.332H28.533V18.6654L25.7996 18.6787L23.893 16.732C22.853 15.6654 21.9596 14.8254 21.893 14.8654C21.8396 14.9054 20.9996 15.732 18.2663 18.4654L18.2796 15.3987L21.933 11.5854L26.0663 15.7587Z" fill="#6d6d91"/>
<path d="M1.46631 18.6654V11.332H4.19964L8.06631 15.2254L11.733 11.532L11.7196 14.5987L8.06631 18.4254L3.86631 14.1987V18.6654H1.46631Z" fill="#6d6d91"/>
</svg>
