<svg width="30" height="30" viewBox="0 0 30 30" fill="#6d6d91" xmlns="http://www.w3.org/2000/svg">
<path d="M7.99307 7.59095L7.96364 6.30469H21.8487L21.8193 7.59095L19.5411 7.61925V8.87827C19.5411 9.5707 19.5234 10.137 19.5018 10.1366C19.4802 10.1362 18.6494 9.86659 17.6557 9.53731L15.8489 8.93859L15.8195 7.6172H13.9928L13.9635 8.94164L13.0993 9.22482C12.6241 9.38059 11.8067 9.64961 11.2831 9.82265C10.7594 9.99564 10.3175 10.1372 10.3011 10.1372C10.2847 10.1372 10.2712 9.5707 10.2712 8.87827V7.61925L7.99307 7.59095Z" fill="#6d6d91"/>
<path fill-rule="evenodd" clip-rule="evenodd" d="M10.1741 10.5778C10.2283 10.5367 14.0634 9.25386 14.7752 9.03881C14.8615 9.01277 15.0402 9.04055 15.299 9.1203C16.0435 9.34972 19.5674 10.5338 19.6385 10.5784C19.6472 10.5838 19.6549 10.5864 19.6617 10.5907C19.7156 10.6248 19.7027 10.7647 19.5397 13.3135C19.4843 14.1798 19.4259 14.9996 19.41 15.1354L19.381 15.3823L20.1026 16.1238C20.4995 16.5317 20.8313 16.8962 20.84 16.934C20.8486 16.9718 20.7072 17.1796 20.5257 17.3958C20.2578 17.7157 19.9907 18.0362 19.7244 18.3574C19.4651 18.6701 19.1705 19.0156 19.0697 19.1252L18.8864 19.3246L18.2904 19.0859C17.9626 18.9547 17.6568 18.8545 17.611 18.8634C17.5545 18.8743 17.4832 19.0396 17.3893 19.3778C17.3131 19.6519 17.1887 20.0769 17.1128 20.3224L16.9748 20.7686L16.3594 20.9462C16.021 21.0439 15.5556 21.1762 15.3251 21.2403L14.9062 21.3569L14.4872 21.241C13.4987 20.9675 12.9121 20.7818 12.8569 20.7248C12.804 20.67 12.6793 20.2773 12.3789 19.22C12.2576 18.7933 12.2549 18.7929 11.525 19.083C11.1989 19.2126 10.913 19.3068 10.8896 19.2923C10.8513 19.2686 10.1114 18.3974 9.64279 17.8244C9.24198 17.3342 8.96195 16.9686 8.96195 16.9353C8.96195 16.9161 9.29268 16.5596 9.69689 16.1431L10.4318 15.3859L10.4026 15.1372C10.3777 14.9256 10.2721 13.3504 10.1375 11.1851C10.1105 10.7498 10.1183 10.6202 10.1741 10.5778ZM11.4507 17.1137C10.8015 16.5423 10.9707 15.4359 11.7638 15.067C12.2289 14.8507 12.8618 14.9783 13.1916 15.3547C14.2362 16.5475 12.6399 18.1604 11.4507 17.1137ZM16.6023 17.0263C16.0579 16.4047 16.2616 15.4017 17.0006 15.0652C17.8252 14.6897 18.7532 15.2911 18.7532 16.2011C18.7532 17.3411 17.3496 17.8795 16.6023 17.0263ZM14.1468 18.6463C14.1468 18.5704 14.6239 17.7936 14.8015 17.5803C14.9156 17.4432 14.9834 17.5015 15.3199 18.0259C15.6965 18.6127 15.712 18.6648 15.5585 18.8286C15.3926 19.0055 15.2687 18.99 15.1292 18.7747C14.9623 18.517 14.9041 18.5134 14.715 18.7493C14.6233 18.8637 14.5124 18.9573 14.4687 18.9573C14.3619 18.9573 14.1468 18.7495 14.1468 18.6463Z" fill="#6d6d91"/>
<path d="M1.17404 11.5408C0.995344 11.1009 0.833724 10.6996 0.814923 10.6491C0.782505 10.5621 1.01577 10.5572 5.25737 10.5572H9.73402L9.7657 10.9641C9.78858 11.2616 9.81054 11.5591 9.83159 11.8566L9.86579 12.3423L1.49895 12.3406L1.17404 11.5408Z" fill="#6d6d91"/>
<path d="M19.9807 11.8566C20.0018 11.5591 20.0238 11.2616 20.0466 10.9641L20.0783 10.5572H24.555C28.7966 10.5572 29.0298 10.5621 28.9972 10.6491C28.9783 10.6996 28.8167 11.1012 28.6381 11.5415L28.3134 12.3419L19.9465 12.3423L19.9807 11.8566Z" fill="#6d6d91"/>
<path d="M2.02299 13.3923C1.91667 13.118 1.81753 12.864 1.80271 12.8279C1.78134 12.7757 2.60767 12.7623 5.83231 12.7623H9.88883L9.92156 13.2479C9.93958 13.515 9.97016 13.9166 9.98954 14.1404L10.0247 14.5473H6.24631C3.83919 14.5473 2.46783 14.5288 2.46783 14.4964C2.46783 14.4683 2.41122 14.3206 2.34204 14.1682C2.2729 14.0158 2.1293 13.6666 2.02299 13.3923Z" fill="#6d6d91"/>
<path d="M19.8221 14.1667C19.8409 13.9573 19.8714 13.5557 19.8899 13.2741L19.9235 12.7623H23.9744C26.2024 12.7623 28.0253 12.7691 28.0253 12.7775C28.0253 12.7859 27.9061 13.0871 27.7604 13.4469C27.6146 13.8067 27.4564 14.2015 27.4086 14.3242L27.3219 14.5473H19.7878L19.8221 14.1667Z" fill="#6d6d91"/>
<path d="M4.80179 15.0329C4.78094 14.9809 5.32498 14.9673 7.4186 14.9673H10.0618V15.1159C10.0618 15.2299 9.96765 15.362 9.65588 15.6851C9.43267 15.9166 9.11247 16.2517 8.94441 16.4299L8.63887 16.7538L5.47943 16.7261L4.80179 15.0329Z" fill="#6d6d91"/>
<path d="M20.1303 15.6589C19.8436 15.3588 19.7506 15.2254 19.7506 15.1144V14.9673H22.3937C24.4873 14.9673 25.0314 14.9809 25.0105 15.0329L24.3329 16.7261L21.1748 16.7538L20.8424 16.4051C20.6595 16.2133 20.3391 15.8775 20.1303 15.6589Z" fill="#6d6d91"/>
<path d="M10.2712 22.3699V20.7949C10.2712 19.9286 10.2863 19.2198 10.3047 19.2198C10.323 19.2198 10.4404 19.3143 10.5654 19.4298C10.8451 19.6884 10.9165 19.6901 11.5286 19.4531C11.794 19.3504 12.0169 19.2736 12.0241 19.2825C12.0313 19.2913 12.1246 19.5939 12.2314 19.9548C12.3383 20.3158 12.4491 20.6869 12.4778 20.7795C12.5462 21.0005 12.7533 21.1181 13.335 21.2662C13.713 21.3625 13.871 21.3955 13.9398 21.4921C13.9949 21.5694 13.9928 21.6874 14.0007 21.9112L14.0158 22.3436H15.7965L15.8117 21.9112C15.8195 21.6874 15.8175 21.5694 15.8725 21.4921C15.9413 21.3955 16.0993 21.3625 16.4773 21.2662C17.0591 21.1181 17.2661 21.0005 17.3345 20.7795C17.3632 20.6869 17.4741 20.3158 17.5809 19.9548C17.6877 19.5939 17.7811 19.2913 17.7882 19.2825C17.7954 19.2736 18.0184 19.3504 18.2837 19.4531C18.8959 19.6901 18.9672 19.6884 19.247 19.4298C19.372 19.3143 19.4893 19.2198 19.5077 19.2198C19.526 19.2198 19.5411 19.9286 19.5411 20.7949V22.3699H21.8487L21.8193 23.6561L7.96689 23.6828V22.3699H10.2712Z" fill="#6d6d91"/>
</svg>
