<svg width="24" height="24" viewBox="0 0 24 24" fill="none" xmlns="http://www.w3.org/2000/svg">
<path d="M10.1292 5.55337V9.77092C10.1292 11.1028 11.1427 12.1785 12.3976 12.1785C13.6202 12.1785 14.6338 11.1028 14.6659 9.77092V5.55337C14.6659 4.22151 13.6524 3.11163 12.3976 3.11163C11.1427 3.1287 10.1292 4.23859 10.1292 5.55337Z" fill="none"/>
<path d="M19.6693 1.23337C18.2696 1.23337 17.3043 2.27495 16.0817 2.94088C16.0173 2.97503 15.9047 3.00918 15.8082 3.04333V9.77092C15.776 11.7687 14.2477 13.3908 12.3976 13.3908C10.5153 13.3908 8.98695 11.7346 8.98695 9.70262V3.00918L8.71346 2.90673C7.49079 2.27495 6.55769 1.19922 5.12588 1.19922C2.7288 1.19922 0.975229 3.86293 1.81179 6.30467C2.16573 7.3804 2.88968 7.96096 3.72624 8.55859C4.73977 9.25867 5.67287 10.1466 6.44508 11.154C7.55514 12.6737 8.32735 14.4836 8.68129 16.3619C8.85825 17.2498 8.95478 18.4621 9.03522 19.2817C9.21218 21.2112 10.4349 22.7992 12.4137 22.7992C14.3925 22.7992 15.6151 21.2112 15.7921 19.2817C15.8564 18.428 15.9691 17.2498 16.146 16.3619C16.5 14.4836 17.2561 12.6737 18.3822 11.154C19.1544 10.1124 20.0554 9.27574 21.1011 8.55859C21.9376 7.96096 22.6616 7.3804 23.0155 6.30467C23.7877 3.89708 22.0342 1.23337 19.6693 1.23337Z" fill="none"/>
</svg>
