<svg width="30" height="30" viewBox="0 0 30 30" fill="#6d6d91" xmlns="http://www.w3.org/2000/svg">
<path fill-rule="evenodd" clip-rule="evenodd" d="M14.554 0.617503C14.399 0.72743 14.2574 1.10216 14.0839 1.86112C13.9013 2.66107 13.6427 3.32641 13.1034 4.38413C12.7005 5.17423 12.2942 5.90987 12.2004 6.01878C12.0438 6.2006 11.6977 6.2169 7.98494 6.2169C3.28592 6.2169 3.31815 6.20965 4.03515 7.09983C4.23524 7.34821 4.60028 7.88993 4.84648 8.30371C5.09268 8.7175 5.34973 9.13853 5.41755 9.23951C5.51513 9.38442 5.75305 9.42506 6.55072 9.43321C7.52555 9.44306 7.5946 9.46152 8.55354 9.96791C9.25722 10.3397 9.57615 10.5752 9.64777 10.7763C9.73406 11.0179 9.58253 11.3768 8.62639 13.1952C5.22003 19.6733 3 24.033 3 24.244C3 24.3386 3.07576 24.4797 3.16842 24.5575C3.30685 24.6737 3.54052 24.608 4.48334 24.1876C5.54859 23.7126 5.72887 23.6687 7.02868 23.5671C8.64217 23.4411 13.5144 23.5131 13.7011 23.6657C13.8341 23.7745 14.0327 25.2325 14.1277 26.7995C14.1873 27.7819 14.3379 28.2453 14.6643 28.4504C14.9465 28.6277 15.2004 28.3217 15.3251 27.6539C15.5163 26.6298 15.7575 24.7464 15.7575 24.2769C15.7575 24.0201 15.8179 23.7487 15.8918 23.674C15.9906 23.574 16.9452 23.5387 19.5008 23.5401C23.3908 23.5423 23.8554 23.5997 25.4668 24.2782C26.603 24.7564 26.8201 24.7942 26.9811 24.5414C27.075 24.3941 26.8391 23.8711 25.8323 21.9942C25.1356 20.6952 24.2791 19.1229 23.9288 18.5003C23.5785 17.8776 22.7978 16.4257 22.1939 15.2738C20.7876 12.5918 20.8411 12.6739 20.4502 12.5948C20.0376 12.5113 19.9647 12.401 20.1236 12.1007C20.2146 11.9287 20.2138 11.7629 20.1207 11.4775C20.0508 11.2635 20.0228 10.9964 20.058 10.8838C20.0943 10.7681 20.6312 10.4134 21.2916 10.0689C22.2969 9.54427 22.5753 9.44974 23.2767 9.3945L24.0926 9.33019L24.5413 8.63848C24.788 8.25797 25.182 7.71037 25.4169 7.42146C25.7274 7.03994 25.8344 6.81114 25.8086 6.58495L25.7733 6.27351L21.6005 6.2169C18.0573 6.16879 17.4113 6.13471 17.3182 5.99048C17.258 5.89708 16.8603 5.15838 16.4347 4.34893C15.8914 3.31599 15.6062 2.62405 15.4782 2.02811C15.163 0.562709 14.9945 0.305381 14.554 0.617503ZM18.0734 11.6106C18.625 12.1685 19.042 12.9832 19.2452 13.8996C19.5003 15.0503 19.0332 16.7363 18.1902 17.7078C17.7214 18.2479 16.6134 18.9489 16.3747 18.8562C16.1735 18.7781 16.1385 17.3717 16.3099 16.2453C16.3674 15.8666 16.4712 14.7926 16.5406 13.8586C16.6832 11.9403 16.8244 11.0743 17.0143 10.9556C17.1964 10.8418 17.4977 11.0281 18.0734 11.6106ZM13.0048 12.9812C13.0427 13.5261 13.1513 15.0366 13.2461 16.338C13.3664 17.989 13.383 18.74 13.3011 18.8229C13.1349 18.991 12.2924 18.5564 11.683 17.9882C11.4138 17.7371 11.0495 17.252 10.8736 16.9101L10.5538 16.2885L11.476 14.4508C11.9832 13.4402 12.4477 12.4733 12.5084 12.302C12.5689 12.1307 12.69 11.9906 12.7773 11.9906C12.897 11.9906 12.953 12.2342 13.0048 12.9812ZM20.9485 15.4324C21.0478 15.6442 21.1291 15.8576 21.1291 15.9066C21.1291 15.9556 21.4146 16.6102 21.7635 17.3612C22.5617 19.0793 22.8946 19.9345 22.8353 20.1144C22.8 20.2218 22.0753 20.255 19.7675 20.255C17.5413 20.255 16.7573 20.2208 16.7888 20.1249C16.8125 20.0534 17.1817 19.7952 17.6096 19.5511C19.0827 18.7105 19.9694 17.521 20.2491 16.0096C20.3183 15.636 20.3919 15.2667 20.4128 15.1888C20.4847 14.9197 20.7685 15.0488 20.9485 15.4324ZM10.6906 18.4513C11.0875 18.8849 11.6217 19.3062 12.1395 19.5936C12.5907 19.8442 12.9598 20.0954 12.9598 20.152C12.9598 20.2102 12.0566 20.255 10.886 20.255C9.28665 20.255 8.7994 20.2213 8.75632 20.1077C8.67082 19.8822 9.70026 17.7644 9.89531 17.7644C9.98697 17.7644 10.3448 18.0734 10.6906 18.4513Z" fill="#6d6d91"/>
</svg>
