<svg width="30" height="30" viewBox="0 0 30 30" fill="#6d6d91" xmlns="http://www.w3.org/2000/svg">
<path d="M23.5351 7.51594L21.5355 5.76235L19.3886 3.92872H10.6114L6.52045 7.51594H12.9193V23.355L15.028 25.1562L17.1363 23.355V7.51594H23.5351Z" fill="#6d6d91"/>
<path d="M19.4494 9.22987V16.297L17.3463 18.092L20.323 20.5888L23.5416 17.8397L23.5424 9.22987H19.4494ZM10.607 16.297V9.22987H6.51354V17.8397L9.73339 20.5888L12.7092 18.092L10.607 16.297Z" fill="#6d6d91"/>
<path d="M10.2959 2.96313L5.11607 7.43535V18.2759L15.0003 26.6545L24.8841 18.2759V7.43568L19.7044 2.96313H10.2959ZM4.16539 6.8959L9.67462 2.14176L9.83758 2H20.1621L20.325 2.14176L25.8346 6.8959L26 7.03896V18.6762L25.8326 18.8178L15.0003 28L14.6099 27.6697L4.16788 18.8178L4 18.6763V7.03905L4.16539 6.8959Z" fill="#6d6d91"/>
</svg>
