<svg width="30" height="30" viewBox="0 0 30 30" fill="#6d6d91" xmlns="http://www.w3.org/2000/svg">
<path fill-rule="evenodd" clip-rule="evenodd" d="M14.5688 7.19922C14.325 7.19922 14.1116 7.25172 13.9284 7.3596C13.7451 7.46748 13.6006 7.62314 13.4929 7.8246C13.3852 8.02606 13.3213 8.24943 13.3008 8.49274C13.2803 8.73604 13.2666 9.14765 13.2666 9.73271V10.7322C13.2666 11.3318 13.2794 11.7485 13.3008 11.9883C13.3222 12.2285 13.3911 12.4582 13.5014 12.6565C13.6118 12.8591 13.7657 13.0184 13.9454 13.1162C14.1295 13.2181 14.3375 13.2659 14.5687 13.2659C14.8124 13.2659 15.0258 13.2134 15.2091 13.1055C15.3924 12.9976 15.5369 12.842 15.6446 12.6405C15.7522 12.439 15.8163 12.2157 15.8367 11.9724C15.8571 11.7289 15.8666 11.3173 15.8666 10.7322V9.73271C15.8666 9.13334 15.8581 8.71642 15.8367 8.47661C15.8153 8.23645 15.7464 8.00678 15.6361 7.80848C15.524 7.60473 15.3762 7.45607 15.1921 7.35412C15.0081 7.25232 14.8001 7.19922 14.5688 7.19922ZM14.5732 8.18263C14.6425 8.18263 14.6874 8.22463 14.7098 8.30025C14.732 8.37573 14.7438 8.54767 14.7438 8.81867V11.4912C14.7438 11.834 14.7311 12.0522 14.7098 12.1434C14.6884 12.2345 14.6411 12.2823 14.5647 12.2823C14.4899 12.2823 14.4442 12.244 14.4238 12.1648C14.4033 12.0857 14.3897 11.8776 14.3897 11.5395V8.81881C14.3897 8.51906 14.4055 8.34012 14.4367 8.27895C14.4676 8.21778 14.5144 8.18263 14.5732 8.18263Z" fill="#6d6d91"/>
<path d="M5.89807 2.45745C6.51068 2.15501 7.21185 2 8.00742 2C9.08733 2 9.9799 2.23545 10.6825 2.70364C11.385 3.17211 11.8469 3.7541 12.0676 4.45345C12.2882 5.15295 12.4 6.24477 12.4001 7.72162V9.22495H8.73157V6.46963C8.73157 5.66937 8.69124 5.16983 8.61283 4.97131C8.53442 4.77292 8.36149 4.67473 8.09439 4.67473C7.79247 4.67473 7.60186 4.79597 7.52052 5.03672C7.43919 5.27747 7.39784 5.79518 7.39784 6.59544V13.9363C7.39784 14.704 7.43919 15.2055 7.52052 15.4397C7.60186 15.6738 7.78616 15.7916 8.07062 15.7916C8.34358 15.7916 8.52068 15.6738 8.60483 15.4397C8.6891 15.2055 8.73145 14.6559 8.73145 13.7905V11.8095H12.3998V12.423C12.3997 14.056 12.2972 15.2142 12.0912 15.8973C11.885 16.5804 11.4274 17.1783 10.722 17.6923C10.0165 18.2063 9.1476 18.4667 8.1141 18.4667C7.03994 18.4667 6.1556 18.249 5.45882 17.8131C4.76194 17.3773 4.30017 16.774 4.07373 16.003C3.84729 15.232 3.7334 14.072 3.7334 12.5236V7.90784C3.7334 6.76935 3.76663 5.91299 3.83625 5.3436C3.90599 4.77436 4.1162 4.22644 4.4616 3.69942C4.807 3.17241 5.28545 2.76004 5.89807 2.45745Z" fill="#6d6d91"/>
<path fill-rule="evenodd" clip-rule="evenodd" d="M16.7334 2V17.6H21.4533C22.3479 17.6 23.0171 17.547 23.4614 17.441C23.9058 17.3351 24.2799 17.1469 24.582 16.8802C24.8843 16.6136 25.0986 16.2454 25.2201 15.7735C25.3415 15.3014 25.4 14.3642 25.4001 12.9641V7.5043C25.4 6.0272 25.3602 5.03545 25.2772 4.53117C25.1943 4.02702 24.9874 3.56739 24.6556 3.15636C24.3238 2.74534 23.8365 2.45271 23.1995 2.27298C22.5625 2.09311 21.3421 2 19.5348 2H16.7334ZM20.4759 4.67034C20.8847 4.67034 21.1662 4.71613 21.3143 4.80924C21.4623 4.90235 21.555 5.0469 21.5965 5.24598C21.6379 5.44507 21.6578 5.89947 21.6578 6.60595V12.6662C21.6578 13.7067 21.5982 14.3427 21.4737 14.5771C21.3494 14.8115 21.0151 14.9295 20.4759 14.9295V4.67034Z" fill="#6d6d91"/>
<path d="M24.1848 19.3333L26.4565 19.3499L27.0933 19.8654L27.2941 20.0275L27.5547 20.239L27.9999 20.5994L28 20.9166L27.9999 21.1282L28 21.3463L27.9999 21.5545L28 21.7892L27.9999 21.9974L28 22.2421L27.9999 22.4471L28 22.6817L27.9999 22.8933L28 23.1181L27.9999 23.2535L27.4233 23.703L27.4895 23.7691H27.4905L27.9599 24.2391L27.9626 24.2418V26.8861L26.5409 28H24.2419V26.2548H25.0969L25.1352 26.225L25.435 25.9903H25.4361L25.8599 25.6599V24.969L25.2362 24.3179H23.218V22.9362H25.2909L25.3405 22.8933L25.7151 22.5736L25.8625 22.4471L25.9172 22.4008V21.7892L25.9172 21.7099L25.4685 21.3463H25.4673L25.0647 21.0191H24.1848V19.3333Z" fill="#6d6d91"/>
<path d="M23.7003 19.3465H21.5428L21.2024 19.5878L20.9144 19.7928L20.5834 20.0275L20.286 20.239L19.9497 20.477H19.9509L19.895 20.5167V21.6504H21.9106L22.2813 21.3097L22.4798 21.1282H22.4787L22.6513 20.9695H23.7002L23.7003 19.3465Z" fill="#6d6d91"/>
<path d="M9.64022 19.3499H11.6286L11.6285 19.7928L11.6286 20.9166L11.6285 21.1282V21.9975L11.6285 22.0306L11.4918 22.2421L11.2608 22.597L11.2061 22.6817L11.0684 22.8933L10.4999 23.7691L10.3436 24.0104L9.83904 24.7871L9.83897 22.7115L9.44772 23.3229H9.44884L9.35512 23.4677L9.16221 23.7691L9.00882 24.0104L8.87669 24.2153L8.7256 24.4533H8.72442L8.02857 25.5407H8.02967L7.87309 25.7854H7.87202L7.45748 26.4332L7.30636 26.6712H7.30521L6.74472 27.5471L6.60547 27.3223L6.47703 27.1141L6.32961 26.8761L6.20337 26.6712L5.64417 25.7661L5.50441 25.5407L5.37624 25.3325H5.37522L5.10264 24.8897L3.91078 22.9607L3.86902 22.8933L3.73837 22.6817H3.73728L3.73232 22.6719V27.9604H2V27.7685L2.00269 27.1141L2.00248 26.8761L2.00552 26.225L2.0075 25.6035V25.5407L2.00998 24.8253V24.6616L2.01116 24.4533H2.00998L2.01168 24.2893L2.01257 24.0104L2.01245 23.7691L2.01541 23.1181L2.01493 22.8933H2.01613L2.01741 22.491V22.4471L2.01988 21.7128V21.5545L2.02105 21.3463H2.01995L2.02148 21.2121L2.02243 20.9126V20.6819L2.02525 20.0275L2.02491 19.7928H2.02599L2.02738 19.3566L4.01569 19.3565L4.54963 20.239L4.69429 20.477L4.81759 20.6819L4.96018 20.9166L6.1555 22.8933L6.29232 23.1181L6.41543 23.3229H6.41663L6.48994 23.4461L6.7783 23.9227L6.79941 23.9575L6.80908 23.9419L7.04399 23.5609H7.04294L7.18961 23.3229H7.1907L7.58606 22.6817H7.58477L7.68027 22.5289L7.94907 22.0929L8.00724 21.9974L8.20578 21.6765L8.2807 21.5545L8.94535 20.477H8.94429L9.0909 20.239H9.09207L9.64022 19.3499Z" fill="#6d6d91"/>
<path d="M17.8221 19.3664H19.5246V27.7685L19.5247 27.7718H17.5661L17.5637 27.7685L16.9846 26.8761L16.7723 26.5487L16.6962 26.4332H16.6973L16.2768 25.7854L16.1171 25.5407L15.6955 24.8897L15.4123 24.4533L15.2572 24.2153L14.698 23.3527L14.689 23.3675L13.6456 25.0945H13.6466L13.3409 25.5989L13.2292 25.7853L13.1044 25.9903L12.9632 26.225L12.5692 26.8761H12.5705L12.0301 27.7685H12.0311L11.9143 27.9602L9.89614 27.9603L9.90176 27.5058L9.90364 27.3223L9.9066 27.1141L9.90859 26.8761L9.91207 26.6712L9.926 25.544L10.3524 24.8719L10.4852 24.6616L10.6179 24.4533L10.7686 24.2153L10.8988 24.0104H10.8978L11.0519 23.7691L11.6285 22.8602V24.6616L11.6286 24.6746L11.6304 24.6716L11.636 24.6616L11.766 24.4533L12.0813 23.9455L12.1902 23.7691L12.3201 23.5609L13.4599 21.7251L13.5646 21.5545H13.5658L13.6951 21.3463H13.6939L13.8194 21.1461L14.0062 20.8451L14.1065 20.6819H14.1076L14.3511 20.2897L14.3823 20.239L14.7253 19.687L14.9302 20.017L14.9367 20.0275L15.343 20.6819H15.3442L15.463 20.8753L15.6261 21.1378L15.7567 21.3463H15.7555L15.8848 21.5545H15.886L16.0011 21.7418L17.0601 23.4475L17.1312 23.5609L17.2598 23.7691L17.5839 24.2911L17.6855 24.4533L17.814 24.6616L17.8216 24.674L17.8221 19.3664Z" fill="#6d6d91"/>
<path d="M19.895 25.6565H21.9106L21.9247 25.6696L22.3478 26.0585L22.5295 26.225L22.6513 26.3374H23.7002V27.9604H21.5428L21.469 27.9079L21.2719 27.7685L20.9841 27.5636L19.895 26.7902V25.6565Z" fill="#6d6d91"/>
</svg>
