<svg width="30" height="30" viewBox="0 0 30 30" fill="#6d6d91" xmlns="http://www.w3.org/2000/svg">
<path fill-rule="evenodd" clip-rule="evenodd" d="M23.351 8.12044C17.3616 11.45 16.8517 11.7542 16.8669 11.9874C16.9062 12.5875 16.8364 12.8178 16.5086 13.1704L16.1646 13.5403L15.815 13.2863C15.2495 12.8757 14.8025 12.7464 13.9753 12.7541C12.7251 12.7657 11.7552 13.3708 11.2404 14.4601C10.8987 15.1835 10.8989 16.2891 11.2408 16.9999C12.1485 18.8864 14.6799 19.3111 16.2113 17.8338C16.952 17.1192 17.2526 15.8715 16.9459 14.7835C16.8213 14.341 16.8647 14.2844 17.4549 14.1193C17.7099 14.048 17.9223 14.0636 18.266 14.1785C18.7003 14.3238 18.748 14.3217 18.975 14.1482C19.58 13.6856 29.9945 4.63738 29.9998 4.56984C30.0031 4.52812 29.9711 4.49673 29.9287 4.50027C29.8862 4.50372 26.9263 6.13284 23.351 8.12044ZM12.4853 6.2094C10.3017 6.56503 8.47631 7.49524 6.97602 9.01683C6.19043 9.81367 5.32304 11.0156 5.1205 11.5882C5.03223 11.8378 5.04415 11.9306 5.18431 12.0832C5.36722 12.2824 5.34965 12.3094 4.88498 12.5454C4.76701 12.6053 4.59889 12.8995 4.4798 13.2543C4.18991 14.1178 4.17357 17.1838 4.45349 18.1645C4.6772 18.9479 5.23199 20.2937 5.32735 20.2844C5.36445 20.2808 5.79553 19.8111 6.28517 19.2408L7.17548 18.2038L7.02658 17.6018C6.82435 16.7847 6.82455 14.8602 7.02679 13.9222C7.11557 13.5105 7.21083 13.1513 7.23857 13.1241C7.32109 13.0428 9.09626 14.0862 9.07026 14.2007C8.78757 15.4451 8.84203 16.5356 9.23786 17.5569C9.35665 17.8632 9.45376 18.1542 9.45376 18.2038C9.45386 18.2532 9.20693 18.265 8.90513 18.2301L8.3565 18.1665L6.25907 20.0009C5.1056 21.0099 3.22531 22.637 2.08088 23.6169C0.93645 24.5967 0 25.4384 0 25.4872C0 25.536 0.242822 25.4405 0.539489 25.2751C0.836155 25.1095 2.46623 24.2002 4.16175 23.2544C5.85728 22.3085 7.83263 21.2206 8.55132 20.8368C9.72381 20.2109 9.85853 20.111 9.86151 19.8654C9.8651 19.5739 10.0594 19.0758 10.1695 19.0758C10.2059 19.0758 10.3949 19.2383 10.5898 19.4367C11.2991 20.1597 12.3033 20.5833 13.5464 20.6842L14.3157 20.7467L14.6082 21.7593C14.7691 22.3163 14.8788 22.829 14.8522 22.8985C14.7822 23.0814 13.3233 23.0615 12.3525 22.8642C11.4325 22.6773 10.319 22.1939 9.65938 21.6951C9.40505 21.5027 9.13767 21.3096 9.06533 21.266C8.89937 21.1658 6.6809 22.0174 6.67997 22.1816C6.67905 22.3577 7.75679 23.2857 8.60198 23.8364C9.57234 24.4688 10.7114 24.9283 11.9191 25.1743C13.2165 25.4387 15.385 25.3836 16.5443 25.0569C19.4505 24.2375 21.9697 21.9787 23.0314 19.2402C23.256 18.6608 23.257 18.6415 23.0691 18.506C22.8832 18.3721 22.8841 18.367 23.0942 18.367C23.2144 18.367 23.338 18.2872 23.3691 18.1898C23.6726 17.239 23.7318 14.9256 23.4825 13.7595C23.3152 12.9772 22.7249 11.3798 22.603 11.3798C22.5606 11.3798 22.1214 11.8373 21.6272 12.3966L20.7286 13.4133L20.8458 14.1122C21.0015 15.0414 20.988 16.43 20.8148 17.3037C20.6904 17.9314 20.6926 18.0329 20.8346 18.1898C21.0968 18.4799 20.8968 18.3979 19.871 17.7947C19.1245 17.3557 18.9137 17.1845 18.9662 17.0605C19.0813 16.7886 19.1495 14.924 19.0444 14.924C18.7422 14.924 17.8889 16.195 17.8824 16.6546C17.8775 17.0099 17.2318 18.0647 16.7446 18.5138C16.4612 18.775 15.965 19.1109 15.6418 19.2601C15.1209 19.5007 14.9319 19.5314 13.9753 19.5307C12.9625 19.5299 12.8585 19.5102 12.2797 19.2087C11.3579 18.7286 11.0973 18.4497 11.1682 18.0192C11.2198 17.7058 11.1978 17.6613 10.9624 17.6031C10.8173 17.5672 10.6547 17.5646 10.601 17.5973C10.4729 17.6753 10.2198 17.0414 10.0788 16.2896C9.77406 14.6649 10.7868 12.8507 12.4115 12.1106C12.9299 11.8746 13.1485 11.8396 14.2686 11.8144C15.3527 11.79 15.597 11.7533 15.9404 11.5631C16.1616 11.4407 16.3269 11.2942 16.3078 11.2377C16.2486 11.0628 15.1909 10.7505 14.4752 10.6967L13.7934 10.6454L13.4733 9.55069C13.2973 8.94858 13.1532 8.43031 13.1532 8.39892C13.1532 8.28672 14.588 8.34464 15.3447 8.48722C16.2918 8.66585 16.9974 8.95171 17.9166 9.52922L18.6209 9.97174L19.3552 9.69722C19.7591 9.54623 20.2876 9.34006 20.5297 9.2389L20.9699 9.055L20.4194 8.56377C19.2724 7.5402 17.8716 6.8027 16.3387 6.41547C15.3753 6.17213 13.3719 6.065 12.4853 6.2094ZM12.9477 9.5917V10.7401L12.511 10.8688C11.4183 11.1909 10.2864 12.0266 9.69473 12.9483L9.4217 13.3735L8.41014 13.1236C7.8539 12.9862 7.39867 12.8375 7.39867 12.7933C7.39867 12.7492 7.49125 12.5001 7.6045 12.2398C7.71774 11.9795 7.78433 11.7251 7.75258 11.6745C7.72083 11.6238 7.73984 11.5823 7.79481 11.5823C7.84979 11.5823 8.13207 11.2884 8.42216 10.9292C9.30507 9.83585 10.6539 8.96518 12.0228 8.60519C13.0041 8.34707 12.9477 8.28682 12.9477 9.5917ZM23.3264 9.19404C23.3264 9.22907 22.4455 9.99949 18.9376 13.0324C18.7096 13.2296 18.5199 13.308 18.3253 13.2856C18.0602 13.2551 18.0966 13.2078 18.9372 12.4937C19.4288 12.076 19.7862 11.7193 19.7313 11.7012C19.6765 11.6831 19.2097 11.9025 18.6942 12.1889C18.1785 12.4754 17.731 12.6843 17.6996 12.6533C17.4961 12.4529 18.0809 12.0466 20.5519 10.6717C23.3893 9.09288 23.3264 9.12629 23.3264 9.19404ZM14.7014 14.2187C14.8107 14.2765 14.9017 14.4245 14.9035 14.5478C14.9077 14.8235 15.2351 15.2278 15.4541 15.2278C15.7084 15.2278 15.7659 15.6934 15.5729 16.1913C15.3688 16.7181 14.947 17.0995 14.3851 17.2655C13.5749 17.5046 12.5333 16.8159 12.3834 15.942C12.2918 15.4074 12.6423 14.6686 13.1427 14.3419C13.5231 14.0936 14.3413 14.0289 14.7014 14.2187ZM20.2646 18.4333L20.5424 18.4918L20.1987 19.1635C19.1788 21.1566 17.551 22.4242 15.4396 22.8695L15.1056 22.9399V21.7834V20.6269L15.5424 20.4982C16.6282 20.1782 17.6845 19.3999 18.2854 18.4771L18.6097 17.9792L19.2982 18.177C19.6769 18.2858 20.1117 18.4011 20.2646 18.4333ZM9.14558 19.1217C9.14558 19.4192 8.77256 19.7245 7.67489 20.3256C6.98599 20.7027 6.4687 20.9687 6.52522 20.9164C7.67016 19.858 8.67535 19.0758 8.89053 19.0758C9.0308 19.0758 9.14558 19.0965 9.14558 19.1217Z" fill="#6d6d91"/>
</svg>
