<svg width="30" height="30" viewBox="0 0 30 30" fill="#6d6d91" xmlns="http://www.w3.org/2000/svg">
<path fill-rule="evenodd" clip-rule="evenodd" d="M15.4193 1.03516C15.4574 1.03516 15.4738 1.07654 15.4574 1.1386C15.4411 1.20067 15.3866 1.24205 15.3213 1.24205C15.2614 1.24205 15.2124 1.23171 15.2124 1.21619C15.2124 1.20067 15.2451 1.15412 15.2777 1.11274C15.3158 1.07136 15.3812 1.04033 15.4139 1.03516H15.4193ZM14.8366 1.1386C14.8639 1.1386 14.8911 1.18516 14.8911 1.24205C14.8911 1.32481 14.853 1.3455 14.7277 1.3455C14.6351 1.3455 14.5644 1.32481 14.5644 1.29378C14.5644 1.26274 14.6134 1.24205 14.6733 1.24205C14.7332 1.24205 14.7822 1.22136 14.7822 1.19033C14.7822 1.15929 14.804 1.1386 14.8366 1.1386ZM15.0545 1.24205C15.0817 1.24205 15.1089 1.26274 15.1089 1.29378C15.1089 1.32481 15.1797 1.3455 15.2723 1.3455C15.3594 1.3455 15.4356 1.32481 15.4356 1.29378C15.4356 1.26274 15.4847 1.24205 15.5446 1.24205C15.6172 1.24205 15.6535 1.27654 15.6535 1.3455C15.6535 1.4386 15.6916 1.44895 16.0891 1.44895C16.4866 1.44895 16.5248 1.45929 16.5248 1.5524C16.5248 1.60929 16.4975 1.65585 16.4703 1.65585C16.4376 1.65585 16.4158 1.62998 16.4158 1.60412C16.4158 1.57826 16.3668 1.5524 16.3069 1.5524C16.247 1.5524 16.198 1.57826 16.198 1.60412C16.198 1.62998 16.2307 1.66619 16.2634 1.67654C16.3124 1.68688 16.2906 1.72826 16.2144 1.79033C16.149 1.84723 16.0946 1.90412 16.0891 1.92481C16.0891 1.95067 16.1599 1.96619 16.2525 1.96619C16.3396 1.96619 16.4158 1.94033 16.4158 1.91447C16.4158 1.8886 16.4649 1.86274 16.5248 1.86274C16.5847 1.86274 16.6663 1.90929 16.699 1.96619C16.7426 2.02826 16.8297 2.06964 16.9168 2.06964C17.004 2.06964 17.0693 2.04378 17.0693 2.01791C17.0693 1.99205 17.0911 1.96619 17.1238 1.96619C17.151 1.96619 17.1673 2.0024 17.151 2.04378C17.1328 2.0955 17.151 2.11274 17.2054 2.0955C17.249 2.07998 17.2871 2.0955 17.2871 2.12136C17.2871 2.14723 17.3361 2.17309 17.396 2.17309C17.4559 2.17309 17.505 2.19895 17.505 2.22481C17.505 2.25067 17.6248 2.27654 17.7772 2.27654C17.9243 2.27654 18.0495 2.3024 18.0495 2.32826C18.0495 2.35412 18.0168 2.39033 17.9787 2.40067C17.9406 2.41102 17.9351 2.43688 17.9624 2.46274C17.9896 2.4886 18.0168 2.48343 18.0277 2.44205C18.0386 2.41102 18.0985 2.37998 18.1584 2.37998C18.2183 2.37998 18.2673 2.40585 18.2673 2.43171C18.2673 2.45757 18.3054 2.48343 18.349 2.48343C18.3926 2.48343 18.5069 2.55585 18.5941 2.6386C18.6812 2.72136 18.7955 2.79378 18.8391 2.79378C18.899 2.79378 18.9208 2.85067 18.9208 3.00067C18.9208 3.15067 18.9426 3.20757 19.0025 3.20757C19.046 3.20757 19.1441 3.26447 19.2203 3.33688C19.2965 3.40929 19.3564 3.5024 19.3564 3.54378C19.3564 3.58516 19.4054 3.62136 19.4653 3.62136C19.5307 3.62136 19.5743 3.65757 19.5743 3.71447C19.5797 3.76102 19.6233 3.8386 19.6777 3.87998C19.7267 3.92136 19.7866 3.99895 19.8084 4.0455C19.8302 4.09723 19.8847 4.1386 19.9282 4.1386C19.9718 4.1386 20.0099 4.16447 20.0099 4.19033C20.0099 4.21619 19.9772 4.2524 19.9391 4.26792C19.8847 4.2886 19.8847 4.29895 19.9391 4.31964C19.9772 4.33516 20.0099 4.39205 20.0099 4.44895C20.0099 4.50585 20.0317 4.5524 20.0644 4.5524C20.0916 4.5524 20.1188 4.58343 20.1188 4.61447C20.1188 4.65067 20.1569 4.72826 20.2059 4.78516C20.2767 4.87309 20.2931 4.87826 20.3312 4.81102C20.3748 4.74378 20.3911 4.74378 20.4673 4.82136C20.5163 4.87309 20.5545 4.92481 20.5545 4.94033C20.5545 4.95585 20.5054 4.96619 20.4455 4.96619C20.3802 4.96619 20.3366 5.0024 20.3366 5.05412C20.3366 5.10585 20.3856 5.18343 20.4455 5.22481C20.5054 5.26619 20.5545 5.34378 20.5545 5.3955C20.5545 5.44205 20.5762 5.48343 20.6089 5.48343C20.6361 5.48343 20.6634 5.52998 20.6634 5.58688C20.6634 5.64378 20.6852 5.69033 20.7178 5.69033C20.7451 5.69033 20.7723 5.73688 20.7723 5.79378C20.7723 5.85067 20.7941 5.89722 20.8267 5.89722C20.854 5.89722 20.8812 5.96447 20.8812 6.0524C20.8812 6.14033 20.903 6.20757 20.9356 6.20757C20.9629 6.20757 20.9901 6.30067 20.9901 6.41447C20.9901 6.52826 21.0119 6.62136 21.0446 6.62136C21.0718 6.62136 21.099 6.71447 21.099 6.82826C21.099 6.94205 21.1208 7.03516 21.1535 7.03516C21.1807 7.03516 21.2079 7.05585 21.2079 7.08688C21.2079 7.11791 21.1317 7.13861 21.0446 7.13861C20.9193 7.13861 20.8812 7.15929 20.8812 7.24205C20.8812 7.32481 20.9193 7.3455 21.0446 7.3455C21.1698 7.3455 21.2079 7.36619 21.2079 7.44895C21.2079 7.50585 21.2297 7.5524 21.2624 7.5524C21.2896 7.5524 21.3168 7.59895 21.3168 7.65585C21.3168 7.71274 21.2896 7.75929 21.2624 7.75929C21.2297 7.75929 21.2079 7.71274 21.2079 7.65585C21.2079 7.59895 21.1807 7.5524 21.1535 7.5524C21.1208 7.5524 21.099 7.61964 21.099 7.70757C21.099 7.7955 21.1208 7.86274 21.1535 7.86274C21.1807 7.86274 21.2079 7.92998 21.2079 8.01791C21.2079 8.10585 21.1807 8.17309 21.1535 8.17309C21.1208 8.17309 21.099 8.26619 21.099 8.37998C21.099 8.49895 21.1262 8.59723 21.1644 8.61274C21.2188 8.63343 21.2188 8.64378 21.1644 8.66447C21.1317 8.67998 21.099 8.73688 21.099 8.79378C21.099 8.85067 21.0718 8.89723 21.0446 8.89723C21.0119 8.89723 20.9901 8.94378 20.9901 9.00067C20.9901 9.05757 20.9574 9.11447 20.9193 9.12998C20.8649 9.15067 20.8649 9.16102 20.9193 9.18171C20.9574 9.19723 20.9901 9.25412 20.9901 9.31102C20.9901 9.36792 20.9629 9.41447 20.9356 9.41447C20.903 9.41447 20.8812 9.46102 20.8812 9.51792C20.8812 9.60067 20.8431 9.62136 20.7178 9.62136C20.5817 9.62136 20.5545 9.64205 20.5545 9.75067C20.5545 9.82309 20.5272 9.87998 20.5 9.87998C20.4673 9.87998 20.4455 9.96274 20.4455 10.061C20.4455 10.1593 20.4183 10.2421 20.3911 10.2421C20.3584 10.2421 20.3366 10.2886 20.3366 10.3455C20.3366 10.4024 20.3094 10.4489 20.2822 10.4489C20.2495 10.4489 20.2277 10.5162 20.2277 10.6041C20.2277 10.6921 20.2005 10.7593 20.1733 10.7593C20.1406 10.7593 20.1188 10.7386 20.1188 10.7076C20.1188 10.6765 20.0916 10.6558 20.0644 10.6558C20.0317 10.6558 20.0099 10.7024 20.0099 10.7593C20.0099 10.8162 20.0317 10.8627 20.0644 10.8627C20.0916 10.8627 20.1188 10.8989 20.1188 10.9403C20.1188 10.9817 20.0861 11.0541 20.0426 11.0955C19.999 11.1369 19.9228 11.1731 19.8792 11.1731C19.8302 11.1731 19.7921 11.2093 19.7921 11.2507C19.7921 11.2921 19.7158 11.3955 19.6287 11.4834C19.5416 11.5714 19.4653 11.6748 19.4653 11.7162C19.4653 11.7679 19.4109 11.7938 19.3129 11.7938C19.2257 11.7938 19.1332 11.8352 19.0842 11.8972C19.0406 11.9541 18.9589 12.0007 18.9045 12.0007C18.8554 12.0007 18.8119 11.9903 18.8119 11.9748C18.8119 11.9593 18.8881 11.8817 18.9752 11.7938C19.0624 11.7058 19.1386 11.6076 19.1386 11.5714C19.1386 11.5403 19.1876 11.4731 19.2475 11.4317C19.3074 11.3903 19.3564 11.3127 19.3564 11.2662C19.3564 11.2145 19.3292 11.1731 19.302 11.1731C19.2693 11.1731 19.2475 11.2196 19.2475 11.2765C19.2475 11.3334 19.2203 11.38 19.1931 11.38C19.1604 11.38 19.1386 11.3593 19.1386 11.3283C19.1386 11.2972 19.1059 11.2765 19.0678 11.2765C19.0351 11.2765 18.9371 11.3283 18.8554 11.3955C18.7738 11.4576 18.7084 11.5507 18.703 11.6024C18.703 11.6489 18.6757 11.6903 18.6485 11.6903C18.6158 11.6903 18.5941 11.7265 18.5941 11.7679C18.5941 11.8093 18.5614 11.8455 18.5233 11.8507C18.4688 11.8507 18.4688 11.8558 18.5233 11.8765C18.5614 11.8869 18.5941 11.9179 18.5941 11.9489C18.5941 11.98 18.545 12.0007 18.4851 12.0007C18.3926 12.0007 18.3762 12.0369 18.3762 12.2076C18.3762 12.3265 18.4035 12.4248 18.4416 12.4352C18.4906 12.4455 18.4688 12.4869 18.3926 12.549C18.3218 12.6058 18.2728 12.7093 18.2673 12.7921C18.2673 12.8696 18.2347 12.9421 18.1965 12.9576C18.1421 12.9783 18.1421 12.9886 18.1965 13.0093C18.2455 13.0248 18.2673 13.1438 18.2673 13.3455C18.2673 13.5162 18.2455 13.6558 18.2129 13.6558C18.1802 13.6558 18.1584 13.5162 18.1584 13.3455C18.1584 13.1748 18.1366 13.0352 18.104 13.0352C18.0713 13.0352 18.0495 13.0972 18.0495 13.18C18.0495 13.2627 18.0059 13.3507 17.9406 13.3972C17.8807 13.4386 17.8317 13.5162 17.8317 13.5679C17.8317 13.6145 17.8045 13.6558 17.7772 13.6558C17.7446 13.6558 17.7228 13.9817 17.7228 14.5352C17.7228 15.0886 17.7446 15.4145 17.7772 15.4145C17.8045 15.4145 17.8317 15.4714 17.8317 15.5438C17.8317 15.6162 17.799 15.7093 17.7554 15.7507C17.7119 15.7921 17.6629 15.8283 17.6465 15.8283C17.6302 15.8283 17.6139 15.4352 17.6139 14.949C17.6139 14.3955 17.5921 14.0696 17.5594 14.0696C17.5267 14.0696 17.505 14.1058 17.505 14.1472C17.505 14.1886 17.4723 14.261 17.4287 14.3024C17.3851 14.3438 17.3089 14.38 17.2653 14.38C17.2163 14.38 17.1782 14.4214 17.1782 14.4834C17.1782 14.5403 17.2 14.5869 17.2327 14.5869C17.2599 14.5869 17.2871 14.6438 17.2871 14.7162C17.2871 14.7989 17.2054 14.9231 16.8515 15.2593V15.7507C16.8515 16.0455 16.8297 16.2421 16.797 16.2421C16.7644 16.2421 16.7426 15.8696 16.7426 15.2334C16.7426 14.5765 16.7208 14.2352 16.6881 14.2507C16.6554 14.2662 16.6337 14.3231 16.6337 14.38C16.6337 14.4369 16.6064 14.4834 16.5792 14.4834C16.5465 14.4834 16.5248 14.53 16.5248 14.5869C16.5248 14.6489 16.4866 14.6903 16.4267 14.6903C16.3777 14.6955 16.2906 14.7421 16.2361 14.7938C16.1545 14.8869 16.1327 14.8869 16.0619 14.8196C16.0183 14.7783 15.9802 14.6489 15.9802 14.5352C15.9802 14.4214 15.953 14.3283 15.9257 14.3283C15.8931 14.3283 15.8713 14.4576 15.8713 14.6127C15.8713 14.7679 15.8441 14.8972 15.8168 14.8972C15.7842 14.8972 15.7624 14.8196 15.7624 14.7265C15.7624 14.5662 15.7569 14.561 15.599 14.5972C15.4738 14.6283 15.4356 14.6231 15.4356 14.561C15.4356 14.5196 15.4084 14.4834 15.3812 14.4834C15.3485 14.4834 15.3267 14.5041 15.3267 14.5352C15.3267 14.5662 15.2777 14.5869 15.2178 14.5869C15.1579 14.5869 15.1089 14.6076 15.1089 14.6386C15.1089 14.6696 15.1307 14.6903 15.1634 14.6903C15.1906 14.6903 15.2178 14.7627 15.2178 14.8455C15.2178 14.9283 15.1906 15.0007 15.1634 15.0007C15.1307 15.0007 15.0926 14.949 15.0708 14.8817C15.049 14.8093 15.0272 14.9076 15.0163 15.1403C15 15.4765 14.9891 15.5179 14.8911 15.5179C14.7985 15.5179 14.7822 15.4817 14.7822 15.2593C14.7822 15.0989 14.8094 14.9903 14.8475 14.9748C14.902 14.9541 14.902 14.9438 14.8475 14.9231C14.8094 14.9076 14.7822 14.8093 14.7822 14.6903C14.7822 14.5765 14.755 14.4834 14.7277 14.4834C14.6951 14.4834 14.6733 14.5558 14.6733 14.6386C14.6733 14.7576 14.6515 14.7938 14.5644 14.7938C14.4609 14.7938 14.4554 14.83 14.45 15.6369C14.4446 16.0972 14.4446 16.4903 14.45 16.511C14.45 16.5369 14.4282 16.5524 14.401 16.5524C14.3683 16.5524 14.3465 16.3093 14.3465 15.9317C14.3465 15.5541 14.3248 15.311 14.2921 15.311C14.2594 15.311 14.2376 15.5696 14.2376 15.9834C14.2376 16.4852 14.2213 16.6558 14.1668 16.6558C14.1178 16.6558 14.1178 16.6662 14.1723 16.7179C14.2104 16.7541 14.2376 16.8007 14.2376 16.8265C14.2376 16.8472 14.1886 16.8627 14.1287 16.8627C14.0361 16.8627 14.0198 16.8265 14.0198 16.6558C14.0198 16.5421 14.0525 16.3869 14.0851 16.3093C14.1396 16.2007 14.1396 16.1696 14.0851 16.1541C14.0361 16.1438 14.0198 15.9627 14.0198 15.4662C14.0198 14.83 14.0144 14.7938 13.9109 14.7938C13.8183 14.7938 13.802 14.7576 13.802 14.5352C13.802 14.3955 13.7748 14.2765 13.7475 14.2765C13.7149 14.2765 13.6931 14.3955 13.6931 14.5352C13.6931 14.68 13.6658 14.7938 13.6386 14.7938C13.6059 14.7938 13.5733 14.5921 13.5569 14.3438C13.5406 14.0903 13.5134 13.6558 13.497 13.3714C13.4752 13.03 13.4371 12.8334 13.3881 12.7921C13.3446 12.7558 13.301 12.7248 13.2847 12.7248C13.2683 12.7248 13.2574 12.9369 13.2574 13.1903C13.2574 13.4645 13.2356 13.6558 13.203 13.6558C13.1703 13.6558 13.1485 13.5162 13.1485 13.3455C13.1485 13.0714 13.1376 13.0352 13.0396 13.0352C12.9743 13.0352 12.9307 12.999 12.9307 12.9472C12.9307 12.8955 12.8817 12.8179 12.8218 12.7765C12.7619 12.7352 12.7129 12.6627 12.7129 12.6214C12.7129 12.58 12.6475 12.5076 12.5658 12.4662C12.4787 12.4248 12.3589 12.3369 12.2881 12.2748C12.2228 12.2076 12.1792 12.1352 12.1955 12.1041C12.2119 12.0731 12.1792 12.0679 12.1139 12.0938C12.0376 12.1196 11.9832 12.099 11.9124 12.0162C11.8579 11.9541 11.7817 11.9024 11.7436 11.8972C11.7109 11.8972 11.4822 11.711 11.2426 11.4834C11.003 11.2558 10.7906 11.08 10.7634 11.0955C10.7416 11.111 10.7797 11.1627 10.845 11.2093C10.9158 11.2662 10.9649 11.3593 10.9703 11.4421C10.9703 11.5248 10.9594 11.5869 10.9431 11.5869C10.9267 11.5869 10.8777 11.5507 10.8342 11.5093C10.7906 11.4679 10.7525 11.3955 10.7525 11.3541C10.7525 11.3127 10.7252 11.2765 10.698 11.2765C10.6653 11.2765 10.6436 11.23 10.6436 11.1731C10.6436 11.1162 10.6163 11.0696 10.5891 11.0696C10.5564 11.0696 10.5347 11.2093 10.5347 11.38C10.5347 11.5507 10.5129 11.6903 10.4802 11.6903C10.4475 11.6903 10.4257 11.5248 10.4257 11.2869C10.4257 10.9455 10.4094 10.8783 10.3168 10.811C10.2569 10.7696 10.2079 10.6921 10.2079 10.6403C10.2079 10.5938 10.1698 10.5524 10.1262 10.5524C10.0827 10.5524 9.98465 10.4955 9.90842 10.4231C9.83218 10.3507 9.77228 10.2369 9.77228 10.1645C9.77228 10.0921 9.74505 10.0352 9.71782 10.0352C9.68515 10.0352 9.66337 9.96792 9.66337 9.87998C9.66337 9.79205 9.63614 9.72481 9.60891 9.72481C9.57624 9.72481 9.55446 9.67826 9.55446 9.62136C9.55446 9.56447 9.52723 9.51792 9.5 9.51792C9.46733 9.51792 9.44554 9.47136 9.44554 9.41447C9.44554 9.35757 9.41287 9.30067 9.37475 9.29033C9.34208 9.27998 9.32574 9.25412 9.34752 9.22826C9.37475 9.2024 9.43465 9.23343 9.48366 9.2955C9.53812 9.35757 9.62525 9.4093 9.67426 9.41447C9.73416 9.41447 9.77228 9.37826 9.77228 9.31102C9.77228 9.25412 9.7396 9.20757 9.70149 9.20757C9.66881 9.20757 9.69059 9.16619 9.75594 9.11447C9.84851 9.0524 9.86485 9.00585 9.82673 8.94895C9.79951 8.90757 9.77228 8.80929 9.77228 8.72654C9.77228 8.64895 9.74505 8.58688 9.71782 8.58688C9.68515 8.58688 9.66337 8.54033 9.66337 8.48343C9.66337 8.42654 9.68515 8.37998 9.71782 8.37998C9.74505 8.37998 9.77228 8.33343 9.77228 8.27654C9.77228 8.21964 9.74505 8.17309 9.71782 8.17309C9.68515 8.17309 9.66337 8.03343 9.66337 7.86274C9.66337 7.69205 9.64158 7.5524 9.60891 7.5524C9.57624 7.5524 9.55446 7.43343 9.55446 7.29378C9.55446 7.14895 9.57624 7.03516 9.60891 7.03516C9.64158 7.03516 9.66337 6.87998 9.66337 6.67309C9.66337 6.46619 9.68515 6.31102 9.71782 6.31102C9.74505 6.31102 9.77228 6.26447 9.77228 6.20757C9.77228 6.15067 9.74505 6.10412 9.71782 6.10412C9.68515 6.10412 9.66337 6.12998 9.66337 6.15585C9.66337 6.18171 9.63614 6.20757 9.60891 6.20757C9.57624 6.20757 9.55446 6.16102 9.55446 6.10412C9.55446 6.04723 9.57624 6.00067 9.60891 6.00067C9.63614 6.00067 9.66337 5.93343 9.66337 5.8455C9.66337 5.75757 9.68515 5.69033 9.71782 5.69033C9.74505 5.69033 9.77228 5.62826 9.77228 5.5455C9.77228 5.46274 9.81584 5.37481 9.88119 5.32826C9.94109 5.28688 9.9901 5.20929 9.9901 5.15757C9.9901 5.11102 9.96287 5.06964 9.93564 5.06964C9.90297 5.06964 9.88119 5.02309 9.88119 4.96619C9.88119 4.90929 9.91386 4.8524 9.94653 4.83688C10.001 4.81619 10.001 4.80585 9.94653 4.78516C9.91386 4.76964 9.88119 4.71274 9.88119 4.65585C9.88119 4.59895 9.90297 4.5524 9.93564 4.5524C9.96287 4.5524 9.9901 4.57826 9.9901 4.60412C9.9901 4.62998 10.0391 4.65585 10.099 4.65585C10.1589 4.65585 10.2079 4.62998 10.2079 4.60412C10.2079 4.57826 10.1807 4.5524 10.1535 4.5524C10.1208 4.5524 10.099 4.52654 10.099 4.50067C10.099 4.47481 10.1535 4.43343 10.2188 4.41791C10.2896 4.4024 10.3114 4.38171 10.2733 4.36619C10.2406 4.35585 10.2079 4.29895 10.2079 4.24205C10.2079 4.18516 10.2297 4.1386 10.2624 4.1386C10.2896 4.1386 10.3223 4.16964 10.3332 4.20067C10.3495 4.24723 10.3767 4.24205 10.4421 4.17481C10.4911 4.12826 10.5347 4.06102 10.5347 4.03516C10.5347 4.00929 10.5564 3.98343 10.5891 3.98343C10.6163 3.98343 10.6436 3.92654 10.6436 3.85412C10.6436 3.78171 10.6653 3.72481 10.698 3.72481C10.7252 3.72481 10.7525 3.75067 10.7525 3.77654C10.7525 3.8024 10.7743 3.82826 10.8069 3.82826C10.8342 3.82826 10.8614 3.78171 10.8614 3.72481C10.8614 3.66791 10.8941 3.61102 10.9267 3.5955C10.9812 3.57481 10.9812 3.56447 10.9267 3.54378C10.8941 3.52826 10.8614 3.49205 10.8614 3.46619C10.8614 3.44033 10.8995 3.41447 10.9431 3.41447C10.9866 3.41447 11.0248 3.3886 11.0248 3.36274C11.0248 3.33688 11.0683 3.31102 11.1282 3.31102C11.1827 3.31102 11.4005 3.15067 11.6074 2.94895C11.8198 2.74723 12.0213 2.58688 12.054 2.58688C12.0921 2.58688 12.1792 2.52998 12.25 2.45757C12.3262 2.38516 12.3861 2.29205 12.3861 2.25067C12.3861 2.19895 12.4406 2.17309 12.5495 2.17309C12.6366 2.17309 12.7129 2.14723 12.7129 2.12136C12.7129 2.0955 12.751 2.06964 12.8 2.06964C12.8436 2.06964 12.9198 2.03343 12.9634 1.99205C13.0069 1.95067 13.0396 1.87826 13.0396 1.83688C13.0396 1.7955 13.0886 1.75929 13.1485 1.75929C13.2084 1.75929 13.2574 1.78516 13.2574 1.81102C13.2574 1.83688 13.2955 1.86274 13.3446 1.86274C13.3881 1.86274 13.4644 1.82654 13.5079 1.78516C13.5515 1.74378 13.5842 1.67136 13.5842 1.62998C13.5842 1.5886 13.6005 1.5524 13.6223 1.5524C13.6495 1.55757 13.7094 1.60929 13.7639 1.67136C13.8183 1.73343 13.8564 1.75412 13.8564 1.71791C13.8564 1.67654 13.9436 1.65585 14.1015 1.65585C14.2376 1.65585 14.3465 1.62998 14.3465 1.60412C14.3465 1.57826 14.4173 1.5524 14.5099 1.5524C14.597 1.5524 14.6733 1.53171 14.6733 1.50067C14.6733 1.46964 14.7713 1.44895 14.8911 1.44895C15.0109 1.44895 15.1089 1.42826 15.1089 1.39723C15.1089 1.36619 15.0817 1.3455 15.0545 1.3455C15.0218 1.3455 15 1.32481 15 1.29378C15 1.26274 15.0218 1.24205 15.0545 1.24205ZM10.3713 10.4489C10.3985 10.4489 10.4257 10.4852 10.4257 10.5265C10.4257 10.5679 10.4639 10.6403 10.5074 10.6817C10.551 10.7231 10.6 10.7593 10.6163 10.7593C10.6327 10.7593 10.6436 10.7024 10.6436 10.63C10.6436 10.5576 10.6109 10.4696 10.5728 10.4334C10.5401 10.3921 10.4584 10.361 10.404 10.361C10.3441 10.361 10.3005 10.3817 10.3059 10.4076C10.3114 10.4283 10.3386 10.4489 10.3713 10.4489ZM19.6832 10.7593C19.6832 10.7903 19.6069 10.8783 19.5198 10.9662C19.4327 11.0541 19.3564 11.1317 19.3564 11.1472C19.3564 11.1627 19.3946 11.1731 19.4436 11.1731C19.4871 11.1731 19.5634 11.1369 19.6069 11.0955C19.6505 11.0541 19.6832 10.9869 19.6832 10.9507C19.6832 10.9196 19.7322 10.8524 19.7921 10.811C19.852 10.7696 19.901 10.6921 19.901 10.6403C19.901 10.5938 19.8847 10.5524 19.8574 10.5524C19.8356 10.5576 19.7866 10.5886 19.7485 10.63C19.7158 10.6714 19.6832 10.7283 19.6832 10.7593ZM12.1193 10.9765C12.152 10.9869 12.1792 11.1265 12.1847 11.2921C12.1901 11.4524 12.2119 11.5869 12.2337 11.5869C12.2609 11.5869 12.2772 11.4576 12.2772 11.3024C12.2772 11.1162 12.25 10.9921 12.1955 10.9403C12.152 10.8989 12.103 10.8627 12.0866 10.8627C12.0703 10.8627 12.0594 10.8834 12.0594 10.9145C12.0594 10.9455 12.0866 10.9714 12.1193 10.9765ZM11.1173 11.0696C11.1881 11.1265 11.2535 11.1731 11.2698 11.1731C11.2861 11.1731 11.297 11.1265 11.297 11.0696C11.297 10.9921 11.2589 10.9662 11.1446 10.9662H10.9975L11.1173 11.0696ZM11.8634 11.7679C11.9995 11.8972 12.1411 12.0007 12.1792 12.0007C12.2173 12.0007 12.2827 12.0472 12.3262 12.1041C12.3752 12.1662 12.4733 12.2076 12.5604 12.2076C12.6421 12.2076 12.7074 12.1972 12.7074 12.1817C12.7074 12.1662 12.6475 12.099 12.5713 12.0265C12.4787 11.9386 12.3752 11.8972 12.2446 11.8972C12.0703 11.8972 12.054 11.8817 12.054 11.7421C12.054 11.6283 12.0322 11.5869 11.9614 11.5869C11.9069 11.5869 11.8307 11.5403 11.7817 11.4834C11.7381 11.4265 11.6837 11.38 11.6619 11.38C11.6401 11.38 11.6183 11.4162 11.6183 11.4576C11.6183 11.499 11.7327 11.6386 11.8634 11.7679ZM12.8163 11.8455C12.8817 11.8869 12.9307 11.9645 12.9307 12.011C12.9307 12.0627 12.9525 12.1041 12.9797 12.1041C13.0124 12.1041 13.0342 12.0679 13.0342 12.0265C13.0342 11.9852 12.9743 11.8921 12.898 11.8196C12.8272 11.7472 12.751 11.6903 12.7347 11.6903C12.7238 11.6903 12.7074 11.7058 12.7074 11.7265C12.7074 11.7472 12.7564 11.8041 12.8163 11.8455ZM17.8807 12.4145C17.8535 12.4145 17.8262 12.3886 17.8262 12.3627C17.8262 12.3317 17.8045 12.311 17.7718 12.311C17.7446 12.311 17.7282 12.4041 17.7337 12.5179C17.7391 12.6317 17.7663 12.7248 17.7881 12.7248C17.8099 12.7248 17.8262 12.8179 17.8262 12.9317C17.8262 13.0455 17.8426 13.1386 17.8589 13.1386C17.8752 13.1386 17.9243 13.1024 17.9678 13.061C18.0114 13.0196 18.0441 12.9472 18.0441 12.9058C18.0441 12.8645 18.0713 12.8283 18.0985 12.8283C18.1312 12.8283 18.153 12.7817 18.153 12.7248C18.153 12.6679 18.1312 12.6214 18.0985 12.6214C18.0713 12.6214 18.0441 12.5024 18.0441 12.3627C18.0441 12.2179 18.0223 12.1041 17.9896 12.1041C17.9624 12.1041 17.9351 12.1714 17.9351 12.2593C17.9351 12.3421 17.9134 12.4145 17.8807 12.4145ZM20.6035 10.0352C20.6361 10.0352 20.6579 10.1024 20.6579 10.1903C20.6579 10.2731 20.6361 10.3455 20.6035 10.3455C20.5762 10.3455 20.549 10.3817 20.549 10.4231C20.549 10.4645 20.5163 10.5369 20.4728 10.5783C20.4292 10.6196 20.3802 10.6558 20.3639 10.6558C20.3475 10.6558 20.3312 10.6093 20.3312 10.5524C20.3312 10.4955 20.3584 10.4489 20.3856 10.4489C20.4183 10.4489 20.4401 10.4024 20.4401 10.3455C20.4401 10.2886 20.4673 10.2421 20.4946 10.2421C20.5272 10.2421 20.549 10.1955 20.549 10.1386C20.549 10.0817 20.5762 10.0352 20.6035 10.0352ZM18.9153 11.4834C18.988 11.4834 19.0243 11.5179 19.0243 11.5869C19.0243 11.6558 18.988 11.6903 18.9153 11.6903C18.8427 11.6903 18.8064 11.6558 18.8064 11.5869C18.8064 11.5179 18.8427 11.4834 18.9153 11.4834ZM11.5639 12.1041C11.5965 12.1041 11.6183 12.1248 11.6183 12.1558C11.6183 12.1817 11.6564 12.2076 11.7 12.2076C11.749 12.2076 11.8198 12.2438 11.8634 12.2852C11.9124 12.3265 11.945 12.399 11.945 12.4403C11.945 12.4817 11.9723 12.5179 11.9995 12.5179C12.0322 12.5179 12.054 12.5386 12.054 12.5696C12.054 12.5955 12.0104 12.6162 11.9505 12.6058C11.896 12.6007 11.8579 12.5748 11.8688 12.5541C11.8851 12.5334 11.8688 12.5179 11.8361 12.5179C11.8089 12.5179 11.749 12.4817 11.7 12.4403C11.6564 12.399 11.6183 12.3265 11.6183 12.2852C11.6183 12.2438 11.5965 12.2076 11.5639 12.2076C11.5366 12.2076 11.5094 12.1817 11.5094 12.1558C11.5094 12.1248 11.5366 12.1041 11.5639 12.1041ZM6.47228 12.2076C6.52129 12.2076 6.64109 12.2903 6.74455 12.3886C6.85347 12.4869 6.92426 12.5852 6.90248 12.6058C6.88614 12.6265 6.85891 12.6162 6.84802 12.58C6.83713 12.5438 6.79356 12.5179 6.74455 12.5179C6.70099 12.5179 6.60297 12.461 6.52673 12.3886C6.45594 12.3162 6.39059 12.249 6.39059 12.2334C6.39059 12.2179 6.42871 12.2076 6.47228 12.2076ZM23.6094 12.311C23.6856 12.311 23.7074 12.3472 23.7074 12.4507C23.7074 12.5334 23.653 12.6317 23.5876 12.6834C23.5168 12.7352 23.4842 12.7921 23.5114 12.8127C23.5386 12.8334 23.5713 12.8231 23.5822 12.7869C23.5931 12.7507 23.6639 12.7248 23.7401 12.7248C23.8109 12.7248 23.9089 12.7352 23.9579 12.7507C24.0015 12.7662 24.0396 12.8127 24.0396 12.8541C24.0396 12.8955 24.0124 12.9317 23.9851 12.9317C23.9525 12.9317 23.9307 12.9783 23.9307 13.0352C23.9307 13.1179 23.9634 13.1386 24.1485 13.1386C24.2629 13.1386 24.3663 13.1127 24.3663 13.0869C24.3663 13.0558 24.4208 13.0455 24.4861 13.061C24.5515 13.0714 24.5787 13.0714 24.5406 13.061C24.5025 13.0455 24.4752 13.0093 24.4752 12.9834C24.4752 12.9524 24.5188 12.9317 24.5842 12.9317C24.6441 12.9317 24.6931 12.9058 24.6931 12.88C24.6931 12.8489 24.7149 12.8283 24.7475 12.8283C24.7748 12.8283 24.802 12.8955 24.802 12.9834C24.802 13.0662 24.7748 13.1386 24.7475 13.1386C24.7149 13.1386 24.6876 13.18 24.6876 13.2265C24.6876 13.2783 24.6332 13.361 24.5678 13.4076C24.497 13.4593 24.4644 13.5162 24.4861 13.5369C24.5079 13.5576 24.5678 13.5265 24.6223 13.4645C24.6767 13.4024 24.7584 13.3455 24.8129 13.3455C24.8673 13.3455 24.9109 13.3196 24.9109 13.2938C24.9109 13.2627 24.9327 13.2421 24.9653 13.2421C24.9926 13.2421 25.0198 13.2783 25.0198 13.3196C25.0198 13.361 24.9817 13.4334 24.9381 13.4748C24.8946 13.5162 24.8347 13.5524 24.802 13.5524C24.7693 13.5524 24.7584 13.5731 24.7748 13.6041C24.7856 13.63 24.8728 13.6558 24.9653 13.6558C25.0525 13.6558 25.1287 13.6765 25.1287 13.7076C25.1287 13.7334 25.0906 13.7593 25.047 13.7593C24.998 13.7593 24.9599 13.7748 24.9599 13.7955C24.9599 13.8162 25.0035 13.8886 25.0579 13.9507C25.1124 14.0179 25.2158 14.0645 25.303 14.0645C25.4173 14.0696 25.4554 14.0955 25.4554 14.1731C25.4554 14.2421 25.4191 14.2765 25.3465 14.2765C25.2739 14.2765 25.2376 14.311 25.2376 14.38C25.2376 14.4576 25.2703 14.4834 25.401 14.4834C25.4881 14.4834 25.5644 14.4938 25.5644 14.5093C25.5644 14.5248 25.4881 14.6024 25.401 14.6903C25.3084 14.7731 25.2376 14.8817 25.2376 14.9231C25.2376 14.9645 25.205 15.011 25.1668 15.0214C25.1287 15.0369 25.1559 15.0576 25.2213 15.0731C25.2866 15.0886 25.3465 15.1248 25.3465 15.1558C25.3465 15.1817 25.4064 15.2076 25.4827 15.2076C25.5535 15.2076 25.6515 15.2438 25.7005 15.2852C25.7441 15.3265 25.7822 15.3834 25.7822 15.4145C25.7822 15.4403 25.6678 15.5696 25.5371 15.699C25.401 15.8283 25.254 15.9317 25.2104 15.9317C25.1614 15.9317 25.1287 15.9524 25.1287 15.9834C25.1287 16.0093 25.1614 16.0352 25.2104 16.0352C25.254 16.0352 25.3629 15.9627 25.4554 15.88C25.5426 15.7921 25.6515 15.7248 25.7005 15.7248C25.7441 15.7248 25.7822 15.7352 25.7822 15.7507C25.7822 15.7662 25.695 15.8593 25.5916 15.9576C25.4881 16.0558 25.3683 16.1386 25.3302 16.1386C25.2921 16.1386 25.2267 16.1852 25.1832 16.2421C25.1342 16.299 25.0688 16.3455 25.0307 16.3455C24.9926 16.3455 24.8891 16.4127 24.802 16.5007C24.7094 16.5834 24.6005 16.6558 24.5569 16.6558C24.5079 16.6558 24.4752 16.6765 24.4752 16.7076C24.4752 16.7334 24.4371 16.7593 24.3936 16.7593C24.3446 16.7593 24.2356 16.8265 24.1485 16.9145C24.0559 16.9972 23.9525 17.0696 23.9144 17.0696C23.8762 17.0696 23.8109 17.1162 23.7673 17.1731C23.7183 17.23 23.653 17.2765 23.6149 17.2765C23.5767 17.2765 23.4733 17.3438 23.3861 17.4317C23.2936 17.5145 23.1955 17.5869 23.1683 17.5869C23.1356 17.5869 23.0376 17.6541 22.9505 17.7421C22.8579 17.8248 22.7545 17.8972 22.7163 17.8972C22.6782 17.8972 22.6129 17.9438 22.5693 18.0007C22.5203 18.0576 22.455 18.1041 22.4168 18.1041C22.3787 18.1041 22.2752 18.1714 22.1881 18.2593C22.0955 18.3421 21.9975 18.4145 21.9703 18.4145C21.9376 18.4145 21.8124 18.5076 21.698 18.6214C21.5782 18.7352 21.4475 18.8283 21.4094 18.8283C21.3713 18.8283 21.3059 18.8748 21.2624 18.9317C21.2134 18.9886 21.1426 19.0352 21.099 19.0352C21.05 19.0352 20.9792 19.0817 20.9356 19.1386C20.8866 19.1955 20.8158 19.2421 20.7723 19.2421C20.7233 19.2421 20.6525 19.2886 20.6089 19.3455C20.5599 19.4024 20.4946 19.449 20.4564 19.449C20.4183 19.449 20.3149 19.5162 20.2277 19.6041C20.1351 19.6869 20.0371 19.7593 20.0099 19.7593C19.9772 19.7593 19.8302 19.8731 19.6832 20.0179C19.5307 20.1576 19.3782 20.2765 19.3401 20.2765C19.302 20.2765 19.2366 20.3231 19.1931 20.38C19.1441 20.4369 19.0787 20.4834 19.0351 20.4834C18.997 20.4834 18.9317 20.5196 18.8881 20.561C18.8173 20.6283 18.8173 20.649 18.8936 20.7162C18.9371 20.7576 18.997 20.7938 19.0297 20.7938C19.0569 20.7938 19.155 20.861 19.2475 20.9489C19.3347 21.0317 19.4381 21.1041 19.4762 21.1041C19.5144 21.1041 19.5797 21.1507 19.6287 21.2076C19.6723 21.2645 19.7376 21.311 19.7757 21.311C19.8139 21.311 19.9173 21.3783 20.0099 21.4662C20.097 21.549 20.1951 21.6214 20.2277 21.6214C20.255 21.6214 20.353 21.6886 20.4455 21.7765C20.5327 21.8593 20.6307 21.9317 20.6634 21.9317C20.6906 21.9317 20.7886 21.999 20.8812 22.0869C20.9683 22.1696 21.0718 22.2421 21.1099 22.2421C21.148 22.2421 21.2134 22.2886 21.2624 22.3455C21.3059 22.4024 21.3713 22.4489 21.4094 22.4489C21.4475 22.4489 21.551 22.5162 21.6436 22.6041C21.7307 22.6869 21.8287 22.7593 21.8614 22.7593C21.8886 22.7593 21.9866 22.8265 22.0792 22.9145C22.1663 22.9972 22.2644 23.0696 22.297 23.0696C22.3243 23.0696 22.4223 23.1369 22.5149 23.2248C22.602 23.3076 22.7054 23.38 22.7436 23.38C22.7817 23.38 22.847 23.4265 22.896 23.4834C22.9396 23.5403 23.0104 23.5869 23.0594 23.5869C23.103 23.5869 23.1738 23.6334 23.2228 23.6903C23.2663 23.7472 23.3371 23.7938 23.3861 23.7938C23.4297 23.7938 23.5005 23.8403 23.5495 23.8972C23.5931 23.9541 23.6639 24.0007 23.7129 24.0007C23.7564 24.0007 23.8272 24.0472 23.8762 24.1041C23.9198 24.161 23.9851 24.2076 24.0233 24.2076C24.0614 24.2076 24.203 24.311 24.3391 24.4403C24.4698 24.5696 24.5842 24.7093 24.5842 24.7507C24.5842 24.7921 24.6277 24.8386 24.6931 24.8541C24.753 24.8696 24.8837 24.9627 24.9926 25.061C25.096 25.1593 25.205 25.2421 25.2376 25.2421C25.2649 25.2421 25.352 25.299 25.4282 25.3714C25.499 25.4438 25.5644 25.511 25.5644 25.5265C25.5644 25.5421 25.4881 25.5524 25.401 25.5524C25.3084 25.5524 25.2376 25.5731 25.2376 25.6041C25.2376 25.63 25.1941 25.6558 25.1505 25.6558C25.1015 25.6558 25.0307 25.6921 24.9871 25.7334C24.9436 25.7748 24.9109 25.8317 24.9109 25.8627C24.9109 25.8886 24.9708 25.9714 25.047 26.0438C25.1178 26.1162 25.2158 26.1731 25.2649 26.1731C25.3084 26.1731 25.3465 26.1938 25.3465 26.2248C25.3465 26.2507 25.3901 26.2765 25.4554 26.2765C25.5153 26.2765 25.548 26.2972 25.5371 26.3283C25.5208 26.3541 25.5426 26.38 25.5916 26.38C25.6351 26.38 25.6733 26.4265 25.6733 26.4834C25.6733 26.5403 25.646 26.5869 25.6188 26.5869C25.5861 26.5869 25.5644 26.561 25.5644 26.5352C25.5644 26.5041 25.4609 26.4834 25.3465 26.4834C25.2158 26.4834 25.1178 26.4576 25.1069 26.4162C25.096 26.38 25.0688 26.3696 25.0525 26.3903C25.0307 26.411 25.0525 26.4679 25.1015 26.5093C25.1451 26.5507 25.2104 26.5869 25.2485 26.5869C25.2866 26.5869 25.3629 26.6438 25.4173 26.7058C25.4881 26.7783 25.5262 26.799 25.5426 26.7524C25.5535 26.7162 25.6079 26.6903 25.6733 26.6903C25.7332 26.6903 25.7822 26.711 25.7822 26.7421C25.7822 26.7679 25.8257 26.7938 25.8911 26.7938C25.951 26.7938 26 26.8145 26 26.8455C26 26.8714 25.951 26.8972 25.8911 26.8972C25.8257 26.8972 25.7822 26.8714 25.7822 26.8455C25.7822 26.8145 25.7332 26.7938 25.6733 26.7938C25.6079 26.7938 25.5644 26.8145 25.5644 26.8455C25.5644 26.8714 25.5916 26.9024 25.6297 26.9127C25.6678 26.9283 25.6787 26.9541 25.6515 26.98C25.6188 27.0058 25.5916 27.0007 25.5807 26.9593C25.5698 26.9231 25.5153 26.8972 25.4554 26.8972C25.3901 26.8972 25.3356 26.8662 25.3248 26.83C25.3139 26.7834 25.2812 26.7938 25.2158 26.8558C25.1668 26.9076 25.1451 26.9593 25.1668 26.9748C25.1886 26.9903 25.1396 27.0007 25.0579 27.0007C24.9762 27.0007 24.9 26.9696 24.8891 26.9334C24.8782 26.8972 24.851 26.8817 24.8347 26.8972C24.8129 26.9127 24.8946 27.0214 25.0144 27.1403C25.1342 27.2645 25.2104 27.3731 25.1832 27.3886C25.1505 27.4041 25.1287 27.3886 25.1287 27.3627C25.1287 27.3317 25.0797 27.311 25.0198 27.311C24.9545 27.311 24.9109 27.2852 24.9109 27.2593C24.9109 27.2283 24.8619 27.2076 24.802 27.2076C24.7366 27.2076 24.6822 27.1765 24.6713 27.1403C24.6604 27.1041 24.6277 27.0938 24.6005 27.1145C24.5733 27.1352 24.6277 27.2179 24.7203 27.2955C24.8074 27.3731 24.8891 27.4817 24.8946 27.5283C24.9 27.58 24.8891 27.6214 24.8673 27.6214C24.8455 27.6214 24.7911 27.5748 24.7475 27.5179C24.6985 27.461 24.6223 27.4145 24.5678 27.4145C24.5134 27.4145 24.4752 27.4248 24.4752 27.4403C24.4752 27.4558 24.5351 27.5231 24.6114 27.5955C24.6822 27.6679 24.7693 27.7248 24.802 27.7248C24.8292 27.7248 24.8401 27.7455 24.8292 27.7765C24.8129 27.8024 24.8292 27.8334 24.8619 27.8386C24.9054 27.849 24.9109 27.8955 24.8891 27.9576C24.8564 28.0558 24.851 28.0558 24.7584 27.9472C24.704 27.8852 24.6441 27.8283 24.6223 27.8283C24.6005 27.8283 24.5842 27.8748 24.5842 27.9317C24.5842 27.9886 24.6059 28.0352 24.6386 28.0352C24.6658 28.0352 24.6931 28.0817 24.6931 28.1386C24.6931 28.1955 24.6658 28.2524 24.6386 28.2679C24.6059 28.2834 24.546 28.2576 24.5025 28.2162C24.4535 28.1748 24.399 28.1489 24.3772 28.1645C24.3554 28.18 24.3663 28.211 24.4045 28.2317C24.448 28.2524 24.4698 28.3403 24.4589 28.449C24.448 28.599 24.4208 28.63 24.3119 28.6455C24.2356 28.6558 24.154 28.63 24.1267 28.5938C24.0941 28.5421 24.0777 28.5421 24.0614 28.5886C24.045 28.6248 23.9688 28.6558 23.8871 28.6558C23.8054 28.6558 23.702 28.6765 23.6584 28.7076C23.5876 28.749 23.5876 28.7593 23.6693 28.7593C23.731 28.7593 23.7583 28.7938 23.751 28.8627C23.7455 28.9196 23.7074 28.9662 23.6693 28.9662C23.6312 28.9662 23.604 28.9403 23.604 28.9145C23.604 28.8834 23.555 28.8627 23.4951 28.8627C23.4297 28.8627 23.3861 28.8369 23.3861 28.811C23.3861 28.78 23.3426 28.7593 23.2881 28.7541C23.2337 28.7541 23.1465 28.7024 23.0975 28.6403C23.0431 28.5783 22.9995 28.5472 22.9995 28.5783C22.9995 28.6041 22.9668 28.63 22.9233 28.63C22.8851 28.63 22.8579 28.6093 22.8688 28.5886C22.8851 28.5679 22.847 28.5524 22.7871 28.5524C22.7218 28.5524 22.6401 28.5162 22.5965 28.4748C22.5475 28.4334 22.5203 28.3765 22.5257 28.3507C22.5312 28.33 22.4604 28.2369 22.3624 28.1438C22.2644 28.0558 22.1609 27.9834 22.1337 27.9834C22.101 27.9834 21.9921 27.9007 21.8886 27.8024C21.7797 27.7041 21.6708 27.6214 21.6436 27.6214C21.6109 27.6214 21.5129 27.549 21.4257 27.4662C21.3332 27.3783 21.2243 27.311 21.1807 27.311C21.1317 27.311 21.099 27.2852 21.099 27.2593C21.099 27.2283 21.05 27.2076 20.9901 27.2076C20.9248 27.2076 20.8812 27.1817 20.8812 27.1558C20.8812 27.1248 20.8376 27.1041 20.7832 27.1041C20.7287 27.1041 20.6525 27.0576 20.6089 27.0007C20.5599 26.9438 20.4891 26.8972 20.4455 26.8972C20.3965 26.8972 20.3257 26.8507 20.2822 26.7938C20.2332 26.7369 20.1569 26.6903 20.1025 26.6903C20.048 26.6903 20.0099 26.6645 20.0099 26.6386C20.0099 26.6076 19.9446 26.5869 19.8738 26.5869C19.7757 26.5869 19.6233 26.4783 19.3564 26.2248C19.1441 26.0231 18.9371 25.8627 18.8936 25.8627C18.8446 25.8627 18.8119 25.8369 18.8119 25.811C18.8119 25.78 18.7683 25.7593 18.7139 25.7593C18.6594 25.7593 18.5832 25.7127 18.5396 25.6558C18.4906 25.5989 18.4144 25.5524 18.3599 25.5524C18.3 25.5524 18.2673 25.511 18.2673 25.449C18.2673 25.38 18.231 25.3455 18.1584 25.3455C18.0858 25.3455 18.0495 25.311 18.0495 25.2421C18.0495 25.1731 18.0132 25.1386 17.9406 25.1386C17.8752 25.1386 17.8208 25.1645 17.8099 25.2007C17.8045 25.2369 17.4723 24.9576 17.0748 24.58C16.6827 24.2024 16.3342 23.8972 16.3069 23.8972C16.2743 23.8972 16.1762 23.8248 16.0891 23.7421C15.9965 23.6541 15.8985 23.5869 15.8713 23.5869C15.8386 23.5869 15.7406 23.5145 15.6535 23.4317C15.5609 23.3438 15.452 23.2765 15.4084 23.2765C15.3594 23.2765 15.3158 23.2455 15.305 23.2093C15.2886 23.1679 15.2505 23.1834 15.1797 23.261C15.1252 23.3231 15.049 23.3748 15.0109 23.3748C14.9728 23.38 14.8421 23.4731 14.7277 23.5869C14.6079 23.7007 14.4827 23.7938 14.4554 23.7938C14.4228 23.7938 14.3248 23.861 14.2376 23.9489C14.145 24.0317 14.047 24.1041 14.0198 24.1041C13.9871 24.1041 13.8891 24.1714 13.802 24.2593C13.7094 24.3421 13.6059 24.4145 13.5678 24.4145C13.5297 24.4145 13.4644 24.461 13.4208 24.5179C13.3718 24.5748 13.2955 24.6214 13.2411 24.6214C13.1866 24.6214 13.1485 24.6421 13.1485 24.6731C13.1485 24.6989 13.1104 24.7248 13.0668 24.7248C13.0178 24.7248 12.9089 24.7921 12.8218 24.88C12.7292 24.9627 12.6257 25.0352 12.5876 25.0352C12.5495 25.0352 12.4842 25.0817 12.4406 25.1386C12.3916 25.1955 12.3262 25.2421 12.2881 25.2421C12.25 25.2421 12.1465 25.3093 12.0594 25.3972C11.9668 25.48 11.8579 25.5524 11.8144 25.5524C11.7653 25.5524 11.7327 25.5731 11.7327 25.6041C11.7327 25.63 11.6619 25.6558 11.5802 25.6558C11.4931 25.6558 11.395 25.6972 11.3515 25.7593C11.3025 25.8162 11.2262 25.8627 11.1718 25.8627C11.1173 25.8627 11.0792 25.8834 11.0792 25.9145C11.0792 25.9403 11.0356 25.9662 10.9812 25.9662C10.9267 25.9662 10.8505 26.0127 10.8069 26.0696C10.7579 26.1265 10.6926 26.1731 10.6545 26.1731C10.6163 26.1731 10.4856 26.2662 10.3713 26.38C10.2515 26.4938 10.1153 26.5869 10.0718 26.5869C10.0228 26.5869 9.9901 26.6076 9.9901 26.6386C9.9901 26.6645 9.94653 26.6903 9.89208 26.6903C9.83762 26.6903 9.76139 26.7369 9.71782 26.7938C9.66881 26.8507 9.60347 26.8972 9.56535 26.8972C9.52723 26.8972 9.42376 26.9645 9.33663 27.0524C9.24406 27.1352 9.13515 27.2076 9.09158 27.2076C9.04257 27.2076 9.0099 27.2283 9.0099 27.2593C9.0099 27.2852 8.96634 27.311 8.91188 27.311C8.85743 27.311 8.78119 27.3576 8.73762 27.4145C8.68861 27.4714 8.61782 27.5179 8.57426 27.5179C8.52525 27.5179 8.45446 27.5645 8.41089 27.6214C8.36188 27.6783 8.28564 27.7248 8.23119 27.7248C8.17673 27.7248 8.13861 27.7455 8.13861 27.7765C8.13861 27.8024 8.09505 27.8283 8.04059 27.8283C7.98614 27.8283 7.9099 27.8748 7.86634 27.9317C7.81733 27.9886 7.74109 28.0352 7.68663 28.0352C7.63218 28.0352 7.58317 28.061 7.57228 28.0972C7.56139 28.1386 7.53416 28.1438 7.50149 28.1179C7.47426 28.0921 7.48515 28.0662 7.52327 28.0507C7.56139 28.0403 7.59406 28.0093 7.59406 27.9834C7.59406 27.9524 7.52327 27.9317 7.44158 27.9317C7.35446 27.9317 7.25644 27.9731 7.21287 28.0352C7.16386 28.0921 7.09307 28.1386 7.0495 28.1386C7.0005 28.1386 6.9297 28.1852 6.88614 28.2421C6.83713 28.299 6.76089 28.3455 6.70644 28.3455C6.65198 28.3455 6.61386 28.3662 6.61386 28.3972C6.61386 28.4231 6.58663 28.449 6.55941 28.449C6.52673 28.449 6.50495 28.4024 6.50495 28.3455C6.50495 28.2886 6.47772 28.2421 6.4505 28.2421C6.41782 28.2421 6.39604 28.2627 6.39604 28.2938C6.39604 28.3196 6.32525 28.3455 6.24356 28.3455C6.15644 28.3455 6.05842 28.3869 6.01485 28.449C5.96584 28.5058 5.91139 28.5524 5.8896 28.5524C5.86782 28.5524 5.85149 28.511 5.85149 28.4593C5.85149 28.4127 5.90594 28.33 5.97129 28.2783C6.04208 28.2317 6.07475 28.1696 6.04752 28.149C6.0203 28.1283 5.98762 28.1386 5.97673 28.1748C5.96584 28.211 5.93317 28.2421 5.90594 28.2421C5.87327 28.2421 5.84604 28.1748 5.84604 28.0972C5.84604 28.0145 5.89505 27.9265 5.9604 27.88C6.0203 27.8386 6.06931 27.7817 6.06931 27.761C6.06931 27.7403 6.02574 27.7248 5.98218 27.7248C5.93317 27.7248 5.86238 27.761 5.81881 27.8024C5.77525 27.8438 5.74257 27.9162 5.74257 27.9576C5.74257 27.999 5.69356 28.0352 5.63366 28.0352C5.57376 28.0352 5.52475 28.0145 5.52475 27.9938C5.52475 27.9731 5.57921 27.9162 5.64455 27.8645C5.74802 27.7817 5.75347 27.761 5.68812 27.7248C5.61733 27.6834 5.62822 27.6627 5.74257 27.5696C5.85693 27.4765 5.86238 27.4507 5.79703 27.4093C5.72079 27.3679 5.72079 27.3576 5.79703 27.3162C5.86782 27.2748 5.86238 27.2593 5.78069 27.1869C5.72624 27.1403 5.65545 27.1041 5.61733 27.1041C5.57921 27.1041 5.50297 27.161 5.45396 27.2231C5.39951 27.2852 5.35594 27.3058 5.35594 27.2696C5.35594 27.2334 5.39406 27.1714 5.44307 27.13C5.48663 27.0886 5.52475 26.9955 5.52475 26.9231C5.52475 26.8248 5.49208 26.7938 5.41584 26.7938C5.35594 26.7938 5.30693 26.8145 5.30693 26.8455C5.30693 26.8714 5.2797 26.8972 5.25248 26.8972C5.2198 26.8972 5.19802 26.8507 5.19802 26.7938C5.19802 26.7369 5.2198 26.6903 5.25248 26.6903C5.2797 26.6903 5.29604 26.6593 5.28515 26.6231C5.27426 26.5869 5.22525 26.5662 5.17624 26.5714C5.11089 26.5817 5.08911 26.5455 5.08911 26.4317C5.08911 26.3076 5.06188 26.2765 4.9802 26.2765C4.9203 26.2765 4.87129 26.2972 4.87129 26.3283C4.87129 26.3541 4.84406 26.38 4.81683 26.38C4.78416 26.38 4.76238 26.3334 4.76238 26.2765C4.76238 26.2076 4.79868 26.1731 4.87129 26.1731C4.93119 26.1731 4.9802 26.1472 4.9802 26.1214C4.9802 26.0903 4.93663 26.0696 4.88218 26.0696C4.82772 26.0696 4.75149 26.1162 4.70792 26.1731C4.65891 26.23 4.58267 26.2765 4.52822 26.2765C4.47376 26.2765 4.43564 26.2972 4.43564 26.3283C4.43564 26.3541 4.38663 26.38 4.32673 26.38C4.26683 26.38 4.21782 26.4007 4.21782 26.4317C4.21782 26.4576 4.16881 26.4834 4.10891 26.4834C4.04901 26.4834 4 26.4576 4 26.4317C4 26.4007 4.04901 26.38 4.10891 26.38C4.16881 26.38 4.21782 26.3541 4.21782 26.3283C4.21782 26.2972 4.2505 26.2765 4.2995 26.2765C4.34307 26.2765 4.45198 26.2041 4.54455 26.1214C4.63168 26.0334 4.73515 25.9662 4.77327 25.9662C4.81139 25.9662 4.87673 25.9196 4.92574 25.8627C4.97475 25.7955 5.06733 25.7593 5.18713 25.7593C5.28515 25.7593 5.3995 25.7231 5.44307 25.6817C5.48663 25.6403 5.52475 25.5472 5.52475 25.4748C5.52475 25.4024 5.55198 25.3352 5.5901 25.3248C5.63911 25.3041 5.63911 25.2886 5.57921 25.2472C5.52112 25.2093 5.51568 25.1903 5.56287 25.1903C5.60099 25.1903 5.63366 25.1334 5.63366 25.061C5.63366 24.9524 5.65545 24.9317 5.79703 24.9317C5.92228 24.9317 5.9604 24.9058 5.9604 24.8283C5.9604 24.7714 5.93317 24.7248 5.90594 24.7248C5.87327 24.7248 5.85149 24.7455 5.85149 24.7765C5.85149 24.8024 5.80248 24.8283 5.74257 24.8283C5.68267 24.8283 5.61733 24.7921 5.60644 24.7507C5.5901 24.7093 5.60099 24.6834 5.63366 24.699C5.66089 24.7145 5.74802 24.6938 5.82426 24.6576C5.9005 24.6214 5.9604 24.5748 5.9604 24.5541C5.9604 24.5334 5.90594 24.5179 5.85149 24.5179C5.79158 24.5179 5.74257 24.5386 5.74257 24.5696C5.74257 24.5955 5.69356 24.6214 5.63366 24.6214C5.57376 24.6214 5.52475 24.5955 5.52475 24.5696C5.52475 24.5386 5.57376 24.5179 5.63366 24.5179C5.70627 24.5179 5.74257 24.4834 5.74257 24.4145C5.74257 24.3455 5.77888 24.311 5.85149 24.311C5.90594 24.311 5.9604 24.2852 5.9604 24.2593C5.9604 24.2283 6.00941 24.2076 6.06931 24.2076C6.12376 24.2076 6.17822 24.1817 6.17822 24.1558C6.17822 24.1248 6.21634 24.1041 6.27079 24.1041C6.32525 24.1041 6.40149 24.0576 6.4505 24.0007C6.49406 23.9438 6.5703 23.8972 6.62475 23.8972C6.67921 23.8972 6.72277 23.8714 6.72277 23.8455C6.72277 23.8145 6.77178 23.7938 6.83168 23.7938C6.88614 23.7938 6.94604 23.7627 6.96238 23.7265C6.97871 23.68 7.0005 23.6852 7.04406 23.7421C7.09852 23.8041 7.10396 23.799 7.07673 23.7007C7.05495 23.6127 7.07129 23.5869 7.15842 23.5869C7.21287 23.5869 7.26733 23.561 7.26733 23.5352C7.26733 23.5041 7.31634 23.4834 7.37624 23.4834C7.43069 23.4834 7.48515 23.4576 7.48515 23.4317C7.48515 23.4007 7.51238 23.38 7.55049 23.38C7.58861 23.38 7.67574 23.3334 7.74109 23.2765C7.80644 23.2196 7.89901 23.1731 7.94802 23.1731C7.99158 23.1731 8.0297 23.1472 8.0297 23.1214C8.0297 23.0903 8.06238 23.0696 8.11139 23.0696C8.15495 23.0696 8.26386 22.9972 8.35644 22.9145C8.44356 22.8265 8.54158 22.7593 8.57426 22.7593C8.60693 22.7593 8.66683 22.7231 8.7104 22.6817C8.75396 22.6403 8.77574 22.5834 8.75396 22.5627C8.73762 22.5421 8.7104 22.5524 8.69951 22.5886C8.68861 22.6248 8.62871 22.6558 8.57426 22.6558C8.50165 22.6558 8.46535 22.6214 8.46535 22.5524C8.46535 22.4748 8.49802 22.4489 8.60148 22.4489C8.67772 22.4489 8.80297 22.3817 8.90099 22.2938C8.98812 22.2058 9.09158 22.1386 9.1297 22.1386C9.16782 22.1386 9.23317 22.0921 9.28218 22.0352C9.32574 21.9783 9.40198 21.9317 9.45644 21.9317C9.51089 21.9317 9.55446 21.9058 9.55446 21.88C9.55446 21.8489 9.6198 21.8283 9.70149 21.8283C9.78861 21.8283 9.88663 21.7869 9.93564 21.7248C9.97921 21.6679 10.05 21.6214 10.099 21.6214C10.1426 21.6214 10.2134 21.5748 10.2624 21.5179C10.3059 21.461 10.3822 21.4145 10.4366 21.4145C10.4911 21.4145 10.5347 21.3886 10.5347 21.3627C10.5347 21.3317 10.5728 21.311 10.6272 21.311C10.6817 21.311 10.7579 21.2645 10.8069 21.2076C10.8505 21.1507 10.9213 21.1041 10.9703 21.1041C11.0139 21.1041 11.0847 21.0576 11.1337 21.0007C11.1772 20.9438 11.2426 20.8972 11.2807 20.8972C11.3243 20.8972 11.4114 20.8403 11.4876 20.7679C11.6074 20.6541 11.6129 20.6283 11.5421 20.561C11.4931 20.5196 11.4223 20.4834 11.3787 20.4834C11.3297 20.4834 11.297 20.4576 11.297 20.4317C11.297 20.4007 11.2535 20.38 11.199 20.38C11.1446 20.38 11.0683 20.3334 11.0248 20.2765C10.9757 20.2196 10.8995 20.1731 10.845 20.1731C10.7906 20.1731 10.7525 20.1472 10.7525 20.1214C10.7525 20.0903 10.698 20.0696 10.6436 20.0696C10.5837 20.0696 10.5347 20.0438 10.5347 20.0179C10.5347 19.9869 10.4965 19.9662 10.453 19.9662C10.404 19.9662 10.3332 19.93 10.2896 19.8886C10.2406 19.8472 10.2079 19.7852 10.2079 19.7593C10.2079 19.7283 10.1698 19.6714 10.1262 19.63C10.0772 19.5886 10.0173 19.5524 9.9901 19.5524C9.95743 19.5524 9.85941 19.48 9.77228 19.3972C9.6797 19.3093 9.57624 19.2421 9.53812 19.2421C9.5 19.2421 9.43465 19.1955 9.39109 19.1386C9.34208 19.0817 9.26584 19.0352 9.21139 19.0352C9.15693 19.0352 9.11337 19.0041 9.11337 18.9679C9.11337 18.9265 9.09521 18.9317 9.05891 18.9834C9.02624 19.0352 9.0099 19.0386 9.0099 18.9938C9.0099 18.9576 8.95545 18.9317 8.90099 18.9317C8.81931 18.9317 8.79208 18.8955 8.79208 18.8024C8.79208 18.73 8.74852 18.6317 8.69951 18.58C8.63416 18.5179 8.60149 18.5076 8.59059 18.5541C8.5797 18.5903 8.53614 18.6214 8.49257 18.6214C8.44356 18.6214 8.36733 18.5852 8.31287 18.5386C8.23119 18.4662 8.22574 18.4507 8.30198 18.4093C8.34554 18.3886 8.36188 18.3472 8.33465 18.3265C8.30743 18.3007 8.27475 18.311 8.26386 18.3472C8.25297 18.3834 8.19307 18.4145 8.13861 18.4145C8.07871 18.4145 8.0297 18.3886 8.0297 18.3627C8.0297 18.3317 8.05693 18.3007 8.09505 18.2955C8.13317 18.2852 8.07871 18.1972 7.95891 18.0886C7.84455 17.98 7.75198 17.9231 7.75198 17.9593C7.74653 18.011 7.74109 18.011 7.72475 17.9593C7.70842 17.9231 7.64851 17.8972 7.59406 17.8972C7.53416 17.8972 7.48515 17.8714 7.48515 17.8455C7.48515 17.8145 7.44703 17.7938 7.40347 17.7938C7.35446 17.7938 7.22376 17.7007 7.10396 17.5869C6.93515 17.4265 6.84257 17.38 6.70644 17.38C6.59208 17.38 6.4995 17.3438 6.4505 17.2765C6.40149 17.2196 6.32525 17.1731 6.27079 17.1731C6.21634 17.1731 6.17822 17.1472 6.17822 17.1214C6.17822 17.0903 6.1401 17.0696 6.09653 17.0696C6.04752 17.0696 5.91683 16.9765 5.79703 16.8627C5.67178 16.749 5.55198 16.6558 5.52475 16.6558C5.49208 16.6558 5.39406 16.5834 5.30693 16.5007C5.21436 16.4127 5.11089 16.3455 5.07277 16.3455C5.03465 16.3455 4.96931 16.299 4.92574 16.2421C4.87673 16.1852 4.81139 16.1386 4.77327 16.1386C4.73515 16.1386 4.62079 16.0558 4.51733 15.9576C4.40842 15.8593 4.32673 15.7662 4.32673 15.7507C4.32673 15.7352 4.37574 15.7248 4.43564 15.7248C4.49554 15.7248 4.55 15.7507 4.56634 15.7869C4.58267 15.8386 4.60446 15.8334 4.64802 15.7765C4.67525 15.7352 4.70248 15.6731 4.70248 15.6472C4.70248 15.6162 4.68069 15.6317 4.65347 15.6731C4.62079 15.73 4.59901 15.7145 4.57178 15.5955C4.55545 15.5076 4.55545 15.43 4.57178 15.4145C4.58812 15.399 4.62624 15.4248 4.65347 15.4662C4.68069 15.5076 4.70248 15.5179 4.70248 15.4921C4.70248 15.461 4.68069 15.4041 4.64802 15.3627C4.60446 15.2903 4.58812 15.2903 4.54455 15.3627C4.50644 15.43 4.48465 15.43 4.40842 15.3472C4.36485 15.3007 4.32673 15.249 4.32673 15.2334C4.32673 15.2179 4.42475 15.2076 4.54455 15.2076C4.66436 15.2076 4.76238 15.2283 4.76238 15.2593C4.76238 15.2852 4.81139 15.311 4.87129 15.311C4.93119 15.311 4.9802 15.2903 4.9802 15.2696C4.9802 15.2489 4.93119 15.1972 4.86584 15.1558C4.80594 15.1145 4.75693 15.0369 4.75693 14.9852C4.75693 14.9386 4.78416 14.8972 4.81683 14.8972C4.84406 14.8972 4.87673 14.9231 4.88762 14.9593C4.90396 15.0058 4.93119 15.011 4.97475 14.9748C5.02376 14.9334 4.99109 14.8714 4.84406 14.7265C4.74059 14.6231 4.65347 14.499 4.65347 14.4576C4.65347 14.4162 4.67525 14.38 4.70792 14.38C4.73515 14.38 4.76782 14.4007 4.77327 14.4265C4.77871 14.4524 4.8495 14.4783 4.92574 14.4886C5.03465 14.5041 5.06188 14.4834 5.07277 14.3645C5.08366 14.2765 5.04554 14.1886 4.9802 14.1317C4.9203 14.0852 4.87129 14.0231 4.87129 14.0024C4.87129 13.9817 4.94208 13.9662 5.03465 13.9662C5.14901 13.9662 5.20347 13.9352 5.22525 13.8627C5.23614 13.8058 5.28515 13.7593 5.33416 13.7593C5.37772 13.7593 5.41584 13.7334 5.41584 13.7076C5.41584 13.6765 5.38861 13.6558 5.36139 13.6558C5.32871 13.6558 5.32327 13.6248 5.3396 13.5886C5.37228 13.5369 5.38317 13.5369 5.39406 13.5886C5.40495 13.6248 5.43762 13.6558 5.4703 13.6558C5.49752 13.6558 5.51931 13.5886 5.51931 13.511C5.51931 13.4283 5.46485 13.33 5.39951 13.2783C5.32871 13.2317 5.29604 13.1696 5.31782 13.149C5.3396 13.1283 5.39951 13.1645 5.45396 13.2265C5.50842 13.2886 5.56832 13.3403 5.5901 13.3403C5.61188 13.3455 5.63366 13.299 5.63366 13.2421C5.63366 13.1852 5.60644 13.1386 5.57921 13.1386C5.54653 13.1386 5.5302 13.0662 5.53564 12.9834C5.54653 12.8852 5.52475 12.8283 5.48119 12.8283C5.44307 12.8283 5.41584 12.8024 5.41584 12.7765C5.41584 12.7455 5.46485 12.7248 5.52475 12.7248C5.60644 12.7248 5.63366 12.7558 5.63366 12.88C5.63366 12.9627 5.65545 13.0352 5.68812 13.0352C5.71535 13.0352 5.75347 13.0041 5.7698 12.9679C5.79158 12.9162 5.80248 12.9162 5.82426 12.9679C5.83515 13.0041 5.87327 13.0352 5.90594 13.0352C5.93317 13.0352 5.9604 12.9886 5.9604 12.9317C5.9604 12.8627 5.92409 12.8283 5.85149 12.8283C5.76436 12.8283 5.74257 12.7972 5.75347 12.6834C5.75891 12.6058 5.79703 12.5127 5.83515 12.4765C5.87327 12.4403 5.92228 12.43 5.94406 12.4455C5.96584 12.4662 5.95495 12.4869 5.91683 12.4972C5.87871 12.5076 5.85149 12.5386 5.85149 12.5696C5.85149 12.5955 5.92228 12.6214 6.01485 12.6214C6.10198 12.6214 6.17822 12.5955 6.17822 12.5696C6.17822 12.5386 6.15099 12.5179 6.12376 12.5179C6.09109 12.5179 6.06931 12.4921 6.06931 12.4662C6.06931 12.4352 6.11832 12.4145 6.17822 12.4145C6.23267 12.4145 6.28713 12.4352 6.28713 12.4662C6.28713 12.4921 6.35248 12.5179 6.43416 12.5179C6.51584 12.5179 6.61386 12.5438 6.65198 12.58C6.6901 12.6162 6.72277 12.6886 6.72277 12.7352C6.72277 12.7869 6.76089 12.8283 6.81535 12.8283C6.8698 12.8283 6.94604 12.8748 6.99505 12.9317C7.03861 12.9886 7.09307 13.0352 7.11485 13.0352C7.13663 13.0352 7.15842 12.9421 7.15842 12.8283C7.15842 12.7145 7.16931 12.6214 7.18564 12.6214C7.19653 12.6214 7.28366 12.6886 7.37624 12.7765C7.46337 12.8593 7.56683 12.9317 7.60495 12.9317C7.64307 12.9317 7.70842 12.9783 7.75743 13.0352C7.80099 13.0921 7.87178 13.1386 7.92079 13.1386C7.96436 13.1386 8.03515 13.1852 8.08416 13.2421C8.12772 13.3041 8.22574 13.3455 8.31287 13.3455C8.39455 13.3455 8.46535 13.3662 8.46535 13.3972C8.46535 13.4231 8.49802 13.4489 8.54703 13.4489C8.59059 13.4489 8.72673 13.5421 8.84653 13.6558C8.96634 13.7696 9.08614 13.8627 9.11881 13.8627C9.14604 13.8627 9.24406 13.93 9.33663 14.0179C9.42376 14.1007 9.52178 14.1731 9.55446 14.1731C9.58168 14.1731 9.6797 14.2403 9.77228 14.3283C9.85941 14.411 9.95743 14.4834 9.9901 14.4834C10.0173 14.4834 10.1153 14.5507 10.2079 14.6386C10.295 14.7214 10.3985 14.7938 10.4366 14.7938C10.4748 14.7938 10.5401 14.8403 10.5891 14.8972C10.6327 14.9541 10.698 15.0007 10.7361 15.0007C10.7743 15.0007 10.8777 15.0679 10.9703 15.1558C11.0574 15.2386 11.1554 15.311 11.1881 15.311C11.2153 15.311 11.3134 15.3783 11.4059 15.4662C11.4931 15.549 11.5911 15.6214 11.6238 15.6214C11.651 15.6214 11.749 15.6886 11.8416 15.7765C11.9287 15.8593 12.0376 15.9317 12.0866 15.9317C12.1302 15.9317 12.1683 15.9524 12.1683 15.9834C12.1683 16.0093 12.2173 16.0352 12.2772 16.0352C12.3317 16.0352 12.3861 16.0558 12.3861 16.0869C12.3861 16.1127 12.4351 16.1386 12.4951 16.1386C12.555 16.1386 12.604 16.1696 12.604 16.2162C12.604 16.2576 12.6366 16.33 12.6856 16.3714C12.7292 16.4127 12.8163 16.4489 12.8762 16.4489C12.9307 16.4489 13.1049 16.5627 13.2574 16.7076C13.4389 16.88 13.5751 16.9662 13.6658 16.9662C13.7475 16.9662 13.802 16.9921 13.802 17.0438C13.802 17.0852 13.8619 17.1783 13.9381 17.2507C14.0089 17.3231 14.096 17.38 14.1287 17.38C14.1559 17.38 14.254 17.4472 14.3465 17.5352C14.4337 17.6179 14.5371 17.6903 14.5752 17.6903C14.6134 17.6903 14.6787 17.7369 14.7277 17.7938C14.7713 17.8507 14.8421 17.8972 14.8911 17.8972C14.9347 17.8972 15.0054 17.9438 15.0545 18.0007C15.098 18.0576 15.1906 18.1041 15.2559 18.1041C15.3213 18.1041 15.452 18.0317 15.5446 17.9489C15.6317 17.861 15.7297 17.7938 15.7624 17.7938C15.7896 17.7938 15.9584 17.6541 16.1436 17.4834C16.3233 17.3127 16.503 17.1731 16.552 17.1731C16.5955 17.1731 16.6337 17.1369 16.6337 17.0955C16.6337 17.0541 16.6663 16.9817 16.7099 16.9403C16.7535 16.899 16.8188 16.8627 16.8569 16.8576C16.9005 16.8576 16.9767 16.8058 17.0312 16.7438C17.102 16.6662 17.1401 16.6507 17.1564 16.6921C17.1673 16.7283 17.2 16.7593 17.2327 16.7593C17.2599 16.7593 17.2871 16.7127 17.2871 16.6558C17.2871 16.599 17.3089 16.5524 17.3416 16.5524C17.3688 16.5524 17.396 16.5731 17.396 16.6041C17.396 16.63 17.4178 16.6558 17.4505 16.6558C17.4777 16.6558 17.505 16.6196 17.505 16.5783C17.505 16.5369 17.5376 16.4645 17.5812 16.4231C17.6248 16.3817 17.6847 16.3455 17.7228 16.3455C17.7554 16.3455 17.8153 16.3093 17.8589 16.2679C17.9025 16.2265 17.9406 16.1645 17.9406 16.1386C17.9406 16.1076 18.0277 15.999 18.1366 15.8903C18.2946 15.7352 18.3381 15.7145 18.3762 15.7765C18.4089 15.8386 18.4525 15.8231 18.5886 15.6834C18.6812 15.5903 18.7792 15.5179 18.8119 15.5179C18.8391 15.5179 18.9644 15.4248 19.0842 15.311C19.1985 15.1972 19.3238 15.1041 19.3564 15.1041C19.3837 15.1041 19.5307 14.9852 19.6832 14.8455C19.9282 14.6127 19.9772 14.5869 20.2005 14.5869C20.4238 14.5869 20.4455 14.5765 20.4455 14.4576C20.4455 14.3852 20.4837 14.2869 20.5272 14.2352C20.6035 14.1576 20.6198 14.1576 20.6634 14.2248C20.6906 14.2662 20.7287 14.2817 20.7505 14.261C20.7777 14.2352 20.7614 14.1989 20.7178 14.1731C20.647 14.1369 20.647 14.1162 20.7342 14.0334C20.8213 13.9507 20.8431 13.9507 20.8866 14.0179C20.9248 14.0748 20.9465 14.08 20.9629 14.0283C20.9792 13.9921 21.0228 13.9662 21.0718 13.9662C21.1153 13.9662 21.2733 13.8472 21.4257 13.7076C21.5728 13.5627 21.7307 13.4489 21.7797 13.4489C21.8233 13.4489 21.8614 13.4231 21.8614 13.3972C21.8614 13.3662 21.905 13.3455 21.9703 13.3455C22.0302 13.3455 22.0792 13.3196 22.0792 13.2938C22.0792 13.2627 22.1119 13.2421 22.1609 13.2421C22.2045 13.2421 22.3351 13.1593 22.4441 13.0558C22.6129 12.9007 22.6347 12.8593 22.5693 12.8231C22.5203 12.8024 22.504 12.761 22.5312 12.7403C22.5584 12.7145 22.5911 12.7248 22.602 12.761C22.6129 12.7972 22.6673 12.8283 22.7327 12.8283C22.7926 12.8283 22.8416 12.8024 22.8416 12.7765C22.8416 12.7455 22.8797 12.7248 22.9342 12.7248C22.9886 12.7248 23.054 12.6783 23.0866 12.6214C23.1193 12.5645 23.1955 12.5179 23.25 12.5179C23.3099 12.5179 23.3916 12.4714 23.4351 12.4145C23.4787 12.3576 23.555 12.311 23.6094 12.311ZM23.6421 13.2421C23.7074 13.299 23.7782 13.3455 23.7946 13.3455C23.8054 13.3455 23.8218 13.299 23.8218 13.2421C23.8218 13.1645 23.7837 13.1386 23.6693 13.1386L23.5223 13.1334L23.6421 13.2421ZM22.3624 12.8334C22.3842 12.8334 22.4005 12.8645 22.4005 12.911C22.4005 12.9524 22.3678 13.0196 22.3243 13.0662C22.2807 13.1076 22.2045 13.1438 22.1609 13.1438C22.1119 13.1438 22.0738 13.1283 22.0738 13.1179C22.0738 13.1024 22.1282 13.0352 22.199 12.9627C22.2644 12.8955 22.3352 12.8386 22.3624 12.8334ZM8.24208 22.661C8.30198 22.661 8.35099 22.6714 8.35099 22.6869C8.35099 22.6972 8.31832 22.7438 8.27475 22.7903C8.23119 22.8317 8.15495 22.8679 8.11139 22.8679C8.06238 22.8679 8.02426 22.8886 8.02426 22.9196C8.02426 22.9455 7.97525 22.9714 7.91535 22.9714C7.85545 22.9714 7.79554 22.9972 7.78465 23.0334C7.77376 23.0696 7.75198 23.08 7.7302 23.0593C7.71386 23.0386 7.75743 22.961 7.83366 22.8938C7.90446 22.8214 8.00248 22.7645 8.05149 22.7645C8.09505 22.7645 8.13317 22.7386 8.13317 22.7127C8.13317 22.6817 8.18218 22.661 8.24208 22.661ZM7.55049 22.9714C7.57228 22.9714 7.58861 23.0024 7.58861 23.049C7.58861 23.0903 7.55594 23.1576 7.51238 23.2041C7.46881 23.2455 7.4198 23.2817 7.40347 23.2817C7.38713 23.2817 7.37079 23.2455 7.37079 23.2041C7.37079 23.1576 7.40347 23.0903 7.44158 23.049C7.47426 23.0076 7.52327 22.9714 7.55049 22.9714ZM5.01832 25.5576C5.05099 25.5576 5.08366 25.5679 5.08366 25.5834C5.08366 25.5938 5.05099 25.6403 5.00743 25.6869C4.96386 25.7283 4.88762 25.7645 4.84406 25.7645C4.79505 25.7645 4.75149 25.7489 4.74604 25.7283C4.73515 25.7127 4.77871 25.6662 4.83861 25.63C4.89851 25.5886 4.9802 25.5576 5.01832 25.5576Z" fill="#6d6d91"/>
</svg>
