<svg width="30" height="30" viewBox="0 0 30 30" fill="#6d6d91" xmlns="http://www.w3.org/2000/svg">
<path d="M28 8.03782C27.8977 3.19948 27.8898 4.24671 27.9921 2.73676C28 2.64746 27.9292 2.56628 27.8426 2.56628C20.6717 2.07108 20.404 2.01425 19.8452 2.01425C10.0688 2.01425 15.201 1.85189 2.15016 2.6231C2.06357 2.63122 1.99273 2.70428 2.0006 2.79358C2.84284 19.0215 2.81136 16.375 2.37843 27.1882C2.37843 27.2694 2.42566 27.3343 2.50437 27.3506C3.48043 27.586 3.30726 27.4886 5.58998 27.4967L9.86418 27.0258C9.88779 27.0258 15.7678 28 15.7835 28C15.7914 28 15.7914 28 15.7992 28C22.6868 27.4155 20.7189 27.5616 25.1584 27.31L27.7717 27.8376C27.8741 27.862 27.9685 27.7808 27.9685 27.6753C27.8977 22.3986 28 8.03782 28 8.03782ZM17.3972 7.64815C17.4129 7.64003 17.4444 7.64003 17.4759 7.6238L19.3335 7.20166C20.286 6.95812 20.4277 6.90129 21.2384 6.51975C21.6163 6.64964 22.6474 7.22601 22.9072 7.55073C23.0803 7.76992 23.0646 7.81863 23.0174 8.05405C23.0095 8.10276 22.9938 8.15147 22.9859 8.20829C22.9859 8.20829 22.9859 8.21641 22.9859 8.22453L22.5766 11.4393C22.1751 11.4555 22.1358 11.423 22.0256 11.3175C21.9783 11.2769 21.9232 11.2201 21.8209 11.1551C21.2069 10.7411 19.1918 9.2474 18.5621 8.72785L17.3106 7.72121L17.3184 7.7131C17.3342 7.69686 17.3421 7.68062 17.3499 7.66439C17.3578 7.65627 17.3893 7.65627 17.3972 7.64815ZM20.2938 23.8355C20.2545 23.7949 4.67689 7.19354 4.66902 7.16919L6.03078 6.12197L25.0482 18.7861C24.8908 19.2407 24.8278 19.7602 24.7333 20.1905C24.4027 21.7167 23.9698 22.3823 23.3007 23.8273C22.3404 23.8679 20.3647 23.8598 20.2938 23.8355ZM6.12524 19.3462C6.29841 18.9241 6.54242 18.2422 6.74708 17.9012C7.73888 18.5263 11.6274 22.4554 11.9659 22.9831C11.7769 23.0561 10.9741 23.1698 9.63591 23.7056C8.78579 24.0465 7.99077 24.3631 7.21937 24.1034C7.14065 24.079 6.936 23.9004 6.62901 23.6406C6.07014 23.1617 5.56637 22.8126 5.27512 22.634C4.77922 22.3336 4.85793 22.3986 6.12524 19.3462Z" fill="#6d6d91"/>
<path d="M3.9842 19.3787C3.86613 13.0547 3.99995 16.4968 3.27577 2.55816L2.15016 2.6231C2.06357 2.63122 1.99273 2.70428 2.0006 2.79358L2.59883 14.3699C2.7169 20.5558 2.74839 17.8444 2.37843 27.1882C2.37843 27.2694 2.42566 27.3343 2.50437 27.3506C3.05537 27.4804 3.28364 27.5129 3.66935 27.5129C3.6536 27.4723 3.63786 27.9351 3.9842 19.3787Z" fill="#6d6d91"/>
<path d="M12.7687 23.3321C12.7687 23.3321 13.4299 23.1048 12.8868 22.5041C10.6749 20.02 9.32892 19.127 8.04587 17.7145C7.51061 17.13 6.73921 17.8931 6.73921 17.8931C11.7455 22.3661 10.7379 21.7167 11.6274 22.5772C11.7455 22.6908 11.8399 22.7801 11.958 22.9749C11.9344 22.9831 11.832 23.0074 11.6904 23.048C9.60442 23.5757 9.29743 23.9329 8.3686 24.1358C9.23446 24.8502 10.7694 23.9816 11.8557 23.6C12.1233 23.5107 12.4696 23.4133 12.7687 23.3321Z" fill="#6d6d91"/>
<path d="M26.0006 17.4709L7.8176 5.81348C7.2115 5.42382 6.55029 5.61053 6.03078 6.13008L25.0482 18.7942C24.8908 19.2488 24.8278 19.7683 24.7333 20.1986C24.4027 21.7248 23.9698 22.3905 23.3007 23.8355C23.3007 23.8355 25.0246 24.1683 25.552 22.9993C26.7878 20.361 26.4965 19.8658 26.7957 19.0296C26.7563 18.5506 26.8193 17.9986 26.0006 17.4709Z" fill="#6d6d91"/>
<path d="M22.9859 8.21641C22.9859 8.21641 22.9859 8.22453 22.9859 8.23265L22.5766 11.4474C22.5766 11.4474 24.1902 12.454 24.3949 10.7979L24.7255 8.07841C24.7255 8.07029 24.7255 8.07029 24.7255 8.06217C24.7412 7.99723 24.7491 7.94852 24.7648 7.89981C24.8199 7.66439 24.8357 7.60756 24.6546 7.38838C24.4657 7.15295 23.6392 6.53598 23.0174 6.1382C22.4349 5.74042 21.7343 6.21938 21.7343 6.21938C21.5611 6.34927 21.4037 6.47104 21.2384 6.51975C21.6635 6.74705 22.7419 7.33967 22.9072 7.55073C23.0803 7.76992 23.0646 7.81863 23.0174 8.05405C23.0095 8.10276 23.0016 8.15147 22.9859 8.21641Z" fill="#6d6d91"/>
</svg>
