<svg width="30" height="30" viewBox="0 0 30 30" fill="#6d6d91" xmlns="http://www.w3.org/2000/svg">
<path d="M30 14.9886C29.8727 17.0671 29.6592 19.1374 28.651 20.9594C27.7557 22.5782 27.3882 24.2217 27.5052 26.0499C27.5935 27.4164 27.4457 27.5477 26.0679 27.4821C24.2918 27.3979 22.7066 27.7652 21.0681 28.5593C17.136 30.4654 13.0294 30.4756 9.07674 28.6167C7.3766 27.8165 5.73189 27.3754 3.8757 27.48C2.61907 27.5518 2.45275 27.3877 2.52051 26.1689C2.62728 24.2833 2.18993 22.6152 1.3686 20.8814C-0.538925 16.8599 -0.421886 12.6885 1.52876 8.70802C2.27206 7.19174 2.5739 5.73085 2.5164 4.09966C2.46097 2.53208 2.54104 2.43975 4.11388 2.51361C5.82635 2.59363 7.34169 2.21405 8.91042 1.45488C12.8815 -0.46561 17.0087 -0.484077 20.9962 1.39538C22.6615 2.18122 24.2733 2.62236 26.0967 2.51361C27.419 2.43359 27.5812 2.59158 27.5011 3.87396C27.3882 5.7288 27.7167 7.40718 28.651 9.05888C29.6817 10.8727 29.8789 12.9512 30 14.9886ZM14.9903 2.69828C12.8035 2.74957 10.7132 3.22764 8.84061 4.39102C7.9967 4.91628 7.17127 5.29381 6.16309 5.17481C5.38283 5.08248 5.10769 5.49489 5.18366 6.21302C5.28427 7.14249 4.94137 7.90166 4.47937 8.70597C2.10985 12.8383 2.09137 17.0363 4.41777 21.1892C4.90235 22.055 5.29659 22.8655 5.18571 23.8709C5.10769 24.5767 5.45264 24.8988 6.14872 24.8209C7.15484 24.708 7.9659 25.1081 8.83034 25.5923C12.9493 27.8986 17.1216 27.8904 21.2344 25.5759C22.066 25.1081 22.8463 24.708 23.8175 24.8229C24.6491 24.9214 24.9324 24.4946 24.8482 23.7293C24.7517 22.8368 25.0803 22.1043 25.5258 21.3328C27.9077 17.2087 27.9487 13.0107 25.6367 8.85165C25.1378 7.95501 24.7291 7.11377 24.8421 6.0735C24.9139 5.41692 24.5813 5.10505 23.9325 5.17686C22.8894 5.29176 22.0331 4.92038 21.1564 4.3746C19.2879 3.20918 17.1935 2.74136 14.9903 2.69828Z" fill="#6d6d91"/>
<path d="M12.7908 15.8452C13.6418 13.6401 14.4927 11.4371 15.3436 9.23199C15.4372 9.22567 15.5309 9.21934 15.6245 9.21302C16.4837 11.435 17.345 13.657 18.2043 15.8789C18.7161 13.7476 19.9561 11.8145 19.4734 9.55875C19.3714 9.0802 19.6378 9.00853 19.9852 9.00642C21.1628 9.0001 22.3403 8.99588 23.52 9.00642C24.0754 9.01274 24.142 9.29945 23.7551 9.63043C23.056 10.2249 22.9208 11.0408 22.7439 11.8714C22.1364 14.7195 21.5102 17.5612 20.8694 20.4009C20.7071 21.1219 20.6364 21.7733 21.2335 22.3467C21.6974 22.7915 21.4936 22.9981 20.9381 22.9981C19.7938 23.0002 18.6516 23.0023 17.5073 22.9939C17.1807 22.9918 16.7812 22.9307 16.956 22.4795C17.3388 21.5013 16.8208 20.696 16.5503 19.8486C16.2757 18.9863 15.9345 18.1452 15.4768 17.2724C14.9962 18.9737 13.7083 20.4051 14.0329 22.3298C14.0974 22.7156 14.0787 22.9749 13.6418 22.9812C12.3955 22.996 11.1472 23.0044 9.90103 22.9876C9.37258 22.9791 9.40587 22.6735 9.70962 22.3952C10.3525 21.8049 10.2797 21.1219 10.107 20.3629C9.43708 17.3863 8.79421 14.4032 8.15757 11.4181C8.01402 10.7498 7.81013 10.1385 7.27128 9.68313C7.12357 9.55664 6.90304 9.38589 7.04659 9.16242C7.11733 9.05491 7.34618 9.01064 7.5043 9.01064C8.68186 9.0001 9.85942 9.0022 11.0391 9.01064C11.3407 9.01274 11.6507 9.10761 11.5134 9.49762C11.0224 10.8806 11.7027 12.118 11.9566 13.404C12.1168 14.2219 12.356 15.0273 12.5599 15.8368C12.6369 15.8389 12.7139 15.8431 12.7908 15.8452Z" fill="#6d6d91"/>
</svg>
