<svg width="30" height="30" viewBox="0 0 30 30" fill="#6d6d91" xmlns="http://www.w3.org/2000/svg">
<path d="M14.0873 1.5C13.4521 2.86222 12.9585 4.26295 12.7289 5.78401C12.9194 5.57222 13.0709 5.36524 13.2615 5.20158C13.4521 5.03792 13.6817 4.91758 13.8967 4.77318C13.9211 4.78762 13.9407 4.80206 13.9651 4.82131C13.9114 4.97053 13.8772 5.13419 13.799 5.26415C13.4276 5.87066 13.2077 6.52048 13.1393 7.22325C13.1247 7.38209 13.1638 7.54094 13.1638 7.69978C13.1638 7.82493 13.1491 7.95009 13.1393 8.07042C13.1344 8.10893 13.1247 8.15707 13.1393 8.19076C13.3055 8.46513 13.4521 8.75394 13.6475 9.00905C13.8136 9.22085 14.0335 9.39413 14.229 9.58186C14.3512 9.69738 14.4733 9.81772 14.6004 9.93325C14.6395 9.96694 14.6981 9.97657 14.7518 9.98619C15.0597 10.0247 15.3675 10.0584 15.6705 10.0921C15.8171 10.1065 15.9588 10.1258 16.1054 10.1306C16.9898 10.1499 17.8792 10.1306 18.7636 10.1835C20.2491 10.2702 21.6906 10.5494 22.9757 11.3532C23.1272 11.4495 23.264 11.5602 23.4057 11.6661C23.5376 11.7672 23.6452 11.8683 23.5083 12.0464C23.4888 12.0704 23.479 12.133 23.4986 12.1571C23.5474 12.2389 23.6305 12.3063 23.6647 12.3978C23.694 12.4844 23.6794 12.5855 23.6842 12.6673C23.7966 12.6866 23.9041 12.7058 24.0605 12.7299C24.1973 12.6481 24.3537 12.6721 24.4368 12.8887C24.6224 13.3749 24.8326 13.8562 24.9205 14.3617C25.1013 15.3869 24.9694 16.393 24.5687 17.3653C24.1191 18.4531 23.3422 19.257 22.3307 19.8442C21.5538 20.2967 20.7084 20.5855 19.8142 20.701C19.7116 20.7155 19.5845 20.6481 19.4917 20.5807C19.3695 20.4989 19.2718 20.3833 19.1252 20.2438C19.1594 20.3785 19.1692 20.4652 19.2034 20.5422C19.2718 20.7155 19.1838 20.7925 19.0324 20.7973C18.5193 20.8117 18.0111 20.8262 17.498 20.8166C17.3465 20.8117 17.3319 20.8743 17.3368 20.9802C17.3465 21.2353 17.3661 21.4904 17.3661 21.7408C17.371 23.1607 17.3563 24.5807 17.3807 26.0007C17.3905 26.482 17.4931 26.9682 17.5469 27.4496C17.5615 27.5795 17.5615 27.7143 17.5615 27.8491C17.5615 27.9213 17.5469 27.9935 17.5909 28.0801C17.6446 28.0079 17.6984 27.9357 17.7765 27.8395C17.9231 28.0512 18.06 28.2534 18.2261 28.4941C17.972 28.4941 17.757 28.4941 17.542 28.4941C17.1657 28.4941 16.7944 28.5085 16.4181 28.4893C16.296 28.4845 16.1787 28.4026 16.0565 28.3641C16.0028 28.3497 15.9441 28.3401 15.8904 28.3497C15.5972 28.393 15.3089 28.4845 15.0157 28.4893C13.7599 28.5037 12.509 28.4941 11.2532 28.4941C10.8427 28.4941 10.828 28.4748 10.8916 28.0657C10.8378 28.109 10.7841 28.1331 10.7596 28.1716C10.6033 28.4796 10.3345 28.5182 10.0218 28.4941C9.74813 28.4748 9.46961 28.4893 9.19597 28.4893C9.18131 28.4652 9.17154 28.446 9.15688 28.4219C9.21063 28.3786 9.2546 28.3208 9.31813 28.2871C9.46961 28.2101 9.66018 28.1716 9.78234 28.0609C10.486 27.4255 11.1554 26.7516 11.5073 25.8467C11.7271 25.2835 11.9324 24.7155 12.1034 24.1379C12.1718 23.9068 12.2695 23.8106 12.5041 23.8202C12.5676 23.825 12.636 23.7913 12.6995 23.7769C12.6751 23.7624 12.6507 23.7432 12.6262 23.7287C12.6653 23.594 12.6898 23.4592 12.7386 23.3292C12.768 23.257 12.8266 23.1992 12.8803 23.1415C13.2322 22.7853 13.2322 22.7853 12.8901 22.4435C12.5969 22.1547 12.5285 21.7937 12.5627 21.4038C12.6116 20.8503 12.6604 20.2919 12.6995 19.7383C12.7289 19.3292 12.7484 18.9249 12.7435 18.5157C12.7386 17.7792 12.7386 17.0428 12.6898 16.3063C12.6262 15.3484 12.6116 14.3809 12.3526 13.4471C12.3428 13.4134 12.3331 13.3653 12.3428 13.3364C12.4992 12.9657 12.8608 12.778 13.237 12.8887C13.1002 12.6095 12.9634 12.3737 12.6262 12.3015C12.4797 12.2726 12.3526 12.1475 12.2207 12.0656C12.0594 11.9694 11.8982 11.8731 11.7418 11.772C11.6734 11.7287 11.6001 11.6902 11.5561 11.6324C11.4291 11.4784 11.3167 11.3147 11.1994 11.1511C11.1799 11.1222 11.1457 11.0692 11.1554 11.05C11.302 10.7949 11.0626 10.8045 10.9404 10.7323C10.8427 10.6745 10.7401 10.6168 10.6619 10.5397C10.2563 10.1258 9.71393 9.93806 9.2204 9.6685C8.27732 9.14865 7.38799 8.5614 6.63548 7.79124C5.89762 7.04033 5.35034 6.1739 5.10602 5.14382C5.08159 5.03311 4.96432 4.89833 5.15977 4.78762C5.19398 4.76836 5.12557 4.53732 5.0767 4.41698C4.935 4.08485 5.00341 3.18472 5.16955 2.9248C5.33568 3.44465 5.45785 4.0319 5.70705 4.56138C6.01001 5.20158 6.42536 5.78883 6.78696 6.40014C6.92866 6.636 7.05571 6.88149 7.18764 7.12216C7.2756 7.03071 7.37333 7.06922 7.50038 7.19437C7.75447 7.43985 8.033 7.66128 8.30664 7.88751C8.36527 7.93564 8.43857 7.96934 8.46789 7.98378C8.63891 7.53131 8.79528 7.09328 8.98096 6.66488C9.04449 6.52048 9.19597 6.41458 9.28392 6.27499C9.38654 6.11133 9.45495 5.9236 9.56245 5.76476C9.6895 5.57703 9.84586 5.40856 10.0413 5.25934C9.97291 5.44707 9.89473 5.62998 9.84586 5.81771C9.71882 6.26536 9.64552 6.72746 9.47938 7.16067C9.34256 7.51687 9.37677 7.85863 9.36699 8.21483C9.36211 8.42662 9.43052 8.54215 9.63086 8.63842C10.4176 9.01868 11.1994 9.4182 11.9812 9.81291C12.0301 9.83698 12.079 9.85623 12.1181 9.87548C11.9861 9.4519 11.8395 9.02831 11.7271 8.59991C11.561 7.96934 11.5708 7.32914 11.6685 6.68414C11.9519 4.78762 12.851 3.17028 13.9798 1.65403C14.0042 1.59627 14.0482 1.54813 14.0873 1.5ZM17.2048 14.8575C17.1071 14.8286 17.0387 14.8045 17.0143 14.7997C17.0827 15.1607 17.1951 15.5217 17.2048 15.8827C17.2342 16.8262 17.2293 17.7744 17.2097 18.7227C17.2048 19.0019 17.112 19.2811 17.0631 19.5554C17.0534 19.5987 17.0631 19.6421 17.0631 19.695C17.2439 19.5795 17.3954 19.4206 17.5762 19.3725C18.4069 19.1415 19.0324 18.6312 19.5943 18.0199C19.7262 17.8803 19.8337 17.7359 19.9901 17.8274C19.9999 17.7119 19.9657 17.5626 20.0243 17.476C20.6742 16.547 20.9088 15.5458 20.5569 14.4483C20.3517 13.7985 19.9266 13.3268 19.2865 13.0331C18.6854 12.754 18.0453 12.7299 17.4052 12.6577C17.2342 12.6384 17.1804 12.7106 17.1853 12.8791C17.1999 13.4567 17.2048 14.0343 17.2097 14.6072C17.2146 14.689 17.2097 14.766 17.2048 14.8575Z" fill="#6d6d91"/>
</svg>
