<svg width="24" height="24" viewBox="0 0 24 24" fill="none" xmlns="http://www.w3.org/2000/svg">
<path d="M22.4001 6.42986C22.3182 2.5592 22.3119 3.39697 22.3938 2.18901C22.4001 2.11758 22.3434 2.05263 22.2742 2.05263C16.5374 1.65647 16.3233 1.61101 15.8762 1.61101C8.05516 1.61101 12.1609 1.48112 1.72022 2.09809C1.65095 2.10459 1.59428 2.16304 1.60058 2.23448C2.27437 15.2168 2.24918 13.0996 1.90284 21.7502C1.90284 21.8151 1.94062 21.8671 2.00359 21.8801C2.78444 22.0684 2.64591 21.9905 4.47208 21.997L7.89144 21.6203C7.91033 21.6203 12.6143 22.3996 12.6269 22.3996C12.6332 22.3996 12.6332 22.3996 12.6395 22.3996C18.1495 21.932 16.5752 22.0489 20.1268 21.8476L22.2175 22.2697C22.2993 22.2892 22.3749 22.2243 22.3749 22.1398C22.3182 17.9185 22.4001 6.42986 22.4001 6.42986ZM13.9178 6.11813C13.9304 6.11164 13.9556 6.11164 13.9808 6.09865L15.4669 5.76094C16.2289 5.56611 16.3422 5.52065 16.9908 5.21541C17.2931 5.31932 18.118 5.78042 18.3258 6.0402C18.4644 6.21555 18.4518 6.25451 18.414 6.44285C18.4077 6.48182 18.3951 6.52078 18.3888 6.56624C18.3888 6.56624 18.3888 6.57274 18.3888 6.57923L18.0614 9.15102C17.7402 9.16401 17.7087 9.13803 17.6205 9.0536C17.5828 9.02113 17.5387 8.97567 17.4568 8.92371C16.9656 8.5925 15.3536 7.39753 14.8498 6.98189L13.8486 6.17658L13.8548 6.17009C13.8674 6.1571 13.8737 6.14411 13.88 6.13112C13.8863 6.12462 13.9115 6.12462 13.9178 6.11813ZM16.2352 19.068C16.2037 19.0355 3.74161 5.75444 3.73531 5.73496L4.82472 4.89718L20.0387 15.0285C19.9127 15.3921 19.8623 15.8078 19.7868 16.152C19.5223 17.3729 19.176 17.9055 18.6407 19.0615C17.8724 19.094 16.2919 19.0875 16.2352 19.068ZM4.90029 15.4766C5.03883 15.1389 5.23404 14.5933 5.39776 14.3206C6.19121 14.8206 9.302 17.9639 9.57278 18.3861C9.42165 18.4445 8.77934 18.5354 7.70882 18.9641C7.02873 19.2368 6.39271 19.4901 5.77559 19.2823C5.71262 19.2628 5.5489 19.1199 5.30331 18.9121C4.85621 18.5289 4.45319 18.2497 4.2202 18.1068C3.82347 17.8665 3.88644 17.9185 4.90029 15.4766Z" fill="none"/>
<path d="M3.18746 15.5025C3.093 10.4434 3.20005 13.197 2.62072 2.04614L1.72022 2.09809C1.65095 2.10459 1.59428 2.16304 1.60058 2.23448L2.07916 11.4955C2.17362 16.4442 2.19881 14.2751 1.90284 21.7502C1.90284 21.8151 1.94062 21.8671 2.00359 21.8801C2.4444 21.984 2.62701 22.0099 2.93557 22.0099C2.92298 21.9775 2.91039 22.3477 3.18746 15.5025Z" fill="none"/>
<path d="M10.2151 18.6653C10.2151 18.6653 10.7441 18.4835 10.3095 18.0029C8.54005 16.0156 7.46323 15.3012 6.43679 14.1712C6.00859 13.7036 5.39147 14.3141 5.39147 14.3141C9.39646 17.8925 8.59042 17.3729 9.302 18.0613C9.39646 18.1523 9.47203 18.2237 9.56648 18.3796C9.54759 18.3861 9.46573 18.4055 9.35238 18.438C7.68363 18.8602 7.43804 19.1459 6.69498 19.3083C7.38767 19.8798 8.61561 19.1849 9.48462 18.8796C9.69872 18.8082 9.9758 18.7303 10.2151 18.6653Z" fill="none"/>
<path d="M20.8006 13.9764L6.25418 4.65039C5.7693 4.33866 5.24033 4.48803 4.82472 4.90368L20.0387 15.0349C19.9127 15.3986 19.8623 15.8143 19.7868 16.1585C19.5223 17.3794 19.176 17.912 18.6407 19.068C18.6407 19.068 20.0198 19.3342 20.4417 18.3991C21.4303 16.2884 21.1973 15.8922 21.4366 15.2233C21.4051 14.8401 21.4555 14.3985 20.8006 13.9764Z" fill="none"/>
<path d="M18.3888 6.57274C18.3888 6.57274 18.3888 6.57923 18.3888 6.58573L18.0614 9.15751C18.0614 9.15751 19.3523 9.96282 19.516 8.63796L19.7805 6.46233C19.7805 6.45584 19.7805 6.45584 19.7805 6.44935C19.7931 6.39739 19.7994 6.35842 19.812 6.31946C19.856 6.13112 19.8686 6.08566 19.7238 5.91031C19.5727 5.72197 18.9115 5.2284 18.414 4.91017C17.948 4.59195 17.3876 4.97511 17.3876 4.97511C17.249 5.07903 17.1231 5.17644 16.9908 5.21541C17.3309 5.39725 18.1936 5.87134 18.3258 6.0402C18.4644 6.21555 18.4518 6.25451 18.414 6.44285C18.4077 6.48182 18.4014 6.52078 18.3888 6.57274Z" fill="none"/>
</svg>
