<svg width="30" height="30" viewBox="0 0 30 30" fill="#6d6d91" xmlns="http://www.w3.org/2000/svg">
<path d="M23.9659 17.4594C24.1099 12.5114 23.5306 8.41505 23.9944 7.45434C24.6893 6.84153 25.8465 5.74893 25.8465 5.74893C25.8465 5.74893 18.0599 1.73666 14.036 1.00902C12.1839 0.760029 4.56987 5.74893 4.56987 5.74893L4.7155 7.46457C4.7155 7.46457 8.4782 4.12765 14.3399 5.32371C14.4618 5.34872 14.5853 5.37601 14.7072 5.40671C12.6493 6.696 8.99583 8.92327 7.66772 9.18021C9.38998 11.5234 9.78097 20.3632 4 27.3247L5.15714 28C5.15714 28 13.3205 21.6593 13.8413 13.9667H19.7758L19.4861 19.8402L23.0905 22.4904L26 19.0602C26 19.0602 24.0324 17.9074 23.9659 17.4594ZM19.4782 10.5354H13.9727C13.9727 10.5354 13.9093 7.29858 16.3154 5.92402C17.4503 6.37816 18.5366 6.89234 19.5653 7.4623L19.4782 10.5354Z" fill="#6d6d91"/>
</svg>
