<svg width="24" height="24" viewBox="0 0 24 24" fill="none" xmlns="http://www.w3.org/2000/svg">
<path d="M18.8283 6.01236L17.2286 4.60949L15.5111 3.14259H8.48932L5.21655 6.01236H10.3356V18.6836L12.0226 20.1246L13.7092 18.6836V6.01236H18.8283Z" fill="none"/>
<path d="M15.5597 7.38351V13.0372L13.8772 14.4732L16.2586 16.4707L18.8335 14.2713L18.8341 7.38351H15.5597ZM8.48577 13.0372V7.38351H5.21103V14.2713L7.78691 16.4707L10.1676 14.4732L8.48577 13.0372Z" fill="none"/>
<path d="M8.23695 2.37011L4.09305 5.94789V14.6203L12.0004 21.3232L19.9075 14.6203V5.94815L15.7637 2.37011H8.23695ZM3.33251 5.51633L7.73989 1.71302L7.87026 1.59961H16.1299L16.2602 1.71302L20.6679 5.51633L20.8002 5.63078V14.9406L20.6663 15.0538L12.0004 22.3996L11.6881 22.1354L3.3345 15.0539L3.2002 14.9406V5.63085L3.33251 5.51633Z" fill="none"/>
</svg>
