<svg width="24" height="24" viewBox="0 0 24 24" fill="none" xmlns="http://www.w3.org/2000/svg">
<path d="M12.48 14.8264V9.17307H14.08V14.8264H12.48Z" fill="none"/>
<path d="M9.92001 14.8264V9.17307H11.52V14.8264H9.92001Z" fill="none"/>
<path d="M20.8533 12.6077L20.8853 10.8371L20.9067 9.06641H22.8267V14.9331L20.64 14.9437L19.1147 13.3864C18.2827 12.5331 17.568 11.8611 17.5147 11.8931C17.472 11.9251 16.8 12.5864 14.6133 14.7731L14.624 12.3197L17.5467 9.26907L20.8533 12.6077Z" fill="none"/>
<path d="M1.17334 14.9331V9.06641H3.36001L6.45334 12.1811L9.38667 9.22641L9.37601 11.6797L6.45334 14.7411L3.09334 11.3597V14.9331H1.17334Z" fill="none"/>
</svg>
