<svg width="30" height="30" viewBox="0 0 30 30" fill="#6d6d91" xmlns="http://www.w3.org/2000/svg">
<path fill-rule="evenodd" clip-rule="evenodd" d="M4.16912 1H17.0837C21.6501 1 24.6473 2.78199 26.5026 5.13974C28.2866 7.43919 29 10.3144 29 12.6713C29 16.6962 27.7157 19.9732 25.5755 22.2153C23.3641 24.4582 20.2957 25.6653 16.7276 25.6653H9.44892C8.45061 25.6653 6.88025 25.781 5.45345 26.2411C5.16743 26.2985 4.95374 26.3559 4.74006 26.4716C3.59818 26.9317 2.59875 27.6213 2.09904 28.6563L2.02781 28.7137C2.02781 28.7137 2.02781 28.771 1.95659 28.771C1.95659 28.8284 1.95658 28.8284 1.88536 28.8284C1.8225 28.8845 1.74524 28.9289 1.65894 28.9585C1.57264 28.9881 1.47938 29.0021 1.38565 28.9997V28.9432C1.24319 28.9432 1.17196 28.8858 1.10073 28.8284C1.0295 28.771 0.958276 28.6554 1.0295 28.5406C1.24319 27.6213 1.52922 26.8734 1.81413 26.2985C2.17138 25.6653 2.4563 25.2053 2.81355 24.8035C3.20613 24.2598 3.68772 23.8945 4.1187 23.5677C4.23508 23.4794 4.34778 23.3939 4.45403 23.3085C5.38223 22.6762 6.09562 22.1588 6.09562 20.3759V4.56398C6.09562 4.33439 6.09562 4.1039 6.02439 3.87432C6.02439 3.82272 6.01 3.75934 5.99416 3.68956C5.97475 3.6041 5.95317 3.50904 5.95317 3.41424C5.66825 2.66719 5.0962 2.14883 4.16912 2.03404H4.09789C4.02666 2.03404 3.88309 2.03404 3.81186 1.97664C3.77625 1.94794 3.75844 1.91924 3.74063 1.89054C3.72283 1.86184 3.70502 1.83315 3.66941 1.80445L3.66777 1.8018C3.5971 1.68702 3.52749 1.57398 3.59818 1.45917V1.34438L3.66941 1.28698C3.70641 1.20378 3.77413 1.13169 3.86345 1.08039C3.95277 1.02909 4.05944 1.00104 4.16912 1ZM11.8311 4.02394C11.4779 4.24962 11.2667 4.64391 11.2667 5.4316V19.7322C11.2667 20.2951 11.4075 20.7448 11.6903 21.0828C11.9016 21.3638 12.2548 21.5333 12.7477 21.5333H16.699C18.4617 21.5333 20.0847 20.2381 21.3545 18.5503C22.5538 16.8045 23.4 14.6091 23.4 12.8081C23.4 10.6127 22.6232 8.36023 21.4249 6.61447C20.1551 4.92579 18.3913 3.80001 16.2754 3.80001H13.3133C12.6773 3.79913 12.1832 3.85445 11.8311 4.02394Z" fill="#6d6d91"/>
</svg>
