<svg width="30" height="30" viewBox="0 0 30 30" fill="#6d6d91" xmlns="http://www.w3.org/2000/svg">
<path fill-rule="evenodd" clip-rule="evenodd" d="M14.2996 1.01556C14.0465 1.02623 13.9581 1.03687 13.8248 1.07274C13.7037 1.10534 13.5889 1.12107 13.3833 1.13323C13.1726 1.14571 13.0579 1.16174 12.9086 1.19957C12.8003 1.22701 12.6369 1.25758 12.5455 1.26753C12.4541 1.27747 12.3211 1.30471 12.25 1.32808C12.1788 1.35143 12.0621 1.38304 11.9905 1.39835C11.919 1.41365 11.8088 1.44741 11.7458 1.47335C11.6827 1.4993 11.557 1.53277 11.4664 1.54774C11.269 1.58035 10.6167 1.8011 10.2562 1.95731C10.1211 2.01583 9.95308 2.08486 9.88274 2.11071C9.6928 2.18049 8.87131 2.60831 8.64898 2.7532C8.54256 2.82257 8.39656 2.91216 8.32453 2.95232C8.05731 3.10126 7.20278 3.70886 7.0313 3.87183C6.94127 3.95739 6.8024 4.07397 6.72273 4.13086C6.39508 4.36484 5.23293 5.57784 4.99427 5.93498C4.93086 6.02988 4.81561 6.17996 4.73816 6.2685C4.54253 6.49222 4.09278 7.17693 3.90557 7.53607C3.85681 7.62961 3.76422 7.79032 3.6998 7.89321C3.56406 8.11007 3.12165 9.02897 3.04476 9.25375C3.01598 9.33793 2.95374 9.49864 2.90646 9.61089C2.79924 9.86549 2.54403 10.6671 2.53018 10.7929C2.51457 10.9346 2.48757 11.0494 2.45318 11.1206C2.43612 11.1558 2.40057 11.2783 2.37416 11.3927C2.34776 11.5071 2.31484 11.6389 2.301 11.6857C2.28717 11.7325 2.26438 11.866 2.25039 11.9824C2.23639 12.0988 2.20681 12.2666 2.18466 12.3552C2.15479 12.4746 2.14036 12.5936 2.12887 12.8153C2.11714 13.0416 2.10309 13.1556 2.07105 13.2843C1.97621 13.6654 1.97635 15.3474 2.07127 15.7163C2.10548 15.8493 2.11807 15.9494 2.129 16.1758C2.14323 16.47 2.14791 16.5029 2.20771 16.7282C2.22632 16.7983 2.24924 16.9297 2.25862 17.0202C2.26907 17.1209 2.29409 17.2365 2.32325 17.3187C2.34941 17.3924 2.37951 17.5135 2.39014 17.5879C2.40078 17.6622 2.4307 17.7881 2.45665 17.8676C2.4826 17.9471 2.51494 18.0854 2.5285 18.1748C2.55908 18.3763 2.78595 19.106 2.90731 19.3932C2.95557 19.5074 3.01884 19.6719 3.04792 19.7589C3.11752 19.9669 3.5711 20.9123 3.69489 21.1074C3.74831 21.1916 3.83487 21.3408 3.88724 21.439C4.064 21.7705 4.56823 22.5384 4.74715 22.7485C4.83874 22.8561 4.95919 23.0129 5.01483 23.0971C5.2154 23.4002 6.41312 24.645 6.70585 24.8544C6.7858 24.9117 6.9249 25.0276 7.01493 25.1121C7.24559 25.3285 7.89511 25.7931 8.29998 26.0312C8.38551 26.0815 8.52179 26.1681 8.60282 26.2235C8.77579 26.3419 9.68992 26.8179 9.87968 26.8884C9.95171 26.9152 10.1138 26.9832 10.2398 27.0396C10.5462 27.1766 11.3058 27.4347 11.4791 27.4606C11.5538 27.4718 11.6713 27.5025 11.7402 27.5287C11.8091 27.5549 11.9233 27.5887 11.994 27.6038C12.0646 27.6189 12.1813 27.6499 12.2533 27.6726C12.3254 27.6953 12.4691 27.7251 12.5727 27.7387C12.6764 27.7524 12.8341 27.7832 12.9233 27.8073C13.0399 27.8388 13.1614 27.8558 13.3569 27.8682C13.5413 27.8798 13.6835 27.8991 13.8003 27.9282C14.1628 28.0186 15.7874 28.0255 16.133 27.9382C16.3145 27.8923 16.3599 27.8861 16.6487 27.8683C16.8415 27.8564 16.9378 27.8419 17.0497 27.8078C17.1308 27.7831 17.2634 27.756 17.3444 27.7476C17.5492 27.7263 17.5905 27.7175 17.7036 27.6708C17.7581 27.6482 17.8875 27.6146 17.991 27.596C18.0945 27.5775 18.2235 27.5436 18.2775 27.5208C18.3315 27.498 18.4346 27.4707 18.5067 27.4601C18.6733 27.4357 19.4413 27.1788 19.7017 27.0603C19.8097 27.0112 19.9644 26.9462 20.0454 26.9158C20.242 26.8422 21.1711 26.3649 21.3487 26.2463C21.4263 26.1946 21.5663 26.1083 21.6598 26.0548C21.8247 25.9602 22.1378 25.7491 22.5582 25.4487C22.6708 25.3683 22.8529 25.2219 22.9629 25.1234C23.0729 25.0248 23.2185 24.9052 23.2864 24.8576C23.5508 24.6722 24.786 23.3853 24.9778 23.0953C25.0328 23.0122 25.145 22.8676 25.2272 22.7741C25.3093 22.6805 25.4288 22.5236 25.4928 22.4254C25.8169 21.9277 25.9704 21.6804 26.0947 21.456C26.1698 21.3204 26.2697 21.1482 26.3166 21.0734C26.436 20.8827 26.8688 19.9757 26.9531 19.7393C26.9916 19.6312 27.0525 19.4739 27.0882 19.3897C27.124 19.3055 27.2201 19.0262 27.3018 18.769C27.5473 17.9958 27.5836 17.8614 27.6019 17.6592C27.613 17.5369 27.6347 17.4276 27.6674 17.3295C27.6943 17.2487 27.7276 17.0976 27.7414 16.9937C27.7552 16.8898 27.7848 16.732 27.8072 16.6431C27.8364 16.527 27.8525 16.4003 27.8644 16.1925C27.8752 16.004 27.8949 15.8398 27.9209 15.7207C28.0275 15.2323 28.026 13.7259 27.9184 13.2758C27.8861 13.1405 27.8723 13.0252 27.8614 12.7996C27.8515 12.5922 27.837 12.4633 27.8137 12.3745C27.7607 12.1727 27.7508 12.1212 27.7322 11.9493C27.7226 11.8604 27.6959 11.7267 27.6728 11.652C27.6498 11.5774 27.6199 11.4397 27.6065 11.3459C27.5761 11.1334 27.5731 11.119 27.5265 10.9629C27.3544 10.3871 27.1411 9.73611 27.0729 9.57929C27.0277 9.47507 26.9656 9.31524 26.9351 9.22414C26.8604 9.00144 26.4382 8.12156 26.2953 7.89114C26.2323 7.78939 26.1349 7.61963 26.0789 7.51388C26.0229 7.40815 25.8954 7.19769 25.7955 7.0462C25.6957 6.89472 25.5566 6.68276 25.4866 6.5752C25.4165 6.46763 25.2925 6.30309 25.2109 6.20955C25.1294 6.11602 25.0171 5.97061 24.9614 5.88643C24.9057 5.80224 24.7637 5.63005 24.6458 5.50378C24.5279 5.3775 24.3765 5.214 24.3093 5.14045C24.0178 4.82155 23.4257 4.24647 23.2703 4.13139C23.1803 4.06471 23.0403 3.94799 22.9593 3.87202C22.8783 3.79603 22.7272 3.67352 22.6237 3.59976C22.5202 3.526 22.3986 3.43929 22.3536 3.40704C22.103 3.22759 21.7751 3.01124 21.6478 2.94145C21.5678 2.89755 21.4491 2.82461 21.3839 2.77934C21.1509 2.61735 20.3488 2.20142 20.0597 2.09273C19.9763 2.06134 19.8063 1.99015 19.6821 1.93454C19.427 1.82039 18.7656 1.59464 18.5324 1.54214C18.4475 1.52304 18.3373 1.49155 18.2874 1.47214C18.2375 1.45275 18.1265 1.42199 18.0406 1.40377C17.9548 1.38556 17.822 1.3517 17.7455 1.32852C17.6689 1.30534 17.529 1.27821 17.4344 1.26823C17.3399 1.25825 17.1778 1.22781 17.0743 1.2006C16.9313 1.16301 16.8192 1.14694 16.6077 1.13371C16.4081 1.12123 16.2832 1.10407 16.1657 1.07298C15.9109 1.00548 15.1177 0.98109 14.2996 1.01556ZM15.1344 2.30666C15.7879 2.28283 16.1557 2.2948 16.3131 2.34506C16.424 2.38048 16.519 2.39622 16.6978 2.40877C17.0171 2.43116 17.0769 2.44008 17.2298 2.48793C17.3018 2.5105 17.4528 2.54361 17.5654 2.56154C17.6779 2.57946 17.8142 2.61018 17.8682 2.6298C17.9222 2.64943 18.0327 2.67992 18.1138 2.69756C18.3659 2.75242 19.0846 2.99919 19.3247 3.1133C19.3964 3.14742 19.5401 3.20655 19.6439 3.24471C19.8767 3.33029 20.7458 3.77957 20.9459 3.9178C21.0269 3.97372 21.1557 4.05615 21.2323 4.10096C21.4501 4.2285 21.8819 4.5294 22.0276 4.65521C22.1004 4.71805 22.2256 4.81701 22.3059 4.87514C22.6681 5.13745 24.0054 6.52123 24.2421 6.8787C24.2957 6.95965 24.389 7.0871 24.4493 7.16193C24.5894 7.33584 24.8421 7.72864 24.9961 8.012C25.0621 8.13347 25.1508 8.28653 25.1932 8.35214C25.352 8.59783 25.7419 9.39866 25.8323 9.665C25.8584 9.74165 25.9197 9.90624 25.9687 10.0308C26.0949 10.352 26.2974 10.9917 26.3392 11.2016C26.3588 11.2995 26.3956 11.4485 26.421 11.5326C26.4465 11.6168 26.4794 11.7719 26.4942 11.8772C26.5089 11.9826 26.5346 12.1165 26.5513 12.1748C26.6009 12.3485 26.6019 12.3545 26.6255 12.6551C26.64 12.8406 26.6645 13.0143 26.6938 13.1398C26.7519 13.3885 26.7635 15.5061 26.7081 15.7588C26.6531 16.0098 26.6367 16.1103 26.6178 16.3113C26.6073 16.4234 26.5777 16.5995 26.5521 16.7025C26.5265 16.8055 26.4975 16.9548 26.4876 17.0343C26.4777 17.1138 26.4554 17.2289 26.4379 17.2901C26.4205 17.3514 26.3844 17.4968 26.3577 17.6133C26.291 17.904 26.076 18.5801 25.9714 18.8281C25.924 18.9406 25.8687 19.0862 25.8487 19.1516C25.6844 19.6876 24.8286 21.249 24.4413 21.7196C24.3951 21.7758 24.3133 21.8883 24.2595 21.9697C24.015 22.3399 22.7036 23.6989 22.3164 23.9835C22.2558 24.028 22.1363 24.1231 22.0508 24.1948C21.5485 24.6156 20.6657 25.1531 19.7774 25.5788C19.4096 25.755 18.4036 26.1167 18.1189 26.1751C18.0441 26.1904 17.9386 26.2177 17.8846 26.2357C17.8306 26.2537 17.7144 26.2837 17.6265 26.3023C17.5385 26.321 17.4024 26.3556 17.3239 26.3793C17.2267 26.4086 17.108 26.4276 16.9517 26.439C16.6523 26.4609 16.6073 26.4676 16.4031 26.5208C16.1291 26.5923 13.9661 26.5916 13.7029 26.52C13.6045 26.4933 13.4411 26.4655 13.3182 26.4545C13.0779 26.4332 12.9524 26.4116 12.7035 26.3488C12.609 26.3249 12.4616 26.289 12.3761 26.2691C11.83 26.1421 11.6102 26.073 10.784 25.7684C10.3925 25.6241 9.25179 25.0316 8.87293 24.7759C8.52447 24.5406 8.2538 24.3444 8.08104 24.2018C7.98988 24.1265 7.85951 24.0251 7.79133 23.9764C7.45265 23.7346 6.09329 22.3239 5.87408 21.9867C5.8297 21.9185 5.74467 21.8005 5.6851 21.7245C5.21944 21.1301 4.83656 20.448 4.29347 19.2452C4.21205 19.0648 4.09587 18.7311 3.92942 18.1993C3.79683 17.7756 3.75931 17.6385 3.66641 17.2384C3.50472 16.5419 3.50922 16.5661 3.48932 16.2904C3.47797 16.1333 3.45584 15.9839 3.42631 15.8652C3.35638 15.5841 3.35485 13.3446 3.42441 13.0462C3.47828 12.8151 3.48347 12.7789 3.50349 12.4949C3.51356 12.3521 3.53494 12.2081 3.56064 12.1102C3.58323 12.024 3.61315 11.8895 3.62715 11.8111C3.64115 11.7328 3.67025 11.6075 3.69185 11.5326C3.71342 11.4578 3.74647 11.3225 3.7653 11.2319C3.80071 11.0616 4.01209 10.3787 4.15389 9.97653C4.2608 9.67332 4.63801 8.85975 4.90604 8.35428C5.04068 8.10039 5.54635 7.30602 5.66507 7.16193C5.71129 7.1058 5.80131 6.9839 5.86509 6.89103C6.00175 6.69205 6.31456 6.34573 6.91937 5.72372C7.51761 5.10851 7.63454 4.99742 7.82926 4.85939C7.92158 4.79393 8.04133 4.70111 8.09535 4.6531C8.14937 4.60509 8.33722 4.46562 8.51279 4.34319C8.68835 4.22074 8.87281 4.08753 8.92267 4.04717C9.00961 3.97682 10.1518 3.37374 10.3462 3.29555C10.56 3.20954 10.7744 3.1209 10.9192 3.05866C11.1619 2.95424 11.8103 2.73572 11.9908 2.69749C12.0805 2.67848 12.2023 2.64798 12.2613 2.6297C12.3204 2.61143 12.4606 2.5807 12.5729 2.56144C12.6853 2.54217 12.8398 2.50766 12.9163 2.48475C12.9928 2.46184 13.1586 2.4319 13.2846 2.41819C13.4107 2.4045 13.5654 2.37652 13.6284 2.35605C13.8123 2.29628 13.8958 2.29067 14.4142 2.30317C14.6843 2.30969 15.0084 2.31127 15.1344 2.30666ZM9.95254 4.67667C9.88457 4.70768 9.79249 4.75463 9.74792 4.78104C9.50659 4.92402 9.37856 5.00754 9.29036 5.07956C9.23634 5.12368 9.14426 5.18863 9.08574 5.22391C8.93652 5.31388 8.87167 5.36745 8.68467 5.55524C8.59464 5.64565 8.47677 5.74852 8.42275 5.78384C8.25908 5.89088 8.16118 5.98872 8.01651 6.18983C7.94056 6.29539 7.81672 6.45399 7.74129 6.54225C7.4434 6.89087 6.87664 7.90287 6.76564 8.28437C6.67707 8.58868 6.64406 8.6912 6.56568 8.90511C6.41345 9.32057 6.34214 9.61626 6.31086 9.9617C6.30525 10.0237 6.28251 10.1538 6.26034 10.2508C6.23009 10.3831 6.2142 10.5271 6.19676 10.8269C6.18396 11.0467 6.16833 11.2524 6.16201 11.2841C6.15569 11.3158 6.15887 11.4612 6.16905 11.6072C6.17925 11.7533 6.19503 12.0029 6.20413 12.1619C6.21493 12.3505 6.23224 12.4953 6.25394 12.5786C6.27224 12.6487 6.29813 12.7941 6.31145 12.9017C6.36845 13.3617 6.57625 13.9637 6.93664 14.7129C7.23041 15.3236 7.28595 15.4215 7.45722 15.6301C7.53237 15.7217 7.62198 15.8466 7.65636 15.9078C7.81286 16.1863 8.4199 16.7922 8.83441 17.0835C9.68185 17.6792 11.0226 18.1069 11.2869 17.8659C11.3794 17.7815 11.3787 17.7981 11.3698 16.0016C11.3602 14.045 11.3665 14.0989 11.1092 13.7574C11.0605 13.6927 10.9852 13.579 10.9419 13.5046C10.8406 13.3308 10.6316 13.1125 10.415 12.9542C10.2422 12.8279 10.166 12.7593 9.83875 12.4355C9.59311 12.1924 9.19792 11.7618 9.11167 11.6432C8.67734 11.046 8.27519 10.1697 8.218 9.69592C8.20783 9.61174 8.17669 9.4472 8.14878 9.33028C8.07856 9.03601 8.07662 8.55496 8.14448 8.26239C8.16766 8.16248 8.19794 7.99648 8.21176 7.89352C8.29148 7.29972 8.67567 6.42841 9.07979 5.9249C9.14539 5.84316 9.23722 5.71689 9.28388 5.64429C9.3754 5.50182 9.86274 4.97575 10.023 4.84637C10.246 4.66642 10.2028 4.56253 9.95254 4.67667ZM20.0577 4.73273C19.9867 4.76251 20.0847 4.90421 20.454 5.30601C20.9041 5.79573 20.89 5.77801 21.1262 6.15003C21.242 6.33243 21.3664 6.52375 21.4027 6.5752C21.4439 6.63365 21.4881 6.72933 21.5204 6.8303C21.5489 6.91916 21.6097 7.08455 21.6557 7.19784C21.7017 7.31113 21.7546 7.47184 21.7733 7.55499C21.7921 7.63811 21.8259 7.76736 21.8484 7.84219C21.9143 8.06044 21.9404 8.76295 21.9041 9.33878C21.8863 9.62029 21.8533 9.74386 21.6133 10.4272C21.5446 10.6229 21.3507 11.013 21.2499 11.1585C21.198 11.2333 21.1363 11.329 21.1128 11.3711C21.0893 11.4132 21.0217 11.5088 20.9627 11.5837C20.9037 11.6585 20.8023 11.7962 20.7374 11.8898C20.5592 12.1466 20.1151 12.6093 19.9433 12.7171C19.6301 12.9136 18.9944 13.5886 18.8577 13.8696C18.6831 14.2287 18.6139 15.4094 18.6494 17.4255C18.6583 17.9337 18.8625 18.0488 19.4354 17.8684C19.4918 17.8506 19.6043 17.8237 19.6853 17.8085C20.2158 17.7091 20.9578 17.3264 21.4573 16.8946C21.5451 16.8187 21.6573 16.7297 21.7066 16.6969C21.8459 16.6041 22.0909 16.3467 22.2271 16.15C22.2951 16.0517 22.3913 15.9216 22.4409 15.8608C23.0923 15.0623 23.7331 13.4675 23.7941 12.4935C23.8088 12.2585 23.8284 12.0895 23.8541 11.9748C23.9108 11.7229 23.9108 11.1473 23.8541 10.9204C23.8241 10.8 23.813 10.6948 23.8023 10.4272C23.7905 10.1326 23.7822 10.0609 23.7396 9.8915C23.7126 9.78393 23.6794 9.61556 23.6657 9.51735C23.6053 9.08433 23.3517 8.36585 23.0143 7.67213C22.7806 7.19148 22.7037 7.05604 22.5536 6.86043C22.4727 6.75501 22.3735 6.61669 22.333 6.55309C22.0703 6.13972 21.2246 5.34075 20.807 5.11136C20.7486 5.07932 20.6345 5.00177 20.5533 4.93905C20.3566 4.78705 20.1416 4.69756 20.0577 4.73273ZM14.6188 8.00571C14.5693 8.02411 14.4459 8.04998 14.3446 8.06318C14.0395 8.10296 13.9922 8.14706 14.1138 8.27853C14.2669 8.44408 14.2626 8.50367 14.0847 8.67865C13.8889 8.87134 13.9194 8.90315 14.3323 8.93683C14.4951 8.95009 14.5493 8.96203 14.6487 9.00647C14.8406 9.09227 14.8672 9.04346 14.8774 8.58685C14.8902 8.01087 14.8497 7.91985 14.6188 8.00571ZM15.27 8.03352C15.2118 8.10285 15.2018 8.15092 15.1949 8.39535C15.1808 8.89059 15.2058 8.92846 15.5509 8.9361C16.1177 8.94866 16.2775 8.87499 16.0471 8.70746C15.8012 8.52875 15.7914 8.49134 15.9461 8.31962C16.0912 8.15842 16.0568 8.10685 15.7798 8.07088C15.704 8.06102 15.583 8.04189 15.511 8.02835C15.3413 7.99646 15.3004 7.99733 15.27 8.03352ZM12.5905 8.19984C12.4721 8.31103 12.2872 8.73601 12.1161 9.29024C11.8377 10.1925 11.8498 10.3494 12.2067 10.4695C12.523 10.5759 12.8827 10.8656 13.1393 11.2207C13.2879 11.4261 13.4718 11.7105 13.5335 11.8303C13.8502 12.4448 13.8835 12.521 13.9156 12.7059C13.9327 12.8044 13.9651 12.9557 13.9877 13.0421C14.0103 13.1286 14.0393 13.3026 14.0521 13.4289C14.0649 13.5552 14.0963 13.7388 14.1218 13.837C14.1881 14.0926 14.1953 17.7107 14.13 17.9782C14.089 18.146 14.0706 18.3668 14.0471 18.9731C14.0338 19.3149 14.0257 19.3943 13.9911 19.5216C13.9418 19.7031 13.9343 19.7602 13.9152 20.0955C13.9036 20.2997 13.8908 20.3897 13.8585 20.4949C13.8356 20.5696 13.8061 20.715 13.793 20.818C13.7799 20.9211 13.75 21.0738 13.7266 21.1574C13.7032 21.2411 13.6731 21.3903 13.6599 21.4891C13.6179 21.8008 13.3161 22.7241 13.2107 22.8634C13.0274 23.1054 12.9188 23.0192 12.6115 22.3881C12.0317 21.1971 11.5579 20.9288 10.5345 21.2122C10.3708 21.2576 10.3708 21.2576 9.51135 21.2538C8.58267 21.2497 8.62779 21.2542 8.08717 21.113C7.75962 21.0274 6.9452 20.5285 6.56681 20.1815C6.30289 19.9395 5.94807 19.7025 5.8865 19.7271C5.79156 19.7649 6.06744 20.3427 6.38728 20.7758C6.46672 20.8833 6.57414 21.0338 6.626 21.11C6.74314 21.2824 7.07483 21.6634 7.21845 21.7907C7.27757 21.8431 7.41975 21.9873 7.53437 22.1111C7.87969 22.4842 8.18562 22.6837 8.65489 22.8417C9.29102 23.0559 9.59312 23.03 10.5548 22.6787C10.9593 22.5309 11.0338 22.517 11.0338 22.5891C11.0338 22.8044 10.3229 23.339 9.73544 23.5656C9.44399 23.678 9.41122 23.831 9.6439 23.9928C10.1166 24.3216 10.6213 24.5969 11.0259 24.7468C11.748 25.0143 12.459 25.2457 12.6286 25.2683C12.7933 25.2903 12.9536 25.3233 13.1127 25.368C13.1866 25.3887 13.3367 25.4094 13.4893 25.4199C13.7215 25.4359 13.7923 25.4468 14.0622 25.5085C14.1257 25.5231 14.3818 25.5291 14.9298 25.5291C15.4779 25.5291 15.734 25.5231 15.7974 25.5085C15.8469 25.4972 15.9398 25.4763 16.0037 25.4621C16.0676 25.4478 16.2334 25.4287 16.372 25.4195C16.5473 25.4079 16.674 25.3894 16.7878 25.3586C16.8778 25.3343 17.0099 25.3028 17.0813 25.2887C17.1526 25.2746 17.2689 25.2441 17.3396 25.2209C17.4103 25.1977 17.54 25.1645 17.6279 25.1471C17.8164 25.1097 18.4739 24.8806 18.8065 24.7363C18.9354 24.6803 19.1008 24.6117 19.1739 24.5836C19.3782 24.5054 19.7796 24.2905 19.9283 24.1797C20.0017 24.125 20.106 24.0596 20.16 24.0342C20.5238 23.8634 20.563 23.7062 20.2725 23.5833C20.024 23.4781 19.3074 22.9396 19.1765 22.7596C19.0069 22.5264 19.1223 22.504 19.5278 22.6914C20.3607 23.0762 20.965 23.0649 21.7806 22.6491C22.367 22.3502 23.1374 21.6456 23.5407 21.0394C24.1374 20.1424 24.4425 19.5513 24.3087 19.5513C24.244 19.5513 24.166 19.6129 23.7295 20.0085C23.612 20.115 23.4533 20.2457 23.3767 20.2989C23.3002 20.352 23.1772 20.4385 23.1033 20.4911C22.7375 20.7515 22.0123 21.0652 21.6333 21.127C21.5433 21.1417 21.3849 21.1765 21.2814 21.2042C21.008 21.2776 20.2766 21.2814 20.0003 21.2108C19.7538 21.1479 19.5798 21.1335 19.0626 21.1332C18.161 21.1326 18.0781 21.1995 17.5096 22.3867C17.2567 22.9146 17.1874 23.0036 17.0292 23.0036C16.7358 23.0036 16.1457 21.8521 15.9529 20.9033C15.9376 20.8285 15.907 20.706 15.8848 20.6312C15.8626 20.5564 15.8335 20.4186 15.82 20.3251C15.7864 20.0912 15.7731 20.0349 15.7165 19.8879C15.6894 19.8177 15.6553 19.6885 15.6408 19.6006C15.6061 19.3921 15.583 19.3473 15.5386 19.4029C15.518 19.4286 15.5114 19.4864 15.4778 19.9339C15.4531 20.2623 15.4361 20.4174 15.4049 20.5972C15.3968 20.644 15.389 21.1146 15.3876 21.6431C15.3833 23.2183 15.3704 23.6573 15.3254 23.7604C15.1831 24.086 14.8666 24.073 14.7005 23.7349C14.6143 23.5595 14.6192 23.9376 14.619 17.4158C14.6188 10.8308 14.6249 11.2306 14.5201 11.0037C14.4202 10.7873 14.3315 10.713 13.9273 10.5067C13.5355 10.3068 13.5224 10.2948 13.2575 9.8915C12.9272 9.38869 12.7855 8.96288 12.7853 8.47188C12.7851 8.16488 12.7219 8.07656 12.5905 8.19984ZM24.7282 10.2694C24.6942 10.3198 24.6948 10.5281 24.7294 10.6738C24.7719 10.8528 24.7734 11.7852 24.7316 11.9918C24.6945 12.1747 24.6763 12.3249 24.6553 12.6211C24.6457 12.7572 24.6265 12.8846 24.6054 12.9527C24.5866 13.0135 24.5563 13.1551 24.538 13.2673C24.3911 14.1687 23.8538 15.3961 23.3132 16.0649C22.2882 17.3331 21.322 17.947 19.8456 18.2683C19.2158 18.4053 18.7068 18.932 18.466 19.6958C18.3142 20.1771 18.3389 20.3152 18.5981 20.4343C18.7585 20.508 19.202 20.6374 19.3603 20.6566C19.449 20.6674 19.5916 20.6925 19.6771 20.7123C19.8804 20.7594 20.0787 20.7591 20.291 20.7114C20.381 20.6911 20.5397 20.6676 20.6437 20.6591C20.7823 20.6478 20.8718 20.6297 20.9793 20.5916C21.0599 20.5629 21.1988 20.5274 21.2879 20.5127C21.6492 20.4527 22.7 19.9068 23.0411 19.6017C23.0952 19.5534 23.1983 19.4711 23.2703 19.4187C23.4456 19.2913 23.6656 19.0615 23.7623 18.905C23.8056 18.8349 23.912 18.701 23.9987 18.6074C24.1985 18.3919 24.2617 18.3028 24.4085 18.0292C24.4738 17.9076 24.5546 17.766 24.5882 17.7146C24.6827 17.5696 24.7932 17.3291 24.8423 17.1612C24.8669 17.0774 24.9291 16.9208 24.9807 16.8132C25.0814 16.6031 25.3145 15.875 25.3745 15.5826C25.3921 15.4971 25.4252 15.3545 25.4482 15.2656C25.4813 15.1373 25.4928 15.0393 25.5041 14.7894C25.5148 14.5532 25.5266 14.4472 25.5516 14.3643C25.6344 14.089 25.6445 13.4608 25.5709 13.1653C25.5503 13.0823 25.5279 12.9016 25.5136 12.7022C25.4955 12.4505 25.4788 12.331 25.4412 12.1835C25.4143 12.0781 25.3876 11.9536 25.382 11.9068C25.334 11.5104 24.9705 10.3837 24.8544 10.272C24.802 10.2215 24.761 10.2207 24.7282 10.2694ZM5.15765 10.4306C5.06581 10.5444 4.94665 10.8257 4.88703 11.0695C4.85677 11.1933 4.82033 11.3282 4.80608 11.3694C4.73312 11.58 4.6462 11.9321 4.61675 12.1364C4.59853 12.2627 4.57281 12.4049 4.55958 12.4525C4.45699 12.8214 4.44511 14.4988 4.54238 14.879C4.56576 14.9704 4.59579 15.1272 4.60914 15.2276C4.62248 15.328 4.65519 15.4905 4.68182 15.5887C4.70845 15.6869 4.74141 15.8226 4.75504 15.8902C4.78867 16.0569 4.9433 16.5355 5.01757 16.7027C5.05081 16.7775 5.10721 16.9229 5.14291 17.0258C5.27312 17.4012 5.46979 17.7646 5.89598 18.4176C6.06844 18.6818 6.59763 19.2662 6.90853 19.5358C7.22411 19.8094 8.05156 20.2823 8.44731 20.4151C9.05619 20.6194 9.1327 20.64 9.35456 20.6585C9.47231 20.6684 9.62021 20.6877 9.68324 20.7014C9.99473 20.7692 10.0746 20.77 10.3135 20.7076C10.381 20.69 10.5136 20.6707 10.6081 20.6649C10.8389 20.6506 10.9165 20.6342 11.2138 20.5362C11.6738 20.3847 11.7444 20.305 11.6739 20.0168C11.6559 19.9432 11.6266 19.813 11.6087 19.7275C11.5702 19.5432 11.4908 19.3715 11.3623 19.1946C11.3112 19.1242 11.2485 19.0283 11.223 18.9816C11.1095 18.7734 10.9585 18.6209 10.7639 18.518C10.4632 18.3591 10.1164 18.2307 9.76479 18.1481C9.52236 18.0912 8.84068 17.8513 8.67262 17.7638C8.07158 17.4506 7.17834 16.688 6.83454 16.1945C6.7897 16.1301 6.68537 15.9885 6.60272 15.8799C6.1158 15.2398 5.56054 13.8557 5.46602 13.0465C5.4562 12.9625 5.42608 12.8171 5.39907 12.7234C5.34227 12.5263 5.34192 12.5196 5.32328 11.2605C5.30953 10.3315 5.29527 10.26 5.15765 10.4306Z" fill="#6d6d91"/>
</svg>
