<svg width="24" height="24" viewBox="0 0 24 24" fill="none" xmlns="http://www.w3.org/2000/svg">
<path fill-rule="evenodd" clip-rule="evenodd" d="M11.4398 0.813231C11.2373 0.821762 11.1665 0.830279 11.06 0.858973C10.9631 0.885054 10.8712 0.897639 10.7068 0.907367C10.5382 0.917353 10.4465 0.930169 10.327 0.960441C10.2403 0.982387 10.1096 1.00685 10.0365 1.01481C9.96339 1.02275 9.857 1.04455 9.80007 1.06324C9.74316 1.08192 9.64974 1.10722 9.59251 1.11946C9.53529 1.13171 9.44718 1.15871 9.39673 1.17946C9.3463 1.20022 9.24572 1.227 9.17325 1.23897C9.01528 1.26506 8.49345 1.44166 8.20505 1.56663C8.09701 1.61344 7.96256 1.66867 7.90629 1.68935C7.75434 1.74517 7.09714 2.08743 6.91929 2.20334C6.83415 2.25884 6.71735 2.33051 6.65972 2.36263C6.44594 2.48179 5.76232 2.96787 5.62514 3.09825C5.55311 3.1667 5.44202 3.25996 5.37828 3.30547C5.11617 3.49265 4.18644 4.46305 3.99552 4.74877C3.94478 4.82468 3.85259 4.94475 3.79063 5.01558C3.63412 5.19456 3.27432 5.74232 3.12455 6.02964C3.08554 6.10447 3.01147 6.23304 2.95994 6.31535C2.85135 6.48883 2.49741 7.22396 2.4359 7.40378C2.41288 7.47113 2.36309 7.5997 2.32527 7.68949C2.23949 7.89318 2.03532 8.53449 2.02424 8.63506C2.01175 8.74848 1.99015 8.84034 1.96264 8.89724C1.94899 8.92544 1.92055 9.0234 1.89943 9.11492C1.8783 9.20643 1.85197 9.31193 1.8409 9.34934C1.82983 9.38676 1.8116 9.49357 1.80041 9.5867C1.78921 9.67984 1.76555 9.81403 1.74783 9.8849C1.72393 9.98043 1.71239 10.0757 1.7032 10.253C1.69381 10.4341 1.68257 10.5253 1.65694 10.6282C1.58106 10.9331 1.58118 12.2787 1.65711 12.5738C1.68448 12.6802 1.69455 12.7603 1.7033 12.9414C1.71468 13.1768 1.71843 13.2031 1.76627 13.3833C1.78116 13.4394 1.79949 13.5446 1.80699 13.6169C1.81535 13.6975 1.83537 13.79 1.8587 13.8557C1.87962 13.9147 1.90371 14.0116 1.91221 14.0711C1.92072 14.1306 1.94466 14.2313 1.96542 14.2949C1.98617 14.3585 2.01205 14.4691 2.02289 14.5406C2.04736 14.7018 2.22886 15.2856 2.32595 15.5154C2.36456 15.6067 2.41517 15.7383 2.43843 15.8079C2.49411 15.9743 2.85698 16.7306 2.95601 16.8867C2.99874 16.954 3.06799 17.0734 3.10989 17.152C3.2513 17.4172 3.65468 18.0315 3.79782 18.1996C3.87109 18.2857 3.96745 18.4111 4.01196 18.4784C4.17242 18.721 5.1306 19.7168 5.36478 19.8843C5.42874 19.9301 5.54002 20.0229 5.61204 20.0904C5.79657 20.2636 6.31619 20.6352 6.64008 20.8258C6.70851 20.866 6.81753 20.9352 6.88235 20.9796C7.02073 21.0743 7.75203 21.4551 7.90384 21.5115C7.96146 21.5329 8.09111 21.5874 8.19195 21.6324C8.43707 21.7421 9.04471 21.9485 9.18338 21.9693C9.24313 21.9783 9.33713 22.0028 9.39228 22.0237C9.44741 22.0447 9.53876 22.0718 9.59527 22.0838C9.65176 22.0959 9.74514 22.1207 9.80276 22.1389C9.86038 22.1571 9.97538 22.1809 10.0583 22.1918C10.1412 22.2027 10.2674 22.2273 10.3387 22.2466C10.432 22.2718 10.5292 22.2854 10.6856 22.2953C10.8331 22.3046 10.9469 22.32 11.0403 22.3433C11.3304 22.4157 12.63 22.4212 12.9065 22.3513C13.0517 22.3146 13.088 22.3097 13.319 22.2954C13.4733 22.2859 13.5503 22.2743 13.6399 22.247C13.7047 22.2272 13.8108 22.2056 13.8756 22.1988C14.0395 22.1818 14.0725 22.1748 14.163 22.1374C14.2066 22.1194 14.3101 22.0925 14.3929 22.0776C14.4757 22.0628 14.5789 22.0357 14.6221 22.0174C14.6653 21.9991 14.7478 21.9773 14.8054 21.9689C14.9388 21.9493 15.5531 21.7438 15.7614 21.6491C15.8479 21.6097 15.9716 21.5577 16.0364 21.5334C16.1937 21.4745 16.937 21.0927 17.0791 20.9979C17.1412 20.9564 17.2531 20.8875 17.3279 20.8446C17.4599 20.769 17.7103 20.6 18.0467 20.3598C18.1367 20.2954 18.2824 20.1783 18.3704 20.0995C18.4584 20.0206 18.5749 19.9249 18.6292 19.8869C18.8407 19.7386 19.8289 18.709 19.9823 18.4771C20.0263 18.4105 20.1161 18.2949 20.1818 18.22C20.2475 18.1452 20.3432 18.0197 20.3943 17.9411C20.6536 17.5429 20.7764 17.3451 20.8759 17.1656C20.936 17.0571 21.0158 16.9194 21.0533 16.8595C21.1489 16.707 21.4951 15.9814 21.5626 15.7922C21.5934 15.7058 21.6421 15.5799 21.6707 15.5126C21.6993 15.4452 21.7762 15.2217 21.8415 15.016C22.0379 14.3975 22.067 14.2899 22.0816 14.1281C22.0905 14.0303 22.1078 13.9428 22.134 13.8643C22.1556 13.7998 22.1822 13.6789 22.1932 13.5957C22.2043 13.5126 22.2279 13.3864 22.2458 13.3153C22.2692 13.2224 22.2821 13.1211 22.2916 12.9548C22.3003 12.804 22.316 12.6726 22.3368 12.5773C22.4221 12.1866 22.4209 10.9815 22.3348 10.6214C22.3089 10.5132 22.2979 10.4209 22.2892 10.2405C22.2813 10.0746 22.2697 9.97146 22.251 9.90036C22.2087 9.73897 22.2008 9.69772 22.1859 9.56022C22.1782 9.48914 22.1568 9.38213 22.1384 9.32242C22.1199 9.26272 22.0961 9.15251 22.0853 9.07752C22.061 8.9075 22.0586 8.89601 22.0213 8.77112C21.8837 8.31045 21.713 7.78967 21.6584 7.66421C21.6222 7.58084 21.5726 7.45298 21.5481 7.38009C21.4884 7.20193 21.1506 6.49803 21.0364 6.31369C20.9859 6.23229 20.908 6.09648 20.8632 6.01189C20.8185 5.9273 20.7164 5.75893 20.6365 5.63774C20.5566 5.51656 20.4454 5.34699 20.3894 5.26094C20.3333 5.17488 20.2341 5.04325 20.1689 4.96842C20.1036 4.89359 20.0138 4.77727 19.9692 4.70992C19.9247 4.64258 19.8111 4.50482 19.7168 4.4038C19.6224 4.30278 19.5013 4.17198 19.4475 4.11314C19.2144 3.85802 18.7407 3.39796 18.6164 3.30589C18.5443 3.25255 18.4324 3.15917 18.3675 3.0984C18.3027 3.03761 18.1819 2.9396 18.0991 2.88059C18.0162 2.82158 17.919 2.75221 17.883 2.72641C17.6825 2.58285 17.4202 2.40978 17.3184 2.35394C17.2544 2.31883 17.1594 2.26047 17.1072 2.22425C16.9209 2.09466 16.2791 1.76192 16.0479 1.67497C15.9811 1.64985 15.8452 1.5929 15.7457 1.54841C15.5417 1.45709 15.0126 1.27649 14.826 1.23449C14.7581 1.21921 14.6699 1.19402 14.63 1.17849C14.5901 1.16298 14.5013 1.13837 14.4326 1.1238C14.3639 1.10923 14.2577 1.08214 14.1965 1.0636C14.1352 1.04505 14.0233 1.02335 13.9476 1.01537C13.872 1.00738 13.7424 0.983026 13.6595 0.961258C13.5451 0.93119 13.4554 0.918333 13.2863 0.907748C13.1266 0.897761 13.0267 0.884034 12.9327 0.859163C12.7288 0.805164 12.0943 0.785653 11.4398 0.813231ZM12.1077 1.84611C12.6305 1.82705 12.9247 1.83662 13.0506 1.87683C13.1393 1.90517 13.2153 1.91775 13.3583 1.92779C13.6138 1.94571 13.6616 1.95284 13.7839 1.99113C13.8416 2.00918 13.9624 2.03567 14.0524 2.05001C14.1424 2.06435 14.2515 2.08892 14.2947 2.10462C14.3379 2.12032 14.4263 2.14472 14.4911 2.15883C14.6928 2.20272 15.2678 2.40013 15.4598 2.49142C15.5172 2.51871 15.6321 2.56602 15.7152 2.59655C15.9015 2.66501 16.5968 3.02444 16.7568 3.13502C16.8216 3.17976 16.9247 3.2457 16.9859 3.28155C17.1602 3.38358 17.5056 3.6243 17.6222 3.72495C17.6804 3.77522 17.7806 3.85439 17.8448 3.90089C18.1346 4.11074 19.2045 5.21777 19.3938 5.50374C19.4367 5.5685 19.5113 5.67046 19.5595 5.73032C19.6717 5.86945 19.8738 6.18369 19.997 6.41039C20.0498 6.50755 20.1208 6.63 20.1547 6.68249C20.2817 6.87905 20.5936 7.51971 20.666 7.73278C20.6868 7.7941 20.7359 7.92578 20.775 8.02539C20.876 8.28234 21.038 8.79414 21.0715 8.96207C21.0871 9.04038 21.1166 9.15955 21.1369 9.22689C21.1573 9.29424 21.1836 9.41829 21.1954 9.50257C21.2072 9.58685 21.2278 9.69399 21.2411 9.74066C21.2808 9.87958 21.2816 9.8844 21.3005 10.1248C21.3121 10.2733 21.3317 10.4122 21.3552 10.5126C21.4016 10.7116 21.4109 12.4057 21.3666 12.6078C21.3226 12.8086 21.3095 12.889 21.2944 13.0498C21.2859 13.1395 21.2623 13.2803 21.2418 13.3628C21.2213 13.4451 21.1981 13.5646 21.1902 13.6282C21.1822 13.6918 21.1644 13.7839 21.1504 13.8329C21.1365 13.8819 21.1076 13.9982 21.0863 14.0914C21.0329 14.324 20.8609 14.8649 20.7772 15.0633C20.7393 15.1532 20.6951 15.2697 20.679 15.3221C20.5476 15.7508 19.863 17 19.5531 17.3765C19.5162 17.4214 19.4507 17.5114 19.4077 17.5766C19.2121 17.8727 18.163 18.9599 17.8532 19.1876C17.8048 19.2232 17.7091 19.2992 17.6407 19.3566C17.2389 19.6933 16.5327 20.1233 15.822 20.4638C15.5278 20.6048 14.723 20.8942 14.4952 20.9408C14.4353 20.9531 14.351 20.9749 14.3078 20.9893C14.2646 21.0037 14.1716 21.0277 14.1013 21.0427C14.0309 21.0576 13.922 21.0853 13.8592 21.1042C13.7814 21.1276 13.6865 21.1429 13.5615 21.152C13.322 21.1695 13.2859 21.1749 13.1226 21.2175C12.9034 21.2746 11.173 21.2741 10.9624 21.2168C10.8837 21.1954 10.753 21.1731 10.6547 21.1644C10.4624 21.1474 10.362 21.1301 10.1629 21.0798C10.0873 21.0607 9.9694 21.032 9.90098 21.0161C9.46412 20.9145 9.2883 20.8592 8.62726 20.6155C8.31414 20.5 7.40153 20.0261 7.09844 19.8215C6.81968 19.6333 6.60314 19.4763 6.46493 19.3622C6.392 19.302 6.28771 19.2209 6.23316 19.1819C5.96222 18.9885 4.87473 17.8599 4.69936 17.5902C4.66386 17.5356 4.59584 17.4412 4.54818 17.3804C4.17565 16.9049 3.86935 16.3592 3.43488 15.3969C3.36974 15.2526 3.2768 14.9856 3.14364 14.5602C3.03756 14.2213 3.00754 14.1116 2.93322 13.7915C2.80387 13.2343 2.80747 13.2537 2.79155 13.0331C2.78247 12.9074 2.76477 12.7879 2.74114 12.693C2.6852 12.468 2.68398 10.6765 2.73962 10.4378C2.78272 10.2529 2.78688 10.2239 2.80289 9.99672C2.81095 9.88247 2.82805 9.7673 2.84861 9.6889C2.86668 9.62001 2.89062 9.51236 2.90182 9.44968C2.91302 9.38702 2.9363 9.28676 2.95357 9.22689C2.97083 9.16703 2.99727 9.05879 3.01234 8.98634C3.04066 8.85009 3.20977 8.30374 3.32321 7.98201C3.40874 7.73944 3.71051 7.08858 3.92493 6.68421C4.03264 6.48109 4.43718 5.8456 4.53215 5.73032C4.56913 5.68542 4.64115 5.5879 4.69217 5.5136C4.8015 5.35442 5.05175 5.07736 5.53559 4.57976C6.01418 4.08759 6.10773 3.99872 6.2635 3.8883C6.33737 3.83593 6.43316 3.76167 6.47638 3.72326C6.5196 3.68486 6.66987 3.57328 6.81033 3.47533C6.95078 3.37737 7.09835 3.2708 7.13824 3.23852C7.20779 3.18223 8.12155 2.69977 8.27708 2.63722C8.44814 2.56842 8.61964 2.4975 8.73544 2.44771C8.92964 2.36417 9.44834 2.18936 9.59275 2.15877C9.66452 2.14356 9.7619 2.11917 9.80916 2.10454C9.85643 2.08993 9.96861 2.06534 10.0585 2.04993C10.1483 2.03451 10.2719 2.00691 10.3331 1.98858C10.3944 1.97026 10.527 1.9463 10.6278 1.93533C10.7286 1.92438 10.8524 1.902 10.9028 1.88562C11.05 1.83781 11.1167 1.83332 11.5314 1.84332C11.7475 1.84853 12.0068 1.84979 12.1077 1.84611ZM7.96213 3.74212C7.90776 3.76692 7.83409 3.80449 7.79843 3.82562C7.60537 3.94 7.50295 4.00681 7.43239 4.06443C7.38917 4.09972 7.3155 4.15168 7.26869 4.17991C7.14932 4.25189 7.09743 4.29474 6.94783 4.44497C6.87581 4.5173 6.78152 4.5996 6.7383 4.62785C6.60737 4.71349 6.52904 4.79176 6.41331 4.95264C6.35254 5.03709 6.25347 5.16397 6.19313 5.23458C5.95482 5.51348 5.50141 6.32308 5.41261 6.62827C5.34176 6.87173 5.31534 6.95374 5.25264 7.12487C5.13086 7.45723 5.07381 7.69379 5.04879 7.97014C5.04429 8.01975 5.0261 8.12383 5.00837 8.20143C4.98417 8.30728 4.97145 8.42245 4.95751 8.66227C4.94727 8.83812 4.93476 9.00273 4.9297 9.02807C4.92465 9.0534 4.92719 9.16972 4.93534 9.28657C4.94349 9.40341 4.95612 9.60308 4.9634 9.73029C4.97204 9.8812 4.98589 9.99704 5.00325 10.0636C5.01789 10.1197 5.0386 10.2361 5.04926 10.3221C5.09486 10.6901 5.2611 11.1717 5.54941 11.7711C5.78443 12.2597 5.82886 12.338 5.96587 12.5049C6.026 12.5781 6.09768 12.6781 6.12518 12.727C6.25038 12.9498 6.73602 13.4345 7.06762 13.6676C7.74558 14.1441 8.81822 14.4863 9.02958 14.2935C9.10362 14.226 9.10303 14.2392 9.09595 12.8021C9.08827 11.2368 9.09327 11.2799 8.88747 11.0067C8.84853 10.955 8.78829 10.864 8.75361 10.8045C8.67256 10.6654 8.50539 10.4907 8.33211 10.3641C8.19389 10.2631 8.13292 10.2082 7.8711 9.94916C7.67458 9.75471 7.35843 9.41021 7.28943 9.31533C6.94197 8.83756 6.62025 8.13656 6.57449 7.75752C6.56636 7.69017 6.54145 7.55854 6.51912 7.465C6.46294 7.22959 6.4614 6.84475 6.51568 6.6107C6.53422 6.53077 6.55845 6.39796 6.5695 6.3156C6.63328 5.84055 6.94063 5.14351 7.26393 4.7407C7.31641 4.67531 7.38988 4.57429 7.4272 4.51621C7.50042 4.40224 7.89029 3.98138 8.01854 3.87787C8.1969 3.73392 8.16237 3.6508 7.96213 3.74212ZM16.0463 3.78696C15.9895 3.81079 16.0678 3.92415 16.3633 4.24559C16.7234 4.63737 16.7121 4.62319 16.9011 4.92081C16.9937 5.06672 17.0932 5.21978 17.1222 5.26094C17.1552 5.3077 17.1905 5.38424 17.2164 5.46502C17.2392 5.53611 17.2879 5.66842 17.3247 5.75906C17.3614 5.84968 17.4038 5.97825 17.4188 6.04477C17.4337 6.11127 17.4608 6.21467 17.4788 6.27454C17.5315 6.44913 17.5524 7.01114 17.5234 7.47181C17.5092 7.69701 17.4828 7.79587 17.2908 8.34255C17.2358 8.4991 17.0807 8.8112 17 8.92758C16.9585 8.98744 16.9091 9.06397 16.8903 9.09764C16.8715 9.13132 16.8175 9.20785 16.7703 9.26771C16.723 9.32757 16.6419 9.43778 16.59 9.51261C16.4474 9.71806 16.0922 10.0882 15.9547 10.1745C15.7042 10.3316 15.1956 10.8716 15.0863 11.0965C14.9466 11.3837 14.8912 12.3283 14.9196 13.9411C14.9267 14.3478 15.0901 14.4398 15.5484 14.2955C15.5936 14.2813 15.6835 14.2597 15.7483 14.2476C16.1727 14.1681 16.7663 13.8619 17.1659 13.5165C17.2362 13.4557 17.3259 13.3845 17.3654 13.3583C17.4768 13.2841 17.6729 13.0781 17.7818 12.9207C17.8362 12.8422 17.9132 12.7381 17.9528 12.6895C18.4739 12.0506 18.9866 10.7748 19.0354 9.9956C19.0471 9.8076 19.0628 9.67235 19.0834 9.58063C19.1287 9.37908 19.1287 8.91858 19.0834 8.7371C19.0593 8.64079 19.0505 8.55659 19.0419 8.34255C19.0325 8.10685 19.0258 8.0495 18.9918 7.91398C18.9702 7.82793 18.9436 7.69323 18.9326 7.61466C18.8843 7.26824 18.6815 6.69346 18.4116 6.13848C18.2246 5.75397 18.1631 5.64562 18.043 5.48913C17.9783 5.40479 17.8989 5.29414 17.8665 5.24325C17.6563 4.91256 16.9798 4.27338 16.6457 4.08987C16.599 4.06424 16.5077 4.0022 16.4427 3.95202C16.2853 3.83042 16.1134 3.75883 16.0463 3.78696ZM11.6951 6.40535C11.6555 6.42007 11.5568 6.44077 11.4758 6.45132C11.2317 6.48315 11.1939 6.51843 11.2911 6.62361C11.4136 6.75604 11.4101 6.80372 11.2679 6.9437C11.1112 7.09785 11.1357 7.1233 11.4659 7.15024C11.5962 7.16086 11.6395 7.17041 11.7191 7.20596C11.8726 7.2746 11.8939 7.23555 11.902 6.87026C11.9122 6.40947 11.8798 6.33666 11.6951 6.40535ZM12.2161 6.4276C12.1696 6.48307 12.1616 6.52151 12.156 6.71706C12.1448 7.11325 12.1647 7.14355 12.4408 7.14966C12.8942 7.15971 13.0221 7.10077 12.8378 6.96675C12.6411 6.82378 12.6333 6.79385 12.7569 6.65648C12.8731 6.52751 12.8455 6.48626 12.6239 6.45749C12.5633 6.4496 12.4665 6.43429 12.4089 6.42346C12.2731 6.39795 12.2404 6.39864 12.2161 6.4276ZM10.0725 6.56066C9.97775 6.64961 9.82983 6.98959 9.69301 7.43298C9.47028 8.15478 9.47992 8.28029 9.76546 8.37638C10.0185 8.46151 10.3062 8.69327 10.5116 8.9773C10.6304 9.1417 10.7775 9.36922 10.8269 9.46499C11.0803 9.9566 11.1069 10.0176 11.1326 10.1655C11.1462 10.2443 11.1722 10.3653 11.1903 10.4345C11.2084 10.5036 11.2315 10.6429 11.2418 10.7439C11.252 10.8449 11.2771 10.9918 11.2975 11.0704C11.3506 11.2749 11.3564 14.1694 11.3041 14.3833C11.2713 14.5176 11.2566 14.6943 11.2377 15.1792C11.2271 15.4527 11.2207 15.5162 11.193 15.6181C11.1535 15.7633 11.1475 15.8089 11.1322 16.0772C11.123 16.2406 11.1127 16.3125 11.0869 16.3967C11.0686 16.4565 11.045 16.5728 11.0345 16.6552C11.024 16.7376 11.0001 16.8598 10.9814 16.9267C10.9626 16.9937 10.9386 17.113 10.928 17.192C10.8944 17.4414 10.653 18.18 10.5686 18.2915C10.422 18.4851 10.3351 18.4162 10.0893 17.9112C9.62546 16.9584 9.2464 16.7439 8.42768 16.9706C8.29672 17.0068 8.29672 17.0068 7.60918 17.0038C6.86623 17.0006 6.90233 17.0042 6.46983 16.8912C6.20779 16.8227 5.55626 16.4235 5.25354 16.146C5.04241 15.9524 4.75855 15.7628 4.7093 15.7824C4.63334 15.8127 4.85405 16.2749 5.10992 16.6214C5.17347 16.7074 5.25941 16.8278 5.3009 16.8888C5.39461 17.0267 5.65996 17.3315 5.77485 17.4333C5.82216 17.4753 5.9359 17.5906 6.02759 17.6897C6.30385 17.9882 6.54859 18.1477 6.92401 18.2742C7.43291 18.4455 7.6746 18.4248 8.44395 18.1437C8.76752 18.0255 8.82711 18.0144 8.82711 18.072C8.82711 18.2443 8.25845 18.672 7.78845 18.8532C7.55529 18.9431 7.52907 19.0656 7.71522 19.195C8.09341 19.4581 8.49713 19.6783 8.82081 19.7982C9.39852 20.0123 9.9673 20.1973 10.1029 20.2154C10.2347 20.233 10.363 20.2594 10.4903 20.2951C10.5494 20.3117 10.6694 20.3283 10.7915 20.3367C10.9773 20.3495 11.0339 20.3582 11.2499 20.4076C11.3006 20.4192 11.5055 20.4241 11.944 20.4241C12.3824 20.4241 12.5873 20.4192 12.638 20.4076C12.6777 20.3986 12.7519 20.3818 12.8031 20.3704C12.8542 20.3591 12.9868 20.3437 13.0977 20.3364C13.2379 20.3271 13.3393 20.3123 13.4303 20.2877C13.5024 20.2682 13.608 20.243 13.6651 20.2317C13.7222 20.2205 13.8152 20.1961 13.8718 20.1775C13.9283 20.1589 14.0321 20.1323 14.1024 20.1184C14.2532 20.0886 14.7792 19.9053 15.0453 19.7898C15.1484 19.7451 15.2807 19.6901 15.3393 19.6677C15.5027 19.6051 15.8238 19.4332 15.9428 19.3445C16.0015 19.3008 16.0849 19.2484 16.1281 19.2281C16.4191 19.0915 16.4505 18.9657 16.2181 18.8674C16.0193 18.7833 15.446 18.3525 15.3413 18.2085C15.2056 18.0219 15.2979 18.004 15.6223 18.1539C16.2887 18.4618 16.7721 18.4527 17.4246 18.1201C17.8937 17.881 18.51 17.3172 18.8326 16.8323C19.31 16.1147 19.5541 15.6418 19.4471 15.6418C19.3953 15.6418 19.3329 15.6911 18.9837 16.0076C18.8897 16.0928 18.7627 16.1973 18.7015 16.2399C18.6403 16.2824 18.5418 16.3516 18.4828 16.3937C18.1901 16.602 17.6099 16.853 17.3068 16.9024C17.2347 16.9142 17.108 16.9419 17.0252 16.9642C16.8065 17.0228 16.2214 17.0259 16.0004 16.9695C15.8031 16.9191 15.6639 16.9076 15.2502 16.9073C14.5289 16.9069 14.4626 16.9604 14.0077 17.9102C13.8055 18.3325 13.7501 18.4037 13.6234 18.4037C13.3888 18.4037 12.9167 17.4824 12.7624 16.7234C12.7502 16.6636 12.7257 16.5656 12.708 16.5057C12.6902 16.4459 12.6669 16.3357 12.6561 16.2609C12.6292 16.0737 12.6186 16.0287 12.5733 15.9111C12.5516 15.855 12.5244 15.7516 12.5127 15.6813C12.485 15.5145 12.4665 15.4786 12.431 15.5231C12.4145 15.5437 12.4092 15.5899 12.3823 15.9479C12.3626 16.2106 12.349 16.3347 12.324 16.4785C12.3175 16.516 12.3113 16.8925 12.3101 17.3153C12.3067 18.5754 12.2964 18.9266 12.2604 19.0091C12.1466 19.2696 11.8934 19.2592 11.7605 18.9887C11.6916 18.8484 11.6955 19.1509 11.6953 13.9334C11.6951 8.66539 11.7 8.98522 11.6162 8.80373C11.5362 8.63059 11.4653 8.57116 11.142 8.40617C10.8285 8.24621 10.818 8.23663 10.6061 7.91398C10.3419 7.51174 10.2285 7.17109 10.2283 6.77829C10.2282 6.53268 10.1776 6.46203 10.0725 6.56066ZM19.7826 8.21633C19.7555 8.25664 19.756 8.42324 19.7836 8.53982C19.8176 8.68299 19.8188 9.42893 19.7854 9.59424C19.7557 9.74058 19.7412 9.86074 19.7244 10.0976C19.7167 10.2065 19.7013 10.3085 19.6844 10.3629C19.6694 10.4116 19.6451 10.5248 19.6305 10.6146C19.513 11.3357 19.0831 12.3176 18.6506 12.8527C17.8306 13.8673 17.0577 14.3584 15.8766 14.6154C15.3727 14.725 14.9655 15.1464 14.7729 15.7575C14.6515 16.1425 14.6712 16.2529 14.8785 16.3482C15.0069 16.4072 15.3617 16.5107 15.4883 16.5261C15.5593 16.5347 15.6734 16.5547 15.7418 16.5706C15.9044 16.6083 16.063 16.608 16.2329 16.5699C16.3049 16.5537 16.4319 16.5349 16.515 16.5281C16.6259 16.519 16.6975 16.5046 16.7835 16.474C16.848 16.4511 16.9591 16.4227 17.0304 16.4109C17.3194 16.363 18.1601 15.9262 18.433 15.6822C18.4762 15.6435 18.5587 15.5776 18.6164 15.5357C18.7565 15.4338 18.9326 15.25 19.0099 15.1248C19.0446 15.0687 19.1297 14.9615 19.1991 14.8867C19.3589 14.7143 19.4095 14.643 19.5269 14.4241C19.5791 14.3269 19.6438 14.2136 19.6706 14.1724C19.7463 14.0565 19.8347 13.864 19.874 13.7298C19.8936 13.6627 19.9434 13.5374 19.9847 13.4514C20.0653 13.2833 20.2517 12.7008 20.2997 12.4669C20.3138 12.3985 20.3403 12.2844 20.3586 12.2133C20.3851 12.1106 20.3943 12.0322 20.4034 11.8323C20.4119 11.6434 20.4214 11.5586 20.4414 11.4922C20.5076 11.272 20.5157 10.7694 20.4568 10.533C20.4403 10.4666 20.4224 10.3221 20.411 10.1625C20.3965 9.96115 20.3832 9.8656 20.353 9.74757C20.3315 9.66324 20.3102 9.56363 20.3057 9.52621C20.2673 9.20907 19.9765 8.30775 19.8836 8.21839C19.8417 8.17799 19.8089 8.17732 19.7826 8.21633ZM4.12621 8.34525C4.05275 8.43629 3.95742 8.66135 3.90972 8.85635C3.88551 8.95539 3.85636 9.06336 3.84496 9.09627C3.7866 9.26477 3.71706 9.54648 3.6935 9.70988C3.67892 9.8109 3.65835 9.9247 3.64777 9.96277C3.56569 10.2579 3.55619 11.5998 3.634 11.904C3.6527 11.9771 3.67673 12.1026 3.68741 12.1829C3.69808 12.2632 3.72425 12.3932 3.74555 12.4718C3.76686 12.5503 3.79322 12.6589 3.80413 12.713C3.83103 12.8463 3.95474 13.2292 4.01415 13.3629C4.04075 13.4228 4.08587 13.5391 4.11443 13.6214C4.21859 13.9217 4.37593 14.2125 4.71688 14.7349C4.85485 14.9462 5.2782 15.4138 5.52692 15.6294C5.77939 15.8483 6.44135 16.2266 6.75794 16.3329C7.24505 16.4963 7.30626 16.5127 7.48375 16.5276C7.57795 16.5355 7.69627 16.5509 7.74669 16.5619C7.99588 16.6162 8.05981 16.6168 8.25088 16.5669C8.30491 16.5528 8.41098 16.5374 8.48661 16.5327C8.67124 16.5213 8.73326 16.5081 8.97116 16.4297C9.33913 16.3085 9.3956 16.2448 9.33924 16.0142C9.32483 15.9553 9.30135 15.8512 9.28706 15.7828C9.25625 15.6354 9.19275 15.498 9.08997 15.3565C9.04908 15.3001 8.99893 15.2234 8.97852 15.186C8.88772 15.0195 8.76688 14.8975 8.61122 14.8152C8.37067 14.688 8.09324 14.5853 7.81193 14.5193C7.61798 14.4738 7.07264 14.2818 6.9382 14.2118C6.45736 13.9613 5.74277 13.3512 5.46773 12.9564C5.43186 12.9049 5.3484 12.7916 5.28227 12.7047C4.89273 12.1926 4.44853 11.0854 4.37292 10.438C4.36506 10.3707 4.34096 10.2544 4.31935 10.1795C4.27391 10.0218 4.27364 10.0165 4.25872 9.00921C4.24772 8.26598 4.23631 8.20882 4.12621 8.34525Z" fill="none"/>
</svg>
