<svg width="24" height="24" viewBox="0 0 24 24" fill="none" xmlns="http://www.w3.org/2000/svg">
<path fill-rule="evenodd" clip-rule="evenodd" d="M11.6431 0.494393C11.5191 0.582335 11.4058 0.882116 11.267 1.48929C11.1209 2.12924 10.914 2.66152 10.4826 3.5077C10.1603 4.13977 9.83524 4.72829 9.76022 4.81542C9.63497 4.96087 9.35806 4.97391 6.38785 4.97391C2.62864 4.97391 2.65443 4.96811 3.22802 5.68025C3.38809 5.87896 3.68013 6.31233 3.87709 6.64336C4.07404 6.97439 4.27969 7.31121 4.33394 7.392C4.41201 7.50793 4.60234 7.54044 5.24048 7.54696C6.02035 7.55484 6.07558 7.5696 6.84273 7.97472C7.40568 8.27214 7.66083 8.46053 7.71812 8.62147C7.78715 8.81474 7.66593 9.10184 6.90102 10.5566C4.17593 15.7391 2.3999 19.2268 2.3999 19.3956C2.3999 19.4713 2.46051 19.5841 2.53464 19.6464C2.64538 19.7394 2.83231 19.6868 3.58657 19.3505C4.43877 18.9705 4.583 18.9353 5.62285 18.8541C6.91364 18.7533 10.8114 18.8109 10.9608 18.933C11.0672 19.02 11.226 20.1864 11.302 21.44C11.3498 22.2259 11.4703 22.5966 11.7313 22.7607C11.9571 22.9026 12.1602 22.6578 12.26 22.1235C12.413 21.3042 12.6059 19.7975 12.6059 19.4219C12.6059 19.2164 12.6542 18.9993 12.7133 18.9396C12.7924 18.8596 13.556 18.8313 15.6006 18.8324C18.7126 18.8342 19.0842 18.8802 20.3734 19.4229C21.2823 19.8055 21.456 19.8357 21.5848 19.6335C21.6599 19.5157 21.4712 19.0973 20.6658 17.5957C20.1084 16.5565 19.4231 15.2987 19.1429 14.8006C18.8627 14.3025 18.2382 13.1409 17.755 12.2194C16.63 10.0738 16.6728 10.1395 16.3601 10.0763C16.03 10.0094 15.9716 9.92121 16.0988 9.68094C16.1716 9.54336 16.1709 9.41068 16.0964 9.18236C16.0406 9.01118 16.0181 8.79753 16.0463 8.70742C16.0753 8.61485 16.5049 8.3311 17.0332 8.0555C17.8375 7.63581 18.0601 7.56018 18.6213 7.51599L19.274 7.46454L19.6329 6.91117C19.8303 6.60677 20.1455 6.16869 20.3335 5.93756C20.5818 5.63234 20.6674 5.4493 20.6468 5.26835L20.6185 5.0192L17.2803 4.97391C14.4458 4.93542 13.9289 4.90816 13.8544 4.79277C13.8063 4.71805 13.4882 4.1271 13.1476 3.47953C12.7131 2.65318 12.4849 2.09963 12.3824 1.62288C12.1303 0.450558 11.9955 0.244695 11.6431 0.494393ZM14.4586 9.28887C14.8999 9.73519 15.2335 10.3869 15.3961 11.1201C15.6001 12.0406 15.2264 13.3894 14.552 14.1666C14.177 14.5987 13.2906 15.1595 13.0996 15.0853C12.9387 15.0228 12.9107 13.8977 13.0478 12.9966C13.0938 12.6937 13.1769 11.8345 13.2324 11.0873C13.3465 9.5526 13.4594 8.85984 13.6114 8.76484C13.757 8.67381 13.998 8.82289 14.4586 9.28887ZM10.4037 10.3854C10.4341 10.8213 10.5209 12.0296 10.5968 13.0708C10.693 14.3916 10.7063 14.9924 10.6408 15.0587C10.5079 15.1932 9.83381 14.8455 9.34634 14.391C9.13094 14.1901 8.83953 13.802 8.69879 13.5285L8.44293 13.0312L9.18071 11.561C9.58645 10.7525 9.95807 9.979 10.0066 9.84197C10.055 9.70494 10.1519 9.5929 10.2217 9.5929C10.3175 9.5929 10.3623 9.78772 10.4037 10.3854ZM16.7587 12.3463C16.8382 12.5157 16.9032 12.6865 16.9032 12.7257C16.9032 12.7649 17.1315 13.2886 17.4107 13.8894C18.0493 15.2638 18.3156 15.948 18.2682 16.0919C18.2399 16.1779 17.6601 16.2044 15.8139 16.2044C14.0329 16.2044 13.4057 16.1771 13.431 16.1003C13.4499 16.0431 13.7453 15.8365 14.0876 15.6412C15.2661 14.9688 15.9754 14.0172 16.1992 12.8081C16.2545 12.5092 16.3135 12.2138 16.3301 12.1515C16.3877 11.9362 16.6147 12.0394 16.7587 12.3463ZM8.55242 14.7615C8.86988 15.1083 9.29728 15.4454 9.71151 15.6753C10.0725 15.8757 10.3677 16.0767 10.3677 16.122C10.3677 16.1685 9.64518 16.2044 8.70873 16.2044C7.42922 16.2044 7.03942 16.1774 7.00496 16.0866C6.93656 15.9062 7.76011 14.2119 7.91615 14.2119C7.98948 14.2119 8.27578 14.4591 8.55242 14.7615Z" fill="none"/>
</svg>
