<svg width="30" height="30" viewBox="0 0 30 30" fill="#6d6d91" xmlns="http://www.w3.org/2000/svg">
<path fill-rule="evenodd" clip-rule="evenodd" d="M12.7757 4.1751L12.5876 4.9803L11.9673 5.16526C11.3935 5.33628 11.3305 5.37652 11.1252 5.70233C10.919 6.02956 10.9033 6.11091 10.9033 6.85091C10.9033 7.45547 10.9409 7.74776 11.0593 8.06406C11.1731 8.368 11.2153 8.67257 11.2153 9.18983C11.2153 9.71573 11.2575 10.0136 11.3787 10.3425C11.5231 10.7346 11.53 10.8155 11.4379 11.0387C11.3652 11.2149 11.3403 11.5901 11.3553 12.2813C11.3762 13.2435 11.3729 13.2668 11.2358 13.1067C11.1154 12.9661 11.0261 12.9464 10.6285 12.973C10.2572 12.9978 9.99555 12.9503 9.34323 12.7392L8.52422 12.4742L8.50082 11.9745C8.4874 11.6888 8.52625 11.3167 8.59138 11.1057C8.65409 10.9027 8.72632 10.3802 8.75198 9.9445C8.77757 9.50882 8.85315 8.9937 8.91992 8.79979C9.03138 8.47605 9.02982 8.38978 8.90151 7.74491C8.8246 7.35867 8.74917 7.08071 8.73396 7.12713C8.64801 7.38909 8.57383 7.11097 8.5243 6.34094C8.49349 5.8621 8.44123 5.48726 8.40815 5.50794C8.37508 5.52869 8.28452 5.89378 8.20691 6.31924C8.09022 6.95872 8.05637 7.05164 8.01167 6.85519C7.98196 6.72449 7.95348 6.50174 7.94841 6.36011C7.93492 5.98369 7.80934 6.04579 7.74826 6.45913C7.69577 6.81471 7.69483 6.81559 7.37698 6.81559C7.12862 6.81559 6.98526 6.87634 6.72746 7.09085C6.33403 7.41824 6.31328 7.50268 6.23052 9.11276C6.19807 9.74448 6.13037 10.3619 6.08013 10.4849C6.00549 10.6676 6.01734 10.8223 6.14495 11.3299C6.23091 11.6716 6.30119 11.9773 6.30119 12.0091C6.30119 12.0967 5.0545 11.9811 4.64281 11.8553C4.44398 11.7945 4.18697 11.6694 4.07168 11.5774C3.9564 11.4853 3.77364 11.4099 3.66553 11.4099C3.55734 11.4099 3.35088 11.3185 3.20665 11.2068C2.77484 10.8723 2.02587 10.4694 1.73189 10.4134C1.51652 10.3723 1.4191 10.3956 1.28525 10.52C1.1911 10.6075 0.973715 10.751 0.802112 10.8388C0.1806 11.1568 -0.123994 11.7643 0.0471402 12.3443C0.269053 13.0965 0.987521 13.5698 2.06565 13.6738C2.35745 13.702 2.69808 13.7745 2.82265 13.835C2.94722 13.8953 3.14097 13.9447 3.2533 13.9447C3.37498 13.9447 3.67364 14.1048 3.99243 14.3408C4.32066 14.5838 4.60638 14.7357 4.73181 14.7337C4.84421 14.732 5.2605 14.83 5.65682 14.9515L6.37747 15.1725L6.38941 15.6874C6.39588 15.9706 6.40782 16.2736 6.41593 16.3607C6.42396 16.4479 6.43902 17.339 6.44931 18.3411C6.4607 19.4447 6.49455 20.1005 6.53519 20.0045C6.57209 19.9174 6.6082 19.4718 6.61545 19.0144C6.62271 18.5569 6.65484 17.8797 6.68682 17.5093L6.74501 16.836L6.76451 17.747C6.7752 18.248 6.81256 19.0857 6.84751 19.6085C6.88245 20.1313 6.96529 21.4502 7.03159 22.5394C7.15374 24.5451 7.26871 25.8059 7.33579 25.874C7.37659 25.9154 7.53228 24.0698 7.58704 22.8958C7.60638 22.4819 7.65326 21.9294 7.69125 21.668L7.76028 21.1927L7.7772 21.7472C7.81729 23.0585 7.91682 22.4347 8.01222 20.2739C8.08562 18.6105 8.14849 17.8572 8.23265 17.6296C8.29747 17.4545 8.37906 17.0083 8.41392 16.638C8.52515 15.4591 8.55136 15.3701 8.78622 15.3741C9.35212 15.3835 9.65687 15.5087 9.98713 15.8676C10.2496 16.1527 10.4153 16.2544 10.7862 16.3577C11.6351 16.5941 11.5806 16.5269 11.6338 17.4043C11.6597 17.8324 11.7156 18.5747 11.7579 19.054C11.8003 19.5332 11.8585 20.7389 11.8874 21.7334C11.9163 22.7278 11.9647 23.5006 11.995 23.4508C12.0254 23.4009 12.0772 23.8705 12.1103 24.4944C12.1434 25.1182 12.1934 25.8247 12.2213 26.0643L12.2722 26.5L12.3286 25.8267C12.3596 25.4564 12.4386 24.5474 12.5041 23.8068C12.5696 23.0661 12.6179 22.1572 12.6115 21.7868C12.605 21.4165 12.6346 21.0244 12.6772 20.9155C12.7197 20.8066 12.7777 20.0758 12.8059 19.2916C12.8935 16.8537 12.9651 16.603 13.0093 18.5787L13.0483 20.3214L13.1479 19.1332C13.2026 18.4797 13.2686 17.6897 13.2945 17.3776C13.3413 16.8135 13.343 16.8099 13.594 16.7621C13.9375 16.6966 14.0363 16.7492 14.2189 17.0944C14.3481 17.3385 14.4122 17.3862 14.5841 17.3657C14.7309 17.3483 14.818 17.3893 14.8787 17.5043C14.9476 17.6351 14.9418 17.6678 14.8496 17.6678C14.6399 17.6678 14.6345 17.8252 14.8415 17.9051C14.9989 17.9658 15.1109 17.9502 15.3338 17.8362C15.6635 17.6675 16.2736 17.5586 16.4668 17.6339C16.5763 17.6765 16.5973 17.8075 16.5973 18.4491C16.5973 18.8695 16.5632 19.3344 16.5214 19.4821C16.4685 19.6695 16.4821 20.1014 16.5661 20.9075C16.7103 22.2901 16.8184 22.6522 16.826 21.7781C16.829 21.4465 16.8536 21.0107 16.8807 20.8096C16.9792 20.0796 17.0656 20.5586 17.0756 21.8905C17.0812 22.6395 17.1075 23.5196 17.1341 23.8464L17.1823 24.4405L17.284 23.3711C17.3401 22.7829 17.404 22.177 17.4262 22.0245C17.4485 21.872 17.4926 21.0343 17.5244 20.163C17.5578 19.2435 17.6214 18.4838 17.6758 18.3526C17.7668 18.1334 17.7756 18.1304 17.9621 18.2544C18.1094 18.3524 18.2552 18.3704 18.5846 18.3311C19.0311 18.2778 19.9514 18.4251 19.9514 18.55C19.9514 18.6711 20.172 18.6233 20.6036 18.4083C21.2348 18.0939 21.2786 18.1401 21.2708 19.1109C21.2672 19.5588 21.2388 20.1326 21.2077 20.386C21.1637 20.7437 21.1808 20.9144 21.2842 21.1488C21.3899 21.3888 21.4298 21.8233 21.4779 23.2626C21.5406 25.1383 21.6056 25.2577 21.7105 23.6902C21.7413 23.2315 21.8144 22.7181 21.8729 22.5492C21.9315 22.3804 21.9853 21.8813 21.9925 21.4402L22.0055 20.6382L22.0609 21.47C22.0914 21.9274 22.1251 22.4265 22.1359 22.579C22.1466 22.7314 22.2031 22.0185 22.2614 20.9947C22.3271 19.8411 22.3416 18.9874 22.2998 18.7499L22.2322 18.3667L22.5153 18.4199C23.6336 18.6303 24.1918 18.8068 24.4412 19.0293C24.8577 19.4006 25.0537 19.1037 24.6644 18.6911L24.4634 18.478L24.8103 18.5439C25.0011 18.5801 25.4396 18.683 25.7848 18.7724C26.13 18.8619 26.5223 18.9352 26.6567 18.9352C26.8228 18.9352 26.9647 19.0049 27.1003 19.153C27.2814 19.3509 27.3543 19.3721 27.8961 19.3844C28.2241 19.3918 28.8169 19.4221 29.2135 19.4516C29.85 19.4991 29.9404 19.4896 29.9854 19.3707C30.0516 19.1955 29.8915 19.0964 29.54 19.0948C29.3422 19.0939 29.186 19.025 29.0002 18.8566C28.6718 18.5588 28.0055 18.3015 27.5631 18.3015C27.3573 18.3015 27.1865 18.2549 27.1275 18.1826C27.074 18.1173 26.9336 18.0638 26.8155 18.0638C26.6973 18.0638 26.5566 18.01 26.5028 17.9442C26.3765 17.7896 25.6567 17.576 25.0613 17.5165C24.6496 17.4753 24.5819 17.4438 24.4915 17.2519C24.3877 17.0314 24.2005 16.9607 24.1476 17.1219C24.1275 17.1831 23.9778 17.1693 23.6536 17.0762C23.3978 17.0027 22.9884 16.9175 22.7439 16.8867C22.4994 16.8561 22.2731 16.8042 22.2408 16.7715C22.2086 16.7387 22.2419 16.4845 22.3148 16.2064C22.4089 15.848 22.4477 15.3823 22.4486 14.6051C22.4493 14.0023 22.4793 13.4618 22.5154 13.404C22.6036 13.2626 22.6777 13.7359 22.6867 14.4992C22.6997 15.599 22.7683 14.92 22.8621 12.7645C22.9167 11.5056 22.9267 10.5585 22.8862 10.4664C22.8484 10.3802 22.8454 10.2453 22.8795 10.1667C22.9893 9.91392 22.904 9.24314 22.7135 8.86134C22.5898 8.61356 22.426 8.43248 22.218 8.31374C21.9534 8.16276 21.9006 8.08806 21.8634 7.81264C21.8393 7.63457 21.7921 7.29284 21.7584 7.05322L21.6973 6.61755L21.6024 7.17204C21.3999 8.35612 21.3475 8.43058 21.2265 7.70673L21.1503 7.25126L21.0861 7.75307C21.0506 8.02905 20.9961 8.21274 20.9649 8.16141C20.9291 8.10264 20.8884 8.14723 20.8553 8.28142C20.8262 8.39889 20.7296 8.59502 20.6405 8.71741C20.4886 8.92621 20.4767 9.06539 20.4482 10.9868C20.4284 12.3302 20.4495 13.2244 20.5097 13.5883L20.6014 14.1428L20.7044 13.7863C20.801 13.452 20.8051 13.4833 20.7694 14.2938C20.7485 14.7689 20.7314 15.4163 20.7314 15.7325V16.3075L20.323 16.1559C20.0983 16.0725 19.8217 16.0043 19.7081 16.0043C19.5729 16.0043 19.4885 15.9537 19.4639 15.8581C19.4331 15.7383 19.3225 15.7038 18.8503 15.6665C17.9064 15.5921 17.9881 15.8107 18.0483 13.5194C18.0771 12.4245 18.1134 11.5139 18.129 11.4957C18.1446 11.4776 18.1584 12.0479 18.1597 12.7631C18.1611 13.5014 18.1902 14.0122 18.2272 13.9447C18.263 13.8794 18.3325 12.916 18.3818 11.8039C18.4619 9.99472 18.4579 9.73609 18.3442 9.34826C18.1955 8.84043 18.2456 7.66245 18.4396 7.10812C18.599 6.65264 18.4743 5.82321 18.2347 5.74605C18.1545 5.72015 18.049 5.57598 18.0001 5.42556C17.91 5.14831 17.7673 5.05349 17.7673 5.27093C17.7673 5.41391 17.7521 5.41542 17.4961 5.29699C17.3827 5.24448 17.2766 5.11544 17.252 4.99995C17.1614 4.57608 17.1261 4.55659 17.0256 4.87487L16.9257 5.19172L16.913 4.87487C16.9061 4.7006 16.8742 4.41543 16.8424 4.24116C16.7886 3.94736 16.7752 3.98317 16.6573 4.73427C16.5657 5.31894 16.4785 5.6163 16.3439 5.80364C15.9856 6.30221 15.8955 7.18353 16.0501 8.67709C16.0952 9.11276 16.1342 10.0826 16.1369 10.8323C16.1401 11.7388 16.1785 12.3358 16.2515 12.6146C16.36 13.0282 16.4131 14.9745 16.316 14.9745C16.2899 14.9745 16.0923 14.8319 15.8768 14.6577C15.6612 14.4834 15.4236 14.3408 15.3487 14.3408C15.2737 14.3408 15.1719 14.2912 15.1224 14.2307C14.972 14.0466 14.2359 13.7626 13.9382 13.7737L13.658 13.7842L13.6067 12.109C13.5421 10.0037 13.5513 9.06286 13.6333 9.39001C13.666 9.52071 13.7025 9.89499 13.7143 10.2217C13.7274 10.5883 13.7576 10.2816 13.793 9.42058C13.827 8.59685 13.889 7.95221 13.9444 7.84694C14.0095 7.7236 14.0233 7.44557 13.9892 6.94502C13.9068 5.73338 13.8627 5.46897 13.743 5.46897C13.6743 5.46897 13.6333 5.38429 13.6333 5.24242C13.6333 5.11774 13.6085 4.84152 13.5782 4.62852L13.5232 4.24116L13.4297 4.63723C13.3783 4.85507 13.3329 4.95598 13.3288 4.86156C13.3246 4.76706 13.2966 4.62448 13.2664 4.54471C13.2181 4.41718 13.2049 4.42351 13.1572 4.59762C13.1161 4.74741 13.0998 4.69917 13.0906 4.39959C13.0838 4.18176 13.0525 3.86094 13.0211 3.68667C12.9654 3.37917 12.9582 3.39359 12.7757 4.1751ZM21.0252 15.7614C20.9938 16.1288 20.985 16.4467 21.0057 16.4677C21.0996 16.5631 21.1264 16.372 21.1052 15.7567L21.0824 15.0933L21.0252 15.7614Z" fill="#6d6d91"/>
</svg>
