<svg width="30" height="30" viewBox="0 0 30 30" fill="#6d6d91" xmlns="http://www.w3.org/2000/svg">
<path d="M12.6614 6.94269V12.2146C12.6614 13.8794 13.9283 15.2241 15.4968 15.2241C17.0252 15.2241 18.2921 13.8794 18.3323 12.2146V6.94269C18.3323 5.27787 17.0654 3.89051 15.4968 3.89051C13.9283 3.91186 12.6614 5.29921 12.6614 6.94269Z" fill="#6d6d91"/>
<path d="M24.5864 1.54269C22.8369 1.54269 21.6303 2.84466 20.102 3.67707C20.0215 3.71976 19.8808 3.76245 19.7601 3.80514V12.2146C19.7199 14.7119 17.8095 16.7395 15.4968 16.7395C13.144 16.7395 11.2336 14.6692 11.2336 12.1292V3.76245L10.8917 3.63439C9.36336 2.84466 8.197 1.5 6.40723 1.5C3.41087 1.5 1.21891 4.82964 2.26462 7.88182C2.70704 9.22648 3.61197 9.95217 4.65768 10.6992C5.92459 11.5743 7.09096 12.6842 8.05623 13.9435C9.4438 15.8431 10.4091 18.1055 10.8515 20.4534C11.0727 21.5632 11.1933 23.0787 11.2939 24.1032C11.5151 26.515 13.0434 28.5 15.5169 28.5C17.9904 28.5 19.5188 26.515 19.74 24.1032C19.8204 23.036 19.9612 21.5632 20.1824 20.4534C20.6248 18.1055 21.57 15.8431 22.9777 13.9435C23.9429 12.6415 25.0691 11.5957 26.3762 10.6992C27.4219 9.95217 28.3269 9.22648 28.7693 7.88182C29.7345 4.87233 27.5426 1.54269 24.5864 1.54269Z" fill="#6d6d91"/>
</svg>
