<svg width="24" height="24" viewBox="0 0 24 24" fill="none" xmlns="http://www.w3.org/2000/svg">
<path fill-rule="evenodd" clip-rule="evenodd" d="M7.79144 2.1505C5.632 2.88487 3.80094 3.55048 3.72254 3.62957C3.59502 3.75809 3.60885 4.20634 3.85233 7.8421C4.00518 10.1241 4.09045 11.974 4.0465 12.0548C4.00339 12.1341 3.43539 12.7278 2.7841 13.3742C2.1329 14.0206 1.6001 14.6049 1.6001 14.6725C1.6001 14.8267 4.84876 18.7434 5.0368 18.816C5.11266 18.8453 5.62814 18.6782 6.18222 18.4445C6.99473 18.102 7.21243 18.0431 7.3073 18.14C7.37196 18.2062 7.61544 18.9169 7.84829 19.7195C8.08104 20.522 8.32697 21.2331 8.39464 21.2999C8.52885 21.4321 11.6941 22.3986 12.0001 22.4008C12.325 22.4031 15.4714 21.4373 15.6173 21.2905C15.6937 21.2136 15.9509 20.479 16.1887 19.6581C16.5566 18.3886 16.6504 18.1613 16.817 18.1368C16.9248 18.121 17.3863 18.2595 17.8424 18.4446C18.2987 18.6298 18.769 18.7812 18.8876 18.7812C19.0528 18.7812 19.47 18.3385 20.6729 16.887C21.5363 15.8452 22.278 14.9929 22.3213 14.9929C22.3647 14.9929 22.4001 14.8931 22.4001 14.7712C22.4001 14.6127 22.0622 14.2141 21.2161 13.3742C20.5648 12.7278 19.9989 12.135 19.9583 12.0569C19.9178 11.9788 20.004 10.1675 20.1497 8.0318C20.4671 3.38351 20.4556 3.76831 20.2818 3.59339C20.1169 3.42746 12.1673 0.7796 11.8983 0.800909C11.799 0.80877 9.95087 1.41614 7.79144 2.1505ZM8.21883 11.3876C8.57497 11.5239 9.12076 12.0473 9.3233 12.4466C9.44556 12.6879 9.50598 12.9998 9.50598 13.3899C9.50598 15.388 7.11087 16.2833 5.85779 14.7535C4.9937 13.6986 5.33958 12.0247 6.53459 11.4785C6.94984 11.2887 7.83539 11.2409 8.21883 11.3876ZM17.4979 11.4845C18.2077 11.8489 18.6367 12.574 18.6333 13.4035C18.6307 14.0529 18.3832 14.587 17.887 15.0144C16.5293 16.1837 14.4984 15.2059 14.4984 13.3828C14.4984 12.5399 14.9139 11.8572 15.6707 11.4564C16.0822 11.2384 17.0476 11.2533 17.4979 11.4845ZM12.6789 16.6266C13.3106 17.6386 13.3252 17.6846 13.0897 17.9215C12.8281 18.1848 12.7669 18.1732 12.3829 17.7868C12.2017 17.6045 12.0323 17.4553 12.0064 17.4553C11.9805 17.4553 11.8096 17.606 11.6266 17.7901C11.3318 18.0868 11.2699 18.1121 11.0824 18.0127C10.8738 17.9021 10.7337 17.7502 10.7309 17.6314C10.7302 17.598 10.9829 17.1825 11.2925 16.7079C11.6533 16.155 11.9158 15.8452 12.0233 15.8452C12.1314 15.8452 12.3648 16.1235 12.6789 16.6266Z" fill="none"/>
</svg>
