<svg width="24" height="24" viewBox="0 0 24 24" fill="none" xmlns="http://www.w3.org/2000/svg">
<path fill-rule="evenodd" clip-rule="evenodd" d="M18.6808 6.49596C13.8893 9.1596 13.4814 9.40296 13.4935 9.58952C13.5249 10.0696 13.4691 10.2538 13.2069 10.5359L12.9316 10.8318L12.652 10.6286C12.1996 10.3001 11.842 10.1967 11.1802 10.2029C10.1801 10.2122 9.40412 10.6962 8.99235 11.5677C8.71892 12.1464 8.71909 13.0309 8.99268 13.5996C9.71881 15.1087 11.7439 15.4485 12.9691 14.2667C13.5616 13.695 13.8021 12.6968 13.5568 11.8264C13.457 11.4724 13.4917 11.4271 13.9639 11.295C14.1679 11.238 14.3378 11.2505 14.6128 11.3424C14.9602 11.4587 14.9984 11.457 15.18 11.3181C15.664 10.9481 23.9956 3.70952 23.9998 3.65548C24.0024 3.62211 23.9769 3.59699 23.9429 3.59983C23.909 3.60258 21.5411 4.90588 18.6808 6.49596ZM9.98821 4.96713C8.24138 5.25164 6.78105 5.9958 5.58082 7.21307C4.95234 7.85054 4.25843 8.81206 4.0964 9.27018C4.02578 9.46987 4.03532 9.54408 4.14745 9.66616C4.29378 9.82551 4.27972 9.84714 3.90798 10.0359C3.81361 10.0838 3.67911 10.3192 3.58384 10.603C3.35193 11.2938 3.33886 13.7467 3.56279 14.5312C3.74176 15.158 4.18559 16.2346 4.26188 16.2271C4.29156 16.2242 4.63642 15.8485 5.02814 15.3922L5.74039 14.5626L5.62126 14.0811C5.45948 13.4273 5.45964 11.8878 5.62143 11.1374C5.69246 10.808 5.76866 10.5207 5.79086 10.4989C5.85687 10.4338 7.27701 11.2686 7.25621 11.3602C7.03006 12.3557 7.07363 13.2281 7.39029 14.0451C7.48532 14.2902 7.56301 14.523 7.56301 14.5626C7.56309 14.6021 7.36554 14.6116 7.1241 14.5837L6.6852 14.5328L5.00726 16.0003C4.08448 16.8075 2.58025 18.1092 1.6647 18.8931C0.74916 19.677 0 20.3503 0 20.3894C0 20.4284 0.194258 20.352 0.431591 20.2197C0.668924 20.0872 1.97298 19.3597 3.3294 18.6031C4.68583 17.8464 6.2661 16.9761 6.84106 16.6691C7.77905 16.1683 7.88682 16.0884 7.88921 15.8919C7.89208 15.6587 8.04754 15.2603 8.13558 15.2603C8.16468 15.2603 8.31594 15.3902 8.47181 15.549C9.03929 16.1273 9.84262 16.4663 10.8371 16.547L11.4526 16.597L11.6865 17.4071C11.8153 17.8526 11.9031 18.2628 11.8818 18.3184C11.8258 18.4647 10.6586 18.4488 9.882 18.291C9.14599 18.1414 8.25519 17.7548 7.7275 17.3557C7.52404 17.2018 7.31013 17.0473 7.25226 17.0124C7.1195 16.9323 5.34472 17.6136 5.34398 17.7449C5.34324 17.8858 6.20543 18.6281 6.88159 19.0688C7.65787 19.5747 8.56914 19.9422 9.53524 20.1391C10.5732 20.3506 12.308 20.3065 13.2354 20.0451C15.5604 19.3896 17.5758 17.5825 18.4251 15.3918C18.6048 14.9282 18.6056 14.9128 18.4552 14.8044C18.3065 14.6973 18.3073 14.6932 18.4754 14.6932C18.5715 14.6932 18.6704 14.6294 18.6953 14.5514C18.9381 13.7908 18.9854 11.9401 18.786 11.0072C18.6521 10.3814 18.1799 9.10346 18.0824 9.10346C18.0485 9.10346 17.6971 9.46947 17.3018 9.91689L16.5829 10.7302L16.6766 11.2894C16.8012 12.0327 16.7904 13.1436 16.6519 13.8426C16.5523 14.3447 16.5541 14.426 16.6676 14.5514C16.8774 14.7835 16.7175 14.7179 15.8968 14.2353C15.2996 13.8841 15.1309 13.7472 15.173 13.648C15.265 13.4305 15.3196 11.9388 15.2355 11.9388C14.9937 11.9388 14.3111 12.9556 14.3059 13.3233C14.302 13.6075 13.7855 14.4514 13.3957 14.8107C13.169 15.0196 12.772 15.2883 12.5135 15.4077C12.0968 15.6002 11.9455 15.6247 11.1802 15.6242C10.37 15.6235 10.2868 15.6077 9.8238 15.3666C9.08631 14.9825 8.87783 14.7594 8.93456 14.4149C8.97582 14.1643 8.95823 14.1286 8.76989 14.0821C8.65381 14.0534 8.52376 14.0513 8.48077 14.0774C8.37834 14.1398 8.17586 13.6327 8.06308 13.0313C7.81925 11.7315 8.6294 10.2801 9.92918 9.68811C10.3439 9.49928 10.5188 9.47133 11.4149 9.45116C12.2821 9.43163 12.4776 9.40222 12.7524 9.25009C12.9293 9.15214 13.0615 9.035 13.0462 8.9898C12.9989 8.84981 12.1527 8.59997 11.5802 8.55696L11.0347 8.51597L10.7786 7.64016C10.6378 7.15847 10.5226 6.74386 10.5226 6.71874C10.5226 6.62898 11.6704 6.67532 12.2758 6.78938C13.0334 6.93229 13.5979 7.16098 14.3333 7.62299L14.8967 7.977L15.4842 7.75738C15.8073 7.6366 16.2301 7.47166 16.4237 7.39073L16.7759 7.24361L16.3355 6.85063C15.4179 6.03177 14.2973 5.44177 13.071 5.13198C12.3002 4.93732 10.6975 4.85161 9.98821 4.96713ZM10.3581 7.67297V8.59171L10.0088 8.69468C9.13465 8.95229 8.22913 9.62087 7.75578 10.3582L7.53736 10.6984L6.72811 10.4985C6.28312 10.3885 5.91894 10.2696 5.91894 10.2343C5.91894 10.199 5.993 9.99968 6.0836 9.79148C6.17419 9.5832 6.22747 9.3797 6.20206 9.3392C6.17666 9.29861 6.19187 9.26548 6.23585 9.26548C6.27983 9.26548 6.50565 9.03031 6.73773 8.74296C7.44405 7.86829 8.52311 7.17176 9.61827 6.88376C10.4033 6.67727 10.3581 6.62906 10.3581 7.67297ZM18.6611 7.35484C18.6611 7.38287 17.9564 7.9992 15.1501 10.4256C14.9677 10.5833 14.8159 10.646 14.6602 10.6281C14.4481 10.6037 14.4773 10.5659 15.1498 9.99458C15.5431 9.66041 15.829 9.37509 15.7851 9.36059C15.7412 9.34608 15.3678 9.52164 14.9553 9.75073C14.5428 9.97991 14.1848 10.147 14.1597 10.1223C13.9969 9.96193 14.4647 9.63691 16.4415 8.53695C18.7114 7.27391 18.6611 7.30064 18.6611 7.35484ZM11.7611 11.3746C11.8486 11.4208 11.9213 11.5392 11.9228 11.6379C11.9262 11.8584 12.1881 12.1819 12.3633 12.1819C12.5667 12.1819 12.6127 12.5544 12.4583 12.9527C12.295 13.3741 11.9576 13.6792 11.5081 13.812C10.8599 14.0033 10.0266 13.4524 9.90674 12.7532C9.83341 12.3255 10.1138 11.7345 10.5142 11.4731C10.8185 11.2745 11.473 11.2227 11.7611 11.3746ZM16.2116 14.7463L16.4339 14.793L16.1589 15.3304C15.343 16.9249 14.0408 17.939 12.3517 18.2952L12.0845 18.3516V17.4263V16.5011L12.4339 16.3982C13.3026 16.1422 14.1476 15.5195 14.6283 14.7813L14.8878 14.3829L15.4386 14.5412C15.7415 14.6282 16.0894 14.7205 16.2116 14.7463ZM7.31647 15.297C7.31647 15.535 7.01805 15.7792 6.13991 16.2601C5.58879 16.5618 5.17496 16.7745 5.22017 16.7327C6.13613 15.886 6.94028 15.2603 7.11243 15.2603C7.22464 15.2603 7.31647 15.2768 7.31647 15.297Z" fill="none"/>
</svg>
