<svg width="24" height="24" viewBox="0 0 24 24" fill="none" xmlns="http://www.w3.org/2000/svg">
<path fill-rule="evenodd" clip-rule="evenodd" d="M12.3356 0.828125C12.3661 0.828125 12.3792 0.861228 12.3661 0.910884C12.3531 0.960539 12.3095 0.993642 12.2572 0.993642C12.2093 0.993642 12.1701 0.985366 12.1701 0.972953C12.1701 0.960539 12.1962 0.923297 12.2224 0.890194C12.2529 0.857091 12.3051 0.832263 12.3313 0.828125H12.3356ZM11.8695 0.910884C11.8913 0.910884 11.9131 0.948125 11.9131 0.993642C11.9131 1.05985 11.8826 1.0764 11.7824 1.0764C11.7083 1.0764 11.6517 1.05985 11.6517 1.03502C11.6517 1.01019 11.6909 0.993642 11.7388 0.993642C11.7867 0.993642 11.8259 0.977091 11.8259 0.952263C11.8259 0.927435 11.8434 0.910884 11.8695 0.910884ZM12.0438 0.993642C12.0655 0.993642 12.0873 1.01019 12.0873 1.03502C12.0873 1.05985 12.144 1.0764 12.218 1.0764C12.2877 1.0764 12.3487 1.05985 12.3487 1.03502C12.3487 1.01019 12.3879 0.993642 12.4358 0.993642C12.4939 0.993642 12.523 1.02123 12.523 1.0764C12.523 1.15088 12.5535 1.15916 12.8715 1.15916C13.1895 1.15916 13.22 1.16744 13.22 1.24192C13.22 1.28744 13.1982 1.32468 13.1764 1.32468C13.1503 1.32468 13.1329 1.30399 13.1329 1.2833C13.1329 1.26261 13.0937 1.24192 13.0457 1.24192C12.9978 1.24192 12.9586 1.26261 12.9586 1.2833C12.9586 1.30399 12.9847 1.33295 13.0109 1.34123C13.0501 1.3495 13.0327 1.38261 12.9717 1.43226C12.9194 1.47778 12.8758 1.5233 12.8715 1.53985C12.8715 1.56054 12.9281 1.57295 13.0022 1.57295C13.0719 1.57295 13.1329 1.55226 13.1329 1.53157C13.1329 1.51088 13.1721 1.49019 13.22 1.49019C13.2679 1.49019 13.3333 1.52744 13.3594 1.57295C13.3943 1.62261 13.464 1.65571 13.5337 1.65571C13.6034 1.65571 13.6556 1.63502 13.6556 1.61433C13.6556 1.59364 13.6731 1.57295 13.6992 1.57295C13.721 1.57295 13.7341 1.60192 13.721 1.63502C13.7065 1.6764 13.721 1.69019 13.7646 1.6764C13.7994 1.66399 13.8299 1.6764 13.8299 1.69709C13.8299 1.71778 13.8691 1.73847 13.917 1.73847C13.9649 1.73847 14.0042 1.75916 14.0042 1.77985C14.0042 1.80054 14.1 1.82123 14.222 1.82123C14.3396 1.82123 14.4398 1.84192 14.4398 1.86261C14.4398 1.8833 14.4137 1.91226 14.3832 1.92054C14.3527 1.92881 14.3483 1.9495 14.3701 1.97019C14.3919 1.99088 14.4137 1.98675 14.4224 1.95364C14.4311 1.92881 14.479 1.90399 14.5269 1.90399C14.5748 1.90399 14.6141 1.92468 14.6141 1.94537C14.6141 1.96606 14.6446 1.98675 14.6794 1.98675C14.7143 1.98675 14.8057 2.04468 14.8754 2.11088C14.9451 2.17709 15.0366 2.23502 15.0715 2.23502C15.1194 2.23502 15.1368 2.28054 15.1368 2.40054C15.1368 2.52054 15.1543 2.56606 15.2022 2.56606C15.237 2.56606 15.3154 2.61157 15.3764 2.6695C15.4374 2.72744 15.4853 2.80192 15.4853 2.83502C15.4853 2.86813 15.5246 2.89709 15.5725 2.89709C15.6247 2.89709 15.6596 2.92606 15.6596 2.97157C15.664 3.00881 15.6988 3.07088 15.7424 3.10399C15.7816 3.13709 15.8295 3.19916 15.8469 3.2364C15.8644 3.27778 15.9079 3.31088 15.9428 3.31088C15.9776 3.31088 16.0081 3.33157 16.0081 3.35226C16.0081 3.37295 15.982 3.40192 15.9515 3.41433C15.9079 3.43088 15.9079 3.43916 15.9515 3.45571C15.982 3.46813 16.0081 3.51364 16.0081 3.55916C16.0081 3.60468 16.0255 3.64192 16.0517 3.64192C16.0735 3.64192 16.0952 3.66675 16.0952 3.69157C16.0952 3.72054 16.1257 3.78261 16.1649 3.82813C16.2216 3.89847 16.2347 3.90261 16.2651 3.84881C16.3 3.79502 16.3131 3.79502 16.3741 3.85709C16.4133 3.89847 16.4438 3.93985 16.4438 3.95226C16.4438 3.96468 16.4046 3.97295 16.3566 3.97295C16.3044 3.97295 16.2695 4.00192 16.2695 4.0433C16.2695 4.08468 16.3087 4.14675 16.3566 4.17985C16.4046 4.21295 16.4438 4.27502 16.4438 4.3164C16.4438 4.35364 16.4612 4.38675 16.4873 4.38675C16.5091 4.38675 16.5309 4.42399 16.5309 4.4695C16.5309 4.51502 16.5483 4.55226 16.5745 4.55226C16.5962 4.55226 16.618 4.5895 16.618 4.63502C16.618 4.68054 16.6354 4.71778 16.6616 4.71778C16.6834 4.71778 16.7051 4.77157 16.7051 4.84192C16.7051 4.91226 16.7226 4.96606 16.7487 4.96606C16.7705 4.96606 16.7923 5.04054 16.7923 5.13157C16.7923 5.22261 16.8097 5.29709 16.8358 5.29709C16.8576 5.29709 16.8794 5.37157 16.8794 5.46261C16.8794 5.55364 16.8968 5.62813 16.923 5.62813C16.9447 5.62813 16.9665 5.64468 16.9665 5.6695C16.9665 5.69433 16.9055 5.71088 16.8358 5.71088C16.7356 5.71088 16.7051 5.72744 16.7051 5.79364C16.7051 5.85985 16.7356 5.8764 16.8358 5.8764C16.936 5.8764 16.9665 5.89295 16.9665 5.95916C16.9665 6.00468 16.984 6.04192 17.0101 6.04192C17.0319 6.04192 17.0537 6.07916 17.0537 6.12468C17.0537 6.17019 17.0319 6.20744 17.0101 6.20744C16.984 6.20744 16.9665 6.17019 16.9665 6.12468C16.9665 6.07916 16.9447 6.04192 16.923 6.04192C16.8968 6.04192 16.8794 6.09571 16.8794 6.16606C16.8794 6.2364 16.8968 6.29019 16.923 6.29019C16.9447 6.29019 16.9665 6.34399 16.9665 6.41433C16.9665 6.48468 16.9447 6.53847 16.923 6.53847C16.8968 6.53847 16.8794 6.61295 16.8794 6.70399C16.8794 6.79916 16.9012 6.87778 16.9317 6.89019C16.9752 6.90675 16.9752 6.91502 16.9317 6.93157C16.9055 6.94399 16.8794 6.9895 16.8794 7.03502C16.8794 7.08054 16.8576 7.11778 16.8358 7.11778C16.8097 7.11778 16.7923 7.15502 16.7923 7.20054C16.7923 7.24606 16.7661 7.29157 16.7356 7.30399C16.6921 7.32054 16.6921 7.32882 16.7356 7.34537C16.7661 7.35778 16.7923 7.4033 16.7923 7.44882C16.7923 7.49433 16.7705 7.53157 16.7487 7.53157C16.7226 7.53157 16.7051 7.56881 16.7051 7.61433C16.7051 7.68054 16.6747 7.69709 16.5745 7.69709C16.4655 7.69709 16.4438 7.71364 16.4438 7.80054C16.4438 7.85847 16.422 7.90399 16.4002 7.90399C16.3741 7.90399 16.3566 7.97019 16.3566 8.04882C16.3566 8.12744 16.3348 8.19364 16.3131 8.19364C16.2869 8.19364 16.2695 8.23088 16.2695 8.2764C16.2695 8.32192 16.2477 8.35916 16.2259 8.35916C16.1998 8.35916 16.1824 8.41295 16.1824 8.4833C16.1824 8.55364 16.1606 8.60744 16.1388 8.60744C16.1127 8.60744 16.0952 8.59088 16.0952 8.56606C16.0952 8.54123 16.0735 8.52468 16.0517 8.52468C16.0255 8.52468 16.0081 8.56192 16.0081 8.60744C16.0081 8.65295 16.0255 8.69019 16.0517 8.69019C16.0735 8.69019 16.0952 8.71916 16.0952 8.75226C16.0952 8.78537 16.0691 8.8433 16.0343 8.8764C15.9994 8.9095 15.9384 8.93847 15.9036 8.93847C15.8644 8.93847 15.8339 8.96744 15.8339 9.00054C15.8339 9.03364 15.7729 9.1164 15.7032 9.18675C15.6335 9.25709 15.5725 9.33985 15.5725 9.37295C15.5725 9.41433 15.5289 9.43502 15.4505 9.43502C15.3808 9.43502 15.3067 9.46813 15.2675 9.51778C15.2327 9.5633 15.1673 9.60054 15.1238 9.60054C15.0846 9.60054 15.0497 9.59226 15.0497 9.57985C15.0497 9.56744 15.1107 9.50537 15.1804 9.43502C15.2501 9.36468 15.3111 9.28606 15.3111 9.25709C15.3111 9.23226 15.3503 9.17847 15.3982 9.14537C15.4461 9.11226 15.4853 9.05019 15.4853 9.01295C15.4853 8.97157 15.4636 8.93847 15.4418 8.93847C15.4156 8.93847 15.3982 8.97571 15.3982 9.02123C15.3982 9.06675 15.3764 9.10399 15.3547 9.10399C15.3285 9.10399 15.3111 9.08744 15.3111 9.06261C15.3111 9.03778 15.2849 9.02123 15.2545 9.02123C15.2283 9.02123 15.1499 9.06261 15.0846 9.1164C15.0192 9.16606 14.9669 9.24054 14.9626 9.28192C14.9626 9.31916 14.9408 9.35226 14.919 9.35226C14.8929 9.35226 14.8754 9.38123 14.8754 9.41433C14.8754 9.44744 14.8493 9.4764 14.8188 9.48054C14.7752 9.48054 14.7752 9.48468 14.8188 9.50123C14.8493 9.5095 14.8754 9.53433 14.8754 9.55916C14.8754 9.58399 14.8362 9.60054 14.7883 9.60054C14.7143 9.60054 14.7012 9.6295 14.7012 9.76606C14.7012 9.86123 14.723 9.93985 14.7535 9.94813C14.7927 9.9564 14.7752 9.98951 14.7143 10.0392C14.6576 10.0847 14.6184 10.1674 14.6141 10.2336C14.6141 10.2957 14.5879 10.3536 14.5574 10.3661C14.5139 10.3826 14.5139 10.3909 14.5574 10.4074C14.5966 10.4199 14.6141 10.515 14.6141 10.6764C14.6141 10.813 14.5966 10.9247 14.5705 10.9247C14.5444 10.9247 14.5269 10.813 14.5269 10.6764C14.5269 10.5398 14.5095 10.4281 14.4834 10.4281C14.4572 10.4281 14.4398 10.4778 14.4398 10.544C14.4398 10.6102 14.4049 10.6805 14.3527 10.7178C14.3047 10.7509 14.2655 10.813 14.2655 10.8543C14.2655 10.8916 14.2438 10.9247 14.222 10.9247C14.1958 10.9247 14.1784 11.1854 14.1784 11.6281C14.1784 12.0709 14.1958 12.3316 14.222 12.3316C14.2438 12.3316 14.2655 12.3771 14.2655 12.435C14.2655 12.493 14.2394 12.5674 14.2046 12.6005C14.1697 12.6336 14.1305 12.6626 14.1174 12.6626C14.1044 12.6626 14.0913 12.3481 14.0913 11.9592C14.0913 11.5164 14.0739 11.2557 14.0477 11.2557C14.0216 11.2557 14.0042 11.2847 14.0042 11.3178C14.0042 11.3509 13.978 11.4088 13.9432 11.4419C13.9083 11.475 13.8473 11.504 13.8125 11.504C13.7733 11.504 13.7428 11.5371 13.7428 11.5867C13.7428 11.6323 13.7602 11.6695 13.7863 11.6695C13.8081 11.6695 13.8299 11.715 13.8299 11.773C13.8299 11.8392 13.7646 11.9385 13.4814 12.2074V12.6005C13.4814 12.8364 13.464 12.9936 13.4378 12.9936C13.4117 12.9936 13.3943 12.6957 13.3943 12.1867C13.3943 11.6612 13.3768 11.3881 13.3507 11.4005C13.3246 11.413 13.3071 11.4585 13.3071 11.504C13.3071 11.5495 13.2853 11.5867 13.2636 11.5867C13.2374 11.5867 13.22 11.624 13.22 11.6695C13.22 11.7192 13.1895 11.7523 13.1416 11.7523C13.1024 11.7564 13.0327 11.7936 12.9891 11.835C12.9238 11.9095 12.9063 11.9095 12.8497 11.8557C12.8148 11.8226 12.7844 11.7192 12.7844 11.6281C12.7844 11.5371 12.7626 11.4626 12.7408 11.4626C12.7147 11.4626 12.6972 11.5661 12.6972 11.6902C12.6972 11.8143 12.6754 11.9178 12.6537 11.9178C12.6275 11.9178 12.6101 11.8557 12.6101 11.7812C12.6101 11.653 12.6057 11.6488 12.4794 11.6778C12.3792 11.7026 12.3487 11.6985 12.3487 11.6488C12.3487 11.6157 12.3269 11.5867 12.3051 11.5867C12.279 11.5867 12.2616 11.6033 12.2616 11.6281C12.2616 11.653 12.2224 11.6695 12.1745 11.6695C12.1265 11.6695 12.0873 11.6861 12.0873 11.7109C12.0873 11.7357 12.1047 11.7523 12.1309 11.7523C12.1527 11.7523 12.1745 11.8102 12.1745 11.8764C12.1745 11.9426 12.1527 12.0005 12.1309 12.0005C12.1047 12.0005 12.0743 11.9592 12.0568 11.9054C12.0394 11.8474 12.022 11.9261 12.0133 12.1123C12.0002 12.3812 11.9915 12.4143 11.9131 12.4143C11.839 12.4143 11.8259 12.3854 11.8259 12.2074C11.8259 12.0792 11.8477 11.9923 11.8782 11.9798C11.9218 11.9633 11.9218 11.955 11.8782 11.9385C11.8477 11.9261 11.8259 11.8474 11.8259 11.7523C11.8259 11.6612 11.8042 11.5867 11.7824 11.5867C11.7562 11.5867 11.7388 11.6447 11.7388 11.7109C11.7388 11.8061 11.7214 11.835 11.6517 11.835C11.5689 11.835 11.5646 11.864 11.5602 12.5095C11.5558 12.8778 11.5558 13.1923 11.5602 13.2088C11.5602 13.2295 11.5428 13.2419 11.521 13.2419C11.4948 13.2419 11.4774 13.0474 11.4774 12.7454C11.4774 12.4433 11.46 12.2488 11.4339 12.2488C11.4077 12.2488 11.3903 12.4557 11.3903 12.7867C11.3903 13.1881 11.3772 13.3247 11.3337 13.3247C11.2945 13.3247 11.2945 13.333 11.338 13.3743C11.3685 13.4033 11.3903 13.4405 11.3903 13.4612C11.3903 13.4778 11.3511 13.4902 11.3032 13.4902C11.2291 13.4902 11.216 13.4612 11.216 13.3247C11.216 13.2336 11.2422 13.1095 11.2683 13.0474C11.3119 12.9605 11.3119 12.9357 11.2683 12.9233C11.2291 12.915 11.216 12.7702 11.216 12.373C11.216 11.864 11.2117 11.835 11.1289 11.835C11.0548 11.835 11.0418 11.8061 11.0418 11.6281C11.0418 11.5164 11.02 11.4212 10.9982 11.4212C10.9721 11.4212 10.9547 11.5164 10.9547 11.6281C10.9547 11.744 10.9329 11.835 10.9111 11.835C10.8849 11.835 10.8588 11.6736 10.8457 11.475C10.8327 11.2723 10.8109 10.9247 10.7978 10.6971C10.7804 10.424 10.7499 10.2667 10.7107 10.2336C10.6758 10.2047 10.641 10.1798 10.6279 10.1798C10.6148 10.1798 10.6061 10.3495 10.6061 10.5523C10.6061 10.7716 10.5887 10.9247 10.5626 10.9247C10.5364 10.9247 10.519 10.813 10.519 10.6764C10.519 10.4571 10.5103 10.4281 10.4319 10.4281C10.3796 10.4281 10.3447 10.3992 10.3447 10.3578C10.3447 10.3164 10.3055 10.2543 10.2576 10.2212C10.2097 10.1881 10.1705 10.1302 10.1705 10.0971C10.1705 10.064 10.1182 10.0061 10.0529 9.97295C9.98317 9.93985 9.88732 9.8695 9.83069 9.81985C9.77841 9.76606 9.74356 9.70813 9.75663 9.6833C9.7697 9.65847 9.74356 9.65433 9.69129 9.67502C9.63029 9.69571 9.58673 9.67916 9.5301 9.61295C9.48653 9.5633 9.42554 9.52192 9.39505 9.51778C9.36891 9.51778 9.18594 9.36882 8.99425 9.18675C8.80257 9.00468 8.63267 8.86399 8.61089 8.8764C8.59346 8.88882 8.62396 8.93019 8.67623 8.96744C8.73287 9.01295 8.77208 9.08744 8.77643 9.15364C8.77643 9.21985 8.76772 9.2695 8.75465 9.2695C8.74158 9.2695 8.70237 9.24054 8.66752 9.20744C8.63267 9.17433 8.60218 9.1164 8.60218 9.0833C8.60218 9.05019 8.58039 9.02123 8.55861 9.02123C8.53247 9.02123 8.51505 8.98399 8.51505 8.93847C8.51505 8.89295 8.49326 8.85571 8.47148 8.85571C8.44534 8.85571 8.42792 8.96744 8.42792 9.10399C8.42792 9.24054 8.41049 9.35226 8.38435 9.35226C8.35822 9.35226 8.34079 9.21985 8.34079 9.0295C8.34079 8.7564 8.32772 8.70261 8.25366 8.64881C8.20574 8.61571 8.16653 8.55364 8.16653 8.51226C8.16653 8.47502 8.13604 8.44192 8.10119 8.44192C8.06633 8.44192 7.98792 8.3964 7.92693 8.33847C7.86594 8.28054 7.81802 8.1895 7.81802 8.13157C7.81802 8.07364 7.79623 8.02813 7.77445 8.02813C7.74831 8.02813 7.73089 7.97433 7.73089 7.90399C7.73089 7.83364 7.70911 7.77985 7.68732 7.77985C7.66119 7.77985 7.64376 7.74261 7.64376 7.69709C7.64376 7.65157 7.62198 7.61433 7.6002 7.61433C7.57406 7.61433 7.55663 7.57709 7.55663 7.53157C7.55663 7.48606 7.53049 7.44054 7.5 7.43226C7.47386 7.42399 7.46079 7.4033 7.47822 7.38261C7.5 7.36192 7.54792 7.38675 7.58713 7.4364C7.63069 7.48606 7.70039 7.52744 7.7396 7.53157C7.78752 7.53157 7.81802 7.50261 7.81802 7.44882C7.81802 7.4033 7.79188 7.36606 7.76138 7.36606C7.73524 7.36606 7.75267 7.33295 7.80495 7.29157C7.87901 7.24192 7.89208 7.20468 7.86158 7.15916C7.8398 7.12606 7.81802 7.04744 7.81802 6.98123C7.81802 6.91916 7.79623 6.8695 7.77445 6.8695C7.74831 6.8695 7.73089 6.83226 7.73089 6.78675C7.73089 6.74123 7.74831 6.70399 7.77445 6.70399C7.79623 6.70399 7.81802 6.66675 7.81802 6.62123C7.81802 6.57571 7.79623 6.53847 7.77445 6.53847C7.74831 6.53847 7.73089 6.42675 7.73089 6.29019C7.73089 6.15364 7.71346 6.04192 7.68732 6.04192C7.66119 6.04192 7.64376 5.94675 7.64376 5.83502C7.64376 5.71916 7.66119 5.62813 7.68732 5.62813C7.71346 5.62813 7.73089 5.50399 7.73089 5.33847C7.73089 5.17295 7.74831 5.04881 7.77445 5.04881C7.79623 5.04881 7.81802 5.01157 7.81802 4.96606C7.81802 4.92054 7.79623 4.8833 7.77445 4.8833C7.74831 4.8833 7.73089 4.90399 7.73089 4.92468C7.73089 4.94537 7.70911 4.96606 7.68732 4.96606C7.66119 4.96606 7.64376 4.92881 7.64376 4.8833C7.64376 4.83778 7.66119 4.80054 7.68732 4.80054C7.70911 4.80054 7.73089 4.74675 7.73089 4.6764C7.73089 4.60606 7.74831 4.55226 7.77445 4.55226C7.79623 4.55226 7.81802 4.50261 7.81802 4.4364C7.81802 4.37019 7.85287 4.29985 7.90515 4.26261C7.95307 4.2295 7.99227 4.16744 7.99227 4.12606C7.99227 4.08881 7.97049 4.05571 7.94871 4.05571C7.92257 4.05571 7.90515 4.01847 7.90515 3.97295C7.90515 3.92744 7.93128 3.88192 7.95742 3.8695C8.00099 3.85295 8.00099 3.84468 7.95742 3.82813C7.93128 3.81571 7.90515 3.77019 7.90515 3.72468C7.90515 3.67916 7.92257 3.64192 7.94871 3.64192C7.97049 3.64192 7.99227 3.66261 7.99227 3.6833C7.99227 3.70399 8.03148 3.72468 8.0794 3.72468C8.12732 3.72468 8.16653 3.70399 8.16653 3.6833C8.16653 3.66261 8.14475 3.64192 8.12297 3.64192C8.09683 3.64192 8.0794 3.62123 8.0794 3.60054C8.0794 3.57985 8.12297 3.54675 8.17524 3.53433C8.23188 3.52192 8.2493 3.50537 8.21881 3.49295C8.19267 3.48468 8.16653 3.43916 8.16653 3.39364C8.16653 3.34812 8.18396 3.31088 8.2101 3.31088C8.23188 3.31088 8.25802 3.33571 8.26673 3.36054C8.2798 3.39778 8.30158 3.39364 8.35386 3.33985C8.39307 3.30261 8.42792 3.24881 8.42792 3.22813C8.42792 3.20744 8.44534 3.18675 8.47148 3.18675C8.49326 3.18675 8.51505 3.14123 8.51505 3.0833C8.51505 3.02537 8.53247 2.97985 8.55861 2.97985C8.58039 2.97985 8.60218 3.00054 8.60218 3.02123C8.60218 3.04192 8.6196 3.06261 8.64574 3.06261C8.66752 3.06261 8.6893 3.02537 8.6893 2.97985C8.6893 2.93433 8.71544 2.88881 8.74158 2.8764C8.78515 2.85985 8.78515 2.85157 8.74158 2.83502C8.71544 2.82261 8.6893 2.79364 8.6893 2.77295C8.6893 2.75226 8.7198 2.73157 8.75465 2.73157C8.7895 2.73157 8.82 2.71088 8.82 2.69019C8.82 2.6695 8.85485 2.64881 8.90277 2.64881C8.94633 2.64881 9.12059 2.52054 9.28614 2.35916C9.45604 2.19778 9.61723 2.0695 9.64336 2.0695C9.67386 2.0695 9.74356 2.02399 9.8002 1.96606C9.86119 1.90813 9.90911 1.83364 9.90911 1.80054C9.90911 1.75916 9.95267 1.73847 10.0398 1.73847C10.1095 1.73847 10.1705 1.71778 10.1705 1.69709C10.1705 1.6764 10.201 1.65571 10.2402 1.65571C10.275 1.65571 10.336 1.62675 10.3709 1.59364C10.4057 1.56054 10.4319 1.50261 10.4319 1.4695C10.4319 1.4364 10.4711 1.40744 10.519 1.40744C10.5669 1.40744 10.6061 1.42812 10.6061 1.44881C10.6061 1.4695 10.6366 1.49019 10.6758 1.49019C10.7107 1.49019 10.7717 1.46123 10.8065 1.42813C10.8414 1.39502 10.8675 1.33709 10.8675 1.30399C10.8675 1.27088 10.8806 1.24192 10.898 1.24192C10.9198 1.24606 10.9677 1.28744 11.0113 1.33709C11.0548 1.38675 11.0853 1.4033 11.0853 1.37433C11.0853 1.34123 11.155 1.32468 11.2814 1.32468C11.3903 1.32468 11.4774 1.30399 11.4774 1.2833C11.4774 1.26261 11.5341 1.24192 11.6081 1.24192C11.6778 1.24192 11.7388 1.22537 11.7388 1.20054C11.7388 1.17571 11.8172 1.15916 11.9131 1.15916C12.0089 1.15916 12.0873 1.14261 12.0873 1.11778C12.0873 1.09295 12.0655 1.0764 12.0438 1.0764C12.0176 1.0764 12.0002 1.05985 12.0002 1.03502C12.0002 1.01019 12.0176 0.993642 12.0438 0.993642ZM8.29722 8.35916C8.31901 8.35916 8.34079 8.38813 8.34079 8.42123C8.34079 8.45433 8.37129 8.51226 8.40614 8.54537C8.44099 8.57847 8.4802 8.60744 8.49326 8.60744C8.50633 8.60744 8.51505 8.56192 8.51505 8.50399C8.51505 8.44606 8.48891 8.37571 8.45841 8.34675C8.43227 8.31364 8.36693 8.28882 8.32336 8.28882C8.27544 8.28882 8.24059 8.30537 8.24495 8.32606C8.2493 8.34261 8.27109 8.35916 8.29722 8.35916ZM15.7467 8.60744C15.7467 8.63226 15.6857 8.70261 15.616 8.77295C15.5463 8.8433 15.4853 8.90537 15.4853 8.91778C15.4853 8.93019 15.5158 8.93847 15.555 8.93847C15.5899 8.93847 15.6509 8.9095 15.6857 8.8764C15.7206 8.8433 15.7467 8.7895 15.7467 8.76054C15.7467 8.73571 15.7859 8.68192 15.8339 8.64881C15.8818 8.61571 15.921 8.55364 15.921 8.51226C15.921 8.47502 15.9079 8.44192 15.8861 8.44192C15.8687 8.44606 15.8295 8.47088 15.799 8.50399C15.7729 8.53709 15.7467 8.58261 15.7467 8.60744ZM9.69564 8.78123C9.72178 8.7895 9.74356 8.90123 9.74792 9.03364C9.75227 9.16192 9.7697 9.2695 9.78713 9.2695C9.80891 9.2695 9.82198 9.16606 9.82198 9.04192C9.82198 8.89295 9.8002 8.79364 9.75663 8.75226C9.72178 8.71916 9.68257 8.69019 9.6695 8.69019C9.65643 8.69019 9.64772 8.70675 9.64772 8.73157C9.64772 8.7564 9.6695 8.77709 9.69564 8.78123ZM8.89406 8.85571C8.95069 8.90123 9.00297 8.93847 9.01604 8.93847C9.02911 8.93847 9.03782 8.90123 9.03782 8.85571C9.03782 8.79364 9.00732 8.77295 8.91584 8.77295H8.79822L8.89406 8.85571ZM9.49089 9.41433C9.5998 9.51778 9.71307 9.60054 9.74356 9.60054C9.77406 9.60054 9.82633 9.63778 9.86119 9.6833C9.90039 9.73295 9.97881 9.76606 10.0485 9.76606C10.1139 9.76606 10.1661 9.75778 10.1661 9.74537C10.1661 9.73295 10.1182 9.67916 10.0572 9.62123C9.98317 9.55088 9.90039 9.51778 9.79584 9.51778C9.65643 9.51778 9.64336 9.50537 9.64336 9.39364C9.64336 9.30261 9.62594 9.2695 9.5693 9.2695C9.52574 9.2695 9.46475 9.23226 9.42554 9.18675C9.39069 9.14123 9.34713 9.10399 9.3297 9.10399C9.31227 9.10399 9.29485 9.13295 9.29485 9.16606C9.29485 9.19916 9.38633 9.31088 9.49089 9.41433ZM10.2533 9.4764C10.3055 9.5095 10.3447 9.57157 10.3447 9.60881C10.3447 9.65019 10.3622 9.6833 10.384 9.6833C10.4101 9.6833 10.4275 9.65433 10.4275 9.62123C10.4275 9.58813 10.3796 9.51364 10.3186 9.45571C10.262 9.39778 10.201 9.35226 10.1879 9.35226C10.1792 9.35226 10.1661 9.36468 10.1661 9.38123C10.1661 9.39778 10.2053 9.4433 10.2533 9.4764ZM14.3048 9.93157C14.283 9.93157 14.2612 9.91088 14.2612 9.89019C14.2612 9.86537 14.2438 9.84882 14.2176 9.84882C14.1958 9.84882 14.1828 9.9233 14.1871 10.0143C14.1915 10.1054 14.2133 10.1798 14.2307 10.1798C14.2481 10.1798 14.2612 10.2543 14.2612 10.3454C14.2612 10.4364 14.2743 10.5109 14.2873 10.5109C14.3004 10.5109 14.3396 10.4819 14.3745 10.4488C14.4093 10.4157 14.4354 10.3578 14.4354 10.3247C14.4354 10.2916 14.4572 10.2626 14.479 10.2626C14.5051 10.2626 14.5226 10.2254 14.5226 10.1798C14.5226 10.1343 14.5051 10.0971 14.479 10.0971C14.4572 10.0971 14.4354 10.0019 14.4354 9.89019C14.4354 9.77433 14.418 9.6833 14.3919 9.6833C14.3701 9.6833 14.3483 9.73709 14.3483 9.80744C14.3483 9.87364 14.3309 9.93157 14.3048 9.93157ZM16.483 8.02813C16.5091 8.02813 16.5265 8.08192 16.5265 8.15226C16.5265 8.21847 16.5091 8.2764 16.483 8.2764C16.4612 8.2764 16.4394 8.30537 16.4394 8.33847C16.4394 8.37157 16.4133 8.4295 16.3784 8.46261C16.3436 8.49571 16.3044 8.52468 16.2913 8.52468C16.2782 8.52468 16.2651 8.48744 16.2651 8.44192C16.2651 8.3964 16.2869 8.35916 16.3087 8.35916C16.3348 8.35916 16.3523 8.32192 16.3523 8.2764C16.3523 8.23088 16.3741 8.19364 16.3958 8.19364C16.422 8.19364 16.4394 8.1564 16.4394 8.11088C16.4394 8.06537 16.4612 8.02813 16.483 8.02813ZM15.1325 9.18675C15.1906 9.18675 15.2196 9.21433 15.2196 9.2695C15.2196 9.32468 15.1906 9.35226 15.1325 9.35226C15.0744 9.35226 15.0453 9.32468 15.0453 9.2695C15.0453 9.21433 15.0744 9.18675 15.1325 9.18675ZM9.25128 9.6833C9.27742 9.6833 9.29485 9.69985 9.29485 9.72468C9.29485 9.74537 9.32534 9.76606 9.3602 9.76606C9.3994 9.76606 9.45604 9.79502 9.49089 9.82813C9.5301 9.86123 9.55623 9.91916 9.55623 9.95226C9.55623 9.98537 9.57802 10.0143 9.5998 10.0143C9.62594 10.0143 9.64336 10.0309 9.64336 10.0557C9.64336 10.0764 9.60851 10.093 9.56059 10.0847C9.51703 10.0805 9.48653 10.0598 9.49525 10.0433C9.50831 10.0267 9.49524 10.0143 9.46911 10.0143C9.44732 10.0143 9.3994 9.98537 9.3602 9.95226C9.32534 9.91916 9.29485 9.86123 9.29485 9.82813C9.29485 9.79502 9.27742 9.76606 9.25128 9.76606C9.2295 9.76606 9.20772 9.74537 9.20772 9.72468C9.20772 9.69985 9.2295 9.6833 9.25128 9.6833ZM5.17802 9.76606C5.21723 9.76606 5.31307 9.83226 5.39584 9.91088C5.48297 9.9895 5.5396 10.0681 5.52218 10.0847C5.50911 10.1012 5.48732 10.093 5.47861 10.064C5.4699 10.035 5.43505 10.0143 5.39584 10.0143C5.36099 10.0143 5.28257 9.96881 5.22158 9.91088C5.16495 9.85295 5.11267 9.79916 5.11267 9.78675C5.11267 9.77433 5.14317 9.76606 5.17802 9.76606ZM18.8877 9.84882C18.9487 9.84882 18.9661 9.87778 18.9661 9.96054C18.9661 10.0267 18.9226 10.1054 18.8703 10.1467C18.8137 10.1881 18.7875 10.2336 18.8093 10.2502C18.8311 10.2667 18.8572 10.2585 18.8659 10.2295C18.8747 10.2005 18.9313 10.1798 18.9923 10.1798C19.0489 10.1798 19.1273 10.1881 19.1665 10.2005C19.2014 10.213 19.2319 10.2502 19.2319 10.2833C19.2319 10.3164 19.2101 10.3454 19.1883 10.3454C19.1622 10.3454 19.1447 10.3826 19.1447 10.4281C19.1447 10.4943 19.1709 10.5109 19.319 10.5109C19.4105 10.5109 19.4933 10.4902 19.4933 10.4695C19.4933 10.4447 19.5368 10.4364 19.5891 10.4488C19.6414 10.4571 19.6632 10.4571 19.6327 10.4488C19.6022 10.4364 19.5804 10.4074 19.5804 10.3867C19.5804 10.3619 19.6152 10.3454 19.6675 10.3454C19.7154 10.3454 19.7547 10.3247 19.7547 10.304C19.7547 10.2792 19.7721 10.2626 19.7982 10.2626C19.82 10.2626 19.8418 10.3164 19.8418 10.3867C19.8418 10.453 19.82 10.5109 19.7982 10.5109C19.7721 10.5109 19.7503 10.544 19.7503 10.5812C19.7503 10.6226 19.7067 10.6888 19.6545 10.7261C19.5978 10.7674 19.5717 10.813 19.5891 10.8295C19.6065 10.8461 19.6545 10.8212 19.698 10.7716C19.7416 10.7219 19.8069 10.6764 19.8505 10.6764C19.8941 10.6764 19.9289 10.6557 19.9289 10.635C19.9289 10.6102 19.9463 10.5936 19.9725 10.5936C19.9943 10.5936 20.016 10.6226 20.016 10.6557C20.016 10.6888 19.9855 10.7467 19.9507 10.7799C19.9158 10.813 19.8679 10.8419 19.8418 10.8419C19.8156 10.8419 19.8069 10.8585 19.82 10.8833C19.8287 10.904 19.8984 10.9247 19.9725 10.9247C20.0422 10.9247 20.1032 10.9412 20.1032 10.9661C20.1032 10.9867 20.0727 11.0074 20.0378 11.0074C19.9986 11.0074 19.9681 11.0198 19.9681 11.0364C19.9681 11.053 20.003 11.1109 20.0465 11.1605C20.0901 11.2143 20.1729 11.2516 20.2426 11.2516C20.3341 11.2557 20.3646 11.2764 20.3646 11.3385C20.3646 11.3936 20.3355 11.4212 20.2774 11.4212C20.2193 11.4212 20.1903 11.4488 20.1903 11.504C20.1903 11.5661 20.2164 11.5867 20.321 11.5867C20.3907 11.5867 20.4517 11.595 20.4517 11.6074C20.4517 11.6198 20.3907 11.6819 20.321 11.7523C20.2469 11.8185 20.1903 11.9054 20.1903 11.9385C20.1903 11.9716 20.1642 12.0088 20.1337 12.0171C20.1032 12.0295 20.1249 12.0461 20.1772 12.0585C20.2295 12.0709 20.2774 12.0998 20.2774 12.1247C20.2774 12.1454 20.3253 12.1661 20.3863 12.1661C20.443 12.1661 20.5214 12.195 20.5606 12.2281C20.5954 12.2612 20.6259 12.3067 20.6259 12.3316C20.6259 12.3523 20.5345 12.4557 20.4299 12.5592C20.321 12.6626 20.2034 12.7454 20.1685 12.7454C20.1293 12.7454 20.1032 12.7619 20.1032 12.7867C20.1032 12.8074 20.1293 12.8281 20.1685 12.8281C20.2034 12.8281 20.2905 12.7702 20.3646 12.704C20.4343 12.6336 20.5214 12.5798 20.5606 12.5798C20.5954 12.5798 20.6259 12.5881 20.6259 12.6005C20.6259 12.613 20.5562 12.6874 20.4735 12.7661C20.3907 12.8447 20.2949 12.9109 20.2644 12.9109C20.2339 12.9109 20.1816 12.9481 20.1467 12.9936C20.1075 13.0392 20.0552 13.0764 20.0248 13.0764C19.9943 13.0764 19.9115 13.1302 19.8418 13.2005C19.7677 13.2667 19.6806 13.3247 19.6457 13.3247C19.6065 13.3247 19.5804 13.3412 19.5804 13.3661C19.5804 13.3867 19.5499 13.4074 19.515 13.4074C19.4758 13.4074 19.3887 13.4612 19.319 13.5316C19.2449 13.5978 19.1622 13.6557 19.1317 13.6557C19.1012 13.6557 19.0489 13.693 19.0141 13.7385C18.9748 13.784 18.9226 13.8212 18.8921 13.8212C18.8616 13.8212 18.7788 13.875 18.7091 13.9454C18.635 14.0116 18.5566 14.0695 18.5348 14.0695C18.5087 14.0695 18.4303 14.1233 18.3606 14.1936C18.2865 14.2598 18.2038 14.3178 18.1733 14.3178C18.1428 14.3178 18.0905 14.355 18.0556 14.4005C18.0164 14.4461 17.9642 14.4833 17.9337 14.4833C17.9032 14.4833 17.8204 14.5371 17.7507 14.6074C17.6766 14.6736 17.5982 14.7316 17.5764 14.7316C17.5503 14.7316 17.4501 14.8061 17.3586 14.8971C17.2628 14.9881 17.1582 15.0626 17.1277 15.0626C17.0972 15.0626 17.0449 15.0998 17.0101 15.1454C16.9709 15.1909 16.9143 15.2281 16.8794 15.2281C16.8402 15.2281 16.7836 15.2654 16.7487 15.3109C16.7095 15.3564 16.6529 15.3936 16.618 15.3936C16.5788 15.3936 16.5222 15.4309 16.4873 15.4764C16.4481 15.5219 16.3958 15.5592 16.3653 15.5592C16.3349 15.5592 16.2521 15.613 16.1824 15.6833C16.1083 15.7495 16.0299 15.8074 16.0081 15.8074C15.982 15.8074 15.8644 15.8985 15.7467 16.0143C15.6247 16.1261 15.5028 16.2212 15.4723 16.2212C15.4418 16.2212 15.3895 16.2585 15.3547 16.304C15.3154 16.3495 15.2632 16.3867 15.2283 16.3867C15.1978 16.3867 15.1455 16.4157 15.1107 16.4488C15.0541 16.5026 15.0541 16.5192 15.115 16.573C15.1499 16.6061 15.1978 16.635 15.224 16.635C15.2457 16.635 15.3242 16.6888 15.3982 16.7592C15.4679 16.8254 15.5507 16.8833 15.5812 16.8833C15.6117 16.8833 15.664 16.9205 15.7032 16.9661C15.738 17.0116 15.7903 17.0488 15.8208 17.0488C15.8513 17.0488 15.9341 17.1026 16.0081 17.173C16.0778 17.2392 16.1562 17.2971 16.1824 17.2971C16.2042 17.2971 16.2826 17.3509 16.3566 17.4212C16.4263 17.4874 16.5048 17.5454 16.5309 17.5454C16.5527 17.5454 16.6311 17.5992 16.7051 17.6695C16.7748 17.7357 16.8576 17.7936 16.8881 17.7936C16.9186 17.7936 16.9709 17.8309 17.0101 17.8764C17.0449 17.9219 17.0972 17.9592 17.1277 17.9592C17.1582 17.9592 17.241 18.013 17.315 18.0833C17.3847 18.1495 17.4632 18.2074 17.4893 18.2074C17.5111 18.2074 17.5895 18.2612 17.6636 18.3316C17.7333 18.3978 17.8117 18.4557 17.8378 18.4557C17.8596 18.4557 17.938 18.5095 18.0121 18.5799C18.0818 18.6461 18.1646 18.704 18.195 18.704C18.2255 18.704 18.2778 18.7412 18.317 18.7867C18.3519 18.8323 18.4085 18.8695 18.4477 18.8695C18.4826 18.8695 18.5392 18.9067 18.5784 18.9523C18.6133 18.9978 18.6699 19.035 18.7091 19.035C18.744 19.035 18.8006 19.0723 18.8398 19.1178C18.8747 19.1633 18.9313 19.2005 18.9705 19.2005C19.0053 19.2005 19.062 19.2378 19.1012 19.2833C19.136 19.3288 19.1883 19.3661 19.2188 19.3661C19.2493 19.3661 19.3626 19.4488 19.4715 19.5523C19.576 19.6557 19.6675 19.7674 19.6675 19.8005C19.6675 19.8336 19.7024 19.8709 19.7547 19.8833C19.8026 19.8957 19.9071 19.9702 19.9943 20.0488C20.077 20.1274 20.1642 20.1936 20.1903 20.1936C20.2121 20.1936 20.2818 20.2392 20.3428 20.2971C20.3994 20.355 20.4517 20.4088 20.4517 20.4212C20.4517 20.4336 20.3907 20.4419 20.321 20.4419C20.2469 20.4419 20.1903 20.4585 20.1903 20.4833C20.1903 20.504 20.1554 20.5247 20.1206 20.5247C20.0814 20.5247 20.0247 20.5536 19.9899 20.5867C19.955 20.6199 19.9289 20.6654 19.9289 20.6902C19.9289 20.7109 19.9768 20.7771 20.0378 20.835C20.0945 20.893 20.1729 20.9385 20.2121 20.9385C20.2469 20.9385 20.2774 20.955 20.2774 20.9798C20.2774 21.0005 20.3123 21.0212 20.3646 21.0212C20.4125 21.0212 20.4386 21.0378 20.4299 21.0626C20.4168 21.0833 20.4343 21.104 20.4735 21.104C20.5083 21.104 20.5388 21.1412 20.5388 21.1867C20.5388 21.2323 20.517 21.2695 20.4952 21.2695C20.4691 21.2695 20.4517 21.2488 20.4517 21.2281C20.4517 21.2033 20.3689 21.1867 20.2774 21.1867C20.1729 21.1867 20.0945 21.1661 20.0857 21.133C20.077 21.104 20.0552 21.0957 20.0422 21.1123C20.0248 21.1288 20.0422 21.1743 20.0814 21.2074C20.1162 21.2405 20.1685 21.2695 20.199 21.2695C20.2295 21.2695 20.2905 21.315 20.3341 21.3647C20.3907 21.4226 20.4212 21.4392 20.4343 21.4019C20.443 21.373 20.4865 21.3523 20.5388 21.3523C20.5867 21.3523 20.6259 21.3688 20.6259 21.3936C20.6259 21.4143 20.6608 21.435 20.7131 21.435C20.761 21.435 20.8002 21.4516 20.8002 21.4764C20.8002 21.4971 20.761 21.5178 20.7131 21.5178C20.6608 21.5178 20.6259 21.4971 20.6259 21.4764C20.6259 21.4516 20.5867 21.435 20.5388 21.435C20.4865 21.435 20.4517 21.4516 20.4517 21.4764C20.4517 21.4971 20.4735 21.5219 20.504 21.5302C20.5345 21.5426 20.5432 21.5633 20.5214 21.584C20.4952 21.6047 20.4735 21.6005 20.4648 21.5674C20.456 21.5385 20.4125 21.5178 20.3646 21.5178C20.3123 21.5178 20.2687 21.493 20.26 21.464C20.2513 21.4267 20.2251 21.435 20.1729 21.4847C20.1337 21.5261 20.1162 21.5674 20.1337 21.5799C20.1511 21.5923 20.1119 21.6005 20.0465 21.6005C19.9812 21.6005 19.9202 21.5757 19.9115 21.5467C19.9028 21.5178 19.881 21.5054 19.8679 21.5178C19.8505 21.5302 19.9158 21.6171 20.0117 21.7123C20.1075 21.8116 20.1685 21.8985 20.1467 21.9109C20.1206 21.9233 20.1032 21.9109 20.1032 21.8902C20.1032 21.8654 20.064 21.8488 20.016 21.8488C19.9638 21.8488 19.9289 21.8281 19.9289 21.8074C19.9289 21.7826 19.8897 21.7661 19.8418 21.7661C19.7895 21.7661 19.7459 21.7412 19.7372 21.7123C19.7285 21.6833 19.7024 21.675 19.6806 21.6916C19.6588 21.7081 19.7024 21.7743 19.7764 21.8364C19.8461 21.8985 19.9115 21.9854 19.9158 22.0226C19.9202 22.064 19.9115 22.0971 19.8941 22.0971C19.8766 22.0971 19.8331 22.0598 19.7982 22.0143C19.759 21.9688 19.698 21.9316 19.6545 21.9316C19.6109 21.9316 19.5804 21.9398 19.5804 21.9523C19.5804 21.9647 19.6283 22.0185 19.6893 22.0764C19.7459 22.1343 19.8156 22.1799 19.8418 22.1799C19.8636 22.1799 19.8723 22.1964 19.8636 22.2212C19.8505 22.2419 19.8636 22.2667 19.8897 22.2709C19.9246 22.2792 19.9289 22.3164 19.9115 22.3661C19.8853 22.4447 19.881 22.4447 19.8069 22.3578C19.7634 22.3081 19.7154 22.2626 19.698 22.2626C19.6806 22.2626 19.6675 22.2999 19.6675 22.3454C19.6675 22.3909 19.6849 22.4281 19.7111 22.4281C19.7329 22.4281 19.7547 22.4654 19.7547 22.5109C19.7547 22.5564 19.7329 22.6019 19.7111 22.6143C19.6849 22.6267 19.637 22.6061 19.6022 22.573C19.563 22.5398 19.5194 22.5192 19.502 22.5316C19.4846 22.544 19.4933 22.5688 19.5238 22.5854C19.5586 22.6019 19.576 22.6723 19.5673 22.7592C19.5586 22.8792 19.5368 22.904 19.4497 22.9164C19.3887 22.9247 19.3234 22.904 19.3016 22.875C19.2754 22.8336 19.2624 22.8336 19.2493 22.8709C19.2362 22.8999 19.1752 22.9247 19.1099 22.9247C19.0446 22.9247 18.9618 22.9412 18.9269 22.9661C18.8703 22.9992 18.8703 23.0074 18.9356 23.0074C18.985 23.0074 19.0068 23.035 19.001 23.0902C18.9966 23.1357 18.9661 23.173 18.9356 23.173C18.9051 23.173 18.8834 23.1523 18.8834 23.1316C18.8834 23.1067 18.8442 23.0902 18.7962 23.0902C18.744 23.0902 18.7091 23.0695 18.7091 23.0488C18.7091 23.024 18.6743 23.0074 18.6307 23.0033C18.5871 23.0033 18.5174 22.9619 18.4782 22.9123C18.4347 22.8626 18.3998 22.8378 18.3998 22.8626C18.3998 22.8833 18.3737 22.904 18.3388 22.904C18.3083 22.904 18.2865 22.8874 18.2952 22.8709C18.3083 22.8543 18.2778 22.8419 18.2299 22.8419C18.1776 22.8419 18.1123 22.813 18.0774 22.7798C18.0382 22.7467 18.0164 22.7012 18.0208 22.6805C18.0251 22.664 17.9685 22.5895 17.8901 22.515C17.8117 22.4447 17.7289 22.3867 17.7071 22.3867C17.681 22.3867 17.5939 22.3205 17.5111 22.2419C17.424 22.1633 17.3368 22.0971 17.315 22.0971C17.2889 22.0971 17.2105 22.0392 17.1408 21.973C17.0667 21.9026 16.9796 21.8488 16.9447 21.8488C16.9055 21.8488 16.8794 21.8281 16.8794 21.8074C16.8794 21.7826 16.8402 21.7661 16.7923 21.7661C16.74 21.7661 16.7051 21.7454 16.7051 21.7247C16.7051 21.6999 16.6703 21.6833 16.6267 21.6833C16.5832 21.6833 16.5222 21.6461 16.4873 21.6005C16.4481 21.555 16.3915 21.5178 16.3566 21.5178C16.3174 21.5178 16.2608 21.4805 16.2259 21.435C16.1867 21.3895 16.1257 21.3523 16.0822 21.3523C16.0386 21.3523 16.0081 21.3316 16.0081 21.3109C16.0081 21.2861 15.9558 21.2695 15.8992 21.2695C15.8208 21.2695 15.6988 21.1826 15.4853 20.9798C15.3154 20.8185 15.1499 20.6902 15.115 20.6902C15.0758 20.6902 15.0497 20.6695 15.0497 20.6488C15.0497 20.624 15.0148 20.6074 14.9713 20.6074C14.9277 20.6074 14.8667 20.5702 14.8319 20.5247C14.7927 20.4792 14.7317 20.4419 14.6881 20.4419C14.6402 20.4419 14.6141 20.4088 14.6141 20.3592C14.6141 20.304 14.585 20.2764 14.5269 20.2764C14.4688 20.2764 14.4398 20.2488 14.4398 20.1936C14.4398 20.1385 14.4108 20.1109 14.3527 20.1109C14.3004 20.1109 14.2568 20.1316 14.2481 20.1605C14.2438 20.1895 13.978 19.9661 13.66 19.664C13.3463 19.3619 13.0675 19.1178 13.0457 19.1178C13.0196 19.1178 12.9412 19.0598 12.8715 18.9936C12.7974 18.9233 12.719 18.8695 12.6972 18.8695C12.6711 18.8695 12.5927 18.8116 12.523 18.7454C12.4489 18.675 12.3618 18.6212 12.3269 18.6212C12.2877 18.6212 12.2529 18.5964 12.2442 18.5674C12.2311 18.5343 12.2006 18.5467 12.144 18.6088C12.1004 18.6585 12.0394 18.6998 12.0089 18.6998C11.9784 18.704 11.8739 18.7785 11.7824 18.8695C11.6865 18.9605 11.5863 19.035 11.5646 19.035C11.5384 19.035 11.46 19.0888 11.3903 19.1592C11.3162 19.2254 11.2378 19.2833 11.216 19.2833C11.1899 19.2833 11.1115 19.3371 11.0418 19.4074C10.9677 19.4736 10.8849 19.5316 10.8545 19.5316C10.824 19.5316 10.7717 19.5688 10.7368 19.6143C10.6976 19.6599 10.6366 19.6971 10.5931 19.6971C10.5495 19.6971 10.519 19.7136 10.519 19.7385C10.519 19.7592 10.4885 19.7798 10.4537 19.7798C10.4145 19.7798 10.3273 19.8336 10.2576 19.904C10.1836 19.9702 10.1008 20.0281 10.0703 20.0281C10.0398 20.0281 9.98752 20.0654 9.95267 20.1109C9.91346 20.1564 9.86119 20.1936 9.83069 20.1936C9.8002 20.1936 9.71742 20.2474 9.64772 20.3178C9.57366 20.384 9.48653 20.4419 9.45168 20.4419C9.41247 20.4419 9.38633 20.4585 9.38633 20.4833C9.38633 20.504 9.3297 20.5247 9.26435 20.5247C9.19465 20.5247 9.11623 20.5578 9.08138 20.6074C9.04218 20.653 8.98119 20.6902 8.93762 20.6902C8.89406 20.6902 8.86356 20.7067 8.86356 20.7316C8.86356 20.7523 8.82871 20.773 8.78515 20.773C8.74158 20.773 8.68059 20.8102 8.64574 20.8557C8.60653 20.9012 8.55425 20.9385 8.52376 20.9385C8.49326 20.9385 8.38871 21.013 8.29722 21.104C8.20138 21.195 8.09247 21.2695 8.05762 21.2695C8.01841 21.2695 7.99227 21.2861 7.99227 21.3109C7.99227 21.3316 7.95742 21.3523 7.91386 21.3523C7.87029 21.3523 7.8093 21.3895 7.77445 21.435C7.73524 21.4805 7.68297 21.5178 7.65247 21.5178C7.62198 21.5178 7.53921 21.5716 7.4695 21.6419C7.39544 21.7081 7.30831 21.7661 7.27346 21.7661C7.23425 21.7661 7.20812 21.7826 7.20812 21.8074C7.20812 21.8281 7.17326 21.8488 7.1297 21.8488C7.08614 21.8488 7.02515 21.8861 6.99029 21.9316C6.95109 21.9771 6.89445 22.0143 6.8596 22.0143C6.82039 22.0143 6.76376 22.0516 6.72891 22.0971C6.6897 22.1426 6.62871 22.1799 6.58515 22.1799C6.54158 22.1799 6.51109 22.1964 6.51109 22.2212C6.51109 22.2419 6.47623 22.2626 6.43267 22.2626C6.38911 22.2626 6.32812 22.2999 6.29326 22.3454C6.25406 22.3909 6.19307 22.4281 6.1495 22.4281C6.10594 22.4281 6.06673 22.4488 6.05802 22.4778C6.0493 22.5109 6.02752 22.515 6.00138 22.4943C5.9796 22.4736 5.98831 22.453 6.01881 22.4405C6.0493 22.4323 6.07544 22.4074 6.07544 22.3867C6.07544 22.3619 6.01881 22.3454 5.95346 22.3454C5.88376 22.3454 5.80534 22.3785 5.77049 22.4281C5.73128 22.4736 5.67465 22.5109 5.6398 22.5109C5.60059 22.5109 5.54396 22.5481 5.50911 22.5936C5.4699 22.6392 5.40891 22.6764 5.36534 22.6764C5.32178 22.6764 5.29128 22.693 5.29128 22.7178C5.29128 22.7385 5.2695 22.7592 5.24772 22.7592C5.22158 22.7592 5.20416 22.7219 5.20416 22.6764C5.20416 22.6309 5.18237 22.5936 5.16059 22.5936C5.13445 22.5936 5.11703 22.6102 5.11703 22.635C5.11703 22.6557 5.06039 22.6764 4.99505 22.6764C4.92534 22.6764 4.84693 22.7095 4.81208 22.7592C4.77287 22.8047 4.7293 22.8419 4.71188 22.8419C4.69445 22.8419 4.68138 22.8088 4.68138 22.7674C4.68138 22.7302 4.72495 22.664 4.77723 22.6226C4.83386 22.5854 4.86 22.5357 4.83822 22.5192C4.81643 22.5026 4.79029 22.5109 4.78158 22.5398C4.77287 22.5688 4.74673 22.5936 4.72495 22.5936C4.69881 22.5936 4.67703 22.5398 4.67703 22.4778C4.67703 22.4116 4.71623 22.3412 4.76851 22.304C4.81643 22.2709 4.85564 22.2254 4.85564 22.2088C4.85564 22.1923 4.82079 22.1799 4.78594 22.1799C4.74673 22.1799 4.6901 22.2088 4.65524 22.2419C4.62039 22.275 4.59425 22.333 4.59425 22.3661C4.59425 22.3992 4.55505 22.4281 4.50713 22.4281C4.45921 22.4281 4.42 22.4116 4.42 22.395C4.42 22.3785 4.46356 22.333 4.51584 22.2916C4.59861 22.2254 4.60297 22.2088 4.55069 22.1799C4.49406 22.1467 4.50277 22.1302 4.59425 22.0557C4.68574 21.9812 4.6901 21.9605 4.63782 21.9274C4.57683 21.8943 4.57683 21.8861 4.63782 21.853C4.69445 21.8198 4.6901 21.8074 4.62475 21.7495C4.58119 21.7123 4.52455 21.6833 4.49406 21.6833C4.46356 21.6833 4.40257 21.7288 4.36336 21.7785C4.3198 21.8281 4.28495 21.8447 4.28495 21.8157C4.28495 21.7867 4.31544 21.7371 4.35465 21.704C4.3895 21.6709 4.42 21.5964 4.42 21.5385C4.42 21.4598 4.39386 21.435 4.33287 21.435C4.28495 21.435 4.24574 21.4516 4.24574 21.4764C4.24574 21.4971 4.22396 21.5178 4.20218 21.5178C4.17604 21.5178 4.15861 21.4805 4.15861 21.435C4.15861 21.3895 4.17604 21.3523 4.20218 21.3523C4.22396 21.3523 4.23703 21.3274 4.22831 21.2985C4.2196 21.2695 4.18039 21.253 4.14119 21.2571C4.08891 21.2654 4.07148 21.2364 4.07148 21.1454C4.07148 21.0461 4.0497 21.0212 3.98435 21.0212C3.93643 21.0212 3.89723 21.0378 3.89723 21.0626C3.89723 21.0833 3.87544 21.104 3.85366 21.104C3.82752 21.104 3.8101 21.0667 3.8101 21.0212C3.8101 20.9661 3.83914 20.9385 3.89723 20.9385C3.94515 20.9385 3.98435 20.9178 3.98435 20.8971C3.98435 20.8723 3.9495 20.8557 3.90594 20.8557C3.86237 20.8557 3.80138 20.893 3.76653 20.9385C3.72732 20.984 3.66633 21.0212 3.62277 21.0212C3.57921 21.0212 3.54871 21.0378 3.54871 21.0626C3.54871 21.0833 3.5095 21.104 3.46158 21.104C3.41366 21.104 3.37445 21.1205 3.37445 21.1454C3.37445 21.1661 3.33524 21.1867 3.28732 21.1867C3.2394 21.1867 3.2002 21.1661 3.2002 21.1454C3.2002 21.1205 3.2394 21.104 3.28732 21.104C3.33524 21.104 3.37445 21.0833 3.37445 21.0626C3.37445 21.0378 3.40059 21.0212 3.4398 21.0212C3.47465 21.0212 3.56178 20.9633 3.63584 20.8971C3.70554 20.8267 3.78831 20.773 3.81881 20.773C3.8493 20.773 3.90158 20.7357 3.94079 20.6902C3.98 20.6364 4.05406 20.6074 4.1499 20.6074C4.22831 20.6074 4.3198 20.5785 4.35465 20.5454C4.3895 20.5123 4.42 20.4378 4.42 20.3798C4.42 20.3219 4.44178 20.2681 4.47227 20.2598C4.51148 20.2433 4.51148 20.2309 4.46356 20.1978C4.41709 20.1674 4.41274 20.1523 4.45049 20.1523C4.48099 20.1523 4.50713 20.1067 4.50713 20.0488C4.50713 19.9619 4.52455 19.9454 4.63782 19.9454C4.73802 19.9454 4.76851 19.9247 4.76851 19.8626C4.76851 19.8171 4.74673 19.7798 4.72495 19.7798C4.69881 19.7798 4.68138 19.7964 4.68138 19.8212C4.68138 19.8419 4.64218 19.8626 4.59425 19.8626C4.54633 19.8626 4.49406 19.8336 4.48534 19.8005C4.47227 19.7674 4.48099 19.7467 4.50713 19.7592C4.52891 19.7716 4.59861 19.755 4.6596 19.7261C4.72059 19.6971 4.76851 19.6598 4.76851 19.6433C4.76851 19.6267 4.72495 19.6143 4.68138 19.6143C4.63346 19.6143 4.59425 19.6309 4.59425 19.6557C4.59425 19.6764 4.55505 19.6971 4.50713 19.6971C4.45921 19.6971 4.42 19.6764 4.42 19.6557C4.42 19.6309 4.45921 19.6143 4.50713 19.6143C4.56521 19.6143 4.59425 19.5867 4.59425 19.5316C4.59425 19.4764 4.6233 19.4488 4.68138 19.4488C4.72495 19.4488 4.76851 19.4281 4.76851 19.4074C4.76851 19.3826 4.80772 19.3661 4.85564 19.3661C4.89921 19.3661 4.94277 19.3454 4.94277 19.3247C4.94277 19.2999 4.97326 19.2833 5.01683 19.2833C5.06039 19.2833 5.12138 19.2461 5.16059 19.2005C5.19544 19.155 5.25643 19.1178 5.3 19.1178C5.34356 19.1178 5.37841 19.0971 5.37841 19.0764C5.37841 19.0516 5.41762 19.035 5.46554 19.035C5.50911 19.035 5.55703 19.0102 5.5701 18.9812C5.58317 18.944 5.60059 18.9481 5.63544 18.9936C5.67901 19.0433 5.68336 19.0392 5.66158 18.9605C5.64416 18.8902 5.65723 18.8695 5.72693 18.8695C5.77049 18.8695 5.81406 18.8488 5.81406 18.8281C5.81406 18.8033 5.85326 18.7867 5.90119 18.7867C5.94475 18.7867 5.98831 18.7661 5.98831 18.7454C5.98831 18.7205 6.0101 18.704 6.04059 18.704C6.07109 18.704 6.14079 18.6667 6.19307 18.6212C6.24534 18.5757 6.3194 18.5385 6.35861 18.5385C6.39346 18.5385 6.42396 18.5178 6.42396 18.4971C6.42396 18.4723 6.4501 18.4557 6.4893 18.4557C6.52416 18.4557 6.61128 18.3978 6.68534 18.3316C6.75505 18.2612 6.83346 18.2074 6.8596 18.2074C6.88574 18.2074 6.93366 18.1785 6.96851 18.1454C7.00336 18.1123 7.02079 18.0667 7.00336 18.0502C6.99029 18.0336 6.96851 18.0419 6.9598 18.0709C6.95109 18.0999 6.90317 18.1247 6.8596 18.1247C6.80152 18.1247 6.77247 18.0971 6.77247 18.0419C6.77247 17.9798 6.79861 17.9592 6.88138 17.9592C6.94237 17.9592 7.04257 17.9054 7.12099 17.835C7.19069 17.7647 7.27346 17.7109 7.30396 17.7109C7.33445 17.7109 7.38673 17.6736 7.42594 17.6281C7.46079 17.5826 7.52178 17.5454 7.56534 17.5454C7.60891 17.5454 7.64376 17.5247 7.64376 17.504C7.64376 17.4792 7.69604 17.4626 7.76138 17.4626C7.83109 17.4626 7.9095 17.4295 7.94871 17.3799C7.98356 17.3343 8.0402 17.2971 8.0794 17.2971C8.11425 17.2971 8.17089 17.2598 8.2101 17.2143C8.24495 17.1688 8.30594 17.1316 8.3495 17.1316C8.39307 17.1316 8.42792 17.1109 8.42792 17.0902C8.42792 17.0654 8.45841 17.0488 8.50198 17.0488C8.54554 17.0488 8.60653 17.0116 8.64574 16.9661C8.68059 16.9205 8.73722 16.8833 8.77643 16.8833C8.81128 16.8833 8.86792 16.8461 8.90713 16.8005C8.94198 16.755 8.99425 16.7178 9.02475 16.7178C9.0596 16.7178 9.1293 16.6723 9.19029 16.6143C9.28614 16.5233 9.29049 16.5026 9.23386 16.4488C9.19465 16.4157 9.13802 16.3867 9.10317 16.3867C9.06396 16.3867 9.03782 16.3661 9.03782 16.3454C9.03782 16.3205 9.00297 16.304 8.9594 16.304C8.91584 16.304 8.85485 16.2667 8.82 16.2212C8.78079 16.1757 8.7198 16.1385 8.67623 16.1385C8.63267 16.1385 8.60218 16.1178 8.60218 16.0971C8.60218 16.0723 8.55861 16.0557 8.51505 16.0557C8.46713 16.0557 8.42792 16.035 8.42792 16.0143C8.42792 15.9895 8.39742 15.973 8.36257 15.973C8.32336 15.973 8.26673 15.944 8.23188 15.9109C8.19267 15.8778 8.16653 15.8281 8.16653 15.8074C8.16653 15.7826 8.13604 15.7371 8.10119 15.704C8.06198 15.6709 8.01406 15.6419 7.99227 15.6419C7.96614 15.6419 7.88772 15.584 7.81802 15.5178C7.74396 15.4474 7.66119 15.3936 7.63069 15.3936C7.6002 15.3936 7.54792 15.3564 7.51307 15.3109C7.47386 15.2654 7.41287 15.2281 7.3693 15.2281C7.32574 15.2281 7.29089 15.2033 7.29089 15.1743C7.29089 15.1412 7.27637 15.1454 7.24732 15.1867C7.22119 15.2281 7.20812 15.2309 7.20812 15.195C7.20812 15.1661 7.16455 15.1454 7.12099 15.1454C7.05564 15.1454 7.03386 15.1164 7.03386 15.0419C7.03386 14.984 6.99901 14.9054 6.9598 14.864C6.90752 14.8143 6.88138 14.8061 6.87267 14.8433C6.86396 14.8723 6.82911 14.8971 6.79425 14.8971C6.75505 14.8971 6.69406 14.8681 6.65049 14.8309C6.58515 14.773 6.58079 14.7605 6.64178 14.7274C6.67663 14.7109 6.6897 14.6778 6.66792 14.6612C6.64614 14.6405 6.62 14.6488 6.61128 14.6778C6.60257 14.7067 6.55465 14.7316 6.51109 14.7316C6.46317 14.7316 6.42396 14.7109 6.42396 14.6902C6.42396 14.6654 6.44574 14.6405 6.47624 14.6364C6.50673 14.6281 6.46317 14.5578 6.36732 14.4709C6.27584 14.384 6.20178 14.3385 6.20178 14.3674C6.19742 14.4088 6.19307 14.4088 6.18 14.3674C6.16693 14.3385 6.11901 14.3178 6.07544 14.3178C6.02752 14.3178 5.98831 14.2971 5.98831 14.2764C5.98831 14.2516 5.95782 14.235 5.92297 14.235C5.88376 14.235 5.77921 14.1605 5.68336 14.0695C5.54831 13.9412 5.47425 13.904 5.36534 13.904C5.27386 13.904 5.1998 13.875 5.16059 13.8212C5.12138 13.7757 5.06039 13.7385 5.01683 13.7385C4.97326 13.7385 4.94277 13.7178 4.94277 13.6971C4.94277 13.6723 4.91227 13.6557 4.87742 13.6557C4.83822 13.6557 4.73366 13.5812 4.63782 13.4902C4.53762 13.3992 4.44178 13.3247 4.42 13.3247C4.39386 13.3247 4.31544 13.2667 4.24574 13.2005C4.17168 13.1302 4.08891 13.0764 4.05841 13.0764C4.02792 13.0764 3.97564 13.0392 3.94079 12.9936C3.90158 12.9481 3.8493 12.9109 3.81881 12.9109C3.78831 12.9109 3.69683 12.8447 3.61406 12.7661C3.52693 12.6874 3.46158 12.613 3.46158 12.6005C3.46158 12.5881 3.50079 12.5798 3.54871 12.5798C3.59663 12.5798 3.6402 12.6005 3.65326 12.6295C3.66633 12.6709 3.68376 12.6667 3.71861 12.6212C3.74039 12.5881 3.76218 12.5385 3.76218 12.5178C3.76218 12.493 3.74475 12.5054 3.72297 12.5385C3.69683 12.584 3.6794 12.5716 3.65762 12.4764C3.64455 12.4061 3.64455 12.344 3.65762 12.3316C3.67069 12.3192 3.70119 12.3398 3.72297 12.373C3.74475 12.4061 3.76218 12.4143 3.76218 12.3936C3.76218 12.3688 3.74475 12.3233 3.71861 12.2902C3.68376 12.2323 3.67069 12.2323 3.63584 12.2902C3.60534 12.344 3.58792 12.344 3.52693 12.2778C3.49208 12.2405 3.46158 12.1992 3.46158 12.1867C3.46158 12.1743 3.54 12.1661 3.63584 12.1661C3.73168 12.1661 3.8101 12.1826 3.8101 12.2074C3.8101 12.2281 3.8493 12.2488 3.89723 12.2488C3.94515 12.2488 3.98435 12.2323 3.98435 12.2157C3.98435 12.1992 3.94515 12.1578 3.89287 12.1247C3.84495 12.0916 3.80574 12.0295 3.80574 11.9881C3.80574 11.9509 3.82752 11.9178 3.85366 11.9178C3.87544 11.9178 3.90158 11.9385 3.91029 11.9674C3.92336 12.0047 3.94515 12.0088 3.98 11.9798C4.01921 11.9467 3.99307 11.8971 3.87544 11.7812C3.79267 11.6985 3.72297 11.5992 3.72297 11.5661C3.72297 11.533 3.74039 11.504 3.76653 11.504C3.78831 11.504 3.81445 11.5205 3.81881 11.5412C3.82317 11.5619 3.8798 11.5826 3.94079 11.5909C4.02792 11.6033 4.0497 11.5867 4.05841 11.4916C4.06713 11.4212 4.03663 11.3509 3.98435 11.3054C3.93643 11.2681 3.89723 11.2185 3.89723 11.2019C3.89723 11.1854 3.95386 11.173 4.02792 11.173C4.1194 11.173 4.16297 11.1481 4.18039 11.0902C4.18911 11.0447 4.22831 11.0074 4.26752 11.0074C4.30237 11.0074 4.33287 10.9867 4.33287 10.9661C4.33287 10.9412 4.31109 10.9247 4.2893 10.9247C4.26317 10.9247 4.25881 10.8998 4.27188 10.8709C4.29802 10.8295 4.30673 10.8295 4.31544 10.8709C4.32416 10.8998 4.35029 10.9247 4.37643 10.9247C4.39822 10.9247 4.41564 10.8709 4.41564 10.8088C4.41564 10.7426 4.37208 10.664 4.3198 10.6226C4.26317 10.5854 4.23703 10.5357 4.25445 10.5192C4.27188 10.5026 4.3198 10.5316 4.36336 10.5812C4.40693 10.6309 4.45485 10.6723 4.47227 10.6723C4.4897 10.6764 4.50713 10.6392 4.50713 10.5936C4.50713 10.5481 4.48534 10.5109 4.46356 10.5109C4.43742 10.5109 4.42435 10.453 4.42871 10.3867C4.43742 10.3081 4.42 10.2626 4.38515 10.2626C4.35465 10.2626 4.33287 10.2419 4.33287 10.2212C4.33287 10.1964 4.37208 10.1798 4.42 10.1798C4.48534 10.1798 4.50713 10.2047 4.50713 10.304C4.50713 10.3702 4.52455 10.4281 4.55069 10.4281C4.57247 10.4281 4.60297 10.4033 4.61604 10.3743C4.63346 10.333 4.64218 10.333 4.6596 10.3743C4.66831 10.4033 4.69881 10.4281 4.72495 10.4281C4.74673 10.4281 4.76851 10.3909 4.76851 10.3454C4.76851 10.2902 4.73947 10.2626 4.68138 10.2626C4.61168 10.2626 4.59425 10.2378 4.60297 10.1467C4.60732 10.0847 4.63782 10.0102 4.66831 9.98123C4.69881 9.95226 4.73802 9.94399 4.75544 9.9564C4.77287 9.97295 4.76416 9.98951 4.73366 9.99778C4.70317 10.0061 4.68138 10.0309 4.68138 10.0557C4.68138 10.0764 4.73802 10.0971 4.81208 10.0971C4.88178 10.0971 4.94277 10.0764 4.94277 10.0557C4.94277 10.0309 4.92099 10.0143 4.89921 10.0143C4.87307 10.0143 4.85564 9.99364 4.85564 9.97295C4.85564 9.94813 4.89485 9.93157 4.94277 9.93157C4.98633 9.93157 5.0299 9.94813 5.0299 9.97295C5.0299 9.99364 5.08218 10.0143 5.14752 10.0143C5.21287 10.0143 5.29128 10.035 5.32178 10.064C5.35227 10.093 5.37841 10.1509 5.37841 10.1881C5.37841 10.2295 5.40891 10.2626 5.45247 10.2626C5.49604 10.2626 5.55703 10.2998 5.59623 10.3454C5.63109 10.3909 5.67465 10.4281 5.69208 10.4281C5.7095 10.4281 5.72693 10.3536 5.72693 10.2626C5.72693 10.1716 5.73564 10.0971 5.74871 10.0971C5.75742 10.0971 5.82713 10.1509 5.90119 10.2212C5.97089 10.2874 6.05366 10.3454 6.08416 10.3454C6.11465 10.3454 6.16693 10.3826 6.20614 10.4281C6.24099 10.4736 6.29762 10.5109 6.33683 10.5109C6.37168 10.5109 6.42831 10.5481 6.46752 10.5936C6.50237 10.6433 6.58079 10.6764 6.65049 10.6764C6.71584 10.6764 6.77247 10.693 6.77247 10.7178C6.77247 10.7385 6.79861 10.7592 6.83782 10.7592C6.87267 10.7592 6.98158 10.8336 7.07742 10.9247C7.17326 11.0157 7.26911 11.0902 7.29524 11.0902C7.31703 11.0902 7.39544 11.144 7.4695 11.2143C7.53921 11.2805 7.61762 11.3385 7.64376 11.3385C7.66554 11.3385 7.74396 11.3923 7.81802 11.4626C7.88772 11.5288 7.96614 11.5867 7.99227 11.5867C8.01406 11.5867 8.09247 11.6405 8.16653 11.7109C8.23623 11.7771 8.31901 11.835 8.3495 11.835C8.38 11.835 8.43227 11.8723 8.47148 11.9178C8.50633 11.9633 8.55861 12.0005 8.58911 12.0005C8.6196 12.0005 8.70237 12.0543 8.77643 12.1247C8.84614 12.1909 8.92455 12.2488 8.95069 12.2488C8.97247 12.2488 9.05089 12.3026 9.12495 12.373C9.19465 12.4392 9.27307 12.4971 9.29921 12.4971C9.32099 12.4971 9.3994 12.5509 9.47346 12.6212C9.54317 12.6874 9.63029 12.7454 9.6695 12.7454C9.70435 12.7454 9.73485 12.7619 9.73485 12.7867C9.73485 12.8074 9.77406 12.8281 9.82198 12.8281C9.86554 12.8281 9.90911 12.8447 9.90911 12.8695C9.90911 12.8902 9.94831 12.9109 9.99624 12.9109C10.0442 12.9109 10.0834 12.9357 10.0834 12.973C10.0834 13.0061 10.1095 13.064 10.1487 13.0971C10.1836 13.1302 10.2533 13.1592 10.3012 13.1592C10.3448 13.1592 10.4842 13.2502 10.6061 13.3661C10.7514 13.504 10.8603 13.573 10.9329 13.573C10.9982 13.573 11.0418 13.5936 11.0418 13.635C11.0418 13.6681 11.0897 13.7426 11.1507 13.8005C11.2073 13.8585 11.277 13.904 11.3032 13.904C11.3249 13.904 11.4034 13.9578 11.4774 14.0281C11.5471 14.0943 11.6299 14.1523 11.6604 14.1523C11.6909 14.1523 11.7432 14.1895 11.7824 14.235C11.8172 14.2805 11.8739 14.3178 11.9131 14.3178C11.9479 14.3178 12.0046 14.355 12.0438 14.4005C12.0786 14.4461 12.1527 14.4833 12.2049 14.4833C12.2572 14.4833 12.3618 14.4254 12.4358 14.3592C12.5055 14.2888 12.584 14.235 12.6101 14.235C12.6319 14.235 12.7669 14.1233 12.915 13.9867C13.0588 13.8502 13.2026 13.7385 13.2418 13.7385C13.2766 13.7385 13.3071 13.7095 13.3071 13.6764C13.3071 13.6433 13.3333 13.5854 13.3681 13.5523C13.403 13.5192 13.4552 13.4902 13.4857 13.4861C13.5206 13.4861 13.5816 13.4447 13.6251 13.395C13.6818 13.333 13.7123 13.3205 13.7253 13.3536C13.7341 13.3826 13.7602 13.4074 13.7863 13.4074C13.8081 13.4074 13.8299 13.3702 13.8299 13.3247C13.8299 13.2792 13.8473 13.2419 13.8735 13.2419C13.8952 13.2419 13.917 13.2585 13.917 13.2833C13.917 13.304 13.9345 13.3247 13.9606 13.3247C13.9824 13.3247 14.0042 13.2957 14.0042 13.2626C14.0042 13.2295 14.0303 13.1716 14.0651 13.1385C14.1 13.1054 14.1479 13.0764 14.1784 13.0764C14.2046 13.0764 14.2525 13.0474 14.2873 13.0143C14.3222 12.9812 14.3527 12.9316 14.3527 12.9109C14.3527 12.8861 14.4224 12.7992 14.5095 12.7123C14.6358 12.5881 14.6707 12.5716 14.7012 12.6212C14.7273 12.6709 14.7622 12.6585 14.8711 12.5467C14.9451 12.4723 15.0236 12.4143 15.0497 12.4143C15.0715 12.4143 15.1717 12.3399 15.2675 12.2488C15.359 12.1578 15.4592 12.0833 15.4853 12.0833C15.5071 12.0833 15.6247 11.9881 15.7467 11.8764C15.9428 11.6902 15.982 11.6695 16.1606 11.6695C16.3392 11.6695 16.3566 11.6612 16.3566 11.5661C16.3566 11.5081 16.3871 11.4295 16.422 11.3881C16.483 11.3261 16.496 11.3261 16.5309 11.3798C16.5527 11.413 16.5832 11.4254 16.6006 11.4088C16.6224 11.3881 16.6093 11.3592 16.5745 11.3385C16.5178 11.3095 16.5178 11.293 16.5875 11.2267C16.6572 11.1605 16.6747 11.1605 16.7095 11.2143C16.74 11.2598 16.7574 11.264 16.7705 11.2226C16.7836 11.1936 16.8184 11.173 16.8576 11.173C16.8925 11.173 17.0188 11.0778 17.1408 10.9661C17.2584 10.8502 17.3848 10.7592 17.424 10.7592C17.4588 10.7592 17.4893 10.7385 17.4893 10.7178C17.4893 10.693 17.5242 10.6764 17.5764 10.6764C17.6244 10.6764 17.6636 10.6557 17.6636 10.635C17.6636 10.6102 17.6897 10.5936 17.7289 10.5936C17.7638 10.5936 17.8683 10.5274 17.9554 10.4447C18.0905 10.3205 18.1079 10.2874 18.0556 10.2585C18.0164 10.2419 18.0034 10.2088 18.0251 10.1923C18.0469 10.1716 18.0731 10.1798 18.0818 10.2088C18.0905 10.2378 18.1341 10.2626 18.1863 10.2626C18.2343 10.2626 18.2735 10.2419 18.2735 10.2212C18.2735 10.1964 18.304 10.1798 18.3475 10.1798C18.3911 10.1798 18.4434 10.1426 18.4695 10.0971C18.4956 10.0516 18.5566 10.0143 18.6002 10.0143C18.6481 10.0143 18.7135 9.97709 18.7483 9.93157C18.7832 9.88606 18.8442 9.84882 18.8877 9.84882ZM18.9139 10.5936C18.9661 10.6392 19.0228 10.6764 19.0358 10.6764C19.0446 10.6764 19.0576 10.6392 19.0576 10.5936C19.0576 10.5316 19.0271 10.5109 18.9356 10.5109L18.818 10.5067L18.9139 10.5936ZM17.8901 10.2667C17.9075 10.2667 17.9206 10.2916 17.9206 10.3288C17.9206 10.3619 17.8945 10.4157 17.8596 10.453C17.8248 10.4861 17.7638 10.515 17.7289 10.515C17.6897 10.515 17.6592 10.5026 17.6592 10.4943C17.6592 10.4819 17.7028 10.4281 17.7594 10.3702C17.8117 10.3164 17.8683 10.2709 17.8901 10.2667ZM6.59386 18.1288C6.64178 18.1288 6.68099 18.1371 6.68099 18.1495C6.68099 18.1578 6.65485 18.195 6.62 18.2323C6.58515 18.2654 6.52416 18.2943 6.4893 18.2943C6.4501 18.2943 6.4196 18.3109 6.4196 18.3357C6.4196 18.3564 6.38039 18.3771 6.33247 18.3771C6.28455 18.3771 6.23663 18.3978 6.22792 18.4267C6.21921 18.4557 6.20178 18.464 6.18435 18.4474C6.17128 18.4309 6.20614 18.3688 6.26713 18.315C6.32376 18.2571 6.40218 18.2116 6.44138 18.2116C6.47624 18.2116 6.50673 18.1909 6.50673 18.1702C6.50673 18.1454 6.54594 18.1288 6.59386 18.1288ZM6.04059 18.3771C6.05802 18.3771 6.07109 18.4019 6.07109 18.4392C6.07109 18.4723 6.04495 18.5261 6.0101 18.5633C5.97524 18.5964 5.93604 18.6254 5.92297 18.6254C5.9099 18.6254 5.89683 18.5964 5.89683 18.5633C5.89683 18.5261 5.92297 18.4723 5.95346 18.4392C5.9796 18.4061 6.01881 18.3771 6.04059 18.3771ZM4.01485 20.4461C4.04099 20.4461 4.06713 20.4543 4.06713 20.4667C4.06713 20.475 4.04099 20.5123 4.00614 20.5495C3.97128 20.5826 3.91029 20.6116 3.87544 20.6116C3.83623 20.6116 3.80138 20.5992 3.79703 20.5826C3.78831 20.5702 3.82317 20.533 3.87109 20.504C3.91901 20.4709 3.98435 20.4461 4.01485 20.4461Z" fill="none"/>
</svg>
