<svg width="30" height="30" viewBox="0 0 30 30" fill="#6d6d91" xmlns="http://www.w3.org/2000/svg">
<path fill-rule="evenodd" clip-rule="evenodd" d="M12.8221 0.0125423C12.7728 0.0188135 12.7053 0.037627 12.669 0.0551863C12.634 0.0727455 12.5989 0.0965759 12.5924 0.109118C12.5859 0.120406 12.5522 0.215728 12.5159 0.318575C12.4808 0.422677 12.4315 0.546846 12.4069 0.594507C12.3731 0.658472 12.3394 0.699862 12.2849 0.746269C12.2421 0.780133 12.1447 0.845353 12.0656 0.887997C11.9877 0.931895 11.8787 0.994607 11.8255 1.02847C11.7541 1.07362 11.6542 1.11501 11.4427 1.18776C11.2714 1.24796 11.0638 1.30817 10.9236 1.34078C10.7614 1.3784 10.6485 1.41227 10.5538 1.45366C10.4785 1.48627 10.376 1.52515 10.3267 1.54145C10.2774 1.55776 10.0723 1.62799 9.87249 1.69823C9.67265 1.76847 9.43647 1.84749 9.34693 1.87382C9.25739 1.90016 9.04198 1.97416 8.86679 2.03687C8.6916 2.10084 8.47619 2.17609 8.38665 2.20494C8.26207 2.24508 8.1894 2.27769 8.0739 2.34792C7.96101 2.41565 7.87017 2.48464 7.71315 2.62636C7.59766 2.73047 7.37316 2.95121 7.21484 3.11928C7.03706 3.30867 6.90859 3.43409 6.87874 3.44914C6.85149 3.46168 6.82683 3.47297 6.82294 3.47297C6.81905 3.47297 6.81126 3.45416 6.80347 3.43284C6.79439 3.40148 6.79699 3.36887 6.81645 3.29738C6.83332 3.23592 6.86057 3.17823 6.89431 3.13182C6.92286 3.09168 6.94492 3.05657 6.94362 3.0528C6.94103 3.04904 6.8995 3.08165 6.85019 3.12429C6.76454 3.2008 6.75546 3.21335 6.6192 3.47924C6.51149 3.68745 6.4505 3.78904 6.37005 3.89189C6.31295 3.96714 6.24936 4.03612 6.2299 4.0449C6.19486 4.06121 6.19356 4.06121 6.18707 4.03111C6.18318 4.01355 6.19486 3.95083 6.21303 3.89063C6.23119 3.82917 6.24547 3.77022 6.24547 3.75894C6.24547 3.74639 6.24158 3.73636 6.23639 3.73636C6.2299 3.73636 6.19746 3.76019 6.16112 3.79029C6.11959 3.82416 6.07547 3.8806 6.03914 3.94456C6.00799 3.99849 5.95349 4.0888 5.91716 4.14399C5.88212 4.19917 5.8354 4.26314 5.81204 4.28446C5.78998 4.30704 5.75754 4.32836 5.73937 4.33212C5.72121 4.33588 5.69395 4.33087 5.67838 4.31958C5.65502 4.30453 5.64853 4.28948 5.64853 4.24809C5.64853 4.21799 5.65892 4.15527 5.67189 4.10636C5.69006 4.03487 5.71342 3.99348 5.79258 3.88687C5.84968 3.81036 5.99631 3.56829 6.14165 3.30992L6.39211 2.86467C6.62569 2.63514 6.70874 2.57118 6.90339 2.44074C7.04095 2.35043 7.14606 2.27267 7.13698 2.27016C7.12919 2.26765 7.08377 2.27267 7.03706 2.2802C6.96309 2.29274 6.92156 2.31406 6.71134 2.44199C6.51279 2.5624 6.43234 2.62009 6.26623 2.76433C6.15463 2.86091 5.98334 3.02646 5.88471 3.13307C5.71861 3.31243 5.69785 3.34253 5.56419 3.57206C5.48503 3.70751 5.36824 3.89941 5.30465 3.99975C5.22938 4.11765 5.15282 4.26063 5.08794 4.40737L4.98672 4.63314C4.92962 5.22639 4.91145 5.34554 4.8829 5.45466C4.85306 5.56378 4.8297 5.62147 4.78428 5.69296C4.75184 5.74439 4.69733 5.81713 4.66489 5.85351L4.6039 5.92123C4.34436 5.88361 4.32749 5.87859 4.28856 5.84096C4.26391 5.81839 4.23406 5.77825 4.21979 5.75317C4.20551 5.72432 4.19513 5.67917 4.19513 5.64029C4.19513 5.60391 4.20421 5.48978 4.21459 5.38568C4.22627 5.28283 4.26131 5.05832 4.29246 4.88775C4.3249 4.71592 4.35085 4.56917 4.35085 4.56165C4.35085 4.55287 4.3249 4.58171 4.29246 4.62687C4.26001 4.67202 4.20811 4.77236 4.17566 4.85263C4.14322 4.93164 4.09131 5.08215 4.06017 5.185C4.01086 5.34429 3.99918 5.40073 3.9875 5.555C3.97971 5.65534 3.96674 5.78703 3.96025 5.84974C3.95246 5.91496 3.95116 6.02659 3.95636 6.11313C3.96284 6.22727 3.97323 6.28245 3.99658 6.33889C4.01345 6.38028 4.0433 6.4292 4.06277 6.44927C4.09002 6.47561 4.10948 6.48313 4.1536 6.48313C4.20551 6.48313 4.20811 6.48439 4.20811 6.52076C4.20811 6.54083 4.18734 6.60479 4.16269 6.66249C4.13803 6.71893 4.11727 6.76659 4.11727 6.7691C4.11727 6.77035 4.12895 6.76533 4.14322 6.75906C4.1575 6.75279 4.19383 6.74652 4.22498 6.74652C4.25482 6.74652 4.29246 6.7553 4.30933 6.76533C4.3262 6.77662 4.33787 6.79669 4.33787 6.8155C4.33787 6.83306 4.33139 6.86191 4.3236 6.88198C4.31711 6.90079 4.25742 6.96852 4.19124 7.03249L4.07185 7.14787C4.16269 7.14787 4.20811 7.15164 4.23146 7.15665C4.25915 7.16334 4.27299 7.17421 4.27299 7.18926C4.27299 7.20055 4.25353 7.23442 4.23146 7.26326C4.20811 7.29086 4.16528 7.32974 4.13673 7.34855C4.10819 7.36862 3.97452 7.47774 3.83827 7.59187C3.70201 7.70726 3.57613 7.82516 3.55667 7.85401C3.53461 7.88787 3.51644 7.9393 3.50736 7.99448C3.49957 8.0434 3.47881 8.12743 3.46194 8.18262C3.44507 8.2378 3.41263 8.3256 3.39057 8.37702C3.36851 8.42845 3.33087 8.49367 3.30881 8.52001C3.28545 8.54634 3.24133 8.58146 3.20889 8.59777C3.15569 8.62411 3.1479 8.62536 3.12195 8.6078C3.10508 8.59902 3.0908 8.5777 3.0895 8.56265C3.08561 8.54133 3.07134 8.55387 3.01294 8.62912C2.97401 8.68055 2.91172 8.7696 2.87539 8.82855C2.83905 8.8875 2.80012 8.95397 2.78844 8.97655C2.77546 9.00038 2.75211 9.0217 2.72875 9.02922C2.70279 9.03759 2.68117 9.03759 2.66386 9.02922C2.64959 9.02295 2.63272 9.00665 2.62623 8.99536C2.61974 8.98282 2.5847 8.85865 2.54837 8.71943C2.51074 8.57519 2.48219 8.43346 2.48089 8.39333C2.47959 8.35319 2.4757 8.28797 2.47051 8.24658L2.46272 8.17384C2.36669 8.33689 2.34593 8.39207 2.31998 8.50872C2.30181 8.5915 2.26677 8.73322 2.24212 8.82228C2.21227 8.93265 2.1954 9.02922 2.19021 9.12329C2.18502 9.19855 2.17334 9.29888 2.16296 9.34655C2.15258 9.39295 2.13311 9.4519 2.12013 9.47824C2.10586 9.50332 2.07861 9.54095 2.05785 9.55976C2.0267 9.58987 2.01502 9.59363 1.97609 9.5861C1.95144 9.58234 1.90472 9.56478 1.87228 9.54973C1.82296 9.5259 1.8009 9.50207 1.73862 9.40424C1.66724 9.2901 1.66335 9.28133 1.6348 9.11702L1.60495 8.9477C1.56992 9.09319 1.54915 9.17221 1.53488 9.21736C1.51671 9.28007 1.50244 9.30265 1.47778 9.31519C1.45053 9.32773 1.43755 9.32648 1.40511 9.31143C1.37526 9.29763 1.36488 9.28132 1.35839 9.24621C1.3545 9.21987 1.32725 9.09194 1.2987 8.96024C1.25069 8.73824 1.2416 8.71065 1.16504 8.56516C1.08848 8.41841 1.08328 8.3996 1.06771 8.27668C1.05993 8.20394 1.03397 8.03838 1.01061 7.90669C0.976875 7.72106 0.966493 7.67841 0.960005 7.71228C0.954814 7.73611 0.936647 7.92299 0.918479 8.12618L0.886037 8.49617L0.926265 9.44939C1.01451 9.53719 1.01581 9.53844 1.04825 9.76671L1.08069 9.99498L1.00283 10.0891L1.11054 10.1643C1.09756 10.2809 1.09367 10.3236 1.09367 10.3336C1.09367 10.3437 1.06642 10.3725 1.03268 10.3963C0.998936 10.4202 0.967791 10.4427 0.961303 10.4465C0.954814 10.4503 0.984661 10.5406 1.02619 10.6472C1.09886 10.8353 1.10794 10.8504 1.3013 11.1263L1.50244 11.411C1.64778 11.4725 1.81258 11.5151 2.00204 11.5565C2.1967 11.5991 2.46402 11.6694 2.68982 11.7384C3.01034 11.8362 3.08561 11.855 3.24782 11.8751C3.35164 11.8876 3.43728 11.8964 3.43988 11.8939C3.44118 11.8914 3.40354 11.8625 3.35553 11.8299C3.30622 11.7986 3.18034 11.7308 3.07263 11.6819L2.87798 11.5904C2.7573 11.411 2.71058 11.342 2.69631 11.3207L2.67035 11.2831C2.88058 11.3006 2.94935 11.3182 3.13752 11.3834L3.3711 11.4624C3.59171 11.4411 3.66438 11.4336 3.67346 11.4298C3.68125 11.4273 3.55926 11.3608 3.40095 11.2831L3.11156 11.1414C3.09469 11.0448 3.0921 11.0159 3.09469 11.0134C3.09729 11.0122 3.1479 11.0097 3.20889 11.0084C3.26988 11.0084 3.41912 11.0109 3.5398 11.0172C3.73186 11.0247 3.77079 11.0235 3.83827 11.0046C3.88109 10.9921 3.90964 10.9808 3.90315 10.9783C3.89666 10.977 3.84605 10.9658 3.79285 10.9557C3.69941 10.9369 3.69293 10.9331 3.63453 10.8667L3.57224 10.7977C3.66957 10.75 3.74094 10.7312 3.80582 10.7224C3.89666 10.7112 3.93559 10.7124 4.02643 10.7287C4.08742 10.7387 4.14971 10.7513 4.16658 10.7538C4.19513 10.7601 4.19513 10.7588 4.18864 10.6535C4.18345 10.5632 4.18605 10.5418 4.20681 10.513C4.22757 10.4829 4.24314 10.4766 4.31711 10.4691L4.40276 10.4591C4.38978 10.2822 4.39108 10.2747 4.42482 10.2358L4.46115 10.1944C4.8829 10.2207 4.91664 10.2258 5.06198 10.2709L5.2203 10.3211C5.20862 10.1994 5.19824 10.1217 5.18786 10.0702C5.17748 10.0188 5.1658 9.96614 5.1619 9.95485C5.15671 9.93603 5.17877 9.926 5.30205 9.88963C5.38121 9.8658 5.48892 9.84322 5.53823 9.8382L5.62907 9.82817C6.08196 10.0539 6.1144 10.0665 6.10662 10.0426C6.10272 10.0263 6.08326 9.97993 6.06379 9.93854C6.04563 9.89715 5.99502 9.81814 5.95349 9.76295C5.8899 9.67892 5.87563 9.65132 5.86784 9.59363C5.86265 9.556 5.85746 9.50709 5.85746 9.48702C5.85487 9.45441 5.86135 9.44688 5.91067 9.42807C5.94181 9.41678 6.02357 9.40424 6.09364 9.40048L6.21952 9.39295C6.20524 9.22112 6.20784 9.18475 6.22471 9.14211L6.24547 9.08566C7.17331 8.86241 7.20316 8.85614 7.27453 8.86743C7.33812 8.87746 7.35239 8.88373 7.37316 8.92011L7.39911 8.96024C7.20446 9.05807 7.10843 9.11702 7.06171 9.15465L6.97477 9.22363C7.08248 9.43183 7.09026 9.45692 7.10194 9.57858C7.11362 9.68644 7.11232 9.74665 7.09545 9.88837C7.08377 9.98495 7.05133 10.2019 7.02278 10.3713C6.97606 10.6509 6.96179 10.7074 6.86576 10.9984C6.80866 11.174 6.7334 11.3884 6.69966 11.475C6.66592 11.5615 6.59974 11.7045 6.55302 11.7948C6.49333 11.9089 6.44012 11.9905 6.37264 12.0682C6.32073 12.1284 6.226 12.2187 6.16112 12.2677C6.09753 12.3166 5.98723 12.3918 5.91845 12.4357C5.84838 12.4796 5.7225 12.5486 5.63945 12.5887C5.5551 12.6301 5.41106 12.6891 5.31763 12.7204C5.22549 12.753 5.05549 12.8007 4.9413 12.8283C4.8271 12.8559 4.62856 12.8973 4.50009 12.9211C4.37161 12.9462 4.20811 12.9738 4.13673 12.9851C4.06536 12.9964 3.92002 13.0139 3.81231 13.024C3.68254 13.0365 3.48011 13.0428 3.2024 13.0428C2.80401 13.0428 2.77806 13.0415 2.56654 13.0064C2.44585 12.9863 2.24082 12.9474 2.11235 12.9186C1.98388 12.891 1.73862 12.8371 1.56732 12.7982C1.39603 12.7593 1.1884 12.7167 1.10664 12.7029C1.02489 12.6903 0.952219 12.679 0.944433 12.679C0.937944 12.6803 1.01321 12.7129 1.11313 12.7543C1.27015 12.8183 1.36099 12.8446 1.77495 12.9424C2.03968 13.0051 2.37448 13.0754 2.52112 13.0992C2.77417 13.1406 2.80272 13.1431 3.10897 13.1431C3.28545 13.1431 3.51904 13.1368 3.62804 13.1306C3.73575 13.123 3.94208 13.103 4.08483 13.0854C4.29765 13.0603 4.35734 13.0566 4.41574 13.0679C4.45467 13.0754 4.48841 13.0842 4.491 13.0867C4.4923 13.0904 4.45467 13.1118 4.40665 13.1356C4.33009 13.1732 4.28467 13.1832 4.05887 13.2159C3.91613 13.2372 3.72018 13.261 3.62415 13.2698C3.52812 13.2786 3.28286 13.2848 3.07912 13.2861C2.87019 13.2861 2.63531 13.2798 2.54058 13.2698C2.44845 13.261 2.14479 13.2146 1.86579 13.1669C1.58808 13.1193 1.3545 13.0816 1.34801 13.0829C1.34152 13.0854 1.36488 13.108 1.39992 13.1331C1.44793 13.1682 1.49854 13.1895 1.60625 13.2171C1.68541 13.2384 1.89174 13.2773 2.06693 13.3049C2.24212 13.3325 2.49257 13.3651 2.62493 13.3764C2.80531 13.394 2.9805 13.399 3.33217 13.3977C3.79285 13.3977 3.80323 13.3965 4.06536 13.3563C4.30803 13.32 4.35604 13.3074 4.61039 13.2221C4.76351 13.172 5.07366 13.0754 5.29816 13.0102C5.70174 12.8935 5.70953 12.8898 5.90807 12.7831C6.01837 12.7229 6.24028 12.5988 6.40119 12.506C6.6218 12.3768 6.73599 12.3015 6.86836 12.1949C6.96439 12.1184 7.13698 11.9591 7.25117 11.8437C7.36667 11.7271 7.53018 11.5527 7.61582 11.4562C7.70147 11.3596 7.83643 11.199 7.91559 11.0987C7.99345 10.9984 8.08688 10.8742 8.12322 10.8228C8.15955 10.7714 8.21406 10.6785 8.2465 10.6158C8.27894 10.5531 8.33993 10.4152 8.38405 10.3085C8.44245 10.1643 8.471 10.1104 8.49306 10.0991C8.52161 10.0853 8.5255 10.0891 8.56443 10.1681C8.58779 10.2145 8.61244 10.2759 8.62023 10.306C8.62672 10.3349 8.6397 10.3813 8.64618 10.4089C8.65397 10.439 8.66695 10.4591 8.67863 10.4591C8.69031 10.4591 8.70328 10.4791 8.71107 10.5092C8.72275 10.5544 8.72015 10.5682 8.67992 10.6447C8.65137 10.7011 8.62023 10.74 8.58649 10.7626C8.55794 10.7814 8.5242 10.7977 8.50993 10.7977L8.48397 10.7964C8.5242 10.8378 8.55794 10.8541 8.58519 10.8617C8.62023 10.8692 8.65397 10.8679 8.70847 10.8541C8.7487 10.8441 8.78374 10.8378 8.78504 10.8391C8.78633 10.8403 8.79931 10.878 8.81229 10.9231C8.82656 10.9683 8.84213 11.0385 8.84732 11.0799C8.85511 11.1464 8.85252 11.1627 8.82397 11.2179C8.8058 11.253 8.76038 11.3094 8.72145 11.3445C8.68382 11.3809 8.62672 11.4248 8.59428 11.4436C8.56183 11.4637 8.51382 11.485 8.48787 11.4925L8.43855 11.5063C8.52809 11.5653 8.54886 11.569 8.6384 11.569C8.72794 11.569 8.75389 11.564 8.81229 11.5339C8.84862 11.5151 8.89145 11.5001 8.90572 11.5001C8.92389 11.5001 8.93557 11.5126 8.94595 11.5477C8.95763 11.5828 8.95763 11.6054 8.94595 11.638C8.93816 11.6619 8.89015 11.7522 8.84084 11.8387C8.77206 11.9591 8.73053 12.0156 8.66305 12.0795C8.61504 12.1259 8.5255 12.1924 8.46451 12.2275C8.40352 12.2626 8.34642 12.2902 8.33863 12.2902C8.32955 12.2902 8.32176 12.294 8.32176 12.3003C8.32176 12.3053 8.34512 12.3241 8.37367 12.3442L8.42558 12.378C8.63191 12.3391 8.75259 12.3065 8.82786 12.2815C8.92648 12.2476 8.98618 12.235 9.04457 12.2338C9.08869 12.2338 9.12892 12.2388 9.13541 12.2438C9.1406 12.2501 9.14579 12.2877 9.14579 12.3266C9.14579 12.3868 9.1393 12.4081 9.10686 12.452C9.08091 12.488 9.02467 12.5323 8.93816 12.585C8.86679 12.6289 8.73702 12.6979 8.65008 12.7405C8.53458 12.7957 8.44634 12.8283 8.33214 12.8559C8.19848 12.8885 8.15825 12.8935 8.08169 12.8872L7.99085 12.8785C8.0765 12.9512 8.14398 12.9838 8.23741 13.0164C8.37886 13.0679 8.38146 13.0679 8.6916 13.0879L9.00305 13.1067C9.3651 13.0189 9.57013 12.9612 9.69082 12.9211C9.88417 12.8571 9.93478 12.8346 10.1022 12.7355L10.2929 12.6226C10.3059 12.506 10.3059 12.4483 10.302 12.4194L10.2942 12.3655C10.5369 12.2488 10.6096 12.2225 10.681 12.21C10.7355 12.1999 10.8159 12.1886 10.8587 12.1836C10.9016 12.1799 10.9833 12.1673 11.0404 12.156C11.1092 12.1422 11.2078 12.136 11.3324 12.136C11.5063 12.136 11.527 12.1385 11.6114 12.1698C11.6607 12.1886 11.7334 12.2275 11.7723 12.2564C11.8229 12.2952 11.8528 12.3316 11.8839 12.3906C11.9073 12.4357 11.9306 12.4934 11.9345 12.5198C11.9384 12.5448 11.9449 12.5862 11.9488 12.6101L11.9553 12.654C12.0604 12.6076 12.137 12.5762 12.1928 12.5549L12.2927 12.516C12.2304 12.4069 12.1953 12.3743 12.111 12.3178C12.05 12.2777 11.9488 12.215 11.8839 12.1799C11.8203 12.1447 11.7152 12.0958 11.6503 12.0732C11.5789 12.0469 11.4855 12.0243 11.4102 12.0143C11.3428 12.0055 11.2403 11.9855 11.1832 11.9679C11.1261 11.9516 11.078 11.9365 11.0754 11.9353C11.0742 11.934 11.1092 11.919 11.152 11.9014C11.2013 11.8826 11.2415 11.8563 11.2558 11.8362C11.2701 11.8161 11.2792 11.7986 11.2779 11.7961C11.2753 11.7936 11.2312 11.771 11.1806 11.7459C11.1287 11.7208 10.9989 11.6443 10.8912 11.5753C10.7848 11.5063 10.6861 11.4499 10.6745 11.4499C10.6615 11.4499 10.6031 11.4273 10.5447 11.3997C10.4461 11.3533 10.4344 11.3445 10.4019 11.2843C10.3669 11.2191 10.3656 11.2141 10.3669 11.0109C10.3682 10.8968 10.376 10.745 10.3851 10.6723C10.3981 10.5619 10.4084 10.5255 10.4513 10.444C10.4785 10.3901 10.5551 10.2195 10.6187 10.064C10.6835 9.90719 10.8172 9.62373 10.9184 9.42807C11.0196 9.23241 11.1689 8.95146 11.2519 8.80346C11.3337 8.65546 11.4193 8.51624 11.4414 8.49367C11.4816 8.45353 11.4816 8.45353 11.518 8.47485C11.5387 8.48614 11.5958 8.54384 11.6438 8.60279C11.6931 8.66173 11.8009 8.76834 11.8839 8.84109C11.9683 8.91383 12.0902 9.01041 12.1577 9.05807C12.2252 9.10448 12.3381 9.17095 12.4095 9.20482L12.5392 9.26753C12.6353 9.19228 12.6859 9.15966 12.7144 9.14461C12.743 9.13082 12.8546 9.08566 12.961 9.04427C13.0687 9.00414 13.2205 8.94895 13.2984 8.92512C13.3918 8.89502 13.4645 8.86241 13.5073 8.83231C13.5436 8.80597 13.6449 8.7257 13.7318 8.65295C13.8382 8.5639 13.9187 8.48363 13.9797 8.40587C14.0303 8.3419 14.0692 8.28672 14.0679 8.28421C14.0653 8.2817 13.9965 8.29048 13.9148 8.30302C13.833 8.31557 13.6786 8.33563 13.5709 8.34567C13.4528 8.35696 13.2867 8.3858 13.1491 8.41716C13.0142 8.44726 12.8663 8.49116 12.7858 8.52377C12.7105 8.55387 12.6482 8.57645 12.6482 8.57519C12.6469 8.57268 12.6418 8.55387 12.6379 8.5338C12.6288 8.49994 12.634 8.49116 12.6976 8.4435C12.7547 8.3996 12.7988 8.38079 12.961 8.33313C13.0687 8.30177 13.2893 8.23279 13.4541 8.18011C13.6513 8.1174 13.8071 8.05845 13.9148 8.00577C14.0432 7.94431 14.1081 7.90167 14.2262 7.80635C14.308 7.73987 14.4222 7.64079 14.4793 7.5856C14.5467 7.52164 14.5935 7.48652 14.6129 7.48652C14.6285 7.48652 14.7116 7.52038 14.7972 7.56177C14.8828 7.60316 14.9555 7.63452 14.9594 7.63075C14.9633 7.62699 14.9568 7.60567 14.9451 7.58435C14.9335 7.56177 14.8958 7.51035 14.8634 7.47021C14.8309 7.42882 14.7712 7.36987 14.7323 7.33726C14.6934 7.30465 14.6051 7.23818 14.5377 7.18926C14.4559 7.13157 14.2288 7.00615 13.8694 6.81801C13.5449 6.64994 13.3036 6.53205 13.2724 6.52703C13.2387 6.52201 13.1933 6.52703 13.1427 6.53957C13.0998 6.55086 13.0064 6.58598 12.935 6.61608C12.8637 6.64618 12.7352 6.68757 12.6495 6.70764C12.5639 6.72771 12.3913 6.76157 12.2667 6.78289C12.1344 6.80421 11.9618 6.82428 11.8515 6.8293C11.6659 6.83682 11.662 6.83682 11.527 6.79794C11.4518 6.77537 11.3934 6.7553 11.3973 6.75279C11.4012 6.75028 11.4531 6.73272 11.5141 6.71516C11.6179 6.68506 11.6399 6.68381 11.9099 6.68381L12.1953 6.68506C12.22 6.63489 12.2278 6.59727 12.2278 6.56842C12.2278 6.52828 12.2187 6.50069 12.1902 6.46432C12.1707 6.43672 12.1499 6.40161 12.1447 6.38655C12.1395 6.369 12.146 6.34516 12.1603 6.3251C12.1746 6.30503 12.1992 6.29123 12.2278 6.28747C12.2524 6.28371 12.3044 6.27242 12.342 6.26239C12.3926 6.24859 12.4185 6.23354 12.4458 6.19967C12.4653 6.17459 12.4977 6.14574 12.5198 6.13571C12.5509 6.12066 12.5717 6.1194 12.6171 6.13069C12.6495 6.13696 12.8364 6.15201 13.0324 6.16456C13.2594 6.17835 13.4268 6.18211 13.493 6.17584L13.5968 6.16581C13.3762 6.09432 13.2244 6.03286 13.1167 5.98269C13.0103 5.93252 12.8779 5.8673 12.8247 5.8372C12.7624 5.80208 12.7248 5.77198 12.7183 5.75317C12.7118 5.7331 12.7157 5.71679 12.7313 5.70174C12.7508 5.68168 12.7806 5.67917 13.0129 5.67917H13.2724C12.961 5.52741 12.7832 5.45341 12.6768 5.41578C12.5224 5.36185 12.4782 5.34052 12.4601 5.31419C12.4393 5.28408 12.438 5.27405 12.4523 5.24269C12.4627 5.21636 12.5198 5.1712 12.6301 5.09595C12.7196 5.037 12.804 4.98307 12.8182 4.9768C12.8325 4.97178 12.8909 4.95422 12.948 4.93917C13.0388 4.91659 13.0713 4.91408 13.2075 4.92161C13.2932 4.92537 13.4307 4.94293 13.5125 4.96049C13.6202 4.98181 13.7331 5.01944 13.9148 5.09093C14.0536 5.14612 14.2963 5.25775 14.4533 5.33802C14.6103 5.41829 14.7959 5.52364 14.866 5.57256L14.9932 5.66161C14.8595 5.7193 14.8491 5.7193 14.7388 5.70676C14.6739 5.69923 14.6051 5.6892 14.5831 5.68418L14.5442 5.67541C14.6103 5.75693 14.6895 5.81212 14.8063 5.8811C14.9672 5.97517 15.0165 6.01405 15.2371 6.21347C15.3747 6.33764 15.52 6.47811 15.5602 6.52703C15.6005 6.57594 15.642 6.63238 15.6524 6.65245C15.6628 6.67252 15.6718 6.72645 15.6718 6.7716C15.6731 6.81676 15.6679 6.88198 15.6628 6.91584L15.6524 6.97855C15.4967 6.8293 15.4318 6.78791 15.2553 6.69133C15.132 6.62486 15.0282 6.57344 15.0243 6.5772C15.0204 6.58096 15.0438 6.63238 15.0749 6.69384C15.1061 6.75405 15.2164 6.9334 15.3189 7.09143C15.4227 7.24947 15.5486 7.44262 15.5992 7.51787C15.6615 7.61069 15.7108 7.7035 15.7497 7.80008C15.7808 7.87909 15.8237 8.00075 15.8457 8.06974C15.8678 8.13872 15.8989 8.2654 15.9132 8.35194C15.9288 8.43848 15.9482 8.51373 15.956 8.51875C15.9651 8.52377 15.9963 8.52502 16.0274 8.52126L16.0819 8.51499C16.1118 8.6078 16.1208 8.65546 16.1208 8.6818C16.1208 8.70814 16.1144 8.73072 16.1053 8.73322C16.0962 8.73573 16.0456 8.73448 15.9924 8.72946L15.8963 8.72194C15.9106 8.77963 15.9184 8.95522 15.9223 9.14838L15.9288 9.49956C15.8665 9.73787 15.8483 9.81061 15.8483 9.81688C15.847 9.8219 15.8587 9.81061 15.8743 9.7918C15.8886 9.77173 15.9236 9.74539 15.9521 9.73159L16.004 9.70651C16.043 9.78051 16.0456 9.81312 16.0391 9.93227C16.0352 10.0113 16.0196 10.1355 16.004 10.2082C15.9898 10.2809 15.9599 10.3851 15.9379 10.4402C15.9171 10.4954 15.9028 10.5418 15.9067 10.5443C15.9106 10.5456 15.9314 10.523 15.9521 10.4942C15.9742 10.4641 16.0118 10.3901 16.0365 10.3274C16.0611 10.2646 16.0988 10.1442 16.1208 10.0577C16.1429 9.97115 16.1805 9.85075 16.2052 9.78804C16.2298 9.72532 16.2649 9.59865 16.283 9.50583C16.3012 9.41302 16.3181 9.33526 16.3194 9.334C16.3207 9.33149 16.3337 9.33902 16.3479 9.3478C16.3713 9.3641 16.3739 9.37915 16.3713 9.52715C16.3713 9.61495 16.3596 9.77549 16.3479 9.8821C16.3376 9.98871 16.3129 10.1618 16.2947 10.2646C16.2766 10.3713 16.2376 10.528 16.2052 10.6284C16.1572 10.7764 16.1312 10.829 16.0482 10.9607C15.9937 11.0473 15.8847 11.2141 15.8055 11.3307C15.7103 11.4729 15.6225 11.5858 15.5421 11.6694C15.4759 11.7384 15.4227 11.7961 15.424 11.7973C15.4253 11.7998 15.4733 11.7873 15.5304 11.771C15.5875 11.7547 15.6926 11.7321 15.764 11.7208C15.8418 11.707 15.9145 11.702 15.9457 11.7083C15.9742 11.712 16.0183 11.7258 16.043 11.7384C16.0676 11.7509 16.104 11.7772 16.1234 11.7973C16.1416 11.8161 16.1611 11.8538 16.165 11.8801C16.1727 11.9252 16.1702 11.929 16.0222 12.0682C15.9392 12.1447 15.8457 12.2212 15.8146 12.2376L15.7575 12.2651C15.7147 12.1962 15.7082 12.1937 15.6835 12.2062C15.6636 12.2162 15.6429 12.2505 15.6212 12.309C15.6005 12.368 15.5576 12.4382 15.4941 12.5223C15.4357 12.5975 15.3591 12.6778 15.302 12.7254C15.2345 12.7794 15.1969 12.822 15.1735 12.8659C15.145 12.9236 15.1372 12.9299 15.0996 12.9299C15.0606 12.9299 15.0554 12.9249 15.0438 12.8835C15.0351 12.8517 15.0351 12.8224 15.0438 12.7957C15.0503 12.7731 15.0541 12.7518 15.0503 12.748C15.0464 12.7443 15.0399 12.7443 15.0347 12.7468C15.0282 12.7493 14.9983 12.7957 14.9672 12.8496C14.9361 12.9036 14.8699 13.0051 14.8193 13.0741C14.7635 13.1519 14.6363 13.2924 14.4871 13.4404C14.2729 13.6536 14.2366 13.6862 14.1613 13.7175C14.1146 13.7389 14.0342 13.7702 13.9836 13.7878C13.9316 13.8053 13.8914 13.8242 13.894 13.8304C13.8966 13.8354 13.9368 13.8555 13.9849 13.8768C14.0497 13.9057 14.0718 13.922 14.0783 13.9458C14.0822 13.9634 14.0809 13.9972 14.077 14.0211C14.0718 14.0449 14.051 14.085 14.0316 14.1089C14.0108 14.1365 13.9485 14.1779 13.8681 14.2205C13.798 14.2569 13.5904 14.3672 13.4087 14.4638C13.227 14.5591 12.9584 14.7122 12.8117 14.8025C12.6651 14.8928 12.3342 15.1072 12.076 15.2803C11.8177 15.4534 11.6075 15.5964 11.6088 15.5989C11.6101 15.6002 11.9332 15.4484 12.3251 15.2615C12.7183 15.0746 13.1725 14.8614 13.3373 14.7862C13.5021 14.7122 13.7733 14.5917 13.9407 14.519C14.1081 14.4463 14.3534 14.3434 14.4858 14.2907C14.6181 14.2368 14.8634 14.149 15.0308 14.0938C15.1982 14.0399 15.4551 13.9621 15.6018 13.9207C15.8081 13.863 15.908 13.8417 16.043 13.8267C16.139 13.8166 16.2195 13.8091 16.2221 13.8116C16.2234 13.8129 16.1714 13.8492 16.1053 13.8919C15.9859 13.9696 15.982 13.9709 15.6212 14.0712C15.4123 14.1289 15.1061 14.2255 14.901 14.2995C14.6298 14.3961 14.4689 14.4626 14.2262 14.5792C14.051 14.6645 13.7123 14.8351 13.4736 14.9592C13.2348 15.0834 12.9104 15.2565 12.7534 15.3443C12.5963 15.4321 12.2784 15.6177 12.0461 15.7557C11.8138 15.8949 11.4907 16.0805 11.3259 16.1683C11.0819 16.3 10.9664 16.3715 10.6939 16.5647C10.511 16.6938 10.3682 16.8005 10.376 16.803C10.3851 16.8042 10.4409 16.7904 10.5019 16.7703C10.5888 16.7428 10.6758 16.6976 10.9106 16.5534C11.0754 16.4518 11.2558 16.3477 11.3129 16.3201C11.37 16.2925 11.4479 16.2624 11.4855 16.2549C11.5219 16.2473 11.5556 16.2411 11.5595 16.2411C11.5634 16.2411 11.566 16.2536 11.566 16.2699C11.566 16.29 11.5426 16.3151 11.479 16.3602C11.4297 16.3941 11.2195 16.5433 11.0106 16.6926C10.8029 16.8406 10.6329 16.9635 10.6342 16.966C10.6368 16.9685 10.7977 16.8933 10.9924 16.7992C11.1858 16.7064 11.4232 16.6023 11.518 16.5672C11.6529 16.5182 11.7217 16.5007 11.8385 16.4869C11.9202 16.4769 12.0435 16.4643 12.111 16.4606C12.1785 16.4568 12.3511 16.4417 12.4938 16.4279C12.6366 16.4141 12.826 16.3916 12.9156 16.3765C13.0051 16.3627 13.083 16.3464 13.0882 16.3427C13.0933 16.3389 13.0713 16.3138 13.0388 16.2887C13.0064 16.2624 12.9688 16.2185 12.9545 16.1909C12.9402 16.162 12.9285 16.1156 12.9285 16.0818C12.9285 16.0479 12.9337 16.0053 12.9402 15.9839C12.948 15.9626 12.9727 15.9313 12.996 15.9137C13.022 15.8936 13.0817 15.8698 13.1427 15.8548C13.1998 15.8397 13.3866 15.8109 13.5579 15.7908C13.7292 15.7695 13.9615 15.7469 14.0744 15.7394C14.2106 15.7306 14.2976 15.7306 14.3365 15.7394C14.369 15.7456 14.3949 15.7544 14.3949 15.7582C14.3949 15.7619 14.3897 15.7745 14.3832 15.787C14.3781 15.7983 14.1471 15.9237 13.872 16.0655C13.5968 16.2072 13.3736 16.3238 13.3736 16.3264C13.3749 16.3276 13.4411 16.3176 13.519 16.3038C13.6397 16.2825 13.7033 16.2611 13.9278 16.1646C14.0744 16.1018 14.2729 16.0241 14.369 15.9915C14.465 15.9576 14.5857 15.925 14.635 15.9162C14.7103 15.9037 14.7544 15.9049 14.8945 15.9212L15.0632 15.9426C15.6264 15.7093 15.8198 15.6328 15.8548 15.6227C15.8911 15.6114 16.0079 15.5939 16.1144 15.5838C16.2221 15.5738 16.3674 15.5613 16.4388 15.5563C16.553 15.5487 16.5971 15.5374 16.8021 15.4685L17.0357 15.3882C17.2901 15.3882 17.512 15.3694 17.7949 15.338C18.0414 15.3104 18.2542 15.2866 18.2685 15.2841C18.2828 15.2828 18.2426 15.2715 18.1777 15.259C18.0894 15.2439 17.9233 15.2352 17.4899 15.2251C17.1473 15.2176 16.8592 15.2038 16.7697 15.1938C16.6879 15.1825 16.5828 15.1637 16.5361 15.1499C16.4816 15.1336 16.4362 15.1097 16.4089 15.0834C16.3856 15.0621 16.3674 15.0307 16.3674 15.0157C16.3674 14.9994 16.3869 14.968 16.4102 14.9467C16.4336 14.9241 16.5283 14.8677 16.6204 14.8225C16.7632 14.751 16.8346 14.726 17.0876 14.657C17.2524 14.6118 17.403 14.5704 17.425 14.5667C17.4471 14.5629 17.4873 14.5642 17.5158 14.5717C17.5574 14.5817 17.5781 14.598 17.6223 14.657C17.6534 14.6971 17.7053 14.7598 17.7391 14.7962L17.8013 14.8639C17.9519 14.8075 18.0492 14.7598 18.1128 14.7222C18.1777 14.6833 18.288 14.6193 18.3593 14.5817C18.4307 14.5428 18.676 14.4287 18.9044 14.3284L19.3196 14.1465C19.7323 14.0562 19.8556 14.0273 19.8608 14.0223C19.866 14.0186 19.827 14.011 19.7738 14.006C19.6947 13.9972 19.6272 14.0035 19.4208 14.0336C19.2794 14.0549 19.0718 14.0951 18.9602 14.1214C18.8304 14.1528 18.7253 14.1716 18.6747 14.1716C18.6293 14.1716 18.5618 14.1628 18.5254 14.1528C18.4735 14.139 18.4515 14.1252 18.4385 14.1001C18.4229 14.0687 18.4229 14.0612 18.4502 14.0273C18.4683 14.0048 18.5086 13.9784 18.5553 13.9609C18.5981 13.9458 18.9615 13.8492 19.365 13.7476L20.0982 13.562C19.9672 13.5106 19.8569 13.483 19.7673 13.468C19.6116 13.4429 19.5792 13.4416 18.9628 13.4504C18.5112 13.4554 18.2283 13.4654 18.009 13.483C17.8377 13.4955 17.6962 13.5056 17.6936 13.5043C17.6923 13.5018 17.7468 13.468 17.8169 13.4291C17.9441 13.3563 17.9454 13.3563 18.2166 13.3062L18.4891 13.2547L19.9295 13.2698C20.0905 13.1306 20.2046 13.0415 20.2864 12.9826C20.4123 12.8923 20.4772 12.8571 20.6952 12.7606C20.8379 12.6979 21.0183 12.6088 21.0975 12.5611C21.1766 12.5135 21.2415 12.4746 21.2428 12.4733C21.2454 12.4733 21.2376 12.4445 21.2272 12.4094C21.2117 12.3605 21.2104 12.3329 21.2207 12.284C21.2298 12.2413 21.2519 12.1999 21.2895 12.1548C21.3194 12.1184 21.4076 12.0319 21.4868 11.9629C21.5711 11.8889 21.732 11.7697 21.8787 11.6719C22.0162 11.5803 22.1278 11.5051 22.1252 11.5038C22.1239 11.5026 22.0097 11.5126 21.8735 11.5264L21.623 11.5502L21.4478 11.4649C21.0209 11.4499 20.9171 11.4411 20.8963 11.4311C20.8781 11.4223 20.7795 11.4085 20.6757 11.401C20.5109 11.3884 20.4837 11.3834 20.4577 11.3583L20.4279 11.3307L20.5978 11.1865C21.1117 11.1865 21.1429 11.184 21.3155 11.1476C21.4167 11.1276 21.5075 11.1075 21.5166 11.1037C21.5257 11.1012 21.5192 11.0887 21.4971 11.0711C21.4621 11.0448 21.4543 11.0448 21.2078 11.0536L20.9547 11.0623L20.8574 10.9984C20.9015 10.9369 20.9729 10.903 21.235 10.8002C21.4932 10.6999 21.5776 10.6723 21.6269 10.6723C21.6749 10.6723 21.6905 10.6773 21.7009 10.6974C21.71 10.7149 21.7087 10.735 21.6931 10.7701C21.6814 10.7952 21.6516 10.8403 21.6256 10.8704C21.5984 10.8993 21.5802 10.9256 21.5841 10.9281C21.588 10.9306 21.6113 10.9382 21.636 10.9469C21.6607 10.9545 21.7061 10.9607 21.7372 10.9607C21.7813 10.9607 21.7956 10.967 21.8112 10.9921C21.8293 11.0209 21.8384 11.0235 21.9319 11.0235C21.9864 11.0235 22.0785 11.0322 22.1356 11.0423C22.1927 11.0536 22.2965 11.0761 22.3666 11.0924L22.4925 11.1238L22.6067 11.0423C22.4925 11.031 22.4276 11.0159 22.3887 11.0009C22.3497 10.9858 22.2939 10.957 22.2654 10.9369C22.2355 10.9156 22.1758 10.8918 22.1265 10.8805L22.0383 10.8604C22.0383 10.7751 22.05 10.7337 22.0681 10.7036C22.0837 10.676 22.12 10.6271 22.1486 10.5933C22.1979 10.5368 22.2264 10.523 22.6988 10.311L23.1971 10.0891C22.9843 10.069 22.8805 10.0753 22.4211 10.1192C22.1213 10.148 21.8605 10.1693 21.841 10.1656C21.8203 10.1605 21.8021 10.1493 21.7982 10.1392C21.7943 10.1292 21.7969 10.1104 21.8034 10.0991C21.8086 10.0865 21.8216 10.0727 21.8319 10.069C21.8423 10.064 22.0344 9.99122 22.2589 9.90719C22.4834 9.82315 22.6689 9.75166 22.6715 9.74915C22.6728 9.74664 22.6119 9.71027 22.5353 9.67014C22.4496 9.62498 22.3899 9.5836 22.3809 9.56604C22.3705 9.54471 22.3705 9.52966 22.3809 9.50834C22.3912 9.48827 22.5067 9.42932 22.813 9.28885C23.044 9.18475 23.2308 9.09695 23.2283 9.0957C23.227 9.09319 23.1205 9.08566 22.9921 9.07939C22.8234 9.06936 22.6612 9.06936 22.4081 9.07939L22.0577 9.09444C21.8774 9.18224 21.8034 9.22488 21.7787 9.24495C21.7398 9.27631 21.7268 9.28007 21.6879 9.27254C21.6594 9.26753 21.6113 9.23868 21.5594 9.19353C21.514 9.15465 21.4608 9.0957 21.4413 9.06058C21.4206 9.02672 21.4011 8.97655 21.3972 8.95146C21.3907 8.91258 21.3946 8.90129 21.4154 8.89126C21.4297 8.88499 21.4517 8.87872 21.4647 8.87872C21.4764 8.87872 21.5062 8.89502 21.5309 8.91383L21.5763 8.9477C21.5594 8.89878 21.5465 8.86994 21.5374 8.85112C21.5244 8.82604 21.5036 8.81224 21.4673 8.80346C21.4219 8.79217 21.4167 8.78716 21.4232 8.76333C21.4284 8.74702 21.4323 8.73448 21.4336 8.73448C21.4336 8.73448 21.4465 8.72821 21.4608 8.72068C21.4751 8.71316 21.4881 8.69309 21.4894 8.67678C21.492 8.66048 21.5036 8.63665 21.5153 8.62536C21.5361 8.60655 21.5763 8.60279 21.8371 8.60028L22.1356 8.59651C22.1784 8.50872 22.2148 8.46482 22.2446 8.4435C22.2745 8.42092 22.3251 8.39333 22.3601 8.38329C22.3938 8.37326 22.5158 8.35445 22.6313 8.3419C22.7468 8.33062 22.8351 8.31682 22.826 8.31306C22.8169 8.30804 22.7818 8.29926 22.7455 8.29048C22.7105 8.28296 22.5755 8.27041 22.447 8.26414C22.2264 8.25035 22.207 8.2516 22.1032 8.27668C22.0175 8.29801 21.9773 8.30052 21.9241 8.29299C21.8735 8.28546 21.8501 8.27543 21.8358 8.25536C21.8255 8.23906 21.8177 8.21774 21.8177 8.2077C21.8177 8.19767 21.8255 8.17509 21.8345 8.15753C21.8449 8.13621 21.8735 8.1174 21.9215 8.10109C21.9604 8.08729 22.0681 8.05343 22.1616 8.02709C22.255 8.00075 22.4302 7.96062 22.5509 7.9393C22.6715 7.91672 22.9025 7.88662 23.0634 7.87157L23.3554 7.84272C22.8921 7.77123 22.7118 7.7474 22.6547 7.74364L22.5509 7.73611C22.2693 7.53543 22.1706 7.47272 22.1486 7.4677C22.1187 7.46143 22.0642 7.47523 21.902 7.53418C21.7878 7.57557 21.6126 7.63452 21.5127 7.66587C21.3596 7.71479 21.3051 7.72608 21.1662 7.73736L21.0001 7.74991C20.7406 7.61821 20.7056 7.59438 20.6991 7.5693C20.6913 7.54547 20.6978 7.52164 20.7211 7.48025C20.7536 7.42506 20.7549 7.42381 20.8418 7.41126C20.8898 7.40374 21.0105 7.38994 21.1104 7.37991C21.2649 7.3636 21.3142 7.35357 21.4387 7.30716C21.5192 7.27831 21.5841 7.24821 21.5841 7.24194C21.5841 7.23567 21.5698 7.21184 21.5529 7.19177C21.5361 7.1717 21.5049 7.11903 21.4816 7.07638C21.4478 7.00991 21.4413 6.98232 21.4413 6.90706C21.44 6.83557 21.4452 6.81049 21.4634 6.79418C21.4764 6.78164 21.5075 6.76659 21.5322 6.76032C21.5672 6.75028 21.5867 6.75154 21.6165 6.76784C21.6386 6.77913 21.6866 6.79794 21.7242 6.81049C21.7904 6.83432 21.7917 6.83432 21.7982 6.80923C21.8021 6.79544 21.793 6.76283 21.7787 6.73774C21.758 6.70011 21.7307 6.68005 21.6555 6.64367L21.5581 6.59601C21.4699 6.65245 21.4452 6.65872 21.3804 6.65872C21.3155 6.65872 21.2791 6.64994 21.2052 6.61608C21.1416 6.58849 21.0741 6.56967 21.0001 6.56089C20.9391 6.55337 20.8055 6.54083 20.7017 6.5333C20.5978 6.52577 20.4668 6.50822 20.4097 6.49442C20.3344 6.47561 20.2877 6.45554 20.241 6.42042C20.1852 6.37903 20.1631 6.3715 20.0853 6.36398C20.0359 6.35896 19.9789 6.34642 19.9594 6.33764C19.936 6.32635 19.9231 6.31005 19.9231 6.29249C19.9218 6.27117 19.936 6.25737 19.9711 6.24106C20.0126 6.221 20.0372 6.21849 20.1307 6.22601C20.2228 6.23354 20.2579 6.24357 20.3448 6.28496L20.4486 6.33513C21.043 6.31883 21.1182 6.32133 21.2207 6.33764C21.2882 6.34893 21.357 6.36022 21.3739 6.36398L21.4024 6.37025C21.3648 6.2975 21.3427 6.27117 21.3297 6.26615C21.3168 6.26113 21.2298 6.24733 21.1364 6.2373C21.043 6.22727 20.9547 6.21598 20.9391 6.21347C20.9223 6.20971 20.9093 6.20469 20.9093 6.20093C20.9093 6.19717 20.9171 6.17961 20.9275 6.16079C20.9365 6.14073 20.9664 6.11062 20.9923 6.09181C21.0222 6.06923 21.0546 6.05669 21.0845 6.05669C21.1117 6.05669 21.1299 6.05042 21.1299 6.04164C21.1299 6.03286 21.1247 6.01279 21.1195 5.99649C21.1143 5.98144 21.0962 5.96639 21.078 5.96262C21.0598 5.95886 21.0222 5.96513 20.9936 5.97642C20.9547 5.99147 20.9236 5.99398 20.8704 5.98771C20.8301 5.98269 20.7588 5.95886 20.7081 5.93503C20.6588 5.90995 20.5732 5.86103 20.52 5.82466C20.4668 5.78829 20.3876 5.72056 20.3448 5.6729C20.302 5.62524 20.2592 5.56378 20.2488 5.53618C20.2319 5.48978 20.2332 5.481 20.2617 5.41578C20.2929 5.34805 20.2942 5.3468 20.3578 5.33676C20.3941 5.33174 20.4447 5.32046 20.472 5.31293C20.4979 5.30415 20.5213 5.29537 20.5213 5.29161C20.5213 5.28785 20.5135 5.27907 20.5044 5.27029C20.4927 5.259 20.4746 5.25774 20.4421 5.26652C20.4175 5.2728 20.3396 5.28408 20.2708 5.29035C20.2008 5.29788 20.0347 5.30415 19.901 5.30415C19.7037 5.30415 19.6389 5.29913 19.5597 5.27907C19.4702 5.25774 19.4572 5.25022 19.3936 5.18249C19.3547 5.14236 19.2846 5.06459 19.2353 5.00941C19.1873 4.95422 19.1263 4.89402 19.1003 4.8752C19.0744 4.85514 19.0419 4.815 19.0276 4.78364C19.0134 4.75229 19.0017 4.70212 19.0017 4.67076C19.0017 4.63188 19.0173 4.58297 19.0523 4.51148C19.0796 4.45378 19.1107 4.39734 19.1198 4.38605C19.1315 4.37226 19.1717 4.35971 19.2288 4.35093C19.3144 4.33839 19.3274 4.33965 19.4429 4.37476C19.5104 4.39483 19.6752 4.46382 19.8102 4.52527C20.0476 4.6369 20.0528 4.63815 20.045 4.60554C20.0398 4.58548 20.0321 4.56165 20.0282 4.5491C20.0243 4.53782 19.9737 4.49392 19.9166 4.45127C19.8595 4.40863 19.7894 4.36097 19.7608 4.34466C19.7323 4.32961 19.6479 4.30202 19.5727 4.28446C19.4974 4.2669 19.3845 4.24934 19.3196 4.24432C19.256 4.23931 19.1003 4.21297 18.9757 4.18663C18.8512 4.15904 18.6993 4.12392 18.6383 4.10636C18.5761 4.09005 18.4567 4.06999 18.3658 4.06246C18.2711 4.05368 18.0674 4.01982 17.8792 3.98094C17.7014 3.94456 17.4588 3.89063 17.3407 3.86178C17.2226 3.83419 17.1045 3.80534 17.0785 3.79782C17.0513 3.79155 17.0292 3.78277 17.0292 3.77775C17.0292 3.77148 17.0344 3.76145 17.0396 3.75267C17.0448 3.74514 17.1045 3.72883 17.172 3.71755L17.2952 3.69748C18.5229 3.81287 18.6656 3.83043 18.7941 3.86178C18.8797 3.88185 18.9537 3.89941 18.9602 3.89941C18.9654 3.89941 18.9433 3.88436 18.9109 3.86555C18.8784 3.84673 18.7733 3.80283 18.6773 3.76646C18.5812 3.73134 18.3801 3.65233 18.2296 3.59212C18.0803 3.53192 17.9077 3.46545 17.8468 3.44538C17.7858 3.42531 17.6339 3.38392 17.5094 3.35382C17.3705 3.31995 17.22 3.27355 17.1201 3.23341L16.9578 3.16694C17.0591 3.12304 17.098 3.10924 17.111 3.10924C17.1227 3.10924 17.1356 3.10548 17.1382 3.10046C17.1408 3.09419 17.0669 3.08416 16.9734 3.07538C16.8787 3.0666 16.7827 3.05406 16.7606 3.04653C16.7269 3.0365 16.7165 3.02521 16.71 2.99385C16.7061 2.97128 16.7061 2.93867 16.71 2.92111C16.7152 2.90104 16.7359 2.88097 16.7658 2.86718C16.7969 2.85213 16.9617 2.82202 17.2083 2.78565C17.5911 2.72796 17.6015 2.7267 17.5587 2.70789C17.5262 2.69409 17.4471 2.68782 17.2304 2.68531C16.9552 2.6803 16.9332 2.6828 16.6529 2.72545C16.4115 2.76182 16.3116 2.7706 16.0754 2.77687L15.7899 2.7844C15.1216 2.92613 14.9438 2.95748 14.9205 2.95372C14.8958 2.94996 14.8751 2.93491 14.866 2.91484C14.8569 2.89728 14.8491 2.87596 14.8491 2.86843C14.8491 2.85965 14.8854 2.83708 14.9296 2.81826C14.975 2.79819 15.1722 2.73548 15.3682 2.67653C15.7095 2.57369 15.7445 2.56616 16.1663 2.49843L16.6075 2.42694C16.4362 2.40436 16.2908 2.39433 16.1727 2.38931C16.0547 2.3843 15.8159 2.37552 15.6407 2.36799C15.446 2.36047 15.2929 2.34792 15.2449 2.33664C15.18 2.32033 15.1463 2.32033 15.0438 2.33162C14.9763 2.3404 14.8452 2.36047 14.7518 2.37677C14.6583 2.39308 14.5403 2.41816 14.4897 2.43196C14.404 2.45453 14.391 2.45579 14.356 2.43823C14.321 2.42067 14.3171 2.4144 14.3235 2.37301C14.3274 2.34667 14.3508 2.30026 14.3742 2.26891C14.4157 2.21372 14.4274 2.2087 14.7596 2.07826L15.1022 1.94281C15.4434 1.92149 15.5525 1.91271 15.5628 1.90894C15.5732 1.90518 15.5187 1.88637 15.4396 1.8663C15.2981 1.82993 15.2955 1.82993 15.0957 1.84247C14.9244 1.85376 14.8699 1.86254 14.7258 1.90393C14.6324 1.93026 14.4429 1.98671 14.3041 2.02809C14.1652 2.07074 13.9511 2.13094 13.8304 2.16355C13.6111 2.22125 13.6085 2.22125 13.4736 2.21247L13.3373 2.20369C13.2919 2.26389 13.2789 2.29901 13.2789 2.31908C13.2789 2.3542 13.2737 2.35796 13.192 2.38304C13.1427 2.39809 13.0752 2.42569 13.0388 2.44575L12.974 2.48087C12.8338 2.45328 12.7456 2.4445 12.6885 2.4445C12.6314 2.4445 12.5561 2.43697 12.5198 2.42569C12.4808 2.4144 12.4367 2.41064 12.4095 2.41565C12.3848 2.41942 12.3381 2.43447 12.3057 2.44701C12.2732 2.46081 12.2122 2.50094 12.1694 2.53731C12.1266 2.57369 11.8644 2.76935 11.5854 2.97379C11.3077 3.17697 11.0521 3.35884 11.0183 3.3764C10.9574 3.40901 10.9561 3.40901 10.9496 3.38517C10.9457 3.37138 10.9509 3.34504 10.9613 3.32623C10.9716 3.30616 11.0145 3.25975 11.056 3.22087C11.0975 3.18199 11.3012 3.02396 11.5076 2.86843C11.8073 2.64392 11.9319 2.55864 12.124 2.44952C12.2563 2.37552 12.425 2.28898 12.5003 2.25887C12.5756 2.23003 12.6677 2.20118 12.7066 2.19616C12.7443 2.19115 12.778 2.18487 12.7806 2.18111C12.7832 2.17735 12.7663 2.16481 12.743 2.15352C12.7027 2.13345 12.6963 2.13345 12.4808 2.1924C12.3602 2.22501 12.1564 2.29274 12.0305 2.34165C11.9034 2.39182 11.7308 2.46582 11.6477 2.50596C11.5076 2.57494 11.4699 2.60128 11.2156 2.81575C11.0222 2.97755 10.9145 3.05907 10.8652 3.0804C10.8159 3.10172 10.7809 3.10924 10.7523 3.10423C10.7199 3.09796 10.7082 3.08918 10.703 3.06535C10.6991 3.04528 10.7082 3.01392 10.7277 2.98131C10.7458 2.95121 10.7938 2.89602 10.8354 2.8584C10.8769 2.82077 11.104 2.64267 11.3415 2.46331C11.5789 2.28396 11.771 2.13596 11.7697 2.13345C11.7684 2.1322 11.6996 2.15728 11.6179 2.19115C11.5141 2.23253 11.4167 2.28521 11.2999 2.36298C11.2065 2.42443 10.9937 2.56867 10.8263 2.6828C10.6589 2.79819 10.4253 2.94996 10.3072 3.02145C10.1891 3.09294 10.0412 3.17321 9.97631 3.2008C9.91272 3.22714 9.83486 3.26728 9.80372 3.28985C9.76479 3.31745 9.71158 3.38267 9.62593 3.5106C9.55975 3.61094 9.48708 3.72883 9.46372 3.77399C9.44037 3.81914 9.41052 3.8668 9.39754 3.8806C9.38327 3.89439 9.3651 3.91572 9.35602 3.92826C9.34304 3.94582 9.33396 3.94833 9.30151 3.93829C9.27945 3.93077 9.24701 3.90568 9.22755 3.8806C9.20678 3.85677 9.18213 3.81287 9.17175 3.78402C9.16007 3.75392 9.15228 3.71253 9.15228 3.69246C9.15228 3.67239 9.16655 3.63728 9.18342 3.61721C9.20029 3.59714 9.24182 3.52565 9.27556 3.46043C9.32617 3.36009 9.35731 3.32121 9.46762 3.21084C9.54029 3.13935 9.5909 3.08416 9.58052 3.08667C9.57013 3.09043 9.49357 3.13433 9.41182 3.18324C9.33006 3.23216 9.2548 3.27229 9.24701 3.27229C9.23793 3.27229 9.23014 3.2585 9.23014 3.24094C9.23014 3.22338 9.23663 3.19704 9.24571 3.18199C9.2535 3.16568 9.28075 3.12806 9.3067 3.09796C9.33266 3.06785 9.38197 3.0227 9.41831 2.99762C9.45334 2.97253 9.56754 2.88474 9.67135 2.80196C9.77517 2.71918 10.0658 2.5047 10.3176 2.32535C10.5694 2.14599 10.7731 1.99799 10.7718 1.99548C10.7692 1.99423 10.7069 2.01555 10.6316 2.04315C10.52 2.08328 10.4539 2.11965 10.2683 2.24508C10.1113 2.34918 9.97112 2.4307 9.8141 2.50721C9.68952 2.56741 9.50136 2.67026 9.39754 2.73423C9.27556 2.80948 9.15098 2.90104 9.05366 2.98507C8.96801 3.05907 8.83824 3.16568 8.76298 3.22087C8.68771 3.27731 8.57741 3.37514 8.51771 3.43911C8.45932 3.50307 8.3568 3.631 8.29192 3.72382C8.22703 3.81663 8.13879 3.9408 8.09337 3.99975C8.04665 4.06246 7.95322 4.15778 7.86887 4.23178C7.78971 4.30077 7.70407 4.36724 7.67941 4.37978C7.65475 4.39107 7.62231 4.3986 7.60804 4.39483C7.59376 4.39107 7.57689 4.37476 7.56911 4.35721C7.56262 4.33965 7.55613 4.31205 7.55613 4.29449C7.55613 4.27568 7.63269 4.14775 7.74948 3.97216C7.8546 3.81161 7.9675 3.64104 7.99994 3.59212C8.03238 3.54321 8.11673 3.4366 8.1881 3.35382C8.25818 3.27104 8.3568 3.16067 8.40481 3.10924C8.45283 3.05782 8.5826 2.9048 8.6916 2.7706C8.80191 2.6364 8.94854 2.47084 9.01862 2.40436L9.14579 2.2827C10.0204 1.87132 10.3565 1.7045 10.4565 1.64681C10.607 1.56027 10.6641 1.53518 10.7874 1.50006C10.8691 1.47623 11.0949 1.39471 11.287 1.3182C11.479 1.24295 11.7489 1.13884 11.8839 1.08993C12.0202 1.03976 12.1421 0.993353 12.1564 0.987081C12.1707 0.979556 12.2473 0.934404 12.3251 0.885489C12.4043 0.836573 12.547 0.736235 12.643 0.662235C12.7391 0.588235 12.8663 0.480371 12.9246 0.422677C13.0077 0.341151 13.0337 0.306033 13.0453 0.262135C13.0544 0.22827 13.057 0.179355 13.0518 0.136711C13.0466 0.0990844 13.0362 0.0551863 13.0272 0.0401355C13.0194 0.0238304 13.0012 0.00877963 12.9869 0.00501693C12.9727 0.00250847 12.9493 0 12.935 0C12.9208 0.00125423 12.8701 0.00627117 12.8221 0.0125423ZM13.8758 2.32033C13.9368 2.31531 14.0017 2.30904 14.0225 2.30779C14.042 2.30779 14.0575 2.30904 14.0575 2.31281C14.0575 2.31657 13.9654 2.37552 13.8538 2.4445C13.6565 2.56491 13.6449 2.56992 13.532 2.58874C13.4684 2.60003 13.4139 2.6063 13.4126 2.60504C13.4113 2.60253 13.4178 2.57369 13.4463 2.47586L13.6059 2.40311C13.7422 2.34165 13.7811 2.33036 13.8758 2.32033ZM10.459 3.18199C10.5084 3.15565 10.5577 3.13433 10.5706 3.13433C10.5836 3.13433 10.5953 3.14687 10.5992 3.16568C10.6044 3.18951 10.5927 3.21209 10.5551 3.25724C10.5278 3.28985 10.4474 3.36887 10.3773 3.43409C10.3059 3.49806 10.2333 3.56202 10.1775 3.59839L10.1255 3.4667L10.1684 3.40399C10.193 3.37012 10.2488 3.31619 10.2916 3.28484C10.3358 3.25348 10.411 3.20707 10.459 3.18199ZM12.6366 3.29738C12.6794 3.29236 12.7391 3.28734 12.7702 3.28734C12.8001 3.28609 12.8247 3.28734 12.8247 3.29111C12.8247 3.29487 12.7417 3.34128 12.6405 3.39646C12.5379 3.4504 12.3939 3.52439 12.3186 3.56077C12.2434 3.59714 12.0863 3.68243 11.9683 3.75267C11.8502 3.82165 11.6841 3.93077 11.5984 3.99473C11.5128 4.0587 11.3778 4.17409 11.2999 4.2531C11.2208 4.33087 11.1248 4.42995 11.0145 4.55287L10.7419 4.50897C10.5927 4.48388 10.4655 4.46005 10.459 4.45504C10.4539 4.44876 10.5551 4.35721 10.6848 4.2506C10.8665 4.10009 10.9509 4.03988 11.0573 3.98344C11.1338 3.94331 11.3934 3.81412 11.6347 3.69748C11.9176 3.56077 12.1577 3.45416 12.316 3.39521C12.4679 3.33877 12.5872 3.3024 12.6366 3.29738ZM7.30178 3.66487C7.44453 3.5244 7.56262 3.41026 7.56521 3.41026C7.56651 3.41026 7.56392 3.41779 7.56002 3.42656C7.55613 3.43409 7.42636 3.62473 7.27323 3.84924C7.04225 4.18663 6.97736 4.29073 6.9008 4.45127C6.85019 4.55788 6.7866 4.70839 6.76065 4.78364C6.7308 4.87144 6.70615 4.9768 6.67371 5.22263L6.72172 5.29788C6.74767 5.33927 6.77103 5.3769 6.77363 5.38317C6.77492 5.38819 6.71523 5.4371 6.63867 5.49103C6.56081 5.54622 6.48684 5.60642 6.47127 5.62649C6.45699 5.6453 6.38043 5.72557 6.30257 5.80334C6.22471 5.8811 6.15982 5.94256 6.15852 5.9413C6.15593 5.93879 6.16112 5.8811 6.16891 5.81212C6.17539 5.74313 6.21303 5.56879 6.25196 5.4233C6.31425 5.18876 6.33501 5.13483 6.43363 4.92788C6.49462 4.79995 6.59844 4.60053 6.66332 4.48263C6.72951 4.36473 6.84111 4.19039 6.91248 4.09382C7.0137 3.95585 7.09675 3.86429 7.30178 3.66487ZM17.9986 4.09883C18.0258 4.09507 18.0622 4.09005 18.0803 4.0888C18.0985 4.08755 18.1452 4.09883 18.2555 4.14273L18.0739 4.22677L17.9493 4.10636L17.9986 4.09883ZM13.0129 4.20168C13.2049 4.18914 13.3853 4.17785 13.4113 4.1766C13.4385 4.1766 13.6163 4.1929 14.1548 4.2506L14.3755 4.3271C14.4961 4.36849 14.5987 4.40487 14.6025 4.40737C14.6064 4.40988 14.5792 4.4149 14.5442 4.41992C14.5078 4.42368 14.3625 4.43748 14.2197 4.45127C14.077 4.46507 13.7707 4.48765 13.5384 4.50144C13.3062 4.51524 12.9999 4.53907 12.8572 4.55287C12.682 4.56917 12.5613 4.58798 12.4873 4.60931C12.4263 4.62687 12.2628 4.67578 12.124 4.71717C11.9644 4.76483 11.8177 4.81876 11.7282 4.86141C11.588 4.92914 11.5841 4.93039 11.527 4.91534C11.4946 4.90781 11.4466 4.89653 11.4193 4.89025C11.3934 4.88273 11.3713 4.87395 11.3713 4.86893C11.3713 4.86266 11.4894 4.77988 11.6335 4.68205C11.8034 4.56792 11.9566 4.47636 12.0656 4.42368C12.1915 4.36348 12.2888 4.32836 12.4484 4.28446C12.6586 4.22677 12.669 4.22551 13.0129 4.20168ZM18.4113 4.18161C18.4177 4.1791 18.4878 4.18036 18.567 4.18412C18.6448 4.18788 18.7383 4.19541 18.8369 4.2067L18.7214 4.28446C18.6098 4.35971 18.6033 4.36222 18.4048 4.37602L18.2101 4.21297L18.3035 4.19917C18.3555 4.1929 18.4035 4.18412 18.4113 4.18161ZM14.6869 4.4588C14.7868 4.43246 14.8219 4.4287 14.9335 4.43497C15.0048 4.43873 15.0918 4.44626 15.1917 4.45754L15.0762 4.54158C14.9633 4.62185 14.9555 4.62561 14.7453 4.65195L14.6545 4.57419C14.6038 4.53029 14.5649 4.49392 14.5662 4.49266C14.5688 4.49015 14.622 4.4751 14.6869 4.4588ZM10.5992 5.11476C10.8133 5.02697 10.9911 4.95547 10.995 4.95547C10.9989 4.95422 10.9483 5.00188 10.8847 5.05958C10.7951 5.1411 10.7277 5.18876 10.5927 5.26151C10.4967 5.31419 10.3124 5.4208 10.1839 5.49981C9.95944 5.63652 9.94516 5.64781 9.80631 5.79581C9.72586 5.8811 9.60777 6.01279 9.54288 6.08805C9.4767 6.16456 9.38586 6.28872 9.34044 6.36398C9.29502 6.44049 9.23274 6.55588 9.2003 6.6211C9.16915 6.68632 9.13022 6.78164 9.11465 6.83181C9.08999 6.91584 9.08869 6.92211 9.10946 6.9171C9.12243 6.91333 9.18472 6.89954 9.24961 6.88449C9.31319 6.87069 9.46243 6.84937 9.58052 6.83933C9.74792 6.82428 9.8154 6.82303 9.88807 6.83306C9.93997 6.84059 10.0165 6.86316 10.132 6.91835L10.0542 6.94845C10.0113 6.96476 9.94127 7.00489 9.89845 7.0375C9.85563 7.06886 9.80501 7.11401 9.78685 7.13784C9.76738 7.16042 9.73234 7.22187 9.70769 7.2733C9.68303 7.32472 9.64929 7.4213 9.63372 7.48652C9.61296 7.57682 9.60517 7.65333 9.60387 7.80008C9.60128 7.90669 9.60517 8.09858 9.62334 8.45855L9.5338 8.48112C9.48449 8.49241 9.33915 8.51875 9.21068 8.54007C9.0822 8.56014 8.84862 8.59651 8.6916 8.62034C8.53458 8.64417 8.36459 8.67302 8.31527 8.68431C8.26466 8.6956 8.19978 8.71692 8.11283 8.75956L8.14398 8.79092C8.16215 8.80848 8.18421 8.83984 8.19589 8.8599C8.21016 8.88875 8.21665 8.97028 8.22444 9.19855C8.23222 9.46444 8.22963 9.52339 8.20627 9.70024C8.18421 9.85827 8.16604 9.93854 8.11932 10.0765C8.08688 10.1731 8.01032 10.36 7.84162 10.7287L7.67552 10.9018C7.53666 11.046 7.49125 11.0849 7.38743 11.1464C7.31995 11.1865 7.25117 11.2266 7.2343 11.2342C7.21224 11.2467 7.20705 11.2455 7.21484 11.2342C7.22003 11.2254 7.28362 11.1388 7.35629 11.0423C7.42766 10.9457 7.53407 10.7826 7.59246 10.6785C7.67162 10.5368 7.71055 10.4465 7.75597 10.3085C7.78841 10.2082 7.82864 10.0589 7.84681 9.97617C7.86368 9.89339 7.88834 9.75543 7.90002 9.66888C7.91818 9.53468 7.91818 9.48326 7.9065 9.31143C7.89742 9.19227 7.89482 9.02922 7.90002 8.91007C7.9091 8.72319 7.91169 8.70563 7.94414 8.65546C7.97139 8.61031 7.99864 8.5915 8.08818 8.5476C8.17642 8.5037 8.25428 8.48112 8.47749 8.4297C8.63061 8.39584 8.80061 8.35821 8.85381 8.34692C8.90702 8.33563 9.00953 8.31055 9.21068 8.25536V7.44262L9.24831 7.37364C9.26907 7.33601 9.308 7.27204 9.33525 7.23316C9.3638 7.19303 9.38457 7.15791 9.38197 7.15415C9.38067 7.15038 9.23922 7.15289 9.06793 7.16042C8.89664 7.16794 8.72534 7.17798 8.61634 7.19177L8.62672 7.08516C8.6358 6.99611 8.64878 6.94971 8.71366 6.80296C8.75519 6.70638 8.82916 6.55964 8.87587 6.47686C8.95114 6.34767 8.98618 6.30252 9.13152 6.15201C9.22495 6.05669 9.38846 5.90242 9.49617 5.80961C9.60258 5.71679 9.80761 5.55751 10.2099 5.27405L10.5992 5.11476ZM7.56911 6.06923C7.63659 6.03537 7.69628 6.00778 7.70147 6.00652C7.70796 6.00652 7.71185 6.00903 7.71185 6.01279C7.71185 6.01656 7.70536 6.04917 7.69758 6.08428C7.68979 6.12066 7.66254 6.18964 7.63788 6.23856C7.61193 6.28622 7.55872 6.36272 7.5185 6.40788C7.47697 6.45303 7.39262 6.54835 7.33033 6.6211C7.26675 6.69384 7.14995 6.82303 6.92675 7.06259L6.76454 7.14035C6.64775 7.19804 6.5621 7.22815 6.45959 7.25323C6.38043 7.27079 6.23249 7.29462 6.12868 7.30465C6.02486 7.31469 5.93662 7.32347 5.93013 7.32347C5.92494 7.32347 5.92105 7.31343 5.92105 7.30089C5.92105 7.2896 5.96906 7.19177 6.02616 7.08516C6.10921 6.92964 6.14555 6.87445 6.21043 6.81174C6.26494 6.75906 6.32982 6.71266 6.40768 6.67127C6.47127 6.6374 6.63477 6.56967 6.77103 6.5195C6.90599 6.47059 7.04614 6.41666 7.08248 6.40161C7.11751 6.38655 7.21484 6.31883 7.29659 6.25235C7.39781 6.16832 7.48476 6.11062 7.56911 6.06923ZM12.137 7.38492C12.2122 7.36611 12.2758 7.34981 12.2797 7.34855C12.2836 7.34855 12.3018 7.36862 12.3212 7.39496C12.3576 7.44136 12.3576 7.44387 12.3186 7.56177L12.2563 7.56052C12.2096 7.56052 12.1668 7.54672 12.0721 7.49906C11.9708 7.44889 11.954 7.43635 11.9747 7.42882C11.989 7.42381 12.0617 7.40374 12.137 7.38492ZM11.6633 7.55801C11.7347 7.52665 11.7957 7.50031 11.7996 7.50031C11.8034 7.49906 11.8891 7.53669 12.1772 7.66838L12.0695 7.7198C12.0098 7.74865 11.9319 7.77625 11.8969 7.78126C11.8346 7.79004 11.8268 7.78879 11.6854 7.71353C11.6062 7.67214 11.5387 7.63201 11.5374 7.62699C11.5348 7.62072 11.5919 7.59062 11.6633 7.55801ZM20.9028 7.98194C20.9599 7.97316 21.017 7.96438 21.0287 7.96438C21.0417 7.96313 21.1 7.97441 21.1584 7.98946C21.2181 8.00326 21.2675 8.01706 21.2687 8.02082C21.2713 8.02333 21.2337 8.04591 21.1844 8.07099C21.1364 8.09607 21.0702 8.1337 21.0365 8.15502C20.9794 8.19265 20.9755 8.19892 20.969 8.26038C20.9651 8.29675 20.9573 8.32685 20.9508 8.32685C20.9456 8.32685 20.9041 8.33313 20.8574 8.3394C20.7795 8.35194 20.7704 8.35068 20.7471 8.32685C20.725 8.30553 20.712 8.30177 20.6043 8.31682L20.5356 8.23028C20.4979 8.18387 20.4668 8.14123 20.4681 8.13496C20.4681 8.12994 20.5044 8.10736 20.5485 8.08353C20.594 8.0597 20.6679 8.03086 20.7146 8.01957C20.7614 8.00702 20.8457 7.99072 20.9028 7.98194ZM9.58571 8.73197C9.62074 8.70939 9.65319 8.69058 9.65967 8.69058C9.66616 8.69058 9.67135 8.74577 9.67006 8.81224C9.67006 8.87997 9.66616 8.98407 9.66097 9.04553C9.65448 9.12204 9.6467 9.15841 9.63242 9.16719C9.62204 9.17346 9.54288 9.19604 9.45724 9.21861C9.36121 9.24244 9.2535 9.28132 9.17434 9.31895C9.10556 9.35282 9.04847 9.37414 9.04847 9.36787C9.04847 9.36034 9.07442 9.30641 9.10556 9.24495C9.1393 9.18099 9.20808 9.0819 9.27296 9.00414C9.33396 8.93139 9.41571 8.84987 9.45334 8.82228C9.49098 8.79468 9.55067 8.75455 9.58571 8.73197ZM21.1883 9.48827C21.2597 9.47949 21.3297 9.47071 21.344 9.46946C21.3583 9.46946 21.44 9.47949 21.5257 9.49454C21.6113 9.50834 21.6827 9.52214 21.684 9.5259C21.6866 9.52841 21.6516 9.55099 21.6061 9.57482C21.5296 9.61621 21.5192 9.61746 21.2726 9.61871V9.68393C21.2726 9.73536 21.2662 9.75668 21.2142 9.80685L21.1753 9.77675C21.1507 9.75793 21.1039 9.74163 21.052 9.73285C20.9949 9.72281 20.9534 9.70776 20.8807 9.65007L20.969 9.57858C21.0585 9.50709 21.0585 9.50583 21.1883 9.48827ZM2.80661 9.7642C2.87409 9.75417 2.97012 9.7479 3.02073 9.75166C3.07004 9.75542 3.11675 9.7617 3.12195 9.76671C3.12714 9.77173 3.05447 9.8081 2.95973 9.84698C2.865 9.88712 2.75081 9.94356 2.70798 9.97241C2.66386 10.0025 2.60806 10.0514 2.5847 10.0828C2.56135 10.1141 2.5315 10.1643 2.51982 10.1957C2.50814 10.227 2.48349 10.3085 2.46532 10.3775C2.44715 10.4465 2.42898 10.528 2.42379 10.5594C2.4186 10.5907 2.40173 10.6284 2.38616 10.6447C2.37188 10.661 2.34074 10.6836 2.31998 10.6936C2.29013 10.7074 2.27326 10.7086 2.2486 10.6986C2.22784 10.6898 2.20708 10.6635 2.19151 10.6259C2.16945 10.5732 2.16815 10.5431 2.17334 10.3963C2.17983 10.2308 2.18113 10.2245 2.22914 10.1329C2.25639 10.0815 2.29402 10.0176 2.31219 9.98997C2.33036 9.96363 2.37448 9.91973 2.41082 9.89339C2.45234 9.86329 2.51333 9.83319 2.57951 9.81312C2.63661 9.79681 2.73913 9.77424 2.80661 9.7642ZM9.46891 9.89715C9.48968 9.85451 9.51174 9.81939 9.51693 9.81939C9.52342 9.81939 9.54029 9.84071 9.55326 9.8658C9.56754 9.89214 9.5909 9.97742 9.60517 10.0539C9.62723 10.1718 9.62983 10.2095 9.61945 10.2772C9.60777 10.3524 9.60387 10.3587 9.57013 10.365C9.55067 10.3675 9.49746 10.3763 9.45075 10.3838C9.40403 10.3913 9.32357 10.4089 9.17823 10.4465L8.99007 10.38L9.06144 10.3449C9.11075 10.3211 9.16136 10.2797 9.22495 10.212C9.27426 10.158 9.34174 10.0828 9.37418 10.0452C9.40533 10.0063 9.44815 9.9398 9.46891 9.89715ZM21.065 10.222C21.1182 10.2095 21.1675 10.1969 21.1753 10.1969C21.1818 10.1957 21.2869 10.2069 21.4089 10.222C21.5296 10.2358 21.6308 10.2483 21.6334 10.2496C21.6347 10.2508 21.5984 10.2747 21.5529 10.3023C21.4997 10.3349 21.4621 10.3675 21.4491 10.3926C21.4284 10.4327 21.4258 10.434 21.3246 10.4402C21.2246 10.4465 21.2194 10.4478 21.2013 10.4841C21.1831 10.5193 21.1766 10.5218 21.0871 10.5293C21.0001 10.5356 20.9897 10.5406 20.9417 10.5857C20.8963 10.6271 20.8781 10.6359 20.799 10.6459C20.7484 10.6535 20.6991 10.6597 20.6887 10.6597C20.6783 10.6597 20.7107 10.6158 20.7627 10.5619C20.8275 10.4942 20.873 10.4327 20.9677 10.2458L21.065 10.222ZM9.44037 10.9081C9.46891 10.8617 9.49876 10.8228 9.50655 10.8228C9.51563 10.8228 9.52861 10.8278 9.53769 10.8328C9.54548 10.8378 9.55975 10.8955 9.56754 10.9607C9.58052 11.0774 9.58052 11.0812 9.55067 11.1175C9.5338 11.1388 9.46502 11.1903 9.39754 11.2329C9.28464 11.3057 9.26518 11.3132 8.96412 11.3771L8.84732 11.3282L8.94076 11.2831C8.99267 11.258 9.07831 11.2103 9.12892 11.179C9.18083 11.1464 9.25999 11.0924 9.30541 11.0561C9.35861 11.0147 9.40533 10.9633 9.44037 10.9081ZM9.52212 11.4461L9.55067 11.5076C9.57143 11.5515 9.57922 11.5954 9.58052 11.7509L9.51823 11.7986C9.48449 11.8249 9.4196 11.8701 9.37289 11.8977C9.32617 11.9252 9.25869 11.9629 9.22365 11.9792C9.16915 12.0068 9.13411 12.0118 8.99267 12.0193C8.90183 12.0231 8.82786 12.0243 8.82786 12.0206C8.82786 12.0168 8.85252 12.003 8.88236 11.988C8.91351 11.9729 8.98228 11.9328 9.03549 11.8977C9.08869 11.8625 9.18991 11.7848 9.26128 11.7271C9.33136 11.6681 9.4183 11.5803 9.45594 11.5327L9.52212 11.4461ZM19.9814 11.7108C20.0022 11.707 20.0347 11.7045 20.0528 11.7032C20.0697 11.702 20.1904 11.7208 20.3188 11.7459C20.4473 11.7697 20.5537 11.791 20.555 11.7923C20.5576 11.7936 20.2708 11.9416 19.9192 12.1209C19.5675 12.299 19.2768 12.452 19.2716 12.4596C19.2664 12.4679 19.2612 12.4679 19.256 12.4596C19.2521 12.4533 19.2664 12.3968 19.3248 12.2212L19.452 12.141C19.5368 12.0866 19.6397 12.0022 19.7608 11.8876C19.8958 11.7597 19.9516 11.7145 19.9814 11.7108ZM16.7606 13.4291C16.8099 13.4027 16.8592 13.3827 16.8709 13.3827C16.8826 13.3827 16.9241 13.399 17.0305 13.4504L16.9552 13.5106C16.9007 13.5532 16.854 13.5771 16.7891 13.5959C16.7385 13.6097 16.6425 13.641 16.4517 13.71L16.4024 13.6874C16.3752 13.6749 16.3531 13.6611 16.3544 13.6573C16.3544 13.6548 16.4258 13.6122 16.5127 13.5633C16.5997 13.5156 16.71 13.4554 16.7606 13.4291ZM13.6578 16.8017C13.5449 16.813 13.3957 16.8406 13.2231 16.882C13.0791 16.9171 12.8143 16.9911 12.6366 17.0463C12.4445 17.1065 12.2031 17.193 12.0461 17.2582C11.8995 17.3184 11.6983 17.4 11.5984 17.4376C11.4985 17.4752 11.2467 17.5768 11.0404 17.6646C10.8328 17.7512 10.6628 17.8239 10.6628 17.8252C10.6628 17.8277 10.6342 17.8665 10.6018 17.913C10.5681 17.9594 10.5473 17.997 10.5564 17.997C10.5655 17.997 10.6835 17.9694 10.8198 17.9355C10.9548 17.9017 11.1209 17.8615 11.1896 17.8477C11.2571 17.8339 11.3142 17.8227 11.3155 17.8252C11.3168 17.8264 11.2584 17.9079 11.1858 18.0058C11.1131 18.1036 11.0093 18.2328 10.9561 18.2917L10.8587 18.4009C10.315 18.6856 10.267 18.7056 10.0801 18.7608C9.96593 18.7934 9.85692 18.8285 9.84005 18.8373C9.82189 18.8461 9.65578 18.9402 9.47021 19.0455C9.28464 19.1496 8.92519 19.3365 8.67214 19.4582C8.41779 19.5811 7.98047 19.8031 7.69887 19.9523C7.41598 20.1016 7.10713 20.2559 7.0111 20.2973C6.91378 20.3374 6.6179 20.4578 6.35188 20.5644C6.0028 20.7036 5.74716 20.8153 5.43052 20.9695C5.19045 21.0874 4.93092 21.2141 4.85695 21.2542C4.78168 21.2931 4.72848 21.3157 4.74016 21.3057C4.75054 21.2956 4.81802 21.2367 4.88939 21.1765C5.01267 21.0724 5.03733 21.0586 5.42144 20.8729C5.64205 20.7651 6.04822 20.5757 6.32333 20.4503C6.74378 20.2584 6.84111 20.2095 6.94362 20.1355C7.0098 20.0878 7.06041 20.0452 7.05652 20.0414C7.05263 20.0389 6.99034 20.0577 6.91637 20.084C6.8437 20.1104 6.6231 20.2007 6.42715 20.2835C6.2299 20.3662 5.96517 20.4841 5.8367 20.5431C5.70823 20.6033 5.48243 20.7137 5.33709 20.7889C5.19045 20.8629 4.92702 21.0134 4.75313 21.12C4.57795 21.2279 4.31192 21.3972 4.16269 21.495C3.91094 21.6594 3.88109 21.6844 3.77468 21.8011C3.71109 21.8726 3.62285 21.9829 3.57743 22.0482C3.50736 22.1498 3.47362 22.1849 3.34904 22.2802C3.26858 22.3429 3.0363 22.5298 2.83256 22.6966C2.62883 22.8622 2.36799 23.0829 2.2512 23.1858C2.12792 23.2949 1.99037 23.4316 1.91899 23.5156C1.85151 23.5959 1.79831 23.6624 1.8009 23.6636C1.8048 23.6649 1.91121 23.5946 2.03708 23.5081C2.23433 23.3714 2.307 23.33 2.54707 23.2184C2.7002 23.1456 2.94287 23.0428 3.08561 22.9888C3.22836 22.9349 3.34644 22.891 3.34904 22.8923C3.35034 22.8948 3.3153 22.9249 3.27118 22.9612C3.22576 22.9964 3.12714 23.0929 3.05317 23.1732C2.9779 23.2547 2.79623 23.4429 2.65089 23.5909C2.50425 23.7401 2.25639 24.0073 2.09937 24.1841L1.81388 24.5077L1.48946 24.5065C1.32595 24.6657 1.30389 24.6996 1.22603 24.8576C1.15725 24.9956 1.13 25.0684 1.11313 25.1524C1.10015 25.2164 1.06382 25.3255 1.03008 25.4032C0.99634 25.4797 0.904205 25.6491 0.826344 25.7795C0.747185 25.9112 0.607035 26.1508 0.5149 26.3126C0.409787 26.4994 0.289103 26.7377 0.187883 26.9585L0.0295661 27.3097C0.0113985 27.5342 0.00750544 27.6007 0.00750544 27.6019C0.00880312 27.6032 0.115213 27.395 0.243684 27.1378C0.40849 26.808 0.53177 26.581 0.665431 26.364C0.769246 26.1947 0.934051 25.9363 1.03268 25.7895C1.13 25.6428 1.33633 25.3606 1.48946 25.1624C1.64388 24.9643 1.87357 24.6871 1.99945 24.5478C2.21616 24.307 2.24341 24.282 2.48868 24.0951C2.63142 23.986 2.85333 23.8229 2.9818 23.7339C3.11027 23.6435 3.34644 23.4905 3.50736 23.3927C3.78506 23.2234 3.80582 23.2133 3.94208 23.1782C4.01994 23.1582 4.08612 23.1419 4.08742 23.1431C4.08872 23.1456 3.94208 23.2761 3.75911 23.4341C3.53461 23.631 3.3711 23.7853 3.25042 23.917C3.15179 24.0236 2.95714 24.2268 2.81699 24.3685C2.67814 24.5102 2.46791 24.7335 2.35242 24.8639C2.20578 25.032 2.07861 25.1925 1.93067 25.4032C1.81388 25.5688 1.64388 25.8259 1.55175 25.9739C1.45961 26.1232 1.33763 26.3289 1.28183 26.4317C1.19748 26.586 1.16634 26.6625 1.10535 26.8519C1.06512 26.9798 1.0197 27.1178 1.00413 27.1592C0.988554 27.2006 0.97947 27.2369 0.982066 27.2382C0.985959 27.2394 1.01451 27.2294 1.04435 27.2143C1.0755 27.1993 1.22473 27.1416 1.37916 27.0839C1.53228 27.0275 1.7477 26.9497 1.8593 26.9108C2.03968 26.8481 2.0825 26.8381 2.27456 26.8142C2.42379 26.7967 2.51074 26.7917 2.56264 26.7992C2.60287 26.8042 2.63531 26.8092 2.63402 26.8117C2.63272 26.813 2.55745 26.828 2.46921 26.8444C2.37967 26.8619 2.2538 26.8883 2.19021 26.9033C2.11365 26.9221 2.00983 26.9622 1.89174 27.0187C1.75548 27.0839 1.68281 27.1291 1.60106 27.1955C1.54137 27.2444 1.47648 27.2984 1.45572 27.3134L1.41809 27.341L1.29481 27.2909C1.11962 27.3473 1.06252 27.3812 0.918479 27.484C0.78352 27.5793 0.69398 27.6571 0.571998 27.7813L0.407192 27.9493C0.298187 28.2027 0.261851 28.3018 0.257958 28.3319C0.252768 28.3632 0.246279 28.4034 0.242386 28.4197L0.237195 28.451C0.459099 28.3896 0.564212 28.3695 0.632989 28.3645L0.74978 28.357C0.669324 28.4284 0.5707 28.5175 0.479862 28.6015C0.315056 28.7508 0.312461 28.7545 0.281317 28.8461C0.257958 28.9201 0.224219 28.9753 0.135976 29.0919C0.0736873 29.1747 0.0152915 29.245 0.00620775 29.2487C-0.0054714 29.2525 -0.00157834 29.2813 0.025673 29.3603C0.054222 29.4419 0.0827711 29.4945 0.148953 29.5798C0.199563 29.6476 0.28521 29.7366 0.360475 29.7993C0.429253 29.8583 0.522686 29.9273 0.565509 29.9536C0.609631 29.9787 0.649859 30 0.655049 30C0.66024 30 0.661538 29.9799 0.657645 29.9536C0.653752 29.9273 0.639477 29.8758 0.625203 29.8369C0.605737 29.7818 0.583677 29.7542 0.512304 29.6927C0.46429 29.6501 0.420169 29.6012 0.414978 29.5823C0.407192 29.5547 0.416276 29.5347 0.477267 29.4544C0.516197 29.403 0.552532 29.3603 0.557723 29.3603C0.562914 29.3603 0.583677 29.3478 0.60444 29.3327L0.640775 29.3039C0.595356 29.1923 0.588868 29.1546 0.594058 29.1346C0.599249 29.1183 0.632989 29.0681 0.669324 29.0242C0.717338 28.9678 0.792604 28.9051 0.931456 28.8097C1.03787 28.7345 1.1871 28.6279 1.26237 28.5714C1.33633 28.515 1.40771 28.456 1.42068 28.441C1.43236 28.4259 1.44274 28.4071 1.44274 28.3983C1.44404 28.3896 1.42458 28.3783 1.40122 28.3745C1.37786 28.3695 1.34282 28.3519 1.32336 28.3369C1.29481 28.3131 1.28702 28.293 1.28053 28.2353C1.27664 28.1952 1.27924 28.1262 1.28832 28.081C1.29611 28.0371 1.31557 27.9769 1.32984 27.9493C1.34412 27.9217 1.39732 27.844 1.44923 27.7775C1.53877 27.6571 1.54656 27.6508 1.77495 27.4991C1.90342 27.4138 2.09029 27.2921 2.19021 27.2294C2.29013 27.1667 2.44975 27.0764 2.54707 27.0287C2.6431 26.9811 2.74821 26.9397 2.78065 26.9347C2.8118 26.9296 2.85462 26.9234 2.87409 26.9209C2.90653 26.9158 2.90913 26.9108 2.90653 26.8694C2.90393 26.8268 2.89874 26.8218 2.83516 26.7979C2.76768 26.7716 2.76768 26.7703 2.74821 26.6926C2.73653 26.6499 2.72745 26.5935 2.72745 26.5672C2.72745 26.5233 2.73394 26.5145 2.82867 26.4417C2.90134 26.3853 2.97531 26.3439 3.0921 26.295C3.23614 26.2323 3.27897 26.221 3.4814 26.1859C3.67476 26.1533 3.73056 26.1483 3.86422 26.1533C3.94987 26.157 4.0459 26.1671 4.07834 26.1771L4.13673 26.1947C3.90445 26.2887 3.77079 26.3489 3.68903 26.3878C3.60598 26.4279 3.50995 26.4844 3.47492 26.5132C3.43858 26.5408 3.39965 26.5822 3.38797 26.6048C3.36721 26.6449 3.36721 26.6462 3.40225 26.6888C3.42301 26.7139 3.45156 26.7591 3.46713 26.7892C3.49049 26.8331 3.49438 26.8581 3.48919 26.8995C3.484 26.9284 3.47751 26.9522 3.47492 26.9522C3.47102 26.9522 3.38797 26.9622 3.28935 26.9723C3.1466 26.9886 3.08691 27.0024 2.98828 27.0388C2.91172 27.0676 2.8118 27.1203 2.72875 27.1755C2.65348 27.2244 2.49776 27.3423 2.38097 27.4376C2.1928 27.5931 2.15906 27.6282 2.05395 27.7675C1.95403 27.9029 1.93457 27.9368 1.9177 28.0095C1.90472 28.0672 1.90212 28.1011 1.90991 28.1161C1.9177 28.1287 1.92808 28.145 1.93327 28.1538C1.94105 28.1663 1.96701 28.1638 2.06044 28.1437C2.14998 28.1237 2.20059 28.1199 2.28105 28.1249C2.35372 28.1299 2.39135 28.1387 2.40692 28.1538C2.42898 28.1751 2.42769 28.1763 2.39395 28.1927C2.37448 28.2014 2.29402 28.2253 2.21616 28.2453C2.07861 28.2804 2.06563 28.2867 1.85541 28.4234C1.72045 28.5112 1.6335 28.5764 1.62442 28.5953C1.61404 28.6203 1.61663 28.6492 1.6374 28.727C1.65037 28.7821 1.66854 28.9176 1.67762 29.028C1.6893 29.1973 1.69579 29.2362 1.71915 29.2725C1.73472 29.2976 1.79571 29.3904 1.85541 29.4795C1.95922 29.6375 1.9696 29.6488 2.13441 29.7793C2.22914 29.8545 2.31868 29.921 2.33295 29.926C2.34723 29.9323 2.40562 29.9486 2.46272 29.9636C2.51982 29.9774 2.56783 29.9862 2.56913 29.9824C2.57173 29.9787 2.53669 29.9285 2.49127 29.8708C2.44715 29.8131 2.3641 29.6789 2.3083 29.5736L2.20708 29.3792C2.25509 29.2048 2.27845 29.1421 2.28753 29.1283C2.29792 29.1133 2.34593 29.0543 2.39395 28.9966C2.44196 28.9364 2.54188 28.8411 2.62104 28.7771C2.6976 28.7144 2.83126 28.6178 2.91691 28.5614C3.00256 28.5062 3.15958 28.4184 3.26729 28.367C3.3737 28.3156 3.50217 28.2591 3.55278 28.2416C3.60209 28.224 3.67865 28.1964 3.72148 28.1814L3.79934 28.1525C3.67865 28.1249 3.58522 28.1199 3.43469 28.1224C3.27248 28.1249 3.20629 28.1212 3.19072 28.1099C3.17126 28.0961 3.17645 28.0798 3.24652 27.9468L3.32309 27.7988C3.50087 27.6809 3.64232 27.6019 3.75392 27.548C3.95117 27.4527 3.96155 27.4489 4.33787 27.3586L4.72069 27.2658C4.95168 27.2771 5.08275 27.2883 5.1619 27.2984L5.30465 27.3159C5.68617 27.173 5.86395 27.1115 5.947 27.0864C6.02876 27.0626 6.15723 27.0325 6.23249 27.0212C6.33112 27.0061 6.39211 26.9886 6.45569 26.9572C6.52447 26.9246 6.57508 26.9108 6.68279 26.897C6.75935 26.887 6.93584 26.8669 7.07599 26.8519C7.21484 26.8381 7.33293 26.8218 7.33942 26.8168C7.34461 26.813 7.34071 26.7917 7.33033 26.7703C7.31995 26.7503 7.29919 26.665 7.28362 26.5822C7.26934 26.4994 7.25507 26.4317 7.25377 26.4305C7.25247 26.4305 7.17202 26.3728 7.07599 26.3025C6.93973 26.2047 6.87355 26.1658 6.78401 26.1319C6.71912 26.1081 6.65164 26.0855 6.63477 26.0818C6.61661 26.0793 6.56859 26.0705 6.52707 26.063C6.47516 26.0542 6.4531 26.0441 6.4531 26.0304C6.4531 26.0203 6.49073 25.9927 6.53745 25.9676L6.6218 25.9237C6.82813 25.9614 6.93065 25.989 6.98515 26.009C7.03835 26.0304 7.17202 26.0655 7.28362 26.088C7.39522 26.1106 7.56132 26.1558 7.65994 26.1909C7.80139 26.2398 7.84811 26.2636 7.9065 26.3113C7.94543 26.3427 8.00124 26.3928 8.02978 26.4204C8.05833 26.448 8.09726 26.4932 8.11673 26.5208C8.14009 26.5534 8.15955 26.6048 8.17123 26.67C8.18291 26.7252 8.1894 26.7716 8.1881 26.7729C8.1868 26.7741 8.04795 26.7979 7.88055 26.8255C7.71185 26.8544 7.37056 26.9196 7.12141 26.971C6.69966 27.0588 6.64516 27.0726 6.36875 27.1705C6.20394 27.2281 5.93013 27.3297 5.75884 27.3962L5.44739 27.5179C5.0503 27.5166 5.01397 27.5204 4.82451 27.5618C4.71031 27.5856 4.52604 27.6345 4.41574 27.6696C4.30414 27.706 4.14971 27.7624 4.07185 27.7963C3.99269 27.8302 3.90445 27.8778 3.8733 27.9004L3.8188 27.9431L3.86422 28.0171C4.16528 28.0296 4.35474 28.0409 4.48062 28.0509C4.6052 28.061 4.74924 28.0773 4.80115 28.0873L4.89588 28.1061C4.9945 28.2867 5.02175 28.3406 5.02046 28.3419C5.01916 28.3432 4.97763 28.3319 4.92832 28.3156C4.87771 28.2993 4.80115 28.2679 4.75573 28.2466L4.67527 28.2064C4.18605 28.2077 4.15101 28.2102 4.0459 28.2391C3.98101 28.2554 3.85254 28.3005 3.76041 28.3394C3.66697 28.377 3.56316 28.4297 3.53072 28.4548L3.46843 28.5012C3.53461 28.5702 3.56705 28.6229 3.58262 28.6642C3.61117 28.7357 3.61117 28.7433 3.59171 28.7897C3.58133 28.8173 3.53461 28.8825 3.48789 28.9339C3.40744 29.0242 3.40225 29.0342 3.3711 29.1572L3.33866 29.2851C3.38408 29.3729 3.40095 29.3992 3.40614 29.3992C3.41133 29.3992 3.4814 29.3578 3.56186 29.3077C3.6527 29.2512 3.94208 29.107 4.31192 28.9326L4.91534 28.6479C5.18656 28.6354 5.34098 28.6266 5.43442 28.6191C5.59014 28.6078 5.60831 28.604 5.68357 28.5639L5.76533 28.52C6.32203 28.5426 6.4531 28.5526 6.49203 28.5652C6.52317 28.5752 6.65943 28.594 6.79309 28.6078C6.92675 28.6216 7.12011 28.6329 7.22133 28.6329C7.35499 28.6329 7.42247 28.6379 7.46529 28.6517C7.49644 28.663 7.52499 28.6718 7.52628 28.6718C7.52888 28.6718 7.53018 28.663 7.53018 28.6517C7.53018 28.6417 7.5159 28.6065 7.49903 28.5739C7.47827 28.5351 7.43674 28.4899 7.37835 28.4447C7.32903 28.4059 7.23949 28.3457 7.1798 28.3118C7.11881 28.2767 7.05003 28.2391 7.02667 28.2278C6.99294 28.2115 6.98515 28.1989 6.98515 28.1688C6.98515 28.14 6.99294 28.1274 7.02408 28.1124C7.04484 28.1023 7.1253 28.0848 7.20186 28.0748C7.27843 28.0635 7.41858 28.0409 7.51331 28.0246C7.60804 28.007 7.70926 27.9857 7.73781 27.9744C7.78582 27.9581 7.78971 27.9531 7.78971 27.9092C7.78971 27.8829 7.78063 27.8339 7.77025 27.7988C7.75727 27.7537 7.73781 27.7261 7.70277 27.6972C7.67552 27.6759 7.6301 27.6471 7.60155 27.6333C7.573 27.6182 7.52499 27.5831 7.49514 27.553C7.46529 27.5229 7.43285 27.4802 7.42117 27.4577L7.40041 27.4163C7.48605 27.4163 7.63529 27.4338 7.78971 27.4539C8.05704 27.4903 8.07131 27.494 8.14658 27.5379C8.1894 27.563 8.25818 27.6107 8.2997 27.642C8.34123 27.6734 8.40222 27.7323 8.43466 27.7737L8.49176 27.849C8.47619 28.0083 8.4684 28.0321 8.43985 28.061C8.42168 28.081 8.37886 28.1099 8.34772 28.1249C8.31528 28.1412 8.23871 28.1625 8.17902 28.1738C8.11803 28.1839 8.01032 28.1964 7.93895 28.2002C7.86757 28.2039 7.78712 28.2102 7.75987 28.214C7.73391 28.2165 7.71185 28.224 7.71185 28.229C7.71055 28.234 7.77025 28.2666 7.84292 28.3005C7.95841 28.357 7.98566 28.3758 8.0752 28.4698C8.15047 28.5489 8.17772 28.5865 8.17772 28.6116C8.17772 28.6304 8.18421 28.6567 8.19199 28.6705C8.20367 28.6956 8.21795 28.6956 8.54886 28.6956C8.89145 28.6956 8.89274 28.6956 9.10686 28.6517C9.26518 28.6191 9.34434 28.5965 9.41441 28.5626C9.46632 28.5376 9.7025 28.4585 9.94387 28.3871C10.1826 28.3143 10.5538 28.2064 10.7679 28.1437C10.982 28.0823 11.3441 27.9694 11.5725 27.8929C11.8009 27.8176 12.2005 27.6897 12.4614 27.6107C12.7209 27.5317 13.083 27.4175 13.2659 27.3561C13.4476 27.2946 13.798 27.1654 14.0445 27.0689C14.3495 26.9485 14.6181 26.8544 14.888 26.7703C15.2514 26.6587 15.3059 26.6374 15.5563 26.517C15.7523 26.4229 15.9119 26.3565 16.1273 26.2812C16.2908 26.2248 16.5387 26.1357 16.6788 26.0843C16.8177 26.0329 17.0656 25.925 17.2304 25.846C17.499 25.7155 17.5626 25.6905 17.8727 25.5939C18.0739 25.5312 18.3373 25.4371 18.5086 25.3669C18.6708 25.2991 18.9238 25.1825 19.0796 25.101C19.3002 24.9856 19.4079 24.9191 19.5986 24.7824C19.7297 24.6883 19.9581 24.5378 20.1047 24.45C20.2501 24.3622 20.4343 24.2418 20.5135 24.1829C20.5914 24.1227 20.7536 24.0098 20.8717 23.9295C20.991 23.8505 21.1039 23.7665 21.1221 23.7414C21.1403 23.7175 21.152 23.6962 21.1494 23.695C21.1455 23.6937 21.0975 23.7175 21.0417 23.7477C20.9872 23.779 20.8846 23.8242 20.8146 23.848C20.7094 23.8856 20.6536 23.8956 20.4772 23.912C20.3617 23.9232 20.2656 23.9333 20.263 23.9345C20.2617 23.9358 20.2514 23.9734 20.2397 24.0173C20.2293 24.0625 20.2124 24.1051 20.2021 24.1114C20.193 24.1189 20.1787 24.1578 20.1709 24.1992C20.1579 24.2682 20.1501 24.2807 20.0814 24.3409C20.0411 24.376 19.9308 24.4513 19.8387 24.5052C19.7453 24.5604 19.6194 24.6281 19.5597 24.6582C19.4987 24.6871 19.3702 24.7385 19.2742 24.7711C19.1457 24.815 19.0562 24.8363 18.9433 24.8514C18.8577 24.8627 18.6734 24.8915 18.5345 24.9153C18.3944 24.9379 18.2049 24.9655 18.1128 24.9755C18.0194 24.9856 17.8675 24.9981 17.7754 25.0031C17.6093 25.0107 17.6054 25.0107 17.5768 24.9818L17.547 24.9517C17.9532 24.5729 18.1569 24.3886 18.2607 24.2957C18.4035 24.1703 18.4748 24.1176 18.5501 24.08C18.6059 24.0524 18.7785 23.9546 18.9329 23.863C19.0886 23.7715 19.3378 23.6122 19.4883 23.5093C19.7284 23.345 19.7842 23.3124 19.962 23.2372C20.0723 23.1895 20.1982 23.1343 20.241 23.1155C20.2903 23.0929 20.3941 23.0177 20.5265 22.9098C20.6822 22.7819 20.7782 22.6891 20.9158 22.5373C21.0157 22.4257 21.1325 22.3028 21.1753 22.2639C21.2181 22.225 21.4336 22.0268 21.6555 21.8211C21.8761 21.6167 22.1512 21.3508 22.2667 21.2317C22.3822 21.1125 22.5548 20.9231 22.6495 20.8127C22.7455 20.7024 22.8727 20.5443 22.9324 20.4616C22.9921 20.3788 23.0492 20.2922 23.057 20.2672C23.066 20.2433 23.0777 20.2007 23.0829 20.1731L23.092 20.1229C23.0245 20.2007 22.9583 20.2521 22.9012 20.2872C22.8441 20.3223 22.7546 20.3725 22.7027 20.3976C22.6508 20.4227 22.6131 20.4365 22.6183 20.4277C22.6222 20.4189 22.6573 20.3725 22.6936 20.3236C22.7312 20.2759 22.8052 20.1718 22.8584 20.0916C22.9168 20.005 22.9804 19.9273 23.0193 19.8972C23.0544 19.8683 23.1556 19.8006 23.2451 19.7466C23.3334 19.6927 23.5202 19.566 23.6604 19.4657C23.7992 19.3641 23.9537 19.2537 24.0043 19.2199C24.0536 19.186 24.2547 19.0292 24.452 18.8712C24.7336 18.6454 24.8309 18.5589 24.9191 18.4585C24.9788 18.3883 25.0229 18.3331 25.0152 18.3369C25.0074 18.3394 24.9049 18.3971 24.7881 18.4648C24.5947 18.5739 24.5441 18.6116 24.2508 18.8574C24.0717 19.0066 23.8122 19.2123 23.6734 19.3139C23.5332 19.4155 23.3321 19.5598 23.2257 19.635C23.1179 19.709 22.9726 19.8031 22.9012 19.842C22.8299 19.8808 22.7507 19.9235 22.726 19.936L22.6806 19.9586C22.7183 19.9022 22.7429 19.8658 22.7598 19.8407C22.7767 19.8169 22.9194 19.6789 23.079 19.5334C23.2373 19.3892 23.528 19.1158 23.724 18.9251C23.9212 18.7357 24.1249 18.5451 24.1795 18.5024C24.2327 18.4598 24.3469 18.3507 24.4338 18.2591C24.5207 18.1663 24.6129 18.0647 24.6388 18.0321C24.6635 17.9995 24.6817 17.9719 24.6791 17.9719C24.6752 17.9719 24.6272 17.9945 24.5714 18.0208C24.4883 18.061 24.4533 18.0885 24.3676 18.1801C24.3105 18.2403 24.173 18.3632 24.0627 18.4535C23.9511 18.5426 23.7499 18.7244 23.615 18.8574C23.4787 18.9891 23.2944 19.1609 23.2062 19.2387C23.1166 19.3164 23.0232 19.393 22.9986 19.408C22.9726 19.4231 22.9233 19.4519 22.8883 19.472L22.8247 19.5083C22.8519 19.4607 22.8792 19.418 22.9025 19.3829C22.9259 19.3491 23.0063 19.2525 23.0803 19.1697C23.1556 19.0869 23.2166 19.0179 23.2153 19.0167C23.214 19.0142 23.1712 19.0355 23.1218 19.0631C23.0544 19.0995 23.0115 19.1346 22.9596 19.1973C22.9194 19.245 22.8299 19.3415 22.7585 19.413C22.6651 19.5071 22.5716 19.5823 22.4276 19.6814C22.316 19.7579 22.1447 19.8859 22.0448 19.9661C21.9098 20.0753 21.758 20.1781 21.4608 20.3612C21.2389 20.4979 20.9884 20.6434 20.9028 20.6848C20.8172 20.7262 20.5953 20.8278 20.4097 20.9106C20.2241 20.9921 20.0256 21.0837 19.9685 21.1138C19.9114 21.1439 19.8361 21.1827 19.8024 21.2003L19.7414 21.2329C19.805 21.1075 19.8348 21.0761 19.9295 21.0059C20.0113 20.9432 20.1008 20.8918 20.2345 20.8303C20.337 20.7814 20.4979 20.6961 20.5914 20.6409C20.6835 20.5845 20.7964 20.5067 20.8405 20.4691C20.8846 20.4302 20.9197 20.3988 20.9184 20.3963C20.9171 20.3951 20.8509 20.4164 20.773 20.444C20.6913 20.4728 20.5771 20.5255 20.507 20.5682C20.4382 20.6083 20.302 20.681 20.2021 20.7287C20.1021 20.7776 19.9438 20.8604 19.8517 20.9131C19.7582 20.967 19.6012 21.0586 19.5013 21.1175C19.4014 21.1765 19.2612 21.2693 19.1899 21.3232C19.1185 21.3771 19.0393 21.4374 19.0147 21.4574L18.9693 21.4938C19.2496 21.5114 19.2924 21.5189 19.3417 21.5427C19.3754 21.559 19.404 21.5753 19.404 21.5778C19.404 21.5816 19.3144 21.6305 19.2054 21.6869C19.0964 21.7446 18.9199 21.8437 18.8135 21.9089C18.7058 21.9729 18.6033 22.0344 18.5864 22.0431C18.5683 22.0519 18.4398 22.1046 18.3009 22.1598C18.1608 22.215 17.9895 22.2865 17.9181 22.3178C17.8273 22.3592 17.717 22.3931 17.5548 22.432C17.4263 22.4633 17.2667 22.506 17.1992 22.5285L17.0785 22.5687L17.2239 22.6314C17.1097 22.8158 17.0409 22.8935 16.9137 23.0177C16.7658 23.1619 16.7087 23.2083 16.5685 23.2961C16.4751 23.3538 16.3869 23.4178 16.3726 23.4366C16.357 23.4567 16.2662 23.5181 16.1714 23.5746C16.0754 23.6297 15.8924 23.7301 15.764 23.7966C15.6096 23.8756 15.5057 23.922 15.459 23.9295C15.3876 23.9433 15.3851 23.9458 15.0567 24.2606C14.8738 24.435 14.5792 24.7021 14.4014 24.8551C14.2223 25.0082 13.7876 25.3593 13.4346 25.6365C13.0804 25.9137 12.682 26.2172 12.547 26.3113C12.4121 26.4054 12.1136 26.6173 11.8852 26.7829C11.4894 27.0676 11.4583 27.0864 11.287 27.1617C11.187 27.2056 11.104 27.2394 11.1027 27.2382C11.1001 27.2369 11.261 27.104 11.4596 26.9447C11.6568 26.7854 11.8917 26.591 11.9812 26.5132C12.0695 26.4355 12.2563 26.2837 12.3965 26.1771C12.5353 26.0705 12.7014 25.9401 12.7663 25.8886C12.8299 25.8359 13.0518 25.6491 13.2582 25.4735C13.4645 25.2966 13.7746 25.0282 13.9472 24.8765C14.1185 24.7247 14.3573 24.5165 14.478 24.4124C14.5987 24.3095 14.7129 24.2117 14.7336 24.1967C14.7544 24.1816 14.7829 24.1452 14.7972 24.1176C14.8115 24.0901 14.8219 24.065 14.8193 24.0612C14.818 24.0574 14.7544 24.0712 14.6804 24.0926C14.6051 24.1151 14.5325 24.1352 14.5182 24.1402C14.4974 24.1465 14.5013 24.1365 14.5377 24.0926C14.5623 24.0625 14.7284 23.8919 14.9075 23.715C15.1709 23.4517 15.2644 23.3689 15.4071 23.266C15.5031 23.1958 15.6498 23.1005 15.7341 23.0553L15.8847 22.97L15.9015 22.7944C16.2065 22.58 16.3921 22.457 16.5101 22.3856C16.6269 22.3128 16.8294 22.1937 16.9578 22.1209C17.1356 22.0193 17.2083 21.9842 17.2654 21.9742C17.3069 21.9666 17.3666 21.9466 17.3991 21.929C17.4302 21.9127 17.4575 21.8951 17.4575 21.8914C17.4575 21.8889 17.3913 21.8889 17.3108 21.8939C17.1655 21.9014 17.1642 21.9014 17.0162 21.9742C16.9332 22.013 16.732 22.1171 16.5685 22.2062C16.4037 22.294 16.0378 22.4771 15.7536 22.6151L15.2384 22.8634C15.1696 23.0089 15.1619 23.0152 15.1112 23.0265C15.0684 23.0365 15.0477 23.0352 15.0178 23.0202C14.9957 23.0102 14.9789 22.9976 14.9789 22.9926C14.9789 22.9876 14.9854 22.9437 14.9919 22.8948C15.0035 22.8145 15.01 22.8045 15.0593 22.7606C15.0905 22.7355 15.1086 22.7142 15.1022 22.7142C15.0944 22.7142 14.9841 22.733 14.8556 22.7581C14.6285 22.8007 14.6181 22.8032 14.5182 22.8659C14.4611 22.901 14.3352 22.9888 14.2392 23.0616C14.1419 23.1343 14.0549 23.2008 14.0445 23.2083C14.0316 23.2171 14.0329 23.2096 14.0497 23.1832C14.064 23.1632 14.1133 23.0904 14.16 23.0227C14.234 22.9161 14.2677 22.881 14.4144 22.7643C14.5377 22.6665 14.6246 22.6088 14.7388 22.5511C14.8245 22.5072 15.0282 22.3968 15.193 22.3053C15.3565 22.215 15.581 22.0958 15.6926 22.0431C15.8899 21.9478 15.895 21.9466 15.9677 21.9528C16.0404 21.9604 16.0443 21.9591 16.1079 21.9102L16.1727 21.86C16.3389 21.8726 16.4115 21.8726 16.4414 21.8688C16.4946 21.8613 16.4985 21.8575 16.5374 21.776C16.5685 21.7083 16.6114 21.6556 16.7541 21.5114C16.8514 21.411 17.0111 21.2417 17.1097 21.1351C17.207 21.0272 17.3407 20.8968 17.4055 20.8441C17.5146 20.7576 17.5314 20.7387 17.6171 20.5958L17.7105 20.4415C18.0168 20.286 18.0959 20.2358 18.2036 20.1493C18.2815 20.0853 18.4307 19.9837 18.5345 19.9222C18.637 19.862 18.7863 19.7655 18.8654 19.7078C18.9433 19.6513 19.0186 19.5874 19.0302 19.566C19.0432 19.5447 19.0471 19.5272 19.0406 19.5272C19.0328 19.5272 18.9913 19.541 18.9459 19.556C18.9018 19.5723 18.7564 19.6488 18.6254 19.7278C18.493 19.8069 18.2854 19.936 18.1647 20.0176C18.0427 20.0978 17.8623 20.212 17.7624 20.2722C17.6625 20.3324 17.5301 20.4152 17.4704 20.4565C17.3666 20.5268 17.3433 20.5368 17.1201 20.6008C16.9111 20.661 16.8592 20.681 16.7243 20.7576C16.6243 20.8127 16.5283 20.8554 16.4582 20.8755C16.3972 20.893 16.3466 20.9056 16.344 20.9043C16.3427 20.903 16.3959 20.8579 16.4608 20.8052C16.527 20.7525 16.6633 20.6535 16.7632 20.5857C16.8631 20.5167 16.9527 20.4565 16.9643 20.4503C16.9747 20.444 17.0798 20.4152 17.1979 20.3851C17.4004 20.3336 17.4224 20.3248 17.6262 20.2157C17.7429 20.1518 17.9246 20.0502 18.0284 19.99C18.1543 19.9147 18.2283 19.8633 18.2516 19.8319C18.2711 19.8056 18.2854 19.783 18.2841 19.7818C18.2828 19.7805 18.2464 19.7905 18.2036 19.8043C18.1608 19.8181 18.0635 19.8633 17.9895 19.9034C17.9142 19.9448 17.791 20.0038 17.717 20.0364C17.6417 20.069 17.4575 20.1392 17.3082 20.1932C17.1577 20.2471 16.9449 20.3261 16.8346 20.3675L16.6334 20.4453C16.4219 20.6434 16.3025 20.7488 16.2311 20.8077C16.1598 20.8679 16.0313 20.9633 15.9457 21.0209C15.8237 21.1037 15.738 21.1476 15.5499 21.2279C15.4006 21.2919 15.2384 21.3496 15.1216 21.3809C14.9944 21.416 14.8893 21.4361 14.8024 21.4424C14.6765 21.4524 14.67 21.4511 14.6635 21.4273C14.6584 21.4135 14.6493 21.3797 14.6415 21.3521C14.6298 21.3107 14.6116 21.2919 14.5247 21.2304L14.4209 21.1577C14.3054 21.2141 14.1484 21.2831 13.9991 21.3458C13.8486 21.4098 13.5865 21.5114 13.4152 21.5716C13.2439 21.633 13.0012 21.7258 12.8766 21.7785C12.7105 21.8475 12.5405 21.9052 12.2473 21.9917C12.0254 22.0569 11.7243 22.1435 11.5789 22.1849C11.4323 22.2263 11.1572 22.3028 10.969 22.3542C10.7796 22.4056 10.485 22.4884 10.3137 22.5373C10.1294 22.59 9.90104 22.6452 9.7557 22.6715C9.61945 22.6966 9.50395 22.7204 9.50006 22.7242C9.49487 22.7292 9.50914 22.753 9.5325 22.7794C9.57273 22.8258 9.57533 22.827 9.72326 22.8459C9.80501 22.8559 9.87379 22.8659 9.87509 22.8672C9.87639 22.8684 9.8699 22.9299 9.85822 23.0014C9.83875 23.1318 9.83746 23.1343 9.76868 23.2146C9.73105 23.2598 9.62074 23.3701 9.52601 23.4592C9.43128 23.5495 9.3093 23.6599 9.25609 23.7063C9.20159 23.7514 9.06404 23.8555 8.94984 23.9383C8.83564 24.0198 8.62931 24.1628 8.49306 24.2556L8.2439 24.4249C8.20238 24.5616 8.1868 24.6106 8.18421 24.6231C8.18032 24.6382 8.15696 24.6494 8.11413 24.657C8.0778 24.6645 8.04146 24.667 8.03238 24.662C8.0233 24.657 7.95971 24.6193 7.88963 24.5767L7.76246 24.5002L7.65994 24.2619C7.72742 24.0587 7.7962 23.9032 7.85849 23.7853C7.94154 23.626 8.01291 23.5144 8.14268 23.3388C8.26077 23.177 8.38535 23.0302 8.54237 22.8647C8.68122 22.7167 8.79542 22.5825 8.83694 22.5185C8.87458 22.4596 8.90053 22.4119 8.89534 22.4119C8.89015 22.4119 8.77206 22.452 8.63321 22.5009C8.49306 22.5499 8.18161 22.6427 7.93895 22.7079C7.61972 22.7944 7.40041 22.8622 7.14736 22.9537C6.954 23.024 6.60623 23.1569 6.37524 23.2497C6.09234 23.3626 5.79128 23.4968 5.46686 23.6536C5.02435 23.8668 4.96725 23.8919 4.85046 23.9157C4.77909 23.9308 4.71939 23.9408 4.7168 23.9395C4.7155 23.9383 4.86733 23.8405 5.0542 23.7238C5.24236 23.6059 5.44739 23.483 5.51228 23.4491C5.57586 23.4153 6.08715 23.1644 6.64775 22.8923C7.6275 22.4144 7.67033 22.3956 7.76895 22.3818C7.86108 22.3705 7.87276 22.3655 7.88185 22.3366C7.88704 22.3203 7.90391 22.2651 7.91818 22.215L7.94544 22.1234C8.30749 21.9491 8.55924 21.8124 8.73962 21.7058C8.92 21.6004 9.22495 21.4348 9.41831 21.337C9.61036 21.2392 9.90494 21.1012 10.0736 21.0297C10.2566 20.952 10.4007 20.883 10.4331 20.8566C10.4642 20.8328 10.4876 20.8115 10.485 20.8102C10.4837 20.809 10.3942 20.8353 10.2878 20.8692C10.18 20.9018 9.85043 21.0147 9.55456 21.1188C9.25739 21.2241 8.9187 21.3345 8.80191 21.3659C8.68382 21.3972 8.51382 21.4461 8.42558 21.4737C8.33604 21.5026 8.16345 21.564 8.04276 21.6104C7.92078 21.6568 7.69887 21.7471 7.54964 21.8099C7.39911 21.8726 7.21873 21.9416 7.14736 21.9629L7.01759 22.0018C6.57508 21.9942 6.48943 21.988 6.47386 21.9767C6.45829 21.9641 6.45569 21.9554 6.46608 21.9353C6.47386 21.919 6.5089 21.9027 6.566 21.8864C6.65164 21.8613 6.65813 21.8575 6.86836 21.6531C7.03835 21.4875 7.10583 21.4323 7.19927 21.3784C7.26285 21.3408 7.39132 21.2768 7.48476 21.2354C7.57689 21.1953 7.69368 21.1414 7.74429 21.1175C7.79361 21.0924 7.852 21.0548 7.87406 21.0322C7.90521 20.9996 7.9078 20.9934 7.88704 20.9984C7.87276 21.0021 7.81048 21.0097 7.75078 21.0147C7.66254 21.0209 7.6314 21.0184 7.59766 21.0034C7.56262 20.9858 7.55613 20.9758 7.55613 20.9382C7.55613 20.9143 7.56132 20.8704 7.56911 20.8416C7.57949 20.7964 7.59506 20.7789 7.66254 20.73C7.70796 20.6974 7.80269 20.6234 7.87406 20.5644C7.97658 20.4791 8.01421 20.4553 8.05574 20.4503C8.08688 20.4465 8.12062 20.4302 8.14398 20.4089C8.17383 20.38 8.17902 20.3675 8.17253 20.3336C8.16604 20.2947 8.16215 20.2922 8.09726 20.286C8.03238 20.2784 8.02849 20.2797 7.99994 20.3173C7.97917 20.3449 7.95452 20.3587 7.9091 20.3687C7.87536 20.3763 7.81048 20.3788 7.76376 20.375C7.71704 20.37 7.66254 20.3637 7.64307 20.3612C7.61842 20.3575 7.60804 20.3487 7.60804 20.3299C7.60804 20.3161 7.61193 20.306 7.61712 20.306C7.62231 20.306 7.72094 20.2546 7.83513 20.1906C7.94933 20.1279 8.11154 20.0339 8.19459 19.9837C8.27894 19.9335 8.4126 19.8595 8.49306 19.8206C8.57351 19.7818 8.76427 19.6839 8.9187 19.6024C9.07182 19.5221 9.24442 19.4281 9.30151 19.3955C9.35861 19.3629 9.5338 19.2751 9.69082 19.1998C9.84784 19.1245 10.1074 18.9979 10.2683 18.9163C10.4279 18.8348 10.6303 18.7282 10.716 18.678C10.8016 18.6279 10.9703 18.5137 11.0923 18.4234C11.213 18.3331 11.3791 18.214 11.4622 18.1588C11.5439 18.1036 11.6373 18.0296 11.6698 17.9957C11.7243 17.9368 11.7347 17.9318 11.8644 17.8992C11.9799 17.8703 12.0111 17.8565 12.0695 17.8089L12.1395 17.7524C11.9916 17.7374 11.9163 17.7273 11.8774 17.7198C11.8372 17.7135 11.7983 17.7035 11.7892 17.6985C11.7801 17.6947 11.7749 17.6822 11.7788 17.6709C11.7827 17.6609 11.8372 17.632 11.8995 17.6057L12.0137 17.558C12.1032 17.3837 12.1045 17.3837 12.2083 17.3385C12.2654 17.3147 12.5717 17.2181 12.8896 17.1266C13.2062 17.0337 13.5423 16.9321 13.6358 16.9008C13.7279 16.8694 13.82 16.8356 13.8408 16.828C13.8603 16.8193 13.8784 16.8055 13.8823 16.7967C13.8862 16.7867 13.8771 16.7816 13.859 16.7829C13.8434 16.7841 13.7526 16.7917 13.6578 16.8017ZM5.75754 21.1514C5.8925 21.0799 6.0041 21.0235 6.0041 21.0247C6.0041 21.0272 5.98723 21.0786 5.92235 21.2517L5.60312 21.4474L5.36304 21.4461L5.43701 21.3646C5.50449 21.2894 5.53564 21.2693 5.75754 21.1514ZM28.5838 17.2796C28.5202 17.3674 28.2749 17.7022 28.0388 18.0221C27.665 18.5288 27.5664 18.653 27.2913 18.9627C27.0188 19.27 26.8864 19.4042 26.3648 19.9022C26.03 20.2233 25.6043 20.6171 25.4187 20.7801C25.2332 20.9419 24.9412 21.2016 24.7699 21.3546C24.5752 21.5289 24.3533 21.7459 24.1795 21.9303C23.9524 22.1698 23.8382 22.2777 23.576 22.5009C23.3463 22.6941 23.1595 22.8396 22.9402 22.9926C22.7689 23.1118 22.4678 23.3312 22.2719 23.4792C22.0746 23.6285 21.7632 23.8605 21.5776 23.9947C21.392 24.1289 21.0884 24.3371 20.9028 24.4588C20.7172 24.5792 20.4629 24.7347 20.3383 24.8025C20.2124 24.8702 19.7985 25.0746 19.417 25.2577C19.0341 25.4396 18.4943 25.693 18.2166 25.8196C17.7871 26.0166 17.6365 26.078 17.2239 26.226C16.8462 26.3615 16.7139 26.4041 16.6334 26.4141C16.5504 26.4242 16.527 26.4242 16.5192 26.4104C16.514 26.4016 16.5101 26.3853 16.5101 26.3728C16.5101 26.3602 16.505 26.3489 16.4998 26.3464C16.4946 26.3439 16.4024 26.3652 16.296 26.3941C16.1403 26.4367 16.0352 26.4769 15.777 26.5948C15.5784 26.6851 15.2423 26.8205 14.914 26.9422C14.6168 27.0526 14.1886 27.2106 13.9602 27.2946C13.7318 27.3774 13.1595 27.5743 12.6885 27.7323C12.2174 27.8904 11.6062 28.0873 11.3324 28.1701C11.0573 28.2541 10.581 28.3996 10.2748 28.4962C9.87768 28.6203 9.62074 28.6931 9.38586 28.747C9.20289 28.7884 8.95763 28.8511 8.84084 28.8862C8.72275 28.9226 8.46321 29.0092 8.26337 29.0806C8.06352 29.1521 7.70017 29.2939 7.45621 29.3955C7.21224 29.4971 7.0137 29.5811 7.015 29.5823C7.01629 29.5836 7.10454 29.5773 7.21224 29.5673C7.31865 29.5573 7.73391 29.5234 8.1336 29.492C8.53329 29.4619 9.06144 29.4168 9.308 29.3917C9.55326 29.3679 10.0646 29.3265 10.4435 29.2989C10.8211 29.2713 11.4258 29.2337 11.7866 29.2161C12.146 29.1985 12.73 29.1622 13.0843 29.1358C13.4372 29.1082 14.0147 29.0694 14.369 29.048C14.8556 29.0204 15.1657 29.0092 15.6537 29.0041C16.0066 28.9991 16.5413 28.9903 16.8411 28.9841C17.1408 28.9765 17.5924 28.9577 17.8468 28.9402C18.0998 28.9226 18.5086 28.8925 18.7551 28.8724C19.0925 28.8449 19.3196 28.8336 19.683 28.8273L20.1631 28.8198C20.7562 28.7244 21.1818 28.6517 21.4932 28.5953C21.9189 28.52 22.1771 28.4661 22.5444 28.3758C22.8117 28.3093 23.1595 28.219 23.3165 28.1738C23.4735 28.1299 24.0159 27.9581 24.5233 27.7938C25.0294 27.6295 25.786 27.3724 26.2038 27.2244C26.6204 27.0764 27.1226 26.8945 27.3198 26.8205C27.5158 26.7465 27.752 26.6612 27.8454 26.6311L28.0141 26.5759L28.4423 26.5772C28.6123 26.68 28.6292 26.6976 28.6629 26.7641C28.6837 26.8055 28.7045 26.8406 28.7084 26.8393C28.711 26.8393 28.7382 26.808 28.7668 26.7691C28.7953 26.7315 28.9666 26.5684 29.1496 26.4079C29.3313 26.2461 29.5856 26.0329 29.7141 25.9313C29.8659 25.8109 29.9567 25.7306 29.9762 25.698C29.9931 25.6704 30.0022 25.6478 29.9996 25.6478C29.9957 25.6478 29.6907 25.7757 29.3209 25.9313C28.9316 26.0956 28.4968 26.2699 28.2866 26.3439C28.0868 26.4154 27.8091 26.522 27.6702 26.581C27.5301 26.6399 27.2264 26.7566 26.9954 26.8406C26.7631 26.9246 26.3401 27.0714 26.0546 27.1679L25.5355 27.3423L25.4187 27.2896C25.0645 27.3761 25.0307 27.3812 24.9451 27.3736C24.8906 27.3686 24.7959 27.3711 24.731 27.3799C24.6661 27.3874 24.4468 27.4326 24.2443 27.4802C23.9627 27.5442 23.8174 27.5718 23.637 27.5919C23.5073 27.6057 23.3969 27.617 23.3944 27.617C23.3905 27.617 23.3684 27.5919 23.345 27.5605L23.3035 27.5041C22.8195 27.5041 22.7818 27.5078 22.4561 27.5605C22.2654 27.5919 21.9864 27.632 21.8371 27.6496C21.649 27.6734 21.5387 27.6922 21.4829 27.7135C21.4387 27.7298 21.4011 27.7436 21.3985 27.7436C21.3972 27.7436 21.3739 27.6884 21.3466 27.6207C21.2999 27.5053 21.2921 27.4953 21.2233 27.4464C21.1546 27.3975 21.1403 27.3925 21.0261 27.3799C20.9184 27.3674 20.882 27.3686 20.7471 27.3912C20.6614 27.405 20.5096 27.4213 20.4097 27.4288L20.228 27.4426L20.1372 27.543C19.9853 27.5028 19.9412 27.4903 19.9399 27.489C19.9373 27.4878 19.9451 27.4552 19.9555 27.4163C19.9724 27.3536 19.9711 27.341 19.9477 27.2658C19.9231 27.1893 19.9179 27.1817 19.8283 27.1178L19.7349 27.0513L19.2288 27.0676L19.099 27.1667C18.9173 27.1366 18.8628 27.1266 18.8615 27.1253C18.8603 27.1228 18.8641 27.0939 18.8719 27.0588C18.8797 27.025 18.8823 26.9798 18.8771 26.9585C18.8732 26.9384 18.8667 26.9121 18.8641 26.8995C18.859 26.8795 18.846 26.8782 18.7318 26.8857C18.6059 26.8933 18.6046 26.8933 18.5112 26.8481C18.4593 26.823 18.419 26.8005 18.4203 26.7967C18.4229 26.7942 18.5177 26.7766 18.6319 26.7578L18.8395 26.7239C19.3521 26.4869 19.6765 26.3251 19.8906 26.211C20.2592 26.0153 20.2981 25.9915 20.6173 25.7594C20.8029 25.624 21.1117 25.3945 21.3051 25.249C21.623 25.0082 21.6632 24.9806 21.7528 24.953C21.806 24.9354 21.8514 24.9229 21.8527 24.9241C21.854 24.9254 21.8618 24.9605 21.8696 25.0019C21.88 25.0508 21.8813 25.1261 21.8761 25.2088C21.8709 25.2816 21.8696 25.338 21.8722 25.3343C21.8761 25.3317 21.9332 25.2327 21.9993 25.1148C22.0668 24.9981 22.1797 24.7811 22.2524 24.6319C22.351 24.4287 22.4068 24.3334 22.4769 24.2406C22.5275 24.1728 22.569 24.1151 22.5664 24.1114C22.5651 24.1076 22.4821 24.1653 22.3822 24.2393C22.2822 24.3133 22.0564 24.4952 21.8826 24.6432C21.6451 24.8426 21.4777 24.9705 21.2272 25.1436C21.0417 25.2715 20.7341 25.4672 20.5459 25.5788C20.3565 25.6905 20.0645 25.8585 19.8971 25.9538C19.6441 26.0956 19.5714 26.1307 19.4754 26.1558C19.4105 26.1733 19.3573 26.1871 19.3547 26.1871C19.3534 26.1871 19.3949 26.1407 19.4468 26.0843C19.535 25.989 19.574 25.9614 19.9244 25.7431C20.1333 25.6127 20.5187 25.3618 20.7795 25.1863C21.0391 25.0094 21.431 24.7397 21.649 24.5867C21.9435 24.3798 22.1382 24.2305 22.4146 23.9998C22.6547 23.7978 22.909 23.5997 23.1413 23.4341L23.4982 23.1795C23.9822 22.6678 24.2703 22.3529 24.4481 22.1485C24.6272 21.9453 24.9438 21.6017 25.1514 21.3834C25.3603 21.1664 25.5446 20.9633 25.5615 20.9319C25.5784 20.9018 25.6809 20.7826 25.7899 20.6685C25.8976 20.5556 26.2051 20.2358 26.4699 19.9599C26.7359 19.6839 27.0954 19.2951 27.2692 19.0944C27.4431 18.895 27.7299 18.5589 27.9064 18.3482C28.1672 18.0396 28.2698 17.9042 28.4449 17.6458C28.6383 17.3611 28.6642 17.3159 28.685 17.2319C28.698 17.1805 28.7071 17.1341 28.7045 17.1291C28.7019 17.124 28.6474 17.1918 28.5838 17.2796ZM20.4798 22.0783C20.5823 22.0068 20.6679 21.9503 20.6679 21.9528C20.6692 21.9553 20.6485 22.0181 20.6238 22.0933C20.5797 22.2225 20.5667 22.2463 20.3902 22.4871C20.2579 22.6703 20.1566 22.7944 20.0398 22.9123C19.9114 23.0465 19.8283 23.1168 19.644 23.251C19.5156 23.345 19.2989 23.488 19.1639 23.5708C19.0277 23.6523 18.8239 23.769 18.7097 23.8292C18.5955 23.8894 18.4774 23.9508 18.4463 23.9659C18.4151 23.9809 18.3957 23.986 18.4009 23.9772C18.4048 23.9684 18.4294 23.9308 18.4541 23.8919C18.4787 23.8543 18.5423 23.774 18.5942 23.7138C18.6474 23.6536 18.6903 23.6009 18.6903 23.5971C18.6903 23.5946 18.6383 23.6172 18.5761 23.6498C18.5138 23.6824 18.349 23.7715 18.2101 23.8492C18.07 23.927 17.7936 24.0687 17.5937 24.1653C17.3939 24.2619 17.1797 24.356 17.1201 24.3748C17.0591 24.3936 17.0085 24.4074 17.0072 24.4049C17.0046 24.4024 17.0396 24.3572 17.085 24.3033C17.1577 24.2142 17.1953 24.1866 17.5029 23.9834C17.6884 23.8605 17.9648 23.6699 18.1193 23.5608C18.2789 23.4466 18.5631 23.2623 18.7876 23.1281C19.0017 22.9989 19.3131 22.8158 19.4818 22.7204C19.6492 22.6251 19.8997 22.4696 20.0398 22.3768C20.1787 22.2827 20.3772 22.1485 20.4798 22.0783ZM14.7972 22.087C14.8854 22.0381 14.962 21.9992 14.9659 21.9992C14.9685 21.9992 14.9425 22.0268 14.9049 22.0582C14.8686 22.0908 14.7907 22.161 14.7297 22.2137C14.6635 22.2714 14.5052 22.3818 14.3235 22.4959C14.1587 22.5988 14.016 22.6891 14.0056 22.6941C13.9939 22.7004 13.9122 22.7242 13.8239 22.7468C13.7344 22.7693 13.6604 22.7869 13.6591 22.7857C13.6578 22.7831 13.6838 22.7405 13.7785 22.5975L14.2068 22.3868C14.4416 22.2702 14.7077 22.136 14.7972 22.087ZM13.0272 23.0378C13.1543 22.9851 13.2633 22.9412 13.2685 22.9399C13.2737 22.9399 13.275 22.9775 13.2724 23.024C13.2685 23.0704 13.262 23.1393 13.2517 23.246L13.1011 23.3526C13.0181 23.4115 12.9441 23.4642 12.9363 23.468C12.9285 23.473 12.8403 23.483 12.7404 23.4905C12.6405 23.4981 12.5561 23.5031 12.5548 23.5006C12.5522 23.4993 12.56 23.4667 12.5704 23.4278C12.5872 23.3739 12.6119 23.3363 12.7962 23.1331L13.0272 23.0378ZM16.5088 25.3782C16.7749 25.3154 16.7943 25.3129 16.9111 25.3192C16.9799 25.323 17.0604 25.3292 17.1499 25.3418L16.9436 25.4572C16.8294 25.5199 16.6023 25.6353 16.4375 25.7118C16.1416 25.8497 16.1377 25.851 15.9573 25.8811C15.8574 25.8987 15.7718 25.9074 15.7666 25.9024C15.7601 25.8974 15.7912 25.8209 15.8353 25.7306C15.8782 25.6415 15.9158 25.5663 15.9171 25.565C15.9184 25.5638 15.9885 25.5349 16.0741 25.5036C16.1624 25.4697 16.3518 25.4158 16.5088 25.3782ZM20.4279 21.8249C20.5031 21.7823 20.5654 21.7484 20.5667 21.7484C20.568 21.7484 20.5433 21.7998 20.4538 21.9742L20.2306 22.1159C20.1073 22.1937 19.9866 22.2702 19.9607 22.2852C19.936 22.3003 19.8166 22.3404 19.6947 22.3743C19.574 22.4094 19.4715 22.4345 19.4676 22.4307C19.465 22.4269 19.4767 22.4106 19.4961 22.3968C19.5143 22.3818 19.5844 22.3266 19.6518 22.2739C19.7323 22.2104 19.859 22.1326 20.0321 22.0406C20.1748 21.9641 20.3539 21.8676 20.4279 21.8249ZM8.83954 1.22539L8.71626 1.25549C8.50863 1.4524 8.45802 1.48501 8.17772 1.6443C8.00383 1.74213 7.80528 1.84749 7.73651 1.87759C7.66903 1.90769 7.61712 1.93528 7.61972 1.93904C7.62361 1.94155 7.71445 1.93904 7.82086 1.93152L8.01551 1.91772L8.70328 1.61796C8.90961 1.29688 8.96801 1.20281 8.96541 1.2003C8.96282 1.19779 8.90572 1.20908 8.83954 1.22539ZM21.758 6.53079C21.745 6.5333 21.7346 6.54459 21.7359 6.55462C21.7372 6.56466 21.7606 6.58096 21.7878 6.59225C21.8151 6.60228 21.841 6.6073 21.8462 6.60103C21.8527 6.59601 21.8553 6.5772 21.8527 6.55964C21.8501 6.53581 21.841 6.52828 21.8164 6.52577C21.7995 6.52577 21.7723 6.52703 21.758 6.53079ZM22.9389 11.406C22.8325 11.4486 22.7079 11.5026 22.6638 11.5239C22.6015 11.5552 22.569 11.5628 22.5223 11.5615L22.4626 11.5578C22.4068 11.7133 22.3497 11.84 22.2965 11.9403C22.2446 12.0406 22.1745 12.1711 22.1395 12.2325C22.1045 12.2927 22.0785 12.3442 22.0798 12.3479C22.0811 12.3517 22.1849 12.2689 22.3095 12.1648C22.4354 12.0595 22.5885 11.9428 22.6508 11.9039C22.7585 11.8362 22.7663 11.8287 22.8351 11.7145C22.8753 11.6493 22.9402 11.5615 22.9817 11.5201C23.0232 11.4787 23.0829 11.4185 23.1141 11.3859C23.1452 11.3521 23.1634 11.3257 23.153 11.327C23.1426 11.327 23.0466 11.3634 22.9389 11.406ZM22.1667 13.2083C21.9643 13.2271 21.7904 13.2472 21.7813 13.251C21.7723 13.2547 21.7645 13.2673 21.7645 13.2798C21.7645 13.2911 21.7567 13.3212 21.7476 13.345C21.7385 13.3689 21.684 13.4542 21.6256 13.5332C21.5478 13.641 21.4842 13.7088 21.3765 13.8028C21.2778 13.8894 21.2052 13.9408 21.1455 13.9684C21.0975 13.991 21.065 14.0085 21.0741 14.0098C21.0832 14.0098 21.1507 13.9947 21.2233 13.9772C21.3349 13.9508 21.3842 13.9295 21.5309 13.8455C21.6619 13.7715 21.7424 13.715 21.8488 13.621C21.989 13.4981 21.9929 13.4955 22.0435 13.5031C22.0941 13.5093 22.098 13.5081 22.1434 13.4491C22.1771 13.4052 22.2238 13.3701 22.3121 13.3212C22.3783 13.2836 22.4652 13.2334 22.5041 13.2108C22.5444 13.1883 22.5677 13.1707 22.5561 13.1707C22.5457 13.172 22.3705 13.1883 22.1667 13.2083ZM28.8044 14.6356C28.4618 14.958 27.9505 15.4559 27.6676 15.7419C27.3847 16.0278 26.9928 16.4116 26.7982 16.5948C26.5335 16.8431 26.3466 17.0036 26.0663 17.2256L25.69 17.5229L25.5991 17.7499C25.3344 17.9857 25.2604 18.0559 25.263 18.0584C25.2656 18.0597 25.3344 18.0221 25.4148 17.9732C25.5109 17.9155 25.7315 17.7499 26.0598 17.4903C26.418 17.2056 26.7112 16.9585 27.0915 16.6186C27.3847 16.3577 27.8143 15.9664 28.0453 15.7494C28.2775 15.5324 28.4683 15.3556 28.4709 15.3568C28.4722 15.3568 28.4826 15.417 28.493 15.4898C28.5033 15.5625 28.5124 15.6804 28.5137 15.7532L28.515 15.8849C28.7175 15.486 28.8537 15.1988 28.9497 14.9881C29.0549 14.7573 29.1859 14.4964 29.2793 14.3296C29.365 14.1779 29.4325 14.0524 29.4299 14.0512C29.4273 14.0487 29.1457 14.3121 28.8044 14.6356ZM13.3114 14.1954C13.3075 14.2004 13.2036 14.2581 13.083 14.3233C12.9623 14.3886 12.7443 14.5165 12.5976 14.6055C12.4523 14.6958 12.3342 14.7698 12.3355 14.7711C12.3368 14.7736 12.3926 14.7686 12.4601 14.7623C12.5821 14.7485 12.5872 14.7473 12.778 14.6432C12.8857 14.5855 13.0285 14.5002 13.0959 14.455C13.179 14.3986 13.2335 14.3522 13.2594 14.3133C13.2815 14.2807 13.3088 14.2393 13.3204 14.2205C13.3321 14.2004 13.3373 14.1854 13.3308 14.1854C13.3256 14.1854 13.3165 14.1891 13.3114 14.1954ZM21.3687 14.6883C21.1052 14.6996 20.8691 14.7109 20.8431 14.7109C20.8003 14.7134 20.7938 14.7197 20.7302 14.8225C20.677 14.9103 20.6381 14.9542 20.5317 15.0445C20.4551 15.111 20.3643 15.175 20.3137 15.2001C20.2656 15.2226 20.2241 15.2439 20.2202 15.2477C20.2176 15.2502 20.2293 15.264 20.2462 15.2766C20.2643 15.2904 20.3098 15.3067 20.3474 15.3142C20.385 15.3205 20.4162 15.328 20.4162 15.3305C20.4162 15.3317 20.3591 15.3669 20.289 15.4083C20.2189 15.4484 20.119 15.4973 20.0645 15.5161L19.9672 15.55L20.2008 15.5675C20.4525 15.476 20.5602 15.4321 20.603 15.4108C20.6459 15.3907 20.7367 15.343 20.8042 15.3042C20.873 15.2665 21.004 15.19 21.0962 15.1348C21.1987 15.0734 21.3012 15.0019 21.3557 14.9505C21.4063 14.9041 21.4738 14.8514 21.5049 14.8326C21.5452 14.8112 21.6126 14.7924 21.7126 14.7749C21.7956 14.7611 21.8709 14.7423 21.8813 14.7347C21.8929 14.726 21.9176 14.7059 21.9371 14.6908L21.9721 14.662C21.8774 14.6645 21.6334 14.6758 21.3687 14.6883ZM14.1665 16.3815C14.1237 16.3878 14.0264 16.4192 13.9485 16.4518C13.872 16.4856 13.8071 16.5182 13.8058 16.5245C13.8045 16.532 13.8499 16.5383 13.9174 16.5408C14.0199 16.5433 14.0316 16.5408 14.0432 16.5182C14.051 16.5045 14.09 16.4769 14.1315 16.4555C14.173 16.4355 14.221 16.4079 14.2379 16.3941C14.2561 16.3803 14.2652 16.369 14.2574 16.369C14.2509 16.3702 14.2094 16.3753 14.1665 16.3815ZM13.1024 16.517C13.0103 16.5433 12.8117 16.6123 12.6612 16.6713C12.512 16.7315 12.3108 16.803 12.2135 16.8318C12.0928 16.8669 11.9579 16.9221 11.7723 17.0087C11.627 17.0776 11.4998 17.1454 11.4907 17.1592C11.4816 17.1717 11.4764 17.1855 11.4777 17.188C11.479 17.1905 11.6179 17.1516 11.7853 17.1015C11.9592 17.05 12.2083 16.9648 12.3627 16.9033C12.5898 16.813 12.6937 16.7791 12.9791 16.7064C13.1686 16.6587 13.4074 16.5948 13.5086 16.5659L13.6942 16.512C13.5852 16.4731 13.5333 16.4681 13.4204 16.4693C13.2893 16.4693 13.253 16.4756 13.1024 16.517ZM20.3695 16.5433C20.1359 16.6111 20.1138 16.6161 19.9412 16.6236C19.7881 16.6311 19.718 16.6412 19.487 16.6951L19.2145 16.7566C18.9796 17.0061 18.8797 17.0965 18.7902 17.1629C18.7123 17.2181 18.6513 17.2658 18.6539 17.2683C18.6552 17.2695 18.7525 17.2482 18.868 17.2206C19.0627 17.1742 19.0977 17.1617 19.3378 17.045C19.5895 16.9234 19.6064 16.9171 19.8569 16.8569C20.1086 16.7967 20.1255 16.7904 20.3798 16.6675C20.5239 16.5973 20.6472 16.5346 20.6523 16.5258C20.6575 16.5182 20.6614 16.5019 20.6614 16.4907C20.6614 16.4769 20.6524 16.4681 20.6394 16.4693C20.6264 16.4706 20.5057 16.5032 20.3695 16.5433ZM25.7678 16.803C25.4927 17.03 25.4032 17.0952 25.1774 17.2357C25.032 17.326 24.8945 17.41 24.8724 17.4213C24.8517 17.4326 24.7089 17.4752 24.5545 17.5154C24.4014 17.5555 24.2729 17.5906 24.269 17.5931C24.2664 17.5956 24.2781 17.6119 24.2949 17.6282C24.3261 17.6571 24.3443 17.6596 24.5739 17.6784L24.8205 17.6985C25.0943 17.5179 25.2656 17.3799 25.5252 17.1541C25.8872 16.8393 25.908 16.8193 26.0014 16.6851C26.0559 16.6073 26.0974 16.5408 26.0948 16.5383C26.0922 16.5358 25.9456 16.655 25.7678 16.803ZM8.78114 17.5956C8.61504 17.6546 8.42428 17.7349 8.28802 17.8013C8.16734 17.8603 8.04406 17.9242 8.01551 17.9418L7.9636 17.9744C8.23352 17.9569 8.2426 17.9543 8.50863 17.849C8.65916 17.7888 8.79412 17.7323 8.80839 17.7223C8.82267 17.7123 8.89145 17.6596 8.96022 17.6069C9.0303 17.553 9.0861 17.5066 9.0861 17.5028C9.0861 17.4991 9.07961 17.4966 9.07053 17.4978C9.06144 17.4991 8.93167 17.543 8.78114 17.5956ZM8.45023 17.9995C8.26985 18.081 8.09597 18.1475 7.95711 18.1901C7.77284 18.2466 7.73002 18.2654 7.64956 18.3218C7.59766 18.3582 7.55743 18.3908 7.56002 18.3971C7.56262 18.4021 7.59636 18.4134 7.63529 18.4222C7.70277 18.4372 7.71055 18.436 7.89872 18.3808C8.07261 18.3306 8.11673 18.3118 8.30749 18.2052C8.47748 18.1099 8.54626 18.0622 8.6384 17.9794C8.70328 17.9205 8.75 17.8741 8.74221 17.8741C8.73572 17.8741 8.60466 17.9305 8.45023 17.9995ZM9.48579 19.4883C9.3677 19.5497 9.33785 19.5723 9.27556 19.6451C9.23533 19.6915 9.20678 19.7316 9.20938 19.7354C9.21327 19.7391 9.29892 19.7002 9.40014 19.6513L9.58441 19.5598C9.62204 19.4632 9.63113 19.4306 9.62853 19.4256C9.62593 19.4205 9.56105 19.4494 9.48579 19.4883ZM15.7497 20.8215C15.6783 20.8416 15.5239 20.8955 15.4058 20.9394C15.2579 20.9971 15.1761 21.0347 15.1398 21.0661L15.0879 21.11C15.3111 21.0937 15.3604 21.0824 15.4707 21.0398C15.5576 21.0084 15.6667 20.952 15.7666 20.8893C15.8548 20.8341 15.9262 20.7877 15.9262 20.7864C15.9262 20.7839 15.9158 20.7839 15.9028 20.7839C15.8899 20.7852 15.8211 20.8015 15.7497 20.8215Z" fill="#6d6d91"/>
</svg>
