<svg width="30" height="30" viewBox="0 0 30 30" fill="#6d6d91" xmlns="http://www.w3.org/2000/svg">
<path fill-rule="evenodd" clip-rule="evenodd" d="M15.5047 4.68141C15.484 5.42549 15.4588 6.34313 15.4485 6.72042C15.4383 7.09772 15.5184 7.53516 15.6262 7.69225C15.7616 7.88936 15.6953 7.97808 15.4125 7.97808C15.0937 7.97808 15.0626 8.03914 15.2725 8.25248C15.4338 8.41644 15.5425 9.20716 15.5425 10.2167C15.5425 11.6893 15.4775 11.9614 15.0363 12.3355C14.7577 12.5717 14.4288 12.7682 14.3051 12.7723C14.0101 12.7821 14.0855 16.0015 14.3852 16.1897C14.8126 16.4581 15.1508 19.4322 15.034 21.8992C14.9247 24.2152 15.1911 26.5 15.5706 26.5C16.0195 26.5 16.1767 24.6176 16.0555 20.7015L15.9257 16.5183L16.6341 16.0056C17.0236 15.7237 17.3424 15.3869 17.3424 15.2572C17.3424 15.1275 17.031 14.7258 16.6503 14.3645C15.9317 13.6824 15.9547 13.1141 16.6929 13.3103C16.9604 13.3815 17.1174 13.3042 17.1174 13.1016C17.1174 12.9111 16.8884 12.7801 16.5549 12.7801C16.0001 12.7801 15.9925 12.7542 15.9959 10.8936C15.9979 9.85589 16.0872 8.86622 16.1945 8.69381C16.303 8.52025 16.9779 8.3156 17.7098 8.23488C19.2222 8.06772 19.0501 7.80133 17.3165 7.62594C16.6625 7.55985 16.0849 7.46244 16.033 7.40939C15.9808 7.35657 15.925 6.49359 15.9088 5.49203C15.8741 3.34898 15.5596 2.71786 15.5047 4.68141ZM12.6363 8.06063C12.891 8.28473 14.6635 8.42627 14.5334 8.21224C14.4551 8.0835 13.9752 7.97808 13.4668 7.97808C12.9585 7.97808 12.5848 8.01513 12.6363 8.06063ZM8.34289 8.42193C5.00273 8.56667 4.5181 8.72765 3.20057 10.1305C2.48039 10.8975 1.8493 12.2358 1.82815 13.0412C1.82117 13.3035 1.49607 13.4821 0.749558 13.6341C-0.293935 13.8466 -0.257262 13.978 0.918299 14.2385C1.38132 14.3409 1.55164 14.6094 1.8808 15.7559C2.35395 17.4032 3.5988 18.911 5.09227 19.6457C6.46132 20.3194 9.06668 20.5046 10.2265 20.0109C10.7057 19.807 11.2803 19.64 11.5033 19.64C11.8646 19.64 11.9119 19.396 11.9362 17.4105C11.9512 16.1844 11.9841 14.8724 12.0093 14.4951C12.0466 13.936 11.9593 13.7953 11.5366 13.7343C11.2513 13.6934 10.8639 13.7896 10.6758 13.9483C10.4724 14.1198 10.2719 14.1502 10.1819 14.0231C9.92658 13.6627 6.95922 13.6103 6.73963 13.962C6.40957 14.4912 6.51194 14.5522 7.89967 14.6542C8.7328 14.7155 9.39561 14.8952 9.617 15.1202C10.091 15.6023 10.4706 19.4242 10.0721 19.7047C9.6602 19.9945 7.36915 19.7345 6.4566 19.2943C3.43839 17.8386 2.91754 11.57 5.66442 9.75985C6.85798 8.97324 8.76857 8.70364 10.0159 9.14588C10.8976 9.45847 11.1069 9.77631 11.6284 11.594C11.6759 11.7593 11.8154 11.8311 11.9386 11.7536C12.079 11.6653 12.0419 11.4254 11.8388 11.1103C11.6606 10.8339 11.4844 10.0679 11.4475 9.40816C11.4104 8.74846 11.3802 8.2271 11.3802 8.24974C11.3802 8.27215 10.0134 8.34967 8.34289 8.42193ZM2.97964 14.4191C2.94139 16.0171 3.07188 16.6674 3.43051 16.6674C3.54886 16.6674 3.56325 16.5396 3.46268 16.3815C3.36257 16.2245 3.22105 15.3754 3.14838 14.4951L3.01586 12.8944L2.97964 14.4191ZM15.7675 15.1811C15.7675 15.6384 15.88 15.7527 16.33 15.7527C17.0074 15.7527 17.0866 15.1884 16.4573 14.8461C15.8359 14.5081 15.7675 14.5412 15.7675 15.1811ZM15.1364 17.239C15.1409 17.6163 15.1913 17.743 15.2484 17.5205C15.3056 17.298 15.3018 16.9893 15.2401 16.8345C15.1785 16.6797 15.1319 16.8617 15.1364 17.239ZM3.60645 17.2962C3.93358 17.8674 4.33091 18.3158 4.97168 18.836C5.5229 19.2835 5.52245 19.2806 4.93928 18.6074C4.61417 18.2321 4.23102 17.6934 4.0877 17.4105C3.94438 17.1277 3.72615 16.896 3.6024 16.896C3.45391 16.896 3.45526 17.0323 3.60645 17.2962Z" fill="#6d6d91"/>
<path fill-rule="evenodd" clip-rule="evenodd" d="M15.5047 4.68141C15.484 5.42549 15.4588 6.34313 15.4485 6.72042C15.4383 7.09772 15.5184 7.53516 15.6262 7.69225C15.7616 7.88936 15.6953 7.97808 15.4125 7.97808C15.0937 7.97808 15.0626 8.03914 15.2725 8.25248C15.4338 8.41644 15.5425 9.20716 15.5425 10.2167C15.5425 11.6893 15.4775 11.9614 15.0363 12.3355C14.7577 12.5717 14.4288 12.7682 14.3051 12.7723C14.0101 12.7821 14.0855 16.0015 14.3852 16.1897C14.8126 16.4581 15.1508 19.4322 15.034 21.8992C14.9247 24.2152 15.1911 26.5 15.5706 26.5C16.0195 26.5 16.1767 24.6176 16.0555 20.7015L15.9257 16.5183L16.6341 16.0056C17.0236 15.7237 17.3424 15.3869 17.3424 15.2572C17.3424 15.1275 17.031 14.7258 16.6503 14.3645C15.9317 13.6824 15.9547 13.1141 16.6929 13.3103C16.9604 13.3815 17.1174 13.3042 17.1174 13.1016C17.1174 12.9111 16.8884 12.7801 16.5549 12.7801C16.0001 12.7801 15.9925 12.7542 15.9959 10.8936C15.9979 9.85589 16.0872 8.86622 16.1945 8.69381C16.303 8.52025 16.9779 8.3156 17.7098 8.23488C19.2222 8.06772 19.0501 7.80133 17.3165 7.62594C16.6625 7.55985 16.0849 7.46244 16.033 7.40939C15.9808 7.35657 15.925 6.49359 15.9088 5.49203C15.8741 3.34898 15.5596 2.71786 15.5047 4.68141ZM12.6363 8.06063C12.891 8.28473 14.6635 8.42627 14.5334 8.21224C14.4551 8.0835 13.9752 7.97808 13.4668 7.97808C12.9585 7.97808 12.5848 8.01513 12.6363 8.06063ZM8.34289 8.42193C5.00273 8.56667 4.5181 8.72765 3.20057 10.1305C2.48039 10.8975 1.8493 12.2358 1.82815 13.0412C1.82117 13.3035 1.49607 13.4821 0.749558 13.6341C-0.293935 13.8466 -0.257262 13.978 0.918299 14.2385C1.38132 14.3409 1.55164 14.6094 1.8808 15.7559C2.35395 17.4032 3.5988 18.911 5.09227 19.6457C6.46132 20.3194 9.06668 20.5046 10.2265 20.0109C10.7057 19.807 11.2803 19.64 11.5033 19.64C11.8646 19.64 11.9119 19.396 11.9362 17.4105C11.9512 16.1844 11.9841 14.8724 12.0093 14.4951C12.0466 13.936 11.9593 13.7953 11.5366 13.7343C11.2513 13.6934 10.8639 13.7896 10.6758 13.9483C10.4724 14.1198 10.2719 14.1502 10.1819 14.0231C9.92658 13.6627 6.95922 13.6103 6.73963 13.962C6.40957 14.4912 6.51194 14.5522 7.89967 14.6542C8.7328 14.7155 9.39561 14.8952 9.617 15.1202C10.091 15.6023 10.4706 19.4242 10.0721 19.7047C9.6602 19.9945 7.36915 19.7345 6.4566 19.2943C3.43839 17.8386 2.91754 11.57 5.66442 9.75985C6.85798 8.97324 8.76857 8.70364 10.0159 9.14588C10.8976 9.45847 11.1069 9.77631 11.6284 11.594C11.6759 11.7593 11.8154 11.8311 11.9386 11.7536C12.079 11.6653 12.0419 11.4254 11.8388 11.1103C11.6606 10.8339 11.4844 10.0679 11.4475 9.40816C11.4104 8.74846 11.3802 8.2271 11.3802 8.24974C11.3802 8.27215 10.0134 8.34967 8.34289 8.42193ZM2.97964 14.4191C2.94139 16.0171 3.07188 16.6674 3.43051 16.6674C3.54886 16.6674 3.56325 16.5396 3.46268 16.3815C3.36257 16.2245 3.22105 15.3754 3.14838 14.4951L3.01586 12.8944L2.97964 14.4191ZM15.7675 15.1811C15.7675 15.6384 15.88 15.7527 16.33 15.7527C17.0074 15.7527 17.0866 15.1884 16.4573 14.8461C15.8359 14.5081 15.7675 14.5412 15.7675 15.1811ZM15.1364 17.239C15.1409 17.6163 15.1913 17.743 15.2484 17.5205C15.3056 17.298 15.3018 16.9893 15.2401 16.8345C15.1785 16.6797 15.1319 16.8617 15.1364 17.239ZM3.60645 17.2962C3.93358 17.8674 4.33091 18.3158 4.97168 18.836C5.5229 19.2835 5.52245 19.2806 4.93928 18.6074C4.61417 18.2321 4.23102 17.6934 4.0877 17.4105C3.94438 17.1277 3.72615 16.896 3.6024 16.896C3.45391 16.896 3.45526 17.0323 3.60645 17.2962Z" fill="#6d6d91"/>
<path d="M21.1779 10.1303C22.4955 8.72745 22.9801 8.56647 26.3202 8.42173C27.9908 8.34947 29.3576 8.27195 29.3576 8.24954C29.3576 8.2269 29.3877 8.74826 29.4249 9.40796C29.4618 10.0677 29.6379 10.8337 29.8161 11.1101C30.0193 11.4252 30.0564 11.6651 29.916 11.7534C29.7927 11.8309 29.6532 11.7591 29.6057 11.5938C29.0842 9.77611 28.875 9.45827 27.9933 9.14568C26.7459 8.70344 24.8353 8.97304 23.6418 9.75965C20.8949 11.5698 21.4157 17.8384 24.4339 19.2941C25.3465 19.7343 27.6375 19.9943 28.0495 19.7045C28.448 19.424 28.0684 15.6021 27.5944 15.12C27.373 14.895 26.7101 14.7153 25.877 14.654C24.4893 14.552 24.3869 14.491 24.717 13.9618C24.9366 13.6101 27.9039 13.6625 28.1593 14.0229C28.2493 14.15 28.4498 14.1196 28.6531 13.9481C28.8412 13.7894 29.2287 13.6932 29.5139 13.7341C29.9367 13.7951 30.024 13.9358 29.9866 14.4949C29.9614 14.8722 29.9286 16.1842 29.9135 17.4103C29.8892 19.3958 29.842 19.6398 29.4806 19.6398C29.2577 19.6398 28.6831 19.8068 28.2038 20.0107C27.044 20.5044 24.4387 20.3192 23.0696 19.6455C21.5762 18.9108 20.3313 17.403 19.8581 15.7557C19.529 14.6092 19.3587 14.3407 18.8957 14.2383C17.7201 13.9778 17.6834 13.8464 18.7269 13.6339C19.4734 13.4819 19.7985 13.3033 19.8055 13.041C19.8267 12.2356 20.4577 10.8973 21.1779 10.1303Z" fill="#6d6d91"/>
</svg>
