<svg width="30" height="30" viewBox="0 0 30 30" fill="#6d6d91" xmlns="http://www.w3.org/2000/svg">
<path d="M29.1794 1.28852C29.2766 0.973547 29.3116 0.777201 29.3272 0.441778V0.437687C29.3389 0.196346 29.3583 0 29.37 0C29.3777 0 29.4672 0.179983 29.5644 0.396782C29.6578 0.61767 29.7705 0.908098 29.8133 1.04309C29.8522 1.17807 29.9105 1.47259 29.9417 1.69757C29.9844 2.04527 29.9844 2.18025 29.9417 2.59749C29.9105 2.86746 29.8522 3.24379 29.8094 3.43605C29.7667 3.6283 29.7044 3.89419 29.6694 4.02917C29.6344 4.16416 29.5644 4.41368 29.51 4.5814C29.4555 4.74911 29.3311 5.10908 29.2338 5.37905C29.1366 5.64903 28.9888 6.01308 28.9072 6.18488C28.8216 6.36078 28.736 6.52849 28.7166 6.55303C28.6933 6.58167 28.6194 6.6962 28.5533 6.81074C28.4833 6.92118 28.4171 7.02344 28.4055 7.03572C28.3938 7.04799 28.3316 7.14616 28.2694 7.26069C28.2032 7.37114 28.1371 7.50204 28.1177 7.54703C28.0982 7.59203 28.0593 7.69429 28.0321 7.77201C28.001 7.84973 27.9777 8.02563 27.9777 8.16061C27.9777 8.37332 27.9893 8.41832 28.0749 8.49604C28.1332 8.5533 28.2188 8.59012 28.2966 8.59012C28.3666 8.58603 28.5066 8.56558 28.6077 8.53694C28.7049 8.50831 28.8022 8.47558 28.8177 8.45513C28.8333 8.43877 28.8799 8.4265 28.9188 8.4265C28.9577 8.4265 28.9888 8.41014 28.9888 8.38559C28.9888 8.36105 29.0161 8.34469 29.0472 8.34469C29.0783 8.34469 29.1055 8.32832 29.1055 8.30378C29.1055 8.27924 29.1211 8.26288 29.1444 8.26288C29.1638 8.26288 29.2533 8.18925 29.3389 8.09925C29.4244 8.00926 29.5022 7.93563 29.5139 7.93563C29.5255 7.93563 29.5216 7.98472 29.51 8.04608C29.4983 8.11153 29.4633 8.22606 29.4283 8.30378C29.3972 8.3815 29.3389 8.52467 29.2961 8.61875C29.2572 8.71692 29.2222 8.82328 29.2222 8.856C29.2222 8.88873 29.2027 8.91736 29.1833 8.91736C29.16 8.91736 29.1444 8.94599 29.1444 8.97872C29.1444 9.01144 29.0822 9.17097 29.0083 9.32641C28.9344 9.48185 28.8099 9.71092 28.7322 9.82546C28.6544 9.94408 28.5338 10.1159 28.4638 10.2059C28.3938 10.2959 28.2577 10.4513 28.1643 10.5536C28.071 10.6558 27.9193 10.8031 27.826 10.8808C27.7327 10.9585 27.6082 11.069 27.5499 11.1262C27.4915 11.1835 27.3943 11.2694 27.3321 11.3226C27.2699 11.3758 27.1726 11.4494 27.1104 11.4862C27.0521 11.523 27.0054 11.568 27.0054 11.5844C27.0054 11.6048 26.9782 11.6171 26.9471 11.6171C26.9159 11.6171 26.8848 11.6335 26.8771 11.6498C26.8732 11.6662 26.7487 11.7726 26.597 11.883C26.4493 11.9975 26.1265 12.2961 25.8892 12.5457C25.6481 12.7993 25.4498 13.0202 25.4498 13.0365C25.4498 13.057 25.3953 13.1347 25.3292 13.2124C25.267 13.2901 25.2125 13.3679 25.2164 13.3842C25.2164 13.4047 25.2592 13.3924 25.3136 13.3638C25.3681 13.3392 25.4109 13.3065 25.4109 13.2942C25.4109 13.282 25.4886 13.2329 25.5859 13.1797C25.6831 13.1306 25.8348 13.0529 25.9242 13.012C26.0176 12.967 26.1615 12.9097 26.247 12.8811C26.3326 12.8525 26.4181 12.8156 26.4415 12.8034C26.4609 12.787 26.5581 12.7543 26.6554 12.7256C26.7526 12.697 26.8654 12.6561 26.9082 12.6397C26.9509 12.6234 27.0987 12.5702 27.2387 12.5252C27.3787 12.4761 27.5304 12.4352 27.5771 12.4352C27.6277 12.4352 27.6743 12.4189 27.686 12.3943C27.6977 12.3698 27.756 12.3534 27.8221 12.3534C27.8843 12.3534 27.9466 12.337 27.9582 12.3125C27.9699 12.288 28.0166 12.2716 28.0632 12.2716C28.1138 12.2716 28.2577 12.2307 28.386 12.1857C28.5144 12.1407 28.6894 12.0671 28.7749 12.0303C28.8605 11.9894 28.9888 11.9321 29.0588 11.8994C29.125 11.8666 29.1833 11.8298 29.1833 11.8094C29.1833 11.793 29.1988 11.7807 29.2222 11.7807C29.2416 11.7807 29.3 11.748 29.3466 11.7071C29.3933 11.6703 29.5216 11.5435 29.6266 11.4289C29.7355 11.3144 29.8522 11.1631 29.8833 11.0894C29.9144 11.0199 29.9533 10.9585 29.9689 10.9626C29.9883 10.9626 30 10.979 30 11.0035C30 11.0281 29.9806 11.1303 29.9611 11.2367C29.9378 11.3471 29.8989 11.523 29.8755 11.6376C29.8522 11.748 29.7472 12.0262 29.6422 12.2511C29.5333 12.4761 29.4283 12.6807 29.4011 12.7052C29.3777 12.7297 29.3311 12.7952 29.3 12.8443C29.2688 12.8934 29.1638 13.0283 29.0666 13.1429C28.9694 13.2574 28.841 13.3965 28.7788 13.4538C28.7166 13.511 28.6116 13.6174 28.5455 13.6828C28.4794 13.7524 28.3082 13.9037 28.1605 14.0223C28.0166 14.141 27.8804 14.2351 27.861 14.2351C27.8377 14.2351 27.8221 14.2514 27.8221 14.276C27.8221 14.3005 27.7949 14.3169 27.7638 14.3169C27.7327 14.3169 27.7054 14.3332 27.7054 14.3578C27.7054 14.3823 27.686 14.3987 27.6665 14.3987C27.6471 14.3987 27.5149 14.4723 27.3749 14.5623C27.2349 14.6523 27.0987 14.7259 27.0715 14.7259C27.0443 14.7259 27.0054 14.7423 26.9821 14.7586C26.9626 14.7791 26.8848 14.82 26.8109 14.8486C26.737 14.8773 26.6282 14.9223 26.5659 14.9468C26.5076 14.9713 26.4609 15.0041 26.4609 15.0204C26.4609 15.0409 26.4376 15.0532 26.4104 15.0532C26.387 15.0532 26.2859 15.1309 26.1887 15.2291C26.0915 15.3272 26.0098 15.4418 26.0059 15.4868C26.002 15.5277 26.0137 15.6095 26.0331 15.6667C26.0565 15.724 26.1226 15.7895 26.1809 15.8181C26.2392 15.8426 26.3715 15.8794 26.4804 15.8958C26.5854 15.9122 26.7176 15.9326 26.7721 15.9367C26.8265 15.9408 26.9276 15.9285 26.9937 15.9081C27.0637 15.8876 27.1221 15.8835 27.1221 15.8999C27.1221 15.9204 27.0832 15.9694 27.0365 16.0144C26.986 16.0594 26.8965 16.1249 26.8382 16.1576C26.7798 16.1903 26.7332 16.2312 26.7332 16.2476C26.7332 16.268 26.7059 16.2803 26.6748 16.2803C26.6437 16.2803 26.6165 16.2967 26.6165 16.3212C26.6165 16.3458 26.5893 16.3621 26.5581 16.3621C26.527 16.3621 26.4998 16.3744 26.4998 16.3908C26.4998 16.4112 26.4609 16.4439 26.4104 16.4685C26.3637 16.493 26.2237 16.5707 26.0992 16.6444C25.9787 16.7139 25.8426 16.7712 25.7998 16.7712C25.757 16.7712 25.7142 16.7875 25.7025 16.8121C25.6909 16.8366 25.6481 16.853 25.6053 16.853C25.5625 16.853 25.4964 16.8694 25.4575 16.8898C25.4225 16.9103 25.3136 16.9471 25.2164 16.9757C25.1192 17.0043 25.0103 17.0412 24.9714 17.0616C24.9364 17.0821 24.8508 17.0984 24.7886 17.0984C24.7225 17.0984 24.6719 17.1148 24.6719 17.1393C24.6719 17.1639 24.6292 17.1802 24.5747 17.1802C24.5203 17.1802 24.4697 17.1966 24.458 17.2211C24.4464 17.2457 24.3958 17.262 24.3414 17.262C24.2869 17.262 24.2364 17.2784 24.2247 17.303C24.213 17.3275 24.1664 17.3439 24.1158 17.3439C24.0652 17.3439 24.0108 17.3602 23.9875 17.3766C23.968 17.3929 23.8825 17.4338 23.7969 17.4625C23.7113 17.4952 23.5635 17.5566 23.4663 17.5975C23.3691 17.6425 23.2563 17.6956 23.2135 17.712C23.1707 17.7284 22.9802 17.8225 22.7857 17.9206C22.5952 18.0188 22.4085 18.1292 22.3696 18.162C22.3346 18.1947 22.2763 18.2479 22.2451 18.2724C22.2101 18.301 22.1518 18.3256 22.1129 18.3256C22.0585 18.3256 22.0546 18.3338 22.0974 18.3747C22.1363 18.4197 22.179 18.4197 22.319 18.3747C22.4396 18.3419 22.8246 18.3256 23.5519 18.3256C24.3103 18.3256 24.668 18.3092 24.8081 18.2683C24.9131 18.2397 25.0725 18.1824 25.1581 18.1415C25.2436 18.0965 25.3214 18.0556 25.3331 18.0433C25.3448 18.027 25.4031 17.9738 25.5703 17.8143L25.5237 17.9574C25.4964 18.0352 25.4498 18.1742 25.4148 18.2601C25.3798 18.3501 25.3331 18.4442 25.3136 18.4688C25.2942 18.4933 25.2397 18.5751 25.2009 18.6528C25.1581 18.7305 25.1036 18.8205 25.0842 18.8492C25.0608 18.8819 24.9014 19.0578 24.7264 19.2378C24.5553 19.4218 24.3764 19.6059 24.3297 19.6427C24.283 19.6836 24.2364 19.7164 24.2247 19.7164C24.213 19.7164 24.1702 19.7491 24.1314 19.7859C24.0925 19.8268 24.0069 19.8882 23.9486 19.9209C23.8863 19.9536 23.828 19.9904 23.8163 20.0027C23.8047 20.015 23.6724 20.0845 23.5247 20.1622C23.373 20.2359 23.2174 20.3136 23.1746 20.3299C23.1319 20.3463 23.0541 20.379 22.9996 20.4036C22.9452 20.4281 22.8596 20.4568 22.8052 20.4731C22.7507 20.4854 22.6457 20.5181 22.5718 20.5386C22.4979 20.5631 22.3579 20.5999 22.2607 20.6204C22.1635 20.6449 21.9962 20.6776 21.8912 20.7022C21.7823 20.7226 21.514 20.7635 21.2884 20.7881C21.0629 20.8167 20.7673 20.8372 20.6273 20.8372C20.4873 20.8372 20.2695 20.8126 20.1411 20.7881C20.0128 20.7595 19.83 20.7185 19.7328 20.694C19.6356 20.6654 19.3828 20.6367 19.1689 20.6286C18.8111 20.6122 18.7761 20.6204 18.7294 20.6981C18.7061 20.7431 18.6905 20.8167 18.7022 20.8617C18.7138 20.9108 18.7527 20.9435 18.7994 20.9435C18.8422 20.9435 18.8772 20.964 18.8772 20.9844C18.8772 21.0049 18.9277 21.0253 18.9939 21.0253C19.0561 21.0253 19.1183 21.0458 19.13 21.0662C19.1416 21.0867 19.1767 21.1071 19.2078 21.1071C19.2389 21.1071 19.3244 21.1685 19.3983 21.238C19.4683 21.3117 19.5733 21.463 19.6278 21.5776C19.6822 21.688 19.7367 21.8557 19.7483 21.9457C19.76 22.0357 19.7639 22.0848 19.7522 22.0562C19.7406 22.0316 19.7056 22.0071 19.6745 22.0071C19.6433 22.0071 19.6122 21.9866 19.6045 21.9662C19.6006 21.9416 19.3167 21.9089 18.955 21.8843C18.6011 21.8598 18.2122 21.8189 18.0838 21.7903C17.9594 21.7657 17.8505 21.7289 17.8427 21.7085C17.8349 21.6921 17.7921 21.6798 17.7494 21.6798C17.7066 21.6798 17.6366 21.6594 17.5938 21.6389C17.551 21.6185 17.481 21.5776 17.4382 21.5571C17.3954 21.5367 17.3332 21.5162 17.3021 21.5162C17.271 21.5162 17.2321 21.5489 17.2204 21.5857L17.2175 21.5961C17.2032 21.6462 17.1676 21.7705 17.1388 21.8843C17.1038 22.0193 17.0843 22.2893 17.0843 22.5593C17.0843 22.8047 17.1077 23.0992 17.1388 23.2138C17.166 23.3242 17.2321 23.4837 17.2827 23.5615C17.3332 23.6392 17.3954 23.7251 17.4188 23.7455C17.4382 23.766 17.4888 23.811 17.5277 23.8355C17.5821 23.8805 17.6093 23.8723 17.6793 23.7946C17.7299 23.7455 17.7882 23.6596 17.8116 23.6024C17.8349 23.5451 17.8777 23.451 17.901 23.3856C17.9244 23.3242 17.9438 23.1933 17.9438 23.0911C17.9438 22.9888 17.9671 22.8129 17.9905 22.7025C18.0177 22.5879 18.0527 22.4979 18.0683 22.4979C18.0877 22.4979 18.0994 22.5879 18.0994 22.7025C18.0994 22.8129 18.1149 22.9152 18.1383 22.9274C18.1577 22.9397 18.1772 22.9929 18.1772 23.0501C18.1772 23.1074 18.1927 23.1524 18.216 23.1524C18.2355 23.1524 18.2549 23.181 18.2549 23.2138C18.2549 23.2465 18.2783 23.316 18.3016 23.3651C18.3288 23.4142 18.3755 23.4797 18.3988 23.5083C18.4261 23.5369 18.4649 23.631 18.4883 23.7128C18.5077 23.7987 18.5272 23.9296 18.5272 23.9992C18.5272 24.0728 18.4999 24.2773 18.4649 24.4491C18.4299 24.625 18.3794 24.8132 18.3522 24.8704C18.3249 24.9277 18.2783 25.0791 18.251 25.2059C18.2005 25.4227 18.2005 25.4431 18.2744 25.5249C18.3172 25.5699 18.3988 25.6108 18.4572 25.6067C18.5194 25.6067 18.5661 25.5863 18.5661 25.5658C18.5661 25.5454 18.5894 25.5249 18.6127 25.5249C18.64 25.5249 18.7061 25.4677 18.7605 25.3981C18.815 25.3245 18.8889 25.21 18.9978 25.0136L18.9744 25.2468C18.9627 25.3777 18.9161 25.5699 18.8694 25.6763C18.8227 25.7867 18.7644 25.9013 18.7372 25.934C18.71 25.9667 18.5661 26.1303 18.4144 26.2899C18.2627 26.4535 18.111 26.5885 18.0799 26.5885C18.0488 26.5885 18.0216 26.6089 18.0216 26.6294C18.0216 26.6498 17.9788 26.6703 17.9244 26.6703C17.8699 26.6703 17.8232 26.6866 17.8155 26.7071C17.8116 26.7234 17.7182 26.7521 17.4188 26.793L17.4227 26.5353L17.4243 26.4755C17.4276 26.3595 17.4304 26.2583 17.4304 26.2408C17.4343 26.2203 17.4732 26.1549 17.516 26.0976C17.5588 26.0403 17.5899 25.9912 17.586 25.9831C17.5782 25.979 17.5277 25.9831 17.4654 25.9953C17.4071 26.0076 17.3604 26.0362 17.3604 26.0567C17.3604 26.0771 17.341 26.0976 17.3216 26.0976C17.2982 26.0976 17.201 26.1876 17.096 26.3021C16.9638 26.4494 16.8821 26.5067 16.8043 26.5067C16.746 26.5067 16.6993 26.4862 16.6993 26.4535C16.6993 26.4289 16.7343 26.3021 16.7732 26.1794C16.8121 26.0567 16.8665 25.844 16.8938 25.709C16.9249 25.5576 16.9326 25.3613 16.9171 25.1977C16.9015 25.0504 16.8549 24.7559 16.8121 24.5432C16.7693 24.3305 16.7226 24.1341 16.711 24.1137C16.698 24.0864 16.6811 24.0864 16.6604 24.1137C16.641 24.1341 16.5904 24.3468 16.5437 24.5841C16.4971 24.8214 16.4271 25.075 16.3921 25.1527C16.3571 25.2304 16.3026 25.3122 16.2676 25.3368C16.2171 25.3736 16.1859 25.3654 16.1276 25.2999C16.0887 25.2549 16.0343 25.169 16.007 25.1036C15.9798 25.0422 15.9604 24.8336 15.9604 24.6332C15.9604 24.3428 15.9409 24.2405 15.867 24.0728C15.8165 23.9583 15.7231 23.811 15.6609 23.7455C15.5987 23.6801 15.482 23.5287 15.4042 23.4183C15.3226 23.3038 15.2292 23.1197 15.1942 23.0092C15.1437 22.8456 15.1359 22.6616 15.1475 22.0807C15.1592 21.6144 15.1475 21.3526 15.1242 21.3526C15.1009 21.3526 15.0737 21.3935 15.062 21.4467C15.0503 21.4957 14.9998 21.6266 14.9531 21.7412C14.9064 21.8516 14.8481 21.9825 14.8248 22.0275C14.8014 22.0725 14.7392 22.2239 14.6886 22.3629C14.642 22.5061 14.5992 22.7065 14.5992 22.8129C14.5992 22.9233 14.6342 23.1115 14.6809 23.2342C14.7275 23.3569 14.8092 23.586 14.8598 23.7455C14.9414 23.991 14.9531 24.0769 14.9336 24.3387C14.922 24.5064 14.8792 24.7355 14.8364 24.85C14.7975 24.9604 14.7275 25.1445 14.6031 25.4636L14.5992 25.259C14.5953 25.1445 14.5875 25.0177 14.5797 24.9727C14.572 24.9277 14.5525 24.8459 14.5409 24.7886C14.5292 24.7314 14.4981 24.6373 14.4708 24.5718C14.4436 24.5105 14.4125 24.4614 14.3931 24.4614C14.3775 24.4614 14.3658 24.4246 14.3658 24.3796C14.3658 24.3346 14.3542 24.2896 14.3347 24.2814C14.3192 24.2732 14.2842 24.1669 14.2569 24.0482C14.2297 23.9255 14.2064 23.7333 14.1908 23.4183L14.0508 23.7251C13.973 23.8928 13.8875 24.1055 13.8641 24.1955C13.8408 24.2855 13.8214 24.4287 13.8214 24.5105C13.8214 24.5964 13.8564 24.7436 13.8991 24.8377C13.9419 24.9359 13.9847 25.1036 14.0003 25.2181C14.0119 25.3368 13.9964 25.5413 13.9614 25.709C13.9303 25.8685 13.8836 25.9994 13.8641 26.0035C13.8408 26.0117 13.8214 26.0444 13.8214 26.0771C13.8214 26.1099 13.7941 26.1671 13.763 26.1999C13.7203 26.2449 13.6852 26.2489 13.6269 26.2203C13.5841 26.1999 13.553 26.1671 13.5569 26.1467C13.5608 26.1303 13.5452 26.0731 13.5219 26.0158C13.4986 25.9544 13.4947 25.8235 13.5141 25.6885C13.5297 25.5658 13.5569 25.3818 13.5725 25.2795C13.5958 25.1404 13.5919 25.1036 13.5569 25.1241C13.5297 25.1445 13.5102 25.1813 13.5102 25.2059C13.5064 25.2345 13.4052 25.3613 13.2808 25.484C13.1563 25.6067 13.028 25.7704 12.993 25.8399C12.958 25.9135 12.923 26.0444 12.923 26.1262C12.9191 26.2121 12.9463 26.3635 12.9813 26.4657C13.0124 26.568 13.0435 26.6744 13.0435 26.6989C13.0435 26.7398 12.9463 26.7521 12.6935 26.7521C12.4991 26.7521 12.3124 26.7357 12.2735 26.7153C12.2385 26.6948 12.1568 26.6539 12.0946 26.6253C12.0363 26.5926 11.9507 26.5353 11.9118 26.4944C11.8729 26.4576 11.8263 26.4248 11.8068 26.4248C11.7913 26.4248 11.7407 26.3717 11.6901 26.3103C11.6435 26.2489 11.554 26.1344 11.4879 26.0567C11.4257 25.979 11.3323 25.8194 11.2818 25.709C11.2312 25.5945 11.1768 25.4227 11.134 25.1363L11.204 25.2386C11.239 25.2959 11.3168 25.3777 11.3673 25.4227C11.4218 25.4677 11.5112 25.529 11.5657 25.5576C11.6201 25.5863 11.7057 25.6067 11.7601 25.6067C11.8535 25.6067 11.8574 25.5945 11.869 25.3531C11.8768 25.165 11.8574 25.0341 11.7951 24.8704C11.7485 24.7477 11.6901 24.5718 11.6629 24.4818C11.6318 24.3918 11.5813 24.22 11.5501 24.1014C11.5151 23.9869 11.4879 23.8274 11.4879 23.7537C11.4879 23.6842 11.5151 23.5451 11.5462 23.4469C11.5774 23.3528 11.6279 23.2465 11.6513 23.2138C11.6785 23.177 11.7213 23.1279 11.7446 23.0992C11.7679 23.0706 11.8146 22.9888 11.8496 22.9152C11.8885 22.8456 11.9274 22.7924 11.9429 22.8006C11.9624 22.8088 11.9857 22.9724 11.9974 23.1565C12.0129 23.4019 12.0441 23.5533 12.1102 23.6842C12.1568 23.7864 12.2463 23.9296 12.3007 24.0032C12.3552 24.0769 12.4174 24.1382 12.4369 24.1341C12.4524 24.1341 12.5224 24.0728 12.5924 23.9992C12.6585 23.9296 12.7519 23.7864 12.7985 23.6842C12.8452 23.5819 12.9074 23.4183 12.9308 23.316C12.9619 23.2097 12.9813 22.8865 12.9774 22.5388C12.9774 22.1011 12.958 21.8803 12.9074 21.7003C12.8724 21.5653 12.8335 21.4139 12.8258 21.3608C12.818 21.3117 12.7869 21.2708 12.7596 21.2708C12.7363 21.2708 12.5652 21.3444 12.3824 21.4385C12.1996 21.5326 12.0168 21.6226 11.974 21.6389C11.9313 21.6553 11.8496 21.6921 11.7874 21.7166C11.729 21.7412 11.6396 21.7616 11.5851 21.7616C11.5307 21.7616 11.449 21.7821 11.3985 21.8066C11.3518 21.8353 11.0679 21.8598 10.7684 21.868C10.469 21.8762 10.2162 21.8925 10.2084 21.9048C10.2006 21.9171 10.1501 21.9253 10.0995 21.9253C10.0489 21.9253 9.96339 21.958 9.80393 22.0684L9.83116 21.9253C9.8506 21.8475 9.90894 21.7003 9.96339 21.598C10.0178 21.4958 10.1112 21.3649 10.1656 21.3035C10.2201 21.2421 10.2862 21.1931 10.3095 21.189C10.3367 21.189 10.3601 21.1685 10.3601 21.1481C10.3601 21.1276 10.3873 21.1071 10.4184 21.1071C10.4495 21.1071 10.539 21.0703 10.6129 21.0253C10.6868 20.9803 10.7762 20.9435 10.8073 20.9435C10.8384 20.9435 10.8734 20.9108 10.8812 20.8699C10.8851 20.8331 10.8812 20.7635 10.8657 20.7185C10.8501 20.6736 10.7879 20.6122 10.7256 20.5836C10.6401 20.5427 10.4573 20.5345 9.93227 20.5549C9.55892 20.5713 8.94444 20.5836 8.57109 20.5877C8.19774 20.5877 7.79327 20.5672 7.6766 20.5427C7.55993 20.5181 7.3927 20.4772 7.30714 20.4527C7.22158 20.4281 7.10879 20.3954 7.05823 20.379C7.00768 20.3627 6.96101 20.3381 6.95323 20.3177C6.94545 20.3013 6.91045 20.289 6.87934 20.289C6.84822 20.289 6.74711 20.2522 6.65377 20.2072C6.56432 20.1622 6.46709 20.1254 6.43987 20.1254C6.41653 20.1254 6.3932 20.1091 6.3932 20.0845C6.3932 20.06 6.35042 20.0436 6.29597 20.0436C6.24152 20.0436 6.19485 20.0313 6.18708 20.0109C6.18319 19.9945 6.09374 19.9373 5.99262 19.88C5.89151 19.8227 5.80983 19.7655 5.80983 19.745C5.80983 19.7286 5.7865 19.7164 5.75928 19.7164C5.73594 19.7164 5.65427 19.6632 5.58038 19.6018C5.50648 19.5405 5.37426 19.4178 5.2887 19.3237C5.19925 19.2337 5.09035 19.111 5.03979 19.0496C4.99312 18.9883 4.9309 18.8942 4.90368 18.8369C4.88034 18.7796 4.84923 18.7346 4.83756 18.7346C4.82589 18.7346 4.74033 18.5669 4.647 18.3583C4.55366 18.1497 4.45643 17.937 4.4331 17.8879C4.40976 17.8347 4.39809 17.7856 4.40976 17.7775C4.42143 17.7652 4.47976 17.8061 4.54588 17.8674C4.6081 17.9288 4.74033 18.0188 4.83756 18.0638C4.93479 18.1129 5.0748 18.1701 5.14869 18.1988C5.23814 18.2274 5.66205 18.2397 6.41264 18.2356C7.2138 18.2315 7.56382 18.2438 7.62604 18.2765C7.6766 18.3051 7.75049 18.3256 7.79327 18.3256C7.83605 18.3256 7.90606 18.3501 7.94884 18.3747C7.98773 18.4033 8.0344 18.4156 8.04606 18.3951C8.05773 18.3788 8.02273 18.3215 7.96828 18.2642C7.91383 18.207 7.85161 18.162 7.83216 18.162C7.80883 18.162 7.79327 18.1456 7.79327 18.1211C7.79327 18.0965 7.76605 18.0802 7.73494 18.0802C7.70382 18.0802 7.6766 18.0679 7.6766 18.0474C7.6766 18.0311 7.62993 17.9902 7.57159 17.9574C7.50937 17.9247 7.4277 17.8634 7.38492 17.8225C7.34214 17.7856 7.2838 17.7529 7.25658 17.7529C7.23324 17.7529 7.20991 17.7365 7.20991 17.712C7.20991 17.6875 7.1788 17.6629 7.1399 17.6547C7.1049 17.6425 7.01934 17.6016 6.95712 17.5607C6.891 17.5198 6.83656 17.4748 6.82878 17.4543C6.82489 17.4379 6.79766 17.4257 6.77044 17.4257C6.74711 17.4257 6.61099 17.3684 6.47098 17.2989C6.33097 17.2293 6.1793 17.1516 6.12874 17.1352C6.08207 17.1148 6.00429 17.0821 5.95373 17.0616C5.90706 17.0412 5.81372 17.0084 5.7515 16.9839C5.68538 16.9634 5.55704 16.9225 5.45982 16.8939C5.36259 16.8694 5.2148 16.8285 5.12924 16.8039C5.04368 16.7835 4.84923 16.7262 4.70144 16.6812C4.54977 16.6362 4.39809 16.583 4.3592 16.5626C4.3242 16.5421 4.25809 16.5258 4.21531 16.5258C4.17253 16.5258 4.12975 16.5094 4.11808 16.4848C4.10641 16.4603 4.06363 16.4439 4.02085 16.4439C3.97807 16.4439 3.94307 16.4317 3.94307 16.4112C3.94307 16.3949 3.86529 16.358 3.76806 16.3294C3.67083 16.3049 3.59305 16.264 3.59305 16.2394C3.59305 16.2149 3.56583 16.1985 3.53471 16.1985C3.5036 16.1985 3.36748 16.1249 3.23137 16.0308C3.09914 15.9367 2.98635 15.8467 2.97857 15.8263C2.97469 15.8058 2.94357 15.7895 2.91246 15.7895C2.88135 15.7895 2.85412 15.7731 2.85412 15.7486C2.85412 15.724 3.01747 15.7076 3.26248 15.7076C3.48805 15.7076 3.70195 15.6913 3.73695 15.6708L3.737 15.6708C3.77591 15.6503 3.86143 15.6054 3.9314 15.5767C4.0053 15.544 4.06363 15.4868 4.07919 15.4295C4.09086 15.3804 4.07919 15.2986 4.05196 15.2454C4.02863 15.1963 3.9664 15.1145 3.91585 15.0613C3.86529 15.0123 3.80695 14.9713 3.78751 14.9713C3.76417 14.9713 3.74861 14.955 3.74861 14.9304C3.74861 14.9059 3.72139 14.8895 3.69028 14.8895C3.65917 14.8895 3.56972 14.8527 3.49582 14.8077C3.42193 14.7627 3.33248 14.7259 3.30137 14.7259C3.27026 14.7259 3.24303 14.7096 3.24303 14.685C3.24303 14.6605 3.21581 14.6441 3.1847 14.6441C3.15358 14.6441 3.02524 14.5868 2.90079 14.5173C2.78787 14.4483 2.6613 14.3758 2.61056 14.3467L2.60133 14.3414C2.55855 14.3169 2.44577 14.2351 2.34854 14.1614C2.25131 14.0878 2.12297 13.9855 2.05686 13.9364C1.99463 13.8874 1.87407 13.781 1.78462 13.7033C1.69906 13.6256 1.4735 13.3965 1.28293 13.192C1.09236 12.9915 0.89402 12.7584 0.835684 12.6807C0.781236 12.6029 0.726789 12.5293 0.715122 12.517C0.703454 12.5048 0.621783 12.3861 0.536223 12.2511C0.446774 12.1162 0.326212 11.9035 0.267876 11.7807C0.20954 11.658 0.143425 11.4985 0.123979 11.433C0.104534 11.3676 0.065643 11.2203 0.0345303 11.1058C0.00730664 10.9913 -0.00436064 10.8767 0.0111957 10.8481C0.0267521 10.8154 0.0539758 10.8358 0.0928667 10.9095C0.123979 10.9749 0.271765 11.1508 0.42344 11.3103C0.575114 11.4699 0.769569 11.6335 0.85124 11.6826C0.9368 11.7276 1.06903 11.8053 1.14292 11.8462C1.21681 11.8912 1.35682 11.9525 1.45405 11.9853C1.55128 12.0139 1.64462 12.0548 1.66795 12.0712C1.6874 12.0834 1.7574 12.108 1.82351 12.1202C1.88574 12.1325 2.01019 12.1652 2.09575 12.1898C2.18131 12.2143 2.31743 12.2552 2.39521 12.2757C2.47688 12.2961 2.61689 12.333 2.70634 12.3575C2.79966 12.382 2.93189 12.4066 2.99802 12.4189C3.06802 12.427 3.12636 12.4475 3.12636 12.4639C3.12636 12.4843 3.17303 12.5007 3.23137 12.5088C3.29359 12.5129 3.44527 12.5579 3.57361 12.6029C3.70195 12.6479 3.88473 12.7256 3.98196 12.7706C4.07919 12.8156 4.19975 12.8729 4.2542 12.8974C4.30864 12.922 4.42143 12.9915 4.50699 13.0488C4.59255 13.1102 4.68589 13.1715 4.70922 13.1838C4.73644 13.2001 4.75978 13.2001 4.75978 13.1797C4.75589 13.1633 4.58477 12.9752 4.37865 12.7625C4.16864 12.5498 3.88473 12.2716 3.74861 12.1489C3.60861 12.0262 3.48805 11.9157 3.47638 11.9035C3.46471 11.8912 3.3247 11.7644 3.16525 11.6171C3.0058 11.4699 2.85412 11.3349 2.83079 11.3103C2.80745 11.2858 2.67911 11.1672 2.543 11.0444C2.40688 10.9217 2.08019 10.5945 1.81574 10.3163C1.55128 10.0423 1.33738 9.80092 1.33738 9.77637C1.33738 9.75183 1.30626 9.70274 1.26737 9.66593C1.23237 9.62911 1.09236 9.36732 0.960135 9.08507C0.827905 8.79874 0.726789 8.55739 0.734567 8.53694C0.746234 8.52058 0.734567 8.50831 0.715122 8.50831C0.691787 8.50831 0.676231 8.48376 0.676231 8.45513C0.676231 8.43059 0.641229 8.32832 0.598449 8.23015C0.555669 8.13607 0.520667 8.02153 0.520667 7.97654C0.520667 7.93154 0.501222 7.84973 0.481776 7.79246C0.458442 7.7352 0.454552 7.6902 0.470109 7.6902C0.489554 7.6902 0.547891 7.73111 0.606227 7.78428C0.660674 7.83337 0.742345 7.90291 0.781236 7.93563C0.820127 7.96836 0.901798 8.0379 0.967913 8.08289C1.03014 8.13198 1.1507 8.2097 1.22848 8.25879C1.31015 8.30378 1.47738 8.35696 1.59795 8.37332C1.80407 8.39377 1.83129 8.38968 1.91296 8.29969C1.99463 8.21379 2.00241 8.16879 1.99074 7.91518C1.97908 7.68611 1.94796 7.56339 1.8274 7.3016C1.74573 7.12162 1.65239 6.94572 1.61739 6.913C1.58628 6.88028 1.50461 6.75756 1.4346 6.64712C1.36849 6.53667 1.22459 6.2667 1.11959 6.05399C1.01069 5.84128 0.859018 5.49768 0.781236 5.29724C0.703454 5.0968 0.544002 4.62639 0.427329 4.25415C0.310656 3.88192 0.186205 3.44014 0.151203 3.27243C0.116201 3.10471 0.065643 2.76111 0.0345303 2.51568C-0.0121388 2.1189 -0.0121388 2.01663 0.0384194 1.65667C0.0695321 1.43169 0.139536 1.10853 0.193983 0.940822C0.24843 0.773111 0.345658 0.511317 0.415661 0.355876C0.485665 0.204527 0.547891 0.0818107 0.559558 0.0818107C0.571225 0.0818107 0.590671 0.23316 0.602338 0.417234C0.617894 0.605399 0.664563 0.867193 0.703454 1.00218C0.746234 1.13717 0.831795 1.34988 0.890131 1.47259C0.948467 1.59531 1.04569 1.7712 1.10014 1.86119C1.15459 1.95118 1.21681 2.04936 1.24015 2.07799C1.25959 2.10662 1.29849 2.15162 1.31793 2.18025C1.34127 2.20889 1.41905 2.31115 1.49294 2.41341C1.56683 2.51568 1.64462 2.61794 1.66795 2.64248C1.6874 2.66703 1.80407 2.80201 1.92074 2.94518C2.03741 3.08835 2.17742 3.25197 2.23187 3.31333C2.28632 3.37469 2.42632 3.53831 2.543 3.68148C2.65967 3.82465 2.82301 4.01281 2.90468 4.10689C2.98635 4.20098 3.12636 4.3646 3.21581 4.47504C3.30526 4.58549 3.44138 4.74093 3.51527 4.82683C3.58916 4.91273 3.71361 5.0559 3.78751 5.14998C3.8614 5.24406 3.98585 5.39132 4.05974 5.47722C4.13364 5.56312 4.29309 5.7472 4.40976 5.88628C4.52643 6.02944 4.67422 6.20125 4.73256 6.27488C4.79089 6.34442 4.91534 6.48349 5.00479 6.58576C5.09424 6.68802 5.28092 6.90482 5.42093 7.07253C5.56093 7.24024 5.7515 7.46931 5.84873 7.57976C5.94595 7.69429 6.06651 7.83337 6.12096 7.89473C6.17377 7.95424 6.28877 8.09455 6.38435 8.21117L6.40206 8.23279C6.49764 8.34941 6.61263 8.48971 6.66544 8.54921C6.71988 8.61466 6.87545 8.79874 7.01545 8.95827C7.15546 9.12189 7.31102 9.30596 7.36547 9.36732C7.41992 9.42868 7.55993 9.59639 7.6766 9.73547C7.78543 9.86519 7.93824 10.0412 8.02458 10.1406L8.04217 10.1609C8.12385 10.2509 8.25607 10.4104 8.33386 10.5127C8.41164 10.6108 8.54387 10.7704 8.62943 10.8645C8.71499 10.9544 8.89777 11.1672 9.03778 11.3308C9.17779 11.4944 9.3178 11.6621 9.34891 11.6989C9.38002 11.7398 9.50447 11.8871 9.62115 12.0262C9.73782 12.1693 9.85449 12.3043 9.87394 12.3289C9.89727 12.3534 10.0256 12.5129 10.1656 12.6807C10.3056 12.8484 10.469 13.0406 10.5351 13.1102C10.5973 13.1797 10.749 13.3556 10.8657 13.4988C10.9823 13.6419 11.1223 13.8055 11.1768 13.871C11.2312 13.9324 11.3518 14.0714 11.449 14.1819C11.5462 14.2923 11.6785 14.4559 11.7485 14.5459C11.8146 14.6318 11.9546 14.7995 12.0596 14.9182C12.1532 15.028 12.3468 15.2465 12.5015 15.4211L12.538 15.4622C12.6974 15.6463 12.8413 15.8222 12.8569 15.8549C12.8763 15.8876 12.9541 15.9817 13.0319 16.0676C13.1136 16.1494 13.308 16.3744 13.4675 16.5667C13.6269 16.7589 13.7825 16.943 13.8097 16.9757C13.8434 17.0166 13.8719 17.0234 13.8953 16.9962C13.9186 16.9716 13.9575 16.8162 13.9925 16.6485C14.0236 16.4808 14.0547 16.2967 14.0664 16.2394C14.0742 16.1821 14.1481 15.8058 14.3697 14.6646L14.2842 14.3987C14.2297 14.2187 14.1597 14.0878 14.0625 13.9896C13.9808 13.9078 13.8564 13.8015 13.7825 13.7483C13.6619 13.6624 13.6386 13.6583 13.5608 13.7074C13.5102 13.7401 13.4636 13.7565 13.4519 13.7442C13.4402 13.7319 13.4519 13.6787 13.4752 13.6215C13.4986 13.5642 13.5725 13.4742 13.6386 13.4169C13.7358 13.3392 13.8097 13.3188 13.9808 13.3147C14.1364 13.3147 14.2492 13.3433 14.3892 13.4169C14.4942 13.4742 14.5992 13.5356 14.6225 13.5601C14.6497 13.5806 14.7042 13.6337 14.7509 13.6746C14.8053 13.7196 14.8986 13.7442 15.0464 13.7442C15.1631 13.7442 15.3303 13.7687 15.4159 13.7974C15.5015 13.8219 15.5715 13.8587 15.5715 13.8792C15.5715 13.8955 15.587 13.9078 15.6104 13.9078C15.6298 13.9078 15.6998 13.9569 15.762 14.0183C15.8243 14.0837 16.0265 14.3455 16.2093 14.6032C16.3921 14.8609 16.5826 15.1268 16.6293 15.1922C16.6799 15.2577 16.7226 15.3272 16.7265 15.3436C16.7343 15.364 16.711 15.3804 16.6799 15.3804C16.6487 15.3804 16.6215 15.3681 16.6215 15.3477C16.6215 15.3313 16.5748 15.2945 16.5126 15.2659C16.4543 15.2372 16.3415 15.2168 16.2598 15.2168C16.1548 15.2168 16.1004 15.2413 16.0537 15.3068C15.9993 15.3927 16.0031 15.4336 16.077 15.7895C16.1237 16.0022 16.1743 16.2435 16.1937 16.3212C16.2132 16.3989 16.2482 16.5667 16.2754 16.6894C16.2987 16.8121 16.3376 16.9921 16.3648 17.0902C16.3882 17.1843 16.4154 17.262 16.4271 17.262C16.4387 17.2661 16.5437 17.1516 16.6604 17.0125C16.7771 16.8734 16.9443 16.673 17.0299 16.5707C17.1154 16.4685 17.2282 16.3376 17.2827 16.2803C17.3371 16.2231 17.4499 16.0881 17.5355 15.9735C17.621 15.8631 17.761 15.6954 17.8466 15.6054C17.9321 15.5154 18.0644 15.3599 18.1383 15.2577C18.2122 15.1554 18.3444 14.9959 18.4299 14.9059C18.5155 14.8118 18.6244 14.6809 18.6711 14.6196C18.7177 14.5541 18.815 14.4355 18.885 14.3537C18.955 14.276 19.1261 14.0714 19.2661 13.9037C19.4061 13.736 19.5578 13.556 19.6045 13.4988C19.655 13.4415 19.6939 13.3842 19.6939 13.3638C19.6939 13.3474 19.7211 13.3351 19.7522 13.3351C19.7833 13.3351 19.8028 13.3188 19.7911 13.2942C19.7795 13.2697 19.8417 13.1879 19.9272 13.1102C20.0128 13.0324 20.075 12.967 20.0634 12.967C20.0517 12.967 20.0906 12.9179 20.1528 12.8525C20.2111 12.7911 20.285 12.7011 20.3162 12.6561C20.3473 12.607 20.5028 12.4107 20.6623 12.2266C20.8217 12.0384 21.0473 11.7644 21.1679 11.6212C21.2884 11.478 21.4129 11.3267 21.444 11.2899C21.4751 11.2531 21.5996 11.1017 21.7162 10.9585C21.8329 10.8154 22.0001 10.6149 22.0857 10.5168C22.1713 10.4145 22.2918 10.2713 22.3579 10.2018C22.4202 10.1282 22.5174 10.0095 22.5718 9.9359C22.6263 9.86227 22.7196 9.74365 22.7857 9.67411C22.848 9.60457 22.9996 9.43277 23.1163 9.28551C23.233 9.13825 23.3808 8.96236 23.4469 8.89282C23.5091 8.82328 23.6413 8.66784 23.7386 8.54921C23.8358 8.43059 23.9797 8.26288 24.0575 8.17697C24.1391 8.08698 24.2052 8.00517 24.2052 7.98472C24.2052 7.96836 24.3064 7.84155 24.4308 7.70247C24.5514 7.56749 24.7303 7.35887 24.8275 7.24024C24.9247 7.12571 25.0453 6.97845 25.0997 6.91709C25.1542 6.85573 25.2942 6.68802 25.4109 6.54485C25.5275 6.40168 25.6675 6.23806 25.722 6.17261C25.7764 6.11126 25.8814 5.98445 25.9553 5.89037C26.0292 5.79628 26.1537 5.64903 26.2276 5.56721C26.3015 5.48131 26.4259 5.33405 26.4998 5.23588C26.5737 5.13771 26.6982 4.99045 26.7721 4.90455C26.8459 4.81865 27.0054 4.63866 27.1221 4.49959C27.2387 4.36051 27.3982 4.18052 27.4721 4.09462C27.546 4.01281 27.6704 3.86146 27.7443 3.76329L27.7541 3.7509C27.8262 3.65903 27.9131 3.54845 27.9466 3.5015C27.9854 3.45241 28.0282 3.39514 28.0477 3.37469C28.0671 3.35424 28.1487 3.23162 28.2304 3.10895L28.2305 3.1088C28.3121 2.98609 28.4171 2.83065 28.4599 2.76111C28.5066 2.69157 28.5494 2.63021 28.561 2.61794C28.5727 2.60567 28.6271 2.51159 28.6777 2.40114C28.7322 2.29479 28.7866 2.20889 28.8022 2.20889C28.8216 2.20889 28.8333 2.17616 28.8333 2.13935C28.8333 2.09844 28.8683 2.02072 28.9111 1.96346C28.9538 1.90619 28.9888 1.82847 28.9888 1.78756C28.9888 1.75075 29.0044 1.71393 29.0199 1.70984C29.0394 1.70166 29.1094 1.5135 29.1794 1.28852Z" fill="#6d6d91"/>
<path d="M12.993 22.7025C12.9852 22.8048 12.9774 22.7393 12.9774 22.5593C12.9774 22.3793 12.9852 22.2975 12.993 22.3752C13.0008 22.453 13.0008 22.6002 12.993 22.7025Z" fill="#6d6d91"/>
<path d="M23.3496 18.2724C23.1902 18.2806 22.9452 18.2806 22.8052 18.2724C22.6652 18.2642 22.7974 18.2602 23.0968 18.2602C23.3963 18.2602 23.5091 18.2683 23.3496 18.2724Z" fill="#6d6d91"/>
<path d="M6.66534 18.1906C6.56812 18.1988 6.42033 18.1988 6.33477 18.1906C6.24921 18.1825 6.32699 18.1743 6.50978 18.1743C6.69257 18.1743 6.76257 18.1825 6.66534 18.1906Z" fill="#6d6d91"/>
<path d="M10.8462 21.913C10.7412 21.9212 10.574 21.9212 10.4768 21.913C10.3795 21.9048 10.469 21.9007 10.6712 21.9007C10.8734 21.9007 10.9551 21.9048 10.8462 21.913Z" fill="#6d6d91"/>
<path d="M23.2135 18.3134C23.1279 18.3215 22.9957 18.3215 22.9218 18.3134C22.8479 18.3052 22.9179 18.297 23.0773 18.297C23.2368 18.297 23.299 18.3052 23.2135 18.3134Z" fill="#6d6d91"/>
<path d="M13.7824 8.34881C13.9846 8.32427 14.1596 8.29154 14.1713 8.27927C14.183 8.267 14.5757 8.267 15.0463 8.27927C15.5169 8.29154 16.0342 8.32018 16.1936 8.34063C16.3531 8.36517 16.5825 8.3979 16.6992 8.42244C16.8159 8.44289 16.9987 8.47971 17.1075 8.50425C17.2126 8.52879 17.3642 8.56561 17.4381 8.58606C17.512 8.60651 17.617 8.63924 17.6715 8.65151C17.7259 8.66787 17.8037 8.69241 17.8465 8.71287C17.8893 8.72923 18.0565 8.7865 18.2159 8.83967C18.3754 8.88876 18.6204 8.98693 18.7604 9.05238C18.9004 9.11783 19.2271 9.28554 19.4916 9.42462C19.7521 9.55961 19.966 9.68232 19.966 9.6946C19.966 9.70687 20.0283 9.74368 20.1021 9.77641C20.176 9.80913 20.2383 9.85003 20.2383 9.8664C20.2383 9.88685 20.2655 9.89912 20.2966 9.89912C20.3277 9.89912 20.3549 9.91548 20.3549 9.94003C20.3549 9.96457 20.3783 9.98093 20.4016 9.98093C20.4288 9.98093 20.4872 10.0137 20.53 10.0546C20.5727 10.0955 20.6933 10.1895 20.8022 10.2673C20.9072 10.345 21.0511 10.4595 21.1133 10.5209C21.1755 10.5822 21.2417 10.6354 21.2572 10.6354C21.2767 10.6354 21.2883 10.66 21.2883 10.6845C21.2883 10.7131 21.2144 10.8236 21.125 10.9299C21.0316 11.0322 20.9189 11.1713 20.8722 11.2367C20.8255 11.2981 20.7166 11.429 20.6272 11.5231C20.4872 11.6785 20.4638 11.6949 20.3938 11.6458C20.3511 11.6212 20.3161 11.5844 20.3161 11.564C20.3161 11.5476 20.2888 11.5353 20.2577 11.5353C20.2266 11.5353 20.1955 11.519 20.1877 11.5026C20.1838 11.4822 19.9933 11.3349 19.7638 11.1754C19.5305 11.0117 19.3282 10.8808 19.3049 10.8808C19.2816 10.8808 19.2621 10.8686 19.2582 10.8481C19.2504 10.8318 19.0638 10.7254 18.8382 10.6068C18.6126 10.4922 18.3482 10.3614 18.2471 10.3123C18.142 10.2632 18.0448 10.2264 18.0215 10.2264C17.9982 10.2264 17.9515 10.21 17.9165 10.1895C17.8776 10.1691 17.8037 10.1364 17.7493 10.1118C17.6948 10.0914 17.5742 10.0505 17.477 10.0218C17.3798 9.9932 17.2592 9.95639 17.2048 9.94003C17.1503 9.92366 17.0025 9.88685 16.8742 9.85822C16.7459 9.83367 16.5786 9.79686 16.5047 9.77641C16.4308 9.75595 16.2558 9.72323 16.1158 9.70687C15.9758 9.6905 15.4508 9.67414 14.9491 9.67414C14.4474 9.67414 13.9379 9.6905 13.8213 9.70687C13.7046 9.72732 13.5451 9.75595 13.4712 9.77641C13.3974 9.79686 13.2301 9.83367 13.1018 9.85822C12.9734 9.88685 12.8257 9.92366 12.7712 9.94003C12.7168 9.95639 12.5962 9.9932 12.499 10.0259C12.4017 10.0546 12.3084 10.0914 12.289 10.1118C12.2656 10.1282 12.2112 10.1446 12.1606 10.1446C12.1101 10.1446 12.0634 10.1609 12.0517 10.1855C12.0401 10.21 11.9973 10.2264 11.9545 10.2264C11.9117 10.2264 11.8456 10.2427 11.8106 10.2673C11.7717 10.2877 11.6628 10.3409 11.5656 10.39C11.4684 10.435 11.3672 10.4718 11.34 10.4718C11.3167 10.4718 11.2895 10.4841 11.2856 10.5045C11.2778 10.5209 11.1145 10.615 10.9239 10.7172C10.7333 10.8195 10.5389 10.934 10.4961 10.9749C10.4533 11.0117 10.395 11.0445 10.3716 11.0445C10.3444 11.0445 10.3211 11.0567 10.3211 11.0731C10.3211 11.0936 10.2744 11.1345 10.2161 11.1672C10.1538 11.1999 10.0994 11.2367 10.0877 11.249C10.0761 11.2613 10.01 11.3144 9.94384 11.3635C9.87383 11.4126 9.79994 11.4535 9.7766 11.4535C9.75327 11.4535 9.68327 11.3922 9.61715 11.3185C9.54715 11.249 9.4227 11.0976 9.33325 10.9872C9.24769 10.8808 9.11546 10.7213 9.04935 10.6395C8.92489 10.4922 8.92101 10.4922 8.9949 10.4104C9.03768 10.3654 9.11935 10.3 9.17768 10.2673C9.23991 10.2345 9.34103 10.1568 9.40714 10.0914C9.46937 10.03 9.54715 9.98093 9.57048 9.98093C9.59771 9.98093 9.62104 9.96457 9.62104 9.94003C9.62104 9.91548 9.64826 9.89912 9.67938 9.89912C9.71049 9.89912 9.73771 9.88276 9.73771 9.85822C9.73771 9.83367 9.76883 9.80913 9.80383 9.79686C9.84272 9.78868 9.92828 9.74777 9.99051 9.70687C10.0566 9.66596 10.1577 9.60051 10.2161 9.55961C10.2744 9.52279 10.3483 9.49007 10.3794 9.49007C10.4105 9.49007 10.4416 9.4778 10.4455 9.45734C10.4533 9.44098 10.5311 9.3878 10.6205 9.33463C10.7139 9.28554 10.815 9.24464 10.8461 9.24464C10.8772 9.24464 10.9044 9.22827 10.9044 9.20373C10.9044 9.17919 10.9356 9.16283 10.9706 9.16283C11.0094 9.16283 11.0756 9.13419 11.1183 9.10147C11.1611 9.06465 11.2934 9.00739 11.41 8.97057C11.5267 8.93376 11.6395 8.89285 11.6628 8.87649C11.6862 8.86422 11.7795 8.8274 11.8767 8.79877C11.9739 8.77013 12.0789 8.73332 12.1101 8.71696C12.1412 8.6965 12.2656 8.65969 12.3823 8.63106C12.499 8.60242 12.6351 8.56561 12.6856 8.54515C12.7323 8.5247 12.8218 8.50834 12.8801 8.50834C12.9384 8.50834 13.0046 8.49198 13.024 8.47153C13.0473 8.45107 13.1407 8.42653 13.2379 8.41426C13.3351 8.40199 13.5801 8.37335 13.7824 8.34881Z" fill="#6d6d91"/>
<path d="M24.8468 19.7982C24.8702 19.7982 24.913 19.7573 24.9441 19.7082C25.0024 19.6141 25.0024 19.6141 25.018 19.7573C25.0257 19.835 25.0102 20.0845 24.983 20.3095C24.9596 20.5345 24.913 20.8658 24.8818 21.0458C24.8507 21.2258 24.808 21.4549 24.7885 21.5571C24.7691 21.6594 24.7341 21.8067 24.7146 21.8844C24.6952 21.9621 24.6641 22.0725 24.6524 22.1298C24.6368 22.1871 24.6174 22.2566 24.6096 22.2812C24.6018 22.3098 24.5941 22.3384 24.5941 22.3425C24.5941 22.3507 24.5279 22.5593 24.4463 22.8048C24.3646 23.0502 24.2635 23.3283 24.2285 23.4183C24.1896 23.5083 24.0535 23.811 23.9251 24.0933C23.7968 24.3755 23.6801 24.6128 23.6684 24.625C23.6529 24.6373 23.5984 24.7273 23.5479 24.8296C23.4973 24.9318 23.3807 25.1241 23.2951 25.2591C23.2056 25.3941 23.1279 25.5127 23.1162 25.525C23.1045 25.5372 23.0501 25.619 22.9917 25.709C22.9334 25.799 22.8401 25.9299 22.7856 25.9954C22.7312 26.0608 22.6301 26.1917 22.5639 26.2817C22.4939 26.3717 22.2256 26.6662 21.965 26.9362C21.7045 27.2062 21.4439 27.4721 21.3817 27.5293C21.3194 27.5866 21.2067 27.6766 21.1328 27.7338C21.0589 27.7911 20.9655 27.8647 20.9266 27.8975C20.8877 27.9302 20.8061 27.9997 20.7516 28.0488C20.6933 28.102 20.6233 28.1429 20.5961 28.1429C20.5727 28.1429 20.5494 28.1634 20.5494 28.1838C20.5494 28.2043 20.53 28.2247 20.5105 28.2247C20.4911 28.2247 20.4327 28.2615 20.3822 28.3065C20.3355 28.3515 20.2733 28.3883 20.246 28.3883C20.2227 28.3883 20.1994 28.4006 20.1994 28.417C20.1994 28.4374 20.141 28.4742 20.0749 28.507C20.0049 28.5397 19.9388 28.5765 19.9271 28.5888C19.9155 28.601 19.8532 28.646 19.791 28.6828C19.7288 28.7238 19.5071 28.8424 19.3049 28.9446C19.1027 29.0469 18.8965 29.1492 18.846 29.1696C18.7993 29.1901 18.7137 29.2269 18.6515 29.2514C18.5932 29.276 18.5154 29.3128 18.4765 29.3332C18.4415 29.3537 18.3754 29.3701 18.3326 29.3701C18.2898 29.3701 18.2548 29.3905 18.2548 29.411C18.2548 29.4314 18.2198 29.4519 18.177 29.4519C18.1343 29.4519 18.0682 29.4682 18.0293 29.4887C17.9943 29.5091 17.8854 29.546 17.7881 29.5746C17.6909 29.6032 17.5742 29.64 17.5237 29.6605C17.477 29.6809 17.3837 29.6973 17.3214 29.6973C17.2592 29.6973 17.197 29.7178 17.1853 29.7382C17.1737 29.7587 17.1037 29.7791 17.0298 29.7791C16.9559 29.7791 16.8625 29.7955 16.8236 29.8159C16.7886 29.8364 16.6681 29.8568 16.5631 29.865C16.4542 29.8691 16.3531 29.8896 16.3297 29.9018C16.3064 29.9182 16.1236 29.9468 15.9214 29.9632C15.7191 29.9836 15.3069 30 15.0074 30C14.708 30 14.323 29.9877 14.1518 29.9714C13.9807 29.955 13.7201 29.9223 13.5685 29.8977C13.4168 29.8732 13.1757 29.8241 13.024 29.7914C12.8723 29.7587 12.6934 29.7218 12.6234 29.7137C12.5573 29.7055 12.4912 29.6768 12.4795 29.6564C12.4679 29.6359 12.4212 29.6155 12.3706 29.6155C12.324 29.6155 12.1878 29.5787 12.0712 29.5337C11.9545 29.4887 11.8262 29.4519 11.7873 29.4519C11.7523 29.4519 11.7212 29.4314 11.7212 29.411C11.7212 29.3905 11.6862 29.3701 11.6434 29.3701C11.6006 29.3701 11.5306 29.3496 11.4878 29.3292C11.445 29.3087 11.375 29.2678 11.3322 29.2473C11.2895 29.2269 11.2389 29.2064 11.2156 29.2064C11.1922 29.2064 11.06 29.1492 10.9122 29.0755C10.7683 29.0019 10.6478 28.9283 10.64 28.9119C10.6361 28.8956 10.6089 28.8792 10.5816 28.8792C10.5583 28.8792 10.4883 28.8587 10.43 28.8301C10.3677 28.8015 10.3211 28.7647 10.3211 28.7442C10.3211 28.7278 10.2861 28.7156 10.2433 28.7156C10.2005 28.7156 10.1655 28.6951 10.1655 28.6747C10.1655 28.6542 10.1383 28.6338 10.1072 28.6338C10.0761 28.6338 10.0488 28.6215 10.0488 28.601C10.0488 28.5847 9.98662 28.5438 9.91272 28.511C9.83883 28.4783 9.7766 28.4415 9.7766 28.4292C9.7766 28.417 9.72994 28.3883 9.6716 28.3597C9.60937 28.3311 9.52381 28.2738 9.47326 28.2247C9.42659 28.1797 9.37992 28.1429 9.36825 28.1429C9.35658 28.1429 9.27491 28.0815 9.18157 28.0079C9.09212 27.9384 9.01045 27.8688 8.99879 27.8566C8.98712 27.8443 8.90156 27.7707 8.80433 27.6929C8.7071 27.6152 8.59432 27.5211 8.55543 27.4884C8.51265 27.4557 8.29486 27.2348 8.0654 26.9975C7.83595 26.7603 7.53649 26.429 7.40037 26.2572C7.26425 26.0895 7.12424 25.9054 7.09313 25.8563C7.06202 25.8031 7.00368 25.7213 6.96868 25.6763C6.92979 25.6272 6.88701 25.5659 6.86756 25.5454C6.84926 25.5262 6.81716 25.467 6.78751 25.4124L6.782 25.4022C6.75478 25.345 6.70422 25.2713 6.67311 25.2386C6.64199 25.2059 6.55644 25.0709 6.48643 24.94C6.41254 24.8132 6.3542 24.6987 6.3542 24.6864C6.3542 24.6741 6.31142 24.6005 6.25698 24.5228C6.20253 24.4451 6.16753 24.3592 6.17919 24.3387C6.19086 24.3183 6.18697 24.2978 6.16753 24.2978C6.15197 24.2978 6.06641 24.1383 5.97696 23.9419C5.88751 23.7415 5.77862 23.4961 5.73584 23.3856C5.68917 23.2793 5.65417 23.1688 5.65417 23.1402C5.65417 23.1156 5.63861 23.0706 5.61916 23.0502C5.59972 23.0297 5.52971 22.8252 5.4636 22.6002C5.39749 22.3752 5.32359 22.1216 5.30415 22.0357C5.28081 21.9539 5.2497 21.8148 5.22636 21.7289C5.20692 21.6471 5.16414 21.4385 5.13303 21.2708C5.09802 21.1031 5.05524 20.8004 5.03191 20.5959C5.00858 20.3913 4.97746 20.1132 4.96191 19.97C4.94635 19.8309 4.94635 19.7164 4.96191 19.7164C4.98135 19.7164 5.03191 19.7491 5.07469 19.7859C5.12136 19.8268 5.19914 19.9005 5.2497 19.9496C5.30026 20.0027 5.35859 20.0436 5.38193 20.0436C5.40526 20.0436 5.42082 20.06 5.42082 20.0845C5.42082 20.105 5.44415 20.1255 5.46749 20.1255C5.49471 20.1255 5.55305 20.1582 5.59583 20.1991C5.63861 20.2359 5.81362 20.3423 5.98085 20.4322C6.14808 20.5222 6.29587 20.6122 6.31142 20.6368C6.32309 20.6572 6.34254 20.7595 6.35809 20.8618C6.37365 20.964 6.41254 21.1644 6.44365 21.3117C6.47865 21.459 6.54477 21.733 6.59922 21.9253C6.65366 22.1175 6.74311 22.3998 6.80145 22.5593C6.8559 22.7189 7.03479 23.132 7.19814 23.4797C7.36148 23.8274 7.50537 24.1219 7.51704 24.1342C7.52871 24.1464 7.64149 24.3142 7.76205 24.5105C7.88651 24.7109 7.98373 24.8746 7.97984 24.8787C7.97595 24.8868 8.01485 24.9359 8.0654 24.9932C8.11985 25.0505 8.22486 25.1773 8.29875 25.2754C8.37264 25.3736 8.47765 25.5045 8.53209 25.5659C8.58654 25.6272 8.69155 25.754 8.76544 25.8481C8.83933 25.9381 8.91323 26.0158 8.92878 26.0158C8.94823 26.0158 9.03768 26.0935 9.13102 26.1876C9.22435 26.2858 9.37214 26.4331 9.46159 26.5149C9.54715 26.6008 9.6366 26.6703 9.65993 26.6703C9.68327 26.6703 9.69882 26.6826 9.69882 26.6989C9.69882 26.7194 9.76883 26.7767 9.85439 26.8339C9.93995 26.8912 10.01 26.9485 10.01 26.9648C10.01 26.9853 10.0372 26.9975 10.0683 26.9975C10.0994 26.9975 10.1266 27.018 10.1266 27.0385C10.1266 27.0589 10.1538 27.0794 10.185 27.0794C10.2161 27.0794 10.2433 27.0998 10.2433 27.1203C10.2433 27.1407 10.2589 27.1612 10.2822 27.1612C10.3055 27.1612 10.3989 27.2184 10.4961 27.2839C10.5933 27.3493 10.6867 27.4066 10.71 27.4066C10.7333 27.4066 10.7489 27.4189 10.7489 27.4352C10.7489 27.4557 10.8461 27.513 10.9628 27.5702C11.0795 27.6275 11.1767 27.6848 11.1767 27.7011C11.1767 27.7216 11.2 27.7338 11.2233 27.7338C11.2506 27.7338 11.3595 27.7788 11.4684 27.8361C11.5734 27.8934 11.6745 27.9384 11.69 27.9384C11.7095 27.9384 11.7873 27.967 11.865 28.0038C11.9467 28.0406 12.0439 28.0856 12.0789 28.1061C12.1178 28.1265 12.1762 28.1429 12.2073 28.1429C12.2384 28.1429 12.2967 28.1593 12.3317 28.1797C12.3706 28.2002 12.4795 28.237 12.5768 28.2656C12.674 28.2943 12.7907 28.3311 12.8373 28.3515C12.8879 28.372 12.9696 28.3883 13.024 28.3883C13.0784 28.3883 13.129 28.4006 13.1368 28.417C13.1446 28.4374 13.2301 28.4538 13.3235 28.462C13.4129 28.4661 13.5451 28.4906 13.6074 28.511C13.6696 28.5274 13.8446 28.5601 13.9963 28.5765C14.1479 28.5929 14.5641 28.6092 14.9297 28.6092C15.2952 28.6133 15.7736 28.5888 15.9992 28.5601C16.2247 28.5315 16.4853 28.4988 16.5825 28.4865C16.6797 28.4701 16.7731 28.4456 16.7925 28.4251C16.8159 28.4047 16.8975 28.3883 16.9792 28.3883C17.0609 28.3883 17.1348 28.3679 17.1464 28.3474C17.1581 28.327 17.2009 28.3065 17.2437 28.3065C17.2864 28.3065 17.3526 28.2902 17.3876 28.2697C17.4265 28.2493 17.5198 28.2124 17.5937 28.1879C17.6676 28.1634 17.7687 28.1429 17.8154 28.1429C17.8659 28.1429 17.9048 28.1224 17.9048 28.102C17.9048 28.0815 17.932 28.0611 17.9632 28.0611C17.9943 28.0611 18.0526 28.0447 18.0876 28.0243C18.1265 28.0038 18.2121 27.967 18.2743 27.9384C18.3365 27.9097 18.4221 27.8729 18.4571 27.8525C18.496 27.832 18.5543 27.8157 18.5854 27.8157C18.6165 27.8157 18.6437 27.8034 18.6437 27.7829C18.6437 27.7666 18.6904 27.7298 18.7526 27.7011C18.811 27.6725 18.881 27.652 18.9043 27.652C18.9315 27.652 18.9549 27.6398 18.9549 27.6193C18.9549 27.6029 19.0171 27.562 19.091 27.5293C19.1649 27.4966 19.2271 27.4557 19.2271 27.4352C19.2271 27.4189 19.2543 27.4066 19.2854 27.4066C19.3166 27.4066 19.3827 27.3698 19.4293 27.3248C19.4799 27.2798 19.5421 27.243 19.5655 27.243C19.5927 27.243 19.616 27.2225 19.616 27.2021C19.616 27.1816 19.6432 27.1612 19.6744 27.1612C19.7055 27.1612 19.7327 27.1407 19.7327 27.1203C19.7327 27.0998 19.7599 27.0794 19.791 27.0794C19.8221 27.0794 19.8494 27.0589 19.8494 27.0385C19.8494 27.018 19.8766 26.9975 19.9077 26.9975C19.9388 26.9975 19.966 26.9853 19.966 26.9648C19.966 26.9485 20.0127 26.9076 20.071 26.8667C20.1333 26.8298 20.2344 26.7521 20.2966 26.6948C20.3588 26.6376 20.4249 26.5885 20.4444 26.5885C20.4599 26.5885 20.7322 26.3144 21.0472 25.9831C21.3622 25.6477 21.6461 25.3327 21.6772 25.2836C21.7083 25.2304 21.7822 25.1364 21.8406 25.0709C21.9028 25.0055 21.9495 24.94 21.9495 24.9196C21.9495 24.9032 21.9806 24.8459 22.0273 24.7887C22.07 24.7314 22.1167 24.6659 22.1323 24.6455C22.1517 24.625 22.2256 24.5023 22.2995 24.3796C22.3734 24.2569 22.4434 24.1464 22.4551 24.1342C22.4706 24.1219 22.6106 23.8356 22.774 23.5001C22.9334 23.1606 23.0734 22.8497 23.089 22.8048C23.1006 22.7598 23.1745 22.5307 23.2484 22.2934C23.3262 22.0562 23.404 21.8067 23.4234 21.7412C23.4429 21.6758 23.4818 21.5162 23.5051 21.3935C23.5323 21.2708 23.5673 21.1276 23.5868 21.0745C23.6062 21.0254 23.6218 20.9231 23.6218 20.8495C23.6218 20.7799 23.6373 20.6981 23.6529 20.6736C23.6684 20.645 23.7501 20.5836 23.8357 20.5345C23.9212 20.4813 24.0535 20.4036 24.1274 20.3627C24.2013 20.3218 24.3257 20.2318 24.3996 20.1664C24.4735 20.0968 24.5435 20.0436 24.5552 20.0436C24.5668 20.0436 24.6291 19.9864 24.6952 19.9209C24.7574 19.8555 24.8274 19.7982 24.8468 19.7982Z" fill="#6d6d91"/>
<path d="M15.3186 28.6215C15.233 28.6297 15.1008 28.6297 15.0269 28.6215C14.953 28.6133 15.023 28.6051 15.1825 28.6051C15.3419 28.6051 15.4042 28.6133 15.3186 28.6215Z" fill="#6d6d91"/>
</svg>
