<svg width="24" height="24" viewBox="0 0 24 24" fill="none" xmlns="http://www.w3.org/2000/svg">
<g clip-path="url(#clip0_97_57300)">
<path d="M23.3435 1.03081C23.4213 0.778837 23.4493 0.621761 23.4617 0.353422V0.35015C23.4711 0.157076 23.4866 0 23.496 0C23.5022 0 23.5738 0.143987 23.6515 0.317425C23.7262 0.494136 23.8164 0.726479 23.8507 0.834469C23.8818 0.942459 23.9284 1.17807 23.9533 1.35806C23.9876 1.63621 23.9876 1.7442 23.9533 2.07799C23.9284 2.29397 23.8818 2.59503 23.8475 2.74884C23.8133 2.90264 23.7635 3.11535 23.7355 3.22334C23.7075 3.33133 23.6515 3.53095 23.608 3.66512C23.5644 3.79929 23.4649 4.08726 23.3871 4.30324C23.3093 4.51922 23.1911 4.81047 23.1257 4.94791C23.0573 5.08862 22.9888 5.22279 22.9733 5.24243C22.9546 5.26533 22.8955 5.35696 22.8426 5.44859C22.7866 5.53694 22.7337 5.61876 22.7244 5.62857C22.715 5.63839 22.6653 5.71693 22.6155 5.80856C22.5626 5.89691 22.5097 6.00163 22.4941 6.03763C22.4786 6.07362 22.4475 6.15543 22.4257 6.21761C22.4008 6.27979 22.3821 6.4205 22.3821 6.52849C22.3821 6.69866 22.3915 6.73465 22.4599 6.79683C22.5066 6.84264 22.575 6.87209 22.6373 6.87209C22.6933 6.86882 22.8053 6.85246 22.8862 6.82955C22.9639 6.80665 23.0417 6.78047 23.0542 6.7641C23.0666 6.75101 23.104 6.7412 23.1351 6.7412C23.1662 6.7412 23.1911 6.72811 23.1911 6.70847C23.1911 6.68884 23.2128 6.67575 23.2377 6.67575C23.2626 6.67575 23.2844 6.66266 23.2844 6.64302C23.2844 6.62339 23.2969 6.6103 23.3155 6.6103C23.3311 6.6103 23.4026 6.5514 23.4711 6.4794C23.5395 6.40741 23.6018 6.34851 23.6111 6.34851C23.6204 6.34851 23.6173 6.38778 23.608 6.43686C23.5986 6.48922 23.5706 6.58085 23.5426 6.64302C23.5178 6.7052 23.4711 6.81974 23.4369 6.895C23.4057 6.97354 23.3777 7.05862 23.3777 7.0848C23.3777 7.11098 23.3622 7.13389 23.3466 7.13389C23.328 7.13389 23.3155 7.1568 23.3155 7.18298C23.3155 7.20915 23.2657 7.33678 23.2066 7.46113C23.1475 7.58548 23.0479 7.76874 22.9857 7.86037C22.9235 7.95527 22.827 8.09271 22.771 8.1647C22.715 8.2367 22.6061 8.36105 22.5315 8.44286C22.4568 8.52467 22.3355 8.64248 22.2608 8.70465C22.1861 8.76683 22.0866 8.85518 22.0399 8.901C21.9932 8.94681 21.9154 9.01553 21.8657 9.05807C21.8159 9.10062 21.7381 9.15952 21.6883 9.18897C21.6417 9.21842 21.6043 9.25442 21.6043 9.26751C21.6043 9.28387 21.5825 9.29369 21.5576 9.29369C21.5328 9.29369 21.5079 9.30678 21.5016 9.31987C21.4985 9.33296 21.399 9.41804 21.2776 9.5064C21.1594 9.59803 20.9012 9.83691 20.7114 10.0365C20.5185 10.2394 20.3598 10.4161 20.3598 10.4292C20.3598 10.4456 20.3163 10.5078 20.2634 10.5699C20.2136 10.6321 20.17 10.6943 20.1731 10.7074C20.1731 10.7237 20.2074 10.7139 20.2509 10.691C20.2945 10.6714 20.3287 10.6452 20.3287 10.6354C20.3287 10.6256 20.3909 10.5863 20.4687 10.5438C20.5465 10.5045 20.6678 10.4423 20.7394 10.4096C20.8141 10.3736 20.9292 10.3278 20.9976 10.3049C21.0661 10.282 21.1345 10.2525 21.1532 10.2427C21.1687 10.2296 21.2465 10.2034 21.3243 10.1805C21.4021 10.1576 21.4923 10.1249 21.5265 10.1118C21.5608 10.0987 21.679 10.0562 21.791 10.0202C21.903 9.9809 22.0243 9.94817 22.0617 9.94817C22.1021 9.94817 22.1395 9.93509 22.1488 9.91545C22.1581 9.89582 22.2048 9.88273 22.2577 9.88273C22.3075 9.88273 22.3572 9.86964 22.3666 9.85C22.3759 9.83037 22.4132 9.81728 22.4506 9.81728C22.491 9.81728 22.6061 9.78455 22.7088 9.74856C22.8115 9.71256 22.9515 9.65366 23.0199 9.62421C23.0884 9.59148 23.1911 9.54567 23.2471 9.51949C23.3 9.49331 23.3466 9.46386 23.3466 9.44749C23.3466 9.4344 23.3591 9.42459 23.3777 9.42459C23.3933 9.42459 23.44 9.39841 23.4773 9.36568C23.5146 9.33623 23.6173 9.23479 23.7013 9.14316C23.7884 9.05153 23.8818 8.93045 23.9067 8.87155C23.9316 8.81592 23.9627 8.76683 23.9751 8.7701C23.9907 8.7701 24 8.78319 24 8.80283C24 8.82246 23.9844 8.90427 23.9689 8.98936C23.9502 9.07771 23.9191 9.21842 23.9004 9.31005C23.8818 9.39841 23.7978 9.62093 23.7138 9.80092C23.6266 9.9809 23.5426 10.1445 23.5209 10.1642C23.5022 10.1838 23.4649 10.2361 23.44 10.2754C23.4151 10.3147 23.3311 10.4227 23.2533 10.5143C23.1755 10.6059 23.0728 10.7172 23.0231 10.763C22.9733 10.8088 22.8893 10.8939 22.8364 10.9463C22.7835 11.0019 22.6466 11.123 22.5284 11.2179C22.4132 11.3128 22.3044 11.388 22.2888 11.388C22.2701 11.388 22.2577 11.4011 22.2577 11.4208C22.2577 11.4404 22.2359 11.4535 22.211 11.4535C22.1861 11.4535 22.1643 11.4666 22.1643 11.4862C22.1643 11.5059 22.1488 11.5189 22.1332 11.5189C22.1177 11.5189 22.0119 11.5778 21.8999 11.6498C21.7879 11.7218 21.679 11.7807 21.6572 11.7807C21.6354 11.7807 21.6043 11.7938 21.5857 11.8069C21.5701 11.8233 21.5079 11.856 21.4488 11.8789C21.3896 11.9018 21.3025 11.9378 21.2527 11.9574C21.2061 11.9771 21.1687 12.0033 21.1687 12.0163C21.1687 12.0327 21.1501 12.0425 21.1283 12.0425C21.1096 12.0425 21.0287 12.1047 20.9509 12.1832C20.8732 12.2618 20.8078 12.3534 20.8047 12.3894C20.8016 12.4221 20.8109 12.4876 20.8265 12.5334C20.8452 12.5792 20.8981 12.6316 20.9447 12.6545C20.9914 12.6741 21.0972 12.7036 21.1843 12.7166C21.2683 12.7297 21.3741 12.7461 21.4176 12.7494C21.4612 12.7526 21.5421 12.7428 21.595 12.7265C21.651 12.7101 21.6977 12.7068 21.6977 12.7199C21.6977 12.7363 21.6665 12.7756 21.6292 12.8115C21.5888 12.8475 21.5172 12.8999 21.4705 12.9261C21.4239 12.9523 21.3865 12.985 21.3865 12.9981C21.3865 13.0144 21.3647 13.0243 21.3399 13.0243C21.315 13.0243 21.2932 13.0373 21.2932 13.057C21.2932 13.0766 21.2714 13.0897 21.2465 13.0897C21.2216 13.0897 21.1999 13.0995 21.1999 13.1126C21.1999 13.129 21.1687 13.1552 21.1283 13.1748C21.091 13.1944 20.979 13.2566 20.8794 13.3155C20.7829 13.3711 20.674 13.4169 20.6398 13.4169C20.6056 13.4169 20.5714 13.43 20.562 13.4497C20.5527 13.4693 20.5185 13.4824 20.4843 13.4824C20.45 13.4824 20.3971 13.4955 20.366 13.5118C20.338 13.5282 20.2509 13.5577 20.1731 13.5806C20.0953 13.6035 20.0082 13.6329 19.9771 13.6493C19.9491 13.6657 19.8807 13.6787 19.8309 13.6787C19.778 13.6787 19.7376 13.6918 19.7376 13.7115C19.7376 13.7311 19.7033 13.7442 19.6598 13.7442C19.6162 13.7442 19.5758 13.7573 19.5664 13.7769C19.5571 13.7965 19.5167 13.8096 19.4731 13.8096C19.4295 13.8096 19.3891 13.8227 19.3798 13.8424C19.3704 13.862 19.3331 13.8751 19.2926 13.8751C19.2522 13.8751 19.2086 13.8882 19.19 13.9013C19.1744 13.9144 19.106 13.9471 19.0375 13.97C18.9691 13.9962 18.8508 14.0453 18.7731 14.078C18.6953 14.114 18.605 14.1565 18.5708 14.1696C18.5366 14.1827 18.3841 14.258 18.2286 14.3365C18.0761 14.415 17.9268 14.5034 17.8957 14.5296C17.8677 14.5558 17.821 14.5983 17.7961 14.6179C17.7681 14.6408 17.7214 14.6605 17.6903 14.6605C17.6468 14.6605 17.6437 14.667 17.6779 14.6997C17.709 14.7357 17.7432 14.7357 17.8552 14.6997C17.9517 14.6736 18.2597 14.6605 18.8415 14.6605C19.4482 14.6605 19.7344 14.6474 19.8464 14.6147C19.9305 14.5917 20.058 14.5459 20.1265 14.5132C20.1949 14.4772 20.2571 14.4445 20.2665 14.4347C20.2758 14.4216 20.3225 14.379 20.4563 14.2514L20.4189 14.366C20.3971 14.4281 20.3598 14.5394 20.3318 14.6081C20.3038 14.6801 20.2665 14.7554 20.2509 14.775C20.2354 14.7946 20.1918 14.8601 20.1607 14.9223C20.1265 14.9844 20.0829 15.0564 20.0673 15.0793C20.0487 15.1055 19.9211 15.2462 19.7811 15.3902C19.6442 15.5375 19.5011 15.6847 19.4638 15.7142C19.4264 15.7469 19.3891 15.7731 19.3798 15.7731C19.3704 15.7731 19.3362 15.7993 19.3051 15.8287C19.274 15.8614 19.2055 15.9105 19.1589 15.9367C19.1091 15.9629 19.0624 15.9923 19.0531 16.0022C19.0437 16.012 18.938 16.0676 18.8197 16.1298C18.6984 16.1887 18.5739 16.2509 18.5397 16.264C18.5055 16.277 18.4433 16.3032 18.3997 16.3229C18.3561 16.3425 18.2877 16.3654 18.2441 16.3785C18.2006 16.3883 18.1166 16.4145 18.0575 16.4309C17.9983 16.4505 17.8863 16.4799 17.8086 16.4963C17.7308 16.5159 17.597 16.5421 17.513 16.5617C17.4259 16.5781 17.2112 16.6108 17.0307 16.6305C16.8503 16.6534 16.6138 16.6697 16.5018 16.6697C16.3898 16.6697 16.2156 16.6501 16.1129 16.6305C16.0102 16.6076 15.864 16.5748 15.7862 16.5552C15.7085 16.5323 15.5062 16.5094 15.3351 16.5028C15.0489 16.4898 15.0209 16.4963 14.9835 16.5585C14.9649 16.5945 14.9524 16.6534 14.9617 16.6894C14.9711 16.7286 15.0022 16.7548 15.0395 16.7548C15.0738 16.7548 15.1018 16.7712 15.1018 16.7875C15.1018 16.8039 15.1422 16.8203 15.1951 16.8203C15.2449 16.8203 15.2947 16.8366 15.304 16.853C15.3133 16.8694 15.3413 16.8857 15.3662 16.8857C15.3911 16.8857 15.4595 16.9348 15.5187 16.9904C15.5747 17.0493 15.6587 17.1704 15.7022 17.262C15.7458 17.3504 15.7893 17.4846 15.7987 17.5566C15.808 17.6286 15.8111 17.6678 15.8018 17.6449C15.7925 17.6253 15.7645 17.6057 15.7396 17.6057C15.7147 17.6057 15.6898 17.5893 15.6836 17.5729C15.6804 17.5533 15.4533 17.5271 15.164 17.5075C14.8809 17.4878 14.5697 17.4551 14.4671 17.4322C14.3675 17.4126 14.2804 17.3831 14.2742 17.3668C14.2679 17.3537 14.2337 17.3439 14.1995 17.3439C14.1653 17.3439 14.1093 17.3275 14.075 17.3111C14.0408 17.2948 13.9848 17.262 13.9506 17.2457C13.9164 17.2293 13.8666 17.213 13.8417 17.213C13.8168 17.213 13.7857 17.2391 13.7763 17.2686L13.774 17.2769C13.7625 17.317 13.7341 17.4164 13.711 17.5075C13.683 17.6155 13.6675 17.8314 13.6675 18.0474C13.6675 18.2438 13.6861 18.4794 13.711 18.571C13.7328 18.6594 13.7857 18.787 13.8261 18.8492C13.8666 18.9114 13.9164 18.9801 13.935 18.9964C13.9506 19.0128 13.991 19.0488 14.0221 19.0684C14.0657 19.1044 14.0875 19.0979 14.1435 19.0357C14.1839 18.9964 14.2306 18.9277 14.2493 18.8819C14.2679 18.8361 14.3022 18.7608 14.3208 18.7085C14.3395 18.6594 14.355 18.5547 14.355 18.4728C14.355 18.391 14.3737 18.2503 14.3924 18.162C14.4142 18.0703 14.4422 17.9983 14.4546 17.9983C14.4702 17.9983 14.4795 18.0703 14.4795 18.162C14.4795 18.2503 14.4919 18.3321 14.5106 18.3419C14.5262 18.3518 14.5417 18.3943 14.5417 18.4401C14.5417 18.4859 14.5542 18.5219 14.5728 18.5219C14.5884 18.5219 14.6039 18.5448 14.6039 18.571C14.6039 18.5972 14.6226 18.6528 14.6413 18.6921C14.6631 18.7314 14.7004 18.7837 14.7191 18.8066C14.7408 18.8295 14.772 18.9048 14.7906 18.9703C14.8062 19.039 14.8217 19.1437 14.8217 19.1993C14.8217 19.2582 14.8 19.4218 14.772 19.5593C14.744 19.7 14.7035 19.8505 14.6817 19.8963C14.66 19.9422 14.6226 20.0632 14.6008 20.1647C14.5604 20.3381 14.5604 20.3545 14.6195 20.4199C14.6537 20.4559 14.7191 20.4887 14.7657 20.4854C14.8155 20.4854 14.8529 20.469 14.8529 20.4527C14.8529 20.4363 14.8715 20.4199 14.8902 20.4199C14.912 20.4199 14.9649 20.3741 15.0084 20.3185C15.052 20.2596 15.1111 20.168 15.1982 20.0109L15.1795 20.1974C15.1702 20.3021 15.1329 20.4559 15.0955 20.541C15.0582 20.6294 15.0115 20.721 14.9897 20.7472C14.968 20.7734 14.8529 20.9043 14.7315 21.0319C14.6102 21.1628 14.4888 21.2708 14.4639 21.2708C14.4391 21.2708 14.4173 21.2871 14.4173 21.3035C14.4173 21.3199 14.383 21.3362 14.3395 21.3362C14.2959 21.3362 14.2586 21.3493 14.2524 21.3657C14.2493 21.3788 14.1746 21.4017 13.935 21.4344L13.9381 21.2282L13.9395 21.1804C13.9421 21.0876 13.9444 21.0066 13.9444 20.9926C13.9475 20.9763 13.9786 20.9239 14.0128 20.8781C14.047 20.8323 14.0719 20.793 14.0688 20.7865C14.0626 20.7832 14.0221 20.7864 13.9724 20.7963C13.9257 20.8061 13.8884 20.829 13.8884 20.8454C13.8884 20.8617 13.8728 20.8781 13.8572 20.8781C13.8386 20.8781 13.7608 20.9501 13.6768 21.0417C13.571 21.1595 13.5057 21.2053 13.4434 21.2053C13.3968 21.2053 13.3594 21.189 13.3594 21.1628C13.3594 21.1431 13.3874 21.0417 13.4186 20.9435C13.4497 20.8454 13.4932 20.6752 13.515 20.5672C13.5399 20.4461 13.5461 20.289 13.5337 20.1581C13.5212 20.0403 13.4839 19.8047 13.4497 19.6346C13.4154 19.4644 13.3781 19.3073 13.3688 19.291C13.3584 19.2691 13.3449 19.2691 13.3283 19.291C13.3128 19.3073 13.2723 19.4775 13.235 19.6673C13.1977 19.8571 13.1416 20.06 13.1136 20.1221C13.0856 20.1843 13.0421 20.2498 13.0141 20.2694C12.9736 20.2989 12.9487 20.2923 12.9021 20.24C12.871 20.204 12.8274 20.1352 12.8056 20.0829C12.7839 20.0338 12.7683 19.8669 12.7683 19.7066C12.7683 19.4742 12.7527 19.3924 12.6936 19.2582C12.6532 19.1666 12.5785 19.0488 12.5287 18.9964C12.4789 18.9441 12.3856 18.823 12.3234 18.7346C12.258 18.643 12.1834 18.4958 12.1554 18.4074C12.1149 18.2765 12.1087 18.1292 12.118 17.6646C12.1274 17.2915 12.118 17.0821 12.0994 17.0821C12.0807 17.0821 12.0589 17.1148 12.0496 17.1573C12.0403 17.1966 11.9998 17.3013 11.9625 17.3929C11.9251 17.4813 11.8785 17.586 11.8598 17.622C11.8411 17.658 11.7914 17.7791 11.7509 17.8904C11.7136 18.0049 11.6793 18.1652 11.6793 18.2503C11.6793 18.3387 11.7074 18.4892 11.7447 18.5874C11.782 18.6856 11.8474 18.8688 11.8878 18.9964C11.9531 19.1928 11.9625 19.2615 11.9469 19.4709C11.9376 19.6051 11.9034 19.7884 11.8691 19.88C11.838 19.9683 11.782 20.1156 11.6825 20.3709L11.6793 20.2072C11.6762 20.1156 11.67 20.0142 11.6638 19.9782C11.6576 19.9422 11.642 19.8767 11.6327 19.8309C11.6233 19.7851 11.5985 19.7098 11.5767 19.6575C11.5549 19.6084 11.53 19.5691 11.5145 19.5691C11.502 19.5691 11.4927 19.5397 11.4927 19.5037C11.4927 19.4677 11.4833 19.4317 11.4678 19.4251C11.4553 19.4186 11.4273 19.3335 11.4056 19.2386C11.3838 19.1404 11.3651 18.9866 11.3527 18.7346L11.2407 18.9801C11.1784 19.1142 11.11 19.2844 11.0913 19.3564C11.0727 19.4284 11.0571 19.5429 11.0571 19.6084C11.0571 19.6771 11.0851 19.7949 11.1193 19.8702C11.1535 19.9487 11.1878 20.0829 11.2002 20.1745C11.2095 20.2694 11.1971 20.433 11.1691 20.5672C11.1442 20.6948 11.1069 20.7995 11.0913 20.8028C11.0727 20.8094 11.0571 20.8355 11.0571 20.8617C11.0571 20.8879 11.0353 20.9337 11.0104 20.9599C10.9762 20.9959 10.9482 20.9992 10.9015 20.9763C10.8673 20.9599 10.8424 20.9337 10.8455 20.9173C10.8486 20.9043 10.8362 20.8584 10.8175 20.8126C10.7989 20.7635 10.7957 20.6588 10.8113 20.5508C10.8237 20.4527 10.8455 20.3054 10.858 20.2236C10.8766 20.1123 10.8735 20.0829 10.8455 20.0992C10.8237 20.1156 10.8082 20.1451 10.8082 20.1647C10.8051 20.1876 10.7242 20.289 10.6246 20.3872C10.5251 20.4854 10.4224 20.6163 10.3944 20.6719C10.3664 20.7308 10.3384 20.8355 10.3384 20.901C10.3353 20.9697 10.3571 21.0908 10.3851 21.1726C10.4099 21.2544 10.4348 21.3395 10.4348 21.3591C10.4348 21.3918 10.3571 21.4017 10.1548 21.4017C9.99926 21.4017 9.84992 21.3886 9.81881 21.3722C9.7908 21.3559 9.72547 21.3231 9.67569 21.3002C9.62902 21.274 9.56057 21.2282 9.52946 21.1955C9.49835 21.1661 9.46101 21.1399 9.44545 21.1399C9.43301 21.1399 9.39256 21.0973 9.35212 21.0482C9.31478 20.9992 9.24322 20.9075 9.19033 20.8454C9.14055 20.7832 9.06588 20.6556 9.02543 20.5672C8.98498 20.4756 8.94143 20.3381 8.9072 20.1091L8.96321 20.1909C8.99121 20.2367 9.05343 20.3021 9.09388 20.3381C9.13744 20.3741 9.209 20.4232 9.25256 20.4461C9.29611 20.469 9.36456 20.4854 9.40812 20.4854C9.48279 20.4854 9.4859 20.4756 9.49523 20.2825C9.50146 20.132 9.4859 20.0272 9.43612 19.8963C9.39878 19.7982 9.35212 19.6575 9.33034 19.5855C9.30545 19.5135 9.265 19.376 9.24011 19.2811C9.21211 19.1895 9.19033 19.0619 9.19033 19.003C9.19033 18.9473 9.21211 18.8361 9.237 18.7575C9.26189 18.6823 9.30233 18.5972 9.321 18.571C9.34278 18.5416 9.37701 18.5023 9.39567 18.4794C9.41434 18.4565 9.45168 18.391 9.47968 18.3321C9.51079 18.2765 9.5419 18.234 9.55435 18.2405C9.5699 18.247 9.58857 18.3779 9.59791 18.5252C9.61035 18.7215 9.63524 18.8426 9.68813 18.9473C9.72547 19.0292 9.79703 19.1437 9.84059 19.2026C9.88414 19.2615 9.93392 19.3106 9.94948 19.3073C9.96193 19.3073 10.0179 19.2582 10.0739 19.1993C10.1268 19.1437 10.2015 19.0292 10.2388 18.9473C10.2762 18.8655 10.3259 18.7346 10.3446 18.6528C10.3695 18.5677 10.3851 18.3092 10.3819 18.0311C10.3819 17.6809 10.3664 17.5042 10.3259 17.3602C10.2979 17.2522 10.2668 17.1312 10.2606 17.0886C10.2544 17.0493 10.2295 17.0166 10.2077 17.0166C10.189 17.0166 10.0522 17.0755 9.90592 17.1508C9.75969 17.2261 9.61346 17.298 9.57924 17.3111C9.54502 17.3242 9.47968 17.3537 9.4299 17.3733C9.38323 17.3929 9.31167 17.4093 9.26811 17.4093C9.22455 17.4093 9.15922 17.4257 9.11877 17.4453C9.08143 17.4682 8.85431 17.4878 8.61474 17.4944C8.37518 17.5009 8.17294 17.514 8.16672 17.5238C8.1605 17.5337 8.12005 17.5402 8.0796 17.5402C8.03916 17.5402 7.97071 17.5664 7.84315 17.6547L7.86493 17.5402C7.88048 17.478 7.92715 17.3602 7.97071 17.2784C8.01427 17.1966 8.08894 17.0919 8.1325 17.0428C8.17605 16.9937 8.22894 16.9544 8.24761 16.9512C8.26939 16.9512 8.28806 16.9348 8.28806 16.9184C8.28806 16.9021 8.30984 16.8857 8.33473 16.8857C8.35962 16.8857 8.43118 16.8563 8.49029 16.8203C8.54941 16.7843 8.62097 16.7548 8.64586 16.7548C8.67075 16.7548 8.69875 16.7286 8.70497 16.6959C8.70808 16.6665 8.70497 16.6108 8.69253 16.5748C8.68008 16.5388 8.6303 16.4898 8.58052 16.4668C8.51207 16.4341 8.36584 16.4276 7.94582 16.4439C7.64714 16.457 7.15556 16.4668 6.85687 16.4701C6.55819 16.4701 6.23462 16.4538 6.14128 16.4341C6.04794 16.4145 5.91416 16.3818 5.84571 16.3621C5.77726 16.3425 5.68703 16.3163 5.64659 16.3032C5.60614 16.2901 5.5688 16.2705 5.56258 16.2541C5.55636 16.2411 5.52836 16.2312 5.50347 16.2312C5.47858 16.2312 5.39768 16.2018 5.32301 16.1658C5.25145 16.1298 5.17367 16.1003 5.15189 16.1003C5.13323 16.1003 5.11456 16.0872 5.11456 16.0676C5.11456 16.048 5.08034 16.0349 5.03678 16.0349C4.99322 16.0349 4.95588 16.0251 4.94966 16.0087C4.94655 15.9956 4.87499 15.9498 4.7941 15.904C4.7132 15.8582 4.64787 15.8124 4.64787 15.796C4.64787 15.7829 4.6292 15.7731 4.60742 15.7731C4.58875 15.7731 4.52342 15.7306 4.4643 15.6815C4.40519 15.6324 4.2994 15.5342 4.23096 15.4589C4.1594 15.3869 4.07228 15.2888 4.03184 15.2397C3.9945 15.1906 3.94472 15.1153 3.92294 15.0695C3.90427 15.0237 3.87938 14.9877 3.87005 14.9877C3.86072 14.9877 3.79227 14.8535 3.7176 14.6866C3.64293 14.5198 3.56514 14.3496 3.54648 14.3103C3.52781 14.2678 3.51847 14.2285 3.52781 14.222C3.53714 14.2121 3.58381 14.2449 3.6367 14.294C3.68648 14.343 3.79227 14.415 3.87005 14.451C3.94783 14.4903 4.05984 14.5361 4.11895 14.559C4.19051 14.5819 4.52964 14.5917 5.13012 14.5885C5.77104 14.5852 6.05105 14.595 6.10083 14.6212C6.14128 14.6441 6.20039 14.6605 6.23462 14.6605C6.26884 14.6605 6.32484 14.6801 6.35907 14.6997C6.39018 14.7226 6.42752 14.7325 6.43685 14.7161C6.44618 14.703 6.41818 14.6572 6.37463 14.6114C6.33107 14.5656 6.28129 14.5296 6.26573 14.5296C6.24706 14.5296 6.23462 14.5165 6.23462 14.4968C6.23462 14.4772 6.21284 14.4641 6.18795 14.4641C6.16306 14.4641 6.14128 14.4543 6.14128 14.4379C6.14128 14.4249 6.10394 14.3921 6.05728 14.366C6.0075 14.3398 5.94216 14.2907 5.90793 14.258C5.87371 14.2285 5.82704 14.2023 5.80526 14.2023C5.78659 14.2023 5.76793 14.1892 5.76793 14.1696C5.76793 14.15 5.74304 14.1303 5.71192 14.1238C5.68392 14.114 5.61547 14.0812 5.56569 14.0485C5.5128 14.0158 5.46924 13.9798 5.46302 13.9634C5.45991 13.9504 5.43813 13.9405 5.41635 13.9405C5.39768 13.9405 5.28879 13.8947 5.17678 13.8391C5.06478 13.7835 4.94344 13.7213 4.90299 13.7082C4.86566 13.6918 4.80343 13.6657 4.76298 13.6493C4.72565 13.6329 4.65098 13.6067 4.6012 13.5871C4.54831 13.5708 4.44564 13.538 4.36785 13.5151C4.29007 13.4955 4.17184 13.4628 4.10339 13.4431C4.03495 13.4268 3.87938 13.3809 3.76115 13.345C3.63981 13.309 3.51847 13.2664 3.48736 13.2501C3.45936 13.2337 3.40647 13.2206 3.37224 13.2206C3.33802 13.2206 3.3038 13.2075 3.29446 13.1879C3.28513 13.1682 3.25091 13.1552 3.21668 13.1552C3.18246 13.1552 3.15446 13.1453 3.15446 13.129C3.15446 13.1159 3.09223 13.0864 3.01445 13.0635C2.93667 13.0439 2.87444 13.0112 2.87444 12.9915C2.87444 12.9719 2.85266 12.9588 2.82777 12.9588C2.80288 12.9588 2.69399 12.8999 2.58509 12.8246C2.47931 12.7494 2.38908 12.6774 2.38286 12.661C2.37975 12.6447 2.35486 12.6316 2.32997 12.6316C2.30508 12.6316 2.2833 12.6185 2.2833 12.5988C2.2833 12.5792 2.41397 12.5661 2.60998 12.5661C2.79044 12.5661 2.96156 12.553 2.98956 12.5367L2.9896 12.5366C3.02073 12.5203 3.08914 12.4843 3.14512 12.4614C3.20424 12.4352 3.25091 12.3894 3.26335 12.3436C3.27268 12.3043 3.26335 12.2389 3.24157 12.1963C3.2229 12.1571 3.17312 12.0916 3.13268 12.0491C3.09223 12.0098 3.04556 11.9771 3.03 11.9771C3.01134 11.9771 2.99889 11.964 2.99889 11.9444C2.99889 11.9247 2.97711 11.9116 2.95222 11.9116C2.92733 11.9116 2.85577 11.8822 2.79666 11.8462C2.73755 11.8102 2.66599 11.7807 2.6411 11.7807C2.61621 11.7807 2.59443 11.7676 2.59443 11.748C2.59443 11.7284 2.57265 11.7153 2.54776 11.7153C2.52287 11.7153 2.42019 11.6695 2.32063 11.6138C2.2303 11.5587 2.12904 11.5006 2.08845 11.4774L2.08107 11.4731C2.04684 11.4535 1.95661 11.388 1.87883 11.3291C1.80105 11.2702 1.69838 11.1884 1.64549 11.1492C1.59571 11.1099 1.49926 11.0248 1.4277 10.9626C1.35925 10.9005 1.1788 10.7172 1.02634 10.5536C0.873891 10.3932 0.715216 10.2067 0.668547 10.1445C0.624989 10.0823 0.581431 10.0234 0.572097 10.0136C0.562764 10.0038 0.497427 9.90891 0.428979 9.80092C0.357419 9.69293 0.26097 9.52276 0.214301 9.42459C0.167632 9.32641 0.11474 9.19879 0.0991836 9.14643C0.0836272 9.09407 0.0525144 8.97626 0.0276242 8.88464C0.00584531 8.79301 -0.00348851 8.70138 0.00895659 8.67847C0.0214017 8.6523 0.0431806 8.66866 0.0742934 8.72756C0.0991836 8.77992 0.217412 8.92063 0.338752 9.04826C0.460091 9.17588 0.615655 9.30678 0.680992 9.34605C0.74944 9.38205 0.855223 9.44422 0.914338 9.47695C0.973452 9.51294 1.08546 9.56203 1.16324 9.58821C1.24102 9.61112 1.31569 9.64384 1.33436 9.65693C1.34992 9.66675 1.40592 9.68638 1.45881 9.6962C1.50859 9.70602 1.60815 9.7322 1.6766 9.75183C1.74505 9.77146 1.85394 9.80419 1.91617 9.82055C1.9815 9.83691 2.09351 9.86636 2.16507 9.886C2.23973 9.90563 2.34552 9.92527 2.39842 9.93509C2.45442 9.94163 2.50109 9.95799 2.50109 9.97108C2.50109 9.98744 2.53842 10.0005 2.58509 10.0071C2.63487 10.0104 2.75621 10.0463 2.85888 10.0823C2.96156 10.1183 3.10779 10.1805 3.18557 10.2165C3.26335 10.2525 3.3598 10.2983 3.40336 10.318C3.44692 10.3376 3.53714 10.3932 3.60559 10.439C3.67404 10.4881 3.74871 10.5372 3.76738 10.547C3.78916 10.5601 3.80782 10.5601 3.80782 10.5438C3.80471 10.5307 3.66782 10.3801 3.50292 10.21C3.33491 10.0398 3.10779 9.81728 2.99889 9.71911C2.88689 9.62093 2.79044 9.53258 2.7811 9.52276C2.77177 9.51294 2.65976 9.4115 2.5322 9.29369C2.40464 9.17588 2.2833 9.06789 2.26463 9.04826C2.24596 9.02862 2.14329 8.93372 2.0344 8.83555C1.9255 8.73738 1.66415 8.47558 1.45259 8.25306C1.24102 8.03381 1.0699 7.84073 1.0699 7.8211C1.0699 7.80146 1.04501 7.76219 1.0139 7.73274C0.985897 7.70329 0.873891 7.49386 0.768108 7.26806C0.662324 7.03899 0.581431 6.84592 0.587654 6.82955C0.596988 6.81646 0.587654 6.80665 0.572097 6.80665C0.55343 6.80665 0.540985 6.78701 0.540985 6.7641C0.540985 6.74447 0.512983 6.66266 0.478759 6.58412C0.444535 6.50886 0.416534 6.41723 0.416534 6.38123C0.416534 6.34523 0.400977 6.27979 0.385421 6.23397C0.366753 6.18816 0.363642 6.15216 0.376087 6.15216C0.391643 6.15216 0.438313 6.18489 0.484982 6.22743C0.52854 6.2667 0.593876 6.32233 0.624989 6.34851C0.656102 6.37469 0.721439 6.43032 0.77433 6.46631C0.824111 6.50558 0.92056 6.56776 0.982786 6.60703C1.04812 6.64302 1.18191 6.68557 1.27836 6.69866C1.44325 6.71502 1.46503 6.71175 1.53037 6.63975C1.59571 6.57103 1.60193 6.53503 1.5926 6.33214C1.58326 6.14889 1.55837 6.05072 1.46192 5.84128C1.39659 5.69729 1.32191 5.55658 1.29391 5.5304C1.26902 5.50422 1.20369 5.40605 1.14768 5.31769C1.09479 5.22934 0.979674 5.01336 0.89567 4.84319C0.808554 4.67302 0.687215 4.39814 0.624989 4.23779C0.562764 4.07744 0.435201 3.70111 0.341863 3.40332C0.248525 3.10553 0.148964 2.75211 0.120962 2.61794C0.092961 2.48377 0.0525144 2.20889 0.0276242 2.01254C-0.00971107 1.69512 -0.00971106 1.61331 0.0307355 1.32533C0.0556257 1.14535 0.111629 0.886827 0.155187 0.752658C0.198744 0.618489 0.276526 0.409053 0.332529 0.284701C0.388532 0.163621 0.438313 0.0654485 0.447646 0.0654485C0.45698 0.0654485 0.472537 0.186528 0.48187 0.333787C0.494315 0.484319 0.531651 0.693754 0.562764 0.801744C0.596988 0.909734 0.665436 1.0799 0.712105 1.17807C0.758774 1.27625 0.836556 1.41696 0.880114 1.48895C0.923671 1.56095 0.973452 1.63949 0.99212 1.66239C1.00768 1.6853 1.03879 1.7213 1.05434 1.7442C1.07301 1.76711 1.13524 1.84892 1.19435 1.93073C1.25347 2.01254 1.31569 2.09435 1.33436 2.11399C1.34992 2.13362 1.44325 2.24161 1.53659 2.35615C1.62993 2.47068 1.74194 2.60158 1.78549 2.65067C1.82905 2.69975 1.94106 2.83065 2.0344 2.94518C2.12774 3.05972 2.25841 3.21025 2.32375 3.28552C2.38908 3.36078 2.50109 3.49168 2.57265 3.58003C2.64421 3.66839 2.7531 3.79274 2.81222 3.86146C2.87133 3.93018 2.97089 4.04472 3.03 4.11998C3.08912 4.19525 3.18868 4.31306 3.24779 4.38178C3.30691 4.4505 3.43447 4.59776 3.52781 4.70902C3.62115 4.82356 3.73938 4.961 3.78604 5.0199C3.83271 5.07553 3.93227 5.1868 4.00383 5.26861C4.07539 5.35042 4.22473 5.52385 4.33674 5.65802C4.44875 5.79219 4.6012 5.97545 4.67898 6.06381C4.75676 6.15543 4.85321 6.2667 4.89677 6.31578C4.93902 6.36339 5.03101 6.47564 5.10748 6.56894L5.12165 6.58623C5.19811 6.67952 5.29011 6.79177 5.33235 6.83937C5.37591 6.89173 5.50036 7.03899 5.61236 7.16661C5.72437 7.29751 5.84882 7.44477 5.89238 7.49386C5.93594 7.54294 6.04794 7.67711 6.14128 7.78837C6.22834 7.89215 6.35059 8.03295 6.41966 8.11249L6.43374 8.12871C6.49908 8.2007 6.60486 8.32832 6.66709 8.41014C6.72931 8.48867 6.83509 8.6163 6.90354 8.69156C6.97199 8.76356 7.11822 8.93372 7.23023 9.06462C7.34223 9.19552 7.45424 9.32969 7.47913 9.35914C7.50402 9.39186 7.60358 9.50967 7.69692 9.62093C7.79026 9.73547 7.88359 9.84346 7.89915 9.86309C7.91782 9.88273 8.02049 10.0104 8.1325 10.1445C8.2445 10.2787 8.37518 10.4325 8.42807 10.4881C8.47785 10.5438 8.59919 10.6845 8.69253 10.799C8.78586 10.9135 8.89787 11.0444 8.94143 11.0968C8.98499 11.1459 9.08144 11.2571 9.15922 11.3455C9.237 11.4339 9.34278 11.5648 9.39878 11.6367C9.45168 11.7055 9.56368 11.8396 9.64769 11.9345C9.72257 12.0224 9.87744 12.1972 10.0012 12.3369L10.0304 12.3698C10.1579 12.517 10.2731 12.6577 10.2855 12.6839C10.3011 12.7101 10.3633 12.7854 10.4255 12.8541C10.4908 12.9195 10.6464 13.0995 10.774 13.2533C10.9015 13.4071 11.026 13.5544 11.0478 13.5806C11.0747 13.6133 11.0975 13.6187 11.1162 13.5969C11.1349 13.5773 11.166 13.4529 11.194 13.3188C11.2189 13.1846 11.2438 13.0373 11.2531 12.9915C11.2593 12.9457 11.3184 12.6447 11.4958 11.7316L11.4273 11.5189C11.3838 11.375 11.3278 11.2702 11.25 11.1917C11.1847 11.1262 11.0851 11.0412 11.026 10.9986C10.9295 10.9299 10.9109 10.9266 10.8486 10.9659C10.8082 10.9921 10.7709 11.0052 10.7615 10.9954C10.7522 10.9855 10.7615 10.943 10.7802 10.8972C10.7989 10.8514 10.858 10.7794 10.9109 10.7336C10.9886 10.6714 11.0478 10.655 11.1847 10.6517C11.3091 10.6517 11.3993 10.6747 11.5113 10.7336C11.5953 10.7794 11.6793 10.8285 11.698 10.8481C11.7198 10.8645 11.7634 10.907 11.8007 10.9397C11.8442 10.9757 11.9189 10.9954 12.0371 10.9954C12.1305 10.9954 12.2643 11.015 12.3327 11.0379C12.4012 11.0575 12.4572 11.087 12.4572 11.1033C12.4572 11.1164 12.4696 11.1262 12.4883 11.1262C12.5038 11.1262 12.5598 11.1655 12.6096 11.2146C12.6594 11.267 12.8212 11.4764 12.9674 11.6826C13.1136 11.8887 13.2661 12.1014 13.3034 12.1538C13.3439 12.2061 13.3781 12.2618 13.3812 12.2749C13.3874 12.2912 13.3688 12.3043 13.3439 12.3043C13.319 12.3043 13.2972 12.2945 13.2972 12.2781C13.2972 12.2651 13.2599 12.2356 13.2101 12.2127C13.1634 12.1898 13.0732 12.1734 13.0079 12.1734C12.9239 12.1734 12.8803 12.1931 12.843 12.2454C12.7994 12.3141 12.8025 12.3469 12.8616 12.6316C12.899 12.8017 12.9394 12.9948 12.955 13.057C12.9705 13.1192 12.9985 13.2533 13.0203 13.3515C13.039 13.4497 13.0701 13.5937 13.0919 13.6722C13.1105 13.7475 13.1323 13.8096 13.1416 13.8096C13.151 13.8129 13.235 13.7213 13.3283 13.61C13.4217 13.4988 13.5554 13.3384 13.6239 13.2566C13.6923 13.1748 13.7826 13.0701 13.8261 13.0243C13.8697 12.9784 13.9599 12.8705 14.0284 12.7788C14.0968 12.6905 14.2088 12.5563 14.2773 12.4843C14.3457 12.4123 14.4515 12.288 14.5106 12.2061C14.5697 12.1243 14.6755 11.9967 14.744 11.9247C14.8124 11.8495 14.8995 11.7447 14.9369 11.6957C14.9742 11.6433 15.052 11.5484 15.108 11.4829C15.164 11.4208 15.3009 11.2571 15.4129 11.123C15.5249 10.9888 15.6462 10.8448 15.6836 10.799C15.724 10.7532 15.7551 10.7074 15.7551 10.691C15.7551 10.6779 15.7769 10.6681 15.8018 10.6681C15.8267 10.6681 15.8422 10.655 15.8329 10.6354C15.8236 10.6157 15.8733 10.5503 15.9418 10.4881C16.0102 10.4259 16.06 10.3736 16.0507 10.3736C16.0414 10.3736 16.0725 10.3343 16.1222 10.282C16.1689 10.2329 16.228 10.1609 16.2529 10.1249C16.2778 10.0856 16.4023 9.92854 16.5298 9.78128C16.6574 9.63075 16.8378 9.4115 16.9343 9.29696C17.0307 9.18243 17.1303 9.06135 17.1552 9.0319C17.1801 9.00244 17.2796 8.88136 17.373 8.76683C17.4663 8.65229 17.6001 8.49195 17.6686 8.41341C17.737 8.3316 17.8335 8.21706 17.8863 8.16143C17.9361 8.10253 18.0139 8.00763 18.0575 7.94872C18.101 7.88982 18.1757 7.79492 18.2286 7.73929C18.2784 7.68366 18.3997 7.54621 18.493 7.42841C18.5864 7.3106 18.7046 7.16989 18.7575 7.11425C18.8073 7.05862 18.9131 6.93427 18.9908 6.83937C19.0686 6.74447 19.1837 6.6103 19.246 6.54158C19.3113 6.46959 19.3642 6.40414 19.3642 6.38778C19.3642 6.37469 19.4451 6.27324 19.5447 6.16198C19.6411 6.05399 19.7842 5.88709 19.862 5.79219C19.9398 5.70057 20.0362 5.58276 20.0798 5.53367C20.1233 5.48459 20.2354 5.35042 20.3287 5.23588C20.422 5.12135 20.534 4.99045 20.5776 4.93809C20.6212 4.889 20.7052 4.78756 20.7643 4.71229C20.8234 4.63703 20.9229 4.51922 20.9821 4.45377C21.0412 4.38505 21.1407 4.26724 21.1999 4.18871C21.259 4.11017 21.3585 3.99236 21.4176 3.92364C21.4768 3.85492 21.6043 3.71093 21.6977 3.59967C21.791 3.48841 21.9186 3.34442 21.9777 3.2757C22.0368 3.21025 22.1363 3.08917 22.1955 3.01063L22.2032 3.00072C22.261 2.92723 22.3305 2.83876 22.3572 2.8012C22.3884 2.76193 22.4226 2.71611 22.4381 2.69975C22.4537 2.6834 22.519 2.5853 22.5843 2.48716L22.5844 2.48704C22.6497 2.38887 22.7337 2.26452 22.7679 2.20889C22.8053 2.15326 22.8395 2.10417 22.8488 2.09435C22.8582 2.08454 22.9017 2.00927 22.9422 1.92091C22.9857 1.83583 23.0293 1.76711 23.0417 1.76711C23.0573 1.76711 23.0666 1.74093 23.0666 1.71148C23.0666 1.67875 23.0946 1.61658 23.1288 1.57076C23.1631 1.52495 23.1911 1.46277 23.1911 1.43005C23.1911 1.4006 23.2035 1.37115 23.216 1.36787C23.2315 1.36133 23.2875 1.2108 23.3435 1.03081Z" fill="none"/>
<path d="M10.3944 18.162C10.3882 18.2438 10.3819 18.1914 10.3819 18.0475C10.3819 17.9035 10.3882 17.838 10.3944 17.9002C10.4006 17.9624 10.4006 18.0802 10.3944 18.162Z" fill="none"/>
<path d="M18.6797 14.6179C18.5521 14.6245 18.3561 14.6245 18.2441 14.6179C18.1321 14.6114 18.2379 14.6081 18.4775 14.6081C18.717 14.6081 18.8073 14.6147 18.6797 14.6179Z" fill="none"/>
<path d="M5.33227 14.5525C5.25449 14.5591 5.13626 14.5591 5.06782 14.5525C4.99937 14.546 5.06159 14.5394 5.20782 14.5394C5.35405 14.5394 5.41006 14.546 5.33227 14.5525Z" fill="none"/>
<path d="M8.67697 17.5304C8.59297 17.537 8.45918 17.537 8.3814 17.5304C8.30362 17.5239 8.37518 17.5206 8.53697 17.5206C8.69875 17.5206 8.76409 17.5239 8.67697 17.5304Z" fill="none"/>
<path d="M18.5708 14.6507C18.5023 14.6572 18.3965 14.6572 18.3374 14.6507C18.2783 14.6441 18.3343 14.6376 18.4619 14.6376C18.5894 14.6376 18.6392 14.6441 18.5708 14.6507Z" fill="none"/>
<path d="M11.0259 6.67905C11.1877 6.65941 11.3277 6.63323 11.337 6.62342C11.3464 6.6136 11.6606 6.6136 12.0371 6.62342C12.4135 6.63323 12.8273 6.65614 12.9549 6.6725C13.0825 6.69214 13.266 6.71832 13.3594 6.73795C13.4527 6.75431 13.5989 6.78377 13.686 6.8034C13.77 6.82303 13.8914 6.85249 13.9505 6.86885C14.0096 6.88521 14.0936 6.91139 14.1372 6.92121C14.1807 6.9343 14.243 6.95393 14.2772 6.97029C14.3114 6.98338 14.4452 7.0292 14.5728 7.07174C14.7003 7.11101 14.8963 7.18955 15.0083 7.2419C15.1203 7.29426 15.3817 7.42843 15.5933 7.5397C15.8017 7.64769 15.9728 7.74586 15.9728 7.75568C15.9728 7.76549 16.0226 7.79495 16.0817 7.82112C16.1408 7.8473 16.1906 7.88003 16.1906 7.89312C16.1906 7.90948 16.2124 7.9193 16.2373 7.9193C16.2622 7.9193 16.284 7.93239 16.284 7.95202C16.284 7.97166 16.3026 7.98475 16.3213 7.98475C16.3431 7.98475 16.3897 8.01092 16.424 8.04365C16.4582 8.07637 16.5546 8.15164 16.6418 8.21382C16.7258 8.27599 16.8409 8.36762 16.8907 8.41671C16.9404 8.46579 16.9933 8.50833 17.0058 8.50833C17.0213 8.50833 17.0307 8.52797 17.0307 8.5476C17.0307 8.57051 16.9715 8.65887 16.9 8.74395C16.8253 8.82576 16.7351 8.93702 16.6978 8.98938C16.6604 9.03847 16.5733 9.14318 16.5017 9.21845C16.3897 9.3428 16.3711 9.35589 16.3151 9.31662C16.2808 9.29699 16.2528 9.26754 16.2528 9.25118C16.2528 9.23809 16.2311 9.22827 16.2062 9.22827C16.1813 9.22827 16.1564 9.21518 16.1502 9.20209C16.1471 9.18573 15.9946 9.06792 15.811 8.94029C15.6244 8.8094 15.4626 8.70468 15.4439 8.70468C15.4252 8.70468 15.4097 8.69486 15.4066 8.6785C15.4004 8.66541 15.251 8.58033 15.0706 8.48543C14.8901 8.3938 14.6785 8.28908 14.5976 8.24981C14.5136 8.21054 14.4359 8.18109 14.4172 8.18109C14.3985 8.18109 14.3612 8.168 14.3332 8.15164C14.3021 8.13528 14.243 8.1091 14.1994 8.08946C14.1558 8.0731 14.0594 8.04038 13.9816 8.01747C13.9038 7.99456 13.8074 7.96511 13.7638 7.95202C13.7203 7.93893 13.602 7.90948 13.4994 7.88657C13.3967 7.86694 13.2629 7.83749 13.2038 7.82112C13.1447 7.80476 13.0047 7.77858 12.8927 7.76549C12.7807 7.7524 12.3606 7.73931 11.9593 7.73931C11.5579 7.73931 11.1503 7.7524 11.057 7.76549C10.9637 7.78186 10.8361 7.80476 10.777 7.82112C10.7179 7.83749 10.5841 7.86694 10.4814 7.88657C10.3788 7.90948 10.2605 7.93893 10.217 7.95202C10.1734 7.96511 10.077 7.99456 9.99918 8.02074C9.9214 8.04365 9.84672 8.0731 9.83117 8.08946C9.8125 8.10255 9.76894 8.11564 9.7285 8.11564C9.68805 8.11564 9.65071 8.12873 9.64138 8.14837C9.63205 8.168 9.59782 8.18109 9.5636 8.18109C9.52937 8.18109 9.47648 8.19418 9.44848 8.21382C9.41737 8.23018 9.33025 8.27272 9.25247 8.31199C9.17469 8.34798 9.0938 8.37744 9.07202 8.37744C9.05335 8.37744 9.03157 8.38725 9.02846 8.40362C9.02224 8.41671 8.89156 8.49197 8.73911 8.57378C8.58666 8.65559 8.43109 8.74722 8.39687 8.77995C8.36265 8.8094 8.31598 8.83558 8.29731 8.83558C8.27553 8.83558 8.25686 8.84539 8.25686 8.85848C8.25686 8.87485 8.21953 8.90757 8.17286 8.93375C8.12308 8.95993 8.07952 8.98938 8.07019 8.9992C8.06085 9.00901 8.00796 9.05156 7.95507 9.09083C7.89907 9.1301 7.83995 9.16282 7.82128 9.16282C7.80262 9.16282 7.74661 9.11373 7.69372 9.05483C7.63772 8.9992 7.53816 8.87812 7.4666 8.78976C7.39815 8.70468 7.29237 8.57705 7.23948 8.51161C7.13992 8.3938 7.1368 8.3938 7.19592 8.32835C7.23014 8.29235 7.29548 8.24 7.34215 8.21382C7.39193 8.18764 7.47282 8.12546 7.52571 8.0731C7.57549 8.02401 7.63772 7.98475 7.65639 7.98475C7.67817 7.98475 7.69683 7.97166 7.69683 7.95202C7.69683 7.93239 7.71861 7.9193 7.7435 7.9193C7.76839 7.9193 7.79017 7.90621 7.79017 7.88657C7.79017 7.86694 7.81506 7.8473 7.84306 7.83749C7.87418 7.83094 7.94262 7.79822 7.9924 7.76549C8.0453 7.73277 8.12619 7.68041 8.17286 7.64769C8.21953 7.61823 8.27864 7.59205 8.30353 7.59205C8.32842 7.59205 8.35331 7.58224 8.35642 7.56587C8.36265 7.55279 8.42487 7.51024 8.49643 7.4677C8.5711 7.42843 8.652 7.39571 8.67689 7.39571C8.70178 7.39571 8.72355 7.38262 8.72355 7.36298C8.72355 7.34335 8.74844 7.33026 8.77645 7.33026C8.80756 7.33026 8.86045 7.30735 8.89468 7.28117C8.9289 7.25172 9.03468 7.20591 9.12802 7.17646C9.22136 7.147 9.31159 7.11428 9.33025 7.10119C9.34892 7.09137 9.42359 7.06192 9.50137 7.03901C9.57916 7.01611 9.66316 6.98666 9.68805 6.97357C9.71294 6.9572 9.8125 6.92775 9.90584 6.90485C9.99918 6.88194 10.1081 6.85249 10.1485 6.83612C10.1859 6.81976 10.2574 6.80667 10.3041 6.80667C10.3508 6.80667 10.4036 6.79358 10.4192 6.77722C10.4379 6.76086 10.5125 6.74122 10.5903 6.73141C10.6681 6.72159 10.8641 6.69868 11.0259 6.67905Z" fill="none"/>
<path d="M19.8775 15.8386C19.8961 15.8386 19.9304 15.8058 19.9553 15.7666C20.0019 15.6913 20.0019 15.6913 20.0144 15.8058C20.0206 15.868 20.0081 16.0676 19.9864 16.2476C19.9677 16.4276 19.9304 16.6927 19.9055 16.8367C19.8806 16.9806 19.8464 17.1639 19.8308 17.2457C19.8153 17.3275 19.7872 17.4453 19.7717 17.5075C19.7561 17.5697 19.7312 17.658 19.7219 17.7039C19.7095 17.7497 19.6939 17.8053 19.6877 17.8249C19.6815 17.8478 19.6752 17.8707 19.6752 17.874C19.6752 17.8806 19.6224 18.0475 19.557 18.2438C19.4917 18.4401 19.4108 18.6627 19.3828 18.7347C19.3517 18.8067 19.2428 19.0488 19.1401 19.2746C19.0374 19.5004 18.9441 19.6902 18.9348 19.7C18.9223 19.7099 18.8788 19.7818 18.8383 19.8637C18.7979 19.9455 18.7045 20.0993 18.6361 20.2073C18.5645 20.3152 18.5023 20.4101 18.493 20.42C18.4836 20.4298 18.4401 20.4952 18.3934 20.5672C18.3467 20.6392 18.2721 20.7439 18.2285 20.7963C18.1849 20.8487 18.104 20.9534 18.0512 21.0254C17.9952 21.0974 17.7805 21.333 17.572 21.549C17.3636 21.7649 17.1551 21.9776 17.1053 22.0235C17.0555 22.0693 16.9653 22.1413 16.9062 22.1871C16.8471 22.2329 16.7724 22.2918 16.7413 22.318C16.7102 22.3442 16.6449 22.3998 16.6013 22.4391C16.5546 22.4816 16.4986 22.5143 16.4769 22.5143C16.4582 22.5143 16.4395 22.5307 16.4395 22.547C16.4395 22.5634 16.424 22.5798 16.4084 22.5798C16.3928 22.5798 16.3462 22.6092 16.3057 22.6452C16.2684 22.6812 16.2186 22.7107 16.1968 22.7107C16.1782 22.7107 16.1595 22.7205 16.1595 22.7336C16.1595 22.7499 16.1128 22.7794 16.0599 22.8056C16.0039 22.8317 15.951 22.8612 15.9417 22.871C15.9324 22.8808 15.8826 22.9168 15.8328 22.9463C15.783 22.979 15.6057 23.0739 15.4439 23.1557C15.2821 23.2375 15.1172 23.3193 15.0768 23.3357C15.0394 23.3521 14.971 23.3815 14.9212 23.4011C14.8745 23.4208 14.8123 23.4502 14.7812 23.4666C14.7532 23.483 14.7003 23.496 14.6661 23.496C14.6319 23.496 14.6039 23.5124 14.6039 23.5288C14.6039 23.5451 14.5759 23.5615 14.5416 23.5615C14.5074 23.5615 14.4545 23.5746 14.4234 23.5909C14.3954 23.6073 14.3083 23.6368 14.2305 23.6597C14.1527 23.6826 14.0594 23.712 14.0189 23.7284C13.9816 23.7448 13.9069 23.7578 13.8572 23.7578C13.8074 23.7578 13.7576 23.7742 13.7483 23.7906C13.7389 23.8069 13.6829 23.8233 13.6238 23.8233C13.5647 23.8233 13.49 23.8364 13.4589 23.8527C13.4309 23.8691 13.3345 23.8855 13.2505 23.892C13.1633 23.8953 13.0825 23.9116 13.0638 23.9215C13.0451 23.9346 12.8989 23.9575 12.7371 23.9705C12.5753 23.9869 12.2455 24 12.006 24C11.7664 24 11.4584 23.9902 11.3215 23.9771C11.1846 23.964 10.9761 23.9378 10.8548 23.9182C10.7334 23.8986 10.5405 23.8593 10.4192 23.8331C10.2979 23.8069 10.1547 23.7775 10.0987 23.7709C10.0458 23.7644 9.99295 23.7415 9.98362 23.7251C9.97429 23.7088 9.93695 23.6924 9.89651 23.6924C9.85917 23.6924 9.75028 23.6629 9.65694 23.6269C9.5636 23.5909 9.46093 23.5615 9.42981 23.5615C9.40181 23.5615 9.37692 23.5451 9.37692 23.5288C9.37692 23.5124 9.34892 23.496 9.3147 23.496C9.28047 23.496 9.22447 23.4797 9.19025 23.4633C9.15602 23.447 9.10002 23.4142 9.0658 23.3979C9.03157 23.3815 8.99112 23.3652 8.97246 23.3652C8.95379 23.3652 8.84801 23.3193 8.72978 23.2604C8.61466 23.2015 8.51821 23.1426 8.51199 23.1295C8.50888 23.1164 8.4871 23.1034 8.46532 23.1034C8.44665 23.1034 8.39065 23.087 8.34398 23.0641C8.2942 23.0412 8.25686 23.0117 8.25686 22.9954C8.25686 22.9823 8.22886 22.9725 8.19464 22.9725C8.16041 22.9725 8.13241 22.9561 8.13241 22.9397C8.13241 22.9234 8.11063 22.907 8.08574 22.907C8.06085 22.907 8.03907 22.8972 8.03907 22.8808C8.03907 22.8677 7.98929 22.835 7.93018 22.8088C7.87107 22.7827 7.82128 22.7532 7.82128 22.7434C7.82128 22.7336 7.78395 22.7107 7.73728 22.6878C7.6875 22.6649 7.61905 22.619 7.57861 22.5798C7.54127 22.5438 7.50393 22.5143 7.4946 22.5143C7.48527 22.5143 7.41993 22.4652 7.34526 22.4063C7.2737 22.3507 7.20836 22.2951 7.19903 22.2853C7.1897 22.2754 7.12125 22.2165 7.04347 22.1544C6.96568 22.0922 6.87546 22.0169 6.84434 21.9907C6.81012 21.9646 6.63589 21.7878 6.45232 21.598C6.26876 21.4082 6.02919 21.1432 5.92029 21.0057C5.8114 20.8716 5.69939 20.7243 5.6745 20.685C5.64961 20.6425 5.60295 20.577 5.57494 20.541C5.54383 20.5018 5.50961 20.4527 5.49405 20.4363C5.4794 20.4209 5.45373 20.3736 5.43 20.3299L5.4256 20.3218C5.40382 20.276 5.36338 20.2171 5.33849 20.1909C5.3136 20.1647 5.24515 20.0567 5.18915 19.952C5.13003 19.8506 5.08336 19.7589 5.08336 19.7491C5.08336 19.7393 5.04914 19.6804 5.00558 19.6182C4.96202 19.556 4.93402 19.4873 4.94335 19.471C4.95269 19.4546 4.94958 19.4382 4.93402 19.4382C4.92158 19.4382 4.85313 19.3106 4.78157 19.1535C4.71001 18.9932 4.62289 18.7968 4.58867 18.7085C4.55133 18.6234 4.52333 18.535 4.52333 18.5121C4.52333 18.4925 4.51089 18.4565 4.49533 18.4401C4.47977 18.4238 4.42377 18.2602 4.37088 18.0802C4.31799 17.9002 4.25887 17.6973 4.24332 17.6286C4.22465 17.5631 4.19976 17.4519 4.18109 17.3832C4.16554 17.3177 4.13131 17.1508 4.10642 17.0166C4.07842 16.8825 4.0442 16.6403 4.02553 16.4767C4.00686 16.3131 3.98197 16.0905 3.96953 15.976C3.95708 15.8647 3.95708 15.7731 3.96953 15.7731C3.98508 15.7731 4.02553 15.7993 4.05975 15.8288C4.09709 15.8615 4.15931 15.9204 4.19976 15.9596C4.24021 16.0022 4.28688 16.0349 4.30554 16.0349C4.32421 16.0349 4.33666 16.048 4.33666 16.0676C4.33666 16.084 4.35532 16.1004 4.37399 16.1004C4.39577 16.1004 4.44244 16.1265 4.47666 16.1593C4.51089 16.1887 4.65089 16.2738 4.78468 16.3458C4.91846 16.4178 5.03669 16.4898 5.04914 16.5094C5.05847 16.5258 5.07403 16.6076 5.08647 16.6894C5.09892 16.7712 5.13003 16.9316 5.15492 17.0494C5.18292 17.1672 5.23581 17.3864 5.27937 17.5402C5.32293 17.694 5.39449 17.9198 5.44116 18.0475C5.48472 18.1751 5.62784 18.5056 5.75851 18.7838C5.88918 19.0619 6.0043 19.2975 6.01363 19.3073C6.02297 19.3172 6.11319 19.4513 6.20964 19.6084C6.3092 19.7688 6.38699 19.8996 6.38387 19.9029C6.38076 19.9095 6.41188 19.9487 6.45232 19.9945C6.49588 20.0404 6.57989 20.1418 6.639 20.2203C6.69811 20.2989 6.78212 20.4036 6.82568 20.4527C6.86923 20.5018 6.95324 20.6032 7.01235 20.6785C7.07147 20.7505 7.13058 20.8127 7.14303 20.8127C7.15858 20.8127 7.23014 20.8748 7.30481 20.9501C7.37948 21.0286 7.49771 21.1464 7.56927 21.2119C7.63772 21.2806 7.70928 21.3362 7.72795 21.3362C7.74661 21.3362 7.75906 21.3461 7.75906 21.3592C7.75906 21.3755 7.81506 21.4213 7.88351 21.4671C7.95196 21.513 8.00796 21.5588 8.00796 21.5719C8.00796 21.5882 8.02974 21.598 8.05463 21.598C8.07952 21.598 8.1013 21.6144 8.1013 21.6308C8.1013 21.6471 8.12308 21.6635 8.14797 21.6635C8.17286 21.6635 8.19464 21.6799 8.19464 21.6962C8.19464 21.7126 8.20708 21.7289 8.22575 21.7289C8.24442 21.7289 8.31909 21.7748 8.39687 21.8271C8.47465 21.8795 8.54932 21.9253 8.56799 21.9253C8.58666 21.9253 8.5991 21.9351 8.5991 21.9482C8.5991 21.9646 8.67689 22.0104 8.77022 22.0562C8.86356 22.102 8.94134 22.1478 8.94134 22.1609C8.94134 22.1773 8.96001 22.1871 8.97868 22.1871C9.00046 22.1871 9.08757 22.2231 9.17469 22.2689C9.25869 22.3147 9.33959 22.3507 9.35203 22.3507C9.36759 22.3507 9.42981 22.3736 9.49204 22.4031C9.55738 22.4325 9.63516 22.4685 9.66316 22.4849C9.69427 22.5012 9.74094 22.5143 9.76583 22.5143C9.79072 22.5143 9.83739 22.5274 9.86539 22.5438C9.89651 22.5601 9.98362 22.5896 10.0614 22.6125C10.1392 22.6354 10.2325 22.6648 10.2699 22.6812C10.3103 22.6976 10.3756 22.7107 10.4192 22.7107C10.4628 22.7107 10.5032 22.7205 10.5094 22.7336C10.5156 22.7499 10.5841 22.763 10.6588 22.7696C10.7303 22.7728 10.8361 22.7925 10.8859 22.8088C10.9357 22.8219 11.0757 22.8481 11.197 22.8612C11.3184 22.8743 11.6513 22.8874 11.9437 22.8874C12.2362 22.8906 12.6189 22.871 12.7993 22.8481C12.9798 22.8252 13.1882 22.799 13.266 22.7892C13.3438 22.7761 13.4185 22.7565 13.434 22.7401C13.4527 22.7238 13.518 22.7107 13.5834 22.7107C13.6487 22.7107 13.7078 22.6943 13.7172 22.6779C13.7265 22.6616 13.7607 22.6452 13.7949 22.6452C13.8292 22.6452 13.882 22.6321 13.9101 22.6158C13.9412 22.5994 14.0158 22.57 14.0749 22.5503C14.1341 22.5307 14.215 22.5143 14.2523 22.5143C14.2927 22.5143 14.3239 22.498 14.3239 22.4816C14.3239 22.4652 14.3456 22.4489 14.3705 22.4489C14.3954 22.4489 14.4421 22.4358 14.4701 22.4194C14.5012 22.4031 14.5696 22.3736 14.6194 22.3507C14.6692 22.3278 14.7376 22.2983 14.7657 22.282C14.7968 22.2656 14.8434 22.2525 14.8683 22.2525C14.8932 22.2525 14.915 22.2427 14.915 22.2263C14.915 22.2133 14.9523 22.1838 15.0021 22.1609C15.0488 22.138 15.1048 22.1216 15.1234 22.1216C15.1452 22.1216 15.1639 22.1118 15.1639 22.0954C15.1639 22.0824 15.2137 22.0496 15.2728 22.0235C15.3319 21.9973 15.3817 21.9646 15.3817 21.9482C15.3817 21.9351 15.4035 21.9253 15.4284 21.9253C15.4532 21.9253 15.5061 21.8958 15.5435 21.8598C15.5839 21.8238 15.6337 21.7944 15.6524 21.7944C15.6741 21.7944 15.6928 21.778 15.6928 21.7617C15.6928 21.7453 15.7146 21.7289 15.7395 21.7289C15.7644 21.7289 15.7861 21.7126 15.7861 21.6962C15.7861 21.6799 15.8079 21.6635 15.8328 21.6635C15.8577 21.6635 15.8795 21.6471 15.8795 21.6308C15.8795 21.6144 15.9013 21.598 15.9262 21.598C15.951 21.598 15.9728 21.5882 15.9728 21.5719C15.9728 21.5588 16.0102 21.526 16.0568 21.4933C16.1066 21.4639 16.1875 21.4017 16.2373 21.3559C16.2871 21.3101 16.34 21.2708 16.3555 21.2708C16.368 21.2708 16.5857 21.0515 16.8378 20.7865C17.0898 20.5181 17.3169 20.2662 17.3418 20.2269C17.3667 20.1844 17.4258 20.1091 17.4725 20.0567C17.5222 20.0044 17.5596 19.952 17.5596 19.9356C17.5596 19.9226 17.5845 19.8767 17.6218 19.8309C17.656 19.7851 17.6934 19.7328 17.7058 19.7164C17.7214 19.7 17.7805 19.6019 17.8396 19.5037C17.8987 19.4055 17.9547 19.3172 17.964 19.3073C17.9765 19.2975 18.0885 19.0685 18.2192 18.8001C18.3467 18.5285 18.4587 18.2798 18.4712 18.2438C18.4805 18.2078 18.5396 18.0246 18.5987 17.8347C18.661 17.6449 18.7232 17.4453 18.7388 17.393C18.7543 17.3406 18.7854 17.213 18.8041 17.1148C18.8259 17.0166 18.8539 16.9021 18.8694 16.8596C18.885 16.8203 18.8974 16.7385 18.8974 16.6796C18.8974 16.624 18.9099 16.5585 18.9223 16.5389C18.9348 16.516 19.0001 16.4669 19.0685 16.4276C19.137 16.3851 19.2428 16.3229 19.3019 16.2902C19.361 16.2574 19.4606 16.1854 19.5197 16.1331C19.5788 16.0775 19.6348 16.0349 19.6441 16.0349C19.6535 16.0349 19.7032 15.9891 19.7561 15.9367C19.8059 15.8844 19.8619 15.8386 19.8775 15.8386Z" fill="none"/>
<path d="M12.2549 22.8972C12.1864 22.9037 12.0807 22.9037 12.0215 22.8972C11.9624 22.8907 12.0184 22.8841 12.146 22.8841C12.2736 22.8841 12.3233 22.8907 12.2549 22.8972Z" fill="none"/>
</g>
<defs>
<clipPath id="clip0_97_57300">
<rect width="24" height="24" fill="white"/>
</clipPath>
</defs>
</svg>
