<svg width="30" height="30" viewBox="0 0 30 30" fill="#6d6d91" xmlns="http://www.w3.org/2000/svg">
<path fill-rule="evenodd" clip-rule="evenodd" d="M9.73918 2.68715C7.03988 3.60512 4.75106 4.43713 4.65306 4.53598C4.49365 4.69663 4.51094 5.25695 4.81529 9.80165C5.00635 12.6542 5.11294 14.9666 5.058 15.0676C5.00412 15.1666 4.29412 15.9088 3.48 16.7168C2.666 17.5248 2 18.2551 2 18.3396C2 18.5323 6.06082 23.4283 6.29588 23.519C6.39071 23.5557 7.03506 23.3467 7.72765 23.0547C8.74329 22.6265 9.01541 22.5528 9.134 22.6741C9.21482 22.7568 9.51918 23.6452 9.81024 24.6484C10.1012 25.6515 10.4086 26.5404 10.4932 26.6239C10.6609 26.7891 14.6175 27.9973 15 28C15.4061 28.003 19.3392 26.7957 19.5215 26.6122C19.6171 26.516 19.9385 25.5978 20.2358 24.5717C20.6956 22.9848 20.8129 22.7007 21.0212 22.67C21.1559 22.6503 21.7327 22.8233 22.3029 23.0548C22.8733 23.2862 23.4612 23.4755 23.6094 23.4755C23.8159 23.4755 24.3374 22.9222 25.8411 21.1078C26.9202 19.8056 27.8474 18.7401 27.9015 18.7401C27.9558 18.7401 28 18.6155 28 18.463C28 18.2649 27.5776 17.7666 26.52 16.7168C25.7059 15.9088 24.9985 15.1678 24.9478 15.0702C24.8972 14.9725 25.0048 12.7084 25.1871 10.0388C25.5838 4.22841 25.5694 4.70942 25.3521 4.49076C25.146 4.28335 15.2091 0.973523 14.8727 1.00016C14.7486 1.00999 12.4385 1.76919 9.73918 2.68715ZM10.2734 14.2335C10.7186 14.4039 11.4008 15.0581 11.654 15.5573C11.8068 15.8588 11.8824 16.2488 11.8824 16.7364C11.8824 19.234 8.88847 20.3531 7.32212 18.441C6.242 17.1223 6.67435 15.0299 8.16812 14.3472C8.68718 14.1099 9.79412 14.0502 10.2734 14.2335ZM21.8722 14.3546C22.7595 14.8102 23.2958 15.7165 23.2915 16.7534C23.2882 17.5651 22.9789 18.2327 22.3586 18.767C20.6615 20.2287 18.1228 19.0064 18.1228 16.7276C18.1228 15.6739 18.6422 14.8205 19.5882 14.3195C20.1026 14.0471 21.3094 14.0657 21.8722 14.3546ZM15.8485 20.7823C16.6381 22.0473 16.6564 22.1047 16.362 22.4009C16.0349 22.7301 15.9585 22.7155 15.4785 22.2325C15.252 22.0046 15.0402 21.8181 15.0079 21.8181C14.9755 21.8181 14.7619 22.0065 14.5332 22.2366C14.1646 22.6075 14.0873 22.6391 13.8528 22.5148C13.5921 22.3767 13.4171 22.1868 13.4135 22.0382C13.4126 21.9965 13.7285 21.4772 14.1155 20.884C14.5665 20.1928 14.8946 19.8056 15.0291 19.8056C15.1641 19.8056 15.4559 20.1534 15.8485 20.7823Z" fill="#6d6d91"/>
</svg>
