<svg width="17" height="16" viewBox="0 0 17 16" fill="none" xmlns="http://www.w3.org/2000/svg">
<path d="M10.2277 14.1171L3.67789 8.6491C3.5868 8.58 3.51293 8.49075 3.46208 8.38834C3.41123 8.28593 3.38477 8.17314 3.38477 8.0588C3.38477 7.94446 3.41123 7.83167 3.46208 7.72927C3.51293 7.62686 3.5868 7.53761 3.67789 7.4685C3.87921 7.3102 4.12789 7.22415 4.38399 7.22415C4.64009 7.22415 4.88877 7.3102 5.09009 7.4685L11.6363 12.9358C11.7278 13.0047 11.802 13.0937 11.8533 13.196C11.9045 13.2984 11.9314 13.4112 11.9317 13.5256C11.932 13.64 11.9059 13.753 11.8552 13.8556C11.8046 13.9583 11.7309 14.0478 11.6399 14.1171C11.4386 14.2754 11.1899 14.3615 10.9338 14.3615C10.6777 14.3615 10.429 14.2754 10.2277 14.1171Z" fill="#F5F5F5"/>
<path d="M11.6399 3.06591L5.09291 8.53112C4.89159 8.68942 4.64291 8.77548 4.38681 8.77548C4.13071 8.77548 3.88203 8.68942 3.68071 8.53112C3.59006 8.46193 3.5166 8.37274 3.46606 8.27051C3.41552 8.16827 3.38927 8.05575 3.38933 7.94171C3.3894 7.82766 3.41579 7.71518 3.46646 7.613C3.51712 7.51083 3.59068 7.42173 3.68142 7.35264L10.2277 1.88107C10.429 1.72278 10.6777 1.63672 10.9338 1.63672C11.1899 1.63672 11.4385 1.72278 11.6399 1.88107C11.7318 1.9501 11.8063 2.03956 11.8577 2.14238C11.9091 2.2452 11.9358 2.35856 11.9358 2.47349C11.9358 2.58842 11.9091 2.70178 11.8577 2.8046C11.8063 2.90742 11.7318 2.99688 11.6399 3.06591Z" fill="#F5F5F5"/>
</svg>
