<svg width="54" height="54" viewBox="0 0 54 54" fill="none" xmlns="http://www.w3.org/2000/svg">
<path d="M34.9679 19.8692C34.5128 19.4142 33.7977 19.4142 33.3427 19.8692L18.7159 34.496C18.2609 34.9511 18.2609 35.6661 18.7159 36.1212C19.171 36.5762 19.8861 36.5762 20.3411 36.1212L34.9679 21.4944C35.4229 21.0394 35.4229 20.3243 34.9679 19.8692Z" fill="#9F9FB7"/>
<path d="M36.5931 18.2454C36.4878 18.1375 36.3612 18.0528 36.2212 17.9969C36.0813 17.9409 35.9311 17.9148 35.7805 17.9203L24.4041 17.9203C23.7541 17.9203 23.2503 18.4241 23.2503 19.0742C23.2503 19.7243 23.7541 20.2281 24.4041 20.2281L34.6429 20.2281L34.6429 30.4668C34.6429 31.1169 35.1467 31.6207 35.7968 31.6207C36.4468 31.6207 36.9507 31.1169 36.9507 30.4668L36.9507 19.0905C36.9507 18.7654 36.8206 18.4729 36.6256 18.2779L36.5931 18.2454Z" fill="#9F9FB7"/>
<circle cx="27.8172" cy="26.3924" r="24.8202" stroke="#9F9FB7" stroke-width="1.3789"/>
</svg>
