<svg width="19" height="18" viewBox="0 0 19 18" fill="none" xmlns="http://www.w3.org/2000/svg">
<path fill-rule="evenodd" clip-rule="evenodd" d="M3.125 9.00093C3.12578 5.48109 5.97983 2.62891 9.5 2.62891C13.0384 2.62891 15.875 5.23894 15.875 8.92659C15.875 11.0696 14.8048 11.6474 14.1982 11.6474C13.8048 11.6474 13.4957 11.528 13.283 11.3073C13.0696 11.0859 12.8829 10.6893 12.8829 9.99574V5.62177H11.7579V6.33047C11.0808 5.66283 10.151 5.25078 9.125 5.25078C7.05393 5.25078 5.375 6.92971 5.375 9.00078C5.375 11.0718 7.05393 12.7508 9.125 12.7508C10.2878 12.7508 11.327 12.2215 12.0148 11.3908C12.1298 11.6575 12.2829 11.8908 12.473 12.088C12.945 12.5778 13.5749 12.7724 14.1982 12.7724C15.6247 12.7724 17 11.4717 17 8.92659C17 4.58137 13.6228 1.50391 9.5 1.50391C5.35894 1.50391 2.00092 4.85928 2 9.00068C1.99908 13.1331 5.16262 16.5008 9.5 16.5008H13.25V15.3758H9.5C5.80339 15.3758 3.12422 12.5315 3.125 9.00093ZM11.75 9.00078C11.75 10.4505 10.5747 11.6258 9.125 11.6258C7.67525 11.6258 6.5 10.4505 6.5 9.00078C6.5 7.55103 7.67525 6.37578 9.125 6.37578C10.5747 6.37578 11.75 7.55103 11.75 9.00078Z" fill="#FBBF24"/>
</svg>
