<svg width="18" height="18" viewBox="0 0 18 18" fill="none" xmlns="http://www.w3.org/2000/svg">
    <path opacity="0.75"
        d="M6.37796 17.9983C5.78343 18.0147 5.19141 17.9148 4.63515 17.7043C4.08043 17.4979 3.58796 17.1526 3.20483 16.7015C2.8217 16.2504 2.56072 15.7085 2.44687 15.1277C2.33363 14.6268 2.27589 14.1116 2.19415 13.6024C2.08966 12.9525 1.98492 12.3026 1.87993 11.6527C1.72995 10.7114 1.57996 9.77002 1.42998 8.82867C1.37748 8.50622 1.32499 8.18452 1.27324 7.86207C1.26895 7.84082 1.26645 7.81924 1.26574 7.79758C1.26706 7.78278 1.26322 7.76798 1.25489 7.75569C1.24655 7.74339 1.23423 7.73435 1.22 7.73009C0.929436 7.6147 0.673611 7.42622 0.477317 7.1829C0.281023 6.93958 0.150919 6.64968 0.0996136 6.3413C-0.0265438 5.82466 -0.0329564 5.28603 0.0808655 4.76654C0.153509 4.41481 0.318407 4.08874 0.558647 3.82176C0.798888 3.55478 1.10582 3.35651 1.44797 3.24727C1.57574 3.20575 1.70963 3.18622 1.84393 3.18953C2.1859 3.18953 2.52786 3.18953 2.86983 3.18953C2.8957 3.19107 2.92158 3.18643 2.94531 3.176C2.96904 3.16557 2.98995 3.14965 3.00631 3.12954C3.86772 2.18169 4.72914 1.23433 5.59055 0.287478C5.65735 0.202288 5.74182 0.132572 5.83813 0.0831239C5.93444 0.0336755 6.04032 0.00566649 6.14849 0.00102201C6.28197 -0.00637227 6.4146 0.0264878 6.52919 0.0953449C6.64378 0.164202 6.73505 0.265882 6.79117 0.387213C6.85815 0.509181 6.88614 0.648739 6.8714 0.7871C6.85665 0.925461 6.79986 1.05598 6.70868 1.16109C6.5287 1.38606 6.32922 1.58928 6.13649 1.80225L4.91562 3.14529C4.89827 3.15862 4.88586 3.17735 4.88037 3.19853C7.77557 3.20853 10.6683 3.20853 13.5585 3.19853C13.5585 3.16404 13.5315 3.15054 13.5157 3.13254C12.9488 2.50864 12.3821 1.88548 11.8157 1.26308C11.6843 1.13449 11.6 0.965441 11.5764 0.783152C11.5614 0.644243 11.5877 0.503983 11.652 0.379932C11.7162 0.255882 11.8157 0.153554 11.9379 0.085759C12.0613 0.0188669 12.202 -0.00932579 12.3416 0.00485167C12.4812 0.0190291 12.6134 0.0749199 12.7208 0.165247C12.7681 0.205502 12.8127 0.24884 12.8543 0.294977C13.7167 1.24183 14.5781 2.18919 15.4385 3.13704C15.4575 3.1607 15.4817 3.17951 15.5094 3.1919C15.537 3.20429 15.5673 3.20991 15.5975 3.20828C15.6883 3.20828 15.779 3.20828 15.8712 3.20828C15.9965 3.20828 16.1225 3.20828 16.2462 3.20828C16.5926 3.18635 16.9364 3.28107 17.2226 3.47734C17.5089 3.67361 17.7211 3.96011 17.8255 4.29111C17.9433 4.62845 18.0017 4.98366 17.998 5.34095C18.0153 5.80672 17.9198 6.26977 17.7198 6.69075C17.4663 7.21337 17.0193 7.6168 16.4734 7.81557C16.4542 7.82015 16.4368 7.83038 16.4234 7.84495C16.41 7.85952 16.4013 7.87776 16.3984 7.89731C16.2399 8.76868 16.08 9.63904 15.9185 10.5084C15.713 11.6235 15.5098 12.7386 15.3005 13.8529C15.2061 14.3568 15.1356 14.866 14.9961 15.3609C14.826 16.0316 14.4823 16.6456 13.9994 17.1411C13.5568 17.5958 12.9772 17.8927 12.3496 17.9863C12.2578 17.9969 12.1653 18.0009 12.0729 17.9983H6.37796ZM2.72284 7.99629C2.77234 8.28125 2.81733 8.56771 2.86308 8.85491L3.34078 11.832C3.49576 12.7938 3.6515 13.7562 3.80798 14.719C3.85224 15.032 3.96818 15.3305 4.14678 15.5913C4.32538 15.8521 4.56181 16.0681 4.83762 16.2225C5.25163 16.4555 5.72079 16.5726 6.19573 16.5615C8.16653 16.566 10.1378 16.566 12.1096 16.5615C12.1499 16.5625 12.1901 16.559 12.2296 16.551C12.5996 16.467 12.9278 16.2544 13.1558 15.9511C13.4231 15.6023 13.605 15.1958 13.6867 14.764C13.8457 14.0209 13.9694 13.2702 14.1082 12.5234C14.3431 11.265 14.5756 10.0065 14.8056 8.74768C14.8528 8.49497 14.8986 8.24076 14.9466 7.9873C14.9563 7.9363 14.9466 7.91231 14.8911 7.92131C14.8786 7.92219 14.8661 7.92219 14.8536 7.92131H2.77834C2.72809 7.92656 2.71234 7.9378 2.72284 7.99629ZM1.71495 4.6953C1.58724 4.78445 1.4976 4.91824 1.46372 5.07024C1.39683 5.40291 1.4058 5.74637 1.48997 6.07509C1.50612 6.16641 1.55009 6.25051 1.61586 6.31588C1.68164 6.38125 1.76601 6.4247 1.85743 6.44028C2.06563 6.48247 2.27806 6.50009 2.49037 6.49278H15.815C15.9062 6.49363 15.9963 6.47227 16.0775 6.43054C16.1907 6.37186 16.2896 6.28907 16.3674 6.18801C16.4451 6.08696 16.4997 5.97008 16.5274 5.84563C16.5899 5.57917 16.6003 5.30316 16.5582 5.03275C16.5459 4.92589 16.5154 4.82192 16.4682 4.7253C16.4568 4.69574 16.4359 4.67087 16.4086 4.65468C16.3814 4.6385 16.3496 4.63194 16.3182 4.63606C16.2357 4.64131 16.1525 4.63606 16.07 4.63606H1.88743C1.82488 4.63569 1.76407 4.65658 1.71495 4.6953ZM6.93966 14.3298C6.808 14.2913 6.69105 14.2139 6.60408 14.1078C6.51711 14.0017 6.46418 13.8718 6.45221 13.7352C6.44374 13.667 6.44024 13.5984 6.44171 13.5297C6.44171 13.0563 6.44171 12.5836 6.44171 12.1117V10.6794C6.4396 10.5869 6.44892 10.4944 6.46946 10.4042C6.50844 10.2435 6.60301 10.1018 6.73642 10.0042C6.86984 9.90651 7.0335 9.85919 7.19844 9.8706C7.36339 9.882 7.51898 9.95138 7.63768 10.0665C7.75639 10.1815 7.83056 10.3349 7.84706 10.4994C7.85416 10.5571 7.85766 10.6152 7.85756 10.6734C7.85756 11.6362 7.85756 12.5991 7.85756 13.5619C7.87117 13.7637 7.80704 13.9631 7.67833 14.1191C7.61619 14.1953 7.53815 14.257 7.44968 14.2998C7.36121 14.3427 7.26443 14.3657 7.16613 14.3673C7.08918 14.3664 7.01282 14.3537 6.93966 14.3298ZM10.843 14.3471C10.7002 14.314 10.5712 14.2373 10.4739 14.1277C10.3767 14.0181 10.3159 13.8809 10.3001 13.7352C10.293 13.6754 10.2894 13.6153 10.2896 13.5552C10.2896 12.5958 10.2896 11.637 10.2896 10.6786C10.2875 10.5864 10.2968 10.4942 10.3173 10.4042C10.3545 10.2415 10.4486 10.0974 10.5826 9.99786C10.7166 9.89836 10.8818 9.84999 11.0483 9.86148C11.2149 9.87297 11.3718 9.94355 11.4909 10.0605C11.61 10.1775 11.6834 10.3331 11.6979 10.4994C11.7052 10.5679 11.7085 10.6368 11.7077 10.7056C11.7077 11.1736 11.7077 11.6422 11.7077 12.1117V13.5687C11.7151 13.7349 11.6731 13.8995 11.5869 14.0419C11.5236 14.1404 11.4366 14.2214 11.3339 14.2777C11.2312 14.3341 11.1161 14.3638 10.999 14.3643C10.9465 14.3645 10.8942 14.3587 10.843 14.3471Z"
        fill="#ECECEC" />
</svg>