<svg width="26" height="26" viewBox="0 0 26 26" fill="none" xmlns="http://www.w3.org/2000/svg">
<path d="M7.16667 9.39243C7.16667 7.86739 7.78125 6.40481 8.87521 5.32645C9.96917 4.24809 11.4529 3.64227 13 3.64227C14.5471 3.64227 16.0308 4.24809 17.1248 5.32645C18.2188 6.40481 18.8333 7.86739 18.8333 9.39243C18.8333 9.61029 18.9211 9.81923 19.0774 9.97328C19.2337 10.1273 19.4457 10.2139 19.6667 10.2139C19.8877 10.2139 20.0996 10.1273 20.2559 9.97328C20.4122 9.81923 20.5 9.61029 20.5 9.39243C20.4999 8.1316 20.1727 6.89176 19.5494 5.79074C18.9262 4.68972 18.0277 3.7641 16.9392 3.10188C15.8508 2.43965 14.6087 2.06282 13.3309 2.0072C12.053 1.95158 10.782 2.21902 9.63863 2.78409C8.49523 3.34917 7.51743 4.19311 6.79817 5.2357C6.07891 6.27829 5.6421 7.48487 5.52925 8.74078C5.4164 9.99668 5.63126 11.2602 6.15341 12.4111C6.67557 13.5621 7.48766 14.5623 8.5125 15.3167C9.39131 15.9638 10.4034 16.4131 11.4775 16.6327C11.6267 16.9626 11.882 17.2348 12.204 17.4073C12.5259 17.5797 12.8965 17.6428 13.2585 17.5867C13.6205 17.5306 13.9536 17.3585 14.2064 17.097C14.4591 16.8355 14.6174 16.4992 14.6568 16.1401C14.6961 15.781 14.6143 15.4192 14.424 15.1105C14.2337 14.8018 13.9456 14.5636 13.6041 14.4326C13.2626 14.3017 12.8869 14.2853 12.535 14.386C12.1831 14.4867 11.8747 14.6989 11.6575 14.9898C10.3788 14.6917 9.23969 13.9768 8.42463 12.9609C7.60956 11.945 7.16631 10.6876 7.16667 9.39243ZM8 9.39243C8.00033 8.4857 8.25439 7.59664 8.73424 6.82306C9.21408 6.04949 9.90111 5.42138 10.7197 5.00787C11.5383 4.59435 12.4568 4.41145 13.3741 4.47929C14.2913 4.54712 15.1718 4.86307 15.9187 5.39236C16.6656 5.92165 17.2498 6.64377 17.6072 7.47927C17.9646 8.31476 18.0812 9.23124 17.9443 10.1279C17.8074 11.0245 17.4222 11.8665 16.8311 12.5613C16.24 13.256 15.466 13.7766 14.5942 14.0657C14.1458 13.6998 13.582 13.4997 13 13.4997C12.3942 13.4997 11.8392 13.7124 11.4058 14.0657C10.4131 13.7365 9.55035 13.1083 8.93926 12.2698C8.32817 11.4313 7.99963 10.4249 8 9.39243ZM13 6.10662C12.1159 6.10662 11.2681 6.4528 10.643 7.06901C10.0179 7.68522 9.66667 8.52098 9.66667 9.39243C9.66667 10.2639 10.0179 11.0996 10.643 11.7158C11.2681 12.332 12.1159 12.6782 13 12.6782C13.8841 12.6782 14.7319 12.332 15.357 11.7158C15.9821 11.0996 16.3333 10.2639 16.3333 9.39243C16.3333 8.52098 15.9821 7.68522 15.357 7.06901C14.7319 6.4528 13.8841 6.10662 13 6.10662ZM5.91667 15.1426H7.04917C7.71906 15.8172 8.50191 16.373 9.36333 16.7855H5.91667C5.58515 16.7855 5.2672 16.9153 5.03278 17.1464C4.79836 17.3775 4.66667 17.6909 4.66667 18.0177V18.4284C4.66667 19.6384 5.45 20.8509 6.96583 21.8013C8.47167 22.7459 10.6025 23.3571 12.9992 23.3571C15.3975 23.3571 17.5283 22.7459 19.0342 21.8013C20.5508 20.8517 21.3333 19.6376 21.3333 18.4284V18.0177C21.3333 17.6909 21.2016 17.3775 20.9672 17.1464C20.7328 16.9153 20.4149 16.7855 20.0833 16.7855H15.3583C15.549 16.254 15.549 15.6741 15.3583 15.1426H20.0833C20.8569 15.1426 21.5987 15.4455 22.1457 15.9847C22.6927 16.5239 23 17.2551 23 18.0177V18.4284C23 20.3941 21.7308 22.0567 19.9292 23.1871C18.1175 24.3239 15.665 25 13 25C10.335 25 7.88333 24.3239 6.07083 23.1871C4.26917 22.0567 3 20.3941 3 18.4284V18.0177C3 17.2551 3.30729 16.5239 3.85427 15.9847C4.40125 15.4455 5.14312 15.1426 5.91667 15.1426Z" fill="#9F9FB7"/>
</svg>
