<svg width="80" height="80" viewBox="0 0 80 80" fill="none" xmlns="http://www.w3.org/2000/svg">
<circle cx="40" cy="40" r="39.5" stroke="#323254"/>
<path d="M46.4286 45C46.0876 45 45.7606 45.1355 45.5194 45.3766C45.2783 45.6177 45.1429 45.9447 45.1429 46.2857C45.1429 46.6267 45.2783 46.9537 45.5194 47.1949C45.7606 47.436 46.0876 47.5714 46.4286 47.5714H51.5714C51.9124 47.5714 52.2394 47.436 52.4806 47.1949C52.7217 46.9537 52.8571 46.6267 52.8571 46.2857C52.8571 45.9447 52.7217 45.6177 52.4806 45.3766C52.2394 45.1355 51.9124 45 51.5714 45H46.4286ZM22 33.4286C22 31.7236 22.6773 30.0885 23.8829 28.8829C25.0885 27.6773 26.7236 27 28.4286 27H51.5714C53.2764 27 54.9115 27.6773 56.1171 28.8829C57.3227 30.0885 58 31.7236 58 33.4286V46.2857C58 47.9907 57.3227 49.6258 56.1171 50.8314C54.9115 52.037 53.2764 52.7143 51.5714 52.7143H28.4286C26.7236 52.7143 25.0885 52.037 23.8829 50.8314C22.6773 49.6258 22 47.9907 22 46.2857V33.4286ZM55.4286 34.7143V33.4286C55.4286 32.4056 55.0222 31.4245 54.2988 30.7012C53.5755 29.9778 52.5944 29.5714 51.5714 29.5714H28.4286C27.4056 29.5714 26.4245 29.9778 25.7012 30.7012C24.9778 31.4245 24.5714 32.4056 24.5714 33.4286V34.7143H55.4286ZM24.5714 37.2857V46.2857C24.5714 47.3087 24.9778 48.2898 25.7012 49.0131C26.4245 49.7365 27.4056 50.1429 28.4286 50.1429H51.5714C52.5944 50.1429 53.5755 49.7365 54.2988 49.0131C55.0222 48.2898 55.4286 47.3087 55.4286 46.2857V37.2857H24.5714Z" fill="#A3A6C4"/>
</svg>
