<svg width="26" height="27" viewBox="0 0 26 27" fill="none" xmlns="http://www.w3.org/2000/svg">
<path d="M2.93527 2C2.68722 2 2.44933 2.10097 2.27393 2.28069C2.09854 2.46041 2 2.70417 2 2.95833C2 3.2125 2.09854 3.45625 2.27393 3.63598C2.44933 3.8157 2.68722 3.91667 2.93527 3.91667H3.39542C3.5985 3.91703 3.79595 3.98511 3.95794 4.11063C4.11992 4.23615 4.23763 4.41229 4.29327 4.61242L7.25993 15.2499C7.42772 15.8502 7.7817 16.3782 8.26834 16.7541C8.75498 17.13 9.34782 17.3333 9.95724 17.3333H18.5037C19.0646 17.3334 19.6126 17.1613 20.077 16.8391C20.5415 16.5169 20.9011 16.0595 21.1093 15.5259L23.8665 8.46108C23.9798 8.17037 24.022 7.85564 23.9892 7.5444C23.9564 7.23316 23.8498 6.93487 23.6785 6.67563C23.5072 6.41638 23.2766 6.20407 23.0068 6.05724C22.737 5.91041 22.4362 5.83353 22.1307 5.83333H6.57906L6.09085 4.08533C5.92349 3.48498 5.56994 2.95677 5.08365 2.58055C4.59735 2.20433 4.00475 2.00055 3.39542 2H2.93527ZM9.05938 14.7209L7.11403 7.75H22.1307L19.3716 14.8148C19.3021 14.9925 19.1823 15.1447 19.0276 15.252C18.873 15.3593 18.6905 15.4166 18.5037 15.4167H9.95724C9.75415 15.4163 9.5567 15.3482 9.39472 15.2227C9.23274 15.0972 9.11503 14.921 9.05938 14.7209ZM10.4174 25C10.7859 25 11.1507 24.9256 11.4911 24.7812C11.8315 24.6367 12.1408 24.4249 12.4014 24.1579C12.6619 23.891 12.8686 23.574 13.0096 23.2252C13.1506 22.8764 13.2232 22.5026 13.2232 22.125C13.2232 21.7474 13.1506 21.3736 13.0096 21.0248C12.8686 20.676 12.6619 20.359 12.4014 20.0921C12.1408 19.8251 11.8315 19.6133 11.4911 19.4688C11.1507 19.3244 10.7859 19.25 10.4174 19.25C9.67324 19.25 8.95958 19.5529 8.43339 20.0921C7.9072 20.6312 7.61159 21.3625 7.61159 22.125C7.61159 22.8875 7.9072 23.6188 8.43339 24.1579C8.95958 24.6971 9.67324 25 10.4174 25ZM10.4174 23.0833C10.1693 23.0833 9.93145 22.9824 9.75606 22.8026C9.58066 22.6229 9.48212 22.3792 9.48212 22.125C9.48212 21.8708 9.58066 21.6271 9.75606 21.4474C9.93145 21.2676 10.1693 21.1667 10.4174 21.1667C10.6654 21.1667 10.9033 21.2676 11.0787 21.4474C11.2541 21.6271 11.3527 21.8708 11.3527 22.125C11.3527 22.3792 11.2541 22.6229 11.0787 22.8026C10.9033 22.9824 10.6654 23.0833 10.4174 23.0833ZM17.8995 25C18.268 25 18.6328 24.9256 18.9732 24.7812C19.3137 24.6367 19.623 24.4249 19.8835 24.1579C20.1441 23.891 20.3507 23.574 20.4917 23.2252C20.6327 22.8764 20.7053 22.5026 20.7053 22.125C20.7053 21.7474 20.6327 21.3736 20.4917 21.0248C20.3507 20.676 20.1441 20.359 19.8835 20.0921C19.623 19.8251 19.3137 19.6133 18.9732 19.4688C18.6328 19.3244 18.268 19.25 17.8995 19.25C17.1554 19.25 16.4417 19.5529 15.9155 20.0921C15.3893 20.6312 15.0937 21.3625 15.0937 22.125C15.0937 22.8875 15.3893 23.6188 15.9155 24.1579C16.4417 24.6971 17.1554 25 17.8995 25ZM17.8995 23.0833C17.6515 23.0833 17.4136 22.9824 17.2382 22.8026C17.0628 22.6229 16.9642 22.3792 16.9642 22.125C16.9642 21.8708 17.0628 21.6271 17.2382 21.4474C17.4136 21.2676 17.6515 21.1667 17.8995 21.1667C18.1476 21.1667 18.3854 21.2676 18.5608 21.4474C18.7362 21.6271 18.8348 21.8708 18.8348 22.125C18.8348 22.3792 18.7362 22.6229 18.5608 22.8026C18.3854 22.9824 18.1476 23.0833 17.8995 23.0833Z" fill="#9F9FB7"/>
</svg>
