<svg width="26" height="26" viewBox="0 0 26 26" fill="none" xmlns="http://www.w3.org/2000/svg">
<path d="M8.50989 1.49757C8.98763 1.34477 9.56092 1.15378 9.77113 1.11558C9.98134 1.05828 11.0515 1.02008 12.1598 1.00098C13.2682 1.00098 14.5486 1.07738 15.0263 1.19198C15.5041 1.28747 16.5169 1.68857 17.3004 2.08967C18.1794 2.52896 19.1731 3.23566 19.8993 3.94235C20.549 4.57265 21.3899 5.60404 21.772 6.23434C22.1542 6.86463 22.5747 7.81962 22.7084 8.33532C22.9548 9.28518 23.2936 10.0938 23.3582 11.1048C23.4728 12.6328 23.3215 12.8795 23.0333 13.1676C22.7451 13.4556 22.3797 13.5453 22.1351 13.4159C21.8905 13.2865 21.7147 13.053 21.7147 12.4418C21.7147 11.3922 21.2838 9.81263 20.9503 8.81282C20.7401 8.18252 20.4917 7.55223 20.377 7.43763C20.2815 7.30393 19.842 6.73093 19.4216 6.19614C19.0011 5.64224 18.2559 4.87825 17.7399 4.51535C17.243 4.15245 16.7462 3.86595 16.6506 3.86595C16.5551 3.86595 16.3258 3.73226 16.1729 3.56036C16.02 3.38846 15.313 3.14016 14.5868 2.98736C13.8797 2.83456 12.8096 2.70086 12.2172 2.70086C11.6057 2.70086 10.5928 2.83456 9.96223 2.96826C9.33161 3.12106 8.29968 3.54126 7.66906 3.90415C7.03844 4.28615 6.12117 4.99285 5.62432 5.50854C5.14657 6.00514 4.47773 6.88373 4.15287 7.43763C3.828 7.97242 3.4267 8.96562 3.27382 9.61501C3.12094 10.2835 2.98717 11.334 2.98717 11.9643C2.98717 12.5946 3.12094 13.6642 3.29293 14.3518C3.44581 15.0394 3.6369 15.6315 3.71334 15.6888C3.78978 15.7461 4.0191 16.109 4.22931 16.5292C4.43951 16.9303 4.91726 17.6178 5.28034 18.038C5.64343 18.4582 6.40782 19.1458 6.94289 19.5469C7.49707 19.948 8.47167 20.4446 9.10229 20.6547C10.0736 20.9783 11.6813 21.4187 12.7331 21.4187C13.3447 21.4187 13.5691 21.5772 13.7077 21.8389C13.8463 22.1006 13.7349 22.4692 13.4891 22.7149C13.2433 22.9606 12.9242 23.1759 11.3955 23.0613C10.3952 22.9975 8.7201 22.4692 8.7201 22.4692C8.7201 22.4692 7.45885 21.9917 6.71357 21.5715C5.96829 21.1322 4.85993 20.2536 4.22931 19.6042C3.52225 18.8784 2.81519 17.8852 2.37566 17.0067C1.97436 16.2236 1.55394 15.1158 1.43928 14.5428C1.30552 13.9125 1.2673 12.5946 1.32463 11.2958C1.38196 9.90151 1.53483 8.75552 1.74504 8.14432C1.93614 7.62863 2.14635 7.15113 2.20367 7.09383C2.261 7.03653 2.52854 6.57813 2.79608 6.08154C3.06361 5.56584 3.828 4.61085 4.51595 3.98055C5.2039 3.33116 6.10206 2.62446 6.52248 2.41437C6.94289 2.20427 7.3633 1.97507 7.45885 1.91777C7.5544 1.86047 8.03215 1.66947 8.50989 1.49757Z" fill="white"/>
<path d="M8.56772 7.01735C8.72773 6.90532 9.19834 6.55896 9.67608 6.34886C10.4214 5.98596 10.8938 5.8961 12.5372 5.9534C13.8558 5.9916 14.5491 6.15786 14.9695 6.38706C15.3135 6.55896 16.0205 7.11285 16.5365 7.60945C17.0524 8.12515 17.6257 8.87004 17.7786 9.29024C17.9506 9.71043 18.1035 10.2643 18.1035 10.5317C18.1035 10.7991 17.9697 11.1429 17.7977 11.2957C17.5493 11.5058 17.3582 11.544 16.9951 11.3912C16.6702 11.2575 16.4027 10.9328 16.2307 10.4362C16.097 10.016 15.6001 9.30934 15.1606 8.87004C14.7211 8.43074 14.0522 7.97235 13.6891 7.87685C13.326 7.76225 12.6572 7.66675 12.2177 7.66675C11.759 7.66675 11.0329 7.81955 10.5933 7.99145C10.1538 8.18244 9.5232 8.60264 9.21745 8.92734C8.89258 9.23294 8.47217 9.86323 8.30018 10.3025C8.10908 10.7418 7.9562 11.4676 7.9562 11.9069C7.9562 12.3653 8.05175 13.0338 8.16641 13.3967C8.28107 13.7596 8.7397 14.4281 9.17923 14.8674C9.59964 15.3258 10.3258 15.8224 10.7653 15.9752C11.2813 16.1471 11.6253 16.4145 11.6826 16.6437C11.7399 16.8538 11.7399 17.1976 11.6826 17.4077C11.6062 17.6942 11.4342 17.7897 10.9755 17.7897C10.6316 17.7897 10.0009 17.656 9.58053 17.4841C9.16012 17.3122 8.37662 16.7201 7.86066 16.1853C7.24914 15.555 6.7714 14.8674 6.56119 14.2562C6.3701 13.7023 6.23633 12.7473 6.23633 11.9642C6.23633 11.2193 6.33188 10.3216 6.42743 9.95873C6.54208 9.59583 6.92428 8.83184 7.28736 8.27794C7.68075 7.69851 7.96584 7.47674 8.56772 7.01735Z" fill="white"/>
<path fill-rule="evenodd" clip-rule="evenodd" d="M13.1157 11.3528C13.4787 11.4101 14.5107 11.7157 15.4088 12.0404C16.307 12.3842 17.2816 12.7662 17.6064 12.8999C17.9313 13.0336 18.6575 13.3201 19.2308 13.5111C19.8041 13.7021 20.32 13.9313 20.3774 13.9886C20.4347 14.0459 21.0844 14.2942 21.8106 14.5425C22.5368 14.7908 23.6069 15.1919 24.1611 15.4402C25.0592 15.8413 25.1739 15.9559 25.2695 16.6053C25.3459 17.0828 25.2695 17.4457 25.0784 17.7513C24.8681 18.0187 24.314 18.3052 23.3776 18.5726C22.6323 18.7827 21.7533 19.0692 21.4284 19.2219C21.1035 19.3556 20.664 19.5275 20.4156 19.5848C20.1863 19.6421 19.9378 19.8904 19.8805 20.1387C19.8232 20.3679 19.6512 20.8072 19.5174 21.1319C19.3645 21.4566 19.0779 22.3352 18.8677 23.0992C18.6002 24.016 18.3135 24.5699 18.0269 24.78C17.7402 24.971 17.3771 25.0474 16.8803 24.971C16.2497 24.8755 16.135 24.7609 15.7337 23.8632C15.4853 23.3093 15.084 22.2397 14.8355 21.5139C14.5871 20.7881 14.2814 20.005 14.1667 19.7949C14.0329 19.5848 13.7654 18.9355 13.5934 18.3625C13.4023 17.7895 13.1921 17.2165 13.1157 17.121C13.0392 17.0255 12.7717 16.3188 12.5424 15.593C12.2939 14.8672 11.9882 14.0459 11.8353 13.7785C11.7015 13.5111 11.5678 13.0527 11.5487 12.7471C11.5295 12.3651 11.6633 12.0213 11.9882 11.7157C12.3513 11.3719 12.5997 11.2764 13.1157 11.3528ZM14.2814 14.9245C14.5107 15.4975 14.8929 16.5289 15.1604 17.2165C15.4088 17.9041 15.7337 18.7063 15.8675 19.031C16.0203 19.3556 16.3261 20.2151 16.5745 20.9791C16.8229 21.724 17.0714 22.3161 17.1287 22.297C17.186 22.2588 17.2816 21.9914 17.358 21.6858C17.4153 21.3802 17.5873 20.8836 17.7211 20.5589C17.8549 20.2342 18.0842 19.6039 18.2562 19.1265C18.5237 18.3816 18.6766 18.2288 19.4219 17.9614C19.8996 17.7895 20.5302 17.5603 20.8551 17.4266C21.18 17.2929 21.6768 17.121 21.9826 17.0637C22.2883 16.9873 22.5559 16.8918 22.5941 16.8345C22.6132 16.7772 22.0208 16.5289 21.2755 16.2806C20.5111 16.0323 19.6512 15.7267 19.3263 15.5739C19.0015 15.4402 18.1988 15.1155 17.5109 14.8672C16.8229 14.5998 15.791 14.2178 15.2177 13.9886C14.6444 13.7594 14.1094 13.5875 14.0138 13.5875C13.9374 13.5875 13.88 13.6448 13.88 13.7403C13.88 13.8167 14.052 14.3515 14.2814 14.9245Z" fill="white"/>
</svg>
