<svg width="20" height="20" viewBox="0 0 20 20" fill="none" xmlns="http://www.w3.org/2000/svg">
<path d="M10 14.4688C9.83333 14.4688 9.67708 14.4429 9.53125 14.3913C9.38541 14.3396 9.25 14.2508 9.125 14.125L4.625 9.625C4.375 9.375 4.255 9.08334 4.265 8.75C4.275 8.41667 4.395 8.125 4.625 7.875C4.875 7.625 5.17208 7.495 5.51625 7.485C5.86042 7.475 6.15708 7.59459 6.40625 7.84375L8.75 10.1875V1.25C8.75 0.895838 8.87 0.599171 9.11 0.360004C9.35 0.120838 9.64666 0.000837644 10 4.31034e-06C10.3533 -0.000829023 10.6504 0.119171 10.8912 0.360004C11.1321 0.600838 11.2517 0.897504 11.25 1.25V10.1875L13.5937 7.84375C13.8437 7.59375 14.1408 7.47375 14.485 7.48375C14.8292 7.49375 15.1258 7.62417 15.375 7.875C15.6042 8.125 15.7242 8.41667 15.735 8.75C15.7458 9.08334 15.6258 9.375 15.375 9.625L10.875 14.125C10.75 14.25 10.6146 14.3388 10.4687 14.3913C10.3229 14.4438 10.1667 14.4696 10 14.4688ZM2.5 20C1.8125 20 1.22417 19.7554 0.735 19.2663C0.245833 18.7771 0.000833333 18.1883 0 17.5V15C0 14.6458 0.12 14.3492 0.36 14.11C0.6 13.8708 0.896667 13.7508 1.25 13.75C1.60333 13.7492 1.90042 13.8692 2.14125 14.11C2.38208 14.3508 2.50167 14.6475 2.5 15V17.5H17.5V15C17.5 14.6458 17.62 14.3492 17.86 14.11C18.1 13.8708 18.3967 13.7508 18.75 13.75C19.1033 13.7492 19.4004 13.8692 19.6412 14.11C19.8821 14.3508 20.0017 14.6475 20 15V17.5C20 18.1875 19.7554 18.7763 19.2662 19.2663C18.7771 19.7563 18.1883 20.0008 17.5 20H2.5Z" fill="#272742"/>
</svg>
