<svg width="15" height="11" viewBox="0 0 15 11" fill="none" xmlns="http://www.w3.org/2000/svg">
<path d="M13.3333 0.0820312H1.66667C1.22464 0.0820313 0.800716 0.257626 0.488155 0.570187C0.175595 0.882747 0 1.30667 0 1.7487L0 9.2487C0 9.69073 0.175595 10.1146 0.488155 10.4272C0.800716 10.7398 1.22464 10.9154 1.66667 10.9154H13.3333C13.7754 10.9154 14.1993 10.7398 14.5118 10.4272C14.8244 10.1146 15 9.69073 15 9.2487V1.7487C15 1.30667 14.8244 0.882747 14.5118 0.570187C14.1993 0.257626 13.7754 0.0820313 13.3333 0.0820312Z" fill="#003399"/>
<path d="M7.72484 2.0401L8.07859 1.78302H7.6415L7.50609 1.36719L7.37109 1.78302H6.934L7.28775 2.0401L7.15234 2.45594L7.50609 2.19885L7.85984 2.45594L7.72484 2.0401ZM7.72484 9.26219L8.07859 9.0051H7.6415L7.50609 8.58927L7.37109 9.0051H6.934L7.28775 9.26219L7.15234 9.67802L7.50609 9.42094L7.85984 9.67802L7.72484 9.26219ZM4.114 5.65094L4.46775 5.39385H4.03025L3.89525 4.97802L3.75984 5.39385H3.32275L3.6765 5.65094L3.5415 6.06677L3.89525 5.80969L4.249 6.06677L4.114 5.65094ZM4.57525 3.86552L4.929 3.60844H4.4915L4.3565 3.1926L4.2215 3.60844H3.784L4.13775 3.86552L4.00275 4.28135L4.3565 4.02427L4.71025 4.28135L4.57525 3.86552ZM4.57525 7.45677L4.929 7.19969H4.4915L4.3565 6.78385L4.2215 7.19969H3.784L4.13775 7.45677L4.00275 7.8726L4.3565 7.61552L4.71025 7.8726L4.57525 7.45677ZM5.91942 2.52385L6.27317 2.26677H5.83567L5.70067 1.85094L5.56567 2.26677H5.12817L5.48192 2.52385L5.34692 2.93969L5.70067 2.6826L6.05442 2.93969L5.91942 2.52385ZM5.91942 8.80177L6.27317 8.54469H5.83567L5.70067 8.12885L5.56567 8.54469H5.12817L5.48192 8.80177L5.34692 9.2176L5.70067 8.96094L6.05442 9.2176L5.91942 8.80177ZM10.8865 5.65094L10.5328 5.39385H10.9703L11.1053 4.97802L11.2407 5.39385H11.6778L11.324 5.65094L11.459 6.06677L11.1053 5.80969L10.7515 6.06677L10.8865 5.65094ZM10.4253 3.86552L10.0715 3.60844H10.509L10.644 3.1926L10.779 3.60844H11.2165L10.8628 3.86552L10.9978 4.28135L10.644 4.02427L10.2903 4.28135L10.4253 3.86552ZM10.4253 7.45677L10.0715 7.19969H10.509L10.644 6.78385L10.779 7.19969H11.2165L10.8628 7.45677L10.9978 7.8726L10.644 7.61552L10.2903 7.8726L10.4253 7.45677ZM9.08109 2.52385L8.72734 2.26677H9.16484L9.29984 1.85094L9.43484 2.26677H9.87234L9.51859 2.52385L9.65359 2.93969L9.29984 2.6826L8.94609 2.93969L9.08109 2.52385ZM9.08109 8.80177L8.72734 8.54469H9.16484L9.29984 8.12885L9.43484 8.54469H9.87234L9.51859 8.80177L9.65359 9.2176L9.29984 8.96094L8.94609 9.2176L9.08109 8.80177Z" fill="#FFCC00"/>
</svg>
