<svg width="80" height="80" viewBox="0 0 80 80" fill="none" xmlns="http://www.w3.org/2000/svg">
<circle cx="40" cy="40" r="39.5" stroke="#323254"/>
<path d="M39.1969 23.217C39.872 22.9644 40.6097 22.9314 41.3047 23.1229L41.599 23.217L53.5751 27.708C54.1824 27.9357 54.7124 28.3313 55.1035 28.8487C55.4945 29.3661 55.7305 29.9839 55.7839 30.6302L55.7959 30.9125V40.088C55.7958 42.8603 55.0472 45.5812 53.6292 47.9635C52.2112 50.3457 50.1763 52.301 47.7393 53.6228L47.2842 53.8606L41.5459 56.7297C41.23 56.8875 40.8849 56.9783 40.5322 56.9966C40.1795 57.0148 39.8268 56.9601 39.4963 56.8358L39.2499 56.7297L33.5116 53.8606C31.0319 52.6207 28.9329 50.7343 27.4363 48.4005C25.9397 46.0667 25.1009 43.3721 25.0086 40.6012L25 40.088V30.9125C25 30.2643 25.1841 29.6294 25.5309 29.0818C25.8778 28.5342 26.373 28.0964 26.959 27.8192L27.2207 27.708L39.1969 23.217ZM40.3979 26.4215L28.4218 30.9125V40.088C28.4218 42.2351 28.9991 44.3428 30.0932 46.1903C31.1873 48.0378 32.758 49.5572 34.6408 50.5894L35.0429 50.7998L40.3979 53.4773L45.753 50.7998C47.6738 49.8396 49.3012 48.3805 50.4645 46.5754C51.6279 44.7703 52.2845 42.6856 52.3655 40.5396L52.3741 40.088V30.9125L40.3979 26.4215ZM46.2714 34.2248C46.5793 33.9179 46.9924 33.7398 47.4269 33.7265C47.8614 33.7133 48.2846 33.8659 48.6106 34.1534C48.9367 34.4408 49.1411 34.8416 49.1823 35.2744C49.2235 35.7071 49.0985 36.1393 48.8326 36.4831L48.6906 36.644L39.7358 45.6004C39.4096 45.9266 38.975 46.1216 38.5145 46.1484C38.0541 46.1752 37.5998 46.0319 37.2379 45.7459L37.0737 45.6004L32.9607 41.4875C32.6506 41.1803 32.4697 40.7662 32.4549 40.33C32.4401 39.8937 32.5925 39.4683 32.8811 39.1409C33.1697 38.8134 33.5725 38.6086 34.0071 38.5684C34.4418 38.5282 34.8753 38.6556 35.2191 38.9246L35.3799 39.0666L38.4048 42.0914L46.2714 34.2248Z" fill="#A3A6C4"/>
</svg>
