<svg width="19" height="20" viewBox="0 0 19 20" fill="none" xmlns="http://www.w3.org/2000/svg">
<path fill-rule="evenodd" clip-rule="evenodd" d="M9.49984 2.8763C5.56481 2.8763 2.37484 6.06627 2.37484 10.0013C2.37484 13.9363 5.56481 17.1263 9.49984 17.1263C13.4349 17.1263 16.6248 13.9363 16.6248 10.0013C16.6248 6.06627 13.4349 2.8763 9.49984 2.8763ZM0.791504 10.0013C0.791504 5.19182 4.69036 1.29297 9.49984 1.29297C14.3093 1.29297 18.2082 5.19182 18.2082 10.0013C18.2082 14.8108 14.3093 18.7096 9.49984 18.7096C4.69036 18.7096 0.791504 14.8108 0.791504 10.0013ZM8.70817 6.83464C8.70817 6.39741 9.06261 6.04297 9.49984 6.04297H9.50775C9.94498 6.04297 10.2994 6.39741 10.2994 6.83464C10.2994 7.27186 9.94498 7.6263 9.50775 7.6263H9.49984C9.06261 7.6263 8.70817 7.27186 8.70817 6.83464ZM9.49984 9.20963C9.93706 9.20963 10.2915 9.56408 10.2915 10.0013V13.168C10.2915 13.6052 9.93706 13.9596 9.49984 13.9596C9.06261 13.9596 8.70817 13.6052 8.70817 13.168V10.0013C8.70817 9.56408 9.06261 9.20963 9.49984 9.20963Z" fill="white"/>
</svg>
