<svg width="37" height="34" viewBox="0 0 37 34" fill="none" xmlns="http://www.w3.org/2000/svg">
<path d="M13.9064 0.500001C11.5931 0.499324 9.31712 1.08227 7.28902 2.19486C5.26092 3.30745 3.5463 4.91374 2.30388 6.86501C1.06147 8.81628 0.331417 11.0495 0.181322 13.3578C0.0312265 15.6662 0.465935 17.9751 1.4452 20.0708C0.9837 21.9808 0.567417 23.9015 0.196705 25.8312C0.14028 26.1223 0.155595 26.4227 0.241324 26.7066C0.327054 26.9904 0.48062 27.2491 0.688748 27.4603C0.896877 27.6715 1.15331 27.8289 1.43587 27.9187C1.71844 28.0086 2.01865 28.0283 2.31054 27.9762C3.4527 27.7745 5.93687 27.3162 8.24321 26.7845C10.1125 27.6275 12.1468 28.0416 14.1969 27.9967C16.247 27.9517 18.2611 27.4488 20.0917 26.5247C21.9223 25.6007 23.5231 24.2789 24.7767 22.6561C26.0304 21.0333 26.9052 19.1507 27.3371 17.1461C27.769 15.1415 27.7471 13.0656 27.2729 11.0706C26.7987 9.07553 25.8843 7.21181 24.5967 5.61589C23.309 4.01996 21.6807 2.73226 19.831 1.84707C17.9813 0.961875 15.957 0.501618 13.9064 0.500001ZM13.8367 29.8333C16.3766 32.1955 19.7182 33.5059 23.1867 33.5C25.1387 33.5013 27.0686 33.0869 28.848 32.2845C30.7602 32.7318 32.8557 33.1792 34.1885 33.4578C34.5638 33.5366 34.9528 33.5195 35.3197 33.4081C35.6865 33.2966 36.0194 33.0945 36.2875 32.8204C36.5556 32.5463 36.7502 32.209 36.8534 31.8398C36.9566 31.4705 36.9651 31.0812 36.878 30.7078C36.581 29.419 36.1117 27.417 35.6479 25.569C36.4627 23.8236 36.9019 21.9265 36.9369 20.0006C36.972 18.0746 36.6022 16.1628 35.8514 14.3889C35.1006 12.615 33.9857 11.0185 32.5787 9.70292C31.1717 8.3873 29.5041 7.38185 27.6839 6.75167C28.3352 7.93356 28.8283 9.19592 29.1505 10.5063C30.6957 11.5033 31.9663 12.8718 32.8461 14.4866C33.7259 16.1015 34.1868 17.9111 34.1867 19.75C34.19 21.5022 33.7719 23.2295 32.9675 24.7862L32.7292 25.25L32.8575 25.756C33.2755 27.3968 33.7137 29.2393 34.0345 30.6143C32.3555 30.2626 30.6809 29.8897 29.0112 29.496L28.5272 29.3823L28.0817 29.6042C26.6077 30.3375 24.9467 30.75 23.1867 30.75C21.3134 30.7514 19.4707 30.2743 17.8334 29.364C16.527 29.6925 15.1836 29.8503 13.8367 29.8333Z" fill="#DCDCDE"/>
</svg>
