<svg width="18" height="18" viewBox="0 0 18 18" fill="none" xmlns="http://www.w3.org/2000/svg">
<path fill-rule="evenodd" clip-rule="evenodd" d="M2.625 5.60419V12.75C2.625 13.3713 3.12868 13.875 3.75 13.875H14.25C14.8713 13.875 15.375 13.3713 15.375 12.75V5.60419L9.37931 11.0794C9.16448 11.2756 8.83551 11.2756 8.62069 11.0794L2.625 5.60419ZM15.3265 4.125H2.67352L9 9.9023L15.3265 4.125ZM1.5 3.75C1.5 3.33579 1.83579 3 2.25 3H15.75C16.1642 3 16.5 3.33579 16.5 3.75V12.75C16.5 13.9926 15.4926 15 14.25 15H3.75C2.50736 15 1.5 13.9926 1.5 12.75V3.75Z" fill="#FBBF24"/>
</svg>
