<svg width="19" height="18" viewBox="0 0 19 18" fill="none" xmlns="http://www.w3.org/2000/svg">
<path fill-rule="evenodd" clip-rule="evenodd" d="M10.25 1.5C12.0696 1.5 13.5864 2.79591 13.928 4.51512C13.9521 4.51753 13.9761 4.52023 14 4.52321C15.4799 4.70775 16.625 5.97014 16.625 7.5V9C16.625 10.5299 15.4799 11.7923 14 11.9768C13.9854 11.9786 13.9708 11.9803 13.9561 11.9819C13.7351 13.4169 12.7005 14.5835 11.3383 14.9959C11.1662 15.8538 10.4086 16.5 9.5 16.5C8.46447 16.5 7.625 15.6605 7.625 14.625C7.625 13.5895 8.46447 12.75 9.5 12.75C10.2595 12.75 10.9135 13.2016 11.2082 13.8509C12.1788 13.4702 12.8676 12.5281 12.875 11.4243V10.875V5.625L12.875 5.25C12.875 3.80025 11.6997 2.625 10.25 2.625H8.75C7.30025 2.625 6.125 3.80025 6.125 5.25V5.625V10.875V12H5.375C5.248 12 5.12285 11.9921 5 11.9768C3.52013 11.7923 2.375 10.5299 2.375 9V7.5C2.375 5.97014 3.52013 4.70775 5 4.52321C5.02391 4.52023 5.0479 4.51753 5.07198 4.51512C5.41357 2.79591 6.93044 1.5 8.75 1.5H10.25ZM5 10.8375C4.14416 10.6638 3.5 9.90711 3.5 9V7.5C3.5 6.59289 4.14416 5.83623 5 5.66251V10.8375ZM9.5 15.375C9.91421 15.375 10.25 15.0392 10.25 14.625C10.25 14.2108 9.91421 13.875 9.5 13.875C9.08579 13.875 8.75 14.2108 8.75 14.625C8.75 15.0392 9.08579 15.375 9.5 15.375ZM15.5 7.5C15.5 6.59289 14.8558 5.83623 14 5.66251V10.8375C14.8558 10.6638 15.5 9.90711 15.5 9V7.5Z" fill="#FBBF24"/>
</svg>
