<svg width="20" height="20" viewBox="0 0 20 20" fill="none" xmlns="http://www.w3.org/2000/svg">
<path d="M19.5261 8.72038C19.842 8.72038 20 8.87836 20 9.19431V11.1848C20 11.5008 19.842 11.6588 19.5261 11.6588H11.6588C11.5324 11.6588 11.4692 11.722 11.4692 11.8483V19.5261C11.4692 19.842 11.3112 20 10.9953 20H9.00474C8.68878 20 8.53081 19.842 8.53081 19.5261V11.8483C8.53081 11.722 8.46761 11.6588 8.34123 11.6588H0.473934C0.157978 11.6588 0 11.5008 0 11.1848V9.19431C0 8.87836 0.157978 8.72038 0.473934 8.72038H8.34123C8.46761 8.72038 8.53081 8.65719 8.53081 8.53081V0.473933C8.53081 0.157978 8.68878 0 9.00474 0H10.9953C11.3112 0 11.4692 0.157978 11.4692 0.473933V8.53081C11.4692 8.65719 11.5324 8.72038 11.6588 8.72038H19.5261Z" fill="#858FA3"/>
</svg>
