<svg width="80" height="80" viewBox="0 0 80 80" fill="none" xmlns="http://www.w3.org/2000/svg">
<circle cx="40" cy="40" r="39.5" stroke="#323254"/>
<path d="M36.5 49L43.5 41.8M36.5 41.8H36.5157M43.4843 49H43.5M40 58C43.713 58 47.274 56.4829 49.8995 53.7823C52.525 51.0818 54 47.4191 54 43.6C54 32.8 40 22 40 22C39.321 26.4766 38.656 28.8796 36.5 32.8C34.4 31.801 33.875 31 33 28.75C29.5 32.8 26 38.2 26 43.6C26 47.4191 27.475 51.0818 30.1005 53.7823C32.726 56.4829 36.287 58 40 58Z" stroke="#A3A6C4" stroke-width="3.25" stroke-linecap="round" stroke-linejoin="round"/>
</svg>
