<svg width="63" height="62" viewBox="0 0 63 62" fill="none" xmlns="http://www.w3.org/2000/svg">
<path d="M19.0235 53.7308C18.6495 53.7303 18.2805 53.6428 17.9436 53.4747C17.6067 53.3066 17.3104 53.0622 17.0767 52.7595C16.843 52.4568 16.6777 52.1036 16.5932 51.7259C16.5087 51.3481 16.5071 50.9556 16.5884 50.5771L19.6122 36.8263L9.3554 27.5461C8.98707 27.2143 8.72108 26.7774 8.59057 26.2899C8.46006 25.8024 8.47081 25.2858 8.62147 24.8045C8.77214 24.3233 9.05608 23.8987 9.43786 23.5837C9.81964 23.2687 10.2824 23.0772 10.7684 23.033L24.3395 21.7614L29.7042 8.80018C29.8978 8.33491 30.2186 7.93862 30.6269 7.6602C31.0353 7.38178 31.5132 7.2334 32.0019 7.2334C32.4906 7.2334 32.9685 7.38178 33.3768 7.6602C33.7852 7.93862 34.1059 8.33491 34.2996 8.80018L39.6659 21.7631L53.2338 23.0346C53.7195 23.0795 54.1817 23.2714 54.563 23.5865C54.9443 23.9017 55.2279 24.3261 55.3784 24.807C55.529 25.2879 55.54 25.8041 55.4099 26.2914C55.2798 26.7787 55.0144 27.2156 54.6468 27.5477L44.39 36.8278L47.4138 50.5788C47.5206 51.0728 47.4853 51.5885 47.3122 52.062C47.1392 52.5354 46.8362 52.946 46.4405 53.2426C46.0448 53.5393 45.5739 53.709 45.0861 53.731C44.5983 53.7529 44.1151 53.6261 43.6961 53.3661L32.0027 46.1422L20.2999 53.3661C19.9123 53.6052 19.4698 53.7317 19.0188 53.7324L19.0235 53.7308ZM32.0074 43.0325C32.4584 43.0332 32.9009 43.1597 33.2885 43.3989L44.3319 50.2157L41.4776 37.2381C41.3767 36.7847 41.3964 36.3113 41.5347 35.8686C41.6729 35.4258 41.9245 35.0303 42.2626 34.7244L51.9464 25.9555L39.1337 24.7556C38.6837 24.7141 38.253 24.5469 37.8875 24.2716C37.522 23.9964 37.2353 23.6234 37.0581 23.1925L32.0011 10.9623L26.9379 23.1958C26.7609 23.6252 26.4748 23.9967 26.11 24.2705C25.7453 24.5444 25.3157 24.7103 24.867 24.7506L12.0526 25.9538L21.7365 34.7211C22.0751 35.027 22.3271 35.4228 22.4654 35.8659C22.6037 36.309 22.6231 36.7828 22.5215 37.2365L19.6703 50.2157L30.7137 43.3989C31.1013 43.1597 31.5438 43.0332 31.9949 43.0325H32.0074Z" fill="#9F9FB7"/>
</svg>
