<svg width="80" height="80" viewBox="0 0 80 80" fill="none" xmlns="http://www.w3.org/2000/svg">
<circle cx="40" cy="40" r="39.5" stroke="#323254"/>
<path d="M29.7308 40.5009V33.4204C29.7518 32.0287 30.0473 30.6547 30.6002 29.3773C31.1532 28.0999 31.9528 26.9442 32.9532 25.9763C33.9536 25.0085 35.1352 24.2475 36.4302 23.7371C37.7252 23.2267 39.1082 22.9767 40.5 23.0017C41.8918 22.9767 43.2748 23.2267 44.5698 23.7371C45.8648 24.2475 47.0464 25.0085 48.0468 25.9763C49.0472 26.9442 49.8468 28.0999 50.3998 29.3773C50.9527 30.6547 51.2482 32.0287 51.2692 33.4204V40.5009M45.8846 54.6348C47.3127 54.6348 48.6823 54.0675 49.6921 53.0577C50.7019 52.048 51.2692 50.6784 51.2692 49.2504V43.193M45.8846 54.6348C45.8846 55.5273 45.53 56.3832 44.8989 57.0144C44.2678 57.6455 43.4118 58 42.5192 58H38.4808C37.5882 58 36.7322 57.6455 36.1011 57.0144C35.47 56.3832 35.1154 55.5273 35.1154 54.6348C35.1154 53.7423 35.47 52.8863 36.1011 52.2552C36.7322 51.6241 37.5882 51.2696 38.4808 51.2696H42.5192C43.4118 51.2696 44.2678 51.6241 44.8989 52.2552C45.53 52.8863 45.8846 53.7423 45.8846 54.6348ZM25.6923 36.4626H28.3846C28.7416 36.4626 29.084 36.6044 29.3365 36.8568C29.5889 37.1093 29.7308 37.4517 29.7308 37.8087V45.8852C29.7308 46.2422 29.5889 46.5846 29.3365 46.837C29.084 47.0895 28.7416 47.2313 28.3846 47.2313H25.6923C24.9783 47.2313 24.2935 46.9477 23.7886 46.4428C23.2837 45.9379 23 45.2531 23 44.5391V39.1548C23 38.4408 23.2837 37.756 23.7886 37.2511C24.2935 36.7462 24.9783 36.4626 25.6923 36.4626ZM55.3077 47.2313H52.6154C52.2584 47.2313 51.916 47.0895 51.6635 46.837C51.4111 46.5846 51.2692 46.2422 51.2692 45.8852V37.8087C51.2692 37.4517 51.4111 37.1093 51.6635 36.8568C51.916 36.6044 52.2584 36.4626 52.6154 36.4626H55.3077C56.0217 36.4626 56.7065 36.7462 57.2114 37.2511C57.7163 37.756 58 38.4408 58 39.1548V44.5391C58 45.2531 57.7163 45.9379 57.2114 46.4428C56.7065 46.9477 56.0217 47.2313 55.3077 47.2313Z" stroke="#A3A6C4" stroke-width="3.5" stroke-linecap="round" stroke-linejoin="round"/>
</svg>
