<svg width="16" height="16" viewBox="0 0 16 16" fill="none" xmlns="http://www.w3.org/2000/svg">
<path fill-rule="evenodd" clip-rule="evenodd" d="M13.5586 3.14328L11.5874 12.6708L7.87419 8.98921L10.1587 6.7242L10.6766 6.21068L11.0275 5.86277L11.092 5.79892C11.3682 5.52503 11.0314 5.08043 10.693 5.27218L10.614 5.31689L10.1841 5.56046L9.54951 5.92L6.79949 7.47802L6.23069 7.80028L2.93865 6.25421L13.5586 3.14328ZM6.38928 8.97955C6.45825 9.01194 6.52116 9.05592 6.57527 9.10956L11.3199 13.8137C11.6957 14.1863 12.3349 13.9936 12.4422 13.4754L14.6503 2.80245C14.7522 2.30989 14.2928 1.8862 13.8101 2.0276L1.81283 5.54197C1.22371 5.71454 1.1612 6.52424 1.71684 6.78519L6.38928 8.97955Z" fill="#FBBF24"/>
</svg>
