<svg width="16" height="16" viewBox="0 0 16 16" fill="none" xmlns="http://www.w3.org/2000/svg">
<path fill-rule="evenodd" clip-rule="evenodd" d="M13.5581 3.14328L11.587 12.6708L7.8737 8.98921L10.1582 6.7242L10.6762 6.21068L11.0271 5.86277L11.0915 5.79892C11.3677 5.52503 11.0309 5.08043 10.6925 5.27218L10.6136 5.31689L10.1836 5.56046L9.54902 5.92L6.799 7.47802L6.2302 7.80028L2.93816 6.25421L13.5581 3.14328ZM6.38879 8.97955C6.45776 9.01194 6.52067 9.05592 6.57478 9.10956L11.3194 13.8137C11.6952 14.1863 12.3345 13.9936 12.4417 13.4754L14.6498 2.80245C14.7517 2.30989 14.2923 1.8862 13.8096 2.0276L1.81234 5.54197C1.22322 5.71454 1.16071 6.52424 1.71635 6.78519L6.38879 8.97955Z" fill="white"/>
</svg>
