<svg width="14" height="12" viewBox="0 0 14 12" fill="none" xmlns="http://www.w3.org/2000/svg">
<path fill-rule="evenodd" clip-rule="evenodd" d="M12.5585 1.14328L10.5873 10.6708L6.87404 6.98921L9.15855 4.7242L9.6765 4.21068L10.0274 3.86277L10.0918 3.79892C10.368 3.52503 10.0313 3.08043 9.6928 3.27218L9.61389 3.31689L9.18397 3.56046L8.54936 3.92L5.79933 5.47802L5.23053 5.80028L1.93849 4.25421L12.5585 1.14328ZM5.38913 6.97955C5.4581 7.01194 5.521 7.05592 5.57511 7.10956L10.3198 11.8137C10.6956 12.1863 11.3348 11.9936 11.442 11.4754L13.6502 0.80245C13.7521 0.309889 13.2926 -0.113802 12.8099 0.0275986L0.812672 3.54197C0.223558 3.71454 0.161046 4.52424 0.71669 4.78519L5.38913 6.97955Z" fill="#FBBF24"/>
</svg>
