<svg width="63" height="62" viewBox="0 0 63 62" fill="none" xmlns="http://www.w3.org/2000/svg">
<path d="M14.2562 42.3774C11.4631 39.0365 9.82173 34.9497 9.55825 30.6798C9.55825 30.5614 9.52039 30.443 9.5 30.3233V28.1912C9.52638 28.0848 9.54584 27.9769 9.55825 27.8682C9.59623 27.1253 9.68869 26.3858 9.83494 25.6553C10.4439 22.1495 11.9815 18.8511 14.3013 16.0746C16.6211 13.298 19.6457 11.1358 23.0871 9.79388C25.5877 8.75629 28.2834 8.21751 31.0092 8.21052C31.3005 8.21052 31.3835 8.12418 31.3675 7.85263C31.3427 7.38611 31.3675 6.91821 31.3515 6.46005C31.3319 6.22531 31.4099 5.99267 31.5684 5.8125L31.9165 5.8125C33.3301 6.91821 34.7412 8.02531 36.1499 9.1338C36.2791 9.20695 36.3865 9.31072 36.4616 9.4351C36.5367 9.55948 36.577 9.70027 36.5786 9.84388C36.5802 9.98749 36.543 10.1291 36.4708 10.255C36.3985 10.3808 36.2935 10.4868 36.1659 10.5626C34.8863 11.6154 33.6014 12.664 32.3111 13.7084C32.2581 13.7512 32.2027 13.7912 32.1451 13.8282C31.7592 14.0761 31.4534 13.9438 31.4301 13.5037C31.4039 13.0038 31.3922 12.5024 31.4126 12.0067C31.4243 11.6794 31.3398 11.5708 30.9757 11.5889C28.2975 11.6452 25.6657 12.2687 23.2697 13.4144C20.8737 14.5601 18.7731 16.1996 17.1192 18.2148C14.2908 21.5096 12.8409 25.6906 13.0504 29.9487C13.2101 33.9283 14.7672 37.7405 17.4703 40.7703C20.1734 43.8001 23.865 45.8708 27.9496 46.6485C32.2334 47.4656 36.6816 46.7883 40.4881 44.7392C40.6905 44.6132 40.9176 44.5281 41.1556 44.4889C41.3936 44.4497 41.6374 44.4574 41.8722 44.5114C42.107 44.5655 42.3278 44.6648 42.521 44.8032C42.7143 44.9417 42.876 45.1164 42.9962 45.3166C43.1165 45.5169 43.1927 45.7385 43.2203 45.9679C43.2479 46.1973 43.2262 46.4297 43.1567 46.6508C43.0871 46.8719 42.9711 47.0772 42.8158 47.254C42.6604 47.4307 42.469 47.5754 42.2532 47.679C40.4995 48.6239 38.6176 49.3324 36.6611 49.7845C34.9572 50.1751 33.2113 50.3732 31.4592 50.375C28.1452 50.3771 24.8741 49.6582 21.8936 48.2726C18.9131 46.887 16.3014 44.871 14.2562 42.3774ZM45.2196 44.3869C44.9662 44.2764 44.7435 44.1104 44.5697 43.9023C44.3958 43.6942 44.2757 43.4498 44.219 43.1891C44.1622 42.9283 44.1705 42.6584 44.2432 42.4013C44.3158 42.1441 44.4508 41.907 44.6371 41.709C44.9152 41.4138 45.1948 41.1157 45.4832 40.8303C45.7922 40.494 46.2282 40.2889 46.6953 40.26C47.1625 40.2311 47.6225 40.3809 47.9742 40.6764C48.3258 40.9719 48.5403 41.3888 48.5705 41.8355C48.6007 42.2822 48.4441 42.7221 48.1351 43.0584C47.8304 43.4217 47.5 43.7647 47.1463 44.0847C46.8368 44.3812 46.4192 44.5515 45.9812 44.5596C45.7174 44.5544 45.4578 44.4955 45.2196 44.3869ZM35.0679 42.4805L20.6391 37.7736C20.1847 37.6246 20.1134 37.4867 20.2663 37.0522C20.4352 36.5704 20.6056 36.0885 20.7818 35.6067C20.9129 35.253 21.073 35.1611 21.4444 35.3031C21.7357 35.4215 21.8347 35.3268 21.9221 35.0636C22.1827 34.2712 22.4798 33.49 22.7492 32.6962C22.9054 32.1585 23.2158 31.6733 23.6453 31.2956C24.0748 30.9178 24.6064 30.6625 25.1798 30.5586C26.5326 30.269 27.8826 29.9737 29.2369 29.6924C29.3414 29.6755 29.439 29.6317 29.5193 29.5657C29.5996 29.4997 29.6596 29.414 29.6928 29.3178C29.801 29.1287 29.8381 28.9097 29.7978 28.6976C29.7576 28.4854 29.6423 28.2929 29.4714 28.1522C28.5539 27.1663 27.7122 26.1191 26.8079 25.1234C26.4984 24.8118 26.2863 24.4237 26.1955 24.0029C26.1046 23.5821 26.1387 23.1453 26.2938 22.7421C26.6783 21.628 27.0642 20.5139 27.469 19.3999C27.5593 19.1548 27.5214 19.0559 27.2579 18.9821C26.8414 18.8623 26.7758 18.7036 26.9113 18.3081C27.0831 17.8137 27.2535 17.3208 27.4341 16.8278C27.5622 16.4783 27.7253 16.4017 28.0996 16.5242C32.9539 18.1025 37.8081 19.6844 42.6624 21.2701C43.0294 21.3885 43.1153 21.5556 42.9959 21.9079C42.8226 22.412 42.6434 22.9147 42.46 23.4189C42.3289 23.7754 42.1687 23.8631 41.7988 23.7224C41.5075 23.611 41.4129 23.6918 41.3241 23.962C41.0037 24.9089 40.6513 25.8489 40.325 26.7945C40.1661 27.3329 39.8529 27.8181 39.4209 28.1953C38.9888 28.5725 38.4551 28.8268 37.88 28.9293C36.5373 29.2148 35.1975 29.5114 33.8548 29.7843C33.7453 29.8033 33.6433 29.8506 33.5599 29.9211C33.4765 29.9915 33.4148 30.0824 33.3815 30.184C33.2784 30.3708 33.2447 30.5855 33.286 30.793C33.3273 31.0005 33.4411 31.1884 33.6087 31.3259C34.5378 32.3286 35.3999 33.3897 36.313 34.4049C36.6061 34.7079 36.8061 35.0823 36.8912 35.4869C36.9762 35.8915 36.9429 36.3108 36.795 36.6985C36.463 37.6909 36.1183 38.6783 35.7611 39.6605C35.681 39.8847 35.7276 39.9683 35.9533 40.0365C36.4164 40.1758 36.4717 40.315 36.3174 40.7565C36.1441 41.2508 35.9679 41.7438 35.796 42.2368C35.7721 42.3306 35.7161 42.4141 35.637 42.4741C35.5579 42.5341 35.4601 42.5672 35.3591 42.5682C35.2674 42.5404 35.1655 42.5153 35.0679 42.4833V42.4805ZM28.8467 19.8107C28.4957 20.8551 28.136 21.8996 27.7443 22.9273C27.6337 23.1694 27.6024 23.4379 27.6543 23.6974C27.7063 23.9568 27.8392 24.1952 28.0355 24.3811C29.1175 25.5662 30.1486 26.7945 31.2058 28.0018C31.3172 28.1153 31.3925 28.2568 31.4229 28.4097C31.4533 28.5626 31.4376 28.7206 31.3777 28.8652C31.1961 29.3564 31.0223 29.8493 30.8563 30.3442C30.8104 30.4986 30.7185 30.6369 30.5918 30.7423C30.4651 30.8476 30.3091 30.9154 30.1427 30.9374C28.6064 31.2549 27.0846 31.5975 25.5438 31.9122C25.2111 31.9652 24.9012 32.108 24.6507 32.3239C24.4001 32.5398 24.2194 32.8198 24.1298 33.1307C23.8516 33.9551 23.556 34.7698 23.256 35.583C23.1774 35.7989 23.2211 35.8783 23.4497 35.9535C26.97 37.0926 30.4889 38.2378 34.0063 39.3889L34.1912 39.4502C34.3368 39.4502 34.3368 39.3513 34.3674 39.2692C34.7082 38.3055 35.0431 37.3377 35.3868 36.3754C35.4664 36.1793 35.4848 35.9654 35.4398 35.7595C35.3949 35.5536 35.2884 35.3646 35.1334 35.2154C34.0412 33.9955 32.9825 32.7477 31.899 31.5209C31.7742 31.3968 31.6903 31.2403 31.6576 31.071C31.625 30.9016 31.6452 30.7269 31.7155 30.5684C31.8815 30.1506 32.0505 29.7175 32.1728 29.2802C32.2184 29.081 32.3283 28.9005 32.4869 28.7641C32.6454 28.6277 32.8448 28.5423 33.0568 28.5199C34.5393 28.226 36.0116 27.8904 37.4897 27.5855C37.8397 27.5312 38.1658 27.381 38.4284 27.1531C38.691 26.9252 38.8789 26.6294 38.9693 26.3015C39.2168 25.5398 39.5023 24.7892 39.7644 24.0302C39.8576 23.76 40.1037 23.4523 39.9974 23.2253C39.8809 22.976 39.4615 22.983 39.1731 22.8883C35.8635 21.8039 32.5529 20.7224 29.2413 19.6436C29.1793 19.6203 29.114 19.6062 29.0476 19.6018C28.9588 19.599 28.8991 19.6561 28.8467 19.8107ZM48.189 36.8461C48.3521 36.42 48.5399 36.0022 48.7453 35.5928C48.9416 35.2116 49.2813 34.9154 49.6963 34.7636C50.1113 34.6117 50.5709 34.6154 50.9832 34.7739C51.3955 34.9323 51.7299 35.2339 51.9196 35.6182C52.1092 36.0024 52.14 36.441 52.0059 36.8461C51.838 37.3171 51.6341 37.7755 51.3957 38.2178C51.2698 38.4725 51.0742 38.69 50.8296 38.8471C50.5851 39.0043 50.3006 39.0953 50.0064 39.1104C49.7113 39.1306 49.4157 39.0804 49.1459 38.9644C48.8761 38.8484 48.6406 38.6703 48.4605 38.4459C48.2805 38.2215 48.1614 37.9579 48.114 37.6787C48.0666 37.3995 48.0923 37.1134 48.189 36.8461ZM51.4787 32.7394C51.0228 32.7062 50.599 32.5025 50.2991 32.1725C49.9992 31.8425 49.8475 31.4127 49.8768 30.9764C49.8913 30.567 49.9219 30.1575 49.9525 29.7481C49.9783 29.358 50.1462 28.9888 50.4272 28.7049C50.7082 28.4209 51.0844 28.2401 51.4903 28.194C51.9139 28.1458 52.3415 28.2449 52.695 28.4732C53.0484 28.7015 53.3042 29.0438 53.4155 29.4376C53.4417 29.5351 53.4709 29.6284 53.5 29.7161V30.1172C53.4356 30.4988 53.3957 30.8839 53.3806 31.2702C53.3276 31.6747 53.1225 32.0469 52.8037 32.3175C52.4848 32.5881 52.0739 32.7385 51.6476 32.7408C51.5923 32.7445 51.536 32.7436 51.4787 32.738V32.7394ZM49.5739 25.3587C49.2916 24.7178 49.0926 24.0462 48.9812 23.359C48.9735 22.9655 49.1104 22.582 49.3679 22.2751C49.6254 21.9681 49.9873 21.7573 50.3906 21.6791C50.7939 21.6009 51.2131 21.6605 51.5753 21.8473C51.9375 22.0341 52.2197 22.3365 52.3728 22.7017C52.568 23.1867 52.7143 23.6885 52.8097 24.2001C52.8822 24.5896 52.8078 24.991 52.5998 25.333C52.3918 25.6749 52.0637 25.9352 51.6738 26.0675C51.291 26.2014 50.8713 26.2038 50.4869 26.0742C50.1024 25.9446 49.7771 25.6912 49.5666 25.3573L49.5739 25.3587ZM46.9045 19.5099C46.6133 19.1506 46.3351 18.7816 46.0759 18.3958C45.8399 18.0477 45.7471 17.6284 45.8154 17.2187C45.8837 16.8091 46.1083 16.4381 46.4458 16.1775C46.7771 15.9103 47.2014 15.7721 47.6343 15.7901C48.0673 15.8082 48.4774 15.9812 48.7831 16.2749C49.2105 16.713 49.5776 17.2016 49.8753 17.7288C49.9922 17.9323 50.0491 18.1624 50.0399 18.3944C50.0507 18.6221 50.0131 18.8495 49.9295 19.0628C49.8458 19.2762 49.7177 19.4711 49.553 19.6358C49.3883 19.8004 49.1903 19.9314 48.9711 20.0209C48.752 20.1103 48.5161 20.1563 48.2778 20.1561C48.0134 20.1573 47.7522 20.1007 47.5142 19.9907C47.2762 19.8806 47.0677 19.72 46.9045 19.521V19.5099ZM42.6318 15.1428C42.2096 14.8925 41.8013 14.6216 41.4085 14.3309C41.1241 14.1107 40.9183 13.8115 40.8195 13.4746C40.7208 13.1376 40.734 12.7797 40.8573 12.4503C40.9806 12.1208 41.2079 11.8362 41.5078 11.6357C41.8078 11.4352 42.1654 11.3289 42.5313 11.3313C42.5663 11.3313 42.5998 11.3313 42.6362 11.3313C43.6833 11.5736 44.5915 12.1945 45.1701 13.0637C45.313 13.3963 45.341 13.7639 45.2501 14.1128C45.1592 14.4618 44.9541 14.7738 44.6648 15.0035C44.3499 15.2603 43.95 15.4019 43.5361 15.4032C43.215 15.3999 42.9014 15.3096 42.6318 15.1428Z" fill="#9F9FB7"/>
</svg>
