<svg width="94" height="106" viewBox="0 0 94 106" fill="none" xmlns="http://www.w3.org/2000/svg">
<path opacity="0.75" fill-rule="evenodd" clip-rule="evenodd" d="M23.6536 14.1024C24.8575 6.27678 31.591 0.5 39.5087 0.5H54.4906C62.4083 0.5 69.1418 6.27679 70.3457 14.1024L70.9453 17.9998H79.0566H87.833L87.833 18H93.6663V26.75H87.1524L82.283 89.3568C81.5744 98.4679 73.9744 105.5 64.8357 105.5H29.1636C20.025 105.5 12.425 98.4679 11.7163 89.3568L6.84692 26.75H0.333008V18H6.16636L6.16634 17.9998H14.9428H23.054L23.6536 14.1024ZM62.0924 17.9998H31.907L32.3019 15.4329C32.8491 11.8758 35.9098 9.25 39.5087 9.25H54.4906C58.0896 9.25 61.1503 11.8758 61.6975 15.4329L62.0924 17.9998ZM15.6233 26.75L20.44 88.6783C20.7943 93.2338 24.5943 96.7498 29.1636 96.7498H64.8357C69.405 96.7498 73.205 93.2338 73.5594 88.6783L78.376 26.75L15.6233 26.75Z" fill="#4B4B77"/>
</svg>
