<svg width="16" height="12" viewBox="0 0 16 12" fill="none" xmlns="http://www.w3.org/2000/svg">
<path d="M15.1993 1.72309C14.9105 1.25992 14.3791 0.945312 13.7635 0.945312H7.92822V1.72309H15.1993ZM0.425781 8.72309H15.4307V9.50087H0.425781V8.72309ZM7.92822 5.61198H15.4307V6.38976H7.92822V5.61198ZM7.92822 4.05642H15.4307V4.8342H7.92822V4.05642ZM0.425781 7.16753H15.4307V7.94531H0.425781V7.16753ZM2.09299 11.0564H13.7635C14.3791 11.0564 14.9105 10.7418 15.1993 10.2786H0.657107C0.945951 10.7418 1.47737 11.0564 2.09299 11.0564ZM7.92822 2.50087H15.4307V3.27865H7.92822V2.50087Z" fill="#B22334"/>
<path d="M0.454124 9.76449C0.461071 9.80079 0.469268 9.83669 0.478715 9.87221C0.48983 9.9111 0.502612 9.94947 0.517061 9.98732C0.554156 10.088 0.599171 10.1853 0.655856 10.2763L0.657107 10.2782H15.1993L15.2002 10.2767C15.2567 10.1852 15.303 10.0887 15.3385 9.98849C15.3656 9.91539 15.3868 9.84052 15.4019 9.76449C15.419 9.67893 15.4307 9.59104 15.4307 9.50043H0.425781C0.425781 9.59104 0.437452 9.67854 0.454124 9.76449ZM0.425781 7.94488H15.4307V8.72266H0.425781V7.94488ZM0.425781 6.38932V7.1671H15.4307V6.38932H7.92822H0.425781ZM7.92822 4.83377H15.4307V5.61154H7.92822V4.83377ZM7.92822 3.27821H15.4307V4.05599H7.92822V3.27821ZM0.479132 2.12866C0.489552 2.08899 0.50414 2.05127 0.517478 2.01316C0.503096 2.05118 0.490305 2.08971 0.479132 2.12866ZM7.92822 2.50043H15.4307C15.4307 2.40982 15.419 2.32193 15.4019 2.23599C15.3873 2.15981 15.366 2.08488 15.3381 2.01199C15.3025 1.91139 15.256 1.81444 15.1993 1.72266H7.92822V2.50043Z" fill="#EEEEEE"/>
<path d="M7.92822 0.945312H2.09299C1.65082 0.945313 1.22676 1.1092 0.914096 1.40092C0.601433 1.69265 0.425781 2.08831 0.425781 2.50087L0.425781 6.38976H7.92822V0.945312Z" fill="#3C3B6E"/>
<path d="M1.26074 2.00499L1.51833 2.1796L1.41996 2.46154L1.67713 2.28732L1.93471 2.46154L1.83635 2.1796L2.09393 2.00499H1.77549L1.67713 1.72266L1.57918 2.00499H1.26074ZM2.09435 2.78277L2.35193 2.95738L2.25357 3.23932L2.51073 3.0651L2.76832 3.23932L2.66995 2.95738L2.92753 2.78277H2.6091L2.51073 2.50043L2.41278 2.78277H2.09435ZM3.76156 2.78277L4.01914 2.95738L3.92077 3.23932L4.17794 3.0651L4.43553 3.23932L4.33716 2.95738L4.59474 2.78277H4.27631L4.17794 2.50043L4.07999 2.78277H3.76156ZM5.42877 2.78277L5.68635 2.95738L5.58798 3.23932L5.84515 3.0651L6.10273 3.23932L6.00437 2.95738L6.26195 2.78277H5.94352L5.84515 2.50043L5.7472 2.78277H5.42877ZM2.09435 4.33832L2.35193 4.51293L2.25357 4.79488L2.51073 4.62066L2.76832 4.79488L2.66995 4.51293L2.92753 4.33832H2.6091L2.51073 4.05599L2.41278 4.33832H2.09435ZM3.76156 4.33832L4.01914 4.51293L3.92077 4.79488L4.17794 4.62066L4.43553 4.79488L4.33716 4.51293L4.59474 4.33832H4.27631L4.17794 4.05599L4.07999 4.33832H3.76156ZM5.42877 4.33832L5.68635 4.51293L5.58798 4.79488L5.84515 4.62066L6.10273 4.79488L6.00437 4.51293L6.26195 4.33832H5.94352L5.84515 4.05599L5.7472 4.33832H5.42877ZM2.92795 2.00499L3.18554 2.1796L3.08717 2.46154L3.34434 2.28732L3.60192 2.46154L3.50356 2.1796L3.76114 2.00499H3.4427L3.34434 1.72266L3.24639 2.00499H2.92795ZM4.59516 2.00499L4.85274 2.1796L4.75438 2.46154L5.01155 2.28732L5.26913 2.46154L5.17076 2.1796L5.42835 2.00499H5.10991L5.01155 1.72266L4.9136 2.00499H4.59516ZM6.26237 2.00499L6.51995 2.1796L6.42159 2.46154L6.67876 2.28732L6.93634 2.46154L6.83797 2.1796L7.09556 2.00499H6.77712L6.67876 1.72266L6.58081 2.00499H6.26237ZM1.26074 3.56055L1.51833 3.73516L1.41996 4.0171L1.67713 3.84288L1.93471 4.0171L1.83635 3.73516L2.09393 3.56055H1.77549L1.67713 3.27821L1.57918 3.56055H1.26074ZM3.08717 4.0171L3.34434 3.84288L3.60192 4.0171L3.50356 3.73516L3.76114 3.56055H3.4427L3.34434 3.27821L3.24639 3.56055H2.92795L3.18554 3.73516L3.08717 4.0171ZM4.59516 3.56055L4.85274 3.73516L4.75438 4.0171L5.01155 3.84288L5.26913 4.0171L5.17076 3.73516L5.42835 3.56055H5.10991L5.01155 3.27821L4.9136 3.56055H4.59516ZM6.26237 3.56055L6.51995 3.73516L6.42159 4.0171L6.67876 3.84288L6.93634 4.0171L6.83797 3.73516L7.09556 3.56055H6.77712L6.67876 3.27821L6.58081 3.56055H6.26237ZM1.26074 5.1161L1.51833 5.29071L1.41996 5.57266L1.67713 5.39843L1.93471 5.57266L1.83635 5.29071L2.09393 5.1161H1.77549L1.67713 4.83377L1.57918 5.1161H1.26074ZM3.08717 5.57266L3.34434 5.39843L3.60192 5.57266L3.50356 5.29071L3.76114 5.1161H3.4427L3.34434 4.83377L3.24639 5.1161H2.92795L3.18554 5.29071L3.08717 5.57266ZM4.59516 5.1161L4.85274 5.29071L4.75438 5.57266L5.01155 5.39843L5.26913 5.57266L5.17076 5.29071L5.42835 5.1161H5.10991L5.01155 4.83377L4.9136 5.1161H4.59516ZM6.26237 5.1161L6.51995 5.29071L6.42159 5.57266L6.67876 5.39843L6.93634 5.57266L6.83797 5.29071L7.09556 5.1161H6.77712L6.67876 4.83377L6.58081 5.1161H6.26237Z" fill="white"/>
</svg>
