<svg width="20" height="20" viewBox="0 0 20 20" fill="none" xmlns="http://www.w3.org/2000/svg">
<path d="M20 9.9924C19.9151 11.3781 19.7728 12.7582 19.1007 13.9729C18.5038 15.0522 18.2588 16.1478 18.3368 17.3666C18.3957 18.2776 18.2971 18.3651 17.3786 18.3214C16.1945 18.2653 15.1378 18.5101 14.0454 19.0395C11.424 20.3103 8.68625 20.3171 6.05116 19.0778C4.91773 18.5443 3.82126 18.2502 2.5838 18.32C1.74605 18.3679 1.63517 18.2585 1.68034 17.4459C1.75152 16.1889 1.45995 15.0768 0.912402 13.9209C-0.359284 11.2399 -0.281258 8.45902 1.01917 5.80535C1.51471 4.79449 1.71593 3.82057 1.6776 2.73311C1.64064 1.68805 1.69403 1.6265 2.74259 1.67574C3.88423 1.72909 4.89446 1.47603 5.94028 0.969921C8.58769 -0.310407 11.3391 -0.322718 13.9975 0.930253C15.1076 1.45415 16.1822 1.74824 17.3978 1.67574C18.2793 1.6224 18.3875 1.72772 18.3341 2.58264C18.2588 3.8192 18.4778 4.93812 19.1007 6.03925C19.7878 7.24845 19.9192 8.63411 20 9.9924ZM9.99352 1.79885C8.53567 1.83305 7.14215 2.15176 5.89374 2.92735C5.33113 3.27752 4.78084 3.52921 4.10873 3.44987C3.58855 3.38832 3.40512 3.66326 3.45577 4.14202C3.52285 4.76166 3.29424 5.26777 2.98625 5.80398C1.40657 8.55887 1.39425 11.3575 2.94518 14.1261C3.26824 14.7034 3.53106 15.2437 3.45714 15.9139C3.40512 16.3845 3.6351 16.5992 4.09914 16.5472C4.76989 16.472 5.3106 16.7387 5.8869 17.0616C8.63286 18.5991 11.4144 18.5936 14.1563 17.0506C14.7107 16.7387 15.2308 16.472 15.8783 16.5486C16.4327 16.6143 16.6216 16.3298 16.5655 15.8195C16.5012 15.2245 16.7202 14.7362 17.0172 14.2219C18.6051 11.4724 18.6325 8.67378 17.0911 5.9011C16.7585 5.30334 16.4861 4.74251 16.5614 4.049C16.6093 3.61128 16.3875 3.40336 15.955 3.45124C15.2596 3.52784 14.6888 3.28026 14.1043 2.9164C12.8586 2.13945 11.4623 1.82758 9.99352 1.79885Z" fill="#FFBE20"/>
<path d="M8.23169 10.3084C8.79156 8.87764 9.35143 7.44821 9.9113 6.01742C9.9729 6.01331 10.0345 6.00921 10.0961 6.00511C10.6614 7.44684 11.2282 8.88858 11.7935 10.3303C12.1303 8.9474 12.9461 7.69306 12.6285 6.22944C12.5614 5.91893 12.7367 5.87242 12.9653 5.87105C13.74 5.86695 14.5148 5.86421 15.291 5.87105C15.6565 5.87516 15.7003 6.06119 15.4457 6.27594C14.9857 6.66168 14.8967 7.19105 14.7804 7.72999C14.3807 9.57799 13.9687 11.4219 13.547 13.2644C13.4403 13.7322 13.3937 14.1549 13.7866 14.5269C14.0918 14.8156 13.9577 14.9496 13.5922 14.9496C12.8393 14.951 12.0878 14.9524 11.3349 14.9469C11.12 14.9455 10.8572 14.9058 10.9722 14.6131C11.2241 13.9784 10.8832 13.4559 10.7053 12.906C10.5246 12.3466 10.3001 11.8008 9.99891 11.2345C9.6827 12.3384 8.83537 13.2671 9.04891 14.516C9.09135 14.7663 9.07903 14.9346 8.79156 14.9387C7.97161 14.9483 7.15028 14.9537 6.33033 14.9428C5.98263 14.9373 6.00453 14.739 6.20439 14.5584C6.62737 14.1754 6.57946 13.7322 6.46584 13.2398C6.02507 11.3083 5.60208 9.37281 5.18321 7.4359C5.08876 7.00228 4.95461 6.6056 4.60007 6.31014C4.50288 6.22807 4.35778 6.11727 4.45223 5.97228C4.49877 5.90252 4.64935 5.87379 4.75338 5.87379C5.52816 5.86695 6.30295 5.86832 7.0791 5.87379C7.27759 5.87516 7.48155 5.93671 7.3912 6.18977C7.06815 7.08709 7.51577 7.89003 7.68277 8.72443C7.78818 9.25517 7.9456 9.7777 8.07975 10.303C8.1304 10.3043 8.18105 10.3071 8.23169 10.3084Z" fill="#FFBE20"/>
</svg>
