<svg width="63" height="62" viewBox="0 0 63 62" fill="none" xmlns="http://www.w3.org/2000/svg">
<path d="M29.7446 8.79156C22.8181 9.60289 17.0419 13.1025 13.2032 18.806C11.072 21.9908 9.88524 25.3693 9.5825 29.1595C9.27977 32.9982 10.0669 36.74 11.9802 40.615L12.8884 42.4435L12.2466 46.5001C11.8833 48.7283 11.6048 50.7626 11.6169 51.0169C11.629 51.6224 12.1376 52.4701 12.6583 52.7849C13.5181 53.3177 14.2204 53.1603 19.7181 51.2107L22.0552 50.3873L23.5325 50.9806C31.2704 54.0685 39.2141 52.8333 45.4989 47.5537C48.9259 44.6837 51.5657 40.4576 52.7403 36.0134C53.697 32.3322 53.6606 28.2029 52.6313 24.6427C50.5364 17.4013 44.1063 11.2498 36.6954 9.37281C34.552 8.82788 31.5731 8.5857 29.7446 8.79156ZM35.436 11.7462C41.9145 13.1146 47.5212 17.9584 49.7251 24.0978C50.6333 26.6529 51.0208 29.5591 50.7786 32.1626C50.597 34.1123 50.379 35.1537 49.7856 36.9459C47.6786 43.3154 42.6169 48.0259 36.2231 49.5759C34.3098 50.0361 32.8204 50.1814 30.7255 50.0966C27.9766 49.9876 25.7485 49.4548 23.3993 48.365C22.7696 48.0744 22.1884 47.8322 22.1036 47.8322C22.0188 47.8322 20.2145 48.4255 18.1075 49.1642C15.9884 49.8908 14.2446 50.472 14.2325 50.4599C14.2083 50.4478 14.4989 48.5466 14.8743 46.258L15.5403 42.0802L15.2739 41.5959C13.3848 38.2294 12.6098 35.9771 12.2466 32.8771C11.0356 22.2572 18.4587 13.0419 29.4419 11.5041C30.7497 11.3224 34.0555 11.4556 35.436 11.7462Z" fill="#9F9FB7"/>
<path d="M21.6313 29.2322C20.1661 29.8861 20.1782 32.1384 21.6556 32.7681C22.1884 32.9982 22.7454 32.974 23.3509 32.6955C24.0411 32.3927 24.3559 31.8599 24.3559 31.0001C24.3559 30.1404 24.0411 29.6076 23.3509 29.3048C22.7575 29.0263 22.1399 29.0021 21.6313 29.2322Z" fill="#9F9FB7"/>
<path d="M30.5681 29.3169C29.902 29.6439 29.5024 30.4068 29.5993 31.206C29.6598 31.7994 29.9263 32.2353 30.4591 32.6228C30.9313 32.974 32.0696 32.974 32.5419 32.6228C33.0747 32.2353 33.3411 31.7994 33.4016 31.206C33.5833 29.6439 32.0091 28.6025 30.5681 29.3169Z" fill="#9F9FB7"/>
<path d="M39.6501 29.3048C38.9598 29.6076 38.645 30.1404 38.645 31.0001C38.645 31.8599 38.9598 32.3927 39.6501 32.6955C41.2606 33.4341 42.8348 32.1626 42.3868 30.4794C42.072 29.2564 40.8731 28.7478 39.6501 29.3048Z" fill="#9F9FB7"/>
<path d="M29.7446 8.79156C22.8181 9.60289 17.0419 13.1025 13.2032 18.806C11.072 21.9908 9.88524 25.3693 9.5825 29.1595C9.27977 32.9982 10.0669 36.74 11.9802 40.615L12.8884 42.4435L12.2466 46.5001C11.8833 48.7283 11.6048 50.7626 11.6169 51.0169C11.629 51.6224 12.1376 52.4701 12.6583 52.7849C13.5181 53.3177 14.2204 53.1603 19.7181 51.2107L22.0552 50.3873L23.5325 50.9806C31.2704 54.0685 39.2141 52.8333 45.4989 47.5537C48.9259 44.6837 51.5657 40.4576 52.7403 36.0134C53.697 32.3322 53.6606 28.2029 52.6313 24.6427C50.5364 17.4013 44.1063 11.2498 36.6954 9.37281C34.552 8.82788 31.5731 8.5857 29.7446 8.79156ZM35.436 11.7462C41.9145 13.1146 47.5212 17.9584 49.7251 24.0978C50.6333 26.6529 51.0208 29.5591 50.7786 32.1626C50.597 34.1123 50.379 35.1537 49.7856 36.9459C47.6786 43.3154 42.6169 48.0259 36.2231 49.5759C34.3098 50.0361 32.8204 50.1814 30.7255 50.0966C27.9766 49.9876 25.7485 49.4548 23.3993 48.365C22.7696 48.0744 22.1884 47.8322 22.1036 47.8322C22.0188 47.8322 20.2145 48.4255 18.1075 49.1642C15.9884 49.8908 14.2446 50.472 14.2325 50.4599C14.2083 50.4478 14.4989 48.5466 14.8743 46.258L15.5403 42.0802L15.2739 41.5959C13.3848 38.2294 12.6098 35.9771 12.2466 32.8771C11.0356 22.2572 18.4587 13.0419 29.4419 11.5041C30.7497 11.3224 34.0555 11.4556 35.436 11.7462Z" stroke="#9F9FB7"/>
<path d="M21.6313 29.2322C20.1661 29.8861 20.1782 32.1384 21.6556 32.7681C22.1884 32.9982 22.7454 32.974 23.3509 32.6955C24.0411 32.3927 24.3559 31.8599 24.3559 31.0001C24.3559 30.1404 24.0411 29.6076 23.3509 29.3048C22.7575 29.0263 22.1399 29.0021 21.6313 29.2322Z" stroke="#9F9FB7"/>
<path d="M30.5681 29.3169C29.902 29.6439 29.5024 30.4068 29.5993 31.206C29.6598 31.7994 29.9263 32.2353 30.4591 32.6228C30.9313 32.974 32.0696 32.974 32.5419 32.6228C33.0747 32.2353 33.3411 31.7994 33.4016 31.206C33.5833 29.6439 32.0091 28.6025 30.5681 29.3169Z" stroke="#9F9FB7"/>
<path d="M39.6501 29.3048C38.9598 29.6076 38.645 30.1404 38.645 31.0001C38.645 31.8599 38.9598 32.3927 39.6501 32.6955C41.2606 33.4341 42.8348 32.1626 42.3868 30.4794C42.072 29.2564 40.8731 28.7478 39.6501 29.3048Z" stroke="#9F9FB7"/>
</svg>
