<svg width="24" height="24" viewBox="0 0 24 24" fill="none" xmlns="http://www.w3.org/2000/svg">
<path d="M10.1549 14.7728L10.1459 14.7518C10.0107 14.7148 9.87664 14.6738 9.74391 14.6288L9.73391 14.6248C8.35246 14.1522 7.15339 13.2594 6.30453 12.0714C5.45566 10.8835 4.99951 9.45985 4.99991 7.9998C4.99946 6.2079 5.68621 4.48407 6.9187 3.18336C8.15118 1.88265 9.83555 1.10411 11.6249 1.00811C13.4142 0.912106 15.1722 1.50595 16.5368 2.66732C17.9014 3.82869 18.7686 5.46914 18.9599 7.2508C19.0039 7.6628 18.6639 7.9998 18.2499 7.9998C17.8359 7.9998 17.5049 7.6618 17.4499 7.2518C17.3169 6.28406 16.9286 5.36921 16.3249 4.60124C15.7212 3.83328 14.924 3.23991 14.015 2.88212C13.1061 2.52433 12.1183 2.41503 11.1531 2.56545C10.1879 2.71586 9.28018 3.12057 8.52321 3.73798C7.76624 4.35539 7.18733 5.16323 6.84597 6.07847C6.50461 6.99371 6.41311 7.98334 6.58089 8.94565C6.74866 9.90797 7.16965 10.8083 7.80059 11.554C8.43153 12.2997 9.24967 12.864 10.1709 13.1888C10.3565 12.7693 10.6806 12.4264 11.089 12.2175C11.4973 12.0085 11.9651 11.9463 12.4138 12.0413C12.8626 12.1362 13.2651 12.3825 13.5538 12.7389C13.8426 13.0953 14.0001 13.5401 13.9999 13.9988C14.0004 14.4611 13.8407 14.9092 13.548 15.267C13.2554 15.6249 12.8478 15.8702 12.3946 15.9615C11.9414 16.0527 11.4706 15.9841 11.0623 15.7674C10.654 15.5507 10.3333 15.1992 10.1549 14.7728ZM9.12991 16.0028C7.95084 15.5793 6.87996 14.9005 5.99391 14.0148C5.44605 14.0785 4.94068 14.3413 4.57381 14.7531C4.20694 15.165 4.00413 15.6972 4.00391 16.2488V17.1688C4.00391 17.7408 4.18191 18.2988 4.51391 18.7648C6.05591 20.9288 8.57991 21.9998 11.9999 21.9998C15.4199 21.9998 17.9449 20.9278 19.4899 18.7648C19.8234 18.2983 20.0028 17.7392 20.0029 17.1658V16.2478C20.0029 15.6514 19.7661 15.0794 19.3446 14.6575C18.9231 14.2356 18.3513 13.9983 17.7549 13.9978H15.4999C15.5001 14.7426 15.2626 15.4681 14.822 16.0687C14.3815 16.6693 13.7608 17.1137 13.0503 17.3372C12.3397 17.5607 11.5764 17.5518 10.8714 17.3116C10.1663 17.0714 9.55623 16.6136 9.12991 16.0028ZM15.9999 7.9998C15.9999 7.41522 15.8718 6.83776 15.6245 6.30804C15.3773 5.77832 15.017 5.30924 14.5689 4.9338C14.153 4.58587 13.6706 4.32614 13.1512 4.1704C12.6318 4.01466 12.0861 3.96616 11.5474 4.02784C11.0086 4.08953 10.4881 4.26011 10.0173 4.52923C9.54652 4.79835 9.13538 5.16038 8.80886 5.59332C8.48234 6.02626 8.24725 6.52107 8.1179 7.04768C7.98854 7.57429 7.96761 8.12171 8.05637 8.65666C8.14514 9.19161 8.34175 9.70293 8.63426 10.1595C8.92676 10.6161 9.30906 11.0085 9.75791 11.3128C10.387 10.7877 11.1804 10.5 11.9999 10.4998C12.8529 10.4998 13.6349 10.8048 14.2429 11.3128C14.7842 10.9462 15.2274 10.4525 15.5337 9.87495C15.84 9.29739 16.0001 8.65355 15.9999 7.9998Z" fill="#6D6D91"/>
</svg>
