<svg width="24" height="25" viewBox="0 0 24 25" fill="none" xmlns="http://www.w3.org/2000/svg">
<path d="M12 13.5C14.396 13.5 16.575 14.194 18.178 15.172C18.978 15.66 19.662 16.236 20.156 16.862C20.642 17.477 21 18.213 21 19C21 19.845 20.589 20.511 19.997 20.986C19.437 21.436 18.698 21.734 17.913 21.942C16.335 22.359 14.229 22.5 12 22.5C9.771 22.5 7.665 22.36 6.087 21.942C5.302 21.734 4.563 21.436 4.003 20.986C3.41 20.51 3 19.845 3 19C3 18.213 3.358 17.477 3.844 16.861C4.338 16.236 5.021 15.661 5.822 15.171C7.425 14.195 9.605 13.5 12 13.5ZM12 2.5C13.3261 2.5 14.5979 3.02678 15.5355 3.96447C16.4732 4.90215 17 6.17392 17 7.5C17 8.82608 16.4732 10.0979 15.5355 11.0355C14.5979 11.9732 13.3261 12.5 12 12.5C10.6739 12.5 9.40215 11.9732 8.46447 11.0355C7.52678 10.0979 7 8.82608 7 7.5C7 6.17392 7.52678 4.90215 8.46447 3.96447C9.40215 3.02678 10.6739 2.5 12 2.5Z" fill="#9F9FB7"/>
</svg>
