<svg width="24" height="24" viewBox="0 0 24 24" fill="none" xmlns="http://www.w3.org/2000/svg">
<g clip-path="url(#clip0_97_57285)">
<path fill-rule="evenodd" clip-rule="evenodd" d="M3.3351 0.800781H13.6668C17.3199 0.800781 19.7176 2.22637 21.2019 4.11257C22.6291 5.95214 23.1998 8.25231 23.1998 10.1378C23.1998 13.3578 22.1723 15.9793 20.4602 17.773C18.691 19.5674 16.2363 20.5331 13.3819 20.5331H7.55894C6.76029 20.5331 5.504 20.6256 4.36257 20.9937C4.13375 21.0396 3.9628 21.0855 3.79185 21.1781C2.87835 21.5461 2.07881 22.0978 1.67904 22.9258L1.62206 22.9717C1.62206 22.9717 1.62206 23.0176 1.56507 23.0176C1.56507 23.0635 1.56507 23.0635 1.50809 23.0635C1.45781 23.1084 1.396 23.1439 1.32696 23.1676C1.25792 23.1912 1.18331 23.2025 1.10832 23.2006V23.1554C0.994356 23.1554 0.937373 23.1095 0.88039 23.0635C0.823407 23.0176 0.766425 22.9251 0.823408 22.8332C0.994356 22.0978 1.22318 21.4995 1.45111 21.0396C1.73691 20.5331 1.96484 20.165 2.25065 19.8436C2.56471 19.4086 2.94998 19.1164 3.29476 18.8549C3.38787 18.7843 3.47803 18.7159 3.56303 18.6476C4.30559 18.1418 4.8763 17.7278 4.8763 16.3015V3.65196C4.8763 3.46829 4.8763 3.2839 4.81932 3.10023C4.81932 3.05896 4.80781 3.00825 4.79513 2.95243C4.77961 2.88406 4.76234 2.80801 4.76234 2.73218C4.53441 2.13453 4.07676 1.71985 3.3351 1.62801H3.27812C3.22113 1.62801 3.10628 1.62801 3.04929 1.58209C3.0208 1.55913 3.00656 1.53617 2.99231 1.51322C2.97807 1.49026 2.96382 1.4673 2.93533 1.44434L2.93402 1.44222C2.87748 1.3504 2.8218 1.25996 2.87835 1.16812V1.07628L2.93533 1.03037C2.96494 0.963804 3.01911 0.906132 3.09056 0.865093C3.16202 0.824054 3.24735 0.801612 3.3351 0.800781ZM9.46471 3.21993C9.18215 3.40048 9.01314 3.71591 9.01314 4.34606V15.7866C9.01314 16.2369 9.12581 16.5966 9.35204 16.8671C9.52105 17.0919 9.80361 17.2274 10.198 17.2274H13.359C14.7692 17.2274 16.0676 16.1912 17.0834 14.841C18.0429 13.4444 18.7198 11.6881 18.7198 10.2472C18.7198 8.49093 18.0983 6.68896 17.1397 5.29236C16.1239 3.94141 14.7128 3.04079 13.0201 3.04079H10.6504C10.1416 3.04009 9.7464 3.08434 9.46471 3.21993Z" fill="none"/>
</g>
<defs>
<clipPath id="clip0_97_57285">
<rect width="24" height="24" fill="white"/>
</clipPath>
</defs>
</svg>
