<svg width="24" height="24" viewBox="0 0 24 24" fill="none" xmlns="http://www.w3.org/2000/svg">
<path d="M19.1729 13.9683C19.2882 10.0099 18.8247 6.73282 19.1957 5.96425C19.7516 5.474 20.6774 4.59992 20.6774 4.59992C20.6774 4.59992 14.4481 1.39011 11.229 0.807997C9.74732 0.608805 3.65609 4.59992 3.65609 4.59992L3.77259 5.97244C3.77259 5.97244 6.78275 3.3029 11.4721 4.25975C11.5696 4.27976 11.6684 4.30159 11.7659 4.32615C10.1196 5.35758 7.19686 7.13939 6.13437 7.34495C7.51218 9.21954 7.82498 16.2913 3.2002 21.8605L4.12591 22.4008C4.12591 22.4008 10.6566 17.3282 11.0732 11.1742H15.8208L15.5891 15.8729L18.4726 17.9931L20.8002 15.249C20.8002 15.249 19.2261 14.3267 19.1729 13.9683ZM15.5828 8.42914H11.1783C11.1783 8.42914 11.1277 5.83964 13.0525 4.73999C13.9605 5.10331 14.8295 5.51465 15.6524 5.97062L15.5828 8.42914Z" fill="none"/>
</svg>
