<svg width="24" height="24" viewBox="0 0 24 24" fill="none" xmlns="http://www.w3.org/2000/svg">
<path d="M6.39436 6.07393L6.37081 5.04492H17.4789L17.4553 6.07393L15.6328 6.09657V7.10379C15.6328 7.65773 15.6186 8.11075 15.6013 8.11045C15.584 8.11016 14.9195 7.89445 14.1245 7.63102L12.679 7.15204L12.6555 6.09493H11.1941L11.1707 7.15448L10.4794 7.38103C10.0991 7.50565 9.4453 7.72086 9.02636 7.85929C8.60739 7.99768 8.2539 8.11096 8.24078 8.11096C8.22763 8.11096 8.2169 7.65773 8.2169 7.10379V6.09657L6.39436 6.07393Z" fill="none"/>
<path fill-rule="evenodd" clip-rule="evenodd" d="M8.13918 8.46343C8.1825 8.43054 11.2506 7.40426 11.8201 7.23222C11.8891 7.21139 12.0321 7.23361 12.2391 7.29741C12.8347 7.48095 15.6538 8.42819 15.7107 8.46389C15.7176 8.46822 15.7238 8.47031 15.7292 8.47371C15.7724 8.50103 15.7621 8.61295 15.6317 10.652C15.5873 11.345 15.5406 12.0009 15.5279 12.1095L15.5047 12.307L16.082 12.9002C16.3995 13.2265 16.6649 13.5181 16.6719 13.5484C16.6788 13.5786 16.5657 13.7449 16.4205 13.9178C16.2062 14.1737 15.9925 14.4302 15.7794 14.6871C15.572 14.9372 15.3363 15.2136 15.2557 15.3013L15.109 15.4608L14.6322 15.2699C14.37 15.1649 14.1254 15.0848 14.0887 15.0919C14.0435 15.1006 13.9865 15.2328 13.9113 15.5034C13.8504 15.7227 13.7509 16.0627 13.6901 16.2591L13.5797 16.6161L13.0874 16.7581C12.8167 16.8363 12.4444 16.9421 12.26 16.9934L11.9248 17.0867L11.5897 16.994C10.7988 16.7752 10.3295 16.6266 10.2854 16.581C10.2431 16.5372 10.1433 16.223 9.90299 15.3772C9.80599 15.0358 9.80381 15.0355 9.21993 15.2675C8.95903 15.3712 8.73027 15.4466 8.71154 15.435C8.68092 15.416 8.08899 14.7191 7.71413 14.2607C7.39349 13.8686 7.16946 13.576 7.16946 13.5494C7.16946 13.534 7.43405 13.2488 7.75741 12.9156L8.34532 12.3099L8.32198 12.111C8.30208 11.9416 8.21757 10.6815 8.1099 8.94929C8.08828 8.60102 8.09452 8.49736 8.13918 8.46343ZM9.16043 13.6922C8.64107 13.235 8.77649 12.3499 9.41098 12.0548C9.78299 11.8818 10.2894 11.9838 10.5531 12.285C11.3889 13.2392 10.1118 14.5295 9.16043 13.6922ZM13.2818 13.6222C12.8462 13.1249 13.0092 12.3226 13.6004 12.0533C14.26 11.7529 15.0025 12.2341 15.0025 12.962C15.0025 13.874 13.8796 14.3048 13.2818 13.6222ZM11.3173 14.9182C11.3173 14.8575 11.699 14.236 11.8411 14.0654C11.9324 13.9557 11.9866 14.0024 12.2558 14.4219C12.5571 14.8913 12.5695 14.933 12.4467 15.0641C12.314 15.2056 12.2148 15.1932 12.1033 15.021C11.9697 14.8148 11.9232 14.8119 11.7719 15.0006C11.6985 15.0922 11.6098 15.167 11.5749 15.167C11.4894 15.167 11.3173 15.0008 11.3173 14.9182Z" fill="none"/>
<path d="M0.939132 9.23384C0.796177 8.88192 0.666882 8.56087 0.651841 8.52046C0.625906 8.45083 0.812518 8.44696 4.2058 8.44696H7.78712L7.81247 8.77247C7.83076 9.01041 7.84834 9.24842 7.86517 9.48647L7.89253 9.87498L1.19906 9.87368L0.939132 9.23384Z" fill="none"/>
<path d="M15.9845 9.48647C16.0013 9.24842 16.0189 9.01041 16.0372 8.77247L16.0626 8.44696H19.6439C23.0372 8.44696 23.2237 8.45083 23.1977 8.52046C23.1825 8.56087 23.0532 8.88213 22.9104 9.23435L22.6506 9.87473L15.9571 9.87498L15.9845 9.48647Z" fill="none"/>
<path d="M1.61829 10.715C1.53324 10.4955 1.45393 10.2924 1.44207 10.2635C1.42498 10.2217 2.08604 10.211 4.66575 10.211H7.91097L7.93715 10.5995C7.95156 10.8131 7.97603 11.1345 7.99154 11.3135L8.01969 11.639H4.99695C3.07126 11.639 1.97417 11.6242 1.97417 11.5983C1.97417 11.5758 1.92888 11.4577 1.87353 11.3358C1.81823 11.2138 1.70334 10.9344 1.61829 10.715Z" fill="none"/>
<path d="M15.8575 11.3345C15.8726 11.167 15.8971 10.8457 15.9118 10.6205L15.9387 10.211H19.1794C20.9618 10.211 22.4202 10.2165 22.4202 10.2232C22.4202 10.2299 22.3248 10.4708 22.2082 10.7587C22.0916 11.0465 21.965 11.3623 21.9268 11.4605L21.8574 11.639H15.8301L15.8575 11.3345Z" fill="none"/>
<path d="M3.84133 12.0275C3.82466 11.9859 4.25989 11.975 5.93479 11.975H8.04931V12.0939C8.04931 12.1851 7.97402 12.2908 7.72461 12.5493C7.54604 12.7344 7.28988 13.0025 7.15543 13.1451L6.911 13.4042L4.38345 13.382L3.84133 12.0275Z" fill="none"/>
<path d="M16.1041 12.5283C15.8748 12.2882 15.8004 12.1815 15.8004 12.0927V11.975H17.9149C19.5898 11.975 20.025 11.9859 20.0083 12.0275L19.4662 13.382L16.9397 13.4042L16.6738 13.1253C16.5275 12.9718 16.2712 12.7032 16.1041 12.5283Z" fill="none"/>
<path d="M8.2169 17.8971V16.6371C8.2169 15.944 8.22893 15.377 8.24363 15.377C8.25834 15.377 8.35219 15.4526 8.4522 15.545C8.67602 15.7519 8.73308 15.7532 9.22282 15.5637C9.43507 15.4815 9.61343 15.4201 9.61917 15.4272C9.62491 15.4342 9.69957 15.6763 9.78504 15.9651C9.87051 16.2538 9.95921 16.5507 9.98213 16.6248C10.0368 16.8015 10.2025 16.8956 10.6679 17.0141C10.9703 17.0911 11.0967 17.1176 11.1517 17.1948C11.1958 17.2567 11.1941 17.3511 11.2004 17.5302L11.2126 17.8761H12.6371L12.6492 17.5302C12.6555 17.3511 12.6539 17.2567 12.6979 17.1948C12.753 17.1176 12.8794 17.0911 13.1818 17.0141C13.6472 16.8956 13.8128 16.8015 13.8675 16.6248C13.8905 16.5507 13.9792 16.2538 14.0646 15.9651C14.1501 15.6763 14.2248 15.4342 14.2305 15.4272C14.2362 15.4201 14.4146 15.4815 14.6268 15.5637C15.1166 15.7532 15.1737 15.7519 15.3975 15.545C15.4975 15.4526 15.5913 15.377 15.606 15.377C15.6207 15.377 15.6328 15.944 15.6328 16.6371V17.8971H17.4789L17.4553 18.9261L6.37341 18.9474V17.8971H8.2169Z" fill="none"/>
</svg>
