<svg width="24" height="24" viewBox="0 0 24 24" fill="none" xmlns="http://www.w3.org/2000/svg">
<path d="M11.2698 1.19922C10.7616 2.28899 10.3668 3.40958 10.1831 4.62643C10.3355 4.45699 10.4567 4.29141 10.6092 4.16048C10.7616 4.02955 10.9454 3.93328 11.1174 3.81776C11.1369 3.82931 11.1526 3.84087 11.1721 3.85627C11.1291 3.97564 11.1017 4.10657 11.0392 4.21054C10.7421 4.69574 10.5662 5.2156 10.5115 5.77782C10.4997 5.90489 10.531 6.03197 10.531 6.15905C10.531 6.25917 10.5193 6.35929 10.5115 6.45556C10.5075 6.48636 10.4997 6.52487 10.5115 6.55183C10.6444 6.77132 10.7616 7.00237 10.918 7.20646C11.0509 7.3759 11.2268 7.51453 11.3832 7.66471C11.4809 7.75713 11.5787 7.8534 11.6803 7.94582C11.7116 7.97277 11.7585 7.98047 11.8015 7.98817C12.0478 8.01898 12.294 8.04594 12.5364 8.07289C12.6537 8.08444 12.767 8.09985 12.8843 8.1037C13.5919 8.1191 14.3033 8.1037 15.0109 8.14606C16.1993 8.21537 17.3525 8.43872 18.3806 9.0818C18.5018 9.15882 18.6112 9.24738 18.7246 9.3321C18.8301 9.41297 18.9161 9.49384 18.8067 9.63632C18.791 9.65557 18.7832 9.70563 18.7988 9.72488C18.8379 9.79035 18.9044 9.84426 18.9318 9.91742C18.9552 9.98674 18.9435 10.0676 18.9474 10.1331C19.0373 10.1485 19.1233 10.1639 19.2484 10.1831C19.3579 10.1177 19.4829 10.1369 19.5494 10.3102C19.698 10.6991 19.866 11.0842 19.9364 11.4885C20.081 12.3088 19.9755 13.1136 19.655 13.8914C19.2953 14.7617 18.6738 15.4048 17.8646 15.8746C17.243 16.2366 16.5667 16.4676 15.8514 16.56C15.7693 16.5716 15.6676 16.5177 15.5933 16.4638C15.4956 16.3983 15.4174 16.3059 15.3002 16.1942C15.3275 16.302 15.3353 16.3714 15.3627 16.433C15.4174 16.5716 15.3471 16.6332 15.2259 16.6371C14.8154 16.6486 14.4089 16.6602 13.9984 16.6525C13.8772 16.6486 13.8655 16.6987 13.8694 16.7834C13.8772 16.9875 13.8929 17.1916 13.8929 17.3918C13.8968 18.5278 13.885 19.6638 13.9046 20.7998C13.9124 21.1849 13.9945 21.5738 14.0375 21.9589C14.0492 22.0628 14.0492 22.1707 14.0492 22.2785C14.0492 22.3362 14.0375 22.394 14.0727 22.4633C14.1157 22.4056 14.1587 22.3478 14.2212 22.2708C14.3385 22.4402 14.448 22.602 14.5809 22.7945C14.3776 22.7945 14.2056 22.7945 14.0336 22.7945C13.7326 22.7945 13.4355 22.806 13.1345 22.7906C13.0368 22.7868 12.9429 22.7213 12.8452 22.6905C12.8022 22.679 12.7553 22.6713 12.7123 22.679C12.4778 22.7136 12.2471 22.7868 12.0126 22.7906C11.0079 22.8022 10.0072 22.7945 9.00253 22.7945C8.67416 22.7945 8.66243 22.7791 8.71325 22.4518C8.67025 22.4864 8.62725 22.5057 8.6077 22.5365C8.48261 22.7829 8.26761 22.8137 8.01742 22.7945C7.79851 22.7791 7.57569 22.7906 7.35677 22.7906C7.34505 22.7714 7.33723 22.756 7.3255 22.7367C7.3685 22.7021 7.40368 22.6559 7.4545 22.6289C7.57569 22.5673 7.72814 22.5365 7.82587 22.4479C8.38879 21.9396 8.92434 21.4005 9.2058 20.6765C9.38171 20.226 9.5459 19.7716 9.68272 19.3095C9.73745 19.1247 9.81563 19.0477 10.0033 19.0554C10.0541 19.0592 10.1088 19.0323 10.1596 19.0207C10.1401 19.0092 10.1205 18.9938 10.101 18.9822C10.1323 18.8744 10.1518 18.7666 10.1909 18.6626C10.2144 18.6048 10.2613 18.5586 10.3043 18.5124C10.5857 18.2274 10.5857 18.2274 10.3121 17.954C10.0775 17.723 10.0228 17.4342 10.0502 17.1223C10.0893 16.6794 10.1284 16.2327 10.1596 15.7899C10.1831 15.4626 10.1987 15.1391 10.1948 14.8118C10.1909 14.2226 10.1909 13.6334 10.1518 13.0443C10.101 12.278 10.0893 11.504 9.88208 10.7569C9.87427 10.7299 9.86645 10.6914 9.87426 10.6683C9.99936 10.3718 10.2886 10.2216 10.5896 10.3102C10.4802 10.0869 10.3707 9.89817 10.101 9.84041C9.98372 9.8173 9.88208 9.71718 9.77654 9.65172C9.64753 9.5747 9.51853 9.49769 9.39344 9.41682C9.33871 9.38216 9.28007 9.35136 9.24489 9.30515C9.14325 9.18192 9.05334 9.05099 8.95952 8.92007C8.94389 8.89696 8.91652 8.8546 8.92434 8.8392C9.04162 8.63511 8.85007 8.64281 8.75234 8.58505C8.67416 8.53884 8.59206 8.49263 8.52952 8.43102C8.20506 8.09985 7.77114 7.94967 7.37632 7.73402C6.62185 7.31814 5.91039 6.84834 5.30838 6.23221C4.7181 5.63149 4.28028 4.93834 4.08482 4.11427C4.06527 4.0257 3.97145 3.91788 4.12782 3.82931C4.15518 3.81391 4.10045 3.62907 4.06136 3.5328C3.948 3.2671 4.00273 2.547 4.13564 2.33905C4.26855 2.75494 4.36628 3.22474 4.56564 3.64833C4.80801 4.16048 5.14029 4.63028 5.42956 5.11933C5.54293 5.30802 5.64457 5.50441 5.75011 5.69695C5.82048 5.62378 5.89866 5.65459 6.0003 5.75471C6.20358 5.9511 6.4264 6.12824 6.64531 6.30923C6.69222 6.34773 6.75086 6.37469 6.77431 6.38624C6.91113 6.02427 7.03622 5.67385 7.18477 5.33112C7.23559 5.2156 7.35677 5.13088 7.42714 5.01921C7.50923 4.88828 7.56396 4.7381 7.64996 4.61103C7.7516 4.46084 7.87669 4.32607 8.03306 4.20669C7.97833 4.35687 7.91578 4.5032 7.87669 4.65338C7.77505 5.01151 7.71642 5.38118 7.5835 5.72776C7.47405 6.01272 7.50141 6.28612 7.49359 6.57108C7.48969 6.74052 7.54441 6.83294 7.70469 6.90995C8.33406 7.21416 8.95952 7.53378 9.58499 7.84955C9.62408 7.8688 9.66317 7.8842 9.69444 7.89961C9.5889 7.56074 9.47162 7.22187 9.38171 6.87914C9.2488 6.37469 9.25662 5.86253 9.3348 5.34653C9.56153 3.82931 10.2808 2.53545 11.1838 1.32244C11.2034 1.27623 11.2386 1.23773 11.2698 1.19922ZM13.7639 11.8852C13.6857 11.8621 13.631 11.8428 13.6114 11.839C13.6661 12.1278 13.756 12.4166 13.7639 12.7054C13.7873 13.4602 13.7834 14.2188 13.7678 14.9774C13.7639 15.2007 13.6896 15.4241 13.6505 15.6436C13.6427 15.6782 13.6505 15.7129 13.6505 15.7552C13.7951 15.6628 13.9163 15.5357 14.061 15.4972C14.7255 15.3124 15.2259 14.9042 15.6754 14.4152C15.781 14.3035 15.867 14.188 15.9921 14.2611C15.9999 14.1687 15.9725 14.0493 16.0194 13.98C16.5394 13.2368 16.727 12.4358 16.4455 11.5579C16.2814 11.038 15.9413 10.6606 15.4292 10.4257C14.9483 10.2024 14.4362 10.1831 13.9241 10.1254C13.7873 10.11 13.7443 10.1677 13.7482 10.3025C13.76 10.7646 13.7639 11.2267 13.7678 11.6849C13.7717 11.7504 13.7678 11.812 13.7639 11.8852Z" fill="none"/>
</svg>
