<svg width="24" height="24" viewBox="0 0 24 24" fill="none" xmlns="http://www.w3.org/2000/svg">
<g clip-path="url(#clip0_97_57262)">
<path d="M24 11.9909C23.8982 13.6537 23.7273 15.3099 22.9208 16.7675C22.2046 18.0626 21.9105 19.3774 22.0042 20.8399C22.0748 21.9331 21.9565 22.0382 20.8543 21.9856C19.4334 21.9183 18.1653 22.2122 16.8545 22.8474C13.7088 24.3723 10.4235 24.3805 7.26139 22.8934C5.90128 22.2532 4.58551 21.9003 3.10056 21.984C2.09526 22.0415 1.9622 21.9101 2.01641 20.9351C2.10183 19.4266 1.75194 18.0921 1.09488 16.7051C-0.43114 13.4879 -0.337509 10.1508 1.22301 6.96642C1.81765 5.75339 2.05912 4.58468 2.01312 3.27973C1.96877 2.02566 2.03284 1.9518 3.29111 2.01089C4.66108 2.07491 5.87335 1.77124 7.12834 1.16391C10.3052 -0.372488 13.607 -0.387261 16.797 1.1163C18.1292 1.74498 19.4186 2.09789 20.8773 2.01089C21.9352 1.94687 22.065 2.07327 22.0009 3.09917C21.9105 4.58304 22.1734 5.92574 22.9208 7.2471C23.7454 8.69814 23.9031 10.3609 24 11.9909ZM11.9922 2.15862C10.2428 2.19966 8.57058 2.58211 7.07249 3.51281C6.39736 3.93302 5.73701 4.23505 4.93047 4.13985C4.30626 4.06598 4.08615 4.39591 4.14693 4.97042C4.22742 5.71399 3.95309 6.32133 3.5835 6.96478C1.68788 10.2706 1.67309 13.629 3.53422 16.9513C3.92188 17.644 4.23727 18.2924 4.14857 19.0967C4.08615 19.6614 4.36211 19.9191 4.91897 19.8567C5.72387 19.7664 6.37272 20.0865 7.06427 20.4739C10.3594 22.3189 13.6973 22.3123 16.9875 20.4607C17.6528 20.0865 18.277 19.7664 19.054 19.8583C19.7193 19.9371 19.9459 19.5957 19.8786 18.9834C19.8014 18.2694 20.0642 17.6834 20.4207 17.0662C22.3261 13.7669 22.359 10.4085 20.5094 7.08132C20.1102 6.36401 19.7833 5.69101 19.8737 4.8588C19.9312 4.33354 19.665 4.08404 19.146 4.14149C18.3115 4.23341 17.6265 3.93631 16.9251 3.49968C15.4303 2.56734 13.7548 2.19309 11.9922 2.15862Z" fill="none"/>
<path d="M10.2328 12.6754C10.9135 10.9113 11.5942 9.1489 12.275 7.38481C12.3499 7.37975 12.4248 7.37469 12.4997 7.36963C13.1871 9.14721 13.8761 10.9248 14.5635 12.7024C14.973 10.9973 15.965 9.45078 15.5788 7.64622C15.4973 7.26338 15.7103 7.20604 15.9883 7.20436C16.9303 7.1993 17.8724 7.19592 18.8161 7.20436C19.2605 7.20941 19.3137 7.43878 19.0041 7.70356C18.4449 8.17916 18.3367 8.83184 18.1952 9.49632C17.7092 11.7748 17.2083 14.0482 16.6956 16.3199C16.5658 16.8967 16.5092 17.4178 16.9869 17.8766C17.3581 18.2324 17.1949 18.3977 16.7505 18.3977C15.8351 18.3994 14.9214 18.4011 14.006 18.3943C13.7446 18.3927 13.4251 18.3437 13.5649 17.9828C13.8711 17.2003 13.4567 16.556 13.2403 15.8781C13.0206 15.1883 12.7477 14.5154 12.3815 13.8172C11.997 15.1782 10.9668 16.3233 11.2264 17.8631C11.278 18.1717 11.263 18.3792 10.9135 18.3842C9.91653 18.396 8.9179 18.4028 7.92092 18.3893C7.49817 18.3825 7.5248 18.138 7.7678 17.9154C8.2821 17.4431 8.22384 16.8967 8.0857 16.2896C7.54976 13.9082 7.03546 11.5218 6.52616 9.13372C6.41131 8.5991 6.2482 8.11001 5.81712 7.74572C5.69895 7.64453 5.52253 7.50793 5.63737 7.32916C5.69396 7.24314 5.87704 7.20773 6.00354 7.20773C6.94559 7.1993 7.88763 7.20098 8.83135 7.20773C9.07268 7.20941 9.32068 7.28531 9.21083 7.59731C8.81803 8.70366 9.36229 9.69364 9.56535 10.7224C9.6935 11.3768 9.88491 12.021 10.048 12.6686C10.1096 12.6703 10.1712 12.6737 10.2328 12.6754Z" fill="none"/>
</g>
<defs>
<clipPath id="clip0_97_57262">
<rect width="24" height="24" fill="white"/>
</clipPath>
</defs>
</svg>
