<svg width="24" height="24" viewBox="0 0 24 24" fill="none" xmlns="http://www.w3.org/2000/svg">
<path fill-rule="evenodd" clip-rule="evenodd" d="M11.6552 5.75898C11.4601 5.75898 11.2894 5.80098 11.1428 5.88729C10.9962 5.97359 10.8806 6.09812 10.7944 6.25929C10.7083 6.42046 10.6571 6.59915 10.6407 6.7938C10.6244 6.98844 10.6134 7.31773 10.6134 7.78577V8.58541C10.6134 9.06502 10.6236 9.39844 10.6407 9.59028C10.6578 9.78241 10.713 9.96614 10.8012 10.1248C10.8895 10.2869 11.0127 10.4144 11.1564 10.4925C11.3037 10.5741 11.4701 10.6123 11.6551 10.6123C11.85 10.6123 12.0208 10.5703 12.1674 10.484C12.314 10.3977 12.4296 10.2732 12.5157 10.112C12.6019 9.95084 12.6531 9.77215 12.6695 9.5775C12.6858 9.38274 12.6934 9.05346 12.6934 8.58541V7.78577C12.6934 7.30628 12.6866 6.97275 12.6695 6.7809C12.6524 6.58877 12.5972 6.40503 12.5089 6.24639C12.4193 6.0834 12.3011 5.96446 12.1538 5.8829C12.0066 5.80147 11.8402 5.75898 11.6552 5.75898ZM11.6586 6.54572C11.7141 6.54572 11.75 6.57931 11.7679 6.63981C11.7857 6.70019 11.7951 6.83774 11.7951 7.05454V9.19259C11.7951 9.46685 11.7849 9.6414 11.7679 9.71432C11.7508 9.78723 11.713 9.82546 11.6518 9.82546C11.592 9.82546 11.5555 9.79479 11.5391 9.73149C11.5227 9.66819 11.5118 9.50166 11.5118 9.23117V7.05466C11.5118 6.81485 11.5245 6.6717 11.5495 6.62277C11.5741 6.57383 11.6116 6.54572 11.6586 6.54572Z" fill="none"/>
<path d="M4.71855 1.96557C5.20864 1.72362 5.76958 1.59961 6.40603 1.59961C7.26996 1.59961 7.98401 1.78797 8.54612 2.16252C9.10813 2.5373 9.47764 3.00289 9.65419 3.56237C9.83066 4.12197 9.92006 4.99543 9.92015 6.17691V7.37957H6.98535V5.17531C6.98535 4.53511 6.95309 4.13548 6.89036 3.97665C6.82763 3.81795 6.68929 3.73939 6.47561 3.73939C6.23408 3.73939 6.08159 3.83639 6.01652 4.02899C5.95145 4.22159 5.91837 4.63575 5.91837 5.27596V11.1487C5.91837 11.7628 5.95145 12.164 6.01652 12.3513C6.08159 12.5387 6.22903 12.6329 6.45659 12.6329C6.67496 12.6329 6.81664 12.5387 6.88396 12.3513C6.95137 12.164 6.98526 11.7243 6.98526 11.032V9.44722H9.91997V9.938C9.91988 11.2444 9.83787 12.171 9.67303 12.7174C9.5081 13.264 9.14202 13.7423 8.57766 14.1535C8.0133 14.5647 7.31818 14.7729 6.49138 14.7729C5.63205 14.7729 4.92457 14.5988 4.36716 14.2501C3.80965 13.9014 3.44023 13.4188 3.25908 12.802C3.07793 12.1852 2.98682 11.2572 2.98682 10.0185V6.32588C2.98682 5.41509 3.0134 4.73 3.0691 4.27449C3.12489 3.81909 3.29306 3.38076 3.56938 2.95915C3.8457 2.53753 4.22846 2.20764 4.71855 1.96557Z" fill="none"/>
<path fill-rule="evenodd" clip-rule="evenodd" d="M13.3868 1.59961V14.0796H17.1627C17.8785 14.0796 18.4138 14.0372 18.7692 13.9524C19.1247 13.8677 19.424 13.7171 19.6657 13.5038C19.9075 13.2905 20.079 12.9959 20.1761 12.6184C20.2733 12.2407 20.3201 11.491 20.3201 10.3709V6.00305C20.3201 4.82137 20.2883 4.02797 20.2219 3.62454C20.1556 3.22123 19.99 2.85352 19.7246 2.5247C19.4591 2.19588 19.0693 1.96178 18.5597 1.818C18.0501 1.6741 17.0738 1.59961 15.628 1.59961H13.3868ZM16.3808 3.73588C16.7078 3.73588 16.9331 3.77251 17.0516 3.847C17.1699 3.92149 17.2441 4.03713 17.2773 4.1964C17.3104 4.35566 17.3263 4.71919 17.3263 5.28437V10.1326C17.3263 10.965 17.2786 11.4738 17.1791 11.6613C17.0796 11.8488 16.8122 11.9432 16.3808 11.9432V3.73588Z" fill="none"/>
<path d="M19.348 15.4663L21.1653 15.4795L21.6747 15.892L21.8354 16.0216L22.0439 16.1908L22.4 16.4791L22.4001 16.7329L22.4 16.9022L22.4001 17.0766L22.4 17.2432L22.4001 17.431L22.4 17.5976L22.4001 17.7933L22.4 17.9573L22.4001 18.145L22.4 18.3143L22.4001 18.4941L22.4 18.6024L21.9387 18.962L21.9917 19.0149H21.9925L22.368 19.3909L22.3702 19.393V21.5085L21.2328 22.3996H19.3936V21.0035H20.0776L20.1082 20.9796L20.3481 20.7919H20.349L20.688 20.5275V19.9748L20.189 19.4539H18.5745V18.3486H20.2328L20.2725 18.3143L20.5722 18.0585L20.6901 17.9573L20.7339 17.9203V17.431L20.7338 17.3675L20.3749 17.0766H20.3739L20.0519 16.8149H19.348V15.4663Z" fill="none"/>
<path d="M18.9603 15.4768H17.2344L16.962 15.6698L16.7316 15.8339L16.4668 16.0216L16.2289 16.1908L15.9598 16.3812H15.9608L15.9161 16.4129V17.3199H17.5286L17.8251 17.0474L17.984 16.9022H17.9831L18.1212 16.7752H18.9602L18.9603 15.4768Z" fill="none"/>
<path d="M7.71228 15.4795H9.30298L9.30287 15.8339L9.30298 16.7329L9.30287 16.9022V17.5976L9.30292 17.6241L9.19351 17.7933L9.00876 18.0772L8.96495 18.145L8.85486 18.3143L8.40001 19.0149L8.27497 19.2079L7.87133 19.8293L7.87127 18.1688L7.55828 18.658H7.55917L7.48419 18.7737L7.32986 19.0149L7.20716 19.2079L7.10145 19.3719L6.98057 19.5622H6.97963L6.42295 20.4322H6.42383L6.29857 20.6279H6.29772L5.96608 21.1462L5.84518 21.3366H5.84426L5.39587 22.0373L5.28448 21.8575L5.18173 21.6909L5.06378 21.5005L4.9628 21.3366L4.51544 20.6125L4.40363 20.4322L4.30109 20.2656H4.30027L4.08221 19.9114L3.12872 18.3682L3.09531 18.3143L2.99079 18.145H2.98992L2.98596 18.1371V22.3679H1.6001V22.2144L1.60225 21.6909L1.60208 21.5005L1.60452 20.9796L1.6061 20.4824V20.4322L1.60808 19.8598V19.7289L1.60903 19.5622H1.60808L1.60944 19.4311L1.61015 19.2079L1.61006 19.0149L1.61243 18.4941L1.61204 18.3143H1.613L1.61402 17.9924V17.9573L1.616 17.3699V17.2432L1.61694 17.0766H1.61606L1.61728 16.9693L1.61804 16.7297V16.5451L1.62029 16.0216L1.62002 15.8339H1.62089L1.622 15.4849L3.21265 15.4848L3.6398 16.1908L3.75553 16.3812L3.85417 16.5451L3.96824 16.7329L4.9245 18.3143L5.03395 18.4941L5.13244 18.658H5.1334L5.19205 18.7565L5.42274 19.1378L5.43962 19.1656L5.44736 19.1531L5.63529 18.8483H5.63445L5.75179 18.658H5.75266L6.06894 18.145H6.06791L6.14431 18.0227L6.35935 17.6739L6.40589 17.5976L6.56472 17.3408L6.62466 17.2432L7.15638 16.3812H7.15553L7.27281 16.1908H7.27375L7.71228 15.4795Z" fill="none"/>
<path d="M14.2578 15.4927H15.6198V22.2144L15.6198 22.2171H14.053L14.051 22.2144L13.5877 21.5005L13.4179 21.2386L13.3571 21.1462H13.3579L13.0216 20.6279L12.8938 20.4322L12.5565 19.9114L12.3299 19.5622L12.2058 19.3719L11.7585 18.6818L11.7513 18.6936L10.9166 20.0752H10.9174L10.6728 20.4787L10.5834 20.6278L10.4836 20.7919L10.3706 20.9796L10.0555 21.5005H10.0565L9.62417 22.2144H9.62499L9.53154 22.3678L7.91701 22.3678L7.9215 22.0043L7.92301 21.8575L7.92537 21.6909L7.92697 21.5005L7.92975 21.3366L7.9409 20.4348L8.28199 19.8971L8.38828 19.7289L8.49441 19.5622L8.61498 19.3719L8.71917 19.2079H8.71833L8.84161 19.0149L9.30287 18.2878V19.7289L9.30298 19.7393L9.30445 19.7369L9.30892 19.7289L9.41289 19.5622L9.66512 19.156L9.75229 19.0149L9.85614 18.8483L10.768 17.3797L10.8518 17.2432H10.8527L10.9561 17.0766H10.9552L11.0556 16.9165L11.2051 16.6757L11.2853 16.5451H11.2862L11.481 16.2313L11.506 16.1908L11.7803 15.7492L11.9442 16.0132L11.9494 16.0216L12.2745 16.5451H12.2755L12.3705 16.6998L12.5009 16.9099L12.6055 17.0766H12.6045L12.7079 17.2432H12.7089L12.8009 17.393L13.6482 18.7576L13.705 18.8483L13.808 19.0149L14.0672 19.4325L14.1485 19.5622L14.2513 19.7289L14.2574 19.7388L14.2578 15.4927Z" fill="none"/>
<path d="M15.9161 20.5248H17.5286L17.5399 20.5353L17.8784 20.8464L18.0237 20.9796L18.1212 21.0696H18.9602V22.3679H17.2344L17.1753 22.326L17.0176 22.2144L16.7873 22.0505L15.9161 21.4318V20.5248Z" fill="none"/>
</svg>
