<svg width="24" height="24" viewBox="0 0 24 24" fill="none" xmlns="http://www.w3.org/2000/svg">
<path fill-rule="evenodd" clip-rule="evenodd" d="M12.4038 3.74591C12.3872 4.34117 12.367 5.07528 12.3588 5.37712C12.3507 5.67896 12.4147 6.02891 12.501 6.15458C12.6093 6.31227 12.5562 6.38325 12.33 6.38325C12.0749 6.38325 12.0501 6.43209 12.218 6.60277C12.3471 6.73393 12.434 7.36651 12.434 8.17416C12.434 9.35224 12.382 9.56993 12.029 9.86921C11.8062 10.0582 11.5431 10.2153 11.4441 10.2186C11.2081 10.2265 11.2684 12.802 11.5081 12.9525C11.8501 13.1673 12.1206 15.5465 12.0272 17.5202C11.9398 19.3729 12.1529 21.2008 12.4565 21.2008C12.8156 21.2008 12.9414 19.6949 12.8444 16.562L12.7405 13.2154L13.3073 12.8053C13.6189 12.5797 13.8739 12.3103 13.8739 12.2065C13.8739 12.1028 13.6248 11.7814 13.3203 11.4924C12.7454 10.9467 12.7637 10.4921 13.3543 10.6491C13.5683 10.7059 13.6939 10.6441 13.6939 10.482C13.6939 10.3297 13.5107 10.2248 13.244 10.2248C12.8001 10.2248 12.794 10.2042 12.7967 8.71564C12.7983 7.88549 12.8698 7.09376 12.9556 6.95583C13.0424 6.81698 13.5823 6.65326 14.1678 6.58868C15.3777 6.45496 15.24 6.24184 13.8532 6.10153C13.33 6.04867 12.868 5.97074 12.8264 5.9283C12.7846 5.88604 12.74 5.19565 12.727 4.39441C12.6993 2.67996 12.4477 2.17507 12.4038 3.74591ZM10.1091 6.44929C10.3128 6.62856 11.7308 6.7418 11.6267 6.57057C11.5641 6.46758 11.1802 6.38325 10.7734 6.38325C10.3668 6.38325 10.0679 6.41288 10.1091 6.44929ZM6.67432 6.73832C4.00218 6.85412 3.61448 6.9829 2.56046 8.10519C1.98431 8.71875 1.47944 9.78945 1.46252 10.4337C1.45694 10.6436 1.19685 10.7864 0.599647 10.9081C-0.235148 11.078 -0.205809 11.1832 0.734639 11.3916C1.10506 11.4735 1.24131 11.6883 1.50464 12.6055C1.88316 13.9234 2.87904 15.1296 4.07382 15.7174C5.16906 16.2563 7.25334 16.4045 8.18119 16.0095C8.56457 15.8463 9.02427 15.7128 9.20264 15.7128C9.4917 15.7128 9.5295 15.5176 9.54894 13.9292C9.561 12.9483 9.58728 11.8987 9.60743 11.5968C9.63731 11.1496 9.56748 11.0371 9.22928 10.9882C9.00105 10.9555 8.69111 11.0325 8.54063 11.1594C8.37792 11.2966 8.21755 11.321 8.14556 11.2193C7.94127 10.931 5.56738 10.8891 5.39171 11.1704C5.12766 11.5937 5.20955 11.6426 6.31973 11.7241C6.98624 11.7732 7.51649 11.917 7.6936 12.097C8.07284 12.4826 8.37648 15.5401 8.05772 15.7646C7.72816 15.9964 5.89532 15.7884 5.16528 15.4362C2.75071 14.2717 2.33403 9.25675 4.53153 7.80866C5.48638 7.17937 7.01486 6.96369 8.01272 7.31748C8.7181 7.56755 8.88549 7.82183 9.30271 9.27596C9.34069 9.40822 9.45228 9.46566 9.55092 9.40365C9.66323 9.33304 9.63353 9.14114 9.471 8.88906C9.32845 8.66789 9.18752 8.05507 9.158 7.52731C9.1283 6.99955 9.10418 6.58246 9.10418 6.60057C9.10418 6.6185 8.01074 6.68051 6.67432 6.73832ZM2.38371 11.5361C2.35311 12.8144 2.45751 13.3347 2.74441 13.3347C2.83908 13.3347 2.8506 13.2324 2.77015 13.106C2.69005 12.9803 2.57684 12.3011 2.5187 11.5968L2.41269 10.3163L2.38371 11.5361ZM12.614 12.1456C12.614 12.5115 12.704 12.603 13.064 12.603C13.6059 12.603 13.6693 12.1515 13.1658 11.8776C12.6687 11.6073 12.614 11.6338 12.614 12.1456ZM12.1091 13.792C12.1127 14.0939 12.153 14.1952 12.1988 14.0172C12.2445 13.8392 12.2414 13.5923 12.1921 13.4684C12.1428 13.3446 12.1055 13.4902 12.1091 13.792ZM2.88516 13.8377C3.14687 14.2947 3.46473 14.6534 3.97734 15.0696C4.41832 15.4276 4.41796 15.4252 3.95142 14.8867C3.69134 14.5865 3.38481 14.1555 3.27016 13.9292C3.15551 13.7029 2.98092 13.5176 2.88192 13.5176C2.76313 13.5176 2.76421 13.6266 2.88516 13.8377Z" fill="none"/>
<path fill-rule="evenodd" clip-rule="evenodd" d="M12.4038 3.74591C12.3872 4.34117 12.367 5.07528 12.3588 5.37712C12.3507 5.67896 12.4147 6.02891 12.501 6.15458C12.6093 6.31227 12.5562 6.38325 12.33 6.38325C12.0749 6.38325 12.0501 6.43209 12.218 6.60277C12.3471 6.73393 12.434 7.36651 12.434 8.17416C12.434 9.35224 12.382 9.56993 12.029 9.86921C11.8062 10.0582 11.5431 10.2153 11.4441 10.2186C11.2081 10.2265 11.2684 12.802 11.5081 12.9525C11.8501 13.1673 12.1206 15.5465 12.0272 17.5202C11.9398 19.3729 12.1529 21.2008 12.4565 21.2008C12.8156 21.2008 12.9414 19.6949 12.8444 16.562L12.7405 13.2154L13.3073 12.8053C13.6189 12.5797 13.8739 12.3103 13.8739 12.2065C13.8739 12.1028 13.6248 11.7814 13.3203 11.4924C12.7454 10.9467 12.7637 10.4921 13.3543 10.6491C13.5683 10.7059 13.6939 10.6441 13.6939 10.482C13.6939 10.3297 13.5107 10.2248 13.244 10.2248C12.8001 10.2248 12.794 10.2042 12.7967 8.71564C12.7983 7.88549 12.8698 7.09376 12.9556 6.95583C13.0424 6.81698 13.5823 6.65326 14.1678 6.58868C15.3777 6.45496 15.24 6.24184 13.8532 6.10153C13.33 6.04867 12.868 5.97074 12.8264 5.9283C12.7846 5.88604 12.74 5.19565 12.727 4.39441C12.6993 2.67996 12.4477 2.17507 12.4038 3.74591ZM10.1091 6.44929C10.3128 6.62856 11.7308 6.7418 11.6267 6.57057C11.5641 6.46758 11.1802 6.38325 10.7734 6.38325C10.3668 6.38325 10.0679 6.41288 10.1091 6.44929ZM6.67432 6.73832C4.00218 6.85412 3.61448 6.9829 2.56046 8.10519C1.98431 8.71875 1.47944 9.78945 1.46252 10.4337C1.45694 10.6436 1.19685 10.7864 0.599647 10.9081C-0.235148 11.078 -0.205809 11.1832 0.734639 11.3916C1.10506 11.4735 1.24131 11.6883 1.50464 12.6055C1.88316 13.9234 2.87904 15.1296 4.07382 15.7174C5.16906 16.2563 7.25334 16.4045 8.18119 16.0095C8.56457 15.8463 9.02427 15.7128 9.20264 15.7128C9.4917 15.7128 9.5295 15.5176 9.54894 13.9292C9.561 12.9483 9.58728 11.8987 9.60743 11.5968C9.63731 11.1496 9.56748 11.0371 9.22928 10.9882C9.00105 10.9555 8.69111 11.0325 8.54063 11.1594C8.37792 11.2966 8.21755 11.321 8.14556 11.2193C7.94127 10.931 5.56738 10.8891 5.39171 11.1704C5.12766 11.5937 5.20955 11.6426 6.31973 11.7241C6.98624 11.7732 7.51649 11.917 7.6936 12.097C8.07284 12.4826 8.37648 15.5401 8.05772 15.7646C7.72816 15.9964 5.89532 15.7884 5.16528 15.4362C2.75071 14.2717 2.33403 9.25675 4.53153 7.80866C5.48638 7.17937 7.01486 6.96369 8.01272 7.31748C8.7181 7.56755 8.88549 7.82183 9.30271 9.27596C9.34069 9.40822 9.45228 9.46566 9.55092 9.40365C9.66323 9.33304 9.63353 9.14114 9.471 8.88906C9.32845 8.66789 9.18752 8.05507 9.158 7.52731C9.1283 6.99955 9.10418 6.58246 9.10418 6.60057C9.10418 6.6185 8.01074 6.68051 6.67432 6.73832ZM2.38371 11.5361C2.35311 12.8144 2.45751 13.3347 2.74441 13.3347C2.83908 13.3347 2.8506 13.2324 2.77015 13.106C2.69005 12.9803 2.57684 12.3011 2.5187 11.5968L2.41269 10.3163L2.38371 11.5361ZM12.614 12.1456C12.614 12.5115 12.704 12.603 13.064 12.603C13.6059 12.603 13.6693 12.1515 13.1658 11.8776C12.6687 11.6073 12.614 11.6338 12.614 12.1456ZM12.1091 13.792C12.1127 14.0939 12.153 14.1952 12.1988 14.0172C12.2445 13.8392 12.2414 13.5923 12.1921 13.4684C12.1428 13.3446 12.1055 13.4902 12.1091 13.792ZM2.88516 13.8377C3.14687 14.2947 3.46473 14.6534 3.97734 15.0696C4.41832 15.4276 4.41796 15.4252 3.95142 14.8867C3.69134 14.5865 3.38481 14.1555 3.27016 13.9292C3.15551 13.7029 2.98092 13.5176 2.88192 13.5176C2.76313 13.5176 2.76421 13.6266 2.88516 13.8377Z" fill="none"/>
<path d="M16.9423 8.10503C17.9964 6.98274 18.3841 6.85396 21.0562 6.73816C22.3926 6.68036 23.4861 6.61834 23.4861 6.60041C23.4861 6.5823 23.5102 6.99939 23.5399 7.52715C23.5694 8.05491 23.7103 8.66773 23.8529 8.8889C24.0154 9.14098 24.0451 9.33288 23.9328 9.40349C23.8342 9.4655 23.7226 9.40806 23.6846 9.2758C23.2674 7.82167 23.1 7.5674 22.3946 7.31733C21.3967 6.96353 19.8683 7.17921 18.9134 7.8085C16.7159 9.25659 17.1326 14.2715 19.5472 15.4361C20.2772 15.7882 22.11 15.9962 22.4396 15.7644C22.7584 15.54 22.4547 12.4824 22.0755 12.0968C21.8984 11.9168 21.3681 11.773 20.7016 11.724C19.5914 11.6424 19.5095 11.5936 19.7736 11.1703C19.9493 10.8889 22.3231 10.9308 22.5274 11.2191C22.5994 11.3208 22.7598 11.2965 22.9225 11.1593C23.073 11.0323 23.3829 10.9553 23.6112 10.988C23.9494 11.0369 24.0192 11.1494 23.9893 11.5967C23.9692 11.8985 23.9429 12.9482 23.9308 13.9291C23.9114 15.5175 23.8736 15.7126 23.5845 15.7126C23.4061 15.7126 22.9465 15.8462 22.5631 16.0094C21.6352 16.4043 19.5509 16.2561 18.4557 15.7172C17.2609 15.1295 16.265 13.9232 15.8865 12.6054C15.6232 11.6881 15.4869 11.4734 15.1165 11.3914C14.1761 11.1831 14.1467 11.0779 14.9815 10.9079C15.5787 10.7863 15.8388 10.6434 15.8444 10.4336C15.8613 9.78929 16.3662 8.71859 16.9423 8.10503Z" fill="none"/>
</svg>
