<svg width="24" height="24" viewBox="0 0 24 24" fill="none" xmlns="http://www.w3.org/2000/svg">
<path fill-rule="evenodd" clip-rule="evenodd" d="M10.2205 3.34086L10.0701 3.98502L9.57387 4.13299C9.11479 4.26981 9.06437 4.302 8.90013 4.56264C8.73521 4.82443 8.7226 4.88951 8.72266 5.48151C8.72266 5.96515 8.75274 6.19899 8.84747 6.45203C8.93845 6.69518 8.9722 6.93884 8.9722 7.35265C8.9722 7.77336 9.00596 8.01164 9.10293 8.27481C9.2185 8.58843 9.22399 8.6532 9.15036 8.83171C9.0922 8.97271 9.07223 9.27283 9.08428 9.8258C9.101 10.5956 9.09832 10.6142 8.98862 10.4861C8.89233 10.3736 8.82088 10.3579 8.50276 10.3792C8.20573 10.3991 7.99644 10.361 7.47458 10.1921L6.81937 9.98017L6.80065 9.58037C6.78992 9.35179 6.821 9.05414 6.8731 8.88532C6.92327 8.72291 6.98106 8.30491 7.00158 7.95638C7.02205 7.60784 7.08252 7.19574 7.13593 7.04061C7.2251 6.78162 7.22386 6.71261 7.12121 6.19671C7.05968 5.88772 6.99934 5.66535 6.98717 5.70248C6.9184 5.91205 6.85906 5.68956 6.81944 5.07353C6.79479 4.69046 6.75298 4.39059 6.72652 4.40713C6.70006 4.42373 6.62762 4.71581 6.56553 5.05617C6.47218 5.56776 6.44509 5.64209 6.40934 5.48493C6.38556 5.38037 6.36279 5.20218 6.35873 5.08887C6.34794 4.78773 6.24747 4.83742 6.19861 5.16808C6.15662 5.45255 6.15587 5.45325 5.90158 5.45325C5.7029 5.45325 5.58821 5.50185 5.38197 5.67346C5.06722 5.93537 5.05062 6.00292 4.98442 7.29099C4.95846 7.79637 4.90429 8.29034 4.86411 8.38869C4.80439 8.53482 4.81387 8.65858 4.91596 9.06466C4.98473 9.33804 5.04095 9.58259 5.04095 9.60806C5.04095 9.67815 4.0436 9.58563 3.71425 9.485C3.55519 9.43639 3.34957 9.33633 3.25735 9.26269C3.16512 9.18899 3.01891 9.12873 2.93243 9.12873C2.84588 9.12873 2.6807 9.0556 2.56532 8.96625C2.21987 8.69863 1.6207 8.37627 1.38551 8.33147C1.21322 8.29864 1.13528 8.31727 1.0282 8.41676C0.952883 8.48679 0.778972 8.60155 0.64169 8.67183C0.14448 8.92626 -0.0991953 9.41218 0.0377121 9.87618C0.215243 10.478 0.790017 10.8566 1.65252 10.9399C1.88596 10.9624 2.15847 11.0204 2.25812 11.0687C2.35778 11.117 2.51278 11.1566 2.60264 11.1566C2.69998 11.1566 2.93892 11.2846 3.19395 11.4734C3.45653 11.6679 3.6851 11.7893 3.78544 11.7877C3.87536 11.7864 4.2084 11.8648 4.52546 11.962L5.10198 12.1388L5.11153 12.5507C5.1167 12.7773 5.12625 13.0197 5.13274 13.0894C5.13917 13.1591 5.15121 13.872 5.15945 14.6736C5.16856 15.5565 5.19564 16.0812 5.22815 16.0044C5.25767 15.9347 5.28656 15.5782 5.29236 15.2123C5.29817 14.8463 5.32388 14.3045 5.34946 14.0082L5.39601 13.4696L5.41161 14.1984C5.42016 14.5992 5.45005 15.2693 5.47801 15.6876C5.50596 16.1058 5.57223 17.1609 5.62527 18.0323C5.72299 19.6369 5.81497 20.6455 5.86864 20.7C5.90127 20.7331 6.02582 19.2566 6.06963 18.3174C6.0851 17.9863 6.12261 17.5443 6.153 17.3352L6.20822 16.955L6.22176 17.3986C6.25384 18.4476 6.33346 17.9486 6.40978 16.2199C6.46849 14.8892 6.51879 14.2865 6.58612 14.1044C6.63798 13.9644 6.70325 13.6074 6.73114 13.3112C6.82012 12.3681 6.84109 12.2969 7.02898 12.3C7.4817 12.3076 7.7255 12.4078 7.9897 12.6949C8.19968 12.923 8.33222 13.0043 8.629 13.087C9.30811 13.2761 9.26449 13.2223 9.30705 13.9242C9.32776 14.2667 9.37244 14.8606 9.40633 15.244C9.44027 15.6274 9.48682 16.5919 9.50991 17.3875C9.533 18.183 9.57175 18.8013 9.59603 18.7614C9.6203 18.7215 9.6618 19.0972 9.68825 19.5963C9.71471 20.0953 9.75471 20.6605 9.77705 20.8522L9.8178 21.2008L9.86291 20.6621C9.88769 20.3659 9.9509 19.6387 10.0033 19.0462C10.0557 18.4537 10.0943 17.7265 10.0892 17.4302C10.084 17.134 10.1077 16.8203 10.1417 16.7332C10.1758 16.646 10.2222 16.0614 10.2447 15.4341C10.3148 13.4837 10.372 13.2832 10.4074 14.8637L10.4386 16.2579L10.5183 15.3073C10.5621 14.7845 10.6149 14.1525 10.6356 13.9029C10.6731 13.4516 10.6744 13.4487 10.8752 13.4105C11.15 13.3581 11.2291 13.4001 11.3751 13.6763C11.4785 13.8716 11.5298 13.9097 11.6673 13.8934C11.7847 13.8794 11.8544 13.9122 11.903 14.0043C11.9581 14.1089 11.9534 14.135 11.8797 14.135C11.7119 14.135 11.7076 14.2609 11.8732 14.3248C11.9991 14.3734 12.0887 14.3609 12.267 14.2697C12.5308 14.1348 13.0189 14.0477 13.1734 14.1079C13.2611 14.142 13.2779 14.2468 13.2779 14.7601C13.2779 15.0964 13.2505 15.4683 13.2171 15.5865C13.1748 15.7364 13.1857 16.0819 13.2529 16.7268C13.3682 17.8328 13.4547 18.1226 13.4608 17.4233C13.4632 17.158 13.4828 16.8093 13.5046 16.6484C13.5834 16.0645 13.6525 16.4477 13.6604 17.5132C13.6649 18.1124 13.686 18.8165 13.7072 19.0779L13.7459 19.5532L13.8272 18.6977C13.872 18.2271 13.9232 17.7423 13.941 17.6204C13.9588 17.4984 13.9941 16.8282 14.0195 16.1312C14.0463 15.3956 14.0971 14.7878 14.1407 14.6828C14.2134 14.5075 14.2205 14.5051 14.3697 14.6043C14.4875 14.6827 14.6042 14.6971 14.8677 14.6656C15.2249 14.623 15.9611 14.7409 15.9611 14.8407C15.9611 14.9377 16.1376 14.8994 16.4829 14.7274C16.9878 14.4759 17.0229 14.5129 17.0167 15.2895C17.0137 15.6478 16.991 16.1069 16.9661 16.3096C16.9309 16.5957 16.9447 16.7323 17.0273 16.9199C17.112 17.1118 17.1438 17.4595 17.1823 18.6108C17.2325 20.1114 17.2845 20.2069 17.3684 18.953C17.393 18.586 17.4515 18.1752 17.4983 18.0401C17.5452 17.9051 17.5882 17.5058 17.594 17.1529L17.6044 16.5114L17.6487 17.1768C17.6731 17.5427 17.7001 17.942 17.7087 18.0639C17.7173 18.1859 17.7625 17.6156 17.8091 16.7965C17.8616 15.8737 17.8733 15.1907 17.8398 15.0007L17.7858 14.6941L18.0122 14.7367C18.9069 14.905 19.3535 15.0463 19.553 15.2242C19.8862 15.5213 20.0429 15.2838 19.7315 14.9537L19.5707 14.7832L19.8482 14.8359C20.0009 14.8648 20.3517 14.9471 20.6279 15.0187C20.904 15.0903 21.2179 15.1489 21.3253 15.1489C21.4582 15.1489 21.5717 15.2047 21.6803 15.3232C21.8252 15.4815 21.8834 15.4985 22.3169 15.5083C22.5793 15.5142 23.0535 15.5385 23.3708 15.5621C23.88 15.6 23.9523 15.5924 23.9883 15.4973C24.0413 15.3572 23.9132 15.2779 23.632 15.2766C23.4737 15.2759 23.3488 15.2208 23.2002 15.086C22.9375 14.8478 22.4044 14.6419 22.0505 14.6419C21.8859 14.6419 21.7492 14.6047 21.702 14.5469C21.6592 14.4946 21.5469 14.4518 21.4524 14.4518C21.3578 14.4518 21.2453 14.4087 21.2023 14.3561C21.1012 14.2325 20.5253 14.0616 20.049 14.0139C19.7197 13.981 19.6655 13.9558 19.5932 13.8023C19.5101 13.6259 19.3604 13.5693 19.3181 13.6983C19.302 13.7473 19.1822 13.7362 18.9229 13.6617C18.7182 13.6029 18.3907 13.5347 18.1951 13.5102C17.9995 13.4856 17.8185 13.4441 17.7926 13.418C17.7669 13.3917 17.7935 13.1884 17.8518 12.9659C17.9271 12.6792 17.9582 12.3066 17.9589 11.6848C17.9594 11.2026 17.9834 10.7702 18.0123 10.724C18.0829 10.6108 18.1421 10.9895 18.1494 11.6002C18.1597 12.48 18.2146 11.9368 18.2897 10.2124C18.3334 9.20528 18.3414 8.44756 18.309 8.37393C18.2787 8.30498 18.2763 8.19706 18.3036 8.13413C18.3914 7.93192 18.3232 7.3953 18.1708 7.08985C18.0719 6.89163 17.9408 6.74676 17.7744 6.65177C17.5627 6.53099 17.5205 6.47123 17.4907 6.25089C17.4714 6.10844 17.4337 5.83506 17.4067 5.64336L17.3578 5.29482L17.2819 5.73842C17.1199 6.68568 17.078 6.74524 16.9812 6.16617L16.9203 5.80179L16.8688 6.20324C16.8405 6.42402 16.7969 6.57098 16.7719 6.52991C16.7433 6.48289 16.7107 6.51857 16.6842 6.62592C16.661 6.7199 16.5837 6.8768 16.5124 6.97471C16.3909 7.14175 16.3814 7.25309 16.3586 8.7902C16.3427 9.86497 16.3596 10.5803 16.4078 10.8714L16.4811 11.315L16.5635 11.0298C16.6408 10.7624 16.6441 10.7874 16.6156 11.4358C16.5988 11.8159 16.5851 12.3338 16.5851 12.5868V13.0468L16.2584 12.9255C16.0787 12.8588 15.8573 12.8042 15.7665 12.8042C15.6583 12.8042 15.5908 12.7638 15.5712 12.6872C15.5464 12.5914 15.458 12.5638 15.0802 12.534C14.3251 12.4745 14.3905 12.6493 14.4386 10.8163C14.4617 9.94038 14.4907 9.21187 14.5032 9.19736C14.5156 9.18285 14.5268 9.63911 14.5278 10.2113C14.5289 10.8019 14.5522 11.2106 14.5817 11.1566C14.6104 11.1043 14.666 10.3336 14.7054 9.44387C14.7695 7.99655 14.7663 7.78965 14.6754 7.47939C14.5564 7.07312 14.5965 6.13074 14.7517 5.68728C14.8792 5.3229 14.7794 4.65935 14.5878 4.59762C14.5236 4.5769 14.4392 4.46157 14.4001 4.34123C14.328 4.11943 14.2139 4.04358 14.2139 4.21753C14.2139 4.33191 14.2017 4.33312 13.9969 4.23838C13.9062 4.19636 13.8213 4.09313 13.8016 4.00074C13.7291 3.66164 13.7009 3.64605 13.6205 3.90068L13.5406 4.15416L13.5304 3.90068C13.5248 3.76126 13.4994 3.53313 13.4739 3.39371C13.4309 3.15867 13.4201 3.18732 13.3258 3.78819C13.2525 4.25593 13.1828 4.49382 13.0751 4.64369C12.7885 5.04255 12.7164 5.7476 12.8401 6.94245C12.8761 7.29099 12.9074 8.06683 12.9095 8.66663C12.9121 9.39184 12.9428 9.8694 13.0012 10.0925C13.088 10.4233 13.1305 11.9804 13.0528 11.9804C13.0319 11.9804 12.8739 11.8663 12.7015 11.7269C12.529 11.5875 12.3389 11.4734 12.279 11.4734C12.219 11.4734 12.1376 11.4338 12.0979 11.3853C11.9776 11.2381 11.3887 11.0109 11.1506 11.0198L10.9264 11.0281L10.8854 9.68797C10.8337 8.00372 10.841 7.25107 10.9066 7.51279C10.9328 7.61735 10.962 7.91677 10.9714 8.17817C10.9819 8.47145 11.0061 8.22608 11.0344 7.53725C11.0616 6.87826 11.1112 6.36255 11.1555 6.27833C11.2076 6.17966 11.2186 5.95723 11.1914 5.5568C11.1255 4.58748 11.0902 4.37595 10.9944 4.37595C10.9395 4.37595 10.9066 4.30821 10.9066 4.19471C10.9066 4.09497 10.8868 3.874 10.8626 3.70359L10.8185 3.39371L10.7438 3.71056C10.7026 3.88483 10.6663 3.96557 10.663 3.89003C10.6597 3.81443 10.6372 3.70036 10.6131 3.63655C10.5745 3.53452 10.5639 3.53959 10.5257 3.67888C10.4929 3.79871 10.4799 3.76012 10.4724 3.52045C10.4671 3.34619 10.442 3.08954 10.4168 2.95012C10.3724 2.70412 10.3666 2.71565 10.2205 3.34086ZM16.8202 12.6099C16.795 12.9038 16.788 13.1581 16.8046 13.1749C16.8797 13.2512 16.9011 13.0984 16.8841 12.6061L16.8659 12.0755L16.8202 12.6099Z" fill="none"/>
</svg>
