<svg width="25" height="25" viewBox="0 0 25 25" fill="none" xmlns="http://www.w3.org/2000/svg">
<g clip-path="url(#clip0_3037_28686)">
<path d="M24.9999 12.5754C24.9999 5.63027 19.4038 6.10352e-05 12.5009 6.10352e-05C5.59797 6.10352e-05 0.00195312 5.63027 0.00195312 12.5754C0.00195312 18.8521 4.57266 24.0546 10.5479 24.998V16.2105H7.37438V12.5754H10.5479V9.80489C10.5479 6.6532 12.414 4.9123 15.269 4.9123C16.6365 4.9123 18.0668 5.15791 18.0668 5.15791V8.25262H16.4908C14.9381 8.25262 14.4539 9.22201 14.4539 10.2165V12.5754H17.9204L17.3662 16.2105H14.4539V24.998C20.4291 24.0546 24.9999 18.8522 24.9999 12.5754Z" fill="#1877F2"/>
<path d="M17.428 16.1658L17.9786 12.5739H14.5342V10.243C14.5342 9.26019 15.0154 8.3024 16.5581 8.3024H18.1241V5.24441C18.1241 5.24441 16.7029 5.00171 15.3441 5.00171C12.5074 5.00171 10.6533 6.72195 10.6533 9.83625V12.5739H7.5V16.1658H10.6533V24.8491C11.2952 24.9497 11.944 25.0002 12.5938 25C13.2435 25.0002 13.8923 24.9497 14.5342 24.8491V16.1658H17.428Z" fill="white"/>
</g>
<defs>
<clipPath id="clip0_3037_28686">
<rect width="25" height="25" fill="white"/>
</clipPath>
</defs>
</svg>
