<svg width="25" height="25" viewBox="0 0 25 25" fill="none" xmlns="http://www.w3.org/2000/svg">
<g clip-path="url(#clip0_3005_37928)">
<path d="M24.1706 9.99049H23.1996V9.94046H12.3514V14.7619H19.1635C18.1697 17.5686 15.4992 19.5833 12.3514 19.5833C8.35747 19.5833 5.11928 16.3451 5.11928 12.3512C5.11928 8.35723 8.35747 5.11904 12.3514 5.11904C14.195 5.11904 15.8723 5.81453 17.1493 6.95058L20.5587 3.54122C18.4059 1.53491 15.5263 0.297607 12.3514 0.297607C5.69484 0.297607 0.297852 5.69459 0.297852 12.3512C0.297852 19.0078 5.69484 24.4048 12.3514 24.4048C19.008 24.4048 24.405 19.0078 24.405 12.3512C24.405 11.543 24.3218 10.7541 24.1706 9.99049Z" fill="#FFC107"/>
<path d="M1.68848 6.74084L5.64868 9.64515C6.72024 6.99216 9.31537 5.11904 12.3523 5.11904C14.1959 5.11904 15.8731 5.81453 17.1502 6.95058L20.5595 3.54122C18.4068 1.53491 15.5272 0.297607 12.3523 0.297607C7.72249 0.297607 3.70745 2.91142 1.68848 6.74084Z" fill="#FF3D00"/>
<path d="M12.3498 24.4052C15.4633 24.4052 18.2922 23.2137 20.4312 21.2761L16.7006 18.1193C15.4497 19.0706 13.9213 19.5851 12.3498 19.5838C9.2147 19.5838 6.55267 17.5847 5.54981 14.7949L1.61914 17.8234C3.61401 21.7269 7.66521 24.4052 12.3498 24.4052Z" fill="#4CAF50"/>
<path d="M24.1707 9.99002H23.1998V9.94H12.3516V14.7614H19.1636C18.6883 16.0972 17.8319 17.2645 16.7005 18.119L16.7023 18.1177L20.4329 21.2746C20.1689 21.5144 24.4051 18.3775 24.4051 12.3507C24.4051 11.5425 24.322 10.7536 24.1707 9.99002Z" fill="#1976D2"/>
</g>
<defs>
<clipPath id="clip0_3005_37928">
<rect width="25" height="25" fill="white"/>
</clipPath>
</defs>
</svg>
