<svg width="158" height="50" viewBox="0 0 158 50" fill="none" xmlns="http://www.w3.org/2000/svg">
<path d="M13.1292 13.48C9.79213 15.37 6.8191 17.2 6.54607 17.56C6.06067 18.1 6 18.94 6 25.12C6 30.22 6.09101 32.23 6.36404 32.59C6.94045 33.37 18.7416 40 19.5303 40C20.1978 40 31.3921 33.85 32.4843 32.89C32.9393 32.44 33 31.69 33 25.15C33 18.01 33 17.89 32.3326 17.29C31.5135 16.57 19.9247 10 19.5 10C19.318 10 16.4663 11.56 13.1292 13.48ZM25.264 14.41C28.3584 16.18 30.8764 17.71 30.8764 17.83C30.8764 17.95 28.3281 19.48 25.2034 21.25C20.9562 23.68 19.409 24.4 19.0753 24.19C18.8022 24.04 16.2236 22.57 13.3416 20.95C10.4899 19.3 8.1236 17.89 8.1236 17.8C8.1236 17.62 19.0146 11.29 19.409 11.23C19.5607 11.2 22.1697 12.64 25.264 14.41ZM13.6449 22.39L19.0146 25.45L19.0449 31.99C19.0449 37.24 18.9539 38.53 18.6506 38.44C18.4382 38.38 15.7685 36.94 12.7348 35.2L7.21348 32.08V25.51C7.21348 19.48 7.24382 18.94 7.72921 19.12C8.00225 19.24 10.6719 20.71 13.6449 22.39Z" fill="#6D6D91"/>
<path d="M90.1538 20.1083C90.1538 21.3625 89.7231 21.9167 88.7077 21.9167C88.0923 21.9167 88 22.0625 88 23.0833C88 24.1917 88.0615 24.25 88.9231 24.25H89.8462V27.0792C89.8462 31.4542 91.0769 33 94.5538 33H96V31.8333C96 30.6958 95.9692 30.6667 94.9846 30.6667C93.1077 30.6667 92.7692 30.1708 92.6769 27.05L92.5538 24.25H96V21.9167H92.9231V19H90.1538V20.1083Z" fill="#6D6D91"/>
<path d="M45.8458 21.2132C44.3336 21.6411 42.5886 23.5361 42.1524 25.1865C41.7743 26.7148 42.1233 29.1599 42.9376 30.4742C43.6356 31.6051 45.5841 32.7054 47.2708 32.9194C48.5214 33.1028 48.9576 33.0111 50.3245 32.247C51.2551 31.7274 52.1275 30.9632 52.4474 30.3825L53 29.4044L50.9061 28.3653L50.0627 29.3128C49.0158 30.5353 47.7652 30.8104 46.4275 30.1686C45.4096 29.649 44.508 28.1819 44.508 26.9898C44.508 25.1254 46.0785 23.2915 47.7071 23.2915C48.6377 23.2915 49.9755 24.1168 50.179 24.8198C50.4117 25.5533 50.6153 25.5839 51.953 24.9726L52.9709 24.5141L52.4474 23.5666C51.3423 21.6105 48.2887 20.5102 45.8458 21.2132Z" fill="#6D6D91"/>
<path d="M59.3509 21.2976C58.9469 21.4829 58.3253 21.8225 58.0456 22.1004C57.5173 22.5636 57.4862 22.5636 57.4862 21.946C57.4862 21.3594 57.2998 21.2667 56.2431 21.2667H55V33H57.797V29.1404C57.797 25.3425 57.8281 25.219 58.605 24.5088C59.0401 24.1074 59.786 23.7369 60.2211 23.6751C60.6873 23.6134 61.0291 23.4899 60.998 23.3355C60.9359 23.212 60.9048 22.6253 60.9048 22.0387C60.9048 20.8962 60.6873 20.7727 59.3509 21.2976Z" fill="#6D6D91"/>
<path d="M79.1561 21.6336C77.8008 22.3433 77.7105 22.3433 77.7105 21.8187C77.7105 21.325 77.4695 21.2324 76.3552 21.2324H75L75.0602 29.0082L75.1506 36.8149L76.4456 36.9074L77.7105 37V34.5315C77.7105 33.143 77.7707 32.0321 77.8309 32.0321C77.8912 32.0321 78.5236 32.3098 79.2464 32.6493C80.9028 33.3898 82.0472 33.4207 83.5832 32.6801C85.9925 31.5693 87.2573 29.1625 86.9562 26.262C86.655 23.2689 84.848 21.3558 82.0171 21.0473C80.8727 20.9239 80.2704 21.0164 79.1561 21.6336ZM82.5291 23.8552C85.5708 25.4597 84.3963 30.7979 81.0233 30.7979C79.9993 30.7979 78.6742 29.9339 78.1622 28.9465C76.5359 25.7374 79.5174 22.2507 82.5291 23.8552Z" fill="#6D6D91"/>
<path d="M99.8279 21.359C97.3975 22.2738 96 24.3167 96 27C96 28.921 96.3949 29.9883 97.5797 31.208C100.192 33.9217 105.084 33.4949 107.149 30.3237C107.878 29.2565 108 28.7381 108 27C108 25.201 107.878 24.7741 107.089 23.6459C105.509 21.3895 102.41 20.4138 99.8279 21.359ZM103.808 23.9813C106.025 25.323 105.843 29.043 103.504 30.2017C102.501 30.6896 102.137 30.7201 101.165 30.4152C99.5241 29.9273 98.7342 28.8296 98.7342 27.0305C98.7342 24.0728 101.377 22.4872 103.808 23.9813Z" fill="#6D6D91"/>
<path d="M114.271 21.3376C113.875 21.5217 113.264 21.8593 112.99 22.1355C112.471 22.5959 112.441 22.5959 112.441 21.9821C112.441 21.399 112.258 21.3069 111.22 21.3069H110V32.9693H112.746V29.0409C112.746 24.6829 112.99 23.9463 114.576 23.6087C116.986 23.087 117.627 24.2839 117.627 29.2864V32.9693H120.373V29.2864C120.373 25.3274 120.647 24.3146 121.807 23.7928C122.875 23.3018 123.546 23.3632 124.369 24.0384C125.071 24.5908 125.102 24.867 125.254 28.734L125.407 32.8159L126.719 32.9079L128 33V28.6726C128 25.3887 127.878 24.0691 127.542 23.3325C126.993 22.1355 125.102 21 123.759 21C122.569 21 120.647 21.7673 120.129 22.4731C119.763 22.9642 119.702 22.9642 119.397 22.4425C118.725 21.2455 115.98 20.6624 114.271 21.3376Z" fill="#6D6D91"/>
<path d="M145.202 21.5352C143.821 22.2018 143.389 22.8987 143.389 24.444C143.389 25.9287 144.224 26.7164 146.785 27.7466C149.203 28.7162 149.749 29.4131 148.857 30.3524C148.541 30.6857 148.023 30.9584 147.706 30.9584C146.9 30.9584 145.519 30.1706 145.317 29.6252C145.173 29.2313 144.972 29.2313 144.195 29.504C142.727 30.0191 142.669 30.2009 143.706 31.3825C146.612 34.6549 152.829 32.5642 151.908 28.6556C151.591 27.4133 150.526 26.5346 148.684 25.959C146.181 25.2015 145.26 24.1107 146.526 23.3835C147.389 22.8987 148.224 23.0199 148.857 23.6865C149.404 24.2622 149.577 24.2925 150.44 23.9289C151.591 23.5047 151.706 23.0502 150.814 22.1715C149.519 20.899 147.102 20.6263 145.202 21.5352Z" fill="#6D6D91"/>
<path d="M62.3385 22.796C62.5231 23.2678 63.4154 25.6854 64.3385 28.1914C65.2615 30.6975 66.2154 32.9087 66.4923 33.0856C66.8923 33.3805 66.8615 33.6163 66.3077 35.002C65.9692 35.8865 65.6923 36.7121 65.6923 36.83C65.6923 36.9774 66.2769 37.0364 66.9846 36.9774L68.2462 36.889L71.1385 29.6656C72.7077 25.6854 74 22.3538 74 22.2359C74 22.0884 73.3846 22 72.6462 22H71.2923L69.6923 26.4225C68.8 28.8401 68.0308 30.8449 67.9692 30.8449C67.9077 30.8449 67.2308 28.8401 66.4308 26.4225L64.9538 22H62L62.3385 22.796Z" fill="#6D6D91"/>
<path d="M130 24.8444C130 29.65 130.143 30.4561 131.314 31.6962C132.657 33.1534 134.429 33.4014 136.314 32.3783C137.629 31.6962 137.714 31.6652 137.714 32.2233C137.714 32.6573 137.943 32.7813 138.857 32.7813H140V21H137.429V24.8444C137.429 26.9527 137.343 28.9369 137.257 29.2159C137.029 29.805 135.686 30.6111 134.857 30.6111C134.514 30.6111 133.857 30.208 133.4 29.712C132.571 28.8129 132.571 28.7819 132.571 24.9064V21H130V24.8444Z" fill="#6D6D91"/>
</svg>
