<svg width="84" height="50" viewBox="0 0 84 50" fill="none" xmlns="http://www.w3.org/2000/svg">
<mask id="mask0_385_4224" style="mask-type:luminance" maskUnits="userSpaceOnUse" x="0" y="-2" width="84" height="55">
<path d="M84 -2H0V53H84V-2Z" fill="white"/>
</mask>
<g mask="url(#mask0_385_4224)">
<path d="M62.4828 25.7263H56.6739C56.0278 25.7263 55.5022 25.2121 55.5022 24.5683C55.5022 23.9246 56.0279 23.3579 56.6739 23.3579H65.5176V19H56.6739C53.5873 19 51.0759 21.5137 51.0759 24.5895C51.0759 27.6652 53.5873 30.1789 56.6739 30.1789H62.4039C63.05 30.1789 63.5757 30.6911 63.5757 31.3348C63.5757 31.9786 63.0499 32.4526 62.4039 32.4526H50.1166C49.0734 34.4421 48.0592 36.1474 46 37H62.4828C65.5176 36.9563 68 34.3908 68 31.3422C68 28.2939 65.5176 25.77 62.4828 25.7263Z" fill="#6D6D91"/>
</g>
<mask id="mask1_385_4224" style="mask-type:luminance" maskUnits="userSpaceOnUse" x="0" y="-2" width="84" height="55">
<path d="M84 -2H0V53H84V-2Z" fill="white"/>
</mask>
<g mask="url(#mask1_385_4224)">
<path d="M41.0118 19C36.0452 19 32 23.0787 32 28.0904V28.2822V47H36.4965V37.2192H41.0024C45.9691 37.2192 50 33.0862 50 28.0745C49.9999 23.0628 45.9785 19 41.0118 19ZM41.0118 32.6164H36.4965V28.0745C36.4965 25.5365 38.5125 23.4716 41.0118 23.4716C43.5111 23.4716 45.5443 25.5365 45.5443 28.0745C45.5443 30.6126 43.5111 32.6164 41.0118 32.6164Z" fill="#6D6D91"/>
</g>
<mask id="mask2_385_4224" style="mask-type:luminance" maskUnits="userSpaceOnUse" x="0" y="-2" width="84" height="55">
<path d="M84 -2H0V53H84V-2Z" fill="white"/>
</mask>
<g mask="url(#mask2_385_4224)">
<path d="M18.0195 37.12C13.7532 37.12 10.1665 34.08 9.19594 30.1084C9.19594 30.1084 8.91552 28.7954 8.91552 27.9307C8.91552 27.066 9.18096 25.7394 9.18096 25.7394C10.1585 21.7777 13.7409 18.8276 18.0001 18.8276C23.0095 18.8276 27.12 22.8997 27.12 27.909V30.112H13.811C14.597 31.648 16.1865 32.512 18.0195 32.512H29.9836L30 19.5214C30 17.5846 28.4155 16 26.4787 16H9.52147C7.58467 16 6 17.5366 6 19.4734V36.4306C6 38.3674 7.58467 40 9.52147 40H26.4787C28.2168 40 29.6667 38.752 29.9468 37.12H18.0195Z" fill="#272742"/>
</g>
<mask id="mask3_385_4224" style="mask-type:luminance" maskUnits="userSpaceOnUse" x="0" y="-2" width="84" height="55">
<path d="M84 -2H0V53H84V-2Z" fill="white"/>
</mask>
<g mask="url(#mask3_385_4224)">
<path d="M16.9999 24C15.2622 24 13.751 25.3111 13 27H21C20.249 25.3111 18.7379 24 16.9999 24Z" fill="#272742"/>
</g>
<mask id="mask4_385_4224" style="mask-type:luminance" maskUnits="userSpaceOnUse" x="0" y="-2" width="84" height="55">
<path d="M84 -2H0V53H84V-2Z" fill="white"/>
</mask>
<g mask="url(#mask4_385_4224)">
<path d="M25 11.399C25 7.31261 21.6412 4 17.4981 4C13.4236 4 10.1097 7.20426 10.0009 11.197C9.99912 11.2138 10.0005 11.2302 10.0005 11.2476V13.4711C10.0005 13.7371 10.2147 14 10.4844 14H13.2444C13.514 14 13.7504 13.7371 13.7504 13.4711V11.399C13.7504 9.35839 15.4313 7.6982 17.5003 7.6982C19.5693 7.6982 21.2501 9.35839 21.2501 11.399V13.4711C21.2501 13.7371 21.4688 14 21.7385 14H24.4985C24.7682 14 25 13.7371 25 13.4711V11.399Z" fill="#272742"/>
</g>
<mask id="mask5_385_4224" style="mask-type:luminance" maskUnits="userSpaceOnUse" x="0" y="-2" width="84" height="55">
<path d="M84 -2H0V53H84V-2Z" fill="white"/>
</mask>
<g mask="url(#mask5_385_4224)">
<path d="M46 43.0997L45.5715 45.3452C45.3573 46.4802 44.5538 47 43.4647 47C42.5423 47 41.8281 46.4435 42.0364 45.3471L42.4648 43.0998H43.1255L42.6968 45.3453C42.5658 46.0452 42.9051 46.4437 43.5479 46.4437C44.2086 46.4437 44.774 46.08 44.9107 45.3471L45.3393 43.0998H46V43.0997ZM43.4051 42.3965C43.4051 42.5838 43.5599 42.6718 43.7265 42.6718C43.9348 42.6718 44.161 42.5341 44.161 42.2753C44.161 42.0936 44.0299 42 43.8573 42C43.6434 42 43.4051 42.1266 43.4051 42.3965ZM44.8336 42.391C44.8336 42.5837 44.9942 42.6718 45.1669 42.6718C45.3513 42.6718 45.5955 42.5341 45.5955 42.2809C45.5955 42.0992 45.4524 42 45.2918 42C45.0776 42 44.8336 42.1266 44.8336 42.391Z" fill="#6D6D91"/>
</g>
<mask id="mask6_385_4224" style="mask-type:luminance" maskUnits="userSpaceOnUse" x="0" y="-2" width="84" height="55">
<path d="M84 -2H0V53H84V-2Z" fill="white"/>
</mask>
<g mask="url(#mask6_385_4224)">
<path d="M47.1792 43L46.9183 44.5947C47.1425 44.2665 47.5913 44.093 47.9043 44.093C48.5513 44.093 49 44.5043 49 45.2684C49 46.3497 48.3061 47 47.4192 47C47.0748 47 46.7825 46.8611 46.6052 46.5102L46.5061 46.9265H46L46.6417 43H47.1792ZM46.7723 45.6913C46.7515 46.1555 47.0279 46.4555 47.4296 46.4555C47.9357 46.4555 48.426 46.0307 48.4575 45.3856C48.4783 44.9157 48.1966 44.6381 47.8051 44.6381C47.3042 44.6381 46.8034 45.0742 46.7723 45.6913Z" fill="#6D6D91"/>
</g>
<mask id="mask7_385_4224" style="mask-type:luminance" maskUnits="userSpaceOnUse" x="0" y="-2" width="84" height="55">
<path d="M84 -2H0V53H84V-2Z" fill="white"/>
</mask>
<g mask="url(#mask7_385_4224)">
<path d="M49.6049 45.7354C49.5818 46.1281 49.8872 46.4487 50.4058 46.4487C50.6939 46.4487 51.074 46.3353 51.2814 46.138L51.604 46.5136C51.2528 46.8384 50.7341 47 50.2963 47C49.4783 47 49 46.5066 49 45.7521C49 44.7481 49.7835 44 50.7859 44C51.702 44 52.2206 44.5574 51.9094 45.7354H49.6049ZM51.4255 45.2446C51.4716 44.7537 51.1836 44.554 50.7053 44.554C50.2732 44.554 49.8758 44.7537 49.7028 45.2446H51.4255Z" fill="#6D6D91"/>
</g>
<mask id="mask8_385_4224" style="mask-type:luminance" maskUnits="userSpaceOnUse" x="0" y="-2" width="84" height="55">
<path d="M84 -2H0V53H84V-2Z" fill="white"/>
</mask>
<g mask="url(#mask8_385_4224)">
<path d="M54.2174 44.0641L54.184 44.4544C54.5035 44.0768 54.8893 44 55.2416 44C55.5609 44 55.8468 44.1019 56 44.2514L55.5877 44.7901C55.4413 44.6707 55.2949 44.6109 55.042 44.6109C54.5697 44.6109 54.1042 44.8657 53.9977 45.4103L53.6853 47H53L53.5787 44.0641H54.2174Z" fill="#6D6D91"/>
</g>
<mask id="mask9_385_4224" style="mask-type:luminance" maskUnits="userSpaceOnUse" x="0" y="-2" width="84" height="55">
<path d="M84 -2H0V53H84V-2Z" fill="white"/>
</mask>
<g mask="url(#mask9_385_4224)">
<path d="M58.2251 44L58.485 46.3725L59.4251 44H60L58.71 47H58.1051L57.8601 45.0209L57.4651 46.0041L57.0351 47H56.4351L56 44H56.5801L56.8351 46.3725L57.78 44H58.2251Z" fill="#6D6D91"/>
</g>
<mask id="mask10_385_4224" style="mask-type:luminance" maskUnits="userSpaceOnUse" x="0" y="-2" width="84" height="55">
<path d="M84 -2H0V53H84V-2Z" fill="white"/>
</mask>
<g mask="url(#mask10_385_4224)">
<path d="M60.6049 45.7354C60.5818 46.1281 60.8872 46.4487 61.4058 46.4487C61.6939 46.4487 62.074 46.3353 62.2813 46.138L62.604 46.5136C62.2528 46.8384 61.7341 47 61.2963 47C60.4782 47 60 46.5066 60 45.7521C60 44.7481 60.7835 44 61.786 44C62.702 44 63.2206 44.5574 62.9094 45.7354H60.6049ZM62.4254 45.2446C62.4715 44.7537 62.1835 44.554 61.7052 44.554C61.2732 44.554 60.8757 44.7537 60.7027 45.2446H62.4254Z" fill="#6D6D91"/>
</g>
<mask id="mask11_385_4224" style="mask-type:luminance" maskUnits="userSpaceOnUse" x="0" y="-2" width="84" height="55">
<path d="M84 -2H0V53H84V-2Z" fill="white"/>
</mask>
<g mask="url(#mask11_385_4224)">
<path d="M64.826 44.1896L64.4479 47H64L64.3783 44.1896H64.826ZM64.4304 43.424C64.4304 43.6244 64.5435 43.728 64.6652 43.728C64.8391 43.728 65 43.5788 65 43.2982C65 43.1089 64.8912 43 64.7739 43C64.613 43 64.4304 43.1377 64.4304 43.424Z" fill="#6D6D91"/>
</g>
<mask id="mask12_385_4224" style="mask-type:luminance" maskUnits="userSpaceOnUse" x="0" y="-2" width="84" height="55">
<path d="M84 -2H0V53H84V-2Z" fill="white"/>
</mask>
<g mask="url(#mask12_385_4224)">
<path d="M67.5589 44.7715C67.3571 44.5642 67.099 44.5066 66.7901 44.5066C66.3613 44.5066 66.0589 44.6391 66.0589 44.8866C66.0589 45.0939 66.3047 45.1806 66.6703 45.2092C67.2375 45.2552 67.9623 45.4281 67.811 46.1594C67.7039 46.6891 67.124 47 66.3172 47C65.8131 47 65.3277 46.8963 65 46.476L65.4222 46.0557C65.6554 46.3492 66.0651 46.4703 66.4306 46.476C66.7394 46.476 67.1051 46.3724 67.1617 46.1075C67.2184 45.8542 66.9726 45.7564 66.5189 45.7159C65.9894 45.6698 65.4097 45.4915 65.4097 44.9559C65.4097 44.2476 66.2477 44 66.8782 44C67.357 44 67.7101 44.0978 68 44.38L67.5589 44.7715Z" fill="#6D6D91"/>
</g>
<mask id="mask13_385_4224" style="mask-type:luminance" maskUnits="userSpaceOnUse" x="0" y="-2" width="84" height="55">
<path d="M84 -2H0V53H84V-2Z" fill="white"/>
</mask>
<g mask="url(#mask13_385_4224)">
<path d="M68.8802 44L68.614 45.5838C68.529 46.0875 68.7444 46.4354 69.2317 46.4354C69.6908 46.4354 70.0819 46.0331 70.1611 45.5417L70.4162 44H71L70.5071 46.941H69.9799L70.0195 46.5148C69.6907 46.8445 69.3676 47 68.9766 47C68.2908 47 67.8827 46.48 68.03 45.587L68.2964 44H68.8802Z" fill="#6D6D91"/>
</g>
<mask id="mask14_385_4224" style="mask-type:luminance" maskUnits="userSpaceOnUse" x="0" y="-2" width="84" height="55">
<path d="M84 -2H0V53H84V-2Z" fill="white"/>
</mask>
<g mask="url(#mask14_385_4224)">
<path d="M73.1154 47L73.3812 45.4183C73.466 44.9063 73.3022 44.5671 72.7704 44.5671C72.3066 44.5671 71.9161 44.9644 71.8371 45.4523L71.5825 47H71L71.4923 44.0449H72.0238L71.9843 44.4768C72.3068 44.1575 72.6403 44 73.0022 44C73.6812 44 74.1224 44.503 73.9698 45.4126L73.7037 47H73.1154Z" fill="#6D6D91"/>
</g>
<mask id="mask15_385_4224" style="mask-type:luminance" maskUnits="userSpaceOnUse" x="0" y="-2" width="84" height="55">
<path d="M84 -2H0V53H84V-2Z" fill="white"/>
</mask>
<g mask="url(#mask15_385_4224)">
</g>
<mask id="mask16_385_4224" style="mask-type:luminance" maskUnits="userSpaceOnUse" x="0" y="-2" width="84" height="55">
<path d="M84 -2H0V53H84V-2Z" fill="white"/>
</mask>
<g mask="url(#mask16_385_4224)">
<path d="M75.5137 46.9908C75.4789 47.3466 75.7379 47.4905 76.1716 47.4905C76.5502 47.4905 76.9588 47.2673 77.0534 46.6996L77.128 46.2567C76.9039 46.5879 76.4954 46.7186 76.1916 46.7186C75.5638 46.7186 75.1255 46.3241 75.1255 45.6088C75.1255 44.5891 75.8427 44 76.6547 44C76.9986 44 77.3075 44.1724 77.4172 44.4668L77.5019 44.0557H78L77.5715 46.7116C77.4122 47.6949 76.7197 48 76.087 48C75.3297 48 74.9114 47.6132 75.0158 46.9906H75.5137V46.9908ZM75.6583 45.5037C75.6583 45.9451 75.9323 46.2134 76.3261 46.2134C77.387 46.2134 77.6711 44.4942 76.6098 44.4942C76.1066 44.4942 75.6583 44.8883 75.6583 45.5037Z" fill="#6D6D91"/>
</g>
</svg>
