<svg width="108" height="50" viewBox="0 0 108 50" fill="none" xmlns="http://www.w3.org/2000/svg">
<path fill-rule="evenodd" clip-rule="evenodd" d="M13.6442 28.0771C11.1259 28.0771 8.20635 29.2566 6.62402 30.4797L8.07263 33.4502C9.34295 32.3145 11.3933 31.3534 13.2431 31.3534C15.0037 31.3534 15.962 31.9213 15.962 33.0789C15.962 33.8652 15.3157 34.2584 14.1122 34.4113C9.56581 34.9792 6 36.2024 6 39.6316C6 42.34 7.98348 44 11.059 44C13.2653 44 15.2265 42.7987 16.1626 41.226V43.5632H20.2632V33.756C20.2632 29.7152 17.3883 28.0771 13.6442 28.0771ZM12.1065 40.8547C10.9476 40.8547 10.3681 40.3087 10.3681 39.3913C10.3681 37.6876 12.307 37.1197 15.8506 36.7484C15.8728 39.02 14.2905 40.8547 12.1065 40.8547ZM58.93 31.0476V28.5139H54.8293V43.5632H59.2197V36.3116C59.2197 32.8605 61.3369 31.8558 62.8301 31.8558C63.4095 31.8558 64.1896 32.0305 64.7021 32.4018L65.5045 28.4266C64.8359 28.1426 64.1227 28.0771 63.5433 28.0771C61.2923 28.0771 59.866 29.06 58.93 31.0476ZM85.8741 28.0771C83.5564 28.0771 81.818 29.4313 80.9043 30.72C80.0574 29.0381 78.2968 28.0771 76.1573 28.0771C73.8395 28.0771 72.2349 29.3439 71.4772 30.7855V28.5139H67.2428V43.5632H71.6332V35.8092C71.6332 33.0352 73.1264 31.7029 74.5081 31.7029C75.7562 31.7029 76.9151 32.4892 76.9151 34.5424V43.5632H81.3277V35.8092C81.3277 32.9916 82.7764 31.7029 84.225 31.7029C85.3839 31.7029 86.6096 32.5329 86.6096 34.5205V43.5632H91V33.1663C91 29.7808 88.6822 28.0771 85.8741 28.0771ZM35.7745 27.4V28.5139H29.1109V26.985C29.1109 24.9973 30.2698 24.4294 31.2727 24.4294C31.8521 24.4294 32.6099 24.5605 33.2339 24.91L34.5933 21.8739C33.791 21.4152 32.4761 21.0002 30.7155 21.0002C27.9074 21.0002 24.7205 22.551 24.7205 27.4218V28.5358H22.1799V31.8558H24.7205V43.5632H29.1109V31.8339H35.7745V43.5632H40.1649V31.8339H44.1542V28.5139H40.1649V26.985C40.1649 24.9973 41.3238 24.4294 42.3267 24.4294C43.441 24.4294 44.2879 24.91 44.2879 24.91L45.6474 21.8739C45.6474 21.8739 44.2656 21.0002 41.7695 21.0002C38.9837 20.9784 35.7745 22.5292 35.7745 27.4ZM46.7617 28.5139H51.1521V43.5632H46.7617V28.5139Z" fill="#272742"/>
<path fill-rule="evenodd" clip-rule="evenodd" d="M72.247 7C60.4651 7 49.9676 15.2745 47 25.9261H51.2743C53.7547 17.9879 62.1925 11.0364 72.247 11.0364C84.4719 11.0364 95.0136 20.4545 95.0136 35.12C95.0136 38.4164 94.5928 41.3764 93.7956 44H97.937L97.9813 43.8655C98.6678 41.1521 99 38.2145 99 35.12C99 18.7727 87.2402 7 72.247 7Z" fill="#6D6D91"/>
</svg>
