<svg width="129" height="50" viewBox="0 0 129 50" fill="none" xmlns="http://www.w3.org/2000/svg">
<path fill-rule="evenodd" clip-rule="evenodd" d="M109.617 44H14L20.3689 6H116L109.617 44Z" fill="#272742"/>
<path fill-rule="evenodd" clip-rule="evenodd" d="M44.5057 28.649C42.893 28.649 41.7628 27.5623 41.7628 25.8608C41.7628 23.9734 43.1687 22.2146 45.1948 22.2146C46.8075 22.2146 47.9377 23.3585 47.9377 25.0601C47.9515 26.9332 46.5318 28.649 44.5057 28.649ZM45.4567 18.9545C41.2115 18.9545 38 22.1717 38 26.0181C38 29.5069 40.6464 31.9091 44.2576 31.9091C48.5028 31.9091 51.7143 28.5918 51.7143 24.7455C51.7005 21.2709 49.0679 18.9545 45.4567 18.9545Z" fill="#6D6D91"/>
<path fill-rule="evenodd" clip-rule="evenodd" d="M70.2337 28.649C68.6211 28.649 67.4909 27.5623 67.4909 25.8608C67.4909 23.9734 68.8968 22.2146 70.9229 22.2146C72.5355 22.2146 73.6657 23.3585 73.6657 25.0601C73.6657 26.9332 72.2599 28.649 70.2337 28.649ZM71.171 18.9545C66.9258 18.9545 63.7143 22.1717 63.7143 26.0181C63.7143 29.5069 66.3607 31.9091 69.9719 31.9091C74.2171 31.9091 77.4286 28.5918 77.4286 24.7455C77.4286 21.2709 74.7822 18.9545 71.171 18.9545Z" fill="#6D6D91"/>
<path fill-rule="evenodd" clip-rule="evenodd" d="M83.5413 24.6665H83.0036L83.4069 22.1371H83.8907C85.0332 22.1371 85.6516 22.4984 85.6516 23.2628C85.6516 24.2078 84.7779 24.6665 83.5413 24.6665ZM89.4286 22.6791C89.4286 20.4138 87.7081 18.9545 84.6031 18.9545H80.2078L78.2857 31.0455H81.9821L82.5869 27.2375H82.7617L84.7241 31.0455H88.9581L86.243 26.8206C88.2323 26.1118 89.4286 24.5692 89.4286 22.6791Z" fill="#6D6D91"/>
<path fill-rule="evenodd" clip-rule="evenodd" d="M33.8045 24.162C32.3117 23.4202 31.9672 23.2204 31.9672 22.8209C31.9672 22.3216 32.5557 22.079 33.3882 22.079C34.3356 22.079 35.7854 22.1789 37.1921 23.5058C37.5366 22.4357 38.1107 21.4798 38.8571 20.6381C36.8619 19.5252 35.0246 18.9545 33.3308 18.9545C29.9576 18.9545 28.0342 20.7379 28.0342 22.878C28.0342 24.7185 29.4409 25.6886 31.1203 26.5304C32.6131 27.3008 33.0007 27.5291 33.0007 27.9999C33.0007 28.4992 32.3691 28.7846 31.5366 28.7846C30.0868 28.7846 28.4217 27.8858 27.4313 26.9727L26.8571 30.4253C27.8906 31.1529 29.3691 31.9091 31.594 31.9091C35.0677 31.9091 36.9481 30.1828 36.9481 27.9571C36.9193 26.1309 35.7136 25.1322 33.8045 24.162Z" fill="#6D6D91"/>
<path fill-rule="evenodd" clip-rule="evenodd" d="M61.9852 24.2495H57.5143L57.8615 22.1371H62.6516C63.2765 20.8585 64.2345 19.7745 65.4286 18.9545H57.5838C55.8482 18.9545 54.3625 20.1358 54.0987 21.7341L52.5714 31.0455H56.3897L57.0145 27.2375H61.5548L61.888 25.1668C61.9019 24.861 61.9296 24.5553 61.9852 24.2495Z" fill="#6D6D91"/>
<path fill-rule="evenodd" clip-rule="evenodd" d="M90.2857 18.9545C91.2993 19.7337 91.938 20.819 92.0629 22.1408H95.2564L93.7846 31.0455H97.6029L99.0747 22.1408H102.615L103.143 18.9545H90.2857Z" fill="#6D6D91"/>
</svg>
