<svg width="74" height="50" viewBox="0 0 74 50" fill="none" xmlns="http://www.w3.org/2000/svg">
<path d="M16.0594 14.481C15.2859 15.393 14.0483 16.1123 12.8106 16.0095C12.6559 14.7764 13.2619 13.4662 13.9709 12.657C14.7445 11.7193 16.0981 11.0514 17.194 11C17.3229 12.2845 16.8201 13.5433 16.0594 14.481ZM17.1811 16.2536C15.3891 16.1508 13.8549 17.2683 13.004 17.2683C12.1402 17.2683 10.8381 16.3049 9.42001 16.3306C7.57644 16.3563 5.86179 17.3968 4.92067 19.0538C2.98685 22.3677 4.41788 27.2745 6.28723 29.9719C7.20257 31.3078 8.2984 32.7721 9.74232 32.7207C11.1089 32.6694 11.6503 31.8344 13.3005 31.8344C14.9636 31.8344 15.4406 32.7207 16.8845 32.6951C18.38 32.6694 19.3211 31.3592 20.2365 30.0233C21.2807 28.5076 21.7062 27.0304 21.732 26.9534C21.7062 26.9277 18.8441 25.8359 18.8184 22.5476C18.7926 19.7988 21.0745 18.4886 21.1776 18.4115C19.8884 16.5105 17.8772 16.3049 17.1811 16.2536ZM27.5334 12.5285V32.5538H30.6533V25.7074H34.9722C38.9171 25.7074 41.6889 23.01 41.6889 19.1051C41.6889 15.2003 38.9687 12.5285 35.0753 12.5285H27.5334ZM30.6533 15.1489H34.2502C36.9575 15.1489 38.5046 16.5875 38.5046 19.118C38.5046 21.6484 36.9575 23.0999 34.2373 23.0999H30.6533V15.1489ZM47.3873 32.7079C49.3469 32.7079 51.1646 31.7188 51.9897 30.1518H52.0542V32.5538H54.942V22.5861C54.942 19.696 52.6214 17.8335 49.0503 17.8335C45.7371 17.8335 43.2876 19.7217 43.1973 22.3164H46.0078C46.2399 21.0833 47.3873 20.274 48.9601 20.274C50.8681 20.274 51.9382 21.1603 51.9382 22.7916V23.8963L48.0448 24.1275C44.4221 24.3459 42.4625 25.823 42.4625 28.392C42.4625 30.9867 44.4865 32.7079 47.3873 32.7079ZM48.2252 30.3316C46.5622 30.3316 45.505 29.5352 45.505 28.3149C45.505 27.0561 46.5235 26.324 48.4702 26.2084L51.9382 25.99V27.1204C51.9382 28.9957 50.3395 30.3316 48.2252 30.3316ZM58.7968 38C61.8393 38 63.2703 36.844 64.5209 33.3373L70 18.0262H66.8285L63.1543 29.8563H63.0898L59.4156 18.0262H56.1539L61.4396 32.6051L61.156 33.4914C60.679 34.9943 59.9055 35.5723 58.526 35.5723C58.2811 35.5723 57.8041 35.5466 57.6107 35.5209V37.9229C57.7912 37.9743 58.5647 38 58.7968 38Z" fill="#6D6D91"/>
</svg>
