<svg width="60" height="50" viewBox="0 0 60 50" fill="none" xmlns="http://www.w3.org/2000/svg">
<path d="M13.7634 46.9084V44.263C13.7634 43.2484 13.136 42.5873 12.1061 42.5873C11.5652 42.5873 10.9864 42.764 10.5829 43.3325C10.2692 42.8471 9.82567 42.5873 9.14954 42.5873C8.89816 42.5766 8.648 42.6274 8.42145 42.7352C8.19491 42.8429 7.99904 43.0043 7.85138 43.2048V42.6725H7V46.9053H7.85138V44.4833C7.85138 43.7381 8.29924 43.3815 8.92669 43.3815C9.55414 43.3815 9.91221 43.7786 9.91221 44.4833V46.9084H10.7636V44.4833C10.7636 43.7381 11.2115 43.3815 11.8389 43.3815C12.4663 43.3815 12.8244 43.7786 12.8244 44.4833V46.9084H13.7634ZM27.7425 42.7193H26.1739V41.4418H25.3247V42.7193H24.4289V43.4645H25.3247V45.4532C25.3247 46.423 25.6827 46.9968 26.758 46.9968C27.1654 46.9884 27.5646 46.8825 27.921 46.6881L27.6516 45.9429C27.4099 46.0915 27.1296 46.1681 26.8446 46.1632C26.3967 46.1632 26.1728 45.8982 26.1728 45.4574V43.4304H27.7414V42.7246L27.7425 42.7193ZM35.7175 42.5873C35.4856 42.5822 35.2564 42.6364 35.0522 42.7447C34.8479 42.8529 34.6757 43.0114 34.5524 43.2048V42.6725H33.7011V46.9053H34.5524V44.528C34.5524 43.8222 34.9105 43.3815 35.4936 43.3815C35.6904 43.3893 35.8856 43.419 36.0756 43.4698L36.345 42.6757C36.1395 42.6247 35.9292 42.5951 35.7175 42.5873ZM23.6652 43.028C23.2173 42.7193 22.5899 42.5873 21.9181 42.5873C20.8427 42.5873 20.1709 43.0727 20.1709 43.9106C20.1709 44.6164 20.6642 45.0124 21.6043 45.1455L22.0522 45.1891C22.5455 45.2775 22.8592 45.4542 22.8592 45.6746C22.8592 45.9833 22.5012 46.2069 21.8283 46.2069C21.3145 46.2173 20.8113 46.0626 20.3949 45.7661L19.947 46.4273C20.5745 46.868 21.3361 46.9595 21.7861 46.9595C23.041 46.9595 23.7128 46.3868 23.7128 45.5926C23.7128 44.8474 23.1719 44.4908 22.2339 44.3577L21.7861 44.314C21.3826 44.2704 21.0288 44.1373 21.0288 43.8733C21.0288 43.5646 21.3869 43.341 21.8802 43.341C22.4211 43.341 22.9555 43.5614 23.2249 43.6934L23.6652 43.028ZM36.6587 44.7921C36.6587 46.0696 37.5101 46.9968 38.8991 46.9968C39.5266 46.9968 39.9744 46.8648 40.4223 46.5114L39.9744 45.8503C39.6573 46.103 39.2628 46.2429 38.8548 46.2473C38.0975 46.2473 37.5101 45.6746 37.5101 44.8368C37.5101 43.9989 38.0899 43.4304 38.8548 43.4304C39.2628 43.4349 39.6573 43.5748 39.9744 43.8275L40.4223 43.1664C39.9744 42.814 39.5266 42.681 38.8991 42.681C37.5544 42.5926 36.6587 43.5188 36.6587 44.7974V44.7921ZM30.6547 42.5873C29.3998 42.5873 28.5484 43.4688 28.5484 44.7921C28.5484 46.1153 29.4442 46.9968 30.7434 46.9968C31.3755 47.0099 31.9927 46.8076 32.4905 46.4241L32.0427 45.8066C31.6826 46.0811 31.243 46.2355 30.7878 46.2473C30.2057 46.2473 29.5783 45.895 29.4896 45.1455H32.6712V44.7931C32.6712 43.4698 31.8642 42.5884 30.6547 42.5884V42.5873ZM30.6103 43.3815C31.2378 43.3815 31.6857 43.7786 31.73 44.4397H29.4009C29.535 43.8222 29.9418 43.3815 30.6103 43.3815ZM19.0058 42.6757H18.1545V43.2079C17.8407 42.8109 17.3972 42.5905 16.7654 42.5905C15.556 42.5905 14.6592 43.5167 14.6592 44.7952C14.6592 46.0738 15.5549 47 16.7654 47C17.3929 47 17.8407 46.7796 18.1545 46.3825V46.9148H19.0058V42.6757ZM15.556 44.7921C15.556 43.9979 16.0493 43.3815 16.9007 43.3815C17.7077 43.3815 18.1988 43.9989 18.1988 44.7921C18.1988 45.6299 17.6579 46.2026 16.9007 46.2026C16.0493 46.2463 15.556 45.5852 15.556 44.7921ZM48.6678 42.5873C48.4359 42.5822 48.2066 42.6364 48.0024 42.7447C47.7982 42.8529 47.626 43.0114 47.5027 43.2048V42.6725H46.6513V46.9053H47.5016V44.528C47.5016 43.8222 47.8597 43.3815 48.4428 43.3815C48.6395 43.3893 48.8348 43.419 49.0248 43.4698L49.2942 42.6757C49.0887 42.6247 48.8784 42.5951 48.6667 42.5873H48.6678ZM45.3521 42.6757H44.5007V43.2079C44.187 42.8109 43.7434 42.5905 43.1117 42.5905C41.9022 42.5905 41.0054 43.5167 41.0054 44.7952C41.0054 46.0738 41.9011 47 43.1117 47C43.7391 47 44.187 46.7796 44.5007 46.3825V46.9148H45.3521V42.6757ZM41.9022 44.7921C41.9022 43.9979 42.3955 43.3815 43.2469 43.3815C44.0539 43.3815 44.545 43.9989 44.545 44.7921C44.545 45.6299 44.0041 46.2026 43.2469 46.2026C42.3955 46.2463 41.9022 45.5852 41.9022 44.7921ZM54 41H53.1486V43.2048C52.8349 42.8077 52.3914 42.5873 51.7596 42.5873C50.5501 42.5873 49.6533 43.5135 49.6533 44.7921C49.6533 46.0706 50.549 46.9968 51.7596 46.9968C52.387 46.9968 52.8349 46.7764 53.1486 46.3793V46.9116H54V41ZM50.5501 44.7921C50.5501 43.9979 51.0434 43.3815 51.8948 43.3815C52.7018 43.3815 53.193 43.9989 53.193 44.7921C53.193 45.6299 52.6521 46.2026 51.8948 46.2026C51.0424 46.2473 50.549 45.5862 50.549 44.7921H50.5501Z" fill="#6D6D91"/>
<path d="M37 9H22V35H37V9Z" fill="#272742"/>
<path d="M23.8852 21.5C23.8857 19.0044 24.436 16.5412 25.495 14.295C26.5539 12.0487 28.094 10.0775 30 8.52908C27.6297 6.61539 24.7828 5.42514 21.7849 5.09441C18.7869 4.76368 15.7588 5.30581 13.0467 6.65882C10.3346 8.01183 8.04796 10.1211 6.44817 12.7456C4.84838 15.3701 4 18.4038 4 21.5C4 24.5962 4.84838 27.6299 6.44817 30.2544C8.04796 32.8789 10.3346 34.9882 13.0467 36.3412C15.7588 37.6942 18.7869 38.2363 21.7849 37.9056C24.7828 37.5749 27.6297 36.3846 30 34.4709C28.094 32.9225 26.5539 30.9513 25.495 28.705C24.436 26.4588 23.8857 23.9956 23.8852 21.5Z" fill="#272742"/>
<path d="M56 21.5C56.0022 24.5948 55.1554 27.6278 53.5566 30.252C51.9577 32.8763 49.6713 34.9858 46.9589 36.3394C44.2464 37.6929 41.2175 38.2359 38.2184 37.9061C35.2194 37.5763 32.3713 36.3872 30 34.4746C31.9084 32.9261 33.4505 30.9545 34.5106 28.7075C35.5708 26.4605 36.1215 23.9964 36.1215 21.5C36.1215 19.0036 35.5708 16.5395 34.5106 14.2925C33.4505 12.0455 31.9084 10.0739 30 8.52542C32.3713 6.61284 35.2194 5.42366 38.2184 5.09388C41.2175 4.76411 44.2464 5.30705 46.9589 6.66062C49.6713 8.01419 51.9577 10.1237 53.5566 12.748C55.1554 15.3722 56.0022 18.4052 56 21.5Z" fill="#6D6D91"/>
</svg>
