<svg width="73" height="50" viewBox="0 0 73 50" fill="none" xmlns="http://www.w3.org/2000/svg">
<path d="M69 18.3341L60.5158 37H57.8915L61.0439 30.468L55.4582 18.3321H58.2185L62.2606 27.6341H62.3134L66.2275 18.3321L69 18.3341ZM33.7511 24.1061V31.668H31.0841V13.0022H38.1404C39.8222 12.9602 41.4512 13.5341 42.7106 14.6161C43.9597 15.6261 44.6463 17.0541 44.6259 18.5641C44.6463 20.0961 43.9374 21.5641 42.7106 22.5221C41.4837 23.5841 39.9604 24.1061 38.1404 24.1061H33.7511ZM33.7409 15.3041V21.8141H38.2054C39.1885 21.8461 40.1513 21.4921 40.8398 20.8561C41.5284 20.2521 41.9082 19.4281 41.9082 18.5741C41.9082 17.7101 41.5264 16.8861 40.8398 16.2921C40.131 15.6261 39.1784 15.2721 38.2054 15.3021L33.7409 15.3041ZM49.9679 18.3341C51.6599 18.3341 53.0045 18.8021 53.9876 19.7301C54.9707 20.6581 55.4582 21.9281 55.4582 23.5421V31.26H53.2584V29.52H53.163C52.2103 30.948 50.951 31.666 49.3748 31.666C48.02 31.666 46.8988 31.26 45.9889 30.436C45.0992 29.666 44.6036 28.5401 44.6239 27.3741C44.6239 26.0821 45.0992 25.0521 46.062 24.2801C47.0146 23.5201 48.2942 23.1341 49.8907 23.1341C51.2557 23.1341 52.3769 23.3941 53.2544 23.9041V23.3621C53.2645 22.5701 52.9152 21.8101 52.3119 21.2781C51.7086 20.7261 50.9145 20.4141 50.0898 20.4241C48.8102 20.4241 47.7946 20.9761 47.043 22.0801L45.022 20.7881C46.1331 19.1521 47.7824 18.3301 49.9618 18.3301L49.9679 18.3341ZM46.9963 27.4281C46.9862 28.0321 47.2705 28.5941 47.758 28.9601C48.2658 29.366 48.9016 29.586 49.5454 29.574C50.5082 29.574 51.4385 29.178 52.1271 28.4801C52.8563 27.8141 53.2706 26.8761 53.2706 25.8961C52.5516 25.3121 51.5563 25.0201 50.2767 25.0201C49.3342 25.0201 48.5624 25.2501 47.9388 25.7081C47.3152 26.1761 46.9963 26.7421 46.9963 27.4281ZM15.0582 13.0022C17.7881 12.9702 20.4327 13.9601 22.4537 15.7841L19.3013 18.8261C18.1476 17.7741 16.6242 17.2001 15.0582 17.2321C12.245 17.2421 9.75888 19.0141 8.84891 21.6281C8.38377 22.9501 8.38377 24.3881 8.84891 25.7121C9.75888 28.3261 12.245 30.098 15.0582 30.108C16.5491 30.108 17.8307 29.744 18.824 29.098C19.9777 28.3481 20.782 27.1821 21.0238 25.8481H15.0562V21.7441H25.4761C25.604 22.4621 25.667 23.1821 25.667 23.9101C25.667 27.1601 24.4605 29.91 22.3765 31.764C20.5464 33.39 18.04 34.336 15.0562 34.336C10.8984 34.356 7.08992 32.086 5.17452 28.4601C3.60849 25.4501 3.60849 21.8881 5.17452 18.8761C7.08992 15.2501 10.8984 12.9802 15.044 13.0002L15.0582 13.0022Z" fill="#6D6D91"/>
</svg>
