<svg width="94" height="50" viewBox="0 0 94 50" fill="none" xmlns="http://www.w3.org/2000/svg">
<path fill-rule="evenodd" clip-rule="evenodd" d="M80 25.4655C80 20.6803 77.7616 16.9033 73.4811 16.9033C69.1849 16.9033 66.5836 20.6795 66.5836 25.4273C66.5836 31.0541 69.653 33.8952 74.0584 33.8952C76.2072 33.8952 77.8323 33.3911 79.0599 32.6804V28.9416C77.8323 29.5775 76.424 29.9694 74.6364 29.9694C72.8849 29.9694 71.3322 29.3336 71.1335 27.1284H79.9615C79.9615 26.8844 79.9976 25.9135 79.9976 25.4647L80 25.4655ZM71.0879 23.6905C71.0879 21.578 72.3336 20.6998 73.4716 20.6998C74.5728 20.6998 75.747 21.578 75.747 23.6905H71.0879ZM59.6232 16.9049C57.8537 16.9049 56.7172 17.7644 56.0842 18.3629L55.8485 17.2042H51.8689V39L56.3826 38.0096L56.4007 32.7194C57.051 33.2057 58.0076 33.8968 59.5973 33.8968C62.8293 33.8968 65.7722 31.2135 65.7722 25.2793C65.7542 19.8582 62.7751 16.9041 59.6146 16.9041L59.6232 16.9049ZM58.5394 29.7848C57.4744 29.7848 56.8429 29.3921 56.4086 28.9067L56.3905 21.9707C56.8602 21.4283 57.5097 21.0551 58.5394 21.0551C60.1825 21.0551 61.3197 22.9619 61.3197 25.4102C61.3197 27.9147 60.2005 29.7848 58.5394 29.7848ZM45.6586 15.8023L50.1904 14.794V11L45.6586 11.9904V15.8023ZM45.6586 17.2229H50.1904V33.5789H45.6586V17.2229ZM40.8008 18.6052L40.5118 17.2229H36.6114V33.5805H41.1252V22.4944C42.1902 21.0551 43.9959 21.3169 44.5559 21.5227V17.2237C43.9778 16.9992 41.8658 16.5878 40.8 18.606L40.8008 18.6052ZM31.7733 13.1572L27.3679 14.1305L27.3498 29.1034C27.3498 31.8697 29.3542 33.9074 32.0262 33.9074C33.5067 33.9074 34.5898 33.6269 35.1859 33.2894V29.4946C34.6078 29.7385 31.7552 30.5972 31.7552 27.8309V21.2047H35.1859V17.2229H31.7536L31.7733 13.1572ZM19.568 21.9618C19.568 21.2324 20.146 20.9535 21.1027 20.9535C22.6642 20.9879 24.1967 21.3971 25.5795 22.1488V17.7652C24.0809 17.1472 22.6004 16.9057 21.1027 16.9057C17.4371 16.9057 15 18.8873 15 22.1959C15 27.3552 21.8614 26.5323 21.8614 28.7579C21.8614 29.6173 21.1388 29.8979 20.128 29.8979C18.6294 29.8979 16.7153 29.262 15.1987 28.4017V32.8495C16.8779 33.5976 18.576 33.9066 20.128 33.9066C23.8838 33.9066 26.4662 31.9811 26.4662 28.6351C26.4482 23.0652 19.568 24.0556 19.568 21.9618Z" fill="#6D6D91"/>
</svg>
