<svg width="137" height="50" viewBox="0 0 137 50" fill="none" xmlns="http://www.w3.org/2000/svg">
<path d="M8 14.427C8 11.4297 10.4372 9 13.4436 9H35.6572C38.6636 9 41.1008 11.4298 41.1008 14.427V36.573C41.1008 39.5703 38.6636 42 35.6572 42H13.4436C10.4372 42 8 39.5702 8 36.573V14.427Z" fill="#6D6D91"/>
<path d="M32.8081 31.7743C33.0383 31.679 33.2853 31.6295 33.5349 31.6286C33.7845 31.6295 34.0315 31.679 34.2617 31.7743C34.4919 31.8696 34.7009 32.0088 34.8765 32.184C35.0522 32.3591 35.1912 32.5668 35.2855 32.7951C35.3799 33.0233 35.4277 33.2677 35.4263 33.5143C35.4263 34.5553 34.5782 35.4 33.5349 35.4C33.2853 35.3991 33.0383 35.3496 32.8081 35.2542C32.5778 35.1589 32.3689 35.0197 32.1932 34.8446C32.0175 34.6694 31.8786 34.4618 31.7842 34.2335C31.6899 34.0052 31.642 33.7608 31.6434 33.5143C31.642 33.2677 31.6899 33.0233 31.7842 32.7951C31.8786 32.5668 32.0175 32.3591 32.1932 32.184C32.3689 32.0088 32.5778 31.8696 32.8081 31.7743Z" fill="#272742"/>
<path d="M19.7347 35.4H15.5659L15.5681 16.5429H19.7347V35.4Z" fill="#272742"/>
<path d="M25.8828 27.2458C28.6148 24.4237 30.1468 20.6245 30.1468 16.5429H26.0643C26.0735 18.2365 25.6974 19.9089 24.9663 21.4264C24.2351 22.9439 23.1691 24.2644 21.8534 25.2824L20.2373 26.5397L26.496 35.4H31.6434L25.8828 27.2458Z" fill="#272742"/>
<path d="M127.631 30.5063C127.318 30.5075 127.009 30.5707 126.72 30.6922C126.432 30.8138 126.17 30.9914 125.95 31.2148C125.73 31.4383 125.556 31.7031 125.438 31.9943C125.32 32.2855 125.26 32.5973 125.262 32.9118C125.26 33.2263 125.32 33.5381 125.438 33.8293C125.556 34.1204 125.73 34.3853 125.95 34.6088C126.17 34.8322 126.432 35.0098 126.72 35.1314C127.009 35.2529 127.318 35.3161 127.631 35.3173C128.938 35.3173 130 34.2397 130 32.9118C130.002 32.5973 129.942 32.2855 129.824 31.9943C129.705 31.7031 129.531 31.4383 129.311 31.2148C129.091 30.9914 128.83 30.8138 128.541 30.6922C128.253 30.5707 127.943 30.5075 127.631 30.5063ZM119.834 28.6485C119.834 26.8288 118.303 25.3555 116.414 25.3555C114.525 25.3555 112.994 26.831 112.994 28.6485C112.994 30.4661 114.527 31.9393 116.416 31.9393C118.305 31.9393 119.834 30.4661 119.834 28.6485ZM119.848 22.2481H123.621V35.0468H119.848V34.2286C118.747 34.9925 117.442 35.4011 116.105 35.4C112.431 35.4 109.453 32.3775 109.453 28.6485C109.453 24.9196 112.431 21.8971 116.105 21.8971C117.494 21.8971 118.781 22.3285 119.848 23.0685V22.2481ZM89.6399 23.9158V22.2503H85.7751V35.0468H89.6488V29.0711C89.6488 27.0546 91.8002 25.9725 93.2937 25.9725H93.3381V22.2503C91.8046 22.2503 90.3978 22.9165 89.6399 23.9158ZM80.0122 28.6485C80.0122 26.8288 78.4809 25.3555 76.5918 25.3555C74.7027 25.3555 73.1714 26.831 73.1714 28.6485C73.1714 30.4661 74.705 31.9393 76.594 31.9393C78.4831 31.9393 80.0122 30.4661 80.0122 28.6485ZM80.0255 22.2481H83.8015V35.0468H80.0255V34.2286C78.9588 34.9663 77.672 35.4 76.2829 35.4C72.6092 35.4 69.6311 32.3775 69.6311 28.6485C69.6311 24.9196 72.6092 21.8971 76.2829 21.8971C77.672 21.8971 78.9588 22.3285 80.0255 23.0685V22.2481ZM102.746 21.906C101.239 21.906 99.8122 22.38 98.8565 23.69V22.2503H95.0983V35.0468H98.9032V28.3221C98.9032 26.3772 100.188 25.4226 101.737 25.4226C103.395 25.4226 104.35 26.4286 104.35 28.2953V35.0468H108.12V26.9093C108.12 23.9315 105.786 21.906 102.746 21.906ZM64.1327 35.0468H68.0842V16.5473H64.1327V35.0468ZM46.7752 35.0513H50.9601V16.5429H46.7774L46.7752 35.0513ZM61.4124 16.5429C61.4124 20.549 59.8744 24.278 57.1319 27.0479L62.9148 35.0513H57.7475L51.4646 26.3548L53.087 25.1208C54.4078 24.1216 55.4779 22.8255 56.2118 21.3361C56.9458 19.8467 57.3233 18.2052 57.3141 16.5429H61.4124Z" fill="#6D6D91"/>
</svg>
