<svg width="82" height="50" viewBox="0 0 82 50" fill="none" xmlns="http://www.w3.org/2000/svg">
<path fill-rule="evenodd" clip-rule="evenodd" d="M31 11L21.8209 33.992L15.6496 34L10.4235 14.7419L9.99999 13.2909L10.0349 13.3114C10.0623 13.3273 10.0897 13.3438 10.117 13.3599C11.0572 13.8964 15.2314 16.46 17.8124 20.6132C18.2053 22.7254 18.5815 24.6441 19.1127 26.7136L24.8228 11L31 11Z" fill="#6D6D91"/>
<path fill-rule="evenodd" clip-rule="evenodd" d="M57.125 27.0506C57.0807 31.8811 52.9911 35 46.6863 35C43.999 34.9694 41.4073 34.4109 40 33.759L40.8428 28.5543L41.6178 28.9291C43.5918 29.797 44.8647 30.1452 47.2667 30.1452C48.9926 30.1452 50.8377 29.4303 50.8508 27.8694C50.8585 26.8508 50.0758 26.1278 47.7411 24.989C45.468 23.8745 42.4545 22.0128 42.4928 18.6717C42.5217 14.1513 46.7021 11 52.6287 11C54.9498 11 56.8085 11.5013 58 11.9777L57.1868 17.0155L56.6429 16.7447C55.5439 16.2763 54.1207 15.8219 52.1543 15.8542C49.8119 15.8542 48.7204 16.8896 48.7204 17.8592C48.7127 18.9407 49.9933 19.666 52.0871 20.7395C55.5515 22.3957 57.1556 24.4087 57.125 27.0506Z" fill="#6D6D91"/>
<path fill-rule="evenodd" clip-rule="evenodd" d="M73.2689 11H68.752C67.3497 11 66.2985 11.4093 65.6893 12.9137L57 34H63.1394C63.1394 34 64.1451 31.1648 64.3748 30.5418C65.0422 30.5418 71.0142 30.5578 71.8659 30.5578C72.0355 31.3626 72.5712 34 72.5712 34H78L73.2689 11ZM66.0554 25.8393C67.1067 22.9761 68.1608 20.0924 69.162 17.207C69.7377 20.0861 70.3264 22.9621 70.9108 25.8393H66.0554Z" fill="#6D6D91"/>
<path fill-rule="evenodd" clip-rule="evenodd" d="M33.8479 11H40L36.1505 34H30L33.8479 11Z" fill="#6D6D91"/>
<path fill-rule="evenodd" clip-rule="evenodd" d="M4 11L13.9177 11.0076C15.1405 11.0547 16.1262 11.479 16.473 12.9047L18 21C15.4044 16.7794 11.2064 14.1742 10.2608 13.629C10.2334 13.6127 10.2062 13.5962 10.1787 13.5801C10.0206 13.4857 9.8604 13.3926 9.69907 13.3015C7.96679 12.3232 6.05095 11.5387 4 11Z" fill="#272742"/>
</svg>
